<svg xmlns="http://www.w3.org/2000/svg" width="45" height="45" viewBox="0 0 45 45">
  <g id="Grupo_929542" data-name="Grupo 929542" transform="translate(-290 -2315)">
    <g id="Grupo_929192" data-name="Grupo 929192" transform="translate(5176.802 8831.802)">
      <circle id="Elipse_4819" data-name="Elipse 4819" cx="22.5" cy="22.5" r="22.5" transform="translate(-4886.802 -6516.802)" fill="#4d793f"/>
    </g>
    <g id="ubicacion-del-mapa" transform="translate(301.334 2325.361)">
      <path id="Trazado_638741" data-name="Trazado 638741" d="M303.139,78.859a.473.473,0,0,1-.336-.14l-.007-.007a.474.474,0,1,1,.673-.668l.007.007a.474.474,0,0,1-.336.809Zm0,0" transform="translate(-288.307 -74.21)" fill="#fff"/>
      <path id="Trazado_638742" data-name="Trazado 638742" d="M121.733,57.357a5.663,5.663,0,1,1,2.049-10.944.474.474,0,1,1-.343.884,4.71,4.71,0,1,0,2.631,2.544.474.474,0,0,1,.872-.373,5.666,5.666,0,0,1-5.209,7.889Zm0,0" transform="translate(-110.567 -43.848)" fill="#fff"/>
      <path id="Trazado_638743" data-name="Trazado 638743" d="M22.327,23.724l-1.9-11.143a.474.474,0,0,0-.468-.395H17.613a7.847,7.847,0,0,0-.92-9.891l0,0A7.758,7.758,0,0,0,11.169,0h-.026A7.667,7.667,0,0,0,5.674,2.292a7.761,7.761,0,0,0-.935,9.893H2.37a.474.474,0,0,0-.467.395L.006,23.724a.474.474,0,0,0,.468.554H21.859a.474.474,0,0,0,.468-.554ZM17.814,13.134l-.017.491a1.936,1.936,0,0,1-.962,1.538l-1.7.984a3.611,3.611,0,0,0-.668-.794l2.171-1.993.015-.014q.1-.1.2-.212Zm-9.24,2.859.508.47a1.879,1.879,0,0,0-.769,1.487c0,1.189,1.253,2.121,2.853,2.121s2.853-.932,2.853-2.121a1.878,1.878,0,0,0-.764-1.483l.51-.468A2.492,2.492,0,0,1,14.7,17.95c0,1.57-1.551,2.8-3.531,2.8s-3.531-1.23-3.531-2.8a2.492,2.492,0,0,1,.939-1.957Zm3.968,1.129a1,1,0,0,1,.529.828c0,.636-.872,1.173-1.9,1.173s-1.9-.537-1.9-1.173a1,1,0,0,1,.531-.829l1.049.971a.474.474,0,0,0,.643,0ZM6.347,2.961a6.727,6.727,0,0,1,4.8-2.013h.023a6.817,6.817,0,0,1,4.85,2.014,6.908,6.908,0,0,1-.029,9.706L11.165,17.1,6.338,12.632a6.815,6.815,0,0,1,.009-9.671ZM5.674,13.309l.013.013,2.187,2.023a3.749,3.749,0,0,0-.343.348l-1.713-.061a1.936,1.936,0,0,1-1.538-.962l-.89-1.536H5.5q.083.089.17.175Zm-3.012.462.8,1.375a2.883,2.883,0,0,0,2.3,1.433h.015l1.177.042a3.418,3.418,0,0,0-.266,1.329c0,2.1,1.968,3.748,4.48,3.748s4.48-1.646,4.48-3.748a3.443,3.443,0,0,0-.126-.928l1.791-1.037a2.883,2.883,0,0,0,1.433-2.3c0-.005,0-.01,0-.016l.019-.533h.8L20,15.705a2.627,2.627,0,0,0-2.23,3.557l.019.049a1.67,1.67,0,0,1-.533,1.922l-2.223,1.739a1.689,1.689,0,0,1-1.621.251L7.461,21a5.752,5.752,0,0,0-6.294,1.551Zm8.318,9.558H1.751l.065-.075a4.824,4.824,0,0,1,5.314-1.361Zm5.135,0,1.724-1.348a2.614,2.614,0,0,0,.835-3.009l-.019-.049a1.679,1.679,0,0,1,1.5-2.278L21.3,23.329Zm0,0" transform="translate(0 0)" fill="#fff"/>
    </g>
  </g>
</svg>
