<svg xmlns="http://www.w3.org/2000/svg" width="74" height="74" viewBox="0 0 74 74">
  <g id="Grupo_929567" data-name="Grupo 929567" transform="translate(-427.919 -3244.257)">
    <g id="Grupo_929566" data-name="Grupo 929566" transform="translate(0 -2902)">
      <g id="Grupo_926807" data-name="Grupo 926807" transform="translate(-0.001 -4663.244)">
        <circle id="Elipse_4803" data-name="Elipse 4803" cx="37" cy="37" r="37" transform="translate(427.92 10809.501)" fill="#406834"/>
      </g>
    </g>
    <g id="google-docs" transform="translate(389.75 3262.654)">
      <path id="Trazado_638745" data-name="Trazado 638745" d="M89.02,9.039,80.3.319A1.091,1.091,0,0,0,79.529,0H64.27A3.274,3.274,0,0,0,61,3.27V33.934a3.274,3.274,0,0,0,3.27,3.27h21.8a3.274,3.274,0,0,0,3.27-3.27V9.81A1.1,1.1,0,0,0,89.02,9.039Zm-8.4-5.317,5,5H81.709a1.091,1.091,0,0,1-1.09-1.09Zm5.45,31.3H64.27a1.091,1.091,0,0,1-1.09-1.09V3.27a1.091,1.091,0,0,1,1.09-1.09h14.17V7.63a3.274,3.274,0,0,0,3.27,3.27h5.45V33.934A1.091,1.091,0,0,1,86.069,35.024Z" fill="#fff"/>
      <path id="Trazado_638746" data-name="Trazado 638746" d="M165.17,212H152.09a1.09,1.09,0,0,0,0,2.18h13.08a1.09,1.09,0,0,0,0-2.18Z" transform="translate(-83.46 -196.595)" fill="#fff"/>
      <path id="Trazado_638747" data-name="Trazado 638747" d="M165.17,272H152.09a1.09,1.09,0,0,0,0,2.18h13.08a1.09,1.09,0,0,0,0-2.18Z" transform="translate(-83.46 -252.235)" fill="#fff"/>
      <path id="Trazado_638748" data-name="Trazado 638748" d="M165.17,332H152.09a1.09,1.09,0,0,0,0,2.18h13.08a1.09,1.09,0,0,0,0-2.18Z" transform="translate(-83.46 -307.875)" fill="#fff"/>
      <path id="Trazado_638749" data-name="Trazado 638749" d="M160.81,392h-8.72a1.09,1.09,0,0,0,0,2.18h8.72a1.09,1.09,0,1,0,0-2.18Z" transform="translate(-83.46 -363.516)" fill="#fff"/>
    </g>
  </g>
</svg>
