<svg xmlns="http://www.w3.org/2000/svg" xmlns:xlink="http://www.w3.org/1999/xlink" width="110" height="110" viewBox="0 0 110 110">
  <defs>
    <filter id="Elipse_4811" x="0" y="0" width="110" height="110" filterUnits="userSpaceOnUse">
      <feOffset dy="3" input="SourceAlpha"/>
      <feGaussianBlur stdDeviation="3" result="blur"/>
      <feFlood flood-opacity="0.161"/>
      <feComposite operator="in" in2="blur"/>
      <feComposite in="SourceGraphic"/>
    </filter>
  </defs>
  <g id="Grupo_926346" data-name="Grupo 926346" transform="translate(-804 -5217.686)">
    <g transform="matrix(1, 0, 0, 1, 804, 5217.69)" filter="url(#Elipse_4811)">
      <circle id="Elipse_4811-2" data-name="Elipse 4811" cx="46" cy="46" r="46" transform="translate(9 6)" fill="#e8e8e8"/>
    </g>
    <g id="archivo" transform="translate(771.626 5224.686)">
      <path id="Trazado_620308" data-name="Trazado 620308" d="M68.87,74.435h37.009a4.875,4.875,0,0,0,4.87-4.87v-40.9a.974.974,0,0,0-.285-.689L98.776,16.285A.974.974,0,0,0,98.087,16H68.87A4.875,4.875,0,0,0,64,20.87v48.7a4.875,4.875,0,0,0,4.87,4.87Zm30.191-55.11,8.362,8.362h-5.44a2.925,2.925,0,0,1-2.922-2.922ZM65.948,20.87a2.925,2.925,0,0,1,2.922-2.922H97.113v6.817a4.875,4.875,0,0,0,4.87,4.87H108.8V69.565a2.925,2.925,0,0,1-2.922,2.922H68.87a2.925,2.925,0,0,1-2.922-2.922Z"/>
      <path id="Trazado_620309" data-name="Trazado 620309" d="M192,160.974a.974.974,0,0,0,.974.974h23.374a.974.974,0,0,0,0-1.948H192.974A.974.974,0,0,0,192,160.974Z" transform="translate(-112.417 -126.469)"/>
      <path id="Trazado_620310" data-name="Trazado 620310" d="M112.974,209.948h19.478a.974.974,0,1,0,0-1.948H112.974a.974.974,0,1,0,0,1.948Z" transform="translate(-42.156 -168.626)"/>
      <path id="Trazado_620311" data-name="Trazado 620311" d="M258.5,256h-17.53a.974.974,0,1,0,0,1.948H258.5a.974.974,0,0,0,0-1.948Z" transform="translate(-154.574 -210.782)"/>
      <path id="Trazado_620312" data-name="Trazado 620312" d="M112.974,305.948h23.374a.974.974,0,1,0,0-1.948H112.974a.974.974,0,1,0,0,1.948Z" transform="translate(-42.156 -252.939)"/>
      <path id="Trazado_620313" data-name="Trazado 620313" d="M112.974,161.948h5.843a.974.974,0,1,0,0-1.948h-5.843a.974.974,0,1,0,0,1.948Z" transform="translate(-42.156 -126.469)"/>
      <path id="Trazado_620314" data-name="Trazado 620314" d="M314.713,208h-9.739a.974.974,0,0,0,0,1.948h9.739a.974.974,0,1,0,0-1.948Z" transform="translate(-210.782 -168.626)"/>
      <path id="Trazado_620315" data-name="Trazado 620315" d="M112.974,257.948h11.687a.974.974,0,1,0,0-1.948H112.974a.974.974,0,1,0,0,1.948Z" transform="translate(-42.156 -210.782)"/>
      <path id="Trazado_620316" data-name="Trazado 620316" d="M342.817,304h-5.844a.974.974,0,0,0,0,1.948h5.844a.974.974,0,1,0,0-1.948Z" transform="translate(-238.887 -252.939)"/>
      <path id="Trazado_620317" data-name="Trazado 620317" d="M250.713,400h-9.739a.974.974,0,0,0,0,1.948h9.739a.974.974,0,0,0,0-1.948Z" transform="translate(-154.574 -337.252)"/>
      <path id="Trazado_620318" data-name="Trazado 620318" d="M112.974,401.948h11.687a.974.974,0,1,0,0-1.948H112.974a.974.974,0,1,0,0,1.948Z" transform="translate(-42.156 -337.252)"/>
      <path id="Trazado_620319" data-name="Trazado 620319" d="M112.974,353.948h7.791a.974.974,0,0,0,0-1.948h-7.791a.974.974,0,0,0,0,1.948Z" transform="translate(-42.156 -295.095)"/>
      <path id="Trazado_620320" data-name="Trazado 620320" d="M112.974,113.948h11.687a.974.974,0,1,0,0-1.948H112.974a.974.974,0,1,0,0,1.948Z" transform="translate(-42.156 -84.313)"/>
      <path id="Trazado_620321" data-name="Trazado 620321" d="M219.687,352.974a.974.974,0,0,0-.974-.974h-9.739a.974.974,0,0,0,0,1.948h9.739A.974.974,0,0,0,219.687,352.974Z" transform="translate(-126.469 -295.095)"/>
      <path id="Trazado_620322" data-name="Trazado 620322" d="M328.765,352h-7.791a.974.974,0,0,0,0,1.948h7.791a.974.974,0,0,0,0-1.948Z" transform="translate(-224.835 -295.095)"/>
      <path id="Trazado_620323" data-name="Trazado 620323" d="M356.87,400h-3.9a.974.974,0,1,0,0,1.948h3.9a.974.974,0,1,0,0-1.948Z" transform="translate(-252.939 -337.252)"/>
    </g>
  </g>
</svg>
