<svg xmlns="http://www.w3.org/2000/svg" xmlns:xlink="http://www.w3.org/1999/xlink" width="1030.099" height="600.367" viewBox="0 0 1030.099 600.367">
  <defs>
    <clipPath id="clip-path">
      <path id="Trazado_508668" data-name="Trazado 508668" d="M386.349,319.2A127.677,127.677,0,1,0,514.026,191.524,127.677,127.677,0,0,0,386.349,319.2" fill="#fff4e1"/>
    </clipPath>
    <clipPath id="clip-path-2">
      <path id="Trazado_508673" data-name="Trazado 508673" d="M663.8,545.439Z" fill="none"/>
    </clipPath>
    <clipPath id="clip-path-3">
      <path id="Trazado_508679" data-name="Trazado 508679" d="M703.6,59.45A49.966,49.966,0,1,1,653.632,9.486,49.965,49.965,0,0,1,703.6,59.45" transform="translate(-603.666 -9.486)" fill="none"/>
    </clipPath>
    <clipPath id="clip-path-4">
      <path id="Trazado_508670" data-name="Trazado 508670" d="M592.531,540.917A49.965,49.965,0,1,0,642.5,490.951a49.964,49.964,0,0,0-49.965,49.966" fill="none"/>
    </clipPath>
    <clipPath id="clip-path-5">
      <path id="Trazado_508670-2" data-name="Trazado 508670" d="M692.461,540.917A49.965,49.965,0,1,1,642.5,490.951a49.964,49.964,0,0,1,49.965,49.966" transform="translate(-592.531 -490.951)" fill="none"/>
    </clipPath>
    <clipPath id="clip-path-6">
      <path id="Trazado_508679-2" data-name="Trazado 508679" d="M603.666,59.45A49.965,49.965,0,1,0,653.631,9.486,49.965,49.965,0,0,0,603.666,59.45" fill="none"/>
    </clipPath>
  </defs>
  <g id="Grupo_944279" data-name="Grupo 944279" transform="translate(-285 -9983.264)">
    <g id="Grupo_926860" data-name="Grupo 926860" transform="translate(0 1561.371)">
      <path id="Trazado_508650" data-name="Trazado 508650" d="M268.073,313.174c2.08-86.093,48.607-161.361,117.458-203.7l-6.044-10.429c-72.44,44.432-121.38,123.59-123.465,214.129Z" transform="translate(285 8421.893)" fill="#ffe4b9"/>
      <path id="Trazado_508651" data-name="Trazado 508651" d="M268.073,313.174c2.08-86.093,48.607-161.361,117.458-203.7l-6.044-10.429c-72.44,44.432-121.38,123.59-123.465,214.129Z" transform="translate(285 8421.893)" fill="none" stroke="#ffe4b9" stroke-miterlimit="10" stroke-width="23"/>
      <path id="Trazado_508652" data-name="Trazado 508652" d="M759.979,325.227c-2.081,86.1-48.611,161.367-117.466,203.705l6.043,10.429C721,494.93,769.945,415.769,772.03,325.227Z" transform="translate(285 8421.893)" fill="#ffe4b9"/>
      <path id="Trazado_508653" data-name="Trazado 508653" d="M759.979,325.227c-2.081,86.1-48.611,161.367-117.466,203.705l6.043,10.429C721,494.93,769.945,415.769,772.03,325.227Z" transform="translate(285 8421.893)" fill="none" stroke="#ffe4b9" stroke-miterlimit="10" stroke-width="23"/>
      <path id="Trazado_508654" data-name="Trazado 508654" d="M268.073,325.227H256.022c2.083,90.432,50.912,169.509,123.211,213.97l6.056-10.422c-68.717-42.367-115.138-117.556-117.216-203.548" transform="translate(285 8421.893)" fill="#ffe4b9"/>
      <path id="Trazado_508655" data-name="Trazado 508655" d="M268.073,325.227H256.022c2.083,90.432,50.912,169.509,123.211,213.97l6.056-10.422C316.572,486.408,270.151,411.219,268.073,325.227Z" transform="translate(285 8421.893)" fill="none" stroke="#ffe4b9" stroke-miterlimit="10" stroke-width="23"/>
      <path id="Trazado_508656" data-name="Trazado 508656" d="M648.811,99.2l-6.055,10.422C711.477,151.987,757.9,227.179,759.979,313.175H772.03C769.947,222.739,721.115,143.659,648.811,99.2" transform="translate(285 8421.893)" fill="#ffe4b9"/>
      <path id="Trazado_508657" data-name="Trazado 508657" d="M648.811,99.2l-6.055,10.422C711.477,151.987,757.9,227.179,759.979,313.175H772.03C769.947,222.739,721.115,143.659,648.811,99.2Z" transform="translate(285 8421.893)" fill="none" stroke="#ffe4b9" stroke-miterlimit="10" stroke-width="23"/>
      <path id="Trazado_508658" data-name="Trazado 508658" d="M395.947,103.414a245.617,245.617,0,0,1,236.4.135L638.4,93.13a257.632,257.632,0,0,0-248.494-.142Z" transform="translate(285 8421.893)" fill="#ffe4b9"/>
      <path id="Trazado_508659" data-name="Trazado 508659" d="M395.947,103.414a245.617,245.617,0,0,1,236.4.135L638.4,93.13a257.632,257.632,0,0,0-248.494-.142Z" transform="translate(285 8421.893)" fill="none" stroke="#ffe4b9" stroke-miterlimit="10" stroke-width="23"/>
      <path id="Trazado_508660" data-name="Trazado 508660" d="M632.1,534.991a245.619,245.619,0,0,1-236.4-.144l-6.054,10.419a257.635,257.635,0,0,0,248.494.151Z" transform="translate(285 8421.893)" fill="#ffe4b9"/>
      <path id="Trazado_508661" data-name="Trazado 508661" d="M632.1,534.991a245.619,245.619,0,0,1-236.4-.144l-6.054,10.419a257.635,257.635,0,0,0,248.494.151Z" transform="translate(285 8421.893)" fill="none" stroke="#ffe4b9" stroke-miterlimit="10" stroke-width="23"/>
      <line id="Línea_248" data-name="Línea 248" x2="374" y2="348" transform="translate(613 8565.5)" fill="none" stroke="#00263d" stroke-miterlimit="10" stroke-width="1"/>
      <path id="Trazado_508662" data-name="Trazado 508662" d="M374.13,315.772a140.006,140.006,0,0,1,66.809-115.863l-3.437-5.932a146.86,146.86,0,0,0-70.227,121.795Z" transform="translate(285 8421.893)" fill="#ffb338"/>
      <path id="Trazado_508663" data-name="Trazado 508663" d="M653.922,322.628a140.007,140.007,0,0,1-66.814,115.866l3.437,5.932a146.865,146.865,0,0,0,70.232-121.8Z" transform="translate(285 8421.893)" fill="#ffb338"/>
      <path id="Trazado_508666" data-name="Trazado 508666" d="M446.863,196.462a139.713,139.713,0,0,1,134.463.076l3.443-5.926a146.541,146.541,0,0,0-141.342-.08Z" transform="translate(285 8421.893)" fill="#ffb338"/>
      <path id="Trazado_508667" data-name="Trazado 508667" d="M581.184,441.94a139.7,139.7,0,0,1-134.462-.082l-3.443,5.926a146.54,146.54,0,0,0,141.341.086Z" transform="translate(285 8421.893)" fill="#ffb338"/>
      <rect id="Rectángulo_334962" data-name="Rectángulo 334962" width="1030.099" height="600.367" transform="translate(285 8421.893)" fill="none"/>
      <rect id="Rectángulo_334964" data-name="Rectángulo 334964" width="1030.099" height="600.367" transform="translate(285 8421.893)" fill="none"/>
      <path id="Trazado_508674" data-name="Trazado 508674" d="M660.995,541.7" transform="translate(285 8421.893)" fill="#fff"/>
      <rect id="Rectángulo_334966" data-name="Rectángulo 334966" width="1030.099" height="600.367" transform="translate(285 8421.893)" fill="none"/>
      <rect id="Rectángulo_334968" data-name="Rectángulo 334968" width="1030.099" height="600.367" transform="translate(285 8421.893)" fill="none"/>
      <rect id="Rectángulo_334970" data-name="Rectángulo 334970" width="1030.099" height="600.367" transform="translate(285 8421.893)" fill="none"/>
      <rect id="Rectángulo_334972" data-name="Rectángulo 334972" width="1030.099" height="600.367" transform="translate(285 8421.893)" fill="none"/>
      <path id="Trazado_508687" data-name="Trazado 508687" d="M446.863,196.462l-5.925,3.447-3.437-5.932,5.926-3.445Z" transform="translate(285 8421.893)" fill="#ffb338"/>
      <path id="Trazado_508688" data-name="Trazado 508688" d="M581.333,196.541l5.925,3.447,3.437-5.932-5.926-3.445Z" transform="translate(285 8421.893)" fill="#ffb338"/>
      <path id="Trazado_620429" data-name="Trazado 620429" d="M580.568,196.807l6.038,3.628,3.562-5.927-6.038-3.628Z" transform="translate(808.599 8138.596) rotate(59)" fill="#ffb338"/>
      <path id="Trazado_620433" data-name="Trazado 620433" d="M580.064,196.193l5.979,3.723L589.55,194l-5.9-3.641Z" transform="matrix(-0.469, 0.883, -0.883, -0.469, 1317.677, 8440.332)" fill="#ffb338"/>
      <path id="Trazado_620434" data-name="Trazado 620434" d="M.007,3.5l5.88-3.66,3.7,5.808L3.624,9.288Z" transform="matrix(0.469, 0.883, -0.883, 0.469, 728.823, 8858.643)" fill="#ffb338"/>
      <path id="Trazado_620430" data-name="Trazado 620430" d="M-.063,3.523,5.975-.1,9.509,5.778,3.472,9.406Z" transform="translate(662.135 8739.472) rotate(121)" fill="#ffb338"/>
      <rect id="Rectángulo_334974" data-name="Rectángulo 334974" width="1030.099" height="600.367" transform="translate(285 8421.893)" fill="none"/>
      <rect id="Rectángulo_334976" data-name="Rectángulo 334976" width="1030.099" height="600.367" transform="translate(285 8421.893)" fill="none"/>
      <line id="Línea_254" data-name="Línea 254" x1="374" y2="348" transform="translate(613 8565.5)" fill="none" stroke="#00263d" stroke-miterlimit="10" stroke-width="1"/>
      <g id="Grupo_926400" data-name="Grupo 926400" transform="translate(285 8421.893)">
        <g id="Grupo_735225" data-name="Grupo 735225" clip-path="url(#clip-path)">
          <rect id="Rectángulo_334963" data-name="Rectángulo 334963" width="255.353" height="255.353" transform="translate(386.349 191.524)" fill="#fff4e1"/>
        </g>
      </g>
      <path id="Trazado_681399" data-name="Trazado 681399" d="M-67.164-4.828h-4.312v2.719h5.094V0h-7.836V-11.375h7.852v2.117h-5.109v2.4h4.313Zm4.844-5.727v2.1h1.391v1.828H-62.32v3.867a.987.987,0,0,0,.172.664.922.922,0,0,0,.68.188,3.862,3.862,0,0,0,.656-.047V-.07A4.859,4.859,0,0,1-62.3.156,2.758,2.758,0,0,1-64.3-.484a2.626,2.626,0,0,1-.648-1.945v-4.2h-1.078V-8.453h1.078v-2.1ZM-55.133,0a2.973,2.973,0,0,1-.25-.758,2.448,2.448,0,0,1-2.031.914,3,3,0,0,1-2.031-.723,2.3,2.3,0,0,1-.836-1.816,2.364,2.364,0,0,1,1.016-2.078,5.174,5.174,0,0,1,2.953-.7h.813v-.448q0-1.17-1.008-1.17a.824.824,0,0,0-.937.926h-2.633a2.36,2.36,0,0,1,1.043-1.99,4.383,4.383,0,0,1,2.66-.765,3.843,3.843,0,0,1,2.555.789,2.743,2.743,0,0,1,.961,2.164v3.742A3.832,3.832,0,0,0-52.5-.133V0Zm-1.648-1.719a1.469,1.469,0,0,0,.816-.211,1.322,1.322,0,0,0,.465-.477V-3.758h-.766q-1.375,0-1.375,1.234a.754.754,0,0,0,.242.582A.876.876,0,0,0-56.781-1.719Zm13.227-2.445a5.1,5.1,0,0,1-.887,3.145A2.843,2.843,0,0,1-46.836.156,2.437,2.437,0,0,1-48.75-.7V3.25h-2.633v-11.7h2.461l.078.781a2.437,2.437,0,0,1,1.992-.937,2.866,2.866,0,0,1,2.43,1.152,5.16,5.16,0,0,1,.867,3.168Zm-2.633-.164q0-2.25-1.312-2.25a1.239,1.239,0,0,0-1.25.672v3.328a1.279,1.279,0,0,0,1.266.7q1.258,0,1.3-2.172ZM-37.633,0a2.973,2.973,0,0,1-.25-.758,2.448,2.448,0,0,1-2.031.914,3,3,0,0,1-2.031-.723,2.3,2.3,0,0,1-.836-1.816,2.364,2.364,0,0,1,1.016-2.078,5.174,5.174,0,0,1,2.953-.7H-38v-.448q0-1.17-1.008-1.17a.824.824,0,0,0-.937.926h-2.633a2.36,2.36,0,0,1,1.043-1.99,4.383,4.383,0,0,1,2.66-.765,3.843,3.843,0,0,1,2.555.789,2.743,2.743,0,0,1,.961,2.164v3.742A3.832,3.832,0,0,0-35-.133V0Zm-1.648-1.719a1.469,1.469,0,0,0,.816-.211A1.322,1.322,0,0,0-38-2.406V-3.758h-.766q-1.375,0-1.375,1.234a.754.754,0,0,0,.242.582A.876.876,0,0,0-39.281-1.719Zm9.8-.656a.608.608,0,0,0-.352-.539,5.348,5.348,0,0,0-1.336-.422,6.092,6.092,0,0,1-1.625-.574,2.722,2.722,0,0,1-.977-.863A2.061,2.061,0,0,1-34.1-5.937a2.336,2.336,0,0,1,.961-1.918,3.958,3.958,0,0,1,2.516-.754,4.386,4.386,0,0,1,2.688.758,2.37,2.37,0,0,1,1.016,1.992h-2.641q0-1.016-1.07-1.016a1.061,1.061,0,0,0-.7.23.714.714,0,0,0-.281.574.655.655,0,0,0,.344.57,3.248,3.248,0,0,0,1.1.359,9.486,9.486,0,0,1,1.324.336,2.406,2.406,0,0,1,1.906,2.352A2.214,2.214,0,0,1-27.965-.57a4.505,4.505,0,0,1-2.66.727,4.6,4.6,0,0,1-1.937-.391A3.24,3.24,0,0,1-33.891-1.3a2.406,2.406,0,0,1-.477-1.414h2.461a1.017,1.017,0,0,0,.391.855,1.607,1.607,0,0,0,.961.27,1.264,1.264,0,0,0,.809-.219A.7.7,0,0,0-29.477-2.375Zm11.328.5a1.171,1.171,0,0,0,.859-.3,1.1,1.1,0,0,0,.3-.84h2.469a2.922,2.922,0,0,1-1,2.281,3.705,3.705,0,0,1-2.566.891A3.751,3.751,0,0,1-20.992-1a4.556,4.556,0,0,1-1.062-3.2v-.109a5.149,5.149,0,0,1,.473-2.262,3.441,3.441,0,0,1,1.363-1.508,4.065,4.065,0,0,1,2.109-.527,3.658,3.658,0,0,1,2.617.914,3.242,3.242,0,0,1,.969,2.477h-2.469a1.445,1.445,0,0,0-.32-1.008,1.106,1.106,0,0,0-.859-.352q-1.023,0-1.2,1.3a9.206,9.206,0,0,0-.055,1.141,3.616,3.616,0,0,0,.3,1.766A1.055,1.055,0,0,0-18.148-1.875ZM-10.539,0h-2.648V-8.453h2.648Zm-.984-11.844h2.781l-2.172,2.453-2.148,0Zm6.25,9.969a1.171,1.171,0,0,0,.859-.3,1.1,1.1,0,0,0,.3-.84h2.469a2.922,2.922,0,0,1-1,2.281A3.705,3.705,0,0,1-5.211.156,3.751,3.751,0,0,1-8.117-1,4.556,4.556,0,0,1-9.18-4.2v-.109a5.149,5.149,0,0,1,.473-2.262A3.441,3.441,0,0,1-7.344-8.082a4.065,4.065,0,0,1,2.109-.527A3.658,3.658,0,0,1-2.617-7.7a3.242,3.242,0,0,1,.969,2.477H-4.117a1.445,1.445,0,0,0-.32-1.008A1.106,1.106,0,0,0-5.3-6.578q-1.023,0-1.2,1.3a9.206,9.206,0,0,0-.055,1.141,3.616,3.616,0,0,0,.3,1.766A1.055,1.055,0,0,0-5.273-1.875ZM2.242,0H-.4V-12H2.242Zm4.4,0H4V-8.453H6.641Zm-2.8-10.633a1.175,1.175,0,0,1,.406-.922A1.533,1.533,0,0,1,5.3-11.914a1.533,1.533,0,0,1,1.055.359,1.175,1.175,0,0,1,.406.922,1.175,1.175,0,0,1-.406.922A1.533,1.533,0,0,1,5.3-9.352,1.533,1.533,0,0,1,4.25-9.711,1.175,1.175,0,0,1,3.844-10.633Zm7.992,8.758a1.171,1.171,0,0,0,.859-.3,1.1,1.1,0,0,0,.3-.84h2.469a2.922,2.922,0,0,1-1,2.281A3.705,3.705,0,0,1,11.9.156,3.751,3.751,0,0,1,8.992-1,4.556,4.556,0,0,1,7.93-4.2v-.109A5.149,5.149,0,0,1,8.4-6.574,3.441,3.441,0,0,1,9.766-8.082a4.065,4.065,0,0,1,2.109-.527,3.658,3.658,0,0,1,2.617.914,3.242,3.242,0,0,1,.969,2.477H12.992a1.445,1.445,0,0,0-.32-1.008,1.106,1.106,0,0,0-.859-.352q-1.023,0-1.2,1.3a9.206,9.206,0,0,0-.055,1.141,3.616,3.616,0,0,0,.3,1.766A1.055,1.055,0,0,0,11.836-1.875ZM21.336,0a2.973,2.973,0,0,1-.25-.758,2.448,2.448,0,0,1-2.031.914,3,3,0,0,1-2.031-.723,2.3,2.3,0,0,1-.836-1.816A2.364,2.364,0,0,1,17.2-4.461a5.174,5.174,0,0,1,2.953-.7h.813v-.448q0-1.17-1.008-1.17a.824.824,0,0,0-.937.926H16.391a2.36,2.36,0,0,1,1.043-1.99,4.383,4.383,0,0,1,2.66-.765,3.843,3.843,0,0,1,2.555.789,2.743,2.743,0,0,1,.961,2.164v3.742a3.832,3.832,0,0,0,.359,1.781V0ZM19.688-1.719A1.469,1.469,0,0,0,20.5-1.93a1.322,1.322,0,0,0,.465-.477V-3.758H20.2q-1.375,0-1.375,1.234a.754.754,0,0,0,.242.582A.876.876,0,0,0,19.688-1.719Zm9.8-.656a.608.608,0,0,0-.352-.539A5.348,5.348,0,0,0,27.8-3.336,6.092,6.092,0,0,1,26.18-3.91a2.722,2.722,0,0,1-.977-.863,2.061,2.061,0,0,1-.336-1.164,2.336,2.336,0,0,1,.961-1.918,3.958,3.958,0,0,1,2.516-.754,4.386,4.386,0,0,1,2.688.758,2.37,2.37,0,0,1,1.016,1.992H29.406q0-1.016-1.07-1.016a1.061,1.061,0,0,0-.7.23.714.714,0,0,0-.281.574.655.655,0,0,0,.344.57,3.248,3.248,0,0,0,1.1.359,9.486,9.486,0,0,1,1.324.336,2.406,2.406,0,0,1,1.906,2.352A2.214,2.214,0,0,1,31-.57a4.505,4.505,0,0,1-2.66.727,4.6,4.6,0,0,1-1.937-.391A3.24,3.24,0,0,1,25.078-1.3,2.406,2.406,0,0,1,24.6-2.711h2.461a1.017,1.017,0,0,0,.391.855,1.607,1.607,0,0,0,.961.27,1.264,1.264,0,0,0,.809-.219A.7.7,0,0,0,29.492-2.375Zm7.422-1.914a5.164,5.164,0,0,1,.867-3.164A2.854,2.854,0,0,1,40.2-8.609a2.428,2.428,0,0,1,1.906.891V-12H44.75V0H42.383L42.25-.906A2.493,2.493,0,0,1,40.188.156,2.849,2.849,0,0,1,37.8-1,5.327,5.327,0,0,1,36.914-4.289Zm2.633.164q0,2.25,1.313,2.25a1.3,1.3,0,0,0,1.25-.734V-5.828a1.261,1.261,0,0,0-1.234-.75q-1.219,0-1.32,1.969ZM50.336.156A4.345,4.345,0,0,1,47.188-1a4.006,4.006,0,0,1-1.2-3.02v-.219a5.191,5.191,0,0,1,.48-2.289,3.516,3.516,0,0,1,1.4-1.535,4.233,4.233,0,0,1,2.188-.543A3.659,3.659,0,0,1,52.867-7.5,4.344,4.344,0,0,1,53.9-4.422V-3.4H48.664a1.9,1.9,0,0,0,.617,1.117,1.836,1.836,0,0,0,1.234.406,2.366,2.366,0,0,0,1.953-.875l1.2,1.422A3.363,3.363,0,0,1,52.277-.246,4.713,4.713,0,0,1,50.336.156Zm-.3-6.734q-1.156,0-1.375,1.531H51.32v-.2A1.3,1.3,0,0,0,51-6.23,1.275,1.275,0,0,0,50.039-6.578ZM61.719,0H59.078V-12h2.641ZM68.1,0a2.973,2.973,0,0,1-.25-.758A2.448,2.448,0,0,1,65.82.156a3,3,0,0,1-2.031-.723,2.3,2.3,0,0,1-.836-1.816,2.364,2.364,0,0,1,1.016-2.078,5.174,5.174,0,0,1,2.953-.7h.813v-.448q0-1.17-1.008-1.17a.824.824,0,0,0-.937.926H63.156A2.36,2.36,0,0,1,64.2-7.845a4.383,4.383,0,0,1,2.66-.765,3.843,3.843,0,0,1,2.555.789,2.743,2.743,0,0,1,.961,2.164v3.742a3.832,3.832,0,0,0,.359,1.781V0ZM66.453-1.719a1.469,1.469,0,0,0,.816-.211,1.322,1.322,0,0,0,.465-.477V-3.758h-.766q-1.375,0-1.375,1.234a.754.754,0,0,0,.242.582A.876.876,0,0,0,66.453-1.719ZM-53.6,15.125a1.171,1.171,0,0,0,.859-.3,1.1,1.1,0,0,0,.3-.84h2.469a2.922,2.922,0,0,1-1,2.281,3.705,3.705,0,0,1-2.566.891A3.751,3.751,0,0,1-56.441,16,4.556,4.556,0,0,1-57.5,12.8v-.109a5.149,5.149,0,0,1,.473-2.262,3.441,3.441,0,0,1,1.363-1.508,4.065,4.065,0,0,1,2.109-.527,3.658,3.658,0,0,1,2.617.914,3.242,3.242,0,0,1,.969,2.477h-2.469a1.445,1.445,0,0,0-.32-1.008,1.106,1.106,0,0,0-.859-.352q-1.023,0-1.2,1.3a9.206,9.206,0,0,0-.055,1.141,3.616,3.616,0,0,0,.3,1.766A1.055,1.055,0,0,0-53.6,15.125Zm4.406-2.43a4.989,4.989,0,0,1,.492-2.254,3.52,3.52,0,0,1,1.414-1.52,4.259,4.259,0,0,1,2.164-.531,3.887,3.887,0,0,1,2.992,1.176,4.512,4.512,0,0,1,1.094,3.2v.094A4.378,4.378,0,0,1-42.133,16a3.9,3.9,0,0,1-2.973,1.16A3.942,3.942,0,0,1-48,16.074a4.232,4.232,0,0,1-1.18-2.934Zm2.633.164a3.145,3.145,0,0,0,.367,1.719,1.223,1.223,0,0,0,1.086.547q1.406,0,1.438-2.164V12.7q0-2.273-1.453-2.273-1.32,0-1.43,1.961Zm9.1-4.312.086.992a2.867,2.867,0,0,1,2.414-1.148,2.412,2.412,0,0,1,1.973.789,3.757,3.757,0,0,1,.676,2.375V17h-2.641V11.664a1.426,1.426,0,0,0-.258-.941,1.193,1.193,0,0,0-.937-.3,1.256,1.256,0,0,0-1.148.609V17h-2.633V8.547Zm11.031,6.078a.608.608,0,0,0-.352-.539,5.348,5.348,0,0,0-1.336-.422,6.092,6.092,0,0,1-1.625-.574,2.722,2.722,0,0,1-.977-.863,2.061,2.061,0,0,1-.336-1.164,2.336,2.336,0,0,1,.961-1.918,3.958,3.958,0,0,1,2.516-.754,4.386,4.386,0,0,1,2.688.758,2.37,2.37,0,0,1,1.016,1.992h-2.641q0-1.016-1.07-1.016a1.061,1.061,0,0,0-.7.23.714.714,0,0,0-.281.574.655.655,0,0,0,.344.57,3.248,3.248,0,0,0,1.1.359,9.486,9.486,0,0,1,1.324.336,2.406,2.406,0,0,1,1.906,2.352,2.214,2.214,0,0,1-1.027,1.883,4.505,4.505,0,0,1-2.66.727,4.6,4.6,0,0,1-1.937-.391A3.24,3.24,0,0,1-30.84,15.7a2.406,2.406,0,0,1-.477-1.414h2.461a1.017,1.017,0,0,0,.391.855,1.607,1.607,0,0,0,.961.27A1.264,1.264,0,0,0-26.7,15.2.7.7,0,0,0-26.426,14.625Zm6.836-8.18v2.1H-18.2v1.828H-19.59v3.867a.987.987,0,0,0,.172.664.922.922,0,0,0,.68.188,3.862,3.862,0,0,0,.656-.047V16.93a4.859,4.859,0,0,1-1.484.227,2.758,2.758,0,0,1-2.008-.641,2.626,2.626,0,0,1-.648-1.945v-4.2H-23.3V8.547h1.078v-2.1Zm7.539,4.484-.867-.062a1.558,1.558,0,0,0-1.594.781V17h-2.633V8.547h2.469l.086,1.086a2.039,2.039,0,0,1,1.852-1.242A2.567,2.567,0,0,1-12,8.484Zm5.984,5.156a2.714,2.714,0,0,1-2.258,1.07,2.662,2.662,0,0,1-2.105-.809,3.4,3.4,0,0,1-.715-2.324V8.547h2.633v5.492a.946.946,0,0,0,1.055,1.086,1.376,1.376,0,0,0,1.289-.648V8.547H-3.52V17H-5.988ZM1.5,15.125a1.171,1.171,0,0,0,.859-.3,1.1,1.1,0,0,0,.3-.84H5.121a2.922,2.922,0,0,1-1,2.281,3.705,3.705,0,0,1-2.566.891A3.751,3.751,0,0,1-1.348,16,4.556,4.556,0,0,1-2.41,12.8v-.109a5.149,5.149,0,0,1,.473-2.262A3.441,3.441,0,0,1-.574,8.918a4.065,4.065,0,0,1,2.109-.527A3.658,3.658,0,0,1,4.152,9.3a3.242,3.242,0,0,1,.969,2.477H2.652a1.445,1.445,0,0,0-.32-1.008,1.106,1.106,0,0,0-.859-.352q-1.023,0-1.2,1.3a9.206,9.206,0,0,0-.055,1.141,3.616,3.616,0,0,0,.3,1.766A1.055,1.055,0,0,0,1.5,15.125Zm8.313,0a1.171,1.171,0,0,0,.859-.3,1.1,1.1,0,0,0,.3-.84h2.469a2.922,2.922,0,0,1-1,2.281,3.705,3.705,0,0,1-2.566.891A3.751,3.751,0,0,1,6.965,16,4.556,4.556,0,0,1,5.9,12.8v-.109a5.149,5.149,0,0,1,.473-2.262A3.441,3.441,0,0,1,7.738,8.918a4.065,4.065,0,0,1,2.109-.527,3.658,3.658,0,0,1,2.617.914,3.242,3.242,0,0,1,.969,2.477H10.965a1.445,1.445,0,0,0-.32-1.008,1.106,1.106,0,0,0-.859-.352q-1.023,0-1.2,1.3a9.206,9.206,0,0,0-.055,1.141,3.616,3.616,0,0,0,.3,1.766A1.055,1.055,0,0,0,9.809,15.125ZM17.324,17H14.684V8.547h2.641Zm-2.8-10.633a1.175,1.175,0,0,1,.406-.922,1.727,1.727,0,0,1,2.109,0,1.175,1.175,0,0,1,.406.922,1.175,1.175,0,0,1-.406.922,1.727,1.727,0,0,1-2.109,0A1.175,1.175,0,0,1,14.527,6.367ZM18.613,12.7a4.989,4.989,0,0,1,.492-2.254,3.52,3.52,0,0,1,1.414-1.52,4.259,4.259,0,0,1,2.164-.531,3.887,3.887,0,0,1,2.992,1.176,4.512,4.512,0,0,1,1.094,3.2v.094A4.378,4.378,0,0,1,25.672,16a3.9,3.9,0,0,1-2.973,1.16,3.942,3.942,0,0,1-2.9-1.082,4.232,4.232,0,0,1-1.18-2.934Zm2.633.164a3.145,3.145,0,0,0,.367,1.719,1.223,1.223,0,0,0,1.086.547q1.406,0,1.438-2.164V12.7q0-2.273-1.453-2.273-1.32,0-1.43,1.961ZM23.043,5h2.781L23.652,7.453l-2.148,0Zm7.3,3.547.086.992a2.867,2.867,0,0,1,2.414-1.148,2.412,2.412,0,0,1,1.973.789,3.757,3.757,0,0,1,.676,2.375V17H32.855V11.664a1.426,1.426,0,0,0-.258-.941,1.193,1.193,0,0,0-.937-.3,1.256,1.256,0,0,0-1.148.609V17H27.879V8.547Zm10.258,4.164a5.164,5.164,0,0,1,.867-3.164,2.854,2.854,0,0,1,2.422-1.156,2.428,2.428,0,0,1,1.906.891V5h2.641V17H46.074l-.133-.906a2.493,2.493,0,0,1-2.062,1.063A2.849,2.849,0,0,1,41.488,16,5.327,5.327,0,0,1,40.605,12.711Zm2.633.164q0,2.25,1.313,2.25a1.3,1.3,0,0,0,1.25-.734V11.172a1.261,1.261,0,0,0-1.234-.75q-1.219,0-1.32,1.969Zm10.789,4.281A4.345,4.345,0,0,1,50.879,16a4.006,4.006,0,0,1-1.2-3.02v-.219a5.191,5.191,0,0,1,.48-2.289,3.516,3.516,0,0,1,1.4-1.535,4.233,4.233,0,0,1,2.188-.543A3.659,3.659,0,0,1,56.559,9.5a4.344,4.344,0,0,1,1.031,3.082V13.6H52.355a1.9,1.9,0,0,0,.617,1.117,1.836,1.836,0,0,0,1.234.406,2.366,2.366,0,0,0,1.953-.875l1.2,1.422a3.363,3.363,0,0,1-1.395,1.082A4.713,4.713,0,0,1,54.027,17.156Zm-.3-6.734q-1.156,0-1.375,1.531h2.656v-.2a1.3,1.3,0,0,0-.32-.98A1.275,1.275,0,0,0,53.73,10.422ZM-52.883,23.445v2.1h1.391v1.828h-1.391v3.867a.987.987,0,0,0,.172.664.922.922,0,0,0,.68.188,3.862,3.862,0,0,0,.656-.047V33.93a4.859,4.859,0,0,1-1.484.227,2.758,2.758,0,0,1-2.008-.641,2.626,2.626,0,0,1-.648-1.945v-4.2h-1.078V25.547h1.078v-2.1Zm6.516,10.711A4.345,4.345,0,0,1-49.516,33a4.006,4.006,0,0,1-1.2-3.02v-.219a5.191,5.191,0,0,1,.48-2.289,3.516,3.516,0,0,1,1.4-1.535,4.233,4.233,0,0,1,2.188-.543A3.659,3.659,0,0,1-43.836,26.5,4.344,4.344,0,0,1-42.8,29.578V30.6h-5.234a1.9,1.9,0,0,0,.617,1.117,1.836,1.836,0,0,0,1.234.406,2.366,2.366,0,0,0,1.953-.875l1.2,1.422a3.363,3.363,0,0,1-1.395,1.082A4.713,4.713,0,0,1-46.367,34.156Zm-.3-6.734q-1.156,0-1.375,1.531h2.656v-.2a1.3,1.3,0,0,0-.32-.98A1.275,1.275,0,0,0-46.664,27.422Zm8.344.453,1.227-2.328h2.734l-2.227,4.117L-34.25,34H-37l-1.328-2.5-1.3,2.5H-42.4l2.344-4.336-2.219-4.117h2.766Zm7.875-4.43v2.1h1.391v1.828h-1.391v3.867a.987.987,0,0,0,.172.664.922.922,0,0,0,.68.188,3.862,3.862,0,0,0,.656-.047V33.93a4.859,4.859,0,0,1-1.484.227,2.758,2.758,0,0,1-2.008-.641,2.626,2.626,0,0,1-.648-1.945v-4.2h-1.078V25.547h1.078v-2.1Zm1.859,6.25a4.989,4.989,0,0,1,.492-2.254,3.52,3.52,0,0,1,1.414-1.52,4.259,4.259,0,0,1,2.164-.531,3.887,3.887,0,0,1,2.992,1.176,4.512,4.512,0,0,1,1.094,3.2v.094A4.378,4.378,0,0,1-21.527,33a3.9,3.9,0,0,1-2.973,1.16,3.942,3.942,0,0,1-2.9-1.082,4.232,4.232,0,0,1-1.18-2.934Zm2.633.164a3.145,3.145,0,0,0,.367,1.719,1.223,1.223,0,0,0,1.086.547q1.406,0,1.438-2.164V29.7q0-2.273-1.453-2.273-1.32,0-1.43,1.961Zm11.109,1.766a.608.608,0,0,0-.352-.539,5.348,5.348,0,0,0-1.336-.422,6.092,6.092,0,0,1-1.625-.574,2.722,2.722,0,0,1-.977-.863,2.061,2.061,0,0,1-.336-1.164,2.336,2.336,0,0,1,.961-1.918,3.958,3.958,0,0,1,2.516-.754,4.386,4.386,0,0,1,2.688.758,2.37,2.37,0,0,1,1.016,1.992H-14.93q0-1.016-1.07-1.016a1.061,1.061,0,0,0-.7.23.714.714,0,0,0-.281.574.655.655,0,0,0,.344.57,3.248,3.248,0,0,0,1.1.359,9.485,9.485,0,0,1,1.324.336A2.406,2.406,0,0,1-12.3,31.547a2.214,2.214,0,0,1-1.027,1.883,4.505,4.505,0,0,1-2.66.727,4.6,4.6,0,0,1-1.937-.391A3.24,3.24,0,0,1-19.258,32.7a2.406,2.406,0,0,1-.477-1.414h2.461a1.017,1.017,0,0,0,.391.855,1.607,1.607,0,0,0,.961.27,1.264,1.264,0,0,0,.809-.219A.7.7,0,0,0-14.844,31.625ZM-3,34.156A4.345,4.345,0,0,1-6.148,33a4.006,4.006,0,0,1-1.2-3.02v-.219a5.191,5.191,0,0,1,.48-2.289,3.516,3.516,0,0,1,1.4-1.535,4.233,4.233,0,0,1,2.188-.543A3.659,3.659,0,0,1-.469,26.5,4.344,4.344,0,0,1,.563,29.578V30.6H-4.672a1.9,1.9,0,0,0,.617,1.117,1.836,1.836,0,0,0,1.234.406A2.366,2.366,0,0,0-.867,31.25l1.2,1.422a3.363,3.363,0,0,1-1.395,1.082A4.713,4.713,0,0,1-3,34.156Zm-.3-6.734q-1.156,0-1.375,1.531h2.656v-.2a1.3,1.3,0,0,0-.32-.98A1.275,1.275,0,0,0-3.3,27.422Zm9.344,4.2a.608.608,0,0,0-.352-.539,5.348,5.348,0,0,0-1.336-.422,6.092,6.092,0,0,1-1.625-.574,2.722,2.722,0,0,1-.977-.863,2.061,2.061,0,0,1-.336-1.164,2.336,2.336,0,0,1,.961-1.918A3.958,3.958,0,0,1,4.9,25.391a4.386,4.386,0,0,1,2.688.758A2.37,2.37,0,0,1,8.6,28.141H5.961q0-1.016-1.07-1.016a1.061,1.061,0,0,0-.7.23.714.714,0,0,0-.281.574.655.655,0,0,0,.344.57,3.248,3.248,0,0,0,1.1.359A9.485,9.485,0,0,1,6.68,29.2a2.406,2.406,0,0,1,1.906,2.352A2.214,2.214,0,0,1,7.559,33.43a4.505,4.505,0,0,1-2.66.727,4.6,4.6,0,0,1-1.937-.391A3.24,3.24,0,0,1,1.633,32.7a2.406,2.406,0,0,1-.477-1.414H3.617a1.017,1.017,0,0,0,.391.855,1.607,1.607,0,0,0,.961.27,1.264,1.264,0,0,0,.809-.219A.7.7,0,0,0,6.047,31.625Zm7.344.5a1.171,1.171,0,0,0,.859-.3,1.1,1.1,0,0,0,.3-.84h2.469a2.922,2.922,0,0,1-1,2.281,3.705,3.705,0,0,1-2.566.891A3.751,3.751,0,0,1,10.547,33a4.556,4.556,0,0,1-1.062-3.2v-.109a5.149,5.149,0,0,1,.473-2.262,3.441,3.441,0,0,1,1.363-1.508,4.065,4.065,0,0,1,2.109-.527,3.658,3.658,0,0,1,2.617.914,3.242,3.242,0,0,1,.969,2.477H14.547a1.445,1.445,0,0,0-.32-1.008,1.106,1.106,0,0,0-.859-.352q-1.023,0-1.2,1.3a9.206,9.206,0,0,0-.055,1.141,3.616,3.616,0,0,0,.3,1.766A1.055,1.055,0,0,0,13.391,32.125Zm9.852-4.2-.867-.062a1.558,1.558,0,0,0-1.594.781V34H18.148V25.547h2.469l.086,1.086a2.039,2.039,0,0,1,1.852-1.242,2.567,2.567,0,0,1,.734.094ZM26.969,34H24.328V25.547h2.641Zm-2.8-10.633a1.175,1.175,0,0,1,.406-.922,1.727,1.727,0,0,1,2.109,0,1.249,1.249,0,0,1,0,1.844,1.727,1.727,0,0,1-2.109,0A1.175,1.175,0,0,1,24.172,23.367Zm7.484.078v2.1h1.391v1.828H31.656v3.867a.987.987,0,0,0,.172.664.922.922,0,0,0,.68.188,3.862,3.862,0,0,0,.656-.047V33.93a4.859,4.859,0,0,1-1.484.227,2.758,2.758,0,0,1-2.008-.641,2.626,2.626,0,0,1-.648-1.945v-4.2H27.945V25.547h1.078v-2.1Zm7.461,9.641a2.714,2.714,0,0,1-2.258,1.07,2.662,2.662,0,0,1-2.105-.809,3.4,3.4,0,0,1-.715-2.324V25.547h2.633v5.492a.946.946,0,0,0,1.055,1.086,1.376,1.376,0,0,0,1.289-.648v-5.93h2.648V34H39.2Zm9.1-5.156-.867-.062a1.558,1.558,0,0,0-1.594.781V34H43.125V25.547h2.469l.086,1.086a2.039,2.039,0,0,1,1.852-1.242,2.567,2.567,0,0,1,.734.094ZM53.7,34a2.973,2.973,0,0,1-.25-.758,2.448,2.448,0,0,1-2.031.914,3,3,0,0,1-2.031-.723,2.3,2.3,0,0,1-.836-1.816,2.364,2.364,0,0,1,1.016-2.078,5.174,5.174,0,0,1,2.953-.7h.813v-.448q0-1.17-1.008-1.17a.824.824,0,0,0-.937.926H48.75a2.36,2.36,0,0,1,1.043-1.99,4.383,4.383,0,0,1,2.66-.765,3.843,3.843,0,0,1,2.555.789,2.743,2.743,0,0,1,.961,2.164v3.742a3.832,3.832,0,0,0,.359,1.781V34Zm-1.648-1.719a1.469,1.469,0,0,0,.816-.211,1.322,1.322,0,0,0,.465-.477V30.242h-.766q-1.375,0-1.375,1.234a.754.754,0,0,0,.242.582A.876.876,0,0,0,52.047,32.281Z" transform="translate(800 8808)" fill="#12263f"/>
      <g id="Grupo_926401" data-name="Grupo 926401" transform="translate(7444.422 13834.966)">
        <rect id="Rectángulo_335052" data-name="Rectángulo 335052" width="5.359" height="0.154" transform="translate(-6569.35 -5065.178)" fill="#ebebeb"/>
        <rect id="Rectángulo_335054" data-name="Rectángulo 335054" width="26.628" height="0.154" transform="translate(-6735.84 -5071.541)" fill="#ebebeb"/>
        <rect id="Rectángulo_335055" data-name="Rectángulo 335055" width="3.904" height="0.154" transform="translate(-6703.724 -5071.541)" fill="#ebebeb"/>
        <rect id="Rectángulo_335056" data-name="Rectángulo 335056" width="57.749" height="0.154" transform="translate(-6687.131 -5068.937)" fill="#ebebeb"/>
        <ellipse id="_Path_" data-name="&lt;Path&gt;" cx="91.314" cy="6.981" rx="91.314" ry="6.981" transform="translate(-6733.589 -5062.893)" fill="#f5f5f5"/>
        <g id="Grupo_926373" data-name="Grupo 926373" transform="translate(-6727.233 -5114.618)">
          <path id="Trazado_620349" data-name="Trazado 620349" d="M449.182,3268.031l-.222,9.6-1.011,44.035h-3.335l-1-44.035-.222-9.6Z" transform="translate(-423.679 -3263.304)" fill="#263238"/>
          <path id="Trazado_620350" data-name="Trazado 620350" d="M449.182,3268.031l-.222,9.6-1.011,44.035h-3.335l-1-44.035-.222-9.6Z" transform="translate(-423.679 -3263.304)" fill="#fff" opacity="0.4" style="isolation: isolate"/>
          <path id="Trazado_620351" data-name="Trazado 620351" d="M449.182,3268.031l-.222,9.864h-5.351l-.222-9.864Z" transform="translate(-423.679 -3263.304)" opacity="0.2" style="isolation: isolate"/>
          <g id="Grupo_926371" data-name="Grupo 926371" transform="translate(1.594 5.343)">
            <g id="Grupo_926369" data-name="Grupo 926369" transform="translate(33.903)">
              <path id="Trazado_620352" data-name="Trazado 620352" d="M477.116,3321.933l-3.081-52.8H469l4.313,52.8Z" transform="translate(-468.998 -3269.07)" fill="#263238"/>
              <path id="Trazado_620353" data-name="Trazado 620353" d="M473.3,3321.894h3.807l-2.8-48.116-.277-4.747H469l.389,4.747Z" transform="translate(-468.999 -3269.031)" fill="#fff" opacity="0.5" style="isolation: isolate"/>
              <path id="Trazado_620354" data-name="Trazado 620354" d="M469,3269.031l.388,4.932h4.926l-.277-4.932Z" transform="translate(-468.999 -3269.031)" opacity="0.2" style="isolation: isolate"/>
            </g>
            <g id="Grupo_926370" data-name="Grupo 926370">
              <path id="Trazado_620355" data-name="Trazado 620355" d="M417.808,3321.933l4.314-52.8h-5.037l-3.081,52.8Z" transform="translate(-414.004 -3269.07)" fill="#263238"/>
              <path id="Trazado_620356" data-name="Trazado 620356" d="M417.82,3321.894l3.914-48.116.388-4.747h-5.037l-.277,4.747-2.8,48.116Z" transform="translate(-414.007 -3269.031)" fill="#fff" opacity="0.5" style="isolation: isolate"/>
              <path id="Trazado_620357" data-name="Trazado 620357" d="M423.862,3269.031l-.388,4.932h-4.926l.277-4.932Z" transform="translate(-415.747 -3269.031)" opacity="0.2" style="isolation: isolate"/>
            </g>
          </g>
          <path id="Rectángulo_335090" data-name="Rectángulo 335090" d="M5,0H36.255a5,5,0,0,1,5,5V7.206a0,0,0,0,1,0,0H0a0,0,0,0,1,0,0V5A5,5,0,0,1,5,0Z" transform="translate(1.977)" fill="#263238"/>
          <g id="Grupo_926372" data-name="Grupo 926372" transform="translate(0 3.603)">
            <rect id="Rectángulo_335091" data-name="Rectángulo 335091" width="45.208" height="3.603" rx="1.802" fill="#263238"/>
            <rect id="Rectángulo_335092" data-name="Rectángulo 335092" width="45.208" height="3.603" rx="1.802" fill="#fff" opacity="0.6" style="isolation: isolate"/>
          </g>
        </g>
        <path id="Trazado_620358" data-name="Trazado 620358" d="M518.9,3195.427l4.14-.915s2.012-2.012,2.439-2.317,6.707,1.158,8.475,1.525-.366,3.864-2.073,5.019-7.791.6-7.926,0l-2.895-.053Z" transform="translate(-7179.874 -8348.821)" fill="#fcb373"/>
        <path id="Trazado_620359" data-name="Trazado 620359" d="M486.315,3180.366a27.5,27.5,0,0,1,2.528,4.618c1.645,3.625,2.841,7.237,4.531,8.163,2.441,1.331,15.627-1.16,15.627-1.16l-.881-4.02s-8.119,1.184-9.518-.025c-2.953-2.54-1.955-10.609-5.228-13.39l-3.194,2.632Z" transform="translate(-7167.376 -8342.072)" fill="#263238"/>
        <path id="Trazado_620360" data-name="Trazado 620360" d="M486.315,3182a27.5,27.5,0,0,1,2.528,4.618c1.745-2.133,1.523-6.122,1.337-7.8Z" transform="translate(-7167.376 -8343.71)" opacity="0.2" style="isolation: isolate"/>
        <path id="Trazado_620361" data-name="Trazado 620361" d="M472.445,3340.129l4.911-.674.681-11.674-4.9.68Z" transform="translate(-7162.057 -8400.838)" fill="#fcb373"/>
        <path id="Trazado_620362" data-name="Trazado 620362" d="M473.321,3328.465l4.9-.673-.391,6.673-4.9.43Z" transform="translate(-7162.246 -8400.842)" opacity="0.2" style="isolation: isolate"/>
        <path id="Trazado_620363" data-name="Trazado 620363" d="M453.761,3226.94l-1.272-13.2-26.339-2.158s-5.162,18.122-1.8,25.983c3.322,7.764,25.656,3.679,31.989,4.41-3.785,15.479-3.415,45.73-3.415,45.73l9.044.69s6.959-32.6,8.366-48.085C471.285,3229.863,462.625,3230.122,453.761,3226.94Z" transform="translate(-7143.175 -8356.275)" fill="#eb6f2d"/>
        <path id="Trazado_620364" data-name="Trazado 620364" d="M469.6,3332.961l10.869.714.931-4.654-11.941-.555Z" transform="translate(-7160.912 -8401.102)" fill="#f8cdb5"/>
        <path id="Trazado_620365" data-name="Trazado 620365" d="M490.822,3333.729l4.943.363,3.1-11.276-4.938-.356Z" transform="translate(-7169.104 -8398.799)" fill="#fcb373"/>
        <g id="Grupo_926374" data-name="Grupo 926374" transform="translate(-6672.671 -5066.414)">
          <path id="Trazado_620366" data-name="Trazado 620366" d="M499.943,3340.488c.006.012,0,.028.014.038a.076.076,0,0,0,.042.005,6.025,6.025,0,0,0,1.21.518,1.326,1.326,0,0,0,.962.016.619.619,0,0,0,.31-.583.436.436,0,0,0-.168-.388,2.008,2.008,0,0,0-1.386-.038,1.8,1.8,0,0,0,.73-1,.435.435,0,0,0-.3-.449.565.565,0,0,0-.5.021c-.6.33-.833,1.713-.851,1.788h.087l-.089,0s-.083.009-.083.014A.109.109,0,0,0,499.943,3340.488Zm.369-.275c-.041.011-.076.023-.111.034.116-.455.365-1.2.724-1.395a.333.333,0,0,1,.266-.035l.053.019c.154.063.174.152.165.22C501.368,3339.389,500.8,3339.944,500.312,3340.212Zm.018.254c.653-.2,1.557-.375,1.835-.166a.208.208,0,0,1,.082.19.424.424,0,0,1-.19.373C501.771,3341.021,501.137,3340.873,500.331,3340.467Z" transform="translate(-499.925 -3338.558)" fill="#eb6f2d"/>
        </g>
        <path id="Trazado_620367" data-name="Trazado 620367" d="M494.789,3322.46l4.937.363-1.772,6.445-4.88-.6Z" transform="translate(-7169.969 -8398.799)" opacity="0.2" style="isolation: isolate"/>
        <path id="Trazado_620368" data-name="Trazado 620368" d="M480.064,3289.562l-8.7-2.559s5.2-29.332,10.468-39.5c-.395-.129-.919-.3-1.566-.487-1.165-.352-2.712-.789-4.531-1.294-12.65-3.508-38.289-10.086-38.289-10.086L449.154,3221s47.632,8.241,47.623,23.106C496.773,3250.038,480.064,3289.562,480.064,3289.562Z" transform="translate(-7148.632 -8359.887)" fill="#eb6f2d"/>
        <path id="Trazado_620369" data-name="Trazado 620369" d="M490.639,3325.623l10.481,2.964,1.88-4.358-11.564-3.03Z" transform="translate(-7169.034 -8398.314)" fill="#f8cdb5"/>
        <path id="Trazado_620370" data-name="Trazado 620370" d="M484.994,3252.139c-1.165-.352-2.713-.789-4.531-1.295.364-2.984.37-6.405-1.067-8.149-2.854-3.477-10.2-5.518-14.376-6.257-3.5-.617-15.239-1.844-15.239-1.844a92.329,92.329,0,0,1,30.818,3.083C488.3,3239.927,486.8,3247.453,484.994,3252.139Z" transform="translate(-7153.364 -8365.013)" opacity="0.2" style="isolation: isolate"/>
        <path id="Trazado_620371" data-name="Trazado 620371" d="M495.1,3339.576l-5.354-1.495a.352.352,0,0,0-.444.224l0,.005-1.444,4.167a.875.875,0,0,0,.6,1.076c1.877.491,2.8.632,5.159,1.271a45.98,45.98,0,0,0,6.334,1.561c2.064.234,2.241-1.812,1.388-2.093a13.639,13.639,0,0,1-5.49-4.214A1.383,1.383,0,0,0,495.1,3339.576Z" transform="translate(-7167.956 -8404.782)" fill="#263238"/>
        <g id="Grupo_926375" data-name="Grupo 926375" transform="translate(-6684.211 -5063.452)">
          <path id="Trazado_620372" data-name="Trazado 620372" d="M481.2,3345.444s.1.007.1.012.11.034.125.047.009.026.021.034a.065.065,0,0,0,.042,0,6.054,6.054,0,0,0,1.29.255,1.322,1.322,0,0,0,.943-.185.616.616,0,0,0,.18-.634.44.44,0,0,0-.249-.344,2.025,2.025,0,0,0-1.372.252,1.767,1.767,0,0,0,.488-1.131.469.469,0,0,0-.42-.375.726.726,0,0,0-.551.129c-.517.445-.6,1.847-.6,1.933v0h0Zm.532-.287-.1.057a2.5,2.5,0,0,1,.419-1.515.333.333,0,0,1,.252-.089l.056.007c.163.03.2.113.207.181A2.337,2.337,0,0,1,481.736,3345.157Zm.072.246c.6-.33,1.444-.692,1.76-.545a.209.209,0,0,1,.12.169.426.426,0,0,1-.108.405C483.331,3345.645,482.681,3345.632,481.808,3345.4Z" transform="translate(-481.204 -3343.362)" fill="#eb6f2d"/>
        </g>
        <path id="Trazado_620373" data-name="Trazado 620373" d="M476.979,3345.542l-5.548-.346a.352.352,0,0,0-.387.312v.006l-.544,4.377a.875.875,0,0,0,.809.927c1.938.089,2.867.036,5.31.168a45.838,45.838,0,0,0,6.52.208c2.068-.2,1.814-2.239.922-2.336a13.633,13.633,0,0,1-6.248-2.977A1.386,1.386,0,0,0,476.979,3345.542Z" transform="translate(-7161.31 -8407.517)" fill="#263238"/>
        <path id="Trazado_620374" data-name="Trazado 620374" d="M454.063,3195.521a12.238,12.238,0,0,1,.358-4.272c.654-2.922,2.3-7.237,6.289-12.619a72.125,72.125,0,0,1,9.4-10.209s-13.674-11.349-23.451-9.69c-9.592,1.627-21,35.718-21,35.718Z" transform="translate(-7144.112 -8335.939)" fill="#263238"/>
        <path id="Trazado_620375" data-name="Trazado 620375" d="M483.432,3162.279a4.406,4.406,0,0,0-2.928,0,4.265,4.265,0,0,1-4.1,3.292,7.5,7.5,0,0,1-1.406-.062c-4.772-.654-4.248-7.749-4.248-7.749a8.523,8.523,0,0,0,4.969-1.2v-.007a11.015,11.015,0,0,0,3.255-2.91Z" transform="translate(-7161.4 -8334.055)" fill="#fcb373"/>
        <path id="Trazado_620376" data-name="Trazado 620376" d="M486.361,3162.279a4.406,4.406,0,0,0-2.928,0,4.265,4.265,0,0,1-4.1,3.292,17.639,17.639,0,0,1-.684-9.006v-.007a11.016,11.016,0,0,0,3.255-2.91Z" transform="translate(-7164.33 -8334.055)" opacity="0.2" style="isolation: isolate"/>
        <g id="Grupo_926377" data-name="Grupo 926377" transform="translate(-6687.761 -5193.428)">
          <path id="Trazado_620377" data-name="Trazado 620377" d="M496.7,3145.551c-2.494.614-2.435,3.243.747,8.5,2.71-1.7,4.722-6.2,3.695-7.9S498.872,3145.024,496.7,3145.551Z" transform="translate(-482.921 -3137.317)" fill="#263238"/>
          <path id="Trazado_620378" data-name="Trazado 620378" d="M480.44,3143.647c-1.587,4.953-2.763,7.768-1.293,11.2,2.218,5.163,9.051,5.276,12.087.9,2.721-3.937,4.865-11.375.881-15.14a7.092,7.092,0,0,0-11.675,3.042Z" transform="translate(-476.608 -3134.873)" fill="#fcb373"/>
          <path id="Trazado_620379" data-name="Trazado 620379" d="M492.491,3153.13c-.153.394-.067.794.19.893s.585-.136.738-.529.072-.792-.182-.9S492.669,3152.753,492.491,3153.13Z" transform="translate(-481.954 -3140.216)" fill="#263238"/>
          <path id="Trazado_620380" data-name="Trazado 620380" d="M499.745,3155.968c-.153.394-.067.8.191.894s.59-.133.746-.532.067-.794-.19-.893S499.9,3155.574,499.745,3155.968Z" transform="translate(-484.736 -3141.305)" fill="#263238"/>
          <path id="Trazado_620381" data-name="Trazado 620381" d="M496.4,3155.691a15.083,15.083,0,0,0,.57,4.1,2.437,2.437,0,0,1-2.02-.383Z" transform="translate(-482.928 -3141.411)" fill="#ec873e"/>
          <path id="Trazado_620382" data-name="Trazado 620382" d="M484,3139.863c1.959,1.656.732,3.985-4.456,7.27-1.672-2.729-1.47-7.658.211-8.712S482.291,3138.42,484,3139.863Z" transform="translate(-476.576 -3134.624)" fill="#263238"/>
          <path id="Trazado_620383" data-name="Trazado 620383" d="M475.467,3150.22a4.948,4.948,0,0,0,1.117,3.609c1.119,1.321,2.646.554,3.148-1.006.452-1.408.412-3.795-1.1-4.545A2.2,2.2,0,0,0,475.467,3150.22Z" transform="translate(-475.446 -3138.475)" fill="#fcb373"/>
          <g id="Grupo_926376" data-name="Grupo 926376" transform="translate(4.455 11.129)">
            <path id="Trazado_620384" data-name="Trazado 620384" d="M493.652,3154.367a2.064,2.064,0,1,1-1.06-2.987A2.26,2.26,0,0,1,493.652,3154.367Z" transform="translate(-485.354 -3150.845)" fill="none" stroke="#263238" stroke-linecap="round" stroke-linejoin="round" stroke-width="0.526"/>
            <path id="Trazado_620385" data-name="Trazado 620385" d="M502.153,3157.363a2.064,2.064,0,1,1-1.06-2.988A2.26,2.26,0,0,1,502.153,3157.363Z" transform="translate(-488.614 -3151.994)" fill="none" stroke="#263238" stroke-linecap="round" stroke-linejoin="round" stroke-width="0.526"/>
            <path id="Trazado_620386" data-name="Trazado 620386" d="M496.133,3156.235a1.163,1.163,0,0,1,1.432.437" transform="translate(-487.835 -3152.714)" fill="none" stroke="#263238" stroke-linecap="round" stroke-linejoin="round" stroke-width="0.526"/>
            <line id="Línea_253" data-name="Línea 253" x1="4.489" y1="2.112" fill="none" stroke="#263238" stroke-linecap="round" stroke-linejoin="round" stroke-width="0.526"/>
          </g>
          <path id="Trazado_620387" data-name="Trazado 620387" d="M489.816,3149.272a.275.275,0,0,0,.275-.01,2.123,2.123,0,0,1,1.886-.262.262.262,0,0,0,.212-.479h0a2.615,2.615,0,0,0-2.382.3.263.263,0,0,0-.087.36l0,.006A.391.391,0,0,0,489.816,3149.272Z" transform="translate(-480.906 -3138.6)" fill="#263238"/>
          <path id="Trazado_620388" data-name="Trazado 620388" d="M502.641,3153.086a.254.254,0,0,0,.143.063.263.263,0,0,0,.237-.286v-.005a2.61,2.61,0,0,0-1.287-2.035.261.261,0,0,0-.352.115h0a.27.27,0,0,0,.116.354h0a2.125,2.125,0,0,1,.994,1.627A.267.267,0,0,0,502.641,3153.086Z" transform="translate(-485.382 -3139.533)" fill="#263238"/>
          <path id="Trazado_620389" data-name="Trazado 620389" d="M488.9,3160.173a2.644,2.644,0,0,0,1.577,2.7" transform="translate(-480.603 -3143.13)" fill="none" stroke="#263238" stroke-linecap="round" stroke-linejoin="round" stroke-width="0.526"/>
          <path id="Trazado_620390" data-name="Trazado 620390" d="M481.54,3136.769s-.822-1.738,1.829-3.262,10.4-1.829,13.657,3.262c2.988,4.665-.623,6.416-5.243,5.991,0,0,1.925-.107,2.316-.671,0,0-6.461.114-9.663-4.615Z" transform="translate(-477.737 -3132.527)" fill="#263238"/>
        </g>
        <path id="Trazado_620391" data-name="Trazado 620391" d="M531.545,3193.331l.078,1.912.875-1.7,2.064-9.352-.953-.21Z" transform="translate(-7184.723 -8345.688)" fill="#263238"/>
        <g id="Grupo_926378" data-name="Grupo 926378" transform="translate(-6677.903 -5151.239)">
          <path id="Trazado_620392" data-name="Trazado 620392" d="M530.555,3202.548l-8.17-1.586-13.048.793-2.317.793-7.989-.793-7.595,1.517H520.19Z" transform="translate(-491.437 -3200.962)" fill="#f8cdb5"/>
          <path id="Trazado_620393" data-name="Trazado 620393" d="M530.555,3202.548l-8.17-1.586-13.048.793-2.317.793-7.989-.793-7.595,1.517H520.19Z" transform="translate(-491.437 -3200.962)" fill="#f8cdb5" opacity="0.7" style="isolation: isolate"/>
          <path id="Trazado_620394" data-name="Trazado 620394" d="M518.16,3202.248l6.1,1.585-9.816-.061Z" transform="translate(-500.259 -3201.455)" fill="#f8cdb5" opacity="0.2" style="isolation: isolate"/>
          <path id="Trazado_620395" data-name="Trazado 620395" d="M499.032,3202.248l4.757,1.518H491.437Z" transform="translate(-491.437 -3201.455)" fill="#f8cdb5" opacity="0.2" style="isolation: isolate"/>
        </g>
        <path id="Trazado_620396" data-name="Trazado 620396" d="M456.647,3192.115a27.411,27.411,0,0,0,8.069,3.23c.654-2.922,2.3-7.237,6.289-12.619-1.69-.012-4.377-.03-5.352.013-1.467.061-5.752-10.221-5.752-10.221l-6.663-3.274S450.144,3188.071,456.647,3192.115Z" transform="translate(-7154.408 -8340.035)" opacity="0.2" style="isolation: isolate"/>
        <path id="Trazado_620397" data-name="Trazado 620397" d="M489.688,3198.782l4.384.813a28.668,28.668,0,0,1,4.17-.812c1.061,0,5.857,1.523,5.927,2.137s-1.939,3.425-2.508,3.854-4.732-.617-4.732-.617-2.853.289-3.573-.716l-4.463-.612Z" transform="translate(-7168.365 -8351.364)" fill="#fcb373"/>
        <path id="Trazado_620398" data-name="Trazado 620398" d="M456.758,3159.059c4.584-1.293,5.924,16.722,7.876,19.809s13.9,4.2,13.9,4.2l-.979,5.115s-11.453,0-16.962-1.729c-3.784-1.188-7.154-17.969-6.91-21.14S454.143,3159.8,456.758,3159.059Z" transform="translate(-7154.856 -8336.104)" fill="#263238"/>
        <g id="Grupo_926388" data-name="Grupo 926388" transform="translate(-6702.706 -5149.257)">
          <g id="Grupo_926387" data-name="Grupo 926387">
            <g id="Grupo_926379" data-name="Grupo 926379" transform="translate(38.51 4.415)">
              <path id="Trazado_620399" data-name="Trazado 620399" d="M520.027,3299.768l-6.352-88.43h5.01l5.2,88.43Z" transform="translate(-513.673 -3211.338)" fill="#263238"/>
              <path id="Trazado_620400" data-name="Trazado 620400" d="M520.025,3299.862l-6.02-83.737-.333-4.541h5.012l.271,4.541,4.927,83.737Z" transform="translate(-513.672 -3211.433)" fill="#fff" opacity="0.4" style="isolation: isolate"/>
              <path id="Trazado_620401" data-name="Trazado 620401" d="M518.956,3215.9h-4.95l-.333-4.315h5.012Z" transform="translate(-513.672 -3211.433)" opacity="0.2" style="isolation: isolate"/>
            </g>
            <g id="Grupo_926380" data-name="Grupo 926380" transform="translate(72.397 4.415)">
              <path id="Trazado_620402" data-name="Trazado 620402" d="M569.218,3299.768l-.577-88.43h5.01l-.577,88.43Z" transform="translate(-568.641 -3211.338)" fill="#263238"/>
              <path id="Trazado_620403" data-name="Trazado 620403" d="M573.077,3299.862h-3.858l-.478-73.035-.1-15.243h5.012l-.1,15.243Z" transform="translate(-568.641 -3211.433)" fill="#fff" opacity="0.5" style="isolation: isolate"/>
              <path id="Trazado_620404" data-name="Trazado 620404" d="M573.654,3211.585l-.1,15.412h-4.815l-.1-15.412Z" transform="translate(-568.641 -3211.433)" opacity="0.2" style="isolation: isolate"/>
            </g>
            <g id="Grupo_926381" data-name="Grupo 926381" transform="translate(106.322 4.415)">
              <path id="Trazado_620405" data-name="Trazado 620405" d="M630.027,3299.768l-6.352-88.43h5.01l5.2,88.43Z" transform="translate(-623.673 -3211.338)" fill="#263238"/>
              <path id="Trazado_620406" data-name="Trazado 620406" d="M630.025,3299.862l-6.02-83.737-.333-4.541h5.012l.271,4.541,4.927,83.737Z" transform="translate(-623.672 -3211.433)" fill="#fff" opacity="0.5" style="isolation: isolate"/>
              <path id="Trazado_620407" data-name="Trazado 620407" d="M628.956,3215.9h-4.95l-.333-4.315h5.012Z" transform="translate(-623.672 -3211.433)" opacity="0.2" style="isolation: isolate"/>
            </g>
            <g id="Grupo_926382" data-name="Grupo 926382" transform="translate(2.449 4.415)">
              <path id="Trazado_620408" data-name="Trazado 620408" d="M455.177,3299.768l5.2-88.43h5.01l-6.351,88.43Z" transform="translate(-455.177 -3211.338)" fill="#263238"/>
              <path id="Trazado_620409" data-name="Trazado 620409" d="M459.031,3299.862h-3.852l4.922-83.737.271-4.541h5.012l-.333,4.541Z" transform="translate(-455.177 -3211.433)" fill="#fff" opacity="0.5" style="isolation: isolate"/>
              <path id="Trazado_620410" data-name="Trazado 620410" d="M463.434,3211.585h5.012l-.333,4.315h-4.95Z" transform="translate(-458.239 -3211.433)" opacity="0.2" style="isolation: isolate"/>
            </g>
            <g id="Grupo_926383" data-name="Grupo 926383" transform="translate(3.674 2.049)">
              <path id="Rectángulo_335093" data-name="Rectángulo 335093" d="M0,0H111.632a0,0,0,0,1,0,0V2.57a2.162,2.162,0,0,1-2.162,2.162H2.162A2.162,2.162,0,0,1,0,2.57V0A0,0,0,0,1,0,0Z" fill="#263238"/>
            </g>
            <g id="Grupo_926384" data-name="Grupo 926384" transform="translate(3.674 2.049)" opacity="0.6" style="isolation: isolate">
              <path id="Rectángulo_335094" data-name="Rectángulo 335094" d="M0,0H111.632a0,0,0,0,1,0,0V2.57a2.162,2.162,0,0,1-2.162,2.162H2.162A2.162,2.162,0,0,1,0,2.57V0A0,0,0,0,1,0,0Z" fill="#fff"/>
            </g>
            <rect id="Rectángulo_335095" data-name="Rectángulo 335095" width="111.632" height="2.366" transform="translate(3.674 2.049)" opacity="0.2" style="isolation: isolate"/>
            <g id="Grupo_926385" data-name="Grupo 926385">
              <path id="Trazado_620411" data-name="Trazado 620411" d="M568.851,3206.843H452.537a1.333,1.333,0,0,1-1.333-1.333h0a1.333,1.333,0,0,1,1.333-1.333H568.851a1.333,1.333,0,0,1,1.333,1.333h0A1.333,1.333,0,0,1,568.851,3206.843Z" transform="translate(-451.204 -3204.177)" fill="#263238"/>
            </g>
            <g id="Grupo_926386" data-name="Grupo 926386" opacity="0.6" style="isolation: isolate">
              <path id="Trazado_620412" data-name="Trazado 620412" d="M568.851,3206.843H452.537a1.333,1.333,0,0,1-1.333-1.333h0a1.333,1.333,0,0,1,1.333-1.333H568.851a1.333,1.333,0,0,1,1.333,1.333h0A1.333,1.333,0,0,1,568.851,3206.843Z" transform="translate(-451.204 -3204.177)" fill="#fff"/>
            </g>
          </g>
        </g>
        <g id="Grupo_926391" data-name="Grupo 926391" transform="translate(-6613.653 -5168.614)">
          <g id="Grupo_926389" data-name="Grupo 926389" transform="translate(0 18.907)">
            <path id="Trazado_620413" data-name="Trazado 620413" d="M608.314,3204.016H596.993a2.2,2.2,0,0,1-1.333-.568h13.987A2.2,2.2,0,0,1,608.314,3204.016Z" transform="translate(-595.66 -3203.447)" fill="#eb6f2d"/>
          </g>
          <path id="Trazado_620414" data-name="Trazado 620414" d="M607.663,3190.755c-.221.056-.436.119-.627.182h-.263a2.724,2.724,0,0,0-1.928-.056c.042.014.089.035.137.056H604.7a1.329,1.329,0,0,1,.143-.056,291.347,291.347,0,0,0-3.815.056c-.018.008-.042.014-.06.021v.007c-.03-.007-.054-.021-.083-.029-.191-.063-.4-.126-.621-.182-.764-.19-.83.182-.83.182l.03.029a3.931,3.931,0,0,1,.394.449l.03.036c.113.169.2.338.155.443h-.764a1.08,1.08,0,0,0-1.141,1v1.589a.947.947,0,0,0,.334.71l1.451,1.272a1.127,1.127,0,0,0,.472.246,3.776,3.776,0,0,0,3.373,1.9h.543a3.525,3.525,0,0,0,3.725-3.268v-2.944a2.186,2.186,0,0,1,.209-.935l.245-.521S608.427,3190.565,607.663,3190.755Zm-8.746,4.343c-.388-.344-.406-.323-.406-.8v-1.448a.682.682,0,0,1,.716-.632h.317a.48.48,0,0,1,.507.436c.005.99.03,3.317.036,3.353Z" transform="translate(-596.612 -3179.652)" fill="#eb6f2d"/>
          <path id="Trazado_620415" data-name="Trazado 620415" d="M606.213,3178.259a9.064,9.064,0,0,1-.919-2.812,6.043,6.043,0,0,1,.906-2.669,4.416,4.416,0,0,0-1.6,2.9,4.864,4.864,0,0,0,.768,3.34,7.183,7.183,0,0,0,1.508,1.563A4.192,4.192,0,0,0,606.213,3178.259Z" transform="translate(-599.071 -3172.777)" fill="#eb6f2d"/>
          <g id="Grupo_926390" data-name="Grupo 926390" transform="translate(0 18.907)" opacity="0.2" style="isolation: isolate">
            <path id="Trazado_620416" data-name="Trazado 620416" d="M608.314,3204.016H596.993a2.2,2.2,0,0,1-1.333-.568h13.987A2.2,2.2,0,0,1,608.314,3204.016Z" transform="translate(-595.66 -3203.447)" fill="#eb6f2d" opacity="0.4"/>
          </g>
          <path id="Trazado_620417" data-name="Trazado 620417" d="M607.663,3190.755c-.221.056-.436.119-.627.182h-.263a2.724,2.724,0,0,0-1.928-.056c.042.014.089.035.137.056H604.7a1.329,1.329,0,0,1,.143-.056,291.347,291.347,0,0,0-3.815.056c-.018.008-.042.014-.06.021v.007c-.03-.007-.054-.021-.083-.029-.191-.063-.4-.126-.621-.182-.764-.19-.83.182-.83.182l.03.029a3.931,3.931,0,0,1,.394.449l.03.036c.113.169.2.338.155.443h-.764a1.08,1.08,0,0,0-1.141,1v1.589a.947.947,0,0,0,.334.71l1.451,1.272a1.127,1.127,0,0,0,.472.246,3.776,3.776,0,0,0,3.373,1.9h.543a3.525,3.525,0,0,0,3.725-3.268v-2.944a2.186,2.186,0,0,1,.209-.935l.245-.521S608.427,3190.565,607.663,3190.755Zm-8.746,4.343c-.388-.344-.406-.323-.406-.8v-1.448a.682.682,0,0,1,.716-.632h.317a.48.48,0,0,1,.507.436c.005.99.03,3.317.036,3.353Z" transform="translate(-596.612 -3179.652)" fill="#eb6f2d" opacity="0.3" style="isolation: isolate"/>
          <path id="Trazado_620418" data-name="Trazado 620418" d="M606.213,3178.259a9.064,9.064,0,0,1-.919-2.812,6.043,6.043,0,0,1,.906-2.669,4.416,4.416,0,0,0-1.6,2.9,4.864,4.864,0,0,0,.768,3.34,7.183,7.183,0,0,0,1.508,1.563A4.192,4.192,0,0,0,606.213,3178.259Z" transform="translate(-599.071 -3172.777)" fill="#eb6f2d" opacity="0.8" style="isolation: isolate"/>
        </g>
        <g id="Grupo_926393" data-name="Grupo 926393" transform="translate(-6634.673 -5160.473)">
          <path id="Trazado_620419" data-name="Trazado 620419" d="M586.037,3193.025l3.821,6.946h-1.667l-4.038-4.182Z" transform="translate(-570.226 -3188.684)" fill="#eb6f2d"/>
          <path id="Trazado_620420" data-name="Trazado 620420" d="M578.332,3197.27h-15.77l2.8-11.287h15.77Z" transform="translate(-561.945 -3185.983)" fill="#bc5824"/>
          <path id="Trazado_620421" data-name="Trazado 620421" d="M577.332,3197.27h-15.77l2.8-11.287h15.77Z" transform="translate(-561.561 -3185.983)" fill="#eb6f2d"/>
          <path id="Trazado_620422" data-name="Trazado 620422" d="M577.321,3196.848H563.989l2.25-9.056h13.332Z" transform="translate(-562.492 -3186.677)" fill="#fff" opacity="0.6" style="isolation: isolate"/>
          <g id="Grupo_926392" data-name="Grupo 926392" transform="translate(2.824 1.302)">
            <path id="Trazado_620423" data-name="Trazado 620423" d="M576.365,3189.773a2.377,2.377,0,0,0-2.824-1.637c-2.309.354-3.549,2.329-3.331,3.494a2.515,2.515,0,0,1-1.853,2.636c-1.012.21-1.833,1.372-1.664,1.763s-.552.935-.552.935h8.437Z" transform="translate(-566.142 -3188.094)" fill="#263238"/>
            <path id="Trazado_620424" data-name="Trazado 620424" d="M578.27,3198.583a.56.56,0,0,1-.147.117,2.027,2.027,0,0,0-.723.829,3.755,3.755,0,0,0-.363,1.4H574.4a1.564,1.564,0,0,0,.543-.452,2.479,2.479,0,0,0,.408-1.773,23.988,23.988,0,0,1,2.4-.27C578.135,3198.414,578.384,3198.451,578.27,3198.583Z" transform="translate(-569.308 -3192.057)" fill="#fcb373"/>
            <path id="Trazado_620425" data-name="Trazado 620425" d="M578.608,3198.586a.571.571,0,0,1-.147.117,2.024,2.024,0,0,0-.723.829,3.842,3.842,0,0,1-2.46.944,2.48,2.48,0,0,0,.408-1.773,23.776,23.776,0,0,1,2.4-.271Z" transform="translate(-569.646 -3192.059)" opacity="0.2" style="isolation: isolate"/>
            <path id="Trazado_620426" data-name="Trazado 620426" d="M576.241,3190.856s-2.316,3.415-1.994,4.518,2.063,1.289,2.906,1.038,3.19-4.243,3.19-4.243S577.53,3190.279,576.241,3190.856Z" transform="translate(-569.239 -3189.112)" fill="#fcb373"/>
            <path id="Trazado_620427" data-name="Trazado 620427" d="M578.725,3190.828s-.679,2.218.237,3.247-.89,3.583-.89,3.583h3.038s.635-.411.031-1.2.327-1.96.779-2.705,1.015-2.544.473-3.28S578.951,3189.577,578.725,3190.828Z" transform="translate(-570.717 -3188.789)" fill="#263238"/>
            <path id="Trazado_620428" data-name="Trazado 620428" d="M575.845,3194.486l-1.17.735a.806.806,0,0,0,.633.317Z" transform="translate(-569.415 -3190.546)" fill="#ec873e"/>
          </g>
        </g>
      </g>
      <path id="Trazado_620431" data-name="Trazado 620431" d="M374.13,322.628h-6.855a146.86,146.86,0,0,0,70.082,121.7L440.8,438.4A140,140,0,0,1,374.13,322.628" transform="translate(285 8421.893)" fill="#ffb338"/>
      <path id="Trazado_620432" data-name="Trazado 620432" d="M590.691,194.064l-3.444,5.928a140,140,0,0,1,66.676,115.78h6.854a146.861,146.861,0,0,0-70.086-121.708" transform="translate(285 8421.893)" fill="#ffb338"/>
      <g id="Grupo_735233" data-name="Grupo 735233" transform="translate(285 8421.893)" opacity="0.25" style="mix-blend-mode: multiply;isolation: isolate">
        <g id="Grupo_735232" data-name="Grupo 735232">
          <g id="Grupo_735231" data-name="Grupo 735231" clip-path="url(#clip-path-2)">
            <path id="Trazado_508672" data-name="Trazado 508672" d="M663.8,545.439"/>
          </g>
        </g>
      </g>
    </g>
    <g id="Grupo_926855" data-name="Grupo 926855" transform="translate(0 1561.371)">
      <g id="Grupo_926854" data-name="Grupo 926854">
        <path id="Trazado_508678" data-name="Trazado 508678" d="M591.737,59.45A59.268,59.268,0,0,1,650.82,0H849.337a59.452,59.452,0,0,1,0,118.9H650.82A59.268,59.268,0,0,1,591.737,59.45" transform="translate(-264.167 8483.013)" fill="#ffb338"/>
        <g id="Grupo_735241" data-name="Grupo 735241" transform="translate(532.393 8492.498)">
          <g id="Grupo_735240" data-name="Grupo 735240" transform="translate(0)" clip-path="url(#clip-path-3)">
            <path id="Trazado_508693" data-name="Trazado 508693" d="M99.931,0H0V99.929H99.931Z" transform="translate(0 0)" fill="#fff"/>
          </g>
        </g>
        <path id="Trazado_508680" data-name="Trazado 508680" d="M653.631,97.483a38.033,38.033,0,1,1,38.033-38.032,38.032,38.032,0,0,1-38.033,38.032" transform="translate(-71.272 8483.013)" fill="#ffe4b9"/>
        <path id="Trazado_681398" data-name="Trazado 681398" d="M16.055,17H13.8V8.3l-2.7.836V7.3l4.711-1.687h.242Zm3.906-1.109a1.137,1.137,0,0,1,.363-.875,1.412,1.412,0,0,1,1.828,0,1.137,1.137,0,0,1,.363.875,1.121,1.121,0,0,1-.359.863,1.435,1.435,0,0,1-1.836,0A1.121,1.121,0,0,1,19.961,15.891Zm11.008-2.9V17H28.625V5.625h4.438a5.134,5.134,0,0,1,2.254.469,3.454,3.454,0,0,1,1.5,1.332,3.714,3.714,0,0,1,.523,1.965,3.266,3.266,0,0,1-1.145,2.637,4.767,4.767,0,0,1-3.168.965Zm0-1.9h2.094a2.059,2.059,0,0,0,1.418-.437,1.591,1.591,0,0,0,.488-1.25,1.876,1.876,0,0,0-.492-1.352,1.839,1.839,0,0,0-1.359-.531H30.969ZM41.18,17H38.914V5H41.18Zm6.758,0a2.507,2.507,0,0,1-.227-.758,2.732,2.732,0,0,1-2.133.914,3,3,0,0,1-2.059-.719,2.312,2.312,0,0,1-.816-1.812,2.389,2.389,0,0,1,1-2.062,4.915,4.915,0,0,1,2.879-.727h1.039v-.484a1.393,1.393,0,0,0-.3-.937,1.183,1.183,0,0,0-.949-.352,1.345,1.345,0,0,0-.895.273.929.929,0,0,0-.324.75H42.891a2.268,2.268,0,0,1,.453-1.359,3,3,0,0,1,1.281-.98,4.669,4.669,0,0,1,1.859-.355,3.689,3.689,0,0,1,2.48.785,2.747,2.747,0,0,1,.918,2.207v3.664a4.041,4.041,0,0,0,.336,1.82V17Zm-1.867-1.57a1.945,1.945,0,0,0,.922-.223,1.462,1.462,0,0,0,.625-.6V13.156h-.844q-1.7,0-1.8,1.172l-.008.133a.9.9,0,0,0,.3.7A1.153,1.153,0,0,0,46.071,15.43ZM53.7,8.547l.07.977A2.951,2.951,0,0,1,56.2,8.391a2.453,2.453,0,0,1,2,.789,3.682,3.682,0,0,1,.672,2.359V17H56.61V11.594a1.465,1.465,0,0,0-.312-1.043,1.4,1.4,0,0,0-1.039-.324,1.553,1.553,0,0,0-1.43.813V17H51.571V8.547ZM62.961,17H60.7V8.547h2.266Zm-2.4-10.641a1.112,1.112,0,0,1,.34-.836,1.465,1.465,0,0,1,1.848,0,1.105,1.105,0,0,1,.344.836,1.108,1.108,0,0,1-.348.844,1.448,1.448,0,0,1-1.836,0A1.108,1.108,0,0,1,60.563,6.359ZM65.367,17V10.2H64.11V8.547h1.258V8.156a3.17,3.17,0,0,1,.98-2.457,3.945,3.945,0,0,1,2.723-.863,9.031,9.031,0,0,1,2.563.461L71.3,7.164a10,10,0,0,0-1.187-.293,5.835,5.835,0,0,0-.906-.066q-1.578,0-1.578,1.4v.344H69.3V10.2H67.633V17Zm7.32,0H70.422V8.547h2.266Zm5.383-1.664a1.481,1.481,0,0,0,1.016-.344,1.2,1.2,0,0,0,.406-.914H81.61a2.9,2.9,0,0,1-.469,1.574,3.093,3.093,0,0,1-1.262,1.109,3.949,3.949,0,0,1-1.77.395A3.67,3.67,0,0,1,75.25,16,4.56,4.56,0,0,1,74.2,12.82v-.148a4.508,4.508,0,0,1,1.039-3.117,3.627,3.627,0,0,1,2.852-1.164,3.555,3.555,0,0,1,2.543.9,3.2,3.2,0,0,1,.973,2.4H79.492a1.551,1.551,0,0,0-.406-1.072,1.51,1.51,0,0,0-2.223.163,3.333,3.333,0,0,0-.4,1.866v.235a3.375,3.375,0,0,0,.4,1.878A1.377,1.377,0,0,0,78.071,15.336ZM87.8,17a2.507,2.507,0,0,1-.227-.758,2.732,2.732,0,0,1-2.133.914,3,3,0,0,1-2.059-.719,2.312,2.312,0,0,1-.816-1.812,2.389,2.389,0,0,1,1-2.062,4.915,4.915,0,0,1,2.879-.727h1.039v-.484a1.393,1.393,0,0,0-.3-.937,1.183,1.183,0,0,0-.949-.352,1.345,1.345,0,0,0-.895.273.929.929,0,0,0-.324.75H82.75A2.268,2.268,0,0,1,83.2,9.727a3,3,0,0,1,1.281-.98,4.669,4.669,0,0,1,1.859-.355,3.689,3.689,0,0,1,2.48.785,2.747,2.747,0,0,1,.918,2.207v3.664a4.041,4.041,0,0,0,.336,1.82V17ZM85.93,15.43a1.945,1.945,0,0,0,.922-.223,1.462,1.462,0,0,0,.625-.6V13.156h-.844q-1.7,0-1.8,1.172l-.008.133a.9.9,0,0,0,.3.7A1.153,1.153,0,0,0,85.93,15.43Zm9.063-.094a1.481,1.481,0,0,0,1.016-.344,1.2,1.2,0,0,0,.406-.914h2.117a2.9,2.9,0,0,1-.469,1.574A3.093,3.093,0,0,1,96.8,16.762a3.949,3.949,0,0,1-1.77.395A3.67,3.67,0,0,1,92.172,16a4.56,4.56,0,0,1-1.047-3.184v-.148a4.508,4.508,0,0,1,1.039-3.117,3.627,3.627,0,0,1,2.852-1.164,3.555,3.555,0,0,1,2.543.9,3.2,3.2,0,0,1,.973,2.4H96.414a1.551,1.551,0,0,0-.406-1.072,1.51,1.51,0,0,0-2.223.163,3.333,3.333,0,0,0-.4,1.866v.235a3.375,3.375,0,0,0,.4,1.878A1.377,1.377,0,0,0,94.992,15.336ZM102.2,17H99.938V8.547H102.2ZM99.8,6.359a1.112,1.112,0,0,1,.34-.836,1.465,1.465,0,0,1,1.848,0,1.105,1.105,0,0,1,.344.836,1.108,1.108,0,0,1-.348.844,1.448,1.448,0,0,1-1.836,0A1.108,1.108,0,0,1,99.8,6.359Zm3.906,6.336a5.013,5.013,0,0,1,.484-2.242A3.546,3.546,0,0,1,105.59,8.93a4.069,4.069,0,0,1,2.113-.539A3.849,3.849,0,0,1,110.5,9.438a4.2,4.2,0,0,1,1.207,2.844l.016.578a4.418,4.418,0,0,1-1.086,3.121,4.209,4.209,0,0,1-5.832,0,4.5,4.5,0,0,1-1.09-3.187Zm2.258.16a3.16,3.16,0,0,0,.453,1.843,1.628,1.628,0,0,0,2.578.008,3.457,3.457,0,0,0,.461-2.015A3.128,3.128,0,0,0,109,10.86a1.5,1.5,0,0,0-1.3-.649,1.474,1.474,0,0,0-1.281.646A3.516,3.516,0,0,0,105.969,12.856ZM108.149,5h2.461l-2.164,2.422H106.61Zm7.039,3.547.07.977a2.951,2.951,0,0,1,2.43-1.133,2.453,2.453,0,0,1,2,.789,3.682,3.682,0,0,1,.672,2.359V17H118.1V11.594a1.465,1.465,0,0,0-.312-1.043,1.4,1.4,0,0,0-1.039-.324,1.553,1.553,0,0,0-1.43.813V17h-2.258V8.547Z" transform="translate(378.989 8531.963)" fill="#12263f"/>
        <g id="portapapeles_3_" data-name="portapapeles(3)" transform="translate(538.028 8522.629)">
          <path id="Trazado_620500" data-name="Trazado 620500" d="M313.313,233.678l-1.994,1.994-.783-.783a.606.606,0,0,0-.857.857l1.211,1.211a.606.606,0,0,0,.857,0l2.423-2.423a.606.606,0,1,0-.857-.856Z" transform="translate(-263.824 -214.643)"/>
          <path id="Trazado_620501" data-name="Trazado 620501" d="M310.889,176.957a.605.605,0,0,0,.857,0l2.423-2.423a.606.606,0,1,0-.857-.857l-1.994,1.994-.783-.783a.606.606,0,1,0-.857.856Z" transform="translate(-263.823 -159.489)"/>
          <path id="Trazado_620502" data-name="Trazado 620502" d="M310.889,296.957a.606.606,0,0,0,.857,0l2.423-2.423a.606.606,0,0,0-.857-.857l-1.994,1.994-.783-.783a.606.606,0,1,0-.857.857Z" transform="translate(-263.823 -269.798)"/>
          <path id="Trazado_620503" data-name="Trazado 620503" d="M189.106,249.711h7.349a.606.606,0,0,0,0-1.211h-7.349a.606.606,0,0,0,0,1.211Z" transform="translate(-152.594 -228.432)"/>
          <path id="Trazado_620504" data-name="Trazado 620504" d="M189.107,189.712h7.349a.606.606,0,0,0,0-1.211h-7.349a.606.606,0,0,0,0,1.211Z" transform="translate(-152.595 -173.278)"/>
          <path id="Trazado_620505" data-name="Trazado 620505" d="M196.456,308.5h-7.349a.606.606,0,0,0,0,1.211h7.349a.606.606,0,0,0,0-1.211Z" transform="translate(-152.595 -283.587)"/>
          <path id="Trazado_620506" data-name="Trazado 620506" d="M57.185,1.211H46.745a4.233,4.233,0,0,0-5.929,0H30.374A3.032,3.032,0,0,0,27.345,4.24v25.6a.606.606,0,1,0,1.211,0V4.24a1.819,1.819,0,0,1,1.817-1.817H39.95a4.205,4.205,0,0,0-.366,1.211h-9.21a.606.606,0,0,0-.606.606V31.657H23.106a.606.606,0,0,0-.606.606,4.245,4.245,0,0,0,4.24,4.24h.606v1.817a3.028,3.028,0,0,0,3.028,3.028H57.185a3.032,3.032,0,0,0,3.028-3.028V4.24A3.032,3.032,0,0,0,57.185,1.211ZM40.145,7.268a.606.606,0,0,0,.606-.606V4.24a3.028,3.028,0,0,1,6.057,0V6.662a.606.606,0,0,0,.606.606h1.211a1.82,1.82,0,0,1,1.713,1.211H37.221a1.82,1.82,0,0,1,1.713-1.211ZM39.54,4.845V6.057h-.606a3.032,3.032,0,0,0-3.028,3.028.606.606,0,0,0,.606.606H51.048a.606.606,0,0,0,.606-.606,3.032,3.032,0,0,0-3.028-3.028h-.606V4.845h8.56V32.262a3.028,3.028,0,0,1-6.057,0,.606.606,0,0,0-.606-.606H30.98V4.845ZM26.74,35.291a3.033,3.033,0,0,1-2.968-2.423H49.354a4.224,4.224,0,0,0,1.232,2.423ZM59,38.319a1.819,1.819,0,0,1-1.817,1.817H30.374a1.817,1.817,0,0,1-1.817-1.817V36.5H53.551a4.24,4.24,0,0,0,4.24-4.24V4.24a.606.606,0,0,0-.606-.606H47.976a4.2,4.2,0,0,0-.364-1.211h9.573A1.819,1.819,0,0,1,59,4.24Z"/>
          <path id="Trazado_620507" data-name="Trazado 620507" d="M265.317,33.634a1.819,1.819,0,1,0-1.284-.533A1.819,1.819,0,0,0,265.317,33.634Zm-.428-2.245a.606.606,0,1,1-.177.428A.6.6,0,0,1,264.889,31.389Z" transform="translate(-221.538 -27.577)"/>
        </g>
      </g>
    </g>
    <g id="Grupo_926859" data-name="Grupo 926859" transform="translate(0 1561.371)">
      <path id="Trazado_508669" data-name="Trazado 508669" d="M883.872,540.917c0-32.834-25.332-59.451-56.581-59.451H637.182c-31.249,0-56.58,26.617-56.58,59.451s25.331,59.451,56.58,59.451h190.11c31.249,0,56.581-26.617,56.581-59.451" transform="translate(361.772 8372.639)" fill="#ffb338"/>
      <g id="Grupo_735230" data-name="Grupo 735230" transform="translate(361.772 8372.639)">
        <g id="Grupo_735229" data-name="Grupo 735229" clip-path="url(#clip-path-4)">
          <path id="Trazado_508696" data-name="Trazado 508696" d="M0,0H99.93V99.93H0Z" transform="translate(592.531 490.951)" fill="#fff"/>
        </g>
      </g>
      <path id="Trazado_508671" data-name="Trazado 508671" d="M642.5,578.95a38.033,38.033,0,1,0-38.033-38.033A38.033,38.033,0,0,0,642.5,578.95" transform="translate(361.772 8372.639)" fill="#ffe4b9"/>
      <path id="Trazado_681401" data-name="Trazado 681401" d="M13.883,10.313h1.2a1.7,1.7,0,0,0,1.273-.43,1.574,1.574,0,0,0,.414-1.141,1.392,1.392,0,0,0-.41-1.07,1.59,1.59,0,0,0-1.129-.383,1.666,1.666,0,0,0-1.086.355,1.137,1.137,0,0,0-.437.926H11.453a2.777,2.777,0,0,1,.48-1.6,3.2,3.2,0,0,1,1.344-1.105,4.485,4.485,0,0,1,1.9-.4,4.253,4.253,0,0,1,2.828.863,2.945,2.945,0,0,1,1.023,2.379,2.394,2.394,0,0,1-.477,1.438,3.1,3.1,0,0,1-1.25,1.008,2.826,2.826,0,0,1,1.434,1.031,2.8,2.8,0,0,1,.473,1.625,2.994,2.994,0,0,1-1.105,2.43,4.445,4.445,0,0,1-2.926.914,4.214,4.214,0,0,1-2.785-.9,2.934,2.934,0,0,1-1.082-2.375H13.57a1.308,1.308,0,0,0,.48,1.047,1.771,1.771,0,0,0,1.184.406A1.779,1.779,0,0,0,16.5,14.91a1.47,1.47,0,0,0,.457-1.129q0-1.7-1.875-1.7h-1.2Zm7.094,5.578a1.137,1.137,0,0,1,.363-.875,1.412,1.412,0,0,1,1.828,0,1.137,1.137,0,0,1,.363.875,1.121,1.121,0,0,1-.359.863,1.435,1.435,0,0,1-1.836,0A1.121,1.121,0,0,1,20.977,15.891Zm12.875-3.055H31.984V17H29.641V5.625h4.227a4.778,4.778,0,0,1,3.109.9A3.1,3.1,0,0,1,38.07,9.063a3.5,3.5,0,0,1-.5,1.941,3.437,3.437,0,0,1-1.527,1.238L38.5,16.891V17H35.984Zm-1.867-1.9h1.891a1.936,1.936,0,0,0,1.367-.449,1.606,1.606,0,0,0,.484-1.238,1.719,1.719,0,0,0-.457-1.266,1.9,1.9,0,0,0-1.4-.461H31.984Zm11.609,6.219a4.15,4.15,0,0,1-3.027-1.141A4.054,4.054,0,0,1,39.4,12.977v-.219a5.106,5.106,0,0,1,.492-2.277,3.612,3.612,0,0,1,1.395-1.547,3.914,3.914,0,0,1,2.059-.543,3.508,3.508,0,0,1,2.73,1.094,4.444,4.444,0,0,1,1,3.1v.922H41.688a2.1,2.1,0,0,0,.66,1.328,2,2,0,0,0,1.395.5,2.437,2.437,0,0,0,2.039-.945l1.109,1.242a3.389,3.389,0,0,1-1.375,1.121A4.511,4.511,0,0,1,43.594,17.156Zm-.258-6.945a1.411,1.411,0,0,0-1.09.455,2.357,2.357,0,0,0-.535,1.3h3.141v-.181a1.681,1.681,0,0,0-.406-1.165A1.456,1.456,0,0,0,43.336,10.211Zm8.078,4.031,1.57-5.7h2.359L52.492,17H50.336L47.484,8.547h2.359ZM58.719,17H56.453V8.547h2.266ZM56.32,6.359a1.112,1.112,0,0,1,.34-.836,1.465,1.465,0,0,1,1.848,0,1.105,1.105,0,0,1,.344.836A1.108,1.108,0,0,1,58.5,7.2a1.448,1.448,0,0,1-1.836,0A1.108,1.108,0,0,1,56.32,6.359Zm8.836,8.3a.727.727,0,0,0-.41-.652,4.659,4.659,0,0,0-1.316-.426q-3.016-.633-3.016-2.562a2.323,2.323,0,0,1,.934-1.879,3.766,3.766,0,0,1,2.441-.754,4.053,4.053,0,0,1,2.574.758,2.388,2.388,0,0,1,.965,1.969H65.07a1.092,1.092,0,0,0-.312-.8A1.322,1.322,0,0,0,63.781,10a1.351,1.351,0,0,0-.883.258.814.814,0,0,0-.312.656.7.7,0,0,0,.355.605,3.657,3.657,0,0,0,1.2.4,9.8,9.8,0,0,1,1.422.379,2.336,2.336,0,0,1,1.789,2.273,2.2,2.2,0,0,1-.992,1.871,4.28,4.28,0,0,1-2.562.715,4.47,4.47,0,0,1-1.887-.379,3.166,3.166,0,0,1-1.293-1.039,2.414,2.414,0,0,1-.469-1.426h2.141a1.179,1.179,0,0,0,.445.922,1.766,1.766,0,0,0,1.109.32,1.635,1.635,0,0,0,.98-.246A.766.766,0,0,0,65.156,14.664ZM71.188,17H68.922V8.547h2.266Zm-2.4-10.641a1.112,1.112,0,0,1,.34-.836,1.465,1.465,0,0,1,1.848,0,1.105,1.105,0,0,1,.344.836,1.108,1.108,0,0,1-.348.844,1.448,1.448,0,0,1-1.836,0A1.108,1.108,0,0,1,68.789,6.359ZM72.7,12.7a5.013,5.013,0,0,1,.484-2.242A3.546,3.546,0,0,1,74.574,8.93a4.069,4.069,0,0,1,2.113-.539A3.849,3.849,0,0,1,79.48,9.438a4.2,4.2,0,0,1,1.207,2.844l.016.578a4.418,4.418,0,0,1-1.086,3.121,4.209,4.209,0,0,1-5.832,0A4.5,4.5,0,0,1,72.7,12.8Zm2.258.16a3.16,3.16,0,0,0,.453,1.843,1.628,1.628,0,0,0,2.578.008,3.457,3.457,0,0,0,.461-2.015,3.128,3.128,0,0,0-.461-1.831,1.5,1.5,0,0,0-1.3-.649,1.474,1.474,0,0,0-1.281.646A3.516,3.516,0,0,0,74.953,12.856ZM77.133,5h2.461L77.43,7.422H75.594Zm7.039,3.547.07.977a2.951,2.951,0,0,1,2.43-1.133,2.453,2.453,0,0,1,2,.789,3.682,3.682,0,0,1,.672,2.359V17H87.086V11.594a1.465,1.465,0,0,0-.312-1.043,1.4,1.4,0,0,0-1.039-.324,1.553,1.553,0,0,0-1.43.813V17H82.047V8.547Z" transform="translate(1080.772 8903.5)" fill="#12263f"/>
      <g id="revision" transform="translate(983.102 8882.191)">
        <g id="Grupo_926904" data-name="Grupo 926904" transform="translate(3.386 21.725)">
          <g id="Grupo_926903" data-name="Grupo 926903">
            <rect id="Rectángulo_335117" data-name="Rectángulo 335117" width="13.422" height="1.354"/>
          </g>
        </g>
        <g id="Grupo_926906" data-name="Grupo 926906" transform="translate(3.386 27.142)">
          <g id="Grupo_926905" data-name="Grupo 926905">
            <rect id="Rectángulo_335118" data-name="Rectángulo 335118" width="15.983" height="1.354"/>
          </g>
        </g>
        <g id="Grupo_926908" data-name="Grupo 926908" transform="translate(3.386 29.851)">
          <g id="Grupo_926907" data-name="Grupo 926907">
            <rect id="Rectángulo_335119" data-name="Rectángulo 335119" width="18.963" height="1.354"/>
          </g>
        </g>
        <g id="Grupo_926910" data-name="Grupo 926910" transform="translate(3.386 32.56)">
          <g id="Grupo_926909" data-name="Grupo 926909">
            <rect id="Rectángulo_335120" data-name="Rectángulo 335120" width="21.672" height="1.354"/>
          </g>
        </g>
        <g id="Grupo_926912" data-name="Grupo 926912" transform="translate(3.386 35.269)">
          <g id="Grupo_926911" data-name="Grupo 926911">
            <rect id="Rectángulo_335121" data-name="Rectángulo 335121" width="21.672" height="1.354"/>
          </g>
        </g>
        <g id="Grupo_926914" data-name="Grupo 926914" transform="translate(3.386 37.978)">
          <g id="Grupo_926913" data-name="Grupo 926913">
            <rect id="Rectángulo_335122" data-name="Rectángulo 335122" width="21.672" height="1.354"/>
          </g>
        </g>
        <g id="Grupo_926916" data-name="Grupo 926916" transform="translate(3.386 40.687)">
          <g id="Grupo_926915" data-name="Grupo 926915">
            <rect id="Rectángulo_335123" data-name="Rectángulo 335123" width="17.157" height="1.354"/>
          </g>
        </g>
        <g id="Grupo_926918" data-name="Grupo 926918" transform="translate(14.222 46.105)">
          <g id="Grupo_926917" data-name="Grupo 926917">
            <rect id="Rectángulo_335124" data-name="Rectángulo 335124" width="10.836" height="1.354"/>
          </g>
        </g>
        <g id="Grupo_926920" data-name="Grupo 926920" transform="translate(0 9.083)">
          <g id="Grupo_926919" data-name="Grupo 926919">
            <path id="Trazado_620517" data-name="Trazado 620517" d="M37.218,32.277l-.818.382-1.781-3.82a10.853,10.853,0,0,0,3.668-13.5h0a10.834,10.834,0,0,0-20.617,3.677H7.9V20.37h9.739a10.771,10.771,0,0,0,.976,4.063H3.386v1.354H19.359a10.852,10.852,0,0,0,7.731,4.874V50.62H7.675V44.3H1.354V15.855H17.675V14.5H0V45.257l6.718,6.718H28.444V30.753h.039a10.753,10.753,0,0,0,2.862-.388l1.3,2.8,1.228-.572-1.245-2.669c.138-.058.276-.118.414-.181s.272-.131.4-.2l1.722,3.692-2.864,1.336,7.251,15.549,4.91-2.29ZM6.321,49.662,2.312,45.654H6.321ZM32.474,28.512a9.481,9.481,0,1,1,4.586-12.6A9.492,9.492,0,0,1,32.474,28.512Zm6.6,17.349L34.108,35.222l2.455-1.145,4.961,10.639Zm.572,1.228L42.1,45.944l.572,1.228-2.455,1.145Z" transform="translate(0 -9.083)"/>
          </g>
        </g>
        <g id="Grupo_926922" data-name="Grupo 926922" transform="translate(21.017 12.469)">
          <g id="Grupo_926921" data-name="Grupo 926921">
            <path id="Trazado_620518" data-name="Trazado 620518" d="M249.43,48.064a7.45,7.45,0,1,0,7.45,7.45A7.458,7.458,0,0,0,249.43,48.064Zm0,1.354a6.1,6.1,0,0,1,5.389,3.252,7.837,7.837,0,0,0-5.175-2.343q-.106-.006-.214-.006a7.784,7.784,0,0,0-5.379,2.33A6.1,6.1,0,0,1,249.43,49.418Zm2.709,4.966a2.709,2.709,0,1,1-2.709-2.709c.048,0,.095,0,.142,0A2.712,2.712,0,0,1,252.139,54.385Zm-6.575-1.251a4.063,4.063,0,1,0,7.731,0c.213.171.423.355.63.555l.926-.955a6.052,6.052,0,0,1,.67,2.608c-.441.736-2.6,4.011-6.091,4.011a6.411,6.411,0,0,1-4.52-2.036,10.326,10.326,0,0,1-1.463-1.8A10.049,10.049,0,0,1,245.564,53.134Zm3.866,8.475a6.1,6.1,0,0,1-5.379-3.233,7.375,7.375,0,0,0,10.758,0A6.1,6.1,0,0,1,249.43,61.609Z" transform="translate(-241.98 -48.064)"/>
          </g>
        </g>
        <g id="Grupo_926924" data-name="Grupo 926924" transform="translate(26.435 16.758)">
          <g id="Grupo_926923" data-name="Grupo 926923">
            <path id="Trazado_620519" data-name="Trazado 620519" d="M306.392,97.448a2.032,2.032,0,1,0,2.032,2.032A2.034,2.034,0,0,0,306.392,97.448Zm0,2.709a.677.677,0,1,1,.677-.677A.678.678,0,0,1,306.392,100.157Z" transform="translate(-304.36 -97.448)"/>
          </g>
        </g>
      </g>
    </g>
    <g id="Grupo_926853" data-name="Grupo 926853" transform="translate(0 1561.371)">
      <path id="Trazado_508669-2" data-name="Trazado 508669" d="M580.6,540.917c0-32.834,25.892-59.451,57.832-59.451H832.747c31.94,0,57.831,26.617,57.831,59.451s-25.891,59.451-57.831,59.451H638.434c-31.94,0-57.832-26.617-57.832-59.451" transform="translate(-246.325 8372.639)" fill="#ffb338"/>
      <g id="Grupo_735230-2" data-name="Grupo 735230" transform="translate(532.394 8863.59)">
        <g id="Grupo_735229-2" data-name="Grupo 735229" transform="translate(0)" clip-path="url(#clip-path-5)">
          <path id="Trazado_508696-2" data-name="Trazado 508696" d="M99.93,0H0V99.93H99.93Z" transform="translate(0 0)" fill="#fff"/>
        </g>
      </g>
      <path id="Trazado_508671-2" data-name="Trazado 508671" d="M642.5,578.95a38.033,38.033,0,1,1,38.033-38.033A38.033,38.033,0,0,1,642.5,578.95" transform="translate(-60.138 8372.639)" fill="#ffe4b9"/>
      <path id="Trazado_681400" data-name="Trazado 681400" d="M22.621,12.719H23.91v1.82H22.621V17H20.363V14.539H15.7l-.1-1.422L20.34,5.625h2.281Zm-4.773,0h2.516V8.7l-.148.258Zm7.484,3.172a1.137,1.137,0,0,1,.363-.875,1.412,1.412,0,0,1,1.828,0,1.137,1.137,0,0,1,.363.875,1.121,1.121,0,0,1-.359.863,1.435,1.435,0,0,1-1.836,0A1.121,1.121,0,0,1,25.332,15.891ZM40.84,12.07h-4.5v3.047h5.281V17H34V5.625h7.609v1.9H36.34v2.711h4.5Zm1.656.641a5.094,5.094,0,0,1,.887-3.148,2.877,2.877,0,0,1,2.426-1.172,2.589,2.589,0,0,1,2.039.922V5h2.266V17H48.074l-.109-.9a2.657,2.657,0,0,1-2.172,1.055A2.869,2.869,0,0,1,43.4,15.98,5.258,5.258,0,0,1,42.5,12.711Zm2.258.168a3.337,3.337,0,0,0,.414,1.823,1.349,1.349,0,0,0,1.2.634,1.511,1.511,0,0,0,1.477-.884V11.111a1.489,1.489,0,0,0-1.461-.884Q44.754,10.227,44.754,12.879ZM54.246,17H51.98V8.547h2.266Zm-2.4-10.641a1.112,1.112,0,0,1,.34-.836,1.465,1.465,0,0,1,1.848,0,1.105,1.105,0,0,1,.344.836,1.108,1.108,0,0,1-.348.844,1.448,1.448,0,0,1-1.836,0A1.108,1.108,0,0,1,51.848,6.359Zm7.773,8.977a1.481,1.481,0,0,0,1.016-.344,1.2,1.2,0,0,0,.406-.914H63.16a2.9,2.9,0,0,1-.469,1.574,3.093,3.093,0,0,1-1.262,1.109,3.949,3.949,0,0,1-1.77.395A3.67,3.67,0,0,1,56.8,16a4.56,4.56,0,0,1-1.047-3.184v-.148a4.508,4.508,0,0,1,1.039-3.117,3.627,3.627,0,0,1,2.852-1.164,3.555,3.555,0,0,1,2.543.9,3.2,3.2,0,0,1,.973,2.4H61.043a1.551,1.551,0,0,0-.406-1.072,1.51,1.51,0,0,0-2.223.163,3.333,3.333,0,0,0-.4,1.866v.235a3.375,3.375,0,0,0,.4,1.878A1.377,1.377,0,0,0,59.621,15.336ZM66.832,17H64.566V8.547h2.266Zm-2.4-10.641a1.112,1.112,0,0,1,.34-.836,1.465,1.465,0,0,1,1.848,0,1.105,1.105,0,0,1,.344.836,1.108,1.108,0,0,1-.348.844,1.448,1.448,0,0,1-1.836,0A1.108,1.108,0,0,1,64.434,6.359ZM68.34,12.7a5.013,5.013,0,0,1,.484-2.242A3.546,3.546,0,0,1,70.219,8.93a4.069,4.069,0,0,1,2.113-.539,3.849,3.849,0,0,1,2.793,1.047,4.2,4.2,0,0,1,1.207,2.844l.016.578a4.418,4.418,0,0,1-1.086,3.121,4.209,4.209,0,0,1-5.832,0A4.5,4.5,0,0,1,68.34,12.8Zm2.258.16a3.16,3.16,0,0,0,.453,1.843,1.628,1.628,0,0,0,2.578.008,3.457,3.457,0,0,0,.461-2.015,3.128,3.128,0,0,0-.461-1.831,1.5,1.5,0,0,0-1.3-.649,1.474,1.474,0,0,0-1.281.646A3.516,3.516,0,0,0,70.6,12.856ZM72.777,5h2.461L73.074,7.422H71.238Zm7.039,3.547.07.977a2.951,2.951,0,0,1,2.43-1.133,2.453,2.453,0,0,1,2,.789,3.682,3.682,0,0,1,.672,2.359V17H82.73V11.594a1.465,1.465,0,0,0-.312-1.043,1.4,1.4,0,0,0-1.039-.324,1.553,1.553,0,0,0-1.43.813V17H77.691V8.547Z" transform="translate(408.99 8903.5)" fill="#12263f"/>
      <g id="Page-1" transform="translate(560 8893.929)">
        <g id="_028---Word-Processing" data-name="028---Word-Processing" transform="translate(0)">
          <path id="Shape" d="M2.163,48.185h3.6A2.163,2.163,0,0,0,7.8,46.743H25.448a5.767,5.767,0,0,0,3-.841l13.509-8.224a2.688,2.688,0,0,0,.808-3.852.6.6,0,0,0-.05-.072,2.706,2.706,0,0,0-3.01-.942L26.354,37.259a2.121,2.121,0,0,1-.683.112H25.26a3.316,3.316,0,0,0-.254-2.812,4.338,4.338,0,0,0-3.789-2.235H17.446a5.877,5.877,0,0,1-3.659-1.284,7.328,7.328,0,0,0-4.559-1.6H7.8A2.163,2.163,0,0,0,5.767,28h-3.6A2.163,2.163,0,0,0,0,30.163v15.86a2.163,2.163,0,0,0,2.163,2.163ZM12.886,32.168a7.328,7.328,0,0,0,4.56,1.6h3.771A2.976,2.976,0,0,1,23.7,35.159a.71.71,0,0,0,.056.115,1.884,1.884,0,0,1-.108,2.1H19.262a7.226,7.226,0,0,0-4,1.21l-.527.353a.722.722,0,0,0,.8,1.2l.522-.352a5.779,5.779,0,0,1,3.2-.968h6.409a3.547,3.547,0,0,0,1.143-.188l13.34-4.447a1.26,1.26,0,0,1,1.37.4c.011.018.022.035.035.052a1.246,1.246,0,0,1-.354,1.82L27.7,44.672a4.33,4.33,0,0,1-2.25.63H7.93V30.884h1.3A5.877,5.877,0,0,1,12.886,32.168Zm-11.444-2a.721.721,0,0,1,.721-.721h3.6a.721.721,0,0,1,.721.721v15.86a.721.721,0,0,1-.721.721h-3.6a.721.721,0,0,1-.721-.721Z" transform="translate(0 -7.815)"/>
          <path id="Shape-2" data-name="Shape" d="M17.7,9.9l.689.276A1.442,1.442,0,0,0,20.36,8.833V5.921a1.442,1.442,0,0,0-1.977-1.339l-.683.273H7.162l-.689-.276A1.442,1.442,0,0,0,4.5,5.921V8.833a1.442,1.442,0,0,0,1.977,1.339L7.16,9.9H9.907v7.81l-.366,1.1a1.442,1.442,0,0,0,1.368,1.9h3.042a1.442,1.442,0,0,0,1.37-1.9l-.368-1.1V9.9ZM14.232,8.458a.721.721,0,0,0-.721.721v8.535a1.505,1.505,0,0,0,.072.451l.368,1.106H10.909l.375-1.128a1.468,1.468,0,0,0,.065-.429V9.179a.721.721,0,0,0-.721-.721H7.16a1.409,1.409,0,0,0-.535.1l-.683.273V5.919l.678.271A1.419,1.419,0,0,0,7.16,6.3H17.7a1.409,1.409,0,0,0,.535-.1l.683-.277V8.835l-.677-.271a1.425,1.425,0,0,0-.541-.105Z" transform="translate(-1.256 -1.249)"/>
          <path id="Shape-3" data-name="Shape" d="M29.721,6.442H32.6A.721.721,0,1,0,32.6,5H29.721a.721.721,0,0,0,0,1.442Z" transform="translate(-8.094 -1.395)"/>
          <path id="Shape-4" data-name="Shape" d="M49.255,5H37.721a.721.721,0,0,0,0,1.442H49.255a.721.721,0,0,0,0-1.442Z" transform="translate(-10.327 -1.395)"/>
          <path id="Shape-5" data-name="Shape" d="M52.6,10H49.721a.721.721,0,0,0,0,1.442H52.6A.721.721,0,0,0,52.6,10Z" transform="translate(-13.676 -2.791)"/>
          <path id="Shape-6" data-name="Shape" d="M29.721,11.442H41.255a.721.721,0,0,0,0-1.442H29.721a.721.721,0,0,0,0,1.442Z" transform="translate(-8.094 -2.791)"/>
          <path id="Shape-7" data-name="Shape" d="M29.721,16.442H32.6A.721.721,0,1,0,32.6,15H29.721a.721.721,0,0,0,0,1.442Z" transform="translate(-8.094 -4.186)"/>
          <path id="Shape-8" data-name="Shape" d="M49.255,15H37.721a.721.721,0,0,0,0,1.442H49.255a.721.721,0,0,0,0-1.442Z" transform="translate(-10.327 -4.186)"/>
          <path id="Shape-9" data-name="Shape" d="M52.6,20H49.721a.721.721,0,0,0,0,1.442H52.6A.721.721,0,0,0,52.6,20Z" transform="translate(-13.676 -5.582)"/>
          <path id="Shape-10" data-name="Shape" d="M29.721,21.442H41.255a.721.721,0,0,0,0-1.442H29.721a.721.721,0,0,0,0,1.442Z" transform="translate(-8.094 -5.582)"/>
          <path id="Shape-11" data-name="Shape" d="M29.721,26.442H32.6A.721.721,0,1,0,32.6,25H29.721a.721.721,0,0,0,0,1.442Z" transform="translate(-8.094 -6.977)"/>
          <path id="Shape-12" data-name="Shape" d="M49.255,25H37.721a.721.721,0,1,0,0,1.442H49.255a.721.721,0,0,0,0-1.442Z" transform="translate(-10.327 -6.977)"/>
          <path id="Shape-13" data-name="Shape" d="M41.091,0H2.163A2.163,2.163,0,0,0,0,2.163V18.275a.721.721,0,1,0,1.442,0V2.163a.721.721,0,0,1,.721-.721H41.091a.721.721,0,0,1,.721.721V20.906a.721.721,0,0,1-.721.721H17.3a.721.721,0,1,0,0,1.442h23.79a2.163,2.163,0,0,0,2.163-2.163V2.163A2.163,2.163,0,0,0,41.091,0Z" transform="translate(0)"/>
        </g>
      </g>
    </g>
    <g id="Grupo_944278" data-name="Grupo 944278">
      <path id="Trazado_620436" data-name="Trazado 620436" d="M901.713,59.45C901.713,26.616,875.821,0,843.882,0H649.568c-31.94,0-57.831,26.617-57.831,59.451S617.628,118.9,649.568,118.9H843.882c31.94,0,57.832-26.617,57.832-59.451" transform="translate(350.638 10044.385)" fill="#ffb338"/>
      <g id="Grupo_926856" data-name="Grupo 926856" transform="translate(350.638 10044.385)">
        <g id="Grupo_735240-2" data-name="Grupo 735240" clip-path="url(#clip-path-6)">
          <path id="Trazado_508693-2" data-name="Trazado 508693" d="M0,0H99.931V99.929H0Z" transform="translate(603.666 9.486)" fill="#fff"/>
        </g>
      </g>
      <path id="Trazado_620437" data-name="Trazado 620437" d="M653.631,97.483A38.033,38.033,0,1,0,615.6,59.451a38.032,38.032,0,0,0,38.033,38.032" transform="translate(350.638 10044.385)" fill="#ffe4b9"/>
      <path id="Trazado_681402" data-name="Trazado 681402" d="M13.688,17h-7.8V15.453l3.68-3.922a9.078,9.078,0,0,0,1.121-1.445,2.322,2.322,0,0,0,.363-1.172,1.738,1.738,0,0,0-.383-1.191,1.382,1.382,0,0,0-1.094-.434,1.49,1.49,0,0,0-1.207.527A2.089,2.089,0,0,0,7.93,9.2H5.664a3.729,3.729,0,0,1,.5-1.9,3.5,3.5,0,0,1,1.4-1.348,4.262,4.262,0,0,1,2.055-.488,4.036,4.036,0,0,1,2.73.844A2.985,2.985,0,0,1,13.32,8.7a3.825,3.825,0,0,1-.437,1.719,9.551,9.551,0,0,1-1.5,2.039L8.8,15.18h4.891Zm1.594-1.109a1.137,1.137,0,0,1,.363-.875,1.412,1.412,0,0,1,1.828,0,1.137,1.137,0,0,1,.363.875,1.121,1.121,0,0,1-.359.863,1.435,1.435,0,0,1-1.836,0A1.121,1.121,0,0,1,15.281,15.891ZM32.039,7.523H28.555V17H26.211V7.523H22.773v-1.9h9.266Zm5.078,9.633a4.15,4.15,0,0,1-3.027-1.141,4.054,4.054,0,0,1-1.168-3.039v-.219a5.106,5.106,0,0,1,.492-2.277,3.612,3.612,0,0,1,1.395-1.547,3.914,3.914,0,0,1,2.059-.543A3.508,3.508,0,0,1,39.6,9.484a4.444,4.444,0,0,1,1,3.1v.922H35.211a2.1,2.1,0,0,0,.66,1.328,2,2,0,0,0,1.395.5,2.437,2.437,0,0,0,2.039-.945l1.109,1.242a3.389,3.389,0,0,1-1.375,1.121A4.511,4.511,0,0,1,37.117,17.156Zm-.258-6.945a1.411,1.411,0,0,0-1.09.455,2.357,2.357,0,0,0-.535,1.3h3.141v-.181a1.681,1.681,0,0,0-.406-1.165A1.456,1.456,0,0,0,36.859,10.211Zm8.234.859,1.422-2.523H48.93l-2.406,4.141L49.031,17H46.609L45.1,14.344,43.6,17h-2.43l2.508-4.312-2.4-4.141H43.7Zm7.625-4.6V8.547h1.445V10.2H52.719v4.219a1.007,1.007,0,0,0,.18.672.9.9,0,0,0,.688.2,3.6,3.6,0,0,0,.664-.055v1.711a4.648,4.648,0,0,1-1.367.2,2.156,2.156,0,0,1-2.422-2.4V10.2H49.227V8.547h1.234V6.469Zm7.766,9.672a2.831,2.831,0,0,1-2.312,1.016,2.67,2.67,0,0,1-2.074-.781,3.335,3.335,0,0,1-.73-2.289V8.547h2.258v5.467q0,1.322,1.2,1.322a1.63,1.63,0,0,0,1.578-.8V8.547h2.266V17H60.547ZM69.273,17a2.507,2.507,0,0,1-.227-.758,2.732,2.732,0,0,1-2.133.914,3,3,0,0,1-2.059-.719,2.312,2.312,0,0,1-.816-1.812,2.389,2.389,0,0,1,1-2.062,4.915,4.915,0,0,1,2.879-.727h1.039v-.484a1.393,1.393,0,0,0-.3-.937,1.183,1.183,0,0,0-.949-.352,1.345,1.345,0,0,0-.895.273.929.929,0,0,0-.324.75H64.227a2.268,2.268,0,0,1,.453-1.359,3,3,0,0,1,1.281-.98,4.669,4.669,0,0,1,1.859-.355,3.689,3.689,0,0,1,2.48.785,2.747,2.747,0,0,1,.918,2.207v3.664a4.041,4.041,0,0,0,.336,1.82V17Zm-1.867-1.57a1.945,1.945,0,0,0,.922-.223,1.462,1.462,0,0,0,.625-.6V13.156h-.844q-1.7,0-1.8,1.172l-.008.133a.9.9,0,0,0,.3.7A1.153,1.153,0,0,0,67.406,15.43ZM75.336,17H73.07V5h2.266Zm4.242,0H77.313V8.547h2.266ZM77.18,6.359a1.112,1.112,0,0,1,.34-.836,1.465,1.465,0,0,1,1.848,0,1.105,1.105,0,0,1,.344.836,1.108,1.108,0,0,1-.348.844,1.448,1.448,0,0,1-1.836,0A1.108,1.108,0,0,1,77.18,6.359Zm6.852,8.82h4.133V17H81.148V15.625l3.977-5.258H81.266V8.547h6.773v1.33ZM94.477,17a2.507,2.507,0,0,1-.227-.758,2.732,2.732,0,0,1-2.133.914,3,3,0,0,1-2.059-.719,2.312,2.312,0,0,1-.816-1.812,2.389,2.389,0,0,1,1-2.062,4.915,4.915,0,0,1,2.879-.727h1.039v-.484a1.393,1.393,0,0,0-.3-.937,1.183,1.183,0,0,0-.949-.352,1.345,1.345,0,0,0-.895.273.929.929,0,0,0-.324.75H89.43a2.268,2.268,0,0,1,.453-1.359,3,3,0,0,1,1.281-.98,4.669,4.669,0,0,1,1.859-.355,3.689,3.689,0,0,1,2.48.785,2.747,2.747,0,0,1,.918,2.207v3.664a4.041,4.041,0,0,0,.336,1.82V17Zm-1.867-1.57a1.945,1.945,0,0,0,.922-.223,1.462,1.462,0,0,0,.625-.6V13.156h-.844q-1.7,0-1.8,1.172l-.008.133a.9.9,0,0,0,.3.7A1.153,1.153,0,0,0,92.609,15.43Zm9.063-.094a1.481,1.481,0,0,0,1.016-.344,1.2,1.2,0,0,0,.406-.914h2.117a2.9,2.9,0,0,1-.469,1.574,3.093,3.093,0,0,1-1.262,1.109,3.949,3.949,0,0,1-1.77.395A3.67,3.67,0,0,1,98.852,16,4.56,4.56,0,0,1,97.8,12.82v-.148a4.508,4.508,0,0,1,1.039-3.117A3.627,3.627,0,0,1,101.7,8.391a3.555,3.555,0,0,1,2.543.9,3.2,3.2,0,0,1,.973,2.4h-2.117a1.551,1.551,0,0,0-.406-1.072,1.51,1.51,0,0,0-2.223.163,3.333,3.333,0,0,0-.4,1.866v.235a3.375,3.375,0,0,0,.4,1.878A1.377,1.377,0,0,0,101.672,15.336ZM108.883,17h-2.266V8.547h2.266Zm-2.4-10.641a1.112,1.112,0,0,1,.34-.836,1.465,1.465,0,0,1,1.848,0,1.105,1.105,0,0,1,.344.836,1.108,1.108,0,0,1-.348.844,1.448,1.448,0,0,1-1.836,0A1.108,1.108,0,0,1,106.484,6.359Zm3.906,6.336a5.013,5.013,0,0,1,.484-2.242A3.546,3.546,0,0,1,112.27,8.93a4.069,4.069,0,0,1,2.113-.539,3.849,3.849,0,0,1,2.793,1.047,4.2,4.2,0,0,1,1.207,2.844l.016.578a4.418,4.418,0,0,1-1.086,3.121,4.209,4.209,0,0,1-5.832,0,4.5,4.5,0,0,1-1.09-3.187Zm2.258.16A3.16,3.16,0,0,0,113.1,14.7a1.628,1.628,0,0,0,2.578.008,3.457,3.457,0,0,0,.461-2.015,3.128,3.128,0,0,0-.461-1.831,1.5,1.5,0,0,0-1.3-.649,1.474,1.474,0,0,0-1.281.646A3.516,3.516,0,0,0,112.648,12.856ZM114.828,5h2.461l-2.164,2.422h-1.836Zm7.039,3.547.07.977a2.951,2.951,0,0,1,2.43-1.133,2.453,2.453,0,0,1,2,.789,3.682,3.682,0,0,1,.672,2.359V17h-2.258V11.594a1.465,1.465,0,0,0-.312-1.043,1.4,1.4,0,0,0-1.039-.324,1.553,1.553,0,0,0-1.43.813V17h-2.258V8.547Z" transform="translate(1077 10093.334)" fill="#12263f"/>
      <g id="redaccion" transform="translate(971.25 10084.41)">
        <path id="Trazado_620508" data-name="Trazado 620508" d="M140.443,122.2a.6.6,0,0,0,0-1.2h-6.092a.6.6,0,1,0,0,1.2Z" transform="translate(-107.622 -111.301)"/>
        <path id="Trazado_620509" data-name="Trazado 620509" d="M56.75,183.6a.6.6,0,0,0,.6.6H75.786a.6.6,0,1,0,0-1.2H57.351A.6.6,0,0,0,56.75,183.6Z" transform="translate(-36.794 -168.332)"/>
        <path id="Trazado_620510" data-name="Trazado 620510" d="M57.351,217.952H75.786a.6.6,0,0,0,0-1.2H57.351a.6.6,0,1,0,0,1.2Z" transform="translate(-36.794 -199.377)"/>
        <path id="Trazado_620511" data-name="Trazado 620511" d="M57.351,319.2h8.865a.6.6,0,0,0,0-1.2H57.351a.6.6,0,0,0,0,1.2Z" transform="translate(-36.794 -292.511)"/>
        <path id="Trazado_620512" data-name="Trazado 620512" d="M181.339,386.7a.6.6,0,1,0,0-1.2H172.1a.6.6,0,1,0,0,1.2Z" transform="translate(-142.346 -354.601)"/>
        <path id="Trazado_620513" data-name="Trazado 620513" d="M57.351,386.7h6.392a.6.6,0,1,0,0-1.2H57.351a.6.6,0,1,0,0,1.2Z" transform="translate(-36.794 -354.601)"/>
        <path id="Trazado_620514" data-name="Trazado 620514" d="M57.351,420.452H75.786a.6.6,0,0,0,0-1.2H57.351a.6.6,0,0,0,0,1.2Z" transform="translate(-36.794 -385.646)"/>
        <path id="Trazado_620515" data-name="Trazado 620515" d="M57.351,454.2H70.136a.6.6,0,1,0,0-1.2H57.351a.6.6,0,1,0,0,1.2Z" transform="translate(-36.794 -416.691)"/>
        <path id="Trazado_620516" data-name="Trazado 620516" d="M54.692,8.58,53.557,7.445a1.406,1.406,0,0,0-1.985,0L49.012,10V1.4a1.4,1.4,0,0,0-1.4-1.4H24.365a1.4,1.4,0,0,0-1.4,1.4V3.046H21.319a1.4,1.4,0,0,0-1.4,1.4V6.172H18.153a1.4,1.4,0,0,0-1.4,1.4V16.4a.6.6,0,0,0,1.2,0V7.574a.2.2,0,0,1,.2-.2H35.987v4.208a1.4,1.4,0,0,0,1.4,1.4H41.6v4.433l-2.66,2.66H20.557a.6.6,0,0,0,0,1.2H37.735l-1.5,1.5H20.557a.6.6,0,0,0,0,1.2h14.65L32.98,28.194H20.557a.6.6,0,0,0,0,1.2H38.993a.6.6,0,1,0,0-1.2h-3.23l2.473-1.309a2.2,2.2,0,0,0,.528-.39L41.6,23.66V39.636a.2.2,0,0,1-.2.2H18.153a.2.2,0,0,1-.2-.2V19.206a.6.6,0,1,0-1.2,0v20.43a1.4,1.4,0,0,0,1.4,1.4H41.4a1.4,1.4,0,0,0,1.4-1.4V37.913h1.763a1.4,1.4,0,0,0,1.4-1.4V34.867h1.643a1.4,1.4,0,0,0,1.4-1.4V24.628a.6.6,0,1,0-1.2,0v8.837a.2.2,0,0,1-.2.2H45.966V19.292l1.844-1.844v4.374a.6.6,0,1,0,1.2,0V16.246l5.68-5.68a1.4,1.4,0,0,0,0-1.986Zm-17.5,3V8.224l3.558,3.558H37.389A.2.2,0,0,1,37.189,11.582Zm5.2.142L37.248,6.583a1.394,1.394,0,0,0-.992-.411H21.118V4.449a.2.2,0,0,1,.2-.2h8.176a.6.6,0,0,0,0-1.2h-5.33V1.4a.2.2,0,0,1,.2-.2H47.609a.2.2,0,0,1,.2.2v9.8L45.966,13.05v-8.6a1.4,1.4,0,0,0-1.4-1.4H32.3a.6.6,0,1,0,0,1.2H44.563a.2.2,0,0,1,.2.2v9.8L42.8,16.216v-3.5A1.394,1.394,0,0,0,42.389,11.724ZM36.245,24.6l1.313-.017-.017,1.313L34.787,27.35ZM44.764,36.51a.2.2,0,0,1-.2.2H42.8V22.458l1.964-1.964ZM38.758,24.8l.01-.822a.6.6,0,0,0-.176-.433.584.584,0,0,0-.433-.176l-.822.01L50.521,10.2l1.421,1.421ZM53.842,9.715l-1.051,1.051L51.371,9.345l1.051-1.051a.2.2,0,0,1,.285,0L53.842,9.43a.2.2,0,0,1,0,.285Z"/>
      </g>
    </g>
  </g>
</svg>
