<svg xmlns="http://www.w3.org/2000/svg" width="820" height="245.034" viewBox="0 0 820 245.034">
  <g id="Grupo_944285" data-name="Grupo 944285" transform="translate(-390 -1499)">
    <path id="Trazado_508649" data-name="Trazado 508649" d="M1268.923,219.532H1077.466a6.592,6.592,0,0,1-6.592-6.592V21.483a6.592,6.592,0,0,1,6.592-6.592h191.457a6.592,6.592,0,0,1,6.592,6.592V212.94a6.592,6.592,0,0,1-6.592,6.592" transform="translate(-85.712 1504.306)" fill="#406834"/>
    <path id="Trazado_508650" data-name="Trazado 508650" d="M1267.042,222.065H1080.4A11.018,11.018,0,0,1,1069.4,211.06V24.417A11.018,11.018,0,0,1,1080.4,13.412h186.641a11.018,11.018,0,0,1,11.005,11.005V211.06a11.018,11.018,0,0,1-11.005,11.005M1080.4,17.423a7,7,0,0,0-6.995,6.995V211.06a7,7,0,0,0,6.995,6.995h186.641a7,7,0,0,0,6.995-6.995V24.417a7,7,0,0,0-6.995-6.995Z" transform="translate(-86.238 1503.779)" fill="#fff"/>
    <path id="Trazado_508651" data-name="Trazado 508651" d="M1278.232,209.709h-7.978a2.005,2.005,0,0,1,0-4.011h7.978a2.005,2.005,0,0,1,0,4.011m-23.932,0h-7.978a2.005,2.005,0,1,1,0-4.011h7.978a2.005,2.005,0,0,1,0,4.011m-23.932,0h-7.978a2.005,2.005,0,1,1,0-4.011h7.978a2.005,2.005,0,0,1,0,4.011m-23.932,0h-7.978a2.005,2.005,0,1,1,0-4.011h7.978a2.005,2.005,0,0,1,0,4.011m-23.934,0h-7.977a2.005,2.005,0,1,1,0-4.011h7.977a2.005,2.005,0,1,1,0,4.011m-23.932,0h-7.977a2.005,2.005,0,1,1,0-4.011h7.977a2.005,2.005,0,1,1,0,4.011m-23.932,0h-7.977a2.005,2.005,0,1,1,0-4.011h7.977a2.005,2.005,0,1,1,0,4.011m-23.932,0h-7.977a2.005,2.005,0,1,1,0-4.011h7.977a2.005,2.005,0,1,1,0,4.011m-23.931,0H1078.8a2.005,2.005,0,1,1,0-4.011h7.978a2.005,2.005,0,0,1,0,4.011m-22.805-4.549a2,2,0,0,1-1.334-.51q-.419-.374-.818-.773a19.793,19.793,0,0,1-4.292-6.388,2,2,0,1,1,3.7-1.549,15.842,15.842,0,0,0,3.429,5.1c.211.212.428.418.651.616a2.005,2.005,0,0,1-1.335,3.5m229.083-.019a2.006,2.006,0,0,1-1.339-3.5q.327-.293.639-.6a15.84,15.84,0,0,0,3.436-5.121,2.005,2.005,0,0,1,3.7,1.543,19.834,19.834,0,0,1-4.3,6.417q-.391.389-.795.753a2.007,2.007,0,0,1-1.339.511M1057.99,182.95a2.007,2.007,0,0,1-2.006-2.006v-7.977a2.005,2.005,0,1,1,4.011,0v7.977a2.006,2.006,0,0,1-2,2.006m241.021-.027a2.007,2.007,0,0,1-2.006-2.006v-7.979a2.006,2.006,0,0,1,4.012,0v7.979a2.007,2.007,0,0,1-2.006,2.006M1057.99,159.016a2.007,2.007,0,0,1-2.006-2.006v-7.977a2.005,2.005,0,1,1,4.011,0v7.977a2.006,2.006,0,0,1-2,2.006m241.021-.027a2.007,2.007,0,0,1-2.006-2.006v-7.977a2.006,2.006,0,1,1,4.012,0v7.977a2.007,2.007,0,0,1-2.006,2.006m-241.021-23.9a2.007,2.007,0,0,1-2.006-2.006V125.1a2.005,2.005,0,0,1,4.011,0v7.978a2.006,2.006,0,0,1-2,2.006m241.021-.027a2.007,2.007,0,0,1-2.006-2.006v-7.979a2.006,2.006,0,1,1,4.012,0v7.979a2.007,2.007,0,0,1-2.006,2.006M1057.99,111.152a2.007,2.007,0,0,1-2.006-2.006v-7.977a2.005,2.005,0,1,1,4.011,0v7.977a2.006,2.006,0,0,1-2,2.006m241.021-.027a2.007,2.007,0,0,1-2.006-2.006v-7.977a2.006,2.006,0,1,1,4.012,0v7.977a2.007,2.007,0,0,1-2.006,2.006" transform="translate(-91.018 1534.324)" fill="#406834"/>
    <path id="Trazado_508652" data-name="Trazado 508652" d="M1057.99,92.438a2.007,2.007,0,0,1-2.006-2.006V86.421a2.006,2.006,0,0,1,4.012,0v4.011a2.007,2.007,0,0,1-2.006,2.006" transform="translate(-91.018 1529.079)" fill="#a3314f"/>
    <path id="Trazado_508653" data-name="Trazado 508653" d="M1301.017,122.517h-4.011V19.912a15.9,15.9,0,0,0-15.9-15.9H1075.9a15.9,15.9,0,0,0-15.9,15.9v102.6h-4.011V19.912A19.91,19.91,0,0,1,1075.9,0h205.209a19.912,19.912,0,0,1,19.912,19.912Z" transform="translate(-91.018 1499)" fill="#406834"/>
    <path id="Trazado_508654" data-name="Trazado 508654" d="M845.008,219.532H653.551a6.592,6.592,0,0,1-6.592-6.592V21.483a6.592,6.592,0,0,1,6.592-6.592H845.008a6.592,6.592,0,0,1,6.592,6.592V212.94a6.592,6.592,0,0,1-6.592,6.592" transform="translate(-236.763 1504.306)" fill="#406834"/>
    <path id="Trazado_508655" data-name="Trazado 508655" d="M843.126,222.065H656.487A11.018,11.018,0,0,1,645.48,211.06V24.417a11.018,11.018,0,0,1,11.007-11.005h186.64a11.019,11.019,0,0,1,11.007,11.005V211.06a11.019,11.019,0,0,1-11.007,11.005M656.487,17.423a7,7,0,0,0-6.995,6.995V211.06a7,7,0,0,0,6.995,6.995h186.64a7,7,0,0,0,6.995-6.995V24.417a7,7,0,0,0-6.995-6.995Z" transform="translate(-237.289 1503.779)" fill="#fff"/>
    <path id="Trazado_508656" data-name="Trazado 508656" d="M811.776,98.353a2.007,2.007,0,0,1-2.006-2.006V92.336a2.006,2.006,0,1,1,4.012,0v4.011a2.007,2.007,0,0,1-2.006,2.006" transform="translate(-178.749 1531.187)" fill="#621d2f"/>
    <path id="Trazado_508657" data-name="Trazado 508657" d="M875.1,110.574a2.007,2.007,0,0,1-2.006-2.006v-7.977a2.005,2.005,0,1,1,4.011,0v7.977a2.006,2.006,0,0,1-2,2.006m-241.021-.027a2.007,2.007,0,0,1-2.006-2.006v-7.979a2.005,2.005,0,0,1,4.011,0v7.979a2.006,2.006,0,0,1-2,2.006M875.1,86.643a2.007,2.007,0,0,1-2.006-2.006V76.658a2.005,2.005,0,1,1,4.011,0v7.979a2.006,2.006,0,0,1-2,2.006m-241.021-.03a2.005,2.005,0,0,1-2.006-2V76.631a2.005,2.005,0,1,1,4.011,0v7.978a2.005,2.005,0,0,1-2,2M875.1,62.709a2.007,2.007,0,0,1-2.006-2.006V52.727a2.005,2.005,0,1,1,4.011,0V60.7a2.006,2.006,0,0,1-2,2.006m-241.021-.027a2.007,2.007,0,0,1-2.006-2.006V52.7a2.005,2.005,0,0,1,4.011,0v7.979a2.006,2.006,0,0,1-2,2.006M875.1,38.778a2.007,2.007,0,0,1-2.006-2.006V28.793a2.005,2.005,0,1,1,4.011,0v7.979a2.006,2.006,0,0,1-2,2.006m-241.021-.03a2.006,2.006,0,0,1-2.006-2.006V28.766a2.005,2.005,0,1,1,4.011,0v7.977a2.005,2.005,0,0,1-2,2.006M873.721,15.028a2,2,0,0,1-1.851-1.234,15.864,15.864,0,0,0-3.438-5.126c-.2-.2-.416-.4-.635-.6a2.006,2.006,0,0,1,2.676-2.988c.271.243.536.494.792.749a19.834,19.834,0,0,1,4.306,6.421,2,2,0,0,1-1.078,2.622,1.966,1.966,0,0,1-.772.156M635.457,15a2.029,2.029,0,0,1-.773-.156,2.006,2.006,0,0,1-1.076-2.624A19.779,19.779,0,0,1,637.9,5.833q.4-.4.818-.773a2,2,0,1,1,2.669,2.992c-.222.2-.44.4-.651.616a15.818,15.818,0,0,0-3.427,5.1A2.008,2.008,0,0,1,635.457,15M854.315,4.012h-7.977a2.005,2.005,0,1,1,0-4.011h7.977a2.005,2.005,0,1,1,0,4.011m-23.932,0h-7.977a2.005,2.005,0,1,1,0-4.011h7.977a2.005,2.005,0,1,1,0,4.011m-23.932,0h-7.977a2.005,2.005,0,1,1,0-4.011h7.977a2.005,2.005,0,1,1,0,4.011m-23.932,0h-7.977a2.005,2.005,0,1,1,0-4.011h7.977a2.005,2.005,0,1,1,0,4.011m-23.932,0h-7.977a2.005,2.005,0,1,1,0-4.011h7.977a2.005,2.005,0,1,1,0,4.011m-23.931,0h-7.978a2.005,2.005,0,1,1,0-4.011h7.978a2.005,2.005,0,1,1,0,4.011m-23.932,0h-7.978a2.005,2.005,0,1,1,0-4.011h7.978a2.005,2.005,0,1,1,0,4.011m-23.932,0h-7.978a2.005,2.005,0,1,1,0-4.011h7.978a2.005,2.005,0,1,1,0,4.011m-23.932,0H654.88a2.005,2.005,0,1,1,0-4.011h7.978a2.005,2.005,0,1,1,0,4.011" transform="translate(-242.068 1499)" fill="#406834"/>
    <path id="Trazado_508658" data-name="Trazado 508658" d="M634.074,98.353a2.007,2.007,0,0,1-2.006-2.006V92.336a2.006,2.006,0,0,1,4.012,0v4.011a2.007,2.007,0,0,1-2.006,2.006" transform="translate(-242.068 1531.187)" fill="#621d2f"/>
    <path id="Trazado_508659" data-name="Trazado 508659" d="M857.189,213.374H651.979a19.912,19.912,0,0,1-19.911-19.911V90.857h4.011V193.463a15.9,15.9,0,0,0,15.9,15.9h205.21a15.9,15.9,0,0,0,15.9-15.9V88.851h31.953v4.012H877.1v100.6a19.912,19.912,0,0,1-19.911,19.911" transform="translate(-242.068 1530.66)" fill="#406834"/>
    <path id="Trazado_508660" data-name="Trazado 508660" d="M831.172,102.957l17.316-10-17.316-10Z" transform="translate(-171.123 1528.56)" fill="#406834"/>
    <path id="Trazado_508661" data-name="Trazado 508661" d="M1056.879,219.532H865.422a6.592,6.592,0,0,1-6.592-6.592V21.483a6.592,6.592,0,0,1,6.592-6.592h191.457a6.592,6.592,0,0,1,6.592,6.592V212.94a6.592,6.592,0,0,1-6.592,6.592" transform="translate(-161.268 1504.306)" fill="#335329"/>
    <path id="Trazado_508662" data-name="Trazado 508662" d="M1055,222.065H868.358a11.018,11.018,0,0,1-11.007-11.005V24.417a11.018,11.018,0,0,1,11.007-11.005H1055A11.018,11.018,0,0,1,1066,24.417V211.06A11.018,11.018,0,0,1,1055,222.065M868.358,17.423a7,7,0,0,0-6.995,6.995V211.06a7,7,0,0,0,6.995,6.995H1055a7,7,0,0,0,6.995-6.995V24.417A7,7,0,0,0,1055,17.423Z" transform="translate(-161.795 1503.779)" fill="#fff"/>
    <path id="Trazado_508663" data-name="Trazado 508663" d="M1023.648,92.438a2.007,2.007,0,0,1-2.006-2.006V86.421a2.006,2.006,0,1,1,4.012,0v4.011a2.007,2.007,0,0,1-2.006,2.006" transform="translate(-103.254 1529.079)" fill="#82273f"/>
    <path id="Trazado_508664" data-name="Trazado 508664" d="M1066.188,209.709h-7.978a2.005,2.005,0,0,1,0-4.011h7.978a2.005,2.005,0,0,1,0,4.011m-23.932,0h-7.978a2.005,2.005,0,0,1,0-4.011h7.978a2.005,2.005,0,0,1,0,4.011m-23.932,0h-7.978a2.005,2.005,0,1,1,0-4.011h7.978a2.005,2.005,0,0,1,0,4.011m-23.932,0h-7.978a2.005,2.005,0,0,1,0-4.011h7.978a2.005,2.005,0,0,1,0,4.011m-23.932,0h-7.978a2.005,2.005,0,1,1,0-4.011h7.978a2.005,2.005,0,0,1,0,4.011m-23.932,0h-7.978a2.005,2.005,0,1,1,0-4.011h7.978a2.005,2.005,0,1,1,0,4.011m-23.932,0h-7.978a2.005,2.005,0,1,1,0-4.011h7.978a2.005,2.005,0,1,1,0,4.011m-23.932,0h-7.978a2.005,2.005,0,1,1,0-4.011h7.978a2.005,2.005,0,1,1,0,4.011m-23.932,0h-7.978a2.005,2.005,0,1,1,0-4.011h7.978a2.005,2.005,0,1,1,0,4.011m-22.805-4.549a2,2,0,0,1-1.335-.51q-.419-.374-.818-.773a19.8,19.8,0,0,1-4.292-6.388,2.006,2.006,0,0,1,3.7-1.549,15.816,15.816,0,0,0,3.427,5.1c.212.212.429.418.651.616a2.005,2.005,0,0,1-1.335,3.5m229.084-.019a2.006,2.006,0,0,1-1.34-3.5q.328-.293.639-.6a15.836,15.836,0,0,0,3.434-5.121,2.005,2.005,0,0,1,3.7,1.543,19.828,19.828,0,0,1-4.3,6.417q-.391.389-.795.753a2,2,0,0,1-1.337.511M845.946,182.95a2.007,2.007,0,0,1-2.006-2.006v-7.977a2.005,2.005,0,1,1,4.01,0v7.977a2.005,2.005,0,0,1-2,2.006m241.021-.027a2.006,2.006,0,0,1-2.006-2.006v-7.979a2.006,2.006,0,0,1,4.012,0v7.979a2.007,2.007,0,0,1-2.006,2.006M845.946,159.018a2.005,2.005,0,0,1-2.006-2v-7.979a2.005,2.005,0,1,1,4.01,0v7.979a2,2,0,0,1-2,2m241.021-.028a2.007,2.007,0,0,1-2.006-2.006v-7.977a2.006,2.006,0,1,1,4.012,0v7.977a2.007,2.007,0,0,1-2.006,2.006m-241.021-23.9a2.007,2.007,0,0,1-2.006-2.006V125.1a2.005,2.005,0,0,1,4.01,0v7.978a2.005,2.005,0,0,1-2,2.006m241.021-.027a2.007,2.007,0,0,1-2.006-2.006v-7.979a2.006,2.006,0,1,1,4.012,0v7.979a2.007,2.007,0,0,1-2.006,2.006M845.946,111.153a2.005,2.005,0,0,1-2.006-2v-7.979a2.005,2.005,0,1,1,4.01,0v7.979a2,2,0,0,1-2,2m241.021-.028a2.007,2.007,0,0,1-2.006-2.006v-7.977a2.006,2.006,0,1,1,4.012,0v7.977a2.007,2.007,0,0,1-2.006,2.006" transform="translate(-166.573 1534.324)" fill="#335329"/>
    <path id="Trazado_508665" data-name="Trazado 508665" d="M845.946,92.438a2.007,2.007,0,0,1-2.006-2.006V86.421a2.005,2.005,0,1,1,4.01,0v4.011a2.006,2.006,0,0,1-2,2.006" transform="translate(-166.573 1529.079)" fill="#82273f"/>
    <path id="Trazado_508666" data-name="Trazado 508666" d="M1116.915,124.523h-31.954V19.912a15.9,15.9,0,0,0-15.9-15.9H863.851a15.9,15.9,0,0,0-15.9,15.9v102.6h-4.01V19.912A19.915,19.915,0,0,1,863.851,0h205.21a19.915,19.915,0,0,1,19.911,19.912v100.6h27.943Z" transform="translate(-166.573 1499)" fill="#335329"/>
    <path id="Trazado_508667" data-name="Trazado 508667" d="M1043.044,102.957l17.316-10-17.316-10Z" transform="translate(-95.628 1528.56)" fill="#335329"/>
    <path id="Trazado_681398" data-name="Trazado 681398" d="M14.455,13.141V17H11.713V5.625h4.539a5.287,5.287,0,0,1,2.309.48,3.621,3.621,0,0,1,1.555,1.367,3.734,3.734,0,0,1,.551,2.012,3.291,3.291,0,0,1-1.191,2.66,4.943,4.943,0,0,1-3.27,1Zm0-2.117h1.8a1.7,1.7,0,0,0,1.215-.4A1.48,1.48,0,0,0,17.884,9.5a1.83,1.83,0,0,0-.43-1.273,1.522,1.522,0,0,0-1.172-.484H14.455Zm12.664-.094-.867-.062a1.558,1.558,0,0,0-1.594.781V17H22.025V8.547h2.469l.086,1.086a2.039,2.039,0,0,1,1.852-1.242,2.567,2.567,0,0,1,.734.094Zm.336,1.766a4.989,4.989,0,0,1,.492-2.254,3.52,3.52,0,0,1,1.414-1.52,4.259,4.259,0,0,1,2.164-.531,3.887,3.887,0,0,1,2.992,1.176,4.512,4.512,0,0,1,1.094,3.2v.094A4.378,4.378,0,0,1,34.513,16a3.9,3.9,0,0,1-2.973,1.16,3.942,3.942,0,0,1-2.9-1.082,4.232,4.232,0,0,1-1.18-2.934Zm2.633.164a3.145,3.145,0,0,0,.367,1.719,1.223,1.223,0,0,0,1.086.547q1.406,0,1.438-2.164V12.7q0-2.273-1.453-2.273-1.32,0-1.43,1.961ZM37.353,17V10.375H36.127V8.547h1.227V7.875A2.921,2.921,0,0,1,38.2,5.633a3.364,3.364,0,0,1,2.391-.8A5.235,5.235,0,0,1,41.83,5l.008,1.938a2.4,2.4,0,0,0-.648-.07q-1.2,0-1.2,1.031v.648h1.648v1.828H39.994V17Zm10.25-.914a2.714,2.714,0,0,1-2.258,1.07,2.662,2.662,0,0,1-2.105-.809,3.4,3.4,0,0,1-.715-2.324V8.547h2.633v5.492a.946.946,0,0,0,1.055,1.086,1.376,1.376,0,0,0,1.289-.648V8.547H50.15V17H47.681Zm6.406-7.539.086.992a2.867,2.867,0,0,1,2.414-1.148,2.412,2.412,0,0,1,1.973.789,3.757,3.757,0,0,1,.676,2.375V17H56.517V11.664a1.426,1.426,0,0,0-.258-.941,1.193,1.193,0,0,0-.937-.3,1.256,1.256,0,0,0-1.148.609V17H51.541V8.547Zm6.273,4.164a5.164,5.164,0,0,1,.867-3.164,2.854,2.854,0,0,1,2.422-1.156,2.428,2.428,0,0,1,1.906.891V5h2.641V17H65.752l-.133-.906a2.493,2.493,0,0,1-2.062,1.063A2.849,2.849,0,0,1,61.166,16,5.327,5.327,0,0,1,60.283,12.711Zm2.633.164q0,2.25,1.313,2.25a1.3,1.3,0,0,0,1.25-.734V11.172a1.261,1.261,0,0,0-1.234-.75q-1.219,0-1.32,1.969ZM72.392,17H69.752V8.547h2.641ZM69.6,6.367A1.175,1.175,0,0,1,70,5.445a1.727,1.727,0,0,1,2.109,0,1.175,1.175,0,0,1,.406.922,1.175,1.175,0,0,1-.406.922,1.727,1.727,0,0,1-2.109,0A1.175,1.175,0,0,1,69.6,6.367Zm4.086,6.344a5.164,5.164,0,0,1,.867-3.164A2.854,2.854,0,0,1,76.97,8.391a2.428,2.428,0,0,1,1.906.891V5h2.641V17H79.15l-.133-.906a2.493,2.493,0,0,1-2.062,1.063A2.849,2.849,0,0,1,74.564,16,5.327,5.327,0,0,1,73.681,12.711Zm2.633.164q0,2.25,1.313,2.25a1.3,1.3,0,0,0,1.25-.734V11.172a1.261,1.261,0,0,0-1.234-.75q-1.219,0-1.32,1.969ZM87.775,17a2.973,2.973,0,0,1-.25-.758,2.448,2.448,0,0,1-2.031.914,3,3,0,0,1-2.031-.723,2.3,2.3,0,0,1-.836-1.816,2.364,2.364,0,0,1,1.016-2.078,5.174,5.174,0,0,1,2.953-.7h.813v-.448q0-1.17-1.008-1.17a.824.824,0,0,0-.937.926H82.83a2.36,2.36,0,0,1,1.043-1.99,4.383,4.383,0,0,1,2.66-.765,3.843,3.843,0,0,1,2.555.789,2.743,2.743,0,0,1,.961,2.164v3.742a3.832,3.832,0,0,0,.359,1.781V17Zm-1.648-1.719a1.469,1.469,0,0,0,.816-.211,1.322,1.322,0,0,0,.465-.477V13.242h-.766q-1.375,0-1.375,1.234a.754.754,0,0,0,.242.582A.876.876,0,0,0,86.127,15.281Zm5.047-2.57a5.164,5.164,0,0,1,.867-3.164,2.854,2.854,0,0,1,2.422-1.156,2.428,2.428,0,0,1,1.906.891V5h2.641V17H96.642l-.133-.906a2.493,2.493,0,0,1-2.062,1.063A2.849,2.849,0,0,1,92.056,16,5.327,5.327,0,0,1,91.173,12.711Zm2.633.164q0,2.25,1.313,2.25a1.3,1.3,0,0,0,1.25-.734V11.172a1.261,1.261,0,0,0-1.234-.75q-1.219,0-1.32,1.969Z" transform="translate(456.368 1668.564)" fill="#fff"/>
    <path id="Trazado_681400" data-name="Trazado 681400" d="M16.817,14.891h4.773V17H14.075V5.625h2.742Zm9.9,2.266A4.345,4.345,0,0,1,23.567,16a4.006,4.006,0,0,1-1.2-3.02v-.219a5.191,5.191,0,0,1,.48-2.289,3.516,3.516,0,0,1,1.4-1.535,4.233,4.233,0,0,1,2.188-.543A3.659,3.659,0,0,1,29.247,9.5a4.344,4.344,0,0,1,1.031,3.082V13.6H25.044a1.9,1.9,0,0,0,.617,1.117,1.836,1.836,0,0,0,1.234.406,2.366,2.366,0,0,0,1.953-.875l1.2,1.422a3.363,3.363,0,0,1-1.395,1.082A4.713,4.713,0,0,1,26.716,17.156Zm-.3-6.734q-1.156,0-1.375,1.531H27.7v-.2a1.3,1.3,0,0,0-.32-.98A1.275,1.275,0,0,0,26.419,10.422Zm8.492,4.7a1.171,1.171,0,0,0,.859-.3,1.1,1.1,0,0,0,.3-.84h2.469a2.922,2.922,0,0,1-1,2.281,3.705,3.705,0,0,1-2.566.891A3.751,3.751,0,0,1,32.067,16,4.556,4.556,0,0,1,31,12.8v-.109a5.149,5.149,0,0,1,.473-2.262,3.441,3.441,0,0,1,1.363-1.508,4.065,4.065,0,0,1,2.109-.527,3.658,3.658,0,0,1,2.617.914,3.242,3.242,0,0,1,.969,2.477H36.067a1.445,1.445,0,0,0-.32-1.008,1.106,1.106,0,0,0-.859-.352q-1.023,0-1.2,1.3a9.206,9.206,0,0,0-.055,1.141,3.616,3.616,0,0,0,.3,1.766A1.055,1.055,0,0,0,34.911,15.125Zm7.8-8.68v2.1h1.391v1.828H42.716v3.867a.987.987,0,0,0,.172.664.922.922,0,0,0,.68.188,3.862,3.862,0,0,0,.656-.047V16.93a4.859,4.859,0,0,1-1.484.227,2.758,2.758,0,0,1-2.008-.641,2.626,2.626,0,0,1-.648-1.945v-4.2H39V8.547h1.078v-2.1Zm7.461,9.641a2.714,2.714,0,0,1-2.258,1.07,2.662,2.662,0,0,1-2.105-.809,3.4,3.4,0,0,1-.715-2.324V8.547h2.633v5.492a.946.946,0,0,0,1.055,1.086,1.376,1.376,0,0,0,1.289-.648V8.547h2.648V17H50.255Zm9.1-5.156-.867-.062a1.558,1.558,0,0,0-1.594.781V17H54.184V8.547h2.469l.086,1.086a2.039,2.039,0,0,1,1.852-1.242,2.567,2.567,0,0,1,.734.094ZM64.755,17a2.973,2.973,0,0,1-.25-.758,2.448,2.448,0,0,1-2.031.914,3,3,0,0,1-2.031-.723,2.3,2.3,0,0,1-.836-1.816,2.364,2.364,0,0,1,1.016-2.078,5.174,5.174,0,0,1,2.953-.7h.813v-.448q0-1.17-1.008-1.17a.824.824,0,0,0-.937.926H59.809a2.36,2.36,0,0,1,1.043-1.99,4.383,4.383,0,0,1,2.66-.765,3.843,3.843,0,0,1,2.555.789,2.743,2.743,0,0,1,.961,2.164v3.742a3.832,3.832,0,0,0,.359,1.781V17Zm-1.648-1.719a1.469,1.469,0,0,0,.816-.211,1.322,1.322,0,0,0,.465-.477V13.242h-.766q-1.375,0-1.375,1.234a.754.754,0,0,0,.242.582A.876.876,0,0,0,63.106,15.281Zm12.938-.156a1.171,1.171,0,0,0,.859-.3,1.1,1.1,0,0,0,.3-.84h2.469a2.922,2.922,0,0,1-1,2.281,3.705,3.705,0,0,1-2.566.891A3.751,3.751,0,0,1,73.2,16a4.556,4.556,0,0,1-1.062-3.2v-.109a5.149,5.149,0,0,1,.473-2.262,3.441,3.441,0,0,1,1.363-1.508,4.065,4.065,0,0,1,2.109-.527A3.658,3.658,0,0,1,78.7,9.3a3.242,3.242,0,0,1,.969,2.477H77.2a1.445,1.445,0,0,0-.32-1.008,1.106,1.106,0,0,0-.859-.352q-1.023,0-1.2,1.3a9.206,9.206,0,0,0-.055,1.141,3.616,3.616,0,0,0,.3,1.766A1.055,1.055,0,0,0,76.044,15.125Zm9.852-4.2-.867-.062a1.558,1.558,0,0,0-1.594.781V17H80.8V8.547H83.27l.086,1.086a2.039,2.039,0,0,1,1.852-1.242,2.567,2.567,0,0,1,.734.094Zm5.039,6.227A4.345,4.345,0,0,1,87.786,16a4.006,4.006,0,0,1-1.2-3.02v-.219a5.191,5.191,0,0,1,.48-2.289,3.516,3.516,0,0,1,1.4-1.535,4.233,4.233,0,0,1,2.188-.543A3.659,3.659,0,0,1,93.466,9.5,4.344,4.344,0,0,1,94.5,12.578V13.6H89.263a1.9,1.9,0,0,0,.617,1.117,1.836,1.836,0,0,0,1.234.406,2.366,2.366,0,0,0,1.953-.875l1.2,1.422a3.363,3.363,0,0,1-1.395,1.082A4.713,4.713,0,0,1,90.934,17.156Zm-.3-6.734q-1.156,0-1.375,1.531h2.656v-.2a1.3,1.3,0,0,0-.32-.98A1.275,1.275,0,0,0,90.638,10.422ZM100.317,17a2.973,2.973,0,0,1-.25-.758,2.448,2.448,0,0,1-2.031.914A3,3,0,0,1,96,16.434a2.3,2.3,0,0,1-.836-1.816,2.364,2.364,0,0,1,1.016-2.078,5.174,5.174,0,0,1,2.953-.7h.813v-.448q0-1.17-1.008-1.17a.824.824,0,0,0-.937.926H95.372a2.36,2.36,0,0,1,1.043-1.99,4.383,4.383,0,0,1,2.66-.765,3.843,3.843,0,0,1,2.555.789,2.743,2.743,0,0,1,.961,2.164v3.742a3.832,3.832,0,0,0,.359,1.781V17Zm-1.648-1.719a1.469,1.469,0,0,0,.816-.211,1.322,1.322,0,0,0,.465-.477V13.242h-.766q-1.375,0-1.375,1.234a.754.754,0,0,0,.242.582A.876.876,0,0,0,98.669,15.281Zm8.445-8.836v2.1H108.5v1.828h-1.391v3.867a.987.987,0,0,0,.172.664.922.922,0,0,0,.68.188,3.862,3.862,0,0,0,.656-.047V16.93a4.859,4.859,0,0,1-1.484.227,2.758,2.758,0,0,1-2.008-.641,2.626,2.626,0,0,1-.648-1.945v-4.2H103.4V8.547h1.078v-2.1ZM112.317,17h-2.641V8.547h2.641Zm-2.8-10.633a1.175,1.175,0,0,1,.406-.922,1.727,1.727,0,0,1,2.109,0,1.175,1.175,0,0,1,.406.922,1.175,1.175,0,0,1-.406.922,1.727,1.727,0,0,1-2.109,0A1.175,1.175,0,0,1,109.52,6.367Zm7.789,7.5,1.336-5.32h2.773L118.661,17h-2.687l-2.758-8.453H116ZM126.849,17a2.973,2.973,0,0,1-.25-.758,2.448,2.448,0,0,1-2.031.914,3,3,0,0,1-2.031-.723,2.3,2.3,0,0,1-.836-1.816,2.364,2.364,0,0,1,1.016-2.078,5.174,5.174,0,0,1,2.953-.7h.813v-.448q0-1.17-1.008-1.17a.824.824,0,0,0-.937.926H121.9a2.36,2.36,0,0,1,1.043-1.99,4.383,4.383,0,0,1,2.66-.765,3.843,3.843,0,0,1,2.555.789,2.743,2.743,0,0,1,.961,2.164v3.742a3.832,3.832,0,0,0,.359,1.781V17ZM125.2,15.281a1.469,1.469,0,0,0,.816-.211,1.322,1.322,0,0,0,.465-.477V13.242h-.766q-1.375,0-1.375,1.234a.754.754,0,0,0,.242.582A.876.876,0,0,0,125.2,15.281Z" transform="translate(1012.518 1665.555)" fill="#fff"/>
    <path id="Trazado_681399" data-name="Trazado 681399" d="M10.148,14.891h4.773V17H7.406V5.625h2.742Zm9.9,2.266A4.345,4.345,0,0,1,16.9,16a4.006,4.006,0,0,1-1.2-3.02v-.219a5.191,5.191,0,0,1,.48-2.289,3.516,3.516,0,0,1,1.4-1.535,4.233,4.233,0,0,1,2.188-.543A3.659,3.659,0,0,1,22.578,9.5a4.344,4.344,0,0,1,1.031,3.082V13.6H18.375a1.9,1.9,0,0,0,.617,1.117,1.836,1.836,0,0,0,1.234.406,2.366,2.366,0,0,0,1.953-.875l1.2,1.422a3.363,3.363,0,0,1-1.395,1.082A4.713,4.713,0,0,1,20.047,17.156Zm-.3-6.734q-1.156,0-1.375,1.531h2.656v-.2a1.3,1.3,0,0,0-.32-.98A1.275,1.275,0,0,0,19.75,10.422Zm8.492,4.7a1.171,1.171,0,0,0,.859-.3,1.1,1.1,0,0,0,.3-.84h2.469a2.922,2.922,0,0,1-1,2.281,3.705,3.705,0,0,1-2.566.891A3.751,3.751,0,0,1,25.4,16a4.556,4.556,0,0,1-1.062-3.2v-.109a5.149,5.149,0,0,1,.473-2.262,3.441,3.441,0,0,1,1.363-1.508,4.065,4.065,0,0,1,2.109-.527A3.658,3.658,0,0,1,30.9,9.3a3.242,3.242,0,0,1,.969,2.477H29.4a1.445,1.445,0,0,0-.32-1.008,1.106,1.106,0,0,0-.859-.352q-1.023,0-1.2,1.3a9.206,9.206,0,0,0-.055,1.141,3.616,3.616,0,0,0,.3,1.766A1.055,1.055,0,0,0,28.242,15.125Zm7.8-8.68v2.1h1.391v1.828H36.047v3.867a.987.987,0,0,0,.172.664.922.922,0,0,0,.68.188,3.862,3.862,0,0,0,.656-.047V16.93a4.859,4.859,0,0,1-1.484.227,2.758,2.758,0,0,1-2.008-.641,2.626,2.626,0,0,1-.648-1.945v-4.2H32.336V8.547h1.078v-2.1Zm7.461,9.641a2.714,2.714,0,0,1-2.258,1.07,2.662,2.662,0,0,1-2.105-.809,3.4,3.4,0,0,1-.715-2.324V8.547h2.633v5.492a.946.946,0,0,0,1.055,1.086,1.376,1.376,0,0,0,1.289-.648V8.547h2.648V17H43.586Zm9.1-5.156-.867-.062a1.558,1.558,0,0,0-1.594.781V17H47.516V8.547h2.469l.086,1.086a2.039,2.039,0,0,1,1.852-1.242,2.567,2.567,0,0,1,.734.094ZM58.086,17a2.973,2.973,0,0,1-.25-.758,2.448,2.448,0,0,1-2.031.914,3,3,0,0,1-2.031-.723,2.3,2.3,0,0,1-.836-1.816,2.364,2.364,0,0,1,1.016-2.078,5.174,5.174,0,0,1,2.953-.7h.813v-.448q0-1.17-1.008-1.17a.824.824,0,0,0-.937.926H53.141a2.36,2.36,0,0,1,1.043-1.99,4.383,4.383,0,0,1,2.66-.765A3.843,3.843,0,0,1,59.4,9.18a2.743,2.743,0,0,1,.961,2.164v3.742a3.832,3.832,0,0,0,.359,1.781V17Zm-1.648-1.719a1.469,1.469,0,0,0,.816-.211,1.322,1.322,0,0,0,.465-.477V13.242h-.766q-1.375,0-1.375,1.234a.754.754,0,0,0,.242.582A.876.876,0,0,0,56.437,15.281Zm12.938-.156a1.171,1.171,0,0,0,.859-.3,1.1,1.1,0,0,0,.3-.84H73a2.922,2.922,0,0,1-1,2.281,3.705,3.705,0,0,1-2.566.891A3.751,3.751,0,0,1,66.531,16a4.556,4.556,0,0,1-1.062-3.2v-.109a5.149,5.149,0,0,1,.473-2.262A3.441,3.441,0,0,1,67.3,8.918a4.065,4.065,0,0,1,2.109-.527,3.658,3.658,0,0,1,2.617.914A3.242,3.242,0,0,1,73,11.781H70.531a1.445,1.445,0,0,0-.32-1.008,1.106,1.106,0,0,0-.859-.352q-1.023,0-1.2,1.3a9.206,9.206,0,0,0-.055,1.141,3.616,3.616,0,0,0,.3,1.766A1.055,1.055,0,0,0,69.375,15.125Zm9.852-4.2-.867-.062a1.558,1.558,0,0,0-1.594.781V17H74.133V8.547H76.6l.086,1.086a2.039,2.039,0,0,1,1.852-1.242,2.567,2.567,0,0,1,.734.094ZM83.047,17H80.4V8.547h2.648ZM82.062,5.156h2.781L82.672,7.609l-2.148,0ZM87.8,6.445v2.1H89.2v1.828H87.8v3.867a.987.987,0,0,0,.172.664.922.922,0,0,0,.68.188,3.862,3.862,0,0,0,.656-.047V16.93a4.859,4.859,0,0,1-1.484.227,2.758,2.758,0,0,1-2.008-.641,2.626,2.626,0,0,1-.648-1.945v-4.2H84.094V8.547h1.078v-2.1ZM93.008,17H90.367V8.547h2.641Zm-2.8-10.633a1.175,1.175,0,0,1,.406-.922,1.727,1.727,0,0,1,2.109,0,1.175,1.175,0,0,1,.406.922,1.175,1.175,0,0,1-.406.922,1.727,1.727,0,0,1-2.109,0A1.175,1.175,0,0,1,90.211,6.367ZM98.2,15.125a1.171,1.171,0,0,0,.859-.3,1.1,1.1,0,0,0,.3-.84h2.469a2.922,2.922,0,0,1-1,2.281,3.705,3.705,0,0,1-2.566.891A3.751,3.751,0,0,1,95.359,16,4.556,4.556,0,0,1,94.3,12.8v-.109a5.149,5.149,0,0,1,.473-2.262,3.441,3.441,0,0,1,1.363-1.508,4.065,4.065,0,0,1,2.109-.527,3.658,3.658,0,0,1,2.617.914,3.242,3.242,0,0,1,.969,2.477H99.359a1.445,1.445,0,0,0-.32-1.008,1.106,1.106,0,0,0-.859-.352q-1.023,0-1.2,1.3a9.206,9.206,0,0,0-.055,1.141,3.616,3.616,0,0,0,.3,1.766A1.055,1.055,0,0,0,98.2,15.125ZM107.7,17a2.973,2.973,0,0,1-.25-.758,2.448,2.448,0,0,1-2.031.914,3,3,0,0,1-2.031-.723,2.3,2.3,0,0,1-.836-1.816,2.364,2.364,0,0,1,1.016-2.078,5.174,5.174,0,0,1,2.953-.7h.813v-.448q0-1.17-1.008-1.17a.824.824,0,0,0-.937.926h-2.633a2.36,2.36,0,0,1,1.043-1.99,4.383,4.383,0,0,1,2.66-.765,3.843,3.843,0,0,1,2.555.789,2.743,2.743,0,0,1,.961,2.164v3.742a3.832,3.832,0,0,0,.359,1.781V17Zm-1.648-1.719a1.469,1.469,0,0,0,.816-.211,1.322,1.322,0,0,0,.465-.477V13.242h-.766q-1.375,0-1.375,1.234a.754.754,0,0,0,.242.582A.876.876,0,0,0,106.055,15.281Z" transform="translate(739.241 1665.555)" fill="#fff"/>
    <g id="Grupo_735221" data-name="Grupo 735221" transform="translate(456.368 1542.406)">
      <rect id="Rectángulo_326900" data-name="Rectángulo 326900" width="115.287" height="103.081" transform="translate(0 -0.001)" fill="none"/>
      <g id="libro-de-lectura" transform="translate(18.632 20.601)">
        <path id="Trazado_618402" data-name="Trazado 618402" d="M111.9,141.508H99.051a1.152,1.152,0,1,0,0,2.3H111.9a1.152,1.152,0,1,0,0-2.3Zm0,0" transform="translate(-82.98 -119.941)" fill="#fff"/>
        <path id="Trazado_618403" data-name="Trazado 618403" d="M111.9,174.414H99.051a1.152,1.152,0,1,0,0,2.3H111.9a1.152,1.152,0,1,0,0-2.3Zm0,0" transform="translate(-82.98 -147.832)" fill="#fff"/>
        <path id="Trazado_618404" data-name="Trazado 618404" d="M137.054,207.344h-8.321a1.152,1.152,0,0,0,0,2.3h8.321a1.152,1.152,0,1,0,0-2.3Zm0,0" transform="translate(-108.14 -175.744)" fill="#fff"/>
        <path id="Trazado_618405" data-name="Trazado 618405" d="M331.218,175.566a1.151,1.151,0,0,0-1.152-1.151H317.218a1.152,1.152,0,1,0,0,2.3h12.848A1.152,1.152,0,0,0,331.218,175.566Zm0,0" transform="translate(-267.901 -147.833)" fill="#fff"/>
        <path id="Trazado_618406" data-name="Trazado 618406" d="M317.218,207.344a1.152,1.152,0,1,0,0,2.3h8.325a1.152,1.152,0,0,0,0-2.3Zm0,0" transform="translate(-267.901 -175.744)" fill="#fff"/>
        <path id="Trazado_618407" data-name="Trazado 618407" d="M75.6,52.56c3.008-8.363,3.212-15.031.624-20.35-2.764-5.69-5-7.216-6.364-7.521V4.653a2.954,2.954,0,0,0-2.895-2.816A51.812,51.812,0,0,0,57.609.172a1.152,1.152,0,1,0-.185,2.3,49.554,49.554,0,0,1,9.055,1.623,1.134,1.134,0,0,0,.271.04c.476.014.807.286.807.521,0,0,0,31.27,0,31.5l-2.119-1.4a3.483,3.483,0,0,0-3.357-.458,3.957,3.957,0,0,0-2.167,3.058,6.064,6.064,0,0,0,1.879,5.392l.006.007a33.9,33.9,0,0,0-18.621,1.01V3.841A39.435,39.435,0,0,1,52,2.384a1.151,1.151,0,1,0-.115-2.3A41.673,41.673,0,0,0,41.851,1.828H36.18C28.507-.608,20.288-.6,11.062,1.836a2.955,2.955,0,0,0-2.9,2.817v20.03c-1.354.305-3.591,1.836-6.364,7.543-2.592,5.32-2.386,11.993.63,20.367a1.9,1.9,0,0,0-.763,1.523v5.849a1.911,1.911,0,0,0,1.908,1.908H17.1a1.911,1.911,0,0,0,1.908-1.908V54.142a1.939,1.939,0,0,0-1.938-1.935h-.581c-.033-.467-.08-.938-.141-1.408H61.671c-.06.464-.105.929-.138,1.391h-.611A1.911,1.911,0,0,0,59.014,54.1v5.891a1.87,1.87,0,0,0,1.87,1.866h13.6a1.87,1.87,0,0,0,1.87-1.866V54.056a1.861,1.861,0,0,0-.757-1.5ZM3.871,33.233c1.9-3.9,3.456-5.521,4.292-6.072v8.3c0,1.466,0,2.623.975,3.151,1,.536,2.127-.213,2.67-.571l2.051-1.355a1.323,1.323,0,0,1,1.17-.266,1.76,1.76,0,0,1,.813,1.339c.324,1.863-.9,3.164-2.264,4.294-1.174.969-1.577,1.577-1.216,2.855a1.044,1.044,0,0,0,.027.125,1.152,1.152,0,0,0,.07.182c.068.2.151.411.251.643a20.819,20.819,0,0,1,1.472,6.347H4.739c-2.931-7.947-3.213-14.159-.868-18.974ZM16.707,54.511V59.57H3.97V54.541a1.179,1.179,0,0,0,.235-.028.407.407,0,0,1,.045,0ZM34.849,48.5h-18.9a21.429,21.429,0,0,0-.894-2.991,34.719,34.719,0,0,1,19.8.688Zm6.024,0h-3.72v-1.9l3.72-.017Zm0-4.222-3.72.016V26.843a1.152,1.152,0,0,0-2.3,0V43.77a36.748,36.748,0,0,0-18.762-.862,6.141,6.141,0,0,0,2.026-5.54,3.956,3.956,0,0,0-2.17-3.06,3.476,3.476,0,0,0-3.354.459l-2.052,1.355-.067.043c0-.226,0-.473,0-.7V26.245c0-.031,0-.061,0-.091s0-.051,0-.077V4.653c0-.236.332-.508.807-.521a1.156,1.156,0,0,0,.264-.038c8.58-2.287,16.215-2.375,23.31-.263V21.592a1.152,1.152,0,1,0,2.3,0V4.132h3.72V44.274Zm2.3,4.222V46.208A31.453,31.453,0,0,1,63,45.408a21.136,21.136,0,0,0-.929,3.088ZM74.054,59.553H61.317V54.494h12.5a1.121,1.121,0,0,0,.238.028Zm-.769-7.362H63.843a20.755,20.755,0,0,1,1.471-6.341c.111-.258.2-.492.273-.708a1.088,1.088,0,0,0,.059-.146,2.808,2.808,0,0,0,.145-.91v0q0-.088-.011-.171c0-.036-.008-.073-.014-.108s-.01-.052-.015-.077c-.009-.045-.02-.09-.033-.135-.008-.027-.017-.052-.026-.079s-.023-.066-.036-.1a3.76,3.76,0,0,0-1.207-1.372l0,0c-1.369-1.13-2.589-2.432-2.265-4.3a1.763,1.763,0,0,1,.811-1.338.749.749,0,0,1,.3-.058,1.713,1.713,0,0,1,.873.325l1.4.927.644.426c.541.359,1.667,1.106,2.663.577.967-.514.976-1.7.983-2.66v-.475c0-.007,0-.014,0-.021V27.165c.839.546,2.4,2.155,4.293,6.052,2.344,4.818,2.061,11.03-.867,18.974Zm0,0" transform="translate(0 0)" fill="#fff"/>
        <path id="Trazado_618408" data-name="Trazado 618408" d="M106.112,56.059H95.285A2.948,2.948,0,0,0,92.34,59v3.148A2.948,2.948,0,0,0,95.285,65.1h10.827a2.95,2.95,0,0,0,2.949-2.945V59A2.95,2.95,0,0,0,106.112,56.059Zm.645,6.093a.652.652,0,0,1-.645.642H95.285a.65.65,0,0,1-.641-.642V59a.65.65,0,0,1,.641-.642h10.827a.652.652,0,0,1,.645.642Zm0,0" transform="translate(-78.269 -47.513)" fill="#fff"/>
        <path id="Trazado_618409" data-name="Trazado 618409" d="M328.05,59a2.948,2.948,0,0,0-2.945-2.945H314.277A2.95,2.95,0,0,0,311.328,59v3.148a2.951,2.951,0,0,0,2.949,2.945H325.1a2.948,2.948,0,0,0,2.945-2.945Zm-2.3,3.148a.65.65,0,0,1-.641.642H314.277a.652.652,0,0,1-.645-.642V59a.652.652,0,0,1,.645-.642H325.1a.65.65,0,0,1,.641.642Zm0,0" transform="translate(-263.885 -47.513)" fill="#fff"/>
        <path id="Trazado_618410" data-name="Trazado 618410" d="M330.07,141.508H317.223a1.152,1.152,0,1,0,0,2.3H330.07a1.152,1.152,0,1,0,0-2.3Zm0,0" transform="translate(-267.905 -119.941)" fill="#fff"/>
      </g>
    </g>
    <g id="Grupo_735222" data-name="Grupo 735222" transform="translate(741.195 1542.406)">
      <rect id="Rectángulo_326900-2" data-name="Rectángulo 326900" width="115.287" height="103.081" transform="translate(0 -0.001)" fill="none"/>
      <g id="leyendo" transform="translate(14.986 -14.885)">
        <path id="Trazado_618411" data-name="Trazado 618411" d="M81.328,35.385H78.478V32.535A2.037,2.037,0,0,0,76.443,30.5H46.566a6.1,6.1,0,0,0-4.885,2.447A6.1,6.1,0,0,0,36.8,30.5H19.274a1.221,1.221,0,0,0,0,2.442H36.8a3.668,3.668,0,0,1,3.663,3.663v32.5a1.221,1.221,0,0,0,2.442,0v-32.5a3.668,3.668,0,0,1,3.663-3.663h29.47v37.84a4.834,4.834,0,0,0-3.395.552,4.7,4.7,0,0,0-7-2.232,4.7,4.7,0,0,0-6.41-2.306V60.7h8.232a1.221,1.221,0,0,0,0-2.442H59.236a5.537,5.537,0,0,0-.552-2.849H72.352a1.221,1.221,0,1,0,0-2.442H46.587a1.221,1.221,0,1,0,0,2.442H50.44a5.627,5.627,0,0,0-.552,2.849h-3.3a1.221,1.221,0,0,0,0,2.442h3.3v9.686a5.478,5.478,0,0,0-5.275,5.467v4.691a12.548,12.548,0,0,0,1.184,5.31H42.9V74.808a1.221,1.221,0,1,0-2.442,0v11.05H7.327V32.942h6.248a1.221,1.221,0,1,0,0-2.442H6.92a2.037,2.037,0,0,0-2.035,2.035v2.849H2.035A2.037,2.037,0,0,0,0,37.42V91.15a2.037,2.037,0,0,0,2.035,2.035H51.678a7.094,7.094,0,0,1,.164,1.006h-.5a3.5,3.5,0,0,0-3.5,3.5v2.738a3.5,3.5,0,0,0,3.5,3.5h25.2a3.5,3.5,0,0,0,3.5-3.5V97.692a3.5,3.5,0,0,0-3.5-3.5h-.522a8.276,8.276,0,0,1,.15-1.006h5.155a2.037,2.037,0,0,0,2.035-2.035V37.42A2.037,2.037,0,0,0,81.328,35.385ZM2.442,37.827H4.885V86.265A2.037,2.037,0,0,0,6.92,88.3H47.3a13.468,13.468,0,0,0,2.541,2.442H2.442ZM80.921,90.743h-3.8c.12-.205.248-.407.386-.6a10.817,10.817,0,0,0,2.026-6.221v-1.5a1.255,1.255,0,0,0-1.184-1.272A1.221,1.221,0,0,0,77.09,82.37v1.492a8.388,8.388,0,0,1-1.565,4.849,10.664,10.664,0,0,0-1.952,5.48H70.388a1.255,1.255,0,0,0-1.272,1.184,1.221,1.221,0,0,0,1.221,1.259h6.207A1.058,1.058,0,0,1,77.6,97.692v2.739a1.058,1.058,0,0,1-1.058,1.058h-25.2a1.058,1.058,0,0,1-1.058-1.058V97.692a1.058,1.058,0,0,1,1.058-1.058H64.567a1.255,1.255,0,0,0,1.272-1.184,1.221,1.221,0,0,0-1.221-1.259H54.3a6.485,6.485,0,0,0-2.414-4.98l-.677-.494a10.115,10.115,0,0,1-4.15-8.169V75.858a3.031,3.031,0,0,1,2.833-3.02V80.4a1.255,1.255,0,0,0,1.184,1.272A1.221,1.221,0,0,0,52.33,80.45V57.587a2.233,2.233,0,0,1,4.464,0v18.16a1.255,1.255,0,0,0,1.184,1.272A1.221,1.221,0,0,0,59.236,75.8V70.911a2.171,2.171,0,1,1,4.342.005c0,1.169.013,3.682.016,4.887a1.221,1.221,0,0,0,1.221,1.217h0A1.217,1.217,0,0,0,66.036,75.8l-.01-2.91a2.232,2.232,0,0,1,4.461.043v2.837a1.255,1.255,0,0,0,1.184,1.272,1.221,1.221,0,0,0,1.259-1.221v-.637a2.08,2.08,0,0,1,4.16,0v1.428a1.255,1.255,0,0,0,1.184,1.272,1.221,1.221,0,0,0,1.259-1.221V75.182a4.5,4.5,0,0,0-1.054-2.9V37.827h2.442Z" transform="translate(0 0)" fill="#fff"/>
        <path id="Trazado_618412" data-name="Trazado 618412" d="M101.624,73.453h12.65a1.221,1.221,0,1,0,0-2.442h-12.65a1.221,1.221,0,0,0,0,2.442Z" transform="translate(-84.056 -33.915)" fill="#fff"/>
        <path id="Trazado_618413" data-name="Trazado 618413" d="M103.73,103.511H81.221a1.221,1.221,0,0,0,0,2.442H103.73a1.221,1.221,0,0,0,0-2.442Z" transform="translate(-66.975 -61.123)" fill="#fff"/>
        <path id="Trazado_618414" data-name="Trazado 618414" d="M146.008,136.011H131.721a1.221,1.221,0,0,0,0,2.442h14.286a1.221,1.221,0,0,0,0-2.442Z" transform="translate(-109.252 -88.332)" fill="#fff"/>
        <path id="Trazado_618415" data-name="Trazado 618415" d="M61.221,138.453H67a1.221,1.221,0,1,0,0-2.442h-5.78a1.221,1.221,0,0,0,0,2.442Z" transform="translate(-50.231 -88.332)" fill="#fff"/>
        <path id="Trazado_618416" data-name="Trazado 618416" d="M86.986,168.511H61.221a1.221,1.221,0,0,0,0,2.442H86.986a1.221,1.221,0,0,0,0-2.442Z" transform="translate(-50.231 -115.54)" fill="#fff"/>
        <path id="Trazado_618417" data-name="Trazado 618417" d="M103.73,201.011H81.221a1.221,1.221,0,1,0,0,2.442H103.73a1.221,1.221,0,0,0,0-2.442Z" transform="translate(-66.975 -142.749)" fill="#fff"/>
        <path id="Trazado_618418" data-name="Trazado 618418" d="M86.986,233.511H61.221a1.221,1.221,0,0,0,0,2.442H86.986a1.221,1.221,0,1,0,0-2.442Z" transform="translate(-50.231 -169.957)" fill="#fff"/>
        <path id="Trazado_618419" data-name="Trazado 618419" d="M322.251,73.453a1.221,1.221,0,0,0,0-2.442h-22.53a1.221,1.221,0,0,0,0,2.442Z" transform="translate(-249.899 -33.915)" fill="#fff"/>
        <path id="Trazado_618420" data-name="Trazado 618420" d="M278.627,104.732a1.221,1.221,0,0,0,1.221,1.221h25.765a1.221,1.221,0,0,0,0-2.442H279.848A1.221,1.221,0,0,0,278.627,104.732Z" transform="translate(-233.261 -61.123)" fill="#fff"/>
        <path id="Trazado_618421" data-name="Trazado 618421" d="M279.848,138.453h25.765a1.221,1.221,0,0,0,0-2.442H279.848a1.221,1.221,0,0,0,0,2.442Z" transform="translate(-233.261 -88.332)" fill="#fff"/>
        <path id="Trazado_618422" data-name="Trazado 618422" d="M88.207,299.732a1.221,1.221,0,0,0-1.221-1.221H61.221a1.221,1.221,0,0,0,0,2.442H86.986A1.221,1.221,0,0,0,88.207,299.732Z" transform="translate(-50.231 -224.374)" fill="#fff"/>
        <path id="Trazado_618423" data-name="Trazado 618423" d="M61.221,331.011a1.221,1.221,0,0,0,0,2.442h7.314a1.221,1.221,0,1,0,0-2.442Z" transform="translate(-50.231 -251.582)" fill="#fff"/>
        <path id="Trazado_618424" data-name="Trazado 618424" d="M178.016,266.011h-8.061a1.221,1.221,0,0,0,0,2.442h8.061a1.221,1.221,0,0,0,0-2.442Z" transform="translate(-141.261 -197.165)" fill="#fff"/>
        <path id="Trazado_618425" data-name="Trazado 618425" d="M61.221,268.453H73.23a1.221,1.221,0,0,0,0-2.442H61.221a1.221,1.221,0,0,0,0,2.442Z" transform="translate(-50.231 -197.165)" fill="#fff"/>
      </g>
    </g>
    <g id="Grupo_735223" data-name="Grupo 735223" transform="translate(1026.023 1542.406)">
      <rect id="Rectángulo_326900-3" data-name="Rectángulo 326900" width="115.287" height="103.081" transform="translate(0 -0.001)" fill="none"/>
      <g id="libro-de-lectura_1_" data-name="libro-de-lectura(1)" transform="translate(22.764 14.771)">
        <path id="Trazado_618426" data-name="Trazado 618426" d="M14.735,20.123A4.74,4.74,0,0,0,10,24.858h2.367a2.367,2.367,0,0,1,4.735,0H19.47A4.74,4.74,0,0,0,14.735,20.123Z" transform="translate(1.837 3.697)" fill="#fff"/>
        <path id="Trazado_618427" data-name="Trazado 618427" d="M28.735,22.49A2.37,2.37,0,0,1,31.1,24.858H33.47a4.735,4.735,0,0,0-9.47,0h2.367A2.371,2.371,0,0,1,28.735,22.49Z" transform="translate(4.409 3.697)" fill="#fff"/>
        <path id="Trazado_618428" data-name="Trazado 618428" d="M20,26.123h2.367v7.1H20Z" transform="translate(3.674 4.799)" fill="#fff"/>
        <path id="Trazado_618429" data-name="Trazado 618429" d="M71.023,54.6H49.5a3.518,3.518,0,0,0-.705-1.184,3.5,3.5,0,0,0,0-4.735,3.536,3.536,0,0,0-2.628-5.919H44.981V35.271l-2.367.676V33.29H43.8a5.925,5.925,0,0,0,5.919-5.919,5.866,5.866,0,0,0-.943-3.181l.55-2.2A13.2,13.2,0,0,0,44.969,8.655l-3.93-3.274L39.08,9.3A19.218,19.218,0,0,0,27.55.191L26.881,0,24.858,2.023,22.835,0l-.67.191A19.229,19.229,0,0,0,10.634,9.3L8.677,5.382,4.747,8.656A13.189,13.189,0,0,0,.394,21.99l.55,2.2A5.86,5.86,0,0,0,0,27.371,5.925,5.925,0,0,0,5.919,33.29H7.1v2.657l-2.367-.676v7.488H3.551A3.536,3.536,0,0,0,.923,48.678a3.5,3.5,0,0,0,0,4.735,3.5,3.5,0,0,0,0,4.735,3.536,3.536,0,0,0,2.628,5.919H4.735V68.51l17.43,4.981,5.226.045,12.855-3.673v1.306a2.37,2.37,0,0,0,2.367,2.367H71.023a2.37,2.37,0,0,0,2.367-2.367v-7.1a2.341,2.341,0,0,0-.329-1.184A2.341,2.341,0,0,0,73.39,61.7V56.964A2.371,2.371,0,0,0,71.023,54.6Zm0,7.1H66.288V56.964h4.735Zm-11.837,9.47H56.818v-7.1h2.367ZM49.5,61.7a3.442,3.442,0,0,0-.705-3.551,3.538,3.538,0,0,0,.705-1.184h9.687V61.7ZM23.674,42.727l2.367.021v28.42H23.674Zm4.735-.3,14.2-4.014v4.567a3.518,3.518,0,0,0-1.444,5.7,3.5,3.5,0,0,0,0,4.735,3.5,3.5,0,0,0,0,4.735,3.518,3.518,0,0,0,1.444,5.7v2.876l-14.2,4.058Zm18.939,8.621a1.185,1.185,0,0,1-1.184,1.184H43.8a1.184,1.184,0,0,1,0-2.367h2.367A1.185,1.185,0,0,1,47.348,51.045Zm0,4.735a1.185,1.185,0,0,1-1.184,1.184H43.8a1.184,1.184,0,1,1,0-2.367h2.367A1.185,1.185,0,0,1,47.348,55.78ZM43.8,61.7a1.184,1.184,0,0,1,0-2.367h2.367a1.184,1.184,0,0,1,0,2.367Zm17.756-4.735H63.92V61.7H61.553ZM47.348,46.31a1.185,1.185,0,0,1-1.184,1.184H43.8a1.184,1.184,0,1,1,0-2.367h2.367A1.185,1.185,0,0,1,47.348,46.31ZM43.8,30.922H42.614V29.188l3.024-2.016L44.325,25.2l-1.712,1.141V23.82H43.8a3.551,3.551,0,0,1,0,7.1ZM6.262,10.476,7.9,9.115l2.84,5.681L11.9,12.085A16.866,16.866,0,0,1,22.157,2.672l2.7,2.7,2.7-2.7a16.865,16.865,0,0,1,10.259,9.414l1.162,2.71,2.84-5.681,1.634,1.361a10.824,10.824,0,0,1,3.571,10.94L46.8,22.3a5.852,5.852,0,0,0-3.007-.849H41.845l-2.831-2.266a11.27,11.27,0,0,0-12.08-1.28l-2.076,1.038-2.076-1.038A11.268,11.268,0,0,0,10.7,19.187L7.872,21.452H5.919a5.852,5.852,0,0,0-3.007.849l-.221-.885a10.824,10.824,0,0,1,3.571-10.94ZM5.919,30.922a3.551,3.551,0,0,1,0-7.1H7.1v2.524L5.392,25.2l-1.313,1.97L7.1,29.188v1.734ZM9.47,23.205l2.712-2.169a9.083,9.083,0,0,1,9.542-1.011l3.134,1.566,3.134-1.567a9.086,9.086,0,0,1,9.542,1.011l2.712,2.17V36.624L27.06,40.392h-4.4L9.47,36.624ZM2.367,55.78A1.185,1.185,0,0,1,3.551,54.6H5.919a1.184,1.184,0,0,1,0,2.367H3.551A1.185,1.185,0,0,1,2.367,55.78Zm0-4.735a1.185,1.185,0,0,1,1.184-1.184H5.919a1.184,1.184,0,0,1,0,2.367H3.551A1.185,1.185,0,0,1,2.367,51.045Zm1.184-5.919H5.919a1.184,1.184,0,0,1,0,2.367H3.551a1.184,1.184,0,0,1,0-2.367ZM2.367,60.515a1.185,1.185,0,0,1,1.184-1.184H5.919a1.184,1.184,0,0,1,0,2.367H3.551A1.185,1.185,0,0,1,2.367,60.515ZM7.1,63.848a3.518,3.518,0,0,0,1.444-5.7,3.5,3.5,0,0,0,0-4.735,3.5,3.5,0,0,0,0-4.735,3.518,3.518,0,0,0-1.444-5.7V38.41l14.2,4.059V70.782L7.1,66.725Zm35.511,5.337,2.367-.676V64.066h9.47v7.1H42.614Zm28.409,1.983h-9.47V68.8H63.92V66.433H61.553V64.066h9.47Z" fill="#fff"/>
        <path id="Trazado_618430" data-name="Trazado 618430" d="M56,56.123h2.367V58.49H56Z" transform="translate(10.288 10.31)" fill="#fff"/>
        <path id="Trazado_618431" data-name="Trazado 618431" d="M44,42.123h2.367V44.49H44Z" transform="translate(8.083 7.738)" fill="#fff"/>
        <path id="Trazado_618432" data-name="Trazado 618432" d="M61.756,41.062h-14.2a1.184,1.184,0,0,1,0-2.367h4.735a3.555,3.555,0,0,0,3.551-3.551V29.106a5.929,5.929,0,0,0,4.735-5.8V22.123H48.735v1.184a5.93,5.93,0,0,0,4.735,5.8v6.038a1.185,1.185,0,0,1-1.184,1.184H47.551a3.551,3.551,0,1,0,0,7.1h14.2a1.184,1.184,0,0,1,0,2.367H48.735v2.367H61.756a3.551,3.551,0,0,0,0-7.1ZM51.3,24.49H58a3.551,3.551,0,0,1-6.7,0Z" transform="translate(8.083 4.064)" fill="#fff"/>
        <path id="Trazado_618433" data-name="Trazado 618433" d="M47.7,17.328a3.533,3.533,0,0,1,1.039,2.512V23.8H60.572V19.84a3.529,3.529,0,0,1,1.039-2.512l.9-.9A9.553,9.553,0,0,0,55.753.123h-2.2A9.554,9.554,0,0,0,46.8,16.432ZM53.554,2.49h2.2a7.187,7.187,0,0,1,5.083,12.268l-.9.9A5.877,5.877,0,0,0,58.2,19.84v1.59H55.837v-7.8l3.2-3.2L57.368,8.756,54.653,11.47,51.939,8.756,50.265,10.43l3.2,3.2v7.8H51.1V19.84a5.881,5.881,0,0,0-1.733-4.186l-.9-.9A7.186,7.186,0,0,1,53.554,2.49Z" transform="translate(8.083 0.023)" fill="#fff"/>
      </g>
    </g>
  </g>
</svg>
