<svg xmlns="http://www.w3.org/2000/svg" xmlns:xlink="http://www.w3.org/1999/xlink" width="350.342" height="346.443" viewBox="0 0 350.342 346.443">
  <defs>
    <clipPath id="clip-path">
      <path id="Trazado_621189" data-name="Trazado 621189" d="M678.856,4487.078a17.89,17.89,0,0,1-17.889,17.89H346.4a17.889,17.889,0,0,1-17.888-17.89V4320.125c0-9.879,8.009-17.888,17.888-106.592H660.967c9.88,88.7,17.889,96.713,17.889,106.592Z" transform="translate(-328.514 -4213.533)" fill="none"/>
    </clipPath>
  </defs>
  <g id="Grupo_928198" data-name="Grupo 928198" transform="translate(-328.514 -4152.42)">
    <g id="Grupo_928090" data-name="Grupo 928090" transform="translate(328.514 4343.543)">
      <path id="Trazado_621021" data-name="Trazado 621021" d="M678.856,4506.37c0,7.569-4.791,13.706-10.7,13.706H339.214c-5.909,0-10.7-6.137-10.7-13.706V4378.46c0-7.567,4.791-13.7,10.7-13.7H668.155c5.909,0,10.7,6.136,10.7,13.7Z" transform="translate(-328.514 -4364.757)" fill="#d9edf8"/>
      <g id="Grupo_928089" data-name="Grupo 928089">
        <path id="Trazado_621022" data-name="Trazado 621022" d="M678.856,4506.37c0,7.569-4.791,13.706-10.7,13.706H339.214c-5.909,0-10.7-6.137-10.7-13.706V4378.46c0-7.567,4.791-13.7,10.7-13.7H668.155c5.909,0,10.7,6.136,10.7,13.7Z" transform="translate(-328.514 -4364.757)" fill="#d9edf8"/>
      </g>
    </g>
    <g id="Grupo_928197" data-name="Grupo 928197" transform="translate(328.514 4152.42)">
      <g id="Grupo_928091" data-name="Grupo 928091" transform="translate(48.866)">
        <path id="Trazado_621023" data-name="Trazado 621023" d="M438.589,4165.027c-30.81,0-55.785,15.2-55.785,33.942,0,16.534,21.235,30.3,46.958,33.319l.416,21.636,8.374-21.041c.611.013,1.22.027,1.838.027,30.809,0,53.983-15.2,53.983-33.941S469.4,4165.027,438.589,4165.027Z" transform="translate(-382.804 -4153.68)" fill="#ffcfde"/>
        <path id="Trazado_621024" data-name="Trazado 621024" d="M527.978,4152.42H634.443a2.753,2.753,0,0,1,2.792,2.71v52.991a2.752,2.752,0,0,1-2.792,2.71H551.569l11.855,44.732-18.735-44.732h-16.71a2.752,2.752,0,0,1-2.793-2.71V4155.13A2.752,2.752,0,0,1,527.978,4152.42Z" transform="translate(-397.028 -4152.42)" fill="#ffd88e"/>
      </g>
      <g id="Grupo_928196" data-name="Grupo 928196" transform="translate(0 55.008)">
        <g id="Grupo_928195" data-name="Grupo 928195" clip-path="url(#clip-path)">
          <g id="Grupo_928194" data-name="Grupo 928194" transform="translate(-14.451 16.362)">
            <g id="Grupo_928147" data-name="Grupo 928147" transform="translate(199.9)">
              <g id="Grupo_928099" data-name="Grupo 928099" transform="translate(50.827)">
                <g id="Grupo_928093" data-name="Grupo 928093">
                  <path id="Trazado_621025" data-name="Trazado 621025" d="M609.224,4304.949c-.477-4.569-4.291-9.463-5.064-14.094a101.851,101.851,0,0,1-1.646-13.3c-.456-8.111,2.4-14.578,7.875-20.335,6.27-6.59,18.17-5.585,26.5-4.93,4.4.345,7.511,2.2,7.6,7.029.113,6.154-5.052,11.406-8.228,16.261C630.953,4283.7,625.654,4291.652,609.224,4304.949Z" transform="translate(-592.159 -4233.719)" fill="#919191"/>
                  <path id="Trazado_621026" data-name="Trazado 621026" d="M633.845,4252.5a47.986,47.986,0,0,0-11.639,1.559c-4.252,1.113-6.44,4-10.083,5.866-3.325,1.7-6.055,3.947-7.375,7.549a26.088,26.088,0,0,0-1.4,7.587c-.252,4.675.459,9.05.979,13.658.626,5.558,1.855,11.613,1.761,17.183a73.138,73.138,0,0,0,.2,9.882,11.55,11.55,0,0,0,2.942,7.126c.154.178.316.358.486.54a44.645,44.645,0,0,0,9.618,7.809c2.385,1.437,4.609,3.162,7.469,3.47,6.9.739,11.3-2,16.417-6.042,2.741-2.167,5.689-4.081,8.255-6.466a36.806,36.806,0,0,0,6.546-9c4.307-7.617,5.741-16.548,5.924-25.295a55.267,55.267,0,0,0-1.768-16.4,29.657,29.657,0,0,0-8.379-14.033,26.409,26.409,0,0,0-15.566-6.429,37.284,37.284,0,0,0-11.177,1.245c-4.562,1.132-7.528,4.145-11.614,6.048-.4.188-.8.371-1.192.554" transform="translate(-592.242 -4233.637)" fill="#f7bbac"/>
                  <path id="Trazado_621027" data-name="Trazado 621027" d="M648.936,4326.889c.008,6.685.617,13.482,3.695,19.5a29.472,29.472,0,0,0,2.827,3.569c1.2,1.622,1.658,2.464-.074,3.458-2.338,1.342-4.8,6.006-7.429,6.768-3.075.893-9.119,5.3-12.284,5.811-3.1.5-4.85-7.069-8-7.036-1.369.014-7.617-3.542-8.552-4.513,3.8-3.269,9.264-3.308,10.673-8.258.892-3.131,1.5-8.744.606-12.052C637.506,4332.591,644.739,4328.342,648.936,4326.889Z" transform="translate(-593.822 -4241.22)" fill="#f7bbac"/>
                  <path id="Trazado_621028" data-name="Trazado 621028" d="M632.68,4343.165c4.3.628,13.26-4.927,16.578-7.594a13.117,13.117,0,0,1-3.948,9.647,10.6,10.6,0,0,1-5.24,2.831C637.043,4348.437,634.252,4346,632.68,4343.165Z" transform="translate(-595.177 -4242.086)" fill="#d68a7e"/>
                  <g id="Grupo_928092" data-name="Grupo 928092">
                    <path id="Trazado_621029" data-name="Trazado 621029" d="M650,4257.276a20.991,20.991,0,0,1,4.36,5.818,44.429,44.429,0,0,1,4.25,28.156,3.253,3.253,0,0,1,3.773,1.885,7.3,7.3,0,0,1,0,3.689,4.572,4.572,0,0,0,.562,3.58c2.359,2.894,3.563-2.75,5.069-3.6,2.216-1.244,3.939-.075,4.986-3.111,1.9-5.492,1.011-13.6.138-19.174-.985-6.3-4.092-14.261-8.22-19.312-5.008-6.128-14.756-5.718-21.952-4.5-.523.7.3,1.605,1.028,2.084A42.938,42.938,0,0,1,650,4257.276Z" transform="translate(-596.189 -4233.536)" fill="#919191"/>
                    <path id="Trazado_621030" data-name="Trazado 621030" d="M669.6,4257.511c.013-.042.024-.083.037-.126,1.3-.646,1.18-2.676.428-3.974-.038-.064-.079-.127-.119-.193a5.476,5.476,0,0,0-1.739-3.191,3.014,3.014,0,0,1-.087-.762c.02-.649.259-1.352-.061-1.918-.334-.589-1.016-.673-1.73-.746a14.59,14.59,0,0,0-3.032-2.261c-.633-1.247-1.151-2.523-2.37-2.248a13.54,13.54,0,0,0-8.539-6.155,28.482,28.482,0,0,0-5.906-.457c-.515-.339-1.035-.675-1.531-1.021-1.752-1.225-4.216-2.9-6.5-1.863a2.65,2.65,0,0,0-1.315,1.179,2.893,2.893,0,0,0-2.492,1.267c-.594-1.971-2.872-2.87-4.911-3.158a19.029,19.029,0,0,0-11.234,1.958,4.364,4.364,0,0,0-3.708.841,40.2,40.2,0,0,0-3.022,3.247c-.217.227-.419.43-.617.621a19.7,19.7,0,0,0-6.87,2.419l-1.03.519c-1.746-.175-3.969-.8-5.345-.185-2.01.9-.9,2.271-1.483,3.59-.815,1.838-5.149,4.71-1.928,10.35-4.143-.708-4.592,3.968-1.329,5.665-1.139,1.563-2.3,3.189-1.194,5.165,1.047,1.87,5.169,3.2,6.443,1.148-1.831,6.545,7.42.935,8.976-1.573,1.013,3.447,7.539,1.234,9.041-.943.734,3.157,5.423,1.877,6.856-.023,1.322.978,3.305,2.511,5.164,2,2.19-.607,1.861-3.019,3.292-4.341a8.178,8.178,0,0,1,1.732-1.2l.176.087a12.148,12.148,0,0,0,1.774-.731,3.89,3.89,0,0,0,1.286-1.118,19.45,19.45,0,0,0,2.46,5.295,3.412,3.412,0,0,0,.951,1.158,2.264,2.264,0,0,0,2.224,0,1.756,1.756,0,1,0,3.5.2l2.144-.039c-.514,1.421,1.282,2.571,2.771,2.824s3.351.5,3.841,1.926a1.225,1.225,0,0,0,.908-1.1q3,.736,6.007,1.475a4.131,4.131,0,0,0,2.287.119,1.424,1.424,0,0,0,.966-1.809l2.135-.2a11.192,11.192,0,0,0,.7-6.384l3.848-1.569A3.575,3.575,0,0,0,669.6,4257.511Z" transform="translate(-591.015 -4231.711)" fill="#2e0404"/>
                  </g>
                </g>
                <g id="Grupo_928098" data-name="Grupo 928098" transform="translate(16.182 42.234)">
                  <path id="Trazado_621031" data-name="Trazado 621031" d="M623.639,4298.626c-1.18,4.163-2.124,8.385-3.4,12.513-.49,1.583-.625,2.567,1.148,3.25,1.824.7,6.142.571,7.543-.758" transform="translate(-610.085 -4280.63)" fill="none" stroke="#d68a7e" stroke-miterlimit="10" stroke-width="1.3"/>
                  <g id="Grupo_928095" data-name="Grupo 928095" transform="translate(10.605 36.306)">
                    <path id="Trazado_621032" data-name="Trazado 621032" d="M628.059,4323.073a22.82,22.82,0,0,0,10.157-3.025,7.366,7.366,0,0,0-.005-1.081,50.328,50.328,0,0,1-15.682,2.315C622.821,4323.751,625.8,4323.194,628.059,4323.073Z" transform="translate(-620.95 -4318.967)" fill="#fff4ef"/>
                    <g id="Grupo_928094" data-name="Grupo 928094" transform="translate(0 1.08)">
                      <path id="Trazado_621033" data-name="Trazado 621033" d="M628.2,4323.192c-.663.037-1.387.107-2.088.131-.781.965-1.506,1.989-2.192,3a8.394,8.394,0,0,0,11.131.07,9.806,9.806,0,0,0,3.305-6.222A22.82,22.82,0,0,1,628.2,4323.192Z" transform="translate(-621.089 -4320.167)" fill="#d44f4f"/>
                      <path id="Trazado_621034" data-name="Trazado 621034" d="M622.353,4321.525c-.561-.025-1.094-.065-1.578-.132a9.881,9.881,0,0,0,2.829,5.048c.686-1.007,1.41-2.03,2.192-3C624.108,4323.5,622.56,4323.269,622.353,4321.525Z" transform="translate(-620.775 -4320.29)" fill="#982b2b"/>
                    </g>
                  </g>
                  <g id="Grupo_928096" data-name="Grupo 928096" transform="translate(4.661 16.619)">
                    <path id="Trazado_621035" data-name="Trazado 621035" d="M616.012,4299.554c-2.555-.033-2.246,5.131-.318,6,2.947,1.321,2.96-5.9.361-5.994Z" transform="translate(-614.172 -4297.341)" fill="#342b2a"/>
                    <path id="Trazado_621036" data-name="Trazado 621036" d="M642.467,4297.1c-2.555-.034-2.246,5.13-.318,5.994,2.947,1.321,2.96-5.9.361-5.994Z" transform="translate(-616.815 -4297.096)" fill="#342b2a"/>
                  </g>
                  <g id="Grupo_928097" data-name="Grupo 928097">
                    <path id="Trazado_621037" data-name="Trazado 621037" d="M608.993,4285.942c1.664-2.907,4.486-4.323,7.936-4.854" transform="translate(-608.993 -4278.877)" fill="none" stroke="#000" stroke-miterlimit="10" stroke-width="3"/>
                    <path id="Trazado_621038" data-name="Trazado 621038" d="M638.212,4278.8a12.311,12.311,0,0,1,11.56,4.675" transform="translate(-611.912 -4278.632)" fill="none" stroke="#000" stroke-miterlimit="10" stroke-width="3"/>
                  </g>
                </g>
                <path id="Trazado_621039" data-name="Trazado 621039" d="M663.564,4311.021c.544-4.65,1.724-11.266,6.4-13.742,4.436-2.35,7.242,2,8.074,5.8,1.016,4.649-.813,9.8-5.3,12.028C667.859,4317.533,661.652,4318.76,663.564,4311.021Z" transform="translate(-598.227 -4238.195)" fill="#f7bbac"/>
              </g>
              <g id="Grupo_928119" data-name="Grupo 928119" transform="translate(38.147 211.5)">
                <g id="Grupo_928106" data-name="Grupo 928106" transform="translate(0 42.391)">
                  <g id="Grupo_928101" data-name="Grupo 928101" transform="translate(3.951)">
                    <g id="Grupo_928100" data-name="Grupo 928100">
                      <path id="Trazado_621040" data-name="Trazado 621040" d="M588.552,4775.317c4.8-2.292,8.882-2.213,13.789-4.266,2.175-.908,6.442-2.489,8.386-3.8,1.687-1.139,1.851-4.573,2.7-6.509,1.229-2.8.539-6.228.518-9.174-.043-5.931-2.163-19.583-2.451-25.505-.4-8.166-16.943-159.189-17.766-168.421-.662-7.427,2.2-41.307,2.032-43.106l30.849-.752.059,42.78s3.9,117.936,4.071,126.817c.274,13.93,1.3,24.047,1.231,37.98-.023,5.2-1.511,50.179-1.08,53.384a8.274,8.274,0,0,1,.13,2.654c-.4,2.077-3.309,2.237-5.073,2.7q-3.223.855-6.455,1.669c-5.6,1.412-11.213,2.743-16.864,3.93-3.962.834-8.844.232-12.852.827-3.148.465-5.512,1.515-7.479-1.325a5.334,5.334,0,0,1,.121-6.341,9.159,9.159,0,0,1,3.042-2.049Q587,4776.057,588.552,4775.317Z" transform="translate(-581.317 -4513.782)" fill="#f7bbac"/>
                    </g>
                  </g>
                  <g id="Grupo_928105" data-name="Grupo 928105" transform="translate(0 225.572)">
                    <g id="Grupo_928102" data-name="Grupo 928102">
                      <path id="Trazado_621041" data-name="Trazado 621041" d="M631.891,4766.044a1.582,1.582,0,0,0-.259-1.017c-.52-.611-2.363-.42-3.053-.361a9.172,9.172,0,0,0-3.275.689,3.118,3.118,0,0,0-1.88,2.575c-3.755-2.78-6.731-1.682-10.816-1.314a12.753,12.753,0,0,1-.239-2.191c-1.477-.215-3.155.571-2.865,2.208.816,4.6,2.113,10.868.734,15.869-.041.081-.09.157-.126.244l.041.044a9.977,9.977,0,0,1-5.007,6.252c-4.081,2.16-7.777,4.646-12.335,5.674-12.013,2.716-16.586,6.835-15.8,14.714,2.926,1.316,6.553,1.659,10.651,1.954,5.971.428,13.924.65,19.709-.477,7.069-1.378,15.347-3.674,22.151-7.159l.745.807c.591-.7,1.685-1.531,2-2.381a4.365,4.365,0,0,0,.185-1.506c0-3.9-.5-7.77-.862-11.65.1-3.347-.593-6.815-.6-10.2a86.806,86.806,0,0,1,.653-10.8A15.575,15.575,0,0,0,631.891,4766.044Z" transform="translate(-576.928 -4764.39)" fill="#533119"/>
                      <path id="Trazado_621042" data-name="Trazado 621042" d="M608.8,4813.984a6.947,6.947,0,0,1-.846.3c-6.6,1.8-13.443,1.782-20.276,1.292-4.1-.295-7.725-.637-10.651-1.954a24.463,24.463,0,0,0,.621,3.469c.8,3.217,9.36,4.189,12.023,4.276a70.509,70.509,0,0,0,13.5-.99c3.787-.607,6.848-2.707,10.414-3.953a35.1,35.1,0,0,1,6.715-1.4c3.418-.483,8.246-.408,11.131-2.278,1.62-1.05,1.6-3.985.908-6.422a63.573,63.573,0,0,1-11.845,4.528c-2.892.659-5.869.973-8.714,1.826A31.258,31.258,0,0,0,608.8,4813.984Z" transform="translate(-576.938 -4768.579)" fill="#381b09"/>
                    </g>
                    <g id="Grupo_928103" data-name="Grupo 928103" transform="translate(9.338 2.647)">
                      <path id="Trazado_621043" data-name="Trazado 621043" d="M587.3,4800.159c8.933-4.477,17.977,7.981,17.969,12.242" transform="translate(-587.302 -4770.515)" fill="none" stroke="#381b09" stroke-miterlimit="10" stroke-width="1"/>
                      <path id="Trazado_621044" data-name="Trazado 621044" d="M612.047,4799.042c13.857-4.747,14.229-16.348,13.934-28.433" transform="translate(-589.774 -4767.659)" fill="none" stroke="#381b09" stroke-miterlimit="10" stroke-width="1"/>
                      <path id="Trazado_621045" data-name="Trazado 621045" d="M612.864,4787.975a17.949,17.949,0,0,0,2.535-6.2,60.828,60.828,0,0,0,.145-14.448" transform="translate(-589.856 -4767.331)" fill="none" stroke="#381b09" stroke-miterlimit="10" stroke-width="1"/>
                      <path id="Trazado_621046" data-name="Trazado 621046" d="M630.344,4807.776c.287-3.675,3.085-9.121,5.783-11.716" transform="translate(-591.602 -4770.201)" fill="none" stroke="#381b09" stroke-miterlimit="10" stroke-width="1"/>
                    </g>
                    <g id="Grupo_928104" data-name="Grupo 928104" transform="translate(19.34 12.367)">
                      <path id="Trazado_621047" data-name="Trazado 621047" d="M598.415,4796.812c2.71.3,8.716,2.371,10.553,6.265" transform="translate(-598.415 -4779.997)" fill="none" stroke="#9c7b6c" stroke-miterlimit="10" stroke-width="1"/>
                      <path id="Trazado_621048" data-name="Trazado 621048" d="M604.579,4793.472c4.165,1.226,7.791,2.741,10.151,6.44" transform="translate(-599.031 -4779.663)" fill="none" stroke="#9c7b6c" stroke-miterlimit="10" stroke-width="1"/>
                      <path id="Trazado_621049" data-name="Trazado 621049" d="M609.827,4790.337c2.992-.115,8.414,1.717,9.951,5.86" transform="translate(-599.555 -4779.35)" fill="none" stroke="#9c7b6c" stroke-miterlimit="10" stroke-width="1"/>
                      <path id="Trazado_621050" data-name="Trazado 621050" d="M614.179,4785.283c3.175-.375,7.692,1.3,10.76,4.684" transform="translate(-599.99 -4778.84)" fill="none" stroke="#9c7b6c" stroke-miterlimit="10" stroke-width="1"/>
                      <path id="Trazado_621051" data-name="Trazado 621051" d="M615.665,4778.208c4.335-.254,7.5-.009,10.981,2.672" transform="translate(-600.138 -4778.13)" fill="none" stroke="#9c7b6c" stroke-miterlimit="10" stroke-width="1"/>
                    </g>
                  </g>
                </g>
                <g id="Grupo_928113" data-name="Grupo 928113" transform="translate(47.089 48.426)">
                  <g id="Grupo_928108" data-name="Grupo 928108" transform="translate(3.391)">
                    <g id="Grupo_928107" data-name="Grupo 928107">
                      <path id="Trazado_621052" data-name="Trazado 621052" d="M640.244,4782.021c4.8-2.291,5.456-.3,10.365-2.357,2.175-.91,8.491-2.8,10.433-4.108,1.688-1.139,3.23-6.172,4.081-8.108,1.23-2.8.54-6.227.518-9.174-.043-5.93-.3-11.863-.591-17.786-.4-8.166-2.193-20.159-2.728-28.318-.635-9.724-.034-15.611-.759-25.329q-1.187-15.916-2.47-31.825-1.3-16.236-2.671-32.465-1.31-15.549-2.663-31.089-1.2-13.848-2.439-27.694-.994-11.143-2.005-22.281-.675-7.425-1.359-14.849-.25-2.7-.5-5.4l30.851-.753.059,42.782s-.459,85.568,2.434,99.759c1.783,8.755,1.463,18.177,1.638,27.058.274,13.931,1.247,19.82,1.183,33.752-.023,5.2-1,18.452-.977,23.654a105.125,105.125,0,0,1-.624,13.733c-.435,3.357-.059,7.027.035,10.4a94.62,94.62,0,0,0,.534,9.82,8.276,8.276,0,0,1,.13,2.655c-.4,2.078-3.31,2.236-5.074,2.7q-3.221.854-6.455,1.668c-5.6,1.411-11.213,2.744-16.862,3.931-3.962.833-8.844.232-12.852.825-3.149.467-5.513,1.516-7.481-1.324a5.335,5.335,0,0,1,.122-6.341,9.2,9.2,0,0,1,3.042-2.05Q638.7,4782.762,640.244,4782.021Z" transform="translate(-633.01 -4520.487)" fill="#f7bbac"/>
                    </g>
                    <path id="Trazado_621053" data-name="Trazado 621053" d="M685.128,4790.277c-.088,2.872.82,6.982-.284,9.693" transform="translate(-638.189 -4547.44)" fill="none" stroke="#bb695a" stroke-miterlimit="10" stroke-width="1"/>
                  </g>
                  <g id="Grupo_928112" data-name="Grupo 928112" transform="translate(0 225.129)">
                    <g id="Grupo_928109" data-name="Grupo 928109">
                      <path id="Trazado_621054" data-name="Trazado 621054" d="M684.206,4772.255a1.576,1.576,0,0,0-.258-1.016c-.521-.61-2.363-.418-3.054-.361a9.183,9.183,0,0,0-3.274.689,3.119,3.119,0,0,0-1.881,2.575c-3.754-2.778-6.731-1.68-10.815-1.313a12.73,12.73,0,0,1-.239-2.19c-1.477-.216-3.156.57-2.865,2.208.816,4.6,2.113,10.867.733,15.868-.041.082-.09.157-.125.244l.041.044a9.978,9.978,0,0,1-5.008,6.252c-4.08,2.16-7.777,4.644-12.335,5.674-12.013,2.716-16.586,6.835-15.8,14.713,2.927,1.315,6.554,1.66,10.651,1.953,5.971.43,13.925.651,19.71-.476,7.069-1.378,15.346-3.673,22.151-7.159l.745.806c.591-.7,1.684-1.53,2-2.38a4.338,4.338,0,0,0,.186-1.5c0-3.906-.5-7.771-.862-11.652.1-3.346-.593-6.814-.6-10.2a86.631,86.631,0,0,1,.653-10.8A15.744,15.744,0,0,0,684.206,4772.255Z" transform="translate(-629.243 -4770.603)" fill="#533119"/>
                      <path id="Trazado_621055" data-name="Trazado 621055" d="M661.111,4820.2a6.763,6.763,0,0,1-.845.295c-6.6,1.8-13.444,1.784-20.276,1.292-4.1-.293-7.724-.638-10.651-1.952a24.385,24.385,0,0,0,.622,3.468c.8,3.218,9.36,4.189,12.023,4.278a70.669,70.669,0,0,0,13.5-.99c3.787-.608,6.847-2.707,10.413-3.954a35.149,35.149,0,0,1,6.715-1.4c3.418-.483,8.246-.407,11.131-2.278,1.619-1.05,1.6-3.984.908-6.423a63.666,63.666,0,0,1-11.845,4.528c-2.893.658-5.869.973-8.715,1.825A31.478,31.478,0,0,0,661.111,4820.2Z" transform="translate(-629.253 -4774.792)" fill="#381b09"/>
                    </g>
                    <g id="Grupo_928110" data-name="Grupo 928110" transform="translate(9.339 2.646)">
                      <path id="Trazado_621056" data-name="Trazado 621056" d="M639.618,4806.371c8.933-4.477,17.977,7.981,17.969,12.242" transform="translate(-639.618 -4776.727)" fill="none" stroke="#381b09" stroke-miterlimit="10" stroke-width="1"/>
                      <path id="Trazado_621057" data-name="Trazado 621057" d="M664.362,4805.254c13.858-4.745,14.229-16.348,13.934-28.431" transform="translate(-642.09 -4773.87)" fill="none" stroke="#381b09" stroke-miterlimit="10" stroke-width="1"/>
                      <path id="Trazado_621058" data-name="Trazado 621058" d="M665.179,4794.188a17.942,17.942,0,0,0,2.536-6.2,60.891,60.891,0,0,0,.145-14.45" transform="translate(-642.172 -4773.542)" fill="none" stroke="#381b09" stroke-miterlimit="10" stroke-width="1"/>
                      <path id="Trazado_621059" data-name="Trazado 621059" d="M682.66,4813.989c.287-3.676,3.086-9.121,5.783-11.718" transform="translate(-643.918 -4776.413)" fill="none" stroke="#381b09" stroke-miterlimit="10" stroke-width="1"/>
                    </g>
                    <g id="Grupo_928111" data-name="Grupo 928111" transform="translate(19.34 12.367)">
                      <path id="Trazado_621060" data-name="Trazado 621060" d="M650.73,4803.024c2.71.3,8.716,2.372,10.554,6.265" transform="translate(-650.73 -4786.209)" fill="none" stroke="#9c7b6c" stroke-miterlimit="10" stroke-width="1"/>
                      <path id="Trazado_621061" data-name="Trazado 621061" d="M656.895,4799.685c4.164,1.225,7.791,2.741,10.15,6.439" transform="translate(-651.346 -4785.875)" fill="none" stroke="#9c7b6c" stroke-miterlimit="10" stroke-width="1"/>
                      <path id="Trazado_621062" data-name="Trazado 621062" d="M662.142,4796.55c2.992-.116,8.415,1.717,9.951,5.859" transform="translate(-651.87 -4785.563)" fill="none" stroke="#9c7b6c" stroke-miterlimit="10" stroke-width="1"/>
                      <path id="Trazado_621063" data-name="Trazado 621063" d="M666.495,4791.495c3.175-.374,7.692,1.3,10.76,4.686" transform="translate(-652.305 -4785.052)" fill="none" stroke="#9c7b6c" stroke-miterlimit="10" stroke-width="1"/>
                      <path id="Trazado_621064" data-name="Trazado 621064" d="M667.98,4784.421c4.336-.256,7.5-.009,10.981,2.671" transform="translate(-652.453 -4784.343)" fill="none" stroke="#9c7b6c" stroke-miterlimit="10" stroke-width="1"/>
                    </g>
                  </g>
                </g>
                <g id="Grupo_928118" data-name="Grupo 928118" transform="translate(11.669)">
                  <g id="Grupo_928117" data-name="Grupo 928117">
                    <path id="Trazado_621065" data-name="Trazado 621065" d="M674.046,4466.693s-43.185,5.9-71.5.23l-2.733-.237c-3.716,9.18-9.838,36.7-9.907,47.273-.257,38.89,3.437,77.856,6.734,116.473,2.365,27.7,8.632,67.564,12.35,82.182,2.731,10.735-.508-2.908.765,8.1a57.258,57.258,0,0,0,22.868-.583c-.044-4.534-3.761-6.373.773-6.217.938.031.972-7.84,1.311-21.022.156-6.013-1.2-12.311-1.357-18.024-.09-3.229.691-6.414.969-9.632.7-8.153-.832-21.176-1-29.38-.178-8.8.491-26.354.354-35.156-.249-15.942,1.856-24.228,2.331-39.506.14.729-.363-2.81-.322-2.356,3.435,38.3,10.432,70.592,13.867,108.9,2.279,25.414,3.923,24.836,6.2,50.249,0,0,13.229,4.051,26.409-1.419.044-9.352.83-19.061,1.018-22.784.245-4.849-.515-21.672-.738-25.284-.121-1.979-.579-3.374-.614-5.312-.076-4.31,1.117-8.357,1.449-12.564.381-4.831.527-9.646.472-14.49-.117-10.008-.9-20.018-.34-30.027.681-12.215,1.281-24.436,1.732-36.661.376-10.187.86-19.309.863-28.457a90.358,90.358,0,0,0,.317-13.592c-1.216-16.962-.771-40.562-4.789-57.241-.191-.791-7.027-2.779-7.483-3.453" transform="translate(-589.892 -4466.686)" fill="#c6b4b4"/>
                    <g id="Grupo_928116" data-name="Grupo 928116" transform="translate(13.402 5.195)">
                      <g id="Grupo_928114" data-name="Grupo 928114" transform="translate(67.394 53.553)">
                        <path id="Trazado_621066" data-name="Trazado 621066" d="M686.327,4692.393c-1.919,3.293-3.85,6.761-6.014,9.894" transform="translate(-679.722 -4547.984)" fill="none" stroke="#a78e8e" stroke-miterlimit="10" stroke-width="1"/>
                        <path id="Trazado_621067" data-name="Trazado 621067" d="M686.768,4685.519a25.975,25.975,0,0,1-7.112,5.373" transform="translate(-679.656 -4547.296)" fill="none" stroke="#a78e8e" stroke-miterlimit="10" stroke-width="1"/>
                        <path id="Trazado_621068" data-name="Trazado 621068" d="M686.924,4716.649c.1-2.118.23-4.147.419-6.031.737-7.409,0-15.108-.184-22.564-.123-5.038-1.233-9.656-1.343-14.531-.269-11.919,1.426-23.583,1.108-35.563-.319-12.072.8-24.177.622-36.3-.194-12.92-.244-35.121.371-69.706" transform="translate(-680.268 -4531.955)" fill="none" stroke="#a78e8e" stroke-miterlimit="10" stroke-width="1"/>
                      </g>
                      <g id="Grupo_928115" data-name="Grupo 928115" transform="translate(0 83.684)">
                        <path id="Trazado_621069" data-name="Trazado 621069" d="M632.019,4565.43c-.066,34.868-2.927,31.367-1.981,50.164.979,19.425-.975,39.663,1.885,58.858.606,4.075,1.635,8.648,1.341,12.82-.325,4.589-.666,4.1-1.273,8.376-.852,6.022.643,8.122.843,14.456.175,5.566-.25,5.054.274,10.624" transform="translate(-607.286 -4565.43)" fill="none" stroke="#a78e8e" stroke-miterlimit="10" stroke-width="1"/>
                        <path id="Trazado_621070" data-name="Trazado 621070" d="M611.823,4683.956c-1.353-3.145-4.368-5.995-7.041-8.032" transform="translate(-604.782 -4576.469)" fill="none" stroke="#a78e8e" stroke-miterlimit="10" stroke-width="1"/>
                        <path id="Trazado_621071" data-name="Trazado 621071" d="M634.871,4688.577c-1.469,2.261-3.9,3.86-5.721,5.93" transform="translate(-607.216 -4577.733)" fill="none" stroke="#a78e8e" stroke-miterlimit="10" stroke-width="1"/>
                      </g>
                      <path id="Trazado_621072" data-name="Trazado 621072" d="M610.543,4555.591c4.865,2.19,9.716,4.416,14.6,6.571,5.141,2.27,11.567,4.444,13.243,10.425" transform="translate(-605.358 -4480.763)" fill="none" stroke="#a78e8e" stroke-miterlimit="10" stroke-width="1"/>
                      <path id="Trazado_621073" data-name="Trazado 621073" d="M616.158,4572.593c4.176-1.256,11.564-4.927,15.859-5.72" transform="translate(-605.918 -4481.89)" fill="none" stroke="#a78e8e" stroke-miterlimit="10" stroke-width="1"/>
                      <path id="Trazado_621074" data-name="Trazado 621074" d="M634.573,4555.539c.322-6.276-2.33-12.913-2.474-19.434-.14-6.393-.311-12.784-.468-19.176-.329-13.518.008-26.989-.325-40.636" transform="translate(-607.432 -4472.84)" fill="none" stroke="#a78e8e" stroke-miterlimit="10" stroke-width="1"/>
                      <path id="Trazado_621075" data-name="Trazado 621075" d="M691.719,4531.129c-.007.047-.826-.555-1.692-.937a26.91,26.91,0,0,1-6.26-3.56c-3.671-2.943-8.384-7.718-10.154-12.138" transform="translate(-611.658 -4476.658)" fill="none" stroke="#a78e8e" stroke-miterlimit="10" stroke-width="1"/>
                      <path id="Trazado_621076" data-name="Trazado 621076" d="M630.964,4538.18c-4.088-1.572-4.663-6.224-5.661-10.377-1.518-6.319-.645-42.781-.629-55.345" transform="translate(-606.743 -4472.458)" fill="none" stroke="#a78e8e" stroke-miterlimit="10" stroke-width="1"/>
                    </g>
                  </g>
                  <path id="Trazado_621077" data-name="Trazado 621077" d="M690.226,4736.829a1.24,1.24,0,0,0-.286-.269c-.869-.589-2.475.52-3.4.773a49.644,49.644,0,0,1-5.209,1.416,43.648,43.648,0,0,1-12.252.473,41.583,41.583,0,0,1-4.545-.805c-.919-.215-2.944-.748-3.3.511-.148.526.411,1.893.434,2.5.052,1.364.061,2.731.092,4.1a1.538,1.538,0,0,0,.114.661,1.472,1.472,0,0,0,.336.4c4.7,4.23,11.983,2.9,17.8,2.137,2.749-.362,9.167-1.371,10.114-4.336a6.359,6.359,0,0,0,.1-2.386C690.152,4740.792,691.128,4737.993,690.226,4736.829Z" transform="translate(-597.017 -4493.63)" fill="#a78e8e"/>
                  <path id="Trazado_621078" data-name="Trazado 621078" d="M636.451,4738.3a1.152,1.152,0,0,0-.267-.27c-.812-.59-2.308.517-3.169.769a44.782,44.782,0,0,1-4.861,1.408,38.145,38.145,0,0,1-11.437.453,36.774,36.774,0,0,1-4.243-.813c-.859-.215-2.749-.753-3.076.506a14.581,14.581,0,0,0,.41,2.5c.051,1.365.061,2.731.093,4.1a1.591,1.591,0,0,0,.107.661,1.406,1.406,0,0,0,.315.4c4.391,4.239,11.189,2.925,16.622,2.168,2.567-.357,8.555-1.356,9.436-4.32a6.78,6.78,0,0,0,.09-2.387C636.389,4742.258,637.294,4739.462,636.451,4738.3Z" transform="translate(-591.838 -4493.777)" fill="#a78e8e"/>
                </g>
              </g>
              <g id="Grupo_928121" data-name="Grupo 928121" transform="translate(52.845 108.249)">
                <path id="Trazado_621079" data-name="Trazado 621079" d="M664.091,4358.4c-3.211-1.882-6.669-8.393-9.51-5.839-1.669,1.5-20.44,12.579-21.384,13.312-2.669,2.076-9.644-10.062-11.046-12.271-.6-.946-11.7,5.521-11,8.21,4.481,17.353-3.492,32.739-5.591,50.256-2.392,19.967-5.177,39.749-8.393,59.609a75.692,75.692,0,0,1-2.034,9.744c-.52,1.729-2.167,4.494-1.828,6.366.732,4.031,3.216,6.968,6.561,7.854,3.91,1.036,15.97,3.773,22.327,3.773,9.434,0,30.063.545,37.421-2.2,8.727-3.259-.616-16.646-.242-24.068.662-13.145,2.4-26.223,3.257-39.352.546-8.4.17-16.835.05-25.238C662.566,4400.787,665.463,4392.46,664.091,4358.4Z" transform="translate(-593.257 -4351.974)" fill="#fff4ef"/>
                <g id="Grupo_928120" data-name="Grupo 928120" transform="translate(8.179 5.513)">
                  <path id="Trazado_621080" data-name="Trazado 621080" d="M663.035,4501.7c-12.622,4.07-26.88,4.612-40.566,3.145-3.247-.349-17.891-7.814-20.125-10.377" transform="translate(-602.344 -4371.723)" fill="none" stroke="#e4dae5" stroke-miterlimit="10" stroke-width="1"/>
                  <path id="Trazado_621081" data-name="Trazado 621081" d="M629.736,4501.141c-1.309.134-16.038-7.232-17.61-12.263" transform="translate(-603.321 -4371.165)" fill="none" stroke="#e4dae5" stroke-miterlimit="10" stroke-width="1"/>
                  <path id="Trazado_621082" data-name="Trazado 621082" d="M653.7,4360.405c-4.19,1.555-17.939,11.943-19.5,11.32-2.1-.838-8.176-7.337-11.95-13.626" transform="translate(-604.333 -4358.099)" fill="none" stroke="#e4dae5" stroke-miterlimit="10" stroke-width="1"/>
                </g>
              </g>
              <g id="Grupo_928141" data-name="Grupo 928141" transform="translate(0 94.718)">
                <g id="Grupo_928127" data-name="Grupo 928127">
                  <g id="Grupo_928123" data-name="Grupo 928123" transform="translate(24.424 23.027)">
                    <path id="Trazado_621083" data-name="Trazado 621083" d="M597.443,4362.524c-15.514,7.127-11.66,21.022-15.095,31.237-2.81,8.359-5.766,20.787-8.933,29.034-1.783,4.644-6.378,13-4.741,17.958-3.288.9-4.909,3.305-1.521,5.567-.651.092-1.918.566-2.325.615a25.362,25.362,0,0,0,11.423,11.867c5.789,3.139,9.5.558,12.806-5.294C600.232,4433.728,599.692,4399.786,597.443,4362.524Z" transform="translate(-561.995 -4362.524)" fill="#e66666"/>
                    <g id="Grupo_928122" data-name="Grupo 928122" transform="translate(0 54.788)">
                      <path id="Trazado_621084" data-name="Trazado 621084" d="M570.084,4424.16c4.582-2.6,12.14,1.938,13.418,5.871,1.951,6.006,2.366,10.348,2.305,16.853-.091,9.558-5.45,23.4-20.125,14.593-4.451-2.671-3-5.171-3.731-10.231a28.136,28.136,0,0,1,.726-11.236C564.224,4434.042,565.41,4428.1,570.084,4424.16Z" transform="translate(-561.681 -4423.393)" fill="#f17d7d"/>
                      <path id="Trazado_621085" data-name="Trazado 621085" d="M579.868,4433.795c3.238,5.854,3.1,14.79.839,20.964" transform="translate(-563.498 -4424.433)" fill="none" stroke="#e66666" stroke-miterlimit="10" stroke-width="1"/>
                    </g>
                  </g>
                  <g id="Grupo_928126" data-name="Grupo 928126">
                    <path id="Trazado_621086" data-name="Trazado 621086" d="M540.7,4362.292c-2.035-1.222-1.464-7.677-1.352-9.708a71.635,71.635,0,0,1,.743-9.474c2.209-.155,3.226,5.511,3.435,7.031C544.154,4354.7,542.976,4359.787,540.7,4362.292Z" transform="translate(-535.01 -4337.558)" fill="#d68a7e"/>
                    <g id="Grupo_928125" data-name="Grupo 928125">
                      <g id="Grupo_928124" data-name="Grupo 928124">
                        <path id="Trazado_621087" data-name="Trazado 621087" d="M547.09,4380.894c4.636,13.3,7.627,43.964,10.8,57.634,1.374,5.917,6.512,20.421,14.434,8.077,10.635-16.573-10.077-53.154-14.149-69.615-1.873-7.57,2.457-4.624-6-7.607C545.85,4379.847,545.586,4374.685,547.09,4380.894Z" transform="translate(-535.723 -4340.182)" fill="#f7bbac"/>
                        <path id="Trazado_621088" data-name="Trazado 621088" d="M548.7,4382.172c-2.5-6-7.681-12.4-11.53-18.857-2.877-4.821-2.679-6.888-2.566-12.369.089-4.372-.323-8.8.256-13.137,3.978-.92,2.64,12.5,4.984,14.522.971-4,2.1-12.88,4.384-14.984,1.937-1.783,1.5,2.754,1.423,4.642a89.876,89.876,0,0,1-1.626,10.564c.32.19,3.487-12.312,5.815-13.7,2.538.688.155,5.593.065,7.816-.1,2.446-1.489,5.377-.82,7.752.257-1.364,4.074-10.448,5.173-8.672,1.129,1.823-1.922,9.548-1.872,11.579.066,2.676,3.591,5.1,4.594,7.913,1.768,4.965,1.171,9.742.71,14.9-.356,3.995-.965,7.813-.744,11.8C553.688,4391.588,549.813,4387.549,548.7,4382.172Z" transform="translate(-534.546 -4336.941)" fill="#f7bbac"/>
                      </g>
                      <path id="Trazado_621089" data-name="Trazado 621089" d="M559.372,4387.865a9.556,9.556,0,0,0,.21-2.516" transform="translate(-537.027 -4341.777)" fill="none" stroke="#ff9e97" stroke-miterlimit="10" stroke-width="1"/>
                    </g>
                  </g>
                </g>
                <g id="Grupo_928134" data-name="Grupo 928134" transform="translate(43.019 15.398)">
                  <g id="Grupo_928128" data-name="Grupo 928128" transform="translate(0 0.597)">
                    <path id="Trazado_621090" data-name="Trazado 621090" d="M617.157,4354.943c.176-1.236-10.481,2.806-13.834,4.276-4.983,2.185-9.138,5.211-9.894,11.123-.87,6.8-7.077,79.621-8.346,96.2-.67,8.744-1.551,17.485-1.633,26.263-.057,6.014-2,13-.607,14.327,1.569,1.494,15.743,9.955,19.913,9.749C603.41,4516.846,605.587,4436,617.157,4354.943Z" transform="translate(-582.34 -4354.711)" fill="#e66666"/>
                  </g>
                  <g id="Grupo_928129" data-name="Grupo 928129" transform="translate(55.233)">
                    <path id="Trazado_621091" data-name="Trazado 621091" d="M684.867,4484.392a73.411,73.411,0,0,1,6.464,20.178c7.45-7.243,7.419-16.75,5.173-27.232-.9-4.191-3.726-53.344-5.315-56.97-.658-1.5-1.277-2.906-1.877-4.264-.091-8.874,1.047-17.791-.117-26.6-1.193-9.02.868-18.556-3.43-25.5-2.522-4.081-6.2-5.835-10.6-6.782-3.461-.744-12.6-3.858-14.4-3.034-1.5.687-4.173,7.674-4.724,9.232-4.332,12.259-5.455,15.08-6.609,28.031-1.718,19.3-3.311,44.031-4.835,63.346-.864,10.958-1.588,56.921.257,63.782.008.03,16.748-.147,20.745-2.563,1.489-.9,4.457-4.968,5.3-6.492,5.763-10.489,5.855-18.975,8.807-30.212C681.362,4472.993,681.351,4477.18,684.867,4484.392Z" transform="translate(-643.703 -4354.048)" fill="#e66666"/>
                  </g>
                  <g id="Grupo_928133" data-name="Grupo 928133" transform="translate(2.863 12.763)">
                    <g id="Grupo_928130" data-name="Grupo 928130" transform="translate(73.347 107.414)">
                      <path id="Trazado_621092" data-name="Trazado 621092" d="M674.029,4510.354c-.4-5.4-2.967-11.633-.361-22.79" transform="translate(-667.559 -4487.564)" fill="none" stroke="#c73e3e" stroke-miterlimit="10" stroke-width="1"/>
                      <path id="Trazado_621093" data-name="Trazado 621093" d="M667.009,4500.7c.546,3.028,1.009,6.682,3.489,8.854" transform="translate(-667.009 -4488.876)" fill="none" stroke="#c73e3e" stroke-miterlimit="10" stroke-width="1"/>
                    </g>
                    <path id="Trazado_621094" data-name="Trazado 621094" d="M595.085,4368.228c-3.1,12.427-5.551,69.289-8.7,92.769" transform="translate(-585.608 -4368.228)" fill="none" stroke="#c73e3e" stroke-miterlimit="10" stroke-width="1"/>
                    <g id="Grupo_928131" data-name="Grupo 928131" transform="translate(0 137.029)">
                      <path id="Trazado_621095" data-name="Trazado 621095" d="M601.187,4528.2c-4.815-.884-12.868-3.682-15.666-7.731" transform="translate(-585.521 -4520.466)" fill="none" stroke="#c73e3e" stroke-miterlimit="10" stroke-width="1"/>
                    </g>
                    <g id="Grupo_928132" data-name="Grupo 928132" transform="translate(55.101 132.825)">
                      <path id="Trazado_621096" data-name="Trazado 621096" d="M673.956,4515.8c-4.523,4.5-8.075,9.928-13.343,12.286-4.351,1.948-9.471,1.7-13.875,1.546" transform="translate(-646.738 -4515.796)" fill="none" stroke="#c73e3e" stroke-miterlimit="10" stroke-width="1"/>
                    </g>
                    <path id="Trazado_621097" data-name="Trazado 621097" d="M654.632,4400.709c6.08-.419,10.9.419,16.352,1.048" transform="translate(-592.425 -4371.462)" fill="none" stroke="#c73e3e" stroke-miterlimit="10" stroke-width="1"/>
                    <path id="Trazado_621098" data-name="Trazado 621098" d="M590.12,4394.492a74.75,74.75,0,0,0,1.67,9.747" transform="translate(-585.98 -4370.852)" fill="none" stroke="#c73e3e" stroke-miterlimit="10" stroke-width="1"/>
                  </g>
                </g>
                <g id="Grupo_928137" data-name="Grupo 928137" transform="translate(105.322 11.216)">
                  <g id="Grupo_928135" data-name="Grupo 928135">
                    <path id="Trazado_621099" data-name="Trazado 621099" d="M672.268,4355.284c-2.523-.928-3.393-4.128-6.1-5.07-1.443-.5-3.018-.14-4.545-.186a18.246,18.246,0,0,1-5.434-.625,4.963,4.963,0,0,0,2.483,2.739c-.461-.156-3.778,14.4-4.349,15.989-1.852,5.142-2.1,10.692-2.767,13.7,1.079-3.358,8.026-11.127,13.25-16.01,2.925-2.736,1.235-.634,1.467-1.467.45-1.61-3.453-3.256-2.726-4.612C665.122,4356.811,671.233,4357.768,672.268,4355.284Z" transform="translate(-651.558 -4349.403)" fill="#e66666"/>
                  </g>
                  <g id="Grupo_928136" data-name="Grupo 928136" transform="translate(1.719 1.452)">
                    <path id="Trazado_621100" data-name="Trazado 621100" d="M653.468,4379.267s1.887-5.451,12.788-13.837c1.325-1.02-3.872-3.047-3.144-4.4,1.572-2.934,8.312-2.606,9.347-5.09" transform="translate(-653.468 -4351.507)" fill="none" stroke="#c73e3e" stroke-miterlimit="10" stroke-width="1"/>
                    <path id="Trazado_621101" data-name="Trazado 621101" d="M661.989,4351.016a7.515,7.515,0,0,0-2.541,1.242" transform="translate(-654.065 -4351.016)" fill="none" stroke="#c73e3e" stroke-miterlimit="10" stroke-width="1"/>
                  </g>
                </g>
                <g id="Grupo_928140" data-name="Grupo 928140" transform="translate(65.893 11.651)">
                  <g id="Grupo_928138" data-name="Grupo 928138" transform="translate(0.116)">
                    <path id="Trazado_621102" data-name="Trazado 621102" d="M620.822,4355.5a3.478,3.478,0,0,1,2.662-2.146c.07-.009,2.88-.326,2.9-.353,1.881-2.8,1.829-3.1,1.8-3.107-.3-.044-3.824.241-4.435.37-5.728,1.2-7.567,1.686-9.7,3.128-.941.638-2.725,1.257-3.39,2.083-.8.994-3.139,3.2-2.73,4.427.314.944,6.6.787,6.6,1.259-.314.313-3.3,2.672-6.6,5.031,2.044,3.773,7.479,12.155,8.015,15.936C616.4,4379.508,619.9,4357.227,620.822,4355.5Z" transform="translate(-607.881 -4349.885)" fill="#e66666"/>
                  </g>
                  <g id="Grupo_928139" data-name="Grupo 928139" transform="translate(0 1.366)">
                    <path id="Trazado_621103" data-name="Trazado 621103" d="M615.931,4382.745c-.536-3.781-5.5-12.575-8.015-15.622-1.352.67,6.131-5.189,6.131-5.189.315-.628-4.187-.544-5.346-.943-1.22-.42,1.146-3.905,1.944-4.9" transform="translate(-607.752 -4351.871)" fill="none" stroke="#c73e3e" stroke-miterlimit="10" stroke-width="1"/>
                    <path id="Trazado_621104" data-name="Trazado 621104" d="M625.751,4352.818a12.158,12.158,0,0,1,3.459-1.415" transform="translate(-609.551 -4351.403)" fill="none" stroke="#c73e3e" stroke-miterlimit="10" stroke-width="1"/>
                  </g>
                </g>
              </g>
              <g id="Grupo_928146" data-name="Grupo 928146" transform="translate(123.593 113.417)">
                <path id="Trazado_621105" data-name="Trazado 621105" d="M686.642,4463.707l-9.5,50.383a21.165,21.165,0,0,0,11.671,9.75l13.49-51.659Z" transform="translate(-672.385 -4368.306)" fill="#f7bbac"/>
                <g id="Grupo_928145" data-name="Grupo 928145">
                  <g id="Grupo_928143" data-name="Grupo 928143">
                    <path id="Trazado_621106" data-name="Trazado 621106" d="M676.358,4357.717c5.99.344,17.643,5.663,20.036,7.681,5.4,4.556,4.86,14.033,6.05,18.346,3.259,11.814,1.765,34.829,2.186,39.942.384,4.661-.341,7.638,1.531,11.77a11.748,11.748,0,0,1,1.264,4.416c.039,2-1.357,3.343-1.464,5.128-.185,3.116,3.307,5.217,2.427,8.838-.361,1.483-1.4,2.538-1.693,4.082-.409,2.15.06,4.525-.162,6.7-.444,4.371-1.086,8.64-3.6,12.292-5.737-3.077-10.814-6.113-17.126-8.059-1.523-.47-5.554-1.14-6.454-2.161-1.068-1.213-.3-3.665-.322-5a22.216,22.216,0,0,0-.942-4.74c-.645-3.053.674-6.157.129-9.085-.284-1.53-1.367-2.319-1.249-4.051.1-1.5,1-2.727,1.219-4.176a30.251,30.251,0,0,0-.768-10.706c-1.122-4.989.025-5.738-.9-10.778C673.782,4403.3,667.646,4364.172,676.358,4357.717Z" transform="translate(-671.857 -4357.717)" fill="#e66666"/>
                    <g id="Grupo_928142" data-name="Grupo 928142" transform="translate(5.103 9.386)">
                      <path id="Trazado_621107" data-name="Trazado 621107" d="M679.5,4464.853a9.393,9.393,0,0,0,.094-1.218,22.221,22.221,0,0,0-.942-4.74c-.645-3.053.674-6.157.129-9.085-.284-1.531-1.367-2.319-1.249-4.052.1-1.5,1-2.727,1.219-4.175a30.253,30.253,0,0,0-.768-10.706c-1.122-4.989,1.065-5,.316-10.073-1.507-10.2-.679-30.491,2.935-43.606" transform="translate(-677.527 -4369.049)" fill="none" stroke="#c73e3e" stroke-miterlimit="10" stroke-width="1"/>
                      <path id="Trazado_621108" data-name="Trazado 621108" d="M694.718,4453.1c.965.578,12.079,5.319,10.391,7.823-1.378,2.042-6.158.178-7.248-1.124" transform="translate(-679.244 -4376.632)" fill="none" stroke="#c73e3e" stroke-miterlimit="10" stroke-width="1"/>
                      <path id="Trazado_621109" data-name="Trazado 621109" d="M686.308,4372.31c2.431-1.681,9.464-5.37,12.579-3.773" transform="translate(-678.404 -4368.145)" fill="none" stroke="#c73e3e" stroke-miterlimit="10" stroke-width="1"/>
                    </g>
                  </g>
                  <g id="Grupo_928144" data-name="Grupo 928144" transform="translate(5.08 103.678)">
                    <path id="Trazado_621110" data-name="Trazado 621110" d="M709.94,4483.637c-6.624-4.708-13.507-6.788-21.221-9.278-3.156-1.019-8.957-2.954-10.625.563-1.378,2.907.682,7.288-.593,10.19,2.834,2.313,8.259,3.2,11.754,4.354,4.434,1.466,9.1,2.985,12.666,6.086C705.184,4493.888,706.3,4489.562,709.94,4483.637Z" transform="translate(-677.501 -4472.902)" fill="#f17d7d"/>
                    <path id="Trazado_621111" data-name="Trazado 621111" d="M685.436,4481.37c5.116,2.566,12.8,4.979,17.159,8.7" transform="translate(-678.294 -4473.749)" fill="none" stroke="#e66666" stroke-miterlimit="10" stroke-width="1"/>
                  </g>
                </g>
              </g>
            </g>
            <g id="Grupo_928193" data-name="Grupo 928193" transform="translate(0 45.963)">
              <g id="Grupo_928160" data-name="Grupo 928160" transform="translate(51.212)">
                <g id="Grupo_928149" data-name="Grupo 928149" transform="translate(0 0.611)">
                  <path id="Trazado_621112" data-name="Trazado 621112" d="M456.606,4355.984c-.7-2.784-2.458-4.966-3.6-7.558a42.56,42.56,0,0,1-2.507-8.106c-1.457-6.857-.935-14.306-1.336-21.287-.286-4.986-1.7-11.171-.923-16.083-40.314,17.105-50.776,29.543-52.089,40.389a19.437,19.437,0,0,1-.978-4.883c-.385-6.576,2.576-13.648,3.05-19.994.382-5.111,1.96-10.145,5.412-14.026a86.6,86.6,0,0,0,7.508-10.139,35.824,35.824,0,0,0,4.33-7.933c.308-.9.458-2.079-.32-2.62a2.264,2.264,0,0,0-1.261-.286c-7.224-.129-16.174,2.322-22.037,6.575-9.538,6.919-13.7,18.69-14.62,30.113-.348,4.331.852,8.535-.349,12.838-1.183,4.242-3.836,7.88-5.707,11.821a15.813,15.813,0,0,0-1.819,7.063,7.643,7.643,0,0,0,3.215,6.3c-.482-.3,1.268-2.462,1.571-2.67.3,2.8-.709,5.006,1.238,7.66,1.162,1.585,3.437,2.54,5.154,1.582a3.463,3.463,0,0,1,.016-2.73c.787,1.424,2.519,3.2,4.182,3.552,1.194.253,3.8-.333,3.833-1.761.622,1.155,2.334,3.89,3.405,1.468a4.1,4.1,0,0,0,2.765,1.215c1.147-.036,1.582-1.386,2.62-1.456,1.214-.083,1.985,1.315,3.571.773a1.16,1.16,0,0,1,.364-1.556,2.172,2.172,0,0,1,.966-.235c6.253-.484,10.971,5.179,17.673,4.083,2.154-.352,4.222-1.21,6.275-1.706,2.034-.491,3.46.14,5.445.87a21.169,21.169,0,0,0,10.518,1.324c2.253-.3,5.325-2.25,6.84.467a7.735,7.735,0,0,1,.719,2.4,9.347,9.347,0,0,0,2.469-6.145c.909.146.69,1.838,1.571,2.109.58.178,1.079-.422,1.39-.943A12.66,12.66,0,0,0,456.606,4355.984Z" transform="translate(-369.354 -4283.454)" fill="#6a3c3c"/>
                  <g id="Grupo_928148" data-name="Grupo 928148" transform="translate(6.549 46.371)">
                    <path id="Trazado_621113" data-name="Trazado 621113" d="M454.572,4336.945a14.156,14.156,0,0,0,.638,11.178c1.3,2.818,3.782,6.427,3.14,9.7-.493,2.521-3.609,4.4-3.522,7.049.056,1.7,1.677,3.11,2.016,4.8" transform="translate(-384.33 -4335.169)" fill="none" stroke="#4d2a2a" stroke-miterlimit="10" stroke-width="1"/>
                    <path id="Trazado_621114" data-name="Trazado 621114" d="M381.84,4334.972c-.861,5.316-.793,10.762-2.6,15.885-.521,1.475-3.365,5.362-2.41,6.832.81,1.248,3.034.8,3.862,2.376.774,1.476-.246,2.8-.112,4.3" transform="translate(-376.631 -4334.972)" fill="none" stroke="#4d2a2a" stroke-miterlimit="10" stroke-width="1"/>
                    <path id="Trazado_621115" data-name="Trazado 621115" d="M392.273,4343.585a13.5,13.5,0,0,1,.828,5.946c-.2,2.037-1.874,4.886-.846,6.907.888,1.744,2.906,2.4,3.73,4.432.876,2.163.795,4.609,1.41,6.818" transform="translate(-378.159 -4335.833)" fill="none" stroke="#4d2a2a" stroke-miterlimit="10" stroke-width="1"/>
                    <path id="Trazado_621116" data-name="Trazado 621116" d="M399.349,4351.925c2.291,3.709,4.419,6.834,4.783,11.334" transform="translate(-378.9 -4336.666)" fill="none" stroke="#4d2a2a" stroke-miterlimit="10" stroke-width="1"/>
                    <path id="Trazado_621117" data-name="Trazado 621117" d="M445.331,4361.742c-.458,3.667-1.325,8.891,2.037,11.492" transform="translate(-383.449 -4337.646)" fill="none" stroke="#4d2a2a" stroke-miterlimit="10" stroke-width="1"/>
                    <path id="Trazado_621118" data-name="Trazado 621118" d="M437.963,4369.6c.254,1.247.718,2.454,1,3.681" transform="translate(-382.758 -4338.432)" fill="none" stroke="#4d2a2a" stroke-miterlimit="10" stroke-width="1"/>
                  </g>
                </g>
                <g id="Grupo_928152" data-name="Grupo 928152" transform="translate(12.908 4.696)">
                  <path id="Trazado_621119" data-name="Trazado 621119" d="M410.036,4353.668a53.554,53.554,0,0,0,6.256,4.327c5.526,3.225,11.8,5.939,17.832,2.11,5.466-2.539,9.356-7.558,11.714-12.221,1.245-2.461,1.4-17.166,1.617-19.853.718-8.926,4.755-24.91-.61-30.024-4.761-4.541-14.575-8.917-16.516-9.288a30.844,30.844,0,0,0-10.58-.446,65.649,65.649,0,0,0-6.5,1.037c-6.489,1.349-10.174,3.422-14.37,8.368-3.626,4.274-4.131,11.167-4.491,16.5a70.819,70.819,0,0,0,1.4,20.793c.93,4.156,2.114,7.721,5.236,10.669C403.94,4348.392,406.884,4351.168,410.036,4353.668Z" transform="translate(-384.742 -4287.993)" fill="#ffcdc4"/>
                  <g id="Grupo_928151" data-name="Grupo 928151" transform="translate(0 36.066)">
                    <g id="Grupo_928150" data-name="Grupo 928150">
                      <path id="Trazado_621120" data-name="Trazado 621120" d="M395.211,4335.744c-.041-.08-.081-.16-.122-.239-2.021-3.951-7.455-11.243-10.458-5.032-2.109,4.362-.409,10.263,2.645,13.7,3.342,3.76,10.315,5.639,14.894,2.758" transform="translate(-383.695 -4328.062)" fill="#ffcdc4"/>
                    </g>
                  </g>
                </g>
                <g id="Grupo_928156" data-name="Grupo 928156" transform="translate(37.89 28.265)">
                  <path id="Trazado_621121" data-name="Trazado 621121" d="M434.413,4328.571c.111,2.125-.462,4.657.317,6.692.718,1.877,2.869,2.746,3.6,4.606,1.165,2.963-2.41,4.932-4.833,5" transform="translate(-413.653 -4315.616)" fill="none" stroke="#ed9288" stroke-miterlimit="10" stroke-width="1"/>
                  <path id="Trazado_621122" data-name="Trazado 621122" d="M420.742,4330.333a1.842,1.842,0,0,0-3,1.144c-.355,1.393.239,3.5,1.509,4.121,2.358,1.156,2.893-2.365,2.275-4.143A2.4,2.4,0,0,0,420.742,4330.333Z" transform="translate(-412.068 -4315.749)" fill="#342b2a"/>
                  <path id="Trazado_621123" data-name="Trazado 621123" d="M444.5,4330.82c-.753-.967-2.124-.93-2.738.618-.521,1.312-.346,3.487.637,4.316,1.826,1.538,2.835-1.84,2.59-3.7A2.544,2.544,0,0,0,444.5,4330.82Z" transform="translate(-414.449 -4315.775)" fill="#342b2a"/>
                  <g id="Grupo_928153" data-name="Grupo 928153">
                    <path id="Trazado_621124" data-name="Trazado 621124" d="M411.45,4317.963c3.043-2.977,6.979-4,11.361-3.75" transform="translate(-411.45 -4314.177)" fill="none" stroke="#4d2a2a" stroke-miterlimit="10" stroke-width="2"/>
                    <path id="Trazado_621125" data-name="Trazado 621125" d="M441.584,4314.634c2.8.044,7.46,3.09,8.8,5.889" transform="translate(-414.461 -4314.223)" fill="none" stroke="#4d2a2a" stroke-miterlimit="10" stroke-width="2"/>
                  </g>
                  <g id="Grupo_928155" data-name="Grupo 928155" transform="translate(9.755 31.161)">
                    <path id="Trazado_621126" data-name="Trazado 621126" d="M429.761,4352.731a24.554,24.554,0,0,0,7.006-.414c.453-.027,1.188-1.434,1.792-2.688a46.537,46.537,0,0,1-16.187-.831,5.007,5.007,0,0,0-.009,1.76c.876.333,1.763.958,2.306,1.117A32.739,32.739,0,0,0,429.761,4352.731Z" transform="translate(-422.288 -4348.798)" fill="#fff4ef"/>
                    <g id="Grupo_928154" data-name="Grupo 928154" transform="translate(0.051 0.527)">
                      <path id="Trazado_621127" data-name="Trazado 621127" d="M435.1,4352.684a16.088,16.088,0,0,1-5.47.155,30.783,30.783,0,0,1-5.066-1.316c-.539-.19-1.348-.508-2.215-.9.87,6.248,9.122,8.526,12.429,6.593a16.476,16.476,0,0,0,1.887-1.272c-.015-.052-.032-.111-.047-.16A12.367,12.367,0,0,0,435.1,4352.684Z" transform="translate(-422.345 -4349.508)" fill="#d44f4f"/>
                      <path id="Trazado_621128" data-name="Trazado 621128" d="M441.549,4349.383a12.565,12.565,0,0,1-1.78.327c-.644,1.335-1.322,2.545-1.777,2.559-.2.007-.721.146-1.482.291a12.368,12.368,0,0,1,1.518,3.1c.015.048.031.108.047.16A8.261,8.261,0,0,0,441.549,4349.383Z" transform="translate(-423.76 -4349.383)" fill="#982b2b"/>
                    </g>
                  </g>
                </g>
                <g id="Grupo_928157" data-name="Grupo 928157" transform="translate(19.263 61.363)">
                  <path id="Trazado_621129" data-name="Trazado 621129" d="M438.021,4382.118c-2.939-.663-4.7-.756-8.181-3.591-1.89-1.54-2.509-3.805-2.724-6.2a64.331,64.331,0,0,1,.264-10.4c.021-.27,1.367-1.475,1.157-1.753-.288-.381-2.668-.091-2.947-.1-2.644-.1-9.611-11.458-15.023-8.689-.561.287-2.04.233-2.461,1.77-1.272,4.636-.122,16.39-3.631,19.741-3.545,3.385-7.274,6.386-12.505,7.609a1.718,1.718,0,0,0-1.2,1.393,2.184,2.184,0,0,0,.586,1.534c4.729,6.377,12.622,9.666,20.428,11.114,7.413,1.377,15.276,1.312,22.262-1.524,1.342-.544,2.77-1.328,3.212-2.708.261-.814.127-1.714.383-2.531.318-1.016,1.19-1.762,1.635-2.729C440.007,4383.452,439.736,4382.5,438.021,4382.118Z" transform="translate(-390.755 -4350.948)" fill="#ffcdc4"/>
                  <path id="Trazado_621130" data-name="Trazado 621130" d="M409.856,4359.424c.093,3.573,2.2,8.033,4.185,10.871,1.781,2.547,3.967,4.3,7.286,4.2,1.665-.053,4.076.249,5.141-.977.337-.388,2.3-4.331,2.312-4.332a14.788,14.788,0,0,1-6.376-1.408A30.477,30.477,0,0,1,409.856,4359.424Z" transform="translate(-392.663 -4351.795)" fill="#ed9288"/>
                </g>
                <g id="Grupo_928159" data-name="Grupo 928159" transform="translate(18.216)">
                  <path id="Trazado_621131" data-name="Trazado 621131" d="M423.532,4295.929c-1.149,7.839-3.329,12.217-9.449,16.47.863-2.359.276-5.542,1.494-7.627-2.892,4.952-8.876,6.785-11.7,11.869a28.246,28.246,0,0,0-2.464,20.916c-6.719-3.791-9.669-9.337-10.3-13.949-.762-5.541-2.427-12.425-.89-17.891,1.252-4.457,3.639-9.693,7.149-12.972,3.947-3.686,5.518-6.356,10.722-7.73,5.729-1.513,14.98-3.042,20.92-1.759a50.017,50.017,0,0,1,15.443,6.548c3.164,2.089,4.9,4.713,6.488,8.028,2.176,4.535,3.888,11.834.241,16.256a19.243,19.243,0,0,1-.086-4.209,21.9,21.9,0,0,1-4.487,4.8c1.393-3.078.587-6.859.225-10.079-.226-2.01-.254-4.067-1.42-5.716.238,4.152,1.447,14.193-3.652,14.767-.2.022-18.556-2.5-19.817-2.912C422.312,4308.318,422.068,4308.416,423.532,4295.929Z" transform="translate(-389.593 -4282.775)" fill="#6a3c3c"/>
                  <g id="Grupo_928158" data-name="Grupo 928158" transform="translate(0.234 5.657)">
                    <path id="Trazado_621132" data-name="Trazado 621132" d="M431.988,4289.06c.914,7.071,2.093,14.366-.353,21.271" transform="translate(-394.027 -4289.06)" fill="none" stroke="#4d2a2a" stroke-miterlimit="10" stroke-width="1"/>
                    <path id="Trazado_621133" data-name="Trazado 621133" d="M439.5,4289.724c4.339,6.094,8.125,14.665,6.6,22.444" transform="translate(-394.813 -4289.126)" fill="none" stroke="#4d2a2a" stroke-miterlimit="10" stroke-width="1"/>
                    <path id="Trazado_621134" data-name="Trazado 621134" d="M445.917,4291.1a41.279,41.279,0,0,1,3.441,5.115" transform="translate(-395.454 -4289.264)" fill="none" stroke="#4d2a2a" stroke-miterlimit="10" stroke-width="1"/>
                    <path id="Trazado_621135" data-name="Trazado 621135" d="M391.173,4326.91c-1.6-9.447-2.513-19.728,1.9-28.639" transform="translate(-389.853 -4289.98)" fill="none" stroke="#4d2a2a" stroke-miterlimit="10" stroke-width="1"/>
                    <path id="Trazado_621136" data-name="Trazado 621136" d="M423.425,4294.571c-.528,2.259-1.07,4.516-1.579,6.781" transform="translate(-393.049 -4289.61)" fill="none" stroke="#4d2a2a" stroke-miterlimit="10" stroke-width="1"/>
                    <path id="Trazado_621137" data-name="Trazado 621137" d="M409.867,4296.156c-6.414,4.552-9.586,11.862-12.289,19" transform="translate(-390.625 -4289.769)" fill="none" stroke="#4d2a2a" stroke-miterlimit="10" stroke-width="1"/>
                    <path id="Trazado_621138" data-name="Trazado 621138" d="M397.456,4302.959c.584-2.717,2.27-4.482,3.344-6.881" transform="translate(-390.612 -4289.761)" fill="none" stroke="#4d2a2a" stroke-miterlimit="10" stroke-width="1"/>
                  </g>
                </g>
              </g>
              <g id="Grupo_928178" data-name="Grupo 928178" transform="translate(10.925 179.544)">
                <g id="Grupo_928177" data-name="Grupo 928177">
                  <g id="Grupo_928174" data-name="Grupo 928174" transform="translate(0 25.154)">
                    <g id="Grupo_928163" data-name="Grupo 928163" transform="translate(8.838 4.135)">
                      <g id="Grupo_928162" data-name="Grupo 928162" transform="translate(15.099)">
                        <g id="Grupo_928161" data-name="Grupo 928161">
                          <path id="Trazado_621139" data-name="Trazado 621139" d="M351.19,4738.035c5.2.757,12.812,1.51,18.618,1.713,1.631-8.658,4.393-23.385,5.153-26.682q1.331-5.782,2.662-11.561,5.224-22.69,10.449-45.376c8.58-24.79,24.487-77.813,31.936-105.684-.09-3.771-.137-7.283-.125-10.451-11.841-19.616-32.631-20.285-46.5-24.878-.037-.011-.033-.134,0-.33-3.171,12.523-8.4,22.063-8.6,44.411-.194,22.105,1.72,61.745-3.442,83.172-3.325,13.8-4.335,27.945-6.16,42.068-.316,2.451-.819,7.193-1.389,13.068C352.953,4709.073,352.2,4724.808,351.19,4738.035Z" transform="translate(-351.19 -4514.787)" fill="#ffcdc4"/>
                        </g>
                      </g>
                      <path id="Trazado_621140" data-name="Trazado 621140" d="M348.466,4774.364c.383-3.457.728-7.383,1.048-11.55,5.2.757,12.812,1.509,18.618,1.713-.644,3.417-1.113,5.893-1.212,6.34a16.234,16.234,0,0,0-.629,3.17c-.012.632.1,1.259.1,1.888a11.1,11.1,0,0,1-1.016,4.048c-1.263,3.236-4.069,5.786-5.861,8.693a29.14,29.14,0,0,1-5.646,6.607,27.96,27.96,0,0,1-17.172,6.539q-.888.042-1.777.047C331.405,4801.871,347.305,4776.121,348.466,4774.364Z" transform="translate(-334.415 -4539.566)" fill="#fff4ef"/>
                    </g>
                    <path id="Trazado_621141" data-name="Trazado 621141" d="M427.508,4542.792c.673,1.114,1.323,2.277,1.934,3.519-.523,2.071-1.134,4.408-1.809,6.933C427.543,4549.473,427.5,4545.96,427.508,4542.792Z" transform="translate(-334.878 -4513.449)" fill="#dca497"/>
                    <g id="Grupo_928167" data-name="Grupo 928167" transform="translate(0 233.512)">
                      <g id="Grupo_928164" data-name="Grupo 928164">
                        <path id="Trazado_621142" data-name="Trazado 621142" d="M327.841,4800.094c-1.475.411-1.827-.469-2.71,1.106-.687,1.227-.535,3.027-.483,4.372a4.269,4.269,0,0,0,.224,1.437,3.565,3.565,0,0,0,1.046,1.294c5.542,4.73,15.274,5,21.909,2.869,2.979-.957,4.4-3.851,6.172-6.252,2.5-3.393,7.417-3.583,10.2-6.63,2.282-2.5,3.356-8.422-1.7-7.81C362.5,4790.479,327.849,4800.093,327.841,4800.094Z" transform="translate(-324.597 -4771.702)" fill="#fff4ef"/>
                        <path id="Trazado_621143" data-name="Trazado 621143" d="M365.847,4778.231c-.5-.525-.944-.14-1.728.062-1.59.408-3.131-.9-3.942-2.325s-1.246-3.094-2.349-4.309a6.74,6.74,0,0,0-4.283-1.971,20.116,20.116,0,0,0-4.8.241c-3.03.4-3.654,3.529-4.24,6.015-.732,3.112-3.323,5.554-5.612,7.7a65.051,65.051,0,0,1-10.17,8.07c-2.6,1.6-3.941,5.737-3.785,8.644a15,15,0,0,0,3.931,2.82,22.973,22.973,0,0,0,7.392,1.58,26.262,26.262,0,0,0,11.279-1.665,17.618,17.618,0,0,0,5.744-3.354c1.357-1.238,2.284-2.8,3.783-3.9,2.519-1.839,7-1.653,8.627-4.583a8.437,8.437,0,0,0,.845-4.168q-.022-3.179-.2-6.355a4.669,4.669,0,0,0-.255-2.191A2.088,2.088,0,0,0,365.847,4778.231Z" transform="translate(-324.629 -4769.623)" fill="#4c4642"/>
                      </g>
                      <g id="Grupo_928165" data-name="Grupo 928165" transform="translate(6.957 9.065)">
                        <path id="Trazado_621144" data-name="Trazado 621144" d="M349.01,4801.593c-1.7-3.449-4.14-7.032-8.043-7.94a27.588,27.588,0,0,0-8.641-1.092" transform="translate(-332.326 -4780.977)" fill="none" stroke="#777470" stroke-miterlimit="10" stroke-width="1"/>
                        <path id="Trazado_621145" data-name="Trazado 621145" d="M360.689,4779.694c-2.176,6.288-5.4,10.292-10.034,15.061" transform="translate(-334.157 -4779.694)" fill="none" stroke="#777470" stroke-miterlimit="10" stroke-width="1"/>
                      </g>
                      <path id="Trazado_621146" data-name="Trazado 621146" d="M365.713,4782.887c2.6-.5,1.173,2.991.606,4.02a21.545,21.545,0,0,1-3.654,4.386,44.881,44.881,0,0,0-3.907,4.9c-.6.817-1.746,2.5-2.685,1.1-.642-.959.242-2.384.638-3.248C358.315,4790.549,360.743,4787.218,365.713,4782.887Z" transform="translate(-327.718 -4770.943)" fill="#fff4ef"/>
                      <g id="Grupo_928166" data-name="Grupo 928166" transform="translate(10.991 8.21)">
                        <path id="Trazado_621147" data-name="Trazado 621147" d="M336.807,4788.824c3.9-.3,10.7.939,13.7,3.927" transform="translate(-336.807 -4779.747)" fill="none" stroke="#fff4ef" stroke-miterlimit="10" stroke-width="1.5"/>
                        <path id="Trazado_621148" data-name="Trazado 621148" d="M341.553,4783.947a20.561,20.561,0,0,1,12.833,3.939" transform="translate(-337.281 -4779.26)" fill="none" stroke="#fff4ef" stroke-miterlimit="10" stroke-width="1.5"/>
                        <path id="Trazado_621149" data-name="Trazado 621149" d="M345.095,4779.055c2.713-1.106,9.6.844,12.4,4.161" transform="translate(-337.635 -4778.744)" fill="none" stroke="#fff4ef" stroke-miterlimit="10" stroke-width="1.5"/>
                      </g>
                    </g>
                    <g id="Grupo_928173" data-name="Grupo 928173" transform="translate(93.87)">
                      <g id="Grupo_928168" data-name="Grupo 928168">
                        <path id="Trazado_621150" data-name="Trazado 621150" d="M430.61,4738.2c-.811-12.091-1.306-24.17-1.309-36.282,0-4.313.051-8.63.186-12.953.41-13.135-.817-21.193,2.346-34.048,2.752-11.183-1.977-69.5-2.823-104.944.675-2.523,1.286-4.861,1.809-6.932-.611-1.241-1.261-2.4-1.934-3.519.013-3.514.1-6.61.27-9.166,8.954-13.861,26.362-17.875,41.573-20.16,8.354,40.606.3,97.261-2.775,109.717-2.328,9.428-4.983,27.321-7.849,37.753-1.848,6.73-4.931,28.938-6.663,42.41-.472,3.66-.842,6.68-1.061,8.565q-1.715,14.7-3.427,29.406A63.931,63.931,0,0,1,430.61,4738.2Z" transform="translate(-428.885 -4510.193)" fill="#ffcdc4"/>
                        <path id="Trazado_621151" data-name="Trazado 621151" d="M449.144,4763.333q-1.21,10.392-2.419,20.782l-4.822,4.545a6.527,6.527,0,0,1-5.486-1.417c-3.721-2.941-4.43-8.215-4.815-12.943q-.437-5.41-.8-10.813A63.931,63.931,0,0,0,449.144,4763.333Z" transform="translate(-429.076 -4535.483)" fill="#fff4ef"/>
                      </g>
                      <g id="Grupo_928172" data-name="Grupo 928172" transform="translate(1.216 233.624)">
                        <g id="Grupo_928169" data-name="Grupo 928169">
                          <path id="Trazado_621152" data-name="Trazado 621152" d="M454.9,4799.137c-7.732-1.418-16.959-3.928-24.016-7.977a23.3,23.3,0,0,0,.94-4.189c.227-3.4-2.185-10.273,1.57-9.387,5.1,1.2,6.737.469,8.379-3.732.932-2.389.521-2.513,2.959-3.331,1.325-.444,3.883-1.038,5.25-.645,2.4.69,1.824,2.336,2.969,4.427,1.014,1.853,2.01,2.335,3.877,3.3,4.016,2.078,7.662,4.478,12.132,5.437,11.785,2.527,16.306,6.527,15.625,14.284-2.849,1.33-6.392,1.711-10.4,2.05C468.353,4799.865,460.574,4800.177,454.9,4799.137Z" transform="translate(-430.3 -4769.748)" fill="#4c4642"/>
                          <path id="Trazado_621153" data-name="Trazado 621153" d="M453.08,4801.175c5.672,1.041,15.208,1.066,21.044.575,4-.338,7.547-.721,10.4-2.05a24.135,24.135,0,0,1-.568,3.421c-.745,3.174-9.108,4.231-11.712,4.35a84.149,84.149,0,0,1-18.294-1.66c-11.93-2.113-11.93-2.113-21.7-5.937-2.654-1.038-2.158-3.641-1.421-6.337C437.879,4797.585,445.349,4799.756,453.08,4801.175Z" transform="translate(-430.235 -4772.124)" fill="#fff4ef"/>
                        </g>
                        <path id="Trazado_621154" data-name="Trazado 621154" d="M444.451,4793.494c-1.691-3.759-7.067-7.812-9.588-9.9a1.215,1.215,0,0,0-.917-.392c-.482.083-.671.683-.657,1.172.1,3.12,3.217,6.192,5.185,8.257.159.167,6.567,5.563,6.5,2.914A5.383,5.383,0,0,0,444.451,4793.494Z" transform="translate(-430.54 -4771.091)" fill="#fff4ef"/>
                        <g id="Grupo_928170" data-name="Grupo 928170" transform="translate(11.161 6.671)">
                          <path id="Trazado_621155" data-name="Trazado 621155" d="M478.391,4786.476c-8.789-4.3-17.492,8.063-17.434,12.255" transform="translate(-444.465 -4778)" fill="none" stroke="#777470" stroke-miterlimit="10" stroke-width="1"/>
                          <path id="Trazado_621156" data-name="Trazado 621156" d="M442.635,4777.159c1.937,4.276,7.748,8.991,12.158,10.451" transform="translate(-442.635 -4777.159)" fill="none" stroke="#777470" stroke-miterlimit="10" stroke-width="1"/>
                        </g>
                        <g id="Grupo_928171" data-name="Grupo 928171" transform="translate(15.484 6.595)">
                          <path id="Trazado_621157" data-name="Trazado 621157" d="M468.278,4783.31c-3.755,1.094-8.5,2.437-10.253,6.288" transform="translate(-448.496 -4777.697)" fill="none" stroke="#fff4ef" stroke-miterlimit="10" stroke-width="1.5"/>
                          <path id="Trazado_621158" data-name="Trazado 621158" d="M462.251,4780.1c-4.058,1.254-7.589,2.787-9.855,6.453" transform="translate(-447.933 -4777.376)" fill="none" stroke="#fff4ef" stroke-miterlimit="10" stroke-width="1.5"/>
                          <path id="Trazado_621159" data-name="Trazado 621159" d="M457.1,4777.077c-2.927-.078-8.211,1.789-9.665,5.882" transform="translate(-447.438 -4777.074)" fill="none" stroke="#fff4ef" stroke-miterlimit="10" stroke-width="1.5"/>
                        </g>
                      </g>
                    </g>
                  </g>
                  <g id="Grupo_928176" data-name="Grupo 928176" transform="translate(19.378)">
                    <path id="Trazado_621160" data-name="Trazado 621160" d="M368.987,4492.556c-2.431,10.071-4.278,18.628-5.815,29.041-1.661,11.254-2.221,28.248-2.863,39.493-1.225,21.4-.162,40.935-2.577,62.3-2.82,24.939-11.648,80.028-11.607,83.009.067,4.9,3.008,4.86,14.329,8.138,4.975,1.438,16.456,1.369,22.815.3,2.3-.387,17.26-80.76,35.407-151.6.024,9.686-1.147,59.334-1.462,72.083-.9,36.386-3.623,48.354-4.579,80.515,11.788,3.145,27.592,4.421,39.846.849.032-11.542,3.3-57.688,5.46-69.2,18.771-100.253,8.795-122.025,6.658-131.447-.67-2.951-5.4-19.762-8.947-31.424" transform="translate(-346.126 -4482.482)" fill="#426580"/>
                    <g id="Grupo_928175" data-name="Grupo 928175" transform="translate(0.839)">
                      <path id="Trazado_621161" data-name="Trazado 621161" d="M437.343,4491.39c.181,13.148,1.057,13.71,1.792,26.76.436,7.708-.311,19.664-9.5,22.19" transform="translate(-355.308 -4483.16)" fill="none" stroke="#2c5169" stroke-miterlimit="10" stroke-width="1"/>
                      <path id="Trazado_621162" data-name="Trazado 621162" d="M427.332,4491.068c-.057,20.107,3.068,54.619-.61,72.317" transform="translate(-355.017 -4483.128)" fill="none" stroke="#2c5169" stroke-miterlimit="10" stroke-width="1"/>
                      <path id="Trazado_621163" data-name="Trazado 621163" d="M443.367,4564.609c-8.39,3.484-17.88,6.153-25.835,10.649" transform="translate(-354.099 -4490.475)" fill="none" stroke="#2c5169" stroke-miterlimit="10" stroke-width="1"/>
                      <path id="Trazado_621164" data-name="Trazado 621164" d="M441.394,4579.157a45.9,45.9,0,0,0-11.248-4.737" transform="translate(-355.359 -4491.456)" fill="none" stroke="#2c5169" stroke-miterlimit="10" stroke-width="1"/>
                      <path id="Trazado_621165" data-name="Trazado 621165" d="M390.186,4489.522c-5.972,26.737-20.549,36.233-25.954,37.333" transform="translate(-348.774 -4482.974)" fill="none" stroke="#2c5169" stroke-miterlimit="10" stroke-width="1"/>
                      <path id="Trazado_621166" data-name="Trazado 621166" d="M474.754,4514.323c-6.469-3.75-16.3-10.675-19.408-27.212" transform="translate(-357.876 -4482.732)" fill="none" stroke="#2c5169" stroke-miterlimit="10" stroke-width="1"/>
                      <path id="Trazado_621167" data-name="Trazado 621167" d="M432.5,4576.706c-1.073,47.922-3.947,97.593-7.088,145.46" transform="translate(-354.886 -4491.684)" fill="none" stroke="#2c5169" stroke-miterlimit="10" stroke-width="1"/>
                      <path id="Trazado_621168" data-name="Trazado 621168" d="M389.093,4649.051c-2.784,1.811-5.524,3.795-8.4,5.468" transform="translate(-350.418 -4498.912)" fill="none" stroke="#2c5169" stroke-miterlimit="10" stroke-width="1"/>
                      <path id="Trazado_621169" data-name="Trazado 621169" d="M458.309,4735.231c-9.529,3.945-23.961,4.21-33.9-.427" transform="translate(-354.785 -4507.479)" fill="none" stroke="#2c5169" stroke-miterlimit="10" stroke-width="1"/>
                      <path id="Trazado_621170" data-name="Trazado 621170" d="M383.614,4733.116c-16.413.962-29.944-1.5-36.556-5.031" transform="translate(-347.058 -4506.807)" fill="none" stroke="#2c5169" stroke-miterlimit="10" stroke-width="1"/>
                      <path id="Trazado_621171" data-name="Trazado 621171" d="M374.411,4484.744c7.113,3.043,26.421,5.256,41.772,4.68,8.169-.307,20.471-1.192,27-2.061,8.158-1.085,12.206-3.124,13.9-5.117" transform="translate(-349.791 -4482.247)" fill="none" stroke="#25201d" stroke-miterlimit="10" stroke-width="1"/>
                    </g>
                  </g>
                </g>
              </g>
              <g id="Grupo_928192" data-name="Grupo 928192" transform="translate(0 80.58)">
                <g id="Grupo_928182" data-name="Grupo 928182" transform="translate(122.183)">
                  <g id="Grupo_928179" data-name="Grupo 928179" transform="translate(0 12.709)">
                    <path id="Trazado_621172" data-name="Trazado 621172" d="M450.29,4386.417c3.84.387,8.969,3.564,12.192,5.73,3.015,2.026,4.329,5.354,5.888,8.533,5.444,11.1,7.152,24.123,13.124,34.986,3.3,6.384,6.392,12.758,9.589,19.261a19.943,19.943,0,0,1,1.7,4.243c.6,2.6.133,5.318-.335,7.949-.99,5.558-4.648,13.841-10.987,7.826-6.976-6.62-13.578-14.246-17.969-22.845-4.038-7.91-8.518-15.033-10.842-23.751C449.2,4415.406,445.946,4401.621,450.29,4386.417Z" transform="translate(-448.203 -4386.417)" fill="#ffcdc4"/>
                  </g>
                  <g id="Grupo_928181" data-name="Grupo 928181" transform="translate(30.009)">
                    <path id="Trazado_621173" data-name="Trazado 621173" d="M481.542,4465.008c1.041-9.926,4.337-19.132,7.392-28.536,2.51-7.726,6.587-26.467,6.262-28.672-.962-6.529-2.643-6.878-.406-13.461a71.549,71.549,0,0,0,1.6-7.051c.307-1.314.767-5.718,1.379-6.508,1.943-2.508,3.963,2.513,4.192,4.455.272,2.311-.819,5.252.064,7.278a54.1,54.1,0,0,0,6.649-10.956c1.529-3.281,5.719-8.58,9.769-8.554,1.194,1.162-3.7,9.48-5.868,12.6,1.465-1.636,12.195-13.281,14.257-13.309,3.814.7-2.392,8.283-4.135,10.076,2.912-2.545,6.1-6.272,7.311-4.079,2.4,2.767-7.237,12.053-10.084,16.788,2.2-.913,7.014-5.508,9.059-5.576,2.24,2.18-5.988,10.987-9.675,14.294-4.386,3.935-7.717,9.465-13.706,10.487-.162,5.562-1.239,40.464-3.71,51.767-1.268,5.807-4.242,8.857-10.328,9.719C485.8,4476.591,482.3,4470.853,481.542,4465.008Z" transform="translate(-481.542 -4372.299)" fill="#ffcdc4"/>
                    <g id="Grupo_928180" data-name="Grupo 928180" transform="translate(2.199 9.33)">
                      <path id="Trazado_621174" data-name="Trazado 621174" d="M519.036,4391.469c2.293-2.755,4.508-4.335,8.13-8.8" transform="translate(-487.487 -4382.664)" fill="none" stroke="#ed9288" stroke-miterlimit="10" stroke-width="1"/>
                      <path id="Trazado_621175" data-name="Trazado 621175" d="M513.256,4388.76c2.745,3.232,6.159,6.613,8.391,10.2" transform="translate(-486.909 -4383.273)" fill="none" stroke="#ed9288" stroke-miterlimit="10" stroke-width="1"/>
                      <path id="Trazado_621176" data-name="Trazado 621176" d="M507.932,4405.879c2.6-2.531,4.323-3.881,8.045-4.237" transform="translate(-486.377 -4384.559)" fill="none" stroke="#ed9288" stroke-miterlimit="10" stroke-width="1"/>
                      <path id="Trazado_621177" data-name="Trazado 621177" d="M483.985,4461.085a76.364,76.364,0,0,1,3.656-12.722" transform="translate(-483.985 -4389.227)" fill="none" stroke="#ed9288" stroke-miterlimit="10" stroke-width="1"/>
                    </g>
                  </g>
                </g>
                <g id="Grupo_928185" data-name="Grupo 928185" transform="translate(45.667 8.543)">
                  <path id="Trazado_621178" data-name="Trazado 621178" d="M448.779,4385.388a22.719,22.719,0,0,1,13.26,3.648c5.022,3.241,7.315,8.279,10.179,13.417,1.082,1.938,2.252,3.858,3.213,5.874.769,1.613,2.791,4.9,3.092,6.4,1.181,5.936-8.563,15.068-13.241,17.292-1.158.55-4.555,1.87-5.828,1.632-1.808-.337-1.928-1.784-2.748-3.618a110.277,110.277,0,0,1-6.031-19.023C449.017,4404.241,446.536,4397.6,448.779,4385.388Z" transform="translate(-371.655 -4382.148)" fill="#f889b3"/>
                  <path id="Trazado_621179" data-name="Trazado 621179" d="M371.064,4431.639c-1.309-8.231-1.139-16.884-1.2-25.251-.045-6.119-4.427-15.8,1.323-19.723,2.851-1.945,8.122-2.975,9.589-3.23,1.339-.233,9.332-1.366,10.266-1.613,1.017-.27,2.083,1.173,2.959,1.924,3.941,3.377,7.375,5.752,12.286,7.358a26.393,26.393,0,0,0,16.059.514c3.643-1.036,9.231-3.343,9.268-7.893,6.693.963,8.217.89,11.985,2.393,2.576,1.027,4.474,3.837,5.587,6.316,2.53,5.636,2.457,12.01,3.383,18.009a82.668,82.668,0,0,0,2.4,11.218c.75,2.873,6.312,1.878,2.955,14.894-1.026,3.976-3.189,7.666-3.8,11.761-.889,5.934-.09,12.521,1.222,18.327a13.155,13.155,0,0,0,2.125,5.262,16.368,16.368,0,0,1,2.032,2.583,9.682,9.682,0,0,1,.5,4.3c.011,5.442,7.672,15.388,5.852,20.127-1.052,2.738-6.064,3.74-8.843,4.676-11.519,3.881-23.8,4.76-35.924,5.609-17.519,1.226-35.839,2.323-51.93-4.714a11.967,11.967,0,0,1-4.764-3.207,4.77,4.77,0,0,1-.6-5.4c.586-.893,1.564-1.512,1.991-2.492.954-2.188-1.329-4.547-1.115-6.925.192-2.137,2.245-3.512,3.765-5.026,3.967-3.952,4.8-10,5.084-15.6a140.345,140.345,0,0,0-2.167-32.571Q371.194,4432.458,371.064,4431.639Z" transform="translate(-363.194 -4381.789)" fill="#f889b3"/>
                  <g id="Grupo_928184" data-name="Grupo 928184" transform="translate(9.041 15.259)">
                    <g id="Grupo_928183" data-name="Grupo 928183" transform="translate(77.435)">
                      <path id="Trazado_621180" data-name="Trazado 621180" d="M459.269,4398.742c2.924,8.325,1.381,10.118,3.249,18.749,1.168,5.391,9.573,10.376,4.623,21.939-1.522,3.558-3.809,8.7-4.514,14.6" transform="translate(-459.269 -4398.742)" fill="none" stroke="#e15c87" stroke-miterlimit="10" stroke-width="1"/>
                      <path id="Trazado_621181" data-name="Trazado 621181" d="M467.431,4413.918a59.943,59.943,0,0,1-2.728,10.175" transform="translate(-459.812 -4400.258)" fill="none" stroke="#e15c87" stroke-miterlimit="10" stroke-width="1"/>
                    </g>
                    <path id="Trazado_621182" data-name="Trazado 621182" d="M422.345,4455.359c8.963-2.625,16.917-5.083,26.256-5.075" transform="translate(-378.145 -4403.892)" fill="none" stroke="#e15c87" stroke-miterlimit="10" stroke-width="1"/>
                    <path id="Trazado_621183" data-name="Trazado 621183" d="M373.239,4503.741c11.054,6.381,23.6,9.892,36.417,11.659a114.067,114.067,0,0,0,37.985-1.286" transform="translate(-373.239 -4409.232)" fill="none" stroke="#e15c87" stroke-miterlimit="10" stroke-width="1"/>
                  </g>
                </g>
                <g id="Grupo_928191" data-name="Grupo 928191" transform="translate(0 11.612)">
                  <g id="Grupo_928188" data-name="Grupo 928188" transform="translate(0 4.44)">
                    <g id="Grupo_928187" data-name="Grupo 928187">
                      <path id="Trazado_621184" data-name="Trazado 621184" d="M369.625,4393.969c-3.559-.261-5.846-10.655-13.715,3.913-2.2,4.073-2.59,5.622-3.434,10.156-1.689,9.079-2.864,24.451-4.557,33.528-3.759,20.153-4.837,39.748-6.844,60.1-.454,4.6-.262,26.309-5.562,28.658-.665.293-1.342.571-2.022.844-5.624,1.988-11.528,3.546-17.048,5.636a3.879,3.879,0,0,0-2.428,1.781c-.79,1.894,1.626,4.1.695,5.929-1.069,2.094-3.193,3.765-1.782,7.328.138.347.59.485.75.821.068.141.1.293.157.44,1.191,3.223,4.947-1.817,6.04-3.024,1.991-2.2,3.626-4.168,6.536-5.208-2.99,3.219-4.5,6.469-6.5,10.383.242,1.608,1.839,1.427,2.982.5s3.106-3.811,4.042-4.946a42.387,42.387,0,0,1,6.746-6.842c1.189-.874,5.545-.888,8.3-1.02a8.075,8.075,0,0,1-2.96,2.216,16.573,16.573,0,0,0-3.918,3.066c-1.059,1.113-2.841,5.446.173,4.216a11,11,0,0,0,2.772-1.635,18.559,18.559,0,0,1,4.085-2.264c1.453-.692,2.738-1.71,4.205-2.382,1.627-.746,3.71-1.488,4.734-3.074,1.105-1.714,1.36-5.027,1.4-7.042.032-1.576-.4-2.9-.172-4.511.211-1.466.646-3,.971-4.375,2.323-9.813.942-14.971,3.5-24.713,1.79-6.826,4.494-18.533,5.664-25.506.571-3.409,13.85-62.543,14.941-65.84C384.829,4389.364,371.388,4394.1,369.625,4393.969Z" transform="translate(-312.459 -4390.133)" fill="#ffcdc4"/>
                      <g id="Grupo_928186" data-name="Grupo 928186" transform="translate(1.473 148.346)">
                        <path id="Trazado_621185" data-name="Trazado 621185" d="M314.095,4568.969a18.176,18.176,0,0,1,1.953-4c2.58-3.988,5.4-5.809,8.169-8.408.377-.353.78-.259,1.27-.425" transform="translate(-314.095 -4555.064)" fill="none" stroke="#ed9288" stroke-miterlimit="10" stroke-width="1"/>
                        <path id="Trazado_621186" data-name="Trazado 621186" d="M315.4,4560.713c.347-1.3,1.47-2.341,2.305-3.344.494-.595,3.353-1.882,3.884-2.424-.378,0-2.573.186-2.958.2" transform="translate(-314.226 -4554.944)" fill="none" stroke="#ed9288" stroke-miterlimit="10" stroke-width="1"/>
                      </g>
                    </g>
                  </g>
                  <g id="Grupo_928190" data-name="Grupo 928190" transform="translate(33.053)">
                    <path id="Trazado_621187" data-name="Trazado 621187" d="M383.241,4385.434c-2.536-.226-6.34-.486-8.787.266-2.486.764-4.754-.012-7.116.917-8.425,3.311-11.392,12.836-14.513,20.764-1.391,3.532-1.93,7.409-2.713,11.143-.691,3.3-1.948,5.147.572,7.262,6.774,5.685,17.195,5.479,25.387,5.33.869-.015,3.545.533,4.242.013.881-.656,1.407-4.5,1.754-5.593C385.4,4415.072,390.016,4401.148,383.241,4385.434Z" transform="translate(-349.18 -4385.2)" fill="#f889b3"/>
                    <g id="Grupo_928189" data-name="Grupo 928189" transform="translate(18.636 4.344)">
                      <path id="Trazado_621188" data-name="Trazado 621188" d="M369.885,4390.027c5.5,3.678,8.744,9.667,10.526,15.9a65.242,65.242,0,0,1,2.649,16.4,81.673,81.673,0,0,1-.085,9.565" transform="translate(-369.885 -4390.027)" fill="none" stroke="#e15c87" stroke-miterlimit="10" stroke-width="1"/>
                    </g>
                  </g>
                </g>
              </g>
            </g>
          </g>
        </g>
      </g>
    </g>
  </g>
</svg>
