<svg xmlns="http://www.w3.org/2000/svg" xmlns:xlink="http://www.w3.org/1999/xlink" width="1207.247" height="599.967" viewBox="0 0 1207.247 599.967">
  <defs>
    <clipPath id="clip-path">
      <path id="Rectángulo_335407" data-name="Rectángulo 335407" d="M80.093,2006.612H1267.869a9.572,9.572,0,0,1,9.735,9.4V2597.09a9.573,9.573,0,0,1-9.735,9.4H80.093a9.574,9.574,0,0,1-9.736-9.4V2016.014A9.573,9.573,0,0,1,80.093,2006.612Z" fill="none"/>
    </clipPath>
    <clipPath id="clip-path-2">
      <rect id="Rectángulo_335516" data-name="Rectángulo 335516" width="325.938" height="424.515" transform="translate(268.893 4116.8)" fill="none"/>
    </clipPath>
    <clipPath id="clip-path-3">
      <rect id="Rectángulo_335523" data-name="Rectángulo 335523" width="478.41" height="362.821" transform="translate(639.626 4183.346)" fill="none"/>
    </clipPath>
  </defs>
  <g id="Grupo_932061" data-name="Grupo 932061" transform="translate(2016.623 -177)">
    <g id="Grupo_931777" data-name="Grupo 931777" transform="translate(-2086.98 -1829.612)">
      <g id="Grupo_931073" data-name="Grupo 931073">
        <g id="Grupo_931072" data-name="Grupo 931072" clip-path="url(#clip-path)">
          <g id="Grupo_931070" data-name="Grupo 931070" opacity="0.57">
            <path id="Trazado_639580" data-name="Trazado 639580" d="M1289.745,2417.778c-45.563-22.965-90.221-35.892-148.362-38.772s-118.012,6.858-164.313,28.645c-49.721,23.4-81.02,58.47-118.822,89.348-31.56,25.78-70.006,49.745-118.863,60.989-69.9,16.087-147.7,3.741-220.692-6.775s-154.179-18.381-218.514,4.956c-21.363,7.75-53.571,31.079-63.186,48.586" fill="none" stroke="#fccf00" stroke-miterlimit="10" stroke-width="1" opacity="0.53" style="mix-blend-mode: multiply;isolation: isolate"/>
            <path id="Trazado_639581" data-name="Trazado 639581" d="M1287.732,2428.91c-34.842-18.472-76.844-20.935-122.308-22.206-36.534-1.021-73.715-.443-108.549,6.251-35.375,6.8-66.846,19.614-96.825,33.084-91.016,40.9-180.054,91.2-291.813,99.593-97.165,7.3-201.489-18.47-291.18,5.582-35.413,9.5-91.107,33.265-109.554,54.367L1285.55,2614.4Z" fill="#fccf00" opacity="0.53" style="mix-blend-mode: multiply;isolation: isolate"/>
            <path id="Trazado_639582" data-name="Trazado 639582" d="M1286.477,2615.587l.109-9.269c.624-53.076-30.388-101.931-79.876-125.024l-1.022-.476c-24.847-11.548-51.671-22.028-81.533-27.006s-63.33-3.888-89.135,6.475c-58.021,23.3-54.048,79.608-103.187,109.806-38.05,23.384-99.019,25.2-151.377,17.472s-101.289-23.357-153.929-30.263c-93.664-12.287-195.693,5.61-264.635,46.42-1.206.714-.8,5.693,1.6,1.151" fill="#ffeacf" opacity="0.46" style="mix-blend-mode: screen;isolation: isolate"/>
            <path id="Trazado_639583" data-name="Trazado 639583" d="M712.884,2574.25c-29.668-2.681-58.164-9.054-87.222-13.729a769.873,769.873,0,0,0-188.208-6.623c-23.553,2.078-47.327,5.364-67.635,13.006-22.344,8.409-38.993,21.506-54.174,34.742" fill="none" stroke="#ffd297" stroke-miterlimit="10" stroke-width="1.168" opacity="0.28" style="mix-blend-mode: screen;isolation: isolate"/>
            <path id="Trazado_639584" data-name="Trazado 639584" d="M1289.191,2481.117c-12.807-17.4-35.734-31.517-62.315-41.1s-56.694-14.832-87.034-17.321c-23.729-1.946-48.033-2.238-71.29,1.056-25.876,3.665-49.563,11.619-72.342,20.037-12.584,4.649-82.753,85.322-85.22,94.342-19.541,71.455-167.328,17-184.857,44.64" fill="none" stroke="#ffd297" stroke-miterlimit="10" stroke-width="1.168" opacity="0.28" style="mix-blend-mode: screen;isolation: isolate"/>
          </g>
          <g id="Grupo_931071" data-name="Grupo 931071" opacity="0.57">
            <path id="Trazado_639585" data-name="Trazado 639585" d="M59.638,2196.092c46,22.138,90.9,34.257,149.086,36.088s117.859-8.987,163.731-31.6c49.26-24.29,79.874-59.922,117.072-91.477,31.056-26.345,69.031-51,117.662-63.123,69.574-17.346,147.6-6.405,220.785,2.791s154.507,15.595,218.38-8.9c21.21-8.134,52.96-32.04,62.235-49.718" fill="none" stroke="#fccf00" stroke-miterlimit="10" stroke-width="1" opacity="0.53" style="mix-blend-mode: multiply;isolation: isolate"/>
            <path id="Trazado_639586" data-name="Trazado 639586" d="M61.435,2184.925c35.194,17.84,77.236,19.545,122.717,20,36.547.361,73.71-.887,108.408-8.21,35.238-7.436,66.456-20.816,96.169-34.825,90.208-42.532,178.258-94.431,289.835-104.841,97.007-9.051,201.812,14.831,291.021-10.836,35.223-10.134,90.448-34.9,108.483-56.334l-1018.04,9.551Z" fill="#fccf00" opacity="0.53" style="mix-blend-mode: multiply;isolation: isolate"/>
            <path id="Trazado_639587" data-name="Trazado 639587" d="M59.078,1998.259l.071,9.269c.4,53.078,32.354,101.365,82.28,123.561l1.032.457c25.066,11.1,52.088,21.092,82.041,25.53s63.4,2.745,88.994-8.083c57.56-24.345,52.5-80.569,101.044-111.648,37.592-24.066,98.515-26.984,151.013-20.2s101.724,21.525,154.487,27.48c93.887,10.595,195.551-9.14,263.692-51.187,1.192-.736.693-5.707-1.623-1.122" fill="#ffeacf" opacity="0.46" style="mix-blend-mode: screen;isolation: isolate"/>
            <path id="Trazado_639588" data-name="Trazado 639588" d="M633.371,2029.237c29.715,2.145,58.329,8,87.473,12.153a769.938,769.938,0,0,0,188.3,3.226c23.51-2.5,47.216-6.218,67.372-14.225,22.178-8.81,38.57-22.206,53.493-35.713" fill="none" stroke="#ffd297" stroke-miterlimit="10" stroke-width="1.168" opacity="0.28" style="mix-blend-mode: screen;isolation: isolate"/>
            <path id="Trazado_639589" data-name="Trazado 639589" d="M58.967,2132.754c13.141,17.162,36.337,30.867,63.1,39.967s56.971,13.807,87.354,15.747c23.762,1.518,48.068,1.371,71.257-2.342,25.8-4.131,49.329-12.511,71.942-21.338,12.491-4.876,81.087-86.8,83.379-95.864,18.155-71.8,166.97-20.013,183.962-47.968" fill="none" stroke="#ffd297" stroke-miterlimit="10" stroke-width="1.168" opacity="0.28" style="mix-blend-mode: screen;isolation: isolate"/>
          </g>
        </g>
      </g>
    </g>
    <g id="Grupo_931897" data-name="Grupo 931897" transform="translate(-2249.893 -3764.434)">
      <g id="Grupo_931896" data-name="Grupo 931896" clip-path="url(#clip-path-2)">
        <ellipse id="Elipse_4963" data-name="Elipse 4963" cx="87.151" cy="13.222" rx="87.151" ry="13.222" transform="translate(309.759 4625.195)" fill="#32324c" opacity="0.1"/>
        <g id="Grupo_931778" data-name="Grupo 931778">
          <path id="Trazado_640032" data-name="Trazado 640032" d="M517.3,4483.48c-7.37,108.64-144.443,152.668-212.11,67.357-13.819-17.423-17.125-59.437-13.545-81.6,14.431-89.321,60.238-98.447,26.039-154.947s-37.376-159.071,57.038-158.27,33.552,151.707,98.589,193.915C503.054,4369.241,521.134,4426.9,517.3,4483.48Z" fill="#32324c" opacity="0.1"/>
          <path id="Trazado_640033" data-name="Trazado 640033" d="M481.511,4325.514a14.405,14.405,0,0,1-15.88-4.566c-6.144-7.444-15.946-22.475-13.028-39.967,4.168-24.988,35.835-5.039,38.326,23.048C492.174,4318.072,487,4323.549,481.511,4325.514Z" fill="#32324c" opacity="0.1"/>
          <path id="Trazado_640034" data-name="Trazado 640034" d="M447.788,4259.8a7.513,7.513,0,0,1-5.091-6.955c-.156-5.032.6-14.362,7.391-20.645,9.7-8.974,16.39,9.367,8.446,21.747C454.563,4260.135,450.679,4260.741,447.788,4259.8Z" fill="#32324c" opacity="0.1"/>
          <path id="Trazado_640035" data-name="Trazado 640035" d="M292.242,4381.908a7.513,7.513,0,0,1-6.266-5.917c-1.066-4.921-2.011-14.234,3.528-21.642,7.914-10.584,17.815,6.242,12.246,19.856C298.966,4381.012,295.256,4382.311,292.242,4381.908Z" fill="#32324c" opacity="0.1"/>
        </g>
        <g id="Grupo_931780" data-name="Grupo 931780">
          <g id="Grupo_931779" data-name="Grupo 931779">
            <path id="Trazado_640036" data-name="Trazado 640036" d="M535.415,4278.79a50.185,50.185,0,0,1,8.589-4.268c4.24-1.507,9.435-3.2,12.067-4.079,3.165-1.06,3.143,2.678-1.155,4.381s-5.273,2.113-5.273,2.113,17.762-2.259,22.4-.964c4.23,1.182-5.5,2.916-13.472,4.8,0,0,17.534.8,19.012,3.39,1.941,3.4-19.3,2.374-19.3,2.374s15.548,3.087,14.92,4.894c-.7,2.015-17,.8-17,.8s10.493,3.066,9.65,4.114c-1.67,2.075-24.863.213-32.627-7.059C533.223,4289.285,533.551,4280.591,535.415,4278.79Z" fill="#ffaf82"/>
            <path id="Trazado_640037" data-name="Trazado 640037" d="M555.151,4279.121s1.321,8.3-3.42,14.514C551.731,4293.635,558.819,4290.106,555.151,4279.121Z" fill="#f88968"/>
            <path id="Trazado_640038" data-name="Trazado 640038" d="M549.07,4285.108s-9.111,3.671-12.13-4.459C536.94,4280.649,537.39,4290.891,549.07,4285.108Z" fill="#f88968"/>
          </g>
          <path id="Trazado_640039" data-name="Trazado 640039" d="M471.571,4258.478c-33.7-32.292-57.3-38.428-69.282-39.824-6.122-.712-9.063-1.212-9.063-1.212,6.284,37.469,57.272,52.5,69.284,59s71.8,13.964,71.8,13.964a20.022,20.022,0,0,1,2.588-12.5s-23.264-6.827-31.8-9.551S471.571,4258.478,471.571,4258.478Z" fill="#00784e"/>
        </g>
        <g id="Grupo_931856" data-name="Grupo 931856">
          <g id="Grupo_931814" data-name="Grupo 931814">
            <g id="Grupo_931781" data-name="Grupo 931781">
              <path id="Trazado_640040" data-name="Trazado 640040" d="M433.476,4500.591,423.9,4616.3h-16.88c-3.906-45.093-10.208-84.6-3.1-115.707-7.158-35.066-12.477-114.659-12.477-114.659,12.881-5.9,33.537-11.276,33.537-11.276C431.824,4413.575,433.476,4500.591,433.476,4500.591Z" fill="#050705"/>
            </g>
            <g id="Grupo_931813" data-name="Grupo 931813">
              <g id="Grupo_931783" data-name="Grupo 931783">
                <g id="Grupo_931782" data-name="Grupo 931782">
                  <path id="Trazado_640041" data-name="Trazado 640041" d="M463.093,4643.572h-55.2a5.112,5.112,0,0,1-5.068-4.428,5,5,0,0,1-.03-1.075l2.242-28.994a32.291,32.291,0,0,1,5.514-1.821,5.59,5.59,0,0,0,4.093-3.713c.041-.137.076-.28.112-.421,1.268-5.58,9.313-7.355,10.8-1.9q.289,1.058.5,2.049c.035.162.071.329.1.487.239,1.171.411,2.252.533,3.2.005.02.005.04.01.06a31.018,31.018,0,0,1,.274,3.941q1.1,1.393,2.121,2.74c.349.446.684.892,1.019,1.328.726.944,1.43,1.862,2.125,2.745.32.416.639.816.959,1.212.766.959,1.522,1.867,2.277,2.714.341.385.68.761,1.031,1.121,2.845,2.992,5.716,5.037,9.109,5.508,5.986.822,15.765,1.482,20.488,10.267a3.176,3.176,0,0,1,.238.558A3.4,3.4,0,0,1,463.093,4643.572Z" fill="#de9d01"/>
                </g>
              </g>
              <g id="Grupo_931785" data-name="Grupo 931785">
                <g id="Grupo_931784" data-name="Grupo 931784">
                  <path id="Trazado_640042" data-name="Trazado 640042" d="M463.093,4643.571h-55.2a5.112,5.112,0,0,1-5.068-4.428h63.517A3.4,3.4,0,0,1,463.093,4643.571Z" fill="#bf8005"/>
                </g>
              </g>
              <g id="Grupo_931793" data-name="Grupo 931793">
                <g id="Grupo_931788" data-name="Grupo 931788">
                  <g id="Grupo_931787" data-name="Grupo 931787">
                    <g id="Grupo_931786" data-name="Grupo 931786">
                      <path id="Trazado_640043" data-name="Trazado 640043" d="M430.112,4615.019c-.639.939-1.943,2.075-4.57,3.125q-.67.275-1.461.533l-.477-1.441c.523-.172.994-.345,1.42-.517,3.018-1.218,3.845-2.414,4.069-3.028C429.442,4614.137,429.777,4614.583,430.112,4615.019Z" fill="#fff"/>
                    </g>
                  </g>
                </g>
                <g id="Grupo_931792" data-name="Grupo 931792">
                  <g id="Grupo_931791" data-name="Grupo 931791">
                    <g id="Grupo_931790" data-name="Grupo 931790">
                      <g id="Grupo_931789" data-name="Grupo 931789">
                        <circle id="Elipse_4964" data-name="Elipse 4964" cx="1.712" cy="1.712" r="1.712" transform="translate(422.129 4616.245)" fill="#fff"/>
                      </g>
                    </g>
                  </g>
                </g>
              </g>
              <g id="Grupo_931801" data-name="Grupo 931801">
                <g id="Grupo_931796" data-name="Grupo 931796">
                  <g id="Grupo_931795" data-name="Grupo 931795">
                    <g id="Grupo_931794" data-name="Grupo 931794">
                      <path id="Trazado_640044" data-name="Trazado 640044" d="M433.2,4618.976a10.8,10.8,0,0,1-3.779,2.379c-.527.228-1.106.441-1.75.654l-.477-1.445q.9-.3,1.613-.594a8.681,8.681,0,0,0,3.434-2.206C432.557,4618.18,432.876,4618.58,433.2,4618.976Z" fill="#fff"/>
                    </g>
                  </g>
                </g>
                <g id="Grupo_931800" data-name="Grupo 931800">
                  <g id="Grupo_931799" data-name="Grupo 931799">
                    <g id="Grupo_931798" data-name="Grupo 931798">
                      <g id="Grupo_931797" data-name="Grupo 931797">
                        <path id="Trazado_640045" data-name="Trazado 640045" d="M429.42,4621.288a1.712,1.712,0,1,1-1.712-1.712A1.711,1.711,0,0,1,429.42,4621.288Z" fill="#fff"/>
                      </g>
                    </g>
                  </g>
                </g>
              </g>
              <g id="Grupo_931809" data-name="Grupo 931809">
                <g id="Grupo_931804" data-name="Grupo 931804">
                  <g id="Grupo_931803" data-name="Grupo 931803">
                    <g id="Grupo_931802" data-name="Grupo 931802">
                      <path id="Trazado_640046" data-name="Trazado 640046" d="M436.5,4622.811a11,11,0,0,1-3.663,2.277c-.533.228-1.121.452-1.775.665l-.472-1.446c.6-.2,1.141-.4,1.623-.6a9.424,9.424,0,0,0,3.256-2.014C435.814,4622.075,436.153,4622.451,436.5,4622.811Z" fill="#fff"/>
                    </g>
                  </g>
                </g>
                <g id="Grupo_931808" data-name="Grupo 931808">
                  <g id="Grupo_931807" data-name="Grupo 931807">
                    <g id="Grupo_931806" data-name="Grupo 931806">
                      <g id="Grupo_931805" data-name="Grupo 931805">
                        <path id="Trazado_640047" data-name="Trazado 640047" d="M432.844,4625.029a1.712,1.712,0,1,1-1.712-1.712A1.712,1.712,0,0,1,432.844,4625.029Z" fill="#fff"/>
                      </g>
                    </g>
                  </g>
                </g>
              </g>
              <g id="Grupo_931812" data-name="Grupo 931812">
                <g id="Grupo_931811" data-name="Grupo 931811">
                  <g id="Grupo_931810" data-name="Grupo 931810">
                    <path id="Trazado_640048" data-name="Trazado 640048" d="M426.688,4606.95a38.724,38.724,0,0,0-4.92.278l.03-2.764a12.474,12.474,0,0,1,4.357-.71C426.394,4604.925,426.566,4606.006,426.688,4606.95Z" fill="#fff"/>
                  </g>
                </g>
              </g>
            </g>
          </g>
          <g id="Grupo_931855" data-name="Grupo 931855">
            <g id="Grupo_931853" data-name="Grupo 931853">
              <g id="Grupo_931815" data-name="Grupo 931815">
                <path id="Trazado_640049" data-name="Trazado 640049" d="M382.346,4385.932s-.435,45.933-6.953,114.659c-4.249,37.447-8.979,84.428-14.23,115.707h-16.9l-2.384-115.707s-3.868-71.207,4.538-120.272Z" fill="#2c2c2c"/>
              </g>
              <g id="Grupo_931852" data-name="Grupo 931852">
                <g id="Grupo_931818" data-name="Grupo 931818">
                  <g id="Grupo_931817" data-name="Grupo 931817">
                    <g id="Grupo_931816" data-name="Grupo 931816">
                      <path id="Trazado_640050" data-name="Trazado 640050" d="M375.97,4639.715c-.487,9.727-30.9,6.376-35.762,3.458-1.877-1.128-2.665-3.3-2.811-5.934-.238-4.2,1.143-9.566,2.34-13.773,1.945-6.853,1.678-6.726,3.03-11.41,0,0-.351-7.616,9.615-10.525s13.618,16.055,15.32,19.7c1.556,3.342,7.611,7.913,8.239,16.138A18.742,18.742,0,0,1,375.97,4639.715Z" fill="#de9d01"/>
                    </g>
                  </g>
                </g>
                <g id="Grupo_931821" data-name="Grupo 931821">
                  <g id="Grupo_931820" data-name="Grupo 931820">
                    <g id="Grupo_931819" data-name="Grupo 931819">
                      <path id="Trazado_640051" data-name="Trazado 640051" d="M346.97,4618.211l-.8-1.222c.37-.242,9.164-5.88,16.816-2.524l-.586,1.336C355.467,4612.759,347.055,4618.156,346.97,4618.211Z" fill="#fff"/>
                    </g>
                  </g>
                </g>
                <g id="Grupo_931824" data-name="Grupo 931824">
                  <g id="Grupo_931823" data-name="Grupo 931823">
                    <g id="Grupo_931822" data-name="Grupo 931822">
                      <path id="Trazado_640052" data-name="Trazado 640052" d="M347.838,4626.676l-.8-1.223c.37-.241,9.165-5.879,16.817-2.524l-.587,1.337C356.333,4621.222,347.922,4626.621,347.838,4626.676Z" fill="#fff"/>
                    </g>
                  </g>
                </g>
                <g id="Grupo_931827" data-name="Grupo 931827">
                  <g id="Grupo_931826" data-name="Grupo 931826">
                    <g id="Grupo_931825" data-name="Grupo 931825">
                      <path id="Trazado_640053" data-name="Trazado 640053" d="M347.4,4622.444l-.8-1.223c.371-.241,9.165-5.88,16.817-2.524l-.586,1.336C355.9,4616.99,347.488,4622.388,347.4,4622.444Z" fill="#fff"/>
                    </g>
                  </g>
                </g>
                <g id="Grupo_931830" data-name="Grupo 931830">
                  <g id="Grupo_931829" data-name="Grupo 931829">
                    <g id="Grupo_931828" data-name="Grupo 931828">
                      <path id="Trazado_640054" data-name="Trazado 640054" d="M348.126,4617.829a1.641,1.641,0,1,1-1.641-1.641A1.641,1.641,0,0,1,348.126,4617.829Z" fill="#fff"/>
                    </g>
                  </g>
                </g>
                <g id="Grupo_931833" data-name="Grupo 931833">
                  <g id="Grupo_931832" data-name="Grupo 931832">
                    <g id="Grupo_931831" data-name="Grupo 931831">
                      <path id="Trazado_640055" data-name="Trazado 640055" d="M348.213,4621.84a1.642,1.642,0,1,1-1.641-1.642A1.641,1.641,0,0,1,348.213,4621.84Z" fill="#fff"/>
                    </g>
                  </g>
                </g>
                <g id="Grupo_931836" data-name="Grupo 931836">
                  <g id="Grupo_931835" data-name="Grupo 931835">
                    <g id="Grupo_931834" data-name="Grupo 931834">
                      <path id="Trazado_640056" data-name="Trazado 640056" d="M349.081,4625.85a1.641,1.641,0,1,1-1.642-1.641A1.642,1.642,0,0,1,349.081,4625.85Z" fill="#fff"/>
                    </g>
                  </g>
                </g>
                <g id="Grupo_931839" data-name="Grupo 931839">
                  <g id="Grupo_931838" data-name="Grupo 931838">
                    <g id="Grupo_931837" data-name="Grupo 931837">
                      <path id="Trazado_640057" data-name="Trazado 640057" d="M365.206,4623.481a1.641,1.641,0,1,1-1.642-1.641A1.642,1.642,0,0,1,365.206,4623.481Z" fill="#fff"/>
                    </g>
                  </g>
                </g>
                <g id="Grupo_931842" data-name="Grupo 931842">
                  <g id="Grupo_931841" data-name="Grupo 931841">
                    <g id="Grupo_931840" data-name="Grupo 931840">
                      <path id="Trazado_640058" data-name="Trazado 640058" d="M364.772,4619.1a1.641,1.641,0,1,1-1.641-1.641A1.64,1.64,0,0,1,364.772,4619.1Z" fill="#fff"/>
                    </g>
                  </g>
                </g>
                <g id="Grupo_931845" data-name="Grupo 931845">
                  <g id="Grupo_931844" data-name="Grupo 931844">
                    <g id="Grupo_931843" data-name="Grupo 931843">
                      <path id="Trazado_640059" data-name="Trazado 640059" d="M364.339,4614.727a1.641,1.641,0,1,1-1.642-1.642A1.642,1.642,0,0,1,364.339,4614.727Z" fill="#fff"/>
                    </g>
                  </g>
                </g>
                <g id="Grupo_931848" data-name="Grupo 931848">
                  <g id="Grupo_931847" data-name="Grupo 931847">
                    <g id="Grupo_931846" data-name="Grupo 931846">
                      <path id="Trazado_640060" data-name="Trazado 640060" d="M375.97,4639.715c-.487,9.727-30.9,6.376-35.762,3.458-1.877-1.128-2.665-3.3-2.811-5.934,3.2,1.824,8.828,4.1,17.236,4.246,10.316.185,17.757-1.9,21.308-4.114A18.742,18.742,0,0,1,375.97,4639.715Z" fill="#bf8005"/>
                    </g>
                  </g>
                </g>
                <g id="Grupo_931851" data-name="Grupo 931851">
                  <g id="Grupo_931850" data-name="Grupo 931850">
                    <g id="Grupo_931849" data-name="Grupo 931849">
                      <path id="Trazado_640061" data-name="Trazado 640061" d="M356.682,4604.536a16.228,16.228,0,0,0-8.556,1.7l.446,3.08s5.512-1.621,9.16-1.378A7.238,7.238,0,0,0,356.682,4604.536Z" fill="#fff"/>
                    </g>
                  </g>
                </g>
              </g>
            </g>
            <g id="Grupo_931854" data-name="Grupo 931854">
              <path id="Trazado_640062" data-name="Trazado 640062" d="M348.8,4368.284s-5.724,20.244-5.667,38.289c0,0,28.02,12.261,63.666-1.287a28.715,28.715,0,0,0,16.756-36.479c-.062-.174-.124-.348-.187-.523C423.367,4368.284,377.785,4366.414,348.8,4368.284Z" fill="#2c2c2c"/>
            </g>
          </g>
        </g>
        <g id="Grupo_931875" data-name="Grupo 931875">
          <g id="Grupo_931860" data-name="Grupo 931860">
            <g id="Grupo_931859" data-name="Grupo 931859">
              <g id="Grupo_931858" data-name="Grupo 931858">
                <g id="Grupo_931857" data-name="Grupo 931857">
                  <path id="Trazado_640063" data-name="Trazado 640063" d="M433.477,4379.965a146.63,146.63,0,0,1-18.236,7.115q-2.526.79-5.093,1.483a112.571,112.571,0,0,1-27.7,4.033,83.714,83.714,0,0,1-45.856-12.277l9.889-58.765-16.364-95.572,24.48-8.386,1.314-.45,2.411-.825,1.021-.35,2.065-.705,4.361-1.5,25.894,3.463,1.56.208,2.654.355,1.483.2,18.525,2.473Z" fill="#009762"/>
                </g>
              </g>
            </g>
          </g>
          <path id="Trazado_640064" data-name="Trazado 640064" d="M410.148,4388.563a112.571,112.571,0,0,1-27.7,4.033q.624-3.953,1.025-8.178.208-2.1.351-4.265.294-4.24.4-8.69.053-2.1.058-4.249.018-4.252-.108-8.648-.063-2.109-.154-4.237-.185-4.265-.489-8.625c-.1-1.4-.2-2.809-.32-4.222q-.34-4.277-.786-8.606c-.142-1.4-.292-2.812-.45-4.218q-.474-4.289-1.037-8.591-.271-2.109-.562-4.221-.59-4.3-1.244-8.583-.324-2.115-.663-4.222-.687-4.321-1.433-8.59c-.242-1.414-.493-2.824-.743-4.226q-.78-4.345-1.6-8.594-.4-2.121-.82-4.226c-.578-2.916-1.164-5.794-1.753-8.614q-.445-2.144-.9-4.241-.946-4.42-1.895-8.625-.48-2.156-.967-4.249-1.029-4.483-2.034-8.652c-.346-1.452-.693-2.877-1.036-4.264-.751-3.066-1.483-5.967-2.18-8.679q-.573-2.224-1.11-4.28c-.99-3.767-1.887-7.072-2.654-9.83l2.065-.705,4.361-1.5,25.894,3.463,1.56.208q.7,3.663,1.367,7.342c.255,1.391.5,2.782.748,4.176q.733,4.184,1.429,8.379.353,2.091.686,4.183.675,4.2,1.309,8.378.318,2.1.624,4.188.618,4.2,1.2,8.378.3,2.1.574,4.2.567,4.212,1.094,8.386.267,2.115.524,4.21.515,4.23.994,8.394.243,2.121.474,4.222.474,4.248.9,8.41c.147,1.417.293,2.827.428,4.229q.434,4.264.809,8.421.2,2.144.385,4.245.381,4.293.713,8.432.178,2.156.339,4.261.328,4.328.612,8.452c.1,1.444.2,2.866.289,4.268q.283,4.38.509,8.482c.084,1.453.157,2.882.231,4.28.15,2.97.277,5.813.381,8.509.062,1.476.112,2.913.158,4.3.1,3.078.17,5.933.212,8.548q.035,2.29.038,4.326C410.26,4383.971,410.225,4386.494,410.148,4388.563Z" fill="#fff"/>
          <g id="Grupo_931874" data-name="Grupo 931874">
            <g id="Grupo_931861" data-name="Grupo 931861">
              <path id="Trazado_640065" data-name="Trazado 640065" d="M395.341,4228.96a176.981,176.981,0,0,1-22.539,1.31q-4.682,0-9.692-.189-.573-2.224-1.11-4.28a196.191,196.191,0,0,0,32.593-1.017C394.848,4226.175,395.094,4227.566,395.341,4228.96Z" fill="#e2e2e2"/>
            </g>
            <g id="Grupo_931862" data-name="Grupo 931862">
              <path id="Trazado_640066" data-name="Trazado 640066" d="M397.456,4241.522a177.788,177.788,0,0,1-24.928,1.579q-3.033,0-6.2-.077c-.346-1.452-.693-2.877-1.036-4.264a188.622,188.622,0,0,0,31.48-1.421Q397.123,4239.43,397.456,4241.522Z" fill="#e2e2e2"/>
            </g>
            <g id="Grupo_931863" data-name="Grupo 931863">
              <path id="Trazado_640067" data-name="Trazado 640067" d="M399.389,4254.088a178.533,178.533,0,0,1-27.181,1.853q-1.427,0-2.881-.016-.48-2.156-.967-4.249a182.314,182.314,0,0,0,30.405-1.776Q399.083,4252,399.389,4254.088Z" fill="#e2e2e2"/>
            </g>
            <g id="Grupo_931864" data-name="Grupo 931864">
              <path id="Trazado_640068" data-name="Trazado 640068" d="M401.161,4266.669a179.64,179.64,0,0,1-29.041,2.122q-.445-2.144-.9-4.241a175.874,175.874,0,0,0,29.365-2.084Q400.882,4264.569,401.161,4266.669Z" fill="#e2e2e2"/>
            </g>
            <g id="Grupo_931865" data-name="Grupo 931865">
              <path id="Trazado_640069" data-name="Trazado 640069" d="M402.779,4279.265a175.136,175.136,0,0,1-28.086,2.366q-.4-2.121-.82-4.226a172.432,172.432,0,0,0,28.382-2.35Q402.522,4277.17,402.779,4279.265Z" fill="#e2e2e2"/>
            </g>
            <g id="Grupo_931866" data-name="Grupo 931866">
              <path id="Trazado_640070" data-name="Trazado 640070" d="M404.247,4291.881a172.294,172.294,0,0,1-27.212,2.57c-.242-1.414-.493-2.824-.743-4.226a167.943,167.943,0,0,0,27.481-2.566Q404.016,4289.78,404.247,4291.881Z" fill="#e2e2e2"/>
            </g>
            <g id="Grupo_931867" data-name="Grupo 931867">
              <path id="Trazado_640071" data-name="Trazado 640071" d="M405.576,4304.52a169.9,169.9,0,0,1-26.445,2.743q-.324-2.115-.663-4.222a165.992,165.992,0,0,0,26.68-2.75C405.3,4301.708,405.441,4303.118,405.576,4304.52Z" fill="#e2e2e2"/>
            </g>
            <g id="Grupo_931868" data-name="Grupo 931868">
              <path id="Trazado_640072" data-name="Trazado 640072" d="M406.77,4317.186a169.036,169.036,0,0,1-25.833,2.881q-.271-2.109-.562-4.221a164.442,164.442,0,0,0,26.01-2.905Q406.581,4315.085,406.77,4317.186Z" fill="#e2e2e2"/>
            </g>
            <g id="Grupo_931869" data-name="Grupo 931869">
              <path id="Trazado_640073" data-name="Trazado 640073" d="M407.822,4329.879a168.358,168.358,0,0,1-25.4,3c-.142-1.4-.292-2.812-.45-4.218a163.2,163.2,0,0,0,25.509-3.04Q407.661,4327.774,407.822,4329.879Z" fill="#e2e2e2"/>
            </g>
            <g id="Grupo_931870" data-name="Grupo 931870">
              <path id="Trazado_640074" data-name="Trazado 640074" d="M408.723,4342.6a168.847,168.847,0,0,1-25.193,3.1c-.1-1.4-.2-2.809-.32-4.222a163.567,163.567,0,0,0,25.224-3.151C408.538,4339.775,408.631,4341.2,408.723,4342.6Z" fill="#e2e2e2"/>
            </g>
            <g id="Grupo_931871" data-name="Grupo 931871">
              <path id="Trazado_640075" data-name="Trazado 640075" d="M409.463,4355.361a171.225,171.225,0,0,1-25.29,3.205q-.063-2.109-.154-4.237a165.535,165.535,0,0,0,25.213-3.248C409.316,4352.534,409.389,4353.963,409.463,4355.361Z" fill="#e2e2e2"/>
            </g>
            <g id="Grupo_931872" data-name="Grupo 931872">
              <path id="Trazado_640076" data-name="Trazado 640076" d="M410,4368.169a174.83,174.83,0,0,1-25.779,3.294q.053-2.1.058-4.249a167.467,167.467,0,0,0,25.563-3.344C409.906,4365.346,409.956,4366.783,410,4368.169Z" fill="#e2e2e2"/>
            </g>
            <g id="Grupo_931873" data-name="Grupo 931873">
              <path id="Trazado_640077" data-name="Trazado 640077" d="M410.252,4381.043a181.335,181.335,0,0,1-26.776,3.375q.208-2.1.351-4.265a172.559,172.559,0,0,0,26.387-3.436Q410.249,4379.006,410.252,4381.043Z" fill="#e2e2e2"/>
            </g>
          </g>
        </g>
        <g id="Grupo_931876" data-name="Grupo 931876">
          <path id="Trazado_640078" data-name="Trazado 640078" d="M347.814,4385.721s4.612,1.476,6,4.168c0,0,0,17.074-8.6,24.522,0,0-4.228-10.273-8.6-20.113Z" fill="#ffaf82"/>
        </g>
        <path id="Trazado_640079" data-name="Trazado 640079" d="M330.12,4225.982s-17.171,53.677-18.691,81.281c0,0,0,51.634,25.185,87.035l11.2-8.577s-14.117-51.366-14.117-71.4c0,0,14.294-37.2,16.639-51.858C350.336,4262.466,340.725,4225.982,330.12,4225.982Z" fill="#009762"/>
        <g id="Grupo_931895" data-name="Grupo 931895">
          <g id="Grupo_931877" data-name="Grupo 931877">
            <path id="Trazado_640080" data-name="Trazado 640080" d="M419.382,4143.9s6.578,4.337,4.221,16.121-6.913,13.041-6.913,13.041S409.788,4146.97,419.382,4143.9Z" fill="#32324c"/>
          </g>
          <g id="Grupo_931878" data-name="Grupo 931878">
            <path id="Trazado_640081" data-name="Trazado 640081" d="M389.127,4198.962l-.834,14.9-.382,6.829c-8.582,6.349-22.538-2.39-22.538-2.39l-1.492-22.086c3.971-2.677,14.2-.45,20.355,1.257C387.134,4198.277,389.127,4198.962,389.127,4198.962Z" fill="#ffaf82"/>
          </g>
          <g id="Grupo_931879" data-name="Grupo 931879">
            <path id="Trazado_640082" data-name="Trazado 640082" d="M389.127,4198.962l-.834,14.9c-10.08-2.329-18.521-16.295-18.521-16.295l14.464-.095C387.134,4198.277,389.127,4198.962,389.127,4198.962Z" fill="#f88968"/>
          </g>
          <g id="Grupo_931880" data-name="Grupo 931880">
            <path id="Trazado_640083" data-name="Trazado 640083" d="M418.056,4149.9s16.074-7.479,11.361-20.677-23.943-7.128-41.237-6.471c-27.846,1.059-36.569,15.544-35.862,30.627s.547,35.3,7.382,42.845,11.5-3.119,15.04-12.553S400.1,4145.362,418.056,4149.9Z" fill="#32324c"/>
          </g>
          <g id="Grupo_931881" data-name="Grupo 931881">
            <path id="Trazado_640084" data-name="Trazado 640084" d="M419.509,4162.735c-.009.509-.019,1.027-.033,1.551a233.312,233.312,0,0,1-3.488,30,17.691,17.691,0,0,1-20.928,14.348c-11.765-2.376-26.274-5.981-32.891-10.332-2.013-1.32-3.29-2.71-3.545-4.157a97.646,97.646,0,0,1-1.07-12.991c-.467-15.187.641-34.135.641-34.135,14.141-17.563,53.551-10.71,59.551,2.14C419.118,4152.1,419.594,4156.975,419.509,4162.735Z" fill="#ffaf82"/>
          </g>
          <g id="Grupo_931882" data-name="Grupo 931882">
            <path id="Trazado_640085" data-name="Trazado 640085" d="M410.8,4189.941a8.1,8.1,0,0,1-.579,1.093,9.8,9.8,0,0,1-3.612,3.48,9.573,9.573,0,0,1-7.107.649,9.464,9.464,0,0,1-5.567-3.522,10.822,10.822,0,0,1-1.881-6.4,11.609,11.609,0,0,1,.162-2C399.492,4188.751,410.8,4189.941,410.8,4189.941Z" fill="#920e08"/>
            <path id="Trazado_640086" data-name="Trazado 640086" d="M406.611,4194.514a9.573,9.573,0,0,1-7.107.649,9.464,9.464,0,0,1-5.567-3.522,11.125,11.125,0,0,1,7.494-.155A13.969,13.969,0,0,1,406.611,4194.514Z" fill="#f85c66"/>
            <path id="Trazado_640087" data-name="Trazado 640087" d="M410.8,4189.941a8.1,8.1,0,0,1-.579,1.093c-8.1.6-15.436-3.878-18.167-5.79a11.609,11.609,0,0,1,.162-2C399.492,4188.751,410.8,4189.941,410.8,4189.941Z" fill="#fff"/>
          </g>
          <g id="Grupo_931883" data-name="Grupo 931883">
            <path id="Trazado_640088" data-name="Trazado 640088" d="M396.147,4171.216c0,1.974-.879,3.574-1.964,3.574s-1.964-1.6-1.964-3.574.879-3.575,1.964-3.575S396.147,4169.242,396.147,4171.216Z" fill="#32324c"/>
          </g>
          <g id="Grupo_931884" data-name="Grupo 931884">
            <path id="Trazado_640089" data-name="Trazado 640089" d="M416.252,4171.216c0,1.974-.879,3.574-1.964,3.574s-1.964-1.6-1.964-3.574.879-3.575,1.964-3.575S416.252,4169.242,416.252,4171.216Z" fill="#32324c"/>
          </g>
          <g id="Grupo_931885" data-name="Grupo 931885">
            <path id="Trazado_640090" data-name="Trazado 640090" d="M357.485,4167.239s6.3-4.1,11.6,3.219h4.124s-.236-8.473,1.768-13.068,9.9-4.478,11.076-9.9c0,0,18.64,7.416,32,2.412s-26.7-27.276-46.026-16.435S354.489,4152.814,357.485,4167.239Z" fill="#32324c"/>
          </g>
          <g id="Grupo_931886" data-name="Grupo 931886">
            <path id="Trazado_640091" data-name="Trazado 640091" d="M385.669,4166.265s1.89-3.884,5.518-4.856a9.267,9.267,0,0,1,6.962.623,1.2,1.2,0,0,1,.543,1.48h0a1.208,1.208,0,0,1-1.645.675C395.013,4163.24,390.538,4162.022,385.669,4166.265Z" fill="#32324c"/>
          </g>
          <g id="Grupo_931887" data-name="Grupo 931887">
            <path id="Trazado_640092" data-name="Trazado 640092" d="M419.509,4162.735c-.009.509-.019,1.027-.033,1.551a9.657,9.657,0,0,0-8.428-.1,1.22,1.22,0,0,1-.514.113,1.21,1.21,0,0,1-.588-2.267,9.269,9.269,0,0,1,6.961-.622A7.337,7.337,0,0,1,419.509,4162.735Z" fill="#32324c"/>
          </g>
          <g id="Grupo_931888" data-name="Grupo 931888">
            <path id="Trazado_640093" data-name="Trazado 640093" d="M362.169,4198.3c-2.013-1.32-3.29-2.71-3.545-4.157a97.646,97.646,0,0,1-1.07-12.991l10.4,7.151S368.094,4195.711,362.169,4198.3Z" fill="#32324c"/>
          </g>
          <g id="Grupo_931892" data-name="Grupo 931892">
            <g id="Grupo_931889" data-name="Grupo 931889">
              <path id="Trazado_640094" data-name="Trazado 640094" d="M369.084,4170.458s-6.315-7.651-11.6-3.219c-5.823,4.884-1.362,21.444,10.471,21.068Z" fill="#ffaf82"/>
            </g>
            <g id="Grupo_931890" data-name="Grupo 931890">
              <path id="Trazado_640095" data-name="Trazado 640095" d="M368.247,4184.716a1.041,1.041,0,0,1-1.033-.923c-.963-8.377-5.932-9.666-6.143-9.717a1.041,1.041,0,0,1,.461-2.03c.27.06,6.61,1.585,7.751,11.51a1.041,1.041,0,0,1-.916,1.153A.989.989,0,0,1,368.247,4184.716Z" fill="#f88968"/>
            </g>
            <g id="Grupo_931891" data-name="Grupo 931891">
              <path id="Trazado_640096" data-name="Trazado 640096" d="M361.6,4179.4a1.039,1.039,0,0,1-.779-1.727,5.906,5.906,0,0,1,5.563-1.609,1.042,1.042,0,0,1-.447,2.035,3.813,3.813,0,0,0-3.564.963A1.047,1.047,0,0,1,361.6,4179.4Z" fill="#f88968"/>
            </g>
          </g>
          <g id="Grupo_931893" data-name="Grupo 931893">
            <path id="Trazado_640097" data-name="Trazado 640097" d="M400.536,4199.919a10.279,10.279,0,0,1-8.113-3.635,1.042,1.042,0,0,1,1.672-1.243c.121.16,2.784,3.553,8.3,2.636a1.041,1.041,0,0,1,.342,2.054A13.422,13.422,0,0,1,400.536,4199.919Z" fill="#f88968"/>
          </g>
          <g id="Grupo_931894" data-name="Grupo 931894">
            <path id="Trazado_640098" data-name="Trazado 640098" d="M405.614,4182.706a1.042,1.042,0,0,1-.632-1.87l2.777-2.119-2.407-.623a1.045,1.045,0,0,1-.767-.844l-1.061-6.628a1.042,1.042,0,0,1,2.057-.329l.953,5.955,3.819.991a1.041,1.041,0,0,1,.37,1.836l-4.477,3.417A1.039,1.039,0,0,1,405.614,4182.706Z" fill="#f88968"/>
          </g>
        </g>
      </g>
    </g>
    <g id="Grupo_932011" data-name="Grupo 932011" transform="translate(-2055.481 -3769.201)">
      <g id="Grupo_932010" data-name="Grupo 932010" clip-path="url(#clip-path-3)">
        <g id="Grupo_932009" data-name="Grupo 932009">
          <g id="Grupo_931898" data-name="Grupo 931898">
            <path id="Trazado_640099" data-name="Trazado 640099" d="M831.025,4580.181c8.731,128.708,171.125,180.87,251.293,79.8,16.372-20.641,20.289-70.416,16.047-96.671-17.1-105.821-71.366-116.633-30.849-183.57s44.281-188.456-67.575-187.507-39.749,179.731-116.8,229.736C847.9,4444.839,826.478,4513.15,831.025,4580.181Z" fill="#32324c" opacity="0.1"/>
            <path id="Trazado_640100" data-name="Trazado 640100" d="M873.421,4393.034a17.065,17.065,0,0,0,18.813-5.41c7.279-8.818,18.892-26.626,15.435-47.349-4.938-29.6-42.455-5.971-45.406,27.305C860.788,4384.217,866.92,4390.706,873.421,4393.034Z" fill="#32324c" opacity="0.1"/>
            <path id="Trazado_640101" data-name="Trazado 640101" d="M913.373,4315.18a8.9,8.9,0,0,0,6.031-8.24c.186-5.962-.712-17.016-8.756-24.458-11.492-10.633-19.417,11.1-10.006,25.763C905.347,4315.578,909.948,4316.295,913.373,4315.18Z" fill="#32324c" opacity="0.1"/>
            <path id="Trazado_640102" data-name="Trazado 640102" d="M1097.653,4459.846a8.9,8.9,0,0,0,7.424-7.011c1.262-5.83,2.382-16.863-4.181-25.64-9.375-12.538-21.106,7.4-14.508,23.524C1089.687,4458.783,1094.082,4460.323,1097.653,4459.846Z" fill="#32324c" opacity="0.1"/>
          </g>
          <g id="Grupo_931899" data-name="Grupo 931899">
            <path id="Trazado_640103" data-name="Trazado 640103" d="M902.706,4372.3c-15.8,7.244-31.348,14.511-31.348,14.511,2.8,3.8,3.9,7.382,3.143,11.709a223.617,223.617,0,0,0,66.676-25.795c16.555-12.067,45.694-58.271,45.694-58.271-6.68-11.335-23.377-3.246-23.377-3.246-18.283,25.186-34.435,48.775-34.689,49.142C926.154,4361.563,916.172,4366.127,902.706,4372.3Z" fill="#c11c57"/>
          </g>
          <g id="Grupo_931904" data-name="Grupo 931904">
            <path id="Trazado_640104" data-name="Trazado 640104" d="M986.871,4518.958l.64,27.658,2.913,126.886h9.61l2.9-126.886.639-27.658Z" fill="#263238"/>
            <path id="Trazado_640105" data-name="Trazado 640105" d="M986.871,4518.958l.64,27.658,2.913,126.886h9.61l2.9-126.886.639-27.658Z" fill="#fff" opacity="0.4" style="isolation: isolate"/>
            <path id="Trazado_640106" data-name="Trazado 640106" d="M986.871,4518.958l.64,28.422h15.419l.639-28.422Z" opacity="0.2" style="isolation: isolate"/>
            <g id="Grupo_931902" data-name="Grupo 931902">
              <g id="Grupo_931900" data-name="Grupo 931900">
                <path id="Trazado_640107" data-name="Trazado 640107" d="M934.684,4673.057l8.878-152.145h14.512l-12.429,152.145Z" fill="#263238"/>
                <path id="Trazado_640108" data-name="Trazado 640108" d="M945.671,4673.057H934.7l8.057-138.646.8-13.678h14.514l-1.12,13.678Z" fill="#fff" opacity="0.5" style="isolation: isolate"/>
                <path id="Trazado_640109" data-name="Trazado 640109" d="M958.069,4520.734l-1.119,14.211H942.757l.8-14.211Z" opacity="0.2" style="isolation: isolate"/>
              </g>
              <g id="Grupo_931901" data-name="Grupo 931901">
                <path id="Trazado_640110" data-name="Trazado 640110" d="M1044.8,4673.057l-12.429-152.145h14.513l8.878,152.145Z" fill="#263238"/>
                <path id="Trazado_640111" data-name="Trazado 640111" d="M1044.777,4673.057,1033.5,4534.412l-1.119-13.678h14.513l.8,13.678,8.057,138.646Z" fill="#fff" opacity="0.5" style="isolation: isolate"/>
                <path id="Trazado_640112" data-name="Trazado 640112" d="M1032.38,4520.734l1.119,14.211h14.193l-.8-14.211Z" opacity="0.2" style="isolation: isolate"/>
              </g>
            </g>
            <path id="Rectángulo_335517" data-name="Rectángulo 335517" d="M0,0H118.876a0,0,0,0,1,0,0V15.764a5,5,0,0,1-5,5H5a5,5,0,0,1-5-5V0A0,0,0,0,1,0,0Z" transform="translate(1054.662 4526.103) rotate(180)" fill="#263238"/>
            <g id="Grupo_931903" data-name="Grupo 931903">
              <rect id="Rectángulo_335518" data-name="Rectángulo 335518" width="130.267" height="10.382" rx="2.011" transform="translate(1060.358 4526.103) rotate(180)" fill="#263238"/>
              <rect id="Rectángulo_335519" data-name="Rectángulo 335519" width="130.267" height="10.382" rx="2.011" transform="translate(1060.358 4526.103) rotate(180)" fill="#fff" opacity="0.6" style="isolation: isolate"/>
            </g>
          </g>
          <g id="Grupo_931973" data-name="Grupo 931973">
            <g id="Grupo_931938" data-name="Grupo 931938">
              <g id="Grupo_931937" data-name="Grupo 931937">
                <path id="Trazado_640113" data-name="Trazado 640113" d="M1005.34,4463.9s-60.907,10.321-86.258,21.042-57.526,90.613-57.526,90.613L878.165,4586s39.594-45.881,54.323-72.557c0,0,54.343,14.687,83.5-2.666S1021.388,4460.375,1005.34,4463.9Z" fill="#211931"/>
                <g id="Grupo_931936" data-name="Grupo 931936">
                  <g id="Grupo_931906" data-name="Grupo 931906">
                    <g id="Grupo_931905" data-name="Grupo 931905">
                      <path id="Trazado_640114" data-name="Trazado 640114" d="M810.419,4588.251l50.743,25.184a5.245,5.245,0,0,0,6.679-1.759,5.146,5.146,0,0,0,.518-.974l11.166-27.675a33.056,33.056,0,0,0-4.237-4.189,5.735,5.735,0,0,1-2.069-5.28c.025-.145.058-.291.089-.438,1.381-5.708-5.2-11.01-9.058-6.675-.5.56-.965,1.113-1.4,1.654-.106.133-.216.271-.315.4-.754.968-1.406,1.882-1.948,2.694-.014.016-.023.035-.037.051a32.028,32.028,0,0,0-2.05,3.5q-1.642.78-3.2,1.551c-.525.251-1.037.508-1.544.756-1.1.536-2.164,1.059-3.2,1.553-.484.237-.96.459-1.435.677-1.141.532-2.25,1.022-3.331,1.456-.488.2-.972.389-1.458.56-3.981,1.453-7.553,2.023-10.887.908-5.877-1.975-15.167-5.83-23.516.091a3.167,3.167,0,0,0-.474.4A3.494,3.494,0,0,0,810.419,4588.251Z" fill="#3555af"/>
                    </g>
                  </g>
                  <g id="Grupo_931908" data-name="Grupo 931908">
                    <g id="Grupo_931907" data-name="Grupo 931907">
                      <path id="Trazado_640115" data-name="Trazado 640115" d="M810.42,4588.25l50.743,25.184a5.244,5.244,0,0,0,6.678-1.759L809.456,4582.7A3.494,3.494,0,0,0,810.42,4588.25Z" fill="#3986d7"/>
                    </g>
                  </g>
                  <g id="Grupo_931916" data-name="Grupo 931916">
                    <g id="Grupo_931911" data-name="Grupo 931911">
                      <g id="Grupo_931910" data-name="Grupo 931910">
                        <g id="Grupo_931909" data-name="Grupo 931909">
                          <path id="Trazado_640116" data-name="Trazado 640116" d="M853.761,4577.051c.159,1.155.84,2.794,2.776,4.958q.491.557,1.1,1.156l1.095-1.107c-.4-.4-.756-.771-1.069-1.124-2.219-2.5-2.433-3.973-2.358-4.639C854.78,4576.546,854.268,4576.8,853.761,4577.051Z" fill="#fff"/>
                        </g>
                      </g>
                    </g>
                    <g id="Grupo_931915" data-name="Grupo 931915">
                      <g id="Grupo_931914" data-name="Grupo 931914">
                        <g id="Grupo_931913" data-name="Grupo 931913">
                          <g id="Grupo_931912" data-name="Grupo 931912">
                            <path id="Trazado_640117" data-name="Trazado 640117" d="M856.612,4581.831a1.757,1.757,0,1,0,2.355-.793A1.758,1.758,0,0,0,856.612,4581.831Z" fill="#fff"/>
                          </g>
                        </g>
                      </g>
                    </g>
                  </g>
                  <g id="Grupo_931924" data-name="Grupo 931924">
                    <g id="Grupo_931919" data-name="Grupo 931919">
                      <g id="Grupo_931918" data-name="Grupo 931918">
                        <g id="Grupo_931917" data-name="Grupo 931917">
                          <path id="Trazado_640118" data-name="Trazado 640118" d="M849.121,4579.281a11.1,11.1,0,0,0,2.389,3.911c.381.45.815.91,1.31,1.4l1.1-1.112q-.69-.681-1.212-1.281a8.9,8.9,0,0,1-2.15-3.6C850.072,4578.841,849.6,4579.063,849.121,4579.281Z" fill="#fff"/>
                        </g>
                      </g>
                    </g>
                    <g id="Grupo_931923" data-name="Grupo 931923">
                      <g id="Grupo_931922" data-name="Grupo 931922">
                        <g id="Grupo_931921" data-name="Grupo 931921">
                          <g id="Grupo_931920" data-name="Grupo 931920">
                            <path id="Trazado_640119" data-name="Trazado 640119" d="M851.537,4583.129a1.757,1.757,0,1,0,2.355-.793A1.758,1.758,0,0,0,851.537,4583.129Z" fill="#fff"/>
                          </g>
                        </g>
                      </g>
                    </g>
                  </g>
                  <g id="Grupo_931932" data-name="Grupo 931932">
                    <g id="Grupo_931927" data-name="Grupo 931927">
                      <g id="Grupo_931926" data-name="Grupo 931926">
                        <g id="Grupo_931925" data-name="Grupo 931925">
                          <path id="Trazado_640120" data-name="Trazado 640120" d="M844.332,4581.3a11.282,11.282,0,0,0,2.327,3.765c.386.452.825.926,1.329,1.42l1.093-1.113c-.464-.457-.866-.889-1.216-1.3a9.669,9.669,0,0,1-2.075-3.336C845.3,4580.936,844.818,4581.126,844.332,4581.3Z" fill="#fff"/>
                        </g>
                      </g>
                    </g>
                    <g id="Grupo_931931" data-name="Grupo 931931">
                      <g id="Grupo_931930" data-name="Grupo 931930">
                        <g id="Grupo_931929" data-name="Grupo 931929">
                          <g id="Grupo_931928" data-name="Grupo 931928">
                            <path id="Trazado_640121" data-name="Trazado 640121" d="M846.684,4585a1.757,1.757,0,1,0,2.354-.792A1.756,1.756,0,0,0,846.684,4585Z" fill="#fff"/>
                          </g>
                        </g>
                      </g>
                    </g>
                  </g>
                  <g id="Grupo_931935" data-name="Grupo 931935">
                    <g id="Grupo_931934" data-name="Grupo 931934">
                      <g id="Grupo_931933" data-name="Grupo 931933">
                        <path id="Trazado_640122" data-name="Trazado 640122" d="M860.59,4571.195a39.891,39.891,0,0,1,4.4,2.5l1.233-2.555a12.783,12.783,0,0,0-3.681-2.64C861.784,4569.469,861.132,4570.383,860.59,4571.195Z" fill="#fff"/>
                      </g>
                    </g>
                  </g>
                </g>
              </g>
            </g>
            <g id="Grupo_931972" data-name="Grupo 931972">
              <g id="Grupo_931971" data-name="Grupo 931971">
                <path id="Trazado_640123" data-name="Trazado 640123" d="M1030.067,4452.684s-68.423,31.921-89.865,49.18-30.486,102.91-30.486,102.91l18.835,5.492s25.5-54.976,32.356-84.667c0,0,60.474-.671,74.928-31.364C1046.756,4471.043,1033.306,4458.023,1030.067,4452.684Z" fill="#32324c"/>
                <g id="Grupo_931970" data-name="Grupo 931970">
                  <g id="Grupo_931940" data-name="Grupo 931940">
                    <g id="Grupo_931939" data-name="Grupo 931939">
                      <path id="Trazado_640124" data-name="Trazado 640124" d="M864.016,4631l55.7,10.311a5.245,5.245,0,0,0,5.94-3.522,5.116,5.116,0,0,0,.232-1.079l3.153-29.675a33.11,33.11,0,0,0-5.223-2.868,5.736,5.736,0,0,1-3.437-4.511c-.015-.146-.024-.3-.034-.445-.237-5.867-8.024-9.162-10.542-3.937q-.489,1.014-.889,1.974c-.066.157-.133.32-.193.473-.46,1.137-.836,2.2-1.135,3.125-.009.019-.012.039-.021.059a31.826,31.826,0,0,0-1.013,3.926q-1.365,1.2-2.651,2.368c-.437.385-.858.773-1.277,1.15-.909.817-1.791,1.612-2.657,2.372-.4.36-.8.705-1.194,1.045-.952.824-1.884,1.6-2.8,2.313-.415.325-.828.641-1.249.938-3.43,2.489-6.709,4.015-10.221,3.857-6.193-.289-16.184-1.45-22.59,6.533a3.11,3.11,0,0,0-.345.519A3.494,3.494,0,0,0,864.016,4631Z" fill="#3555af"/>
                    </g>
                  </g>
                  <g id="Grupo_931942" data-name="Grupo 931942">
                    <g id="Grupo_931941" data-name="Grupo 931941">
                      <path id="Trazado_640125" data-name="Trazado 640125" d="M864.017,4631l55.7,10.311a5.246,5.246,0,0,0,5.941-3.522l-64.092-11.864A3.5,3.5,0,0,0,864.017,4631Z" fill="#3986d7"/>
                    </g>
                  </g>
                  <g id="Grupo_931950" data-name="Grupo 931950">
                    <g id="Grupo_931945" data-name="Grupo 931945">
                      <g id="Grupo_931944" data-name="Grupo 931944">
                        <g id="Grupo_931943" data-name="Grupo 931943">
                          <path id="Trazado_640126" data-name="Trazado 640126" d="M902.629,4608.346c.469,1.067,1.573,2.457,4.028,4.007q.624.4,1.374.81l.751-1.364c-.495-.272-.939-.534-1.337-.788-2.818-1.792-3.429-3.154-3.539-3.815C903.469,4607.581,903.048,4607.969,902.629,4608.346Z" fill="#fff"/>
                        </g>
                      </g>
                    </g>
                    <g id="Grupo_931949" data-name="Grupo 931949">
                      <g id="Grupo_931948" data-name="Grupo 931948">
                        <g id="Grupo_931947" data-name="Grupo 931947">
                          <g id="Grupo_931946" data-name="Grupo 931946">
                            <path id="Trazado_640127" data-name="Trazado 640127" d="M906.681,4612.161a1.757,1.757,0,1,0,2.047-1.407A1.757,1.757,0,0,0,906.681,4612.161Z" fill="#fff"/>
                          </g>
                        </g>
                      </g>
                    </g>
                  </g>
                  <g id="Grupo_931958" data-name="Grupo 931958">
                    <g id="Grupo_931953" data-name="Grupo 931953">
                      <g id="Grupo_931952" data-name="Grupo 931952">
                        <g id="Grupo_931951" data-name="Grupo 931951">
                          <path id="Trazado_640128" data-name="Trazado 640128" d="M898.778,4611.763a11.082,11.082,0,0,0,3.369,3.106c.489.329,1.033.652,1.644.987l.751-1.37q-.851-.467-1.517-.9a8.9,8.9,0,0,1-3.053-2.868C899.572,4611.078,899.175,4611.423,898.778,4611.763Z" fill="#fff"/>
                        </g>
                      </g>
                    </g>
                    <g id="Grupo_931957" data-name="Grupo 931957">
                      <g id="Grupo_931956" data-name="Grupo 931956">
                        <g id="Grupo_931955" data-name="Grupo 931955">
                          <g id="Grupo_931954" data-name="Grupo 931954">
                            <path id="Trazado_640129" data-name="Trazado 640129" d="M902.156,4614.8a1.757,1.757,0,1,0,2.047-1.408A1.757,1.757,0,0,0,902.156,4614.8Z" fill="#fff"/>
                          </g>
                        </g>
                      </g>
                    </g>
                  </g>
                  <g id="Grupo_931966" data-name="Grupo 931966">
                    <g id="Grupo_931961" data-name="Grupo 931961">
                      <g id="Grupo_931960" data-name="Grupo 931960">
                        <g id="Grupo_931959" data-name="Grupo 931959">
                          <path id="Trazado_640130" data-name="Trazado 640130" d="M894.724,4615.014a11.315,11.315,0,0,0,3.271,2.983c.494.329,1.047.665,1.667,1l.746-1.371c-.572-.312-1.077-.618-1.525-.912a9.681,9.681,0,0,1-2.91-2.64C895.558,4614.4,895.145,4614.717,894.724,4615.014Z" fill="#fff"/>
                        </g>
                      </g>
                    </g>
                    <g id="Grupo_931965" data-name="Grupo 931965">
                      <g id="Grupo_931964" data-name="Grupo 931964">
                        <g id="Grupo_931963" data-name="Grupo 931963">
                          <g id="Grupo_931962" data-name="Grupo 931962">
                            <path id="Trazado_640131" data-name="Trazado 640131" d="M898,4617.936a1.757,1.757,0,1,0,2.047-1.408A1.757,1.757,0,0,0,898,4617.936Z" fill="#fff"/>
                          </g>
                        </g>
                      </g>
                    </g>
                  </g>
                  <g id="Grupo_931969" data-name="Grupo 931969">
                    <g id="Grupo_931968" data-name="Grupo 931968">
                      <g id="Grupo_931967" data-name="Grupo 931967">
                        <path id="Trazado_640132" data-name="Trazado 640132" d="M907.591,4600.843a39.787,39.787,0,0,1,4.913,1.2l.485-2.795a12.791,12.791,0,0,0-4.263-1.53C908.266,4598.855,907.89,4599.913,907.591,4600.843Z" fill="#fff"/>
                      </g>
                    </g>
                  </g>
                </g>
              </g>
            </g>
          </g>
          <path id="Trazado_640133" data-name="Trazado 640133" d="M1035.453,4495.246s-53.427,5.422-75.233-24.1c1.276-6.726,6.515-19.322,9.74-21.637,0,0,36.114-1.114,61.432,10.45Z" fill="#32324c"/>
          <g id="Grupo_931974" data-name="Grupo 931974">
            <path id="Trazado_640134" data-name="Trazado 640134" d="M971.485,4375.429a118.064,118.064,0,0,1,3.845,15.1c-1.613,14.07-8.785,58.057-13.256,73.834,20.178,10.621,57.727,14.123,76.957,4.806.106-13.076.961-63.3-1.317-84.744-4.7-44.219-11.956-72.273-11.956-72.273l-12.536-3.751h0a62.987,62.987,0,0,0-26.141-2.122l-7.77,1.007-4.435.575-7.537.979s.721,21.661-4.525,40.715c-4.436,16.09,2.736,18.208,6.326,21.739a6.8,6.8,0,0,1,1.3,1.684A21.1,21.1,0,0,1,971.485,4375.429Z" fill="#e63067"/>
            <path id="Trazado_640135" data-name="Trazado 640135" d="M969.14,4371.294a6.8,6.8,0,0,1,1.3,1.684,21.1,21.1,0,0,1,1.049,2.451,63.068,63.068,0,0,0,13.28,2.325c10.989.662,23.239-3.782,23.595-3.911A75.125,75.125,0,0,1,969.14,4371.294Z" fill="#c11c57"/>
            <path id="Trazado_640136" data-name="Trazado 640136" d="M979.311,4307.286c1.44,7.916,2.364,21.3,12.437,20.777,12.109-.631,19.18-14.341,21.474-19.661h0a62.959,62.959,0,0,0-26.142-2.122Z" fill="#ffaf82"/>
          </g>
          <g id="Grupo_931996" data-name="Grupo 931996">
            <g id="Grupo_931975" data-name="Grupo 931975">
              <path id="Trazado_640137" data-name="Trazado 640137" d="M960.713,4275.443c-.978,2.877-1.988,5.849-2.951,9-3.066,10.046,6.6,11.312,6.6,11.312s-3.105,6.843,1.778,12.319a9.6,9.6,0,0,0,11.061,2.538s2.239,2.98,8.123,3.351c8.534.539,11.642-2.887,11.642-2.887l8.92-1.6c1.173.657,2.087,5.018,11.519,6.12,8.574,1,12.987-4.142,12.987-4.142,2.268,4.443,12.942,3.662,14.152-3.374,1.137-6.61-1.938-9.315-2.314-9.622,5.539,3.924,14.782-6.687,4.99-16.749-3.984-4.094-6.185-6-7.674-8.046,4.436,1.053,9.072-4.113,7.091-8.622-2.56-5.819-7.24-3.5-11.813-11.849-6.077-11.089-10.727-14.874-11-15.089l-.008-.007c-7.844-7.442-19.435-10.846-32.123-10.061-10.788.668-17.076,5.079-20.717,9.614a22.781,22.781,0,0,0-4.831,13.827q-.035,1.576-.176,3.109c-1.509,3.667-4.6,10.171-8.254,12.145C952.754,4269.424,955.532,4276.549,960.713,4275.443Z" fill="#32324c"/>
            </g>
            <g id="Grupo_931995" data-name="Grupo 931995">
              <g id="Grupo_931994" data-name="Grupo 931994">
                <g id="Grupo_931977" data-name="Grupo 931977">
                  <g id="Grupo_931976" data-name="Grupo 931976">
                    <path id="Trazado_640138" data-name="Trazado 640138" d="M975.962,4268.261s-5.593-6.385-10.155-.838c-4.013,4.878-1.515,17.791,8.263,17.432Z" fill="#f88968"/>
                  </g>
                </g>
                <path id="Trazado_640139" data-name="Trazado 640139" d="M967.219,4284.053a2.346,2.346,0,1,0,2.347-2.347A2.346,2.346,0,0,0,967.219,4284.053Z" fill="#fff"/>
                <g id="Grupo_931980" data-name="Grupo 931980">
                  <g id="Grupo_931978" data-name="Grupo 931978">
                    <path id="Trazado_640140" data-name="Trazado 640140" d="M986.03,4317.041c.494,5.849,12.594,9.293,19.469-.639l.724-12.835.532-9.428-22.092,4.287,1.092,14.863Z" fill="#ffaf82"/>
                  </g>
                  <g id="Grupo_931979" data-name="Grupo 931979">
                    <path id="Trazado_640141" data-name="Trazado 640141" d="M985.887,4315.081c7.542.1,15.964-5.1,20.176-8.682l.692-12.26-22.092,4.287Z" fill="#f88968"/>
                  </g>
                </g>
                <g id="Grupo_931981" data-name="Grupo 931981">
                  <path id="Trazado_640142" data-name="Trazado 640142" d="M994.441,4305.318c23.317-5.335,27.553-35.9,27.553-35.9a33.949,33.949,0,0,0-.312-5.026,39.1,39.1,0,0,0-1.138-5.576c-1.673-5.873-5.262-12.567-12.926-15.489-.24-.093-.484-.182-.728-.267-12.715-4.508-31.306-2.4-36.96,14.435a28.09,28.09,0,0,0-.861,3.258c-.135.662-.255,1.353-.357,2.06C966.178,4280.2,973.483,4310.114,994.441,4305.318Z" fill="#ffaf82"/>
                </g>
                <g id="Grupo_931984" data-name="Grupo 931984">
                  <g id="Grupo_931983" data-name="Grupo 931983">
                    <g id="Grupo_931982" data-name="Grupo 931982">
                      <path id="Trazado_640143" data-name="Trazado 640143" d="M999.082,4274.1a3,3,0,0,0,3.385-2.542,2.943,2.943,0,0,0-.232-1.64c2.45-.287,2.4-1.774,2.4-1.774-.382.636-3.244.265-4.429.084h-.007c-.146-.026-.266-.044-.353-.059l-.015,0a.807.807,0,0,0-.141-.011,2.99,2.99,0,0,0-.608,5.945Z" fill="#32324c"/>
                    </g>
                  </g>
                </g>
                <g id="Grupo_931985" data-name="Grupo 931985">
                  <path id="Trazado_640144" data-name="Trazado 640144" d="M1017.979,4270.043s8.368-4.587,11.047,3.03c2.358,6.7-5.258,19.371-15.446,15.223Z" fill="#ffaf82"/>
                </g>
                <g id="Grupo_931986" data-name="Grupo 931986">
                  <path id="Trazado_640145" data-name="Trazado 640145" d="M1017.459,4282.761a13.977,13.977,0,0,1,7.91-8.762s-5.467,5.155-5.883,9.143a.992.992,0,0,1-1.009.91l-.121,0A.979.979,0,0,1,1017.459,4282.761Z" fill="#f88968"/>
                </g>
                <g id="Grupo_931987" data-name="Grupo 931987">
                  <path id="Trazado_640146" data-name="Trazado 640146" d="M986.425,4284.147h3.539a.727.727,0,1,0,0-1.454h-3.539a.164.164,0,0,1-.157-.209l2.94-10.061a.727.727,0,1,0-1.4-.408l-2.94,10.061a1.618,1.618,0,0,0,1.553,2.071Z" fill="#f88968"/>
                </g>
                <path id="Trazado_640147" data-name="Trazado 640147" d="M995.354,4261.814h0a1.391,1.391,0,0,0,1.227,1.648c2.72.267,8.375,1.188,10.926,4.3,0,0-.556-5.109-10.512-7.052A1.4,1.4,0,0,0,995.354,4261.814Z" fill="#32324c"/>
                <path id="Trazado_640148" data-name="Trazado 640148" d="M984.129,4261.729h0a1.391,1.391,0,0,1-1.5,1.408c-2.726-.211-8.455-.291-11.509,2.325,0,0,1.439-4.933,11.581-5.109A1.4,1.4,0,0,1,984.129,4261.729Z" fill="#32324c"/>
                <g id="Grupo_931990" data-name="Grupo 931990">
                  <g id="Grupo_931989" data-name="Grupo 931989">
                    <g id="Grupo_931988" data-name="Grupo 931988">
                      <path id="Trazado_640149" data-name="Trazado 640149" d="M979.325,4273.716a2.993,2.993,0,0,1-3.385-2.542,2.935,2.935,0,0,1,.233-1.64c-2.451-.287-2.4-1.774-2.4-1.774.382.637,3.243.265,4.429.084h.007c.145-.026.265-.044.353-.058l.014,0a.928.928,0,0,1,.142-.011,2.99,2.99,0,0,1,.607,5.945Z" fill="#32324c"/>
                    </g>
                  </g>
                </g>
                <path id="Trazado_640150" data-name="Trazado 640150" d="M1005.583,4244.694s1.172,20.463,10.712,28.725c0,0,.822-5.427,8.249-4.613,0,0,.7-1.27,1.792-7.426s-2.826-31.567-31.007-29.931c0,0-8.961-1.818-21.505,8.909s-5.112,22.457-5.112,22.457S989.636,4259.925,1005.583,4244.694Z" fill="#32324c"/>
                <circle id="Elipse_4965" data-name="Elipse 4965" cx="2.347" cy="2.347" r="2.347" transform="translate(1017.306 4286.923)" fill="#fff"/>
                <g id="Grupo_931993" data-name="Grupo 931993">
                  <g id="Grupo_931991" data-name="Grupo 931991">
                    <path id="Trazado_640151" data-name="Trazado 640151" d="M984.618,4294.4a12.792,12.792,0,0,0,10.751-1.143.714.714,0,1,0-.748-1.216c-6.063,3.729-12.479-.276-12.543-.317a.714.714,0,0,0-.771,1.2A14.694,14.694,0,0,0,984.618,4294.4Z" fill="#f88968"/>
                  </g>
                  <g id="Grupo_931992" data-name="Grupo 931992">
                    <path id="Trazado_640152" data-name="Trazado 640152" d="M986.495,4298.61a7.047,7.047,0,0,0,6.052-.718.715.715,0,0,0-.84-1.156,5.869,5.869,0,0,1-5.972.025.714.714,0,0,0-.645,1.274A9.323,9.323,0,0,0,986.495,4298.61Z" fill="#f88968"/>
                  </g>
                </g>
              </g>
            </g>
          </g>
          <g id="Grupo_932006" data-name="Grupo 932006">
            <g id="Grupo_932005" data-name="Grupo 932005">
              <g id="Grupo_931997" data-name="Grupo 931997">
                <path id="Trazado_640153" data-name="Trazado 640153" d="M866.37,4676l18.3-254.809H870.234L855.261,4676Z" fill="#263238"/>
                <path id="Trazado_640154" data-name="Trazado 640154" d="M866.371,4676l17.347-241.287.959-13.083H870.235l-.782,13.083L855.255,4676Z" fill="#fff" opacity="0.4" style="isolation: isolate"/>
                <path id="Trazado_640155" data-name="Trazado 640155" d="M869.453,4434.067h14.264l.959-12.435H870.235Z" opacity="0.2" style="isolation: isolate"/>
              </g>
              <g id="Grupo_931998" data-name="Grupo 931998">
                <path id="Trazado_640156" data-name="Trazado 640156" d="M785.37,4676l1.664-254.809H772.6L774.26,4676Z" fill="#263238"/>
                <path id="Trazado_640157" data-name="Trazado 640157" d="M774.251,4676h11.117l1.378-210.45.284-43.92H772.589l.285,43.92Z" fill="#fff" opacity="0.5" style="isolation: isolate"/>
                <path id="Trazado_640158" data-name="Trazado 640158" d="M772.588,4421.632l.285,44.409h13.873l.284-44.409Z" opacity="0.2" style="isolation: isolate"/>
              </g>
              <g id="Grupo_931999" data-name="Grupo 931999">
                <path id="Trazado_640159" data-name="Trazado 640159" d="M670.97,4676l18.3-254.809H674.834L659.861,4676Z" fill="#263238"/>
                <path id="Trazado_640160" data-name="Trazado 640160" d="M670.971,4676l17.347-241.287.959-13.083H674.835l-.782,13.083L659.855,4676Z" fill="#fff" opacity="0.5" style="isolation: isolate"/>
                <path id="Trazado_640161" data-name="Trazado 640161" d="M674.054,4434.067h14.264l.959-12.435H674.835Z" opacity="0.2" style="isolation: isolate"/>
              </g>
              <g id="Grupo_932000" data-name="Grupo 932000">
                <path id="Trazado_640162" data-name="Trazado 640162" d="M988.587,4676l-14.974-254.809H959.176L977.478,4676Z" fill="#263238"/>
                <path id="Trazado_640163" data-name="Trazado 640163" d="M977.484,4676h11.1L974.4,4434.715l-.781-13.083H959.178l.959,13.083Z" fill="#fff" opacity="0.5" style="isolation: isolate"/>
                <path id="Trazado_640164" data-name="Trazado 640164" d="M973.62,4421.632H959.178l.959,12.435H974.4Z" opacity="0.2" style="isolation: isolate"/>
              </g>
              <g id="Grupo_932001" data-name="Grupo 932001">
                <path id="Rectángulo_335520" data-name="Rectángulo 335520" d="M2.162,0H319.5a2.162,2.162,0,0,1,2.162,2.162V13.635a0,0,0,0,1,0,0H0a0,0,0,0,1,0,0V2.162A2.162,2.162,0,0,1,2.162,0Z" transform="translate(985.057 4428.012) rotate(180)" fill="#263238"/>
              </g>
              <g id="Grupo_932002" data-name="Grupo 932002" opacity="0.6" style="isolation: isolate">
                <path id="Rectángulo_335521" data-name="Rectángulo 335521" d="M2.162,0H319.5a2.162,2.162,0,0,1,2.162,2.162V13.635a0,0,0,0,1,0,0H0a0,0,0,0,1,0,0V2.162A2.162,2.162,0,0,1,2.162,0Z" transform="translate(985.057 4428.012) rotate(180)" fill="#fff"/>
              </g>
              <rect id="Rectángulo_335522" data-name="Rectángulo 335522" width="321.666" height="6.817" transform="translate(985.057 4421.194) rotate(180)" opacity="0.2" style="isolation: isolate"/>
              <g id="Grupo_932003" data-name="Grupo 932003">
                <path id="Trazado_640165" data-name="Trazado 640165" d="M656.645,4416.154H991.8a3.841,3.841,0,0,0,3.841-3.841h0a3.84,3.84,0,0,0-3.841-3.84H656.645a3.84,3.84,0,0,0-3.84,3.84h0A3.84,3.84,0,0,0,656.645,4416.154Z" fill="#263238"/>
              </g>
              <g id="Grupo_932004" data-name="Grupo 932004" opacity="0.6" style="isolation: isolate">
                <path id="Trazado_640166" data-name="Trazado 640166" d="M656.645,4416.154H991.8a3.841,3.841,0,0,0,3.841-3.841h0a3.84,3.84,0,0,0-3.841-3.84H656.645a3.84,3.84,0,0,0-3.84,3.84h0A3.84,3.84,0,0,0,656.645,4416.154Z" fill="#fff"/>
              </g>
            </g>
          </g>
          <g id="Grupo_932007" data-name="Grupo 932007">
            <path id="Trazado_640167" data-name="Trazado 640167" d="M934,4400.261a30.218,30.218,0,0,0-8.244-3.245c-4-.743-8.207-1.355-10.68-1.768-2.974-.5-2.291,2.286.127,3.6,3.668,2,5.84,1.772,5.84,1.772s-16.168.5-20.12,2.312c-3.607,1.654,5.321,1.823,12.7,2.374,0,0-15.531,3.195-16.483,5.718-1.25,3.311,17.554-.616,17.554-.616s-13.435,4.958-12.619,6.48c.91,1.7,15.283-1.7,15.283-1.7s-8.927,4.222-8.026,5.038c1.783,1.615,22.213-3.332,28.11-10.92C937.445,4409.315,935.921,4401.6,934,4400.261Z" fill="#ffaf82"/>
          </g>
          <path id="Trazado_640168" data-name="Trazado 640168" d="M1035.969,4331.2s-7.611,30.227-31.487,54.177c0,0-32.076,24.281-67.21,24.94,0,0-4.636-2.655-3.269-10.06,0,0,22.415-10.2,32.09-16.008,13.93-8.365,24.75-13.361,24.75-13.361s15.787-26.414,17.287-47.948c0,0,3.263-18.333,21.327-10.207C1032.641,4314.169,1038.3,4321.917,1035.969,4331.2Z" fill="#e63067"/>
          <g id="Grupo_932008" data-name="Grupo 932008">
            <path id="Trazado_640169" data-name="Trazado 640169" d="M873.9,4388.132a45.01,45.01,0,0,0-7.738-3.728c-3.812-1.3-8.483-2.761-10.849-3.52-2.846-.914-2.785,2.432,1.082,3.91s4.745,1.835,4.745,1.835-15.93-1.829-20.065-.618c-3.776,1.1,4.957,2.551,12.115,4.149,0,0-15.692.906-16.987,3.244-1.7,3.068,17.3,1.914,17.3,1.914s-13.888,2.936-13.306,4.546c.649,1.8,15.233.53,15.233.53s-9.362,2.86-8.6,3.79c1.518,1.839,22.266-.081,29.138-6.678C875.977,4397.506,875.588,4389.724,873.9,4388.132Z" fill="#ffaf82"/>
            <path id="Trazado_640170" data-name="Trazado 640170" d="M856.23,4388.644s-1.091,7.451,3.222,12.96C859.452,4401.6,853.066,4398.522,856.23,4388.644Z" fill="#f88968"/>
            <path id="Trazado_640171" data-name="Trazado 640171" d="M861.741,4393.939s8.2,3.188,10.813-4.125C872.554,4389.814,872.264,4398.99,861.741,4393.939Z" fill="#f88968"/>
          </g>
        </g>
      </g>
    </g>
    <g id="Grupo_932012" data-name="Grupo 932012" transform="translate(-1818.031 337.698)">
      <rect id="Rectángulo_335493" data-name="Rectángulo 335493" width="223.074" height="85.542" rx="13.129" transform="translate(13.039 0)" fill="#fff"/>
      <path id="Trazado_639731" data-name="Trazado 639731" d="M1008.194,2275.079s-6.132,16.159-14.791,22.82c0,0,19.9-.245,26.079-6.9A102.277,102.277,0,0,1,1008.194,2275.079Z" transform="translate(-993.403 -2207.597)" fill="#fff"/>
    </g>
    <path id="Trazado_640210" data-name="Trazado 640210" d="M21.73,11.688a4.58,4.58,0,0,1-.168,1.324,2.959,2.959,0,0,1-.535.957q-.375.461-1.094,1.215a2.674,2.674,0,0,0-.8,1.527L19.113,17a1.752,1.752,0,0,0,.453,1.3,1.775,1.775,0,0,0,1.3.449,1.821,1.821,0,0,0,1.27-.441,1.48,1.48,0,0,0,.488-1.152h1.445a2.7,2.7,0,0,1-.895,2.055,3.3,3.3,0,0,1-2.309.8,3.326,3.326,0,0,1-2.367-.785,2.85,2.85,0,0,1-.836-2.184,4.076,4.076,0,0,1,1.25-2.719l.852-.883a2.638,2.638,0,0,0,.516-1.75Zm.063-2.473a.869.869,0,0,1-.215.6.8.8,0,0,1-.637.243.817.817,0,0,1-.641-.243.86.86,0,0,1-.219-.6.821.821,0,0,1,.219-.581.832.832,0,0,1,.641-.235.819.819,0,0,1,.637.235A.83.83,0,0,1,21.793,9.215Zm7.7,2.121,2.969-5.711h1.7l-3.922,7.133V17h-1.5V12.758L24.824,5.625h1.719Zm13.383,5.82a3.693,3.693,0,0,1-2.8-1.129A4.19,4.19,0,0,1,39,13.008v-.266a5.073,5.073,0,0,1,.48-2.246,3.748,3.748,0,0,1,1.344-1.547A3.378,3.378,0,0,1,42.7,8.391a3.166,3.166,0,0,1,2.563,1.086,4.7,4.7,0,0,1,.914,3.109v.6H40.449a3,3,0,0,0,.73,2.02,2.3,2.3,0,0,0,1.777.77,2.517,2.517,0,0,0,1.3-.312,3.259,3.259,0,0,0,.93-.828l.883.688A3.55,3.55,0,0,1,42.879,17.156ZM42.7,9.578a1.928,1.928,0,0,0-1.469.637A3.1,3.1,0,0,0,40.5,12H44.73v-.109a2.753,2.753,0,0,0-.594-1.707A1.815,1.815,0,0,0,42.7,9.578Zm10.07,5.18a1.064,1.064,0,0,0-.441-.91,4.249,4.249,0,0,0-1.539-.559,7.277,7.277,0,0,1-1.742-.562,2.479,2.479,0,0,1-.953-.781,1.869,1.869,0,0,1-.309-1.078,2.193,2.193,0,0,1,.879-1.758,3.432,3.432,0,0,1,2.246-.719,3.532,3.532,0,0,1,2.332.742,2.357,2.357,0,0,1,.895,1.9H52.684a1.3,1.3,0,0,0-.5-1.023,1.888,1.888,0,0,0-1.27-.43,1.976,1.976,0,0,0-1.234.344,1.082,1.082,0,0,0-.445.9.877.877,0,0,0,.414.789,5.1,5.1,0,0,0,1.5.508,7.8,7.8,0,0,1,1.754.578,2.558,2.558,0,0,1,1,.809,1.988,1.988,0,0,1,.324,1.152,2.163,2.163,0,0,1-.906,1.816,3.8,3.8,0,0,1-2.352.684,4.257,4.257,0,0,1-1.8-.359,2.922,2.922,0,0,1-1.223-1A2.42,2.42,0,0,1,47.5,14.4h1.445a1.5,1.5,0,0,0,.582,1.152,2.258,2.258,0,0,0,1.434.426,2.331,2.331,0,0,0,1.316-.332A1.02,1.02,0,0,0,52.77,14.758ZM61.316,17a3.036,3.036,0,0,1-.2-.891,3.225,3.225,0,0,1-2.406,1.047,2.984,2.984,0,0,1-2.051-.707,2.287,2.287,0,0,1-.8-1.793,2.39,2.39,0,0,1,1-2.051,4.733,4.733,0,0,1,2.824-.73H61.09v-.664A1.623,1.623,0,0,0,60.637,10,1.821,1.821,0,0,0,59.3,9.555a2.107,2.107,0,0,0-1.3.391,1.151,1.151,0,0,0-.523.945H56.027a2,2,0,0,1,.449-1.223A3.066,3.066,0,0,1,57.7,8.734a4.1,4.1,0,0,1,1.691-.344,3.342,3.342,0,0,1,2.289.73,2.635,2.635,0,0,1,.859,2.012v3.891a4.757,4.757,0,0,0,.3,1.852V17Zm-2.4-1.1a2.54,2.54,0,0,0,1.289-.352,2.127,2.127,0,0,0,.883-.914V12.9H59.957q-2.656,0-2.656,1.555a1.316,1.316,0,0,0,.453,1.063A1.742,1.742,0,0,0,58.918,15.9Zm13.93-6.055a4.331,4.331,0,0,0-.711-.055A1.9,1.9,0,0,0,70.207,11v6H68.762V8.547h1.406l.023.977a2.251,2.251,0,0,1,2.016-1.133,1.477,1.477,0,0,1,.641.109Zm4.836,7.313a3.693,3.693,0,0,1-2.8-1.129,4.19,4.19,0,0,1-1.078-3.02v-.266a5.073,5.073,0,0,1,.48-2.246,3.748,3.748,0,0,1,1.344-1.547A3.378,3.378,0,0,1,77.5,8.391a3.166,3.166,0,0,1,2.563,1.086,4.7,4.7,0,0,1,.914,3.109v.6H75.254a3,3,0,0,0,.73,2.02,2.3,2.3,0,0,0,1.777.77,2.517,2.517,0,0,0,1.3-.312,3.259,3.259,0,0,0,.93-.828l.883.688A3.55,3.55,0,0,1,77.684,17.156ZM77.5,9.578a1.928,1.928,0,0,0-1.469.637A3.1,3.1,0,0,0,75.3,12h4.234v-.109a2.753,2.753,0,0,0-.594-1.707A1.815,1.815,0,0,0,77.5,9.578Zm7.836,5.461,2.094-6.492H88.91L85.879,17h-1.1L81.715,8.547h1.477ZM91.871,17H90.426V8.547h1.445ZM90.309,6.3a.863.863,0,0,1,.215-.594.807.807,0,0,1,.637-.242.819.819,0,0,1,.641.242.854.854,0,0,1,.219.594.826.826,0,0,1-.219.586.834.834,0,0,1-.641.234.821.821,0,0,1-.637-.234A.834.834,0,0,1,90.309,6.3Zm8.8,8.453a1.064,1.064,0,0,0-.441-.91,4.249,4.249,0,0,0-1.539-.559,7.277,7.277,0,0,1-1.742-.562,2.479,2.479,0,0,1-.953-.781,1.869,1.869,0,0,1-.309-1.078A2.193,2.193,0,0,1,95,9.109a3.432,3.432,0,0,1,2.246-.719,3.532,3.532,0,0,1,2.332.742,2.357,2.357,0,0,1,.895,1.9H99.02a1.3,1.3,0,0,0-.5-1.023,1.888,1.888,0,0,0-1.27-.43,1.976,1.976,0,0,0-1.234.344,1.082,1.082,0,0,0-.445.9.877.877,0,0,0,.414.789,5.1,5.1,0,0,0,1.5.508,7.8,7.8,0,0,1,1.754.578,2.558,2.558,0,0,1,1,.809,1.988,1.988,0,0,1,.324,1.152,2.163,2.163,0,0,1-.906,1.816,3.8,3.8,0,0,1-2.352.684,4.257,4.257,0,0,1-1.8-.359,2.922,2.922,0,0,1-1.223-1,2.42,2.42,0,0,1-.441-1.395h1.445a1.5,1.5,0,0,0,.582,1.152,2.258,2.258,0,0,0,1.434.426,2.331,2.331,0,0,0,1.316-.332A1.02,1.02,0,0,0,99.105,14.758ZM104,17h-1.445V8.547H104ZM102.441,6.3a.863.863,0,0,1,.215-.594.807.807,0,0,1,.637-.242.819.819,0,0,1,.641.242.854.854,0,0,1,.219.594.826.826,0,0,1-.219.586.834.834,0,0,1-.641.234.821.821,0,0,1-.637-.234A.834.834,0,0,1,102.441,6.3Zm3.492,6.391a4.993,4.993,0,0,1,.488-2.234,3.643,3.643,0,0,1,1.359-1.531,3.7,3.7,0,0,1,1.988-.539,3.565,3.565,0,0,1,2.793,1.2,4.6,4.6,0,0,1,1.066,3.18v.1a5.036,5.036,0,0,1-.473,2.215,3.589,3.589,0,0,1-1.352,1.527,3.743,3.743,0,0,1-2.02.547,3.556,3.556,0,0,1-2.785-1.2,4.575,4.575,0,0,1-1.066-3.164Zm1.453.172a3.616,3.616,0,0,0,.652,2.258,2.211,2.211,0,0,0,3.5-.012,3.955,3.955,0,0,0,.648-2.418,3.61,3.61,0,0,0-.66-2.254,2.1,2.1,0,0,0-1.754-.863,2.075,2.075,0,0,0-1.727.852A3.925,3.925,0,0,0,107.387,12.867ZM110.426,5h1.75l-2.094,2.3-1.164,0Zm6.383,3.547.047,1.063a3.08,3.08,0,0,1,2.531-1.219q2.68,0,2.7,3.023V17h-1.445V11.406a1.946,1.946,0,0,0-.418-1.352,1.675,1.675,0,0,0-1.277-.437,2.086,2.086,0,0,0-1.234.375,2.546,2.546,0,0,0-.828.984V17h-1.445V8.547Zm14.93,8.609a3.693,3.693,0,0,1-2.8-1.129,4.19,4.19,0,0,1-1.078-3.02v-.266a5.073,5.073,0,0,1,.48-2.246,3.748,3.748,0,0,1,1.344-1.547,3.378,3.378,0,0,1,1.871-.559,3.166,3.166,0,0,1,2.563,1.086,4.7,4.7,0,0,1,.914,3.109v.6h-5.727a3,3,0,0,0,.73,2.02,2.3,2.3,0,0,0,1.777.77,2.517,2.517,0,0,0,1.3-.312,3.258,3.258,0,0,0,.93-.828l.883.688A3.55,3.55,0,0,1,131.738,17.156Zm-.18-7.578a1.928,1.928,0,0,0-1.469.637A3.1,3.1,0,0,0,129.355,12h4.234v-.109A2.753,2.753,0,0,0,133,10.184,1.815,1.815,0,0,0,131.559,9.578Zm10.07,5.18a1.064,1.064,0,0,0-.441-.91,4.249,4.249,0,0,0-1.539-.559,7.277,7.277,0,0,1-1.742-.562,2.479,2.479,0,0,1-.953-.781,1.869,1.869,0,0,1-.309-1.078,2.193,2.193,0,0,1,.879-1.758,3.432,3.432,0,0,1,2.246-.719,3.532,3.532,0,0,1,2.332.742,2.357,2.357,0,0,1,.895,1.9h-1.453a1.3,1.3,0,0,0-.5-1.023,1.888,1.888,0,0,0-1.27-.43,1.976,1.976,0,0,0-1.234.344,1.082,1.082,0,0,0-.445.9.877.877,0,0,0,.414.789,5.1,5.1,0,0,0,1.5.508,7.8,7.8,0,0,1,1.754.578,2.558,2.558,0,0,1,1,.809,1.988,1.988,0,0,1,.324,1.152,2.163,2.163,0,0,1-.906,1.816,3.8,3.8,0,0,1-2.352.684,4.257,4.257,0,0,1-1.8-.359,2.922,2.922,0,0,1-1.223-1,2.42,2.42,0,0,1-.441-1.395H137.8a1.5,1.5,0,0,0,.582,1.152,2.258,2.258,0,0,0,1.434.426,2.331,2.331,0,0,0,1.316-.332A1.02,1.02,0,0,0,141.629,14.758ZM39.672,39.977a2.082,2.082,0,0,0,1.352-.469,1.649,1.649,0,0,0,.641-1.172h1.367a2.621,2.621,0,0,1-.5,1.383,3.293,3.293,0,0,1-1.23,1.047,3.55,3.55,0,0,1-1.629.391A3.482,3.482,0,0,1,36.926,40a4.59,4.59,0,0,1-1.02-3.152v-.242a5.089,5.089,0,0,1,.453-2.2,3.451,3.451,0,0,1,1.3-1.492,3.7,3.7,0,0,1,2-.531,3.39,3.39,0,0,1,2.363.852,3.043,3.043,0,0,1,1,2.211H41.664a1.992,1.992,0,0,0-.621-1.348,1.932,1.932,0,0,0-1.379-.527,2.023,2.023,0,0,0-1.707.793,3.724,3.724,0,0,0-.605,2.293v.273a3.65,3.65,0,0,0,.6,2.25A2.033,2.033,0,0,0,39.672,39.977Zm4.6-3.281a4.993,4.993,0,0,1,.488-2.234,3.643,3.643,0,0,1,1.359-1.531,3.7,3.7,0,0,1,1.988-.539,3.565,3.565,0,0,1,2.793,1.2,4.6,4.6,0,0,1,1.066,3.18v.1a5.036,5.036,0,0,1-.473,2.215,3.589,3.589,0,0,1-1.352,1.527,3.743,3.743,0,0,1-2.02.547,3.556,3.556,0,0,1-2.785-1.2A4.575,4.575,0,0,1,44.273,36.8Zm1.453.172a3.616,3.616,0,0,0,.652,2.258,2.211,2.211,0,0,0,3.5-.012,3.955,3.955,0,0,0,.648-2.418,3.61,3.61,0,0,0-.66-2.254,2.1,2.1,0,0,0-1.754-.863,2.075,2.075,0,0,0-1.727.852A3.925,3.925,0,0,0,45.727,36.867Zm9.414-4.32.039.938a3.122,3.122,0,0,1,2.508-1.094A2.417,2.417,0,0,1,60.1,33.75a3.2,3.2,0,0,1,1.1-.984,3.242,3.242,0,0,1,1.6-.375q2.781,0,2.828,2.945V41H64.18V35.422a1.941,1.941,0,0,0-.414-1.355,1.823,1.823,0,0,0-1.391-.449,1.916,1.916,0,0,0-1.336.48,1.949,1.949,0,0,0-.617,1.293V41H58.969V35.461a1.613,1.613,0,0,0-1.8-1.844,1.934,1.934,0,0,0-1.945,1.211V41H53.773V32.547Zm19.8,4.32a5.062,5.062,0,0,1-.883,3.109,2.829,2.829,0,0,1-2.391,1.18,3.1,3.1,0,0,1-2.422-.977v4.07H67.8v-11.7h1.32l.07.938a2.977,2.977,0,0,1,2.453-1.094,2.882,2.882,0,0,1,2.41,1.148,5.117,5.117,0,0,1,.887,3.2ZM73.5,36.7a3.735,3.735,0,0,0-.609-2.258,1.963,1.963,0,0,0-1.672-.828,2.125,2.125,0,0,0-1.969,1.164V38.82a2.129,2.129,0,0,0,1.984,1.156,1.954,1.954,0,0,0,1.652-.824A4.077,4.077,0,0,0,73.5,36.7ZM78.352,41H76.906V29h1.445Zm3.883,0H80.789V32.547h1.445ZM80.672,30.3a.863.863,0,0,1,.215-.594.807.807,0,0,1,.637-.242.819.819,0,0,1,.641.242.854.854,0,0,1,.219.594.826.826,0,0,1-.219.586.834.834,0,0,1-.641.234.821.821,0,0,1-.637-.234A.834.834,0,0,1,80.672,30.3Zm7.266,9.672a2.082,2.082,0,0,0,1.352-.469,1.649,1.649,0,0,0,.641-1.172H91.3a2.621,2.621,0,0,1-.5,1.383,3.293,3.293,0,0,1-1.23,1.047,3.55,3.55,0,0,1-1.629.391A3.482,3.482,0,0,1,85.191,40a4.59,4.59,0,0,1-1.02-3.152v-.242a5.089,5.089,0,0,1,.453-2.2,3.451,3.451,0,0,1,1.3-1.492,3.7,3.7,0,0,1,2-.531,3.39,3.39,0,0,1,2.363.852,3.043,3.043,0,0,1,1,2.211H89.93a1.992,1.992,0,0,0-.621-1.348,1.932,1.932,0,0,0-1.379-.527,2.023,2.023,0,0,0-1.707.793,3.724,3.724,0,0,0-.605,2.293v.273a3.65,3.65,0,0,0,.6,2.25A2.033,2.033,0,0,0,87.938,39.977ZM98.141,41a3.036,3.036,0,0,1-.2-.891,3.225,3.225,0,0,1-2.406,1.047,2.984,2.984,0,0,1-2.051-.707,2.288,2.288,0,0,1-.8-1.793,2.39,2.39,0,0,1,1-2.051,4.733,4.733,0,0,1,2.824-.73h1.406v-.664A1.623,1.623,0,0,0,97.461,34a1.821,1.821,0,0,0-1.336-.449,2.107,2.107,0,0,0-1.3.391,1.151,1.151,0,0,0-.523.945H92.852a2,2,0,0,1,.449-1.223,3.066,3.066,0,0,1,1.219-.934,4.1,4.1,0,0,1,1.691-.344,3.342,3.342,0,0,1,2.289.73,2.635,2.635,0,0,1,.859,2.012v3.891a4.757,4.757,0,0,0,.3,1.852V41Zm-2.4-1.1a2.54,2.54,0,0,0,1.289-.352,2.127,2.127,0,0,0,.883-.914V36.9H96.781q-2.656,0-2.656,1.555a1.316,1.316,0,0,0,.453,1.063A1.742,1.742,0,0,0,95.742,39.9Zm5.531-3.2a4.952,4.952,0,0,1,.922-3.129,3.137,3.137,0,0,1,4.766-.168V29h1.445V41h-1.328l-.07-.906a2.943,2.943,0,0,1-2.414,1.063,2.887,2.887,0,0,1-2.395-1.2,5.008,5.008,0,0,1-.926-3.141Zm1.445.164a3.749,3.749,0,0,0,.594,2.25,1.92,1.92,0,0,0,1.641.813,2.108,2.108,0,0,0,2.008-1.234V34.813a2.125,2.125,0,0,0-1.992-1.2,1.929,1.929,0,0,0-1.656.82A4.128,4.128,0,0,0,102.719,36.867ZM115.867,41a3.036,3.036,0,0,1-.2-.891,3.225,3.225,0,0,1-2.406,1.047,2.984,2.984,0,0,1-2.051-.707,2.288,2.288,0,0,1-.8-1.793,2.39,2.39,0,0,1,1-2.051,4.733,4.733,0,0,1,2.824-.73h1.406v-.664A1.623,1.623,0,0,0,115.188,34a1.821,1.821,0,0,0-1.336-.449,2.107,2.107,0,0,0-1.3.391,1.151,1.151,0,0,0-.523.945h-1.453a2,2,0,0,1,.449-1.223,3.066,3.066,0,0,1,1.219-.934,4.1,4.1,0,0,1,1.691-.344,3.342,3.342,0,0,1,2.289.73,2.635,2.635,0,0,1,.859,2.012v3.891a4.757,4.757,0,0,0,.3,1.852V41Zm-2.4-1.1a2.54,2.54,0,0,0,1.289-.352,2.127,2.127,0,0,0,.883-.914V36.9h-1.133q-2.656,0-2.656,1.555a1.316,1.316,0,0,0,.453,1.063A1.742,1.742,0,0,0,113.469,39.9Zm7.578-2.115a4.663,4.663,0,0,1,.211-1.466,3.761,3.761,0,0,1,.8-1.193l1.023-1.053a2.36,2.36,0,0,0,.656-1.59,1.814,1.814,0,0,0-.43-1.282,1.62,1.62,0,0,0-1.25-.464,1.881,1.881,0,0,0-1.281.422,1.426,1.426,0,0,0-.484,1.133h-1.445a2.632,2.632,0,0,1,.9-2.043,3.374,3.374,0,0,1,2.309-.777,3.185,3.185,0,0,1,2.3.792,2.87,2.87,0,0,1,.824,2.172,3.926,3.926,0,0,1-1.266,2.691l-.852.842a2.623,2.623,0,0,0-.57,1.818Zm-.062,2.482a.861.861,0,0,1,.215-.6.81.81,0,0,1,.637-.241.822.822,0,0,1,.641.241.852.852,0,0,1,.219.6.824.824,0,0,1-.219.588.837.837,0,0,1-.641.233.774.774,0,0,1-.852-.82Z" transform="translate(-1773.562 358.657)" fill="#12263f"/>
  </g>
</svg>
