<svg xmlns="http://www.w3.org/2000/svg" xmlns:xlink="http://www.w3.org/1999/xlink" width="1207.248" height="599.881" viewBox="0 0 1207.248 599.881">
  <defs>
    <clipPath id="clip-path">
      <path id="Rectángulo_335407" data-name="Rectángulo 335407" d="M73.5,52.134H1261.274a9.574,9.574,0,0,1,9.736,9.4V642.613a9.573,9.573,0,0,1-9.736,9.4H73.5a9.573,9.573,0,0,1-9.736-9.4V61.537A9.574,9.574,0,0,1,73.5,52.134Z" fill="none"/>
    </clipPath>
    <clipPath id="clip-path-2">
      <rect id="Rectángulo_335410" data-name="Rectángulo 335410" width="253.781" height="424.515" transform="translate(262.299 227.5)" fill="none"/>
    </clipPath>
    <clipPath id="clip-path-3">
      <rect id="Rectángulo_335417" data-name="Rectángulo 335417" width="478.41" height="362.821" transform="translate(677.115 289.194)" fill="none"/>
    </clipPath>
  </defs>
  <g id="Grupo_932051" data-name="Grupo 932051" transform="translate(-196.376 -1608)">
    <g id="Grupo_930482" data-name="Grupo 930482" transform="translate(132.614 1555.866)">
      <g id="Grupo_930237" data-name="Grupo 930237">
        <g id="Grupo_930236" data-name="Grupo 930236" clip-path="url(#clip-path)">
          <g id="Grupo_930234" data-name="Grupo 930234" opacity="0.57">
            <path id="Trazado_639094" data-name="Trazado 639094" d="M1283.15,463.3c-45.563-22.964-90.22-35.891-148.361-38.771s-118.012,6.857-164.314,28.645c-49.721,23.4-81.019,58.469-118.821,89.348-31.561,25.78-70.006,49.744-118.863,60.989-69.9,16.087-147.7,3.74-220.693-6.775s-154.178-18.381-218.514,4.956c-21.363,7.749-53.57,31.079-63.186,48.585" fill="none" stroke="#fccf00" stroke-miterlimit="10" stroke-width="1" opacity="0.53" style="mix-blend-mode: multiply;isolation: isolate"/>
            <path id="Trazado_639095" data-name="Trazado 639095" d="M1281.138,474.433c-34.842-18.472-76.845-20.936-122.309-22.207-36.533-1.021-73.714-.443-108.548,6.252-35.376,6.8-66.847,19.613-96.825,33.084-91.016,40.9-180.055,91.2-291.814,99.593-97.164,7.3-201.489-18.47-291.18,5.582-35.413,9.5-91.107,33.265-109.554,54.367l1018.048,8.821Z" fill="#fccf00" opacity="0.53" style="mix-blend-mode: multiply;isolation: isolate"/>
            <path id="Trazado_639096" data-name="Trazado 639096" d="M1279.883,661.109l.109-9.268c.624-53.077-30.388-101.932-79.876-125.025l-1.023-.476c-24.847-11.548-51.67-22.028-81.532-27.006s-63.331-3.888-89.135,6.476c-58.021,23.3-54.048,79.608-103.187,109.806-38.051,23.383-99.02,25.2-151.377,17.472s-101.29-23.357-153.929-30.263c-93.665-12.288-195.694,5.609-264.635,46.42-1.207.714-.8,5.693,1.6,1.151" fill="#ffeacf" opacity="0.46" style="mix-blend-mode: screen;isolation: isolate"/>
            <path id="Trazado_639097" data-name="Trazado 639097" d="M706.29,619.773c-29.668-2.681-58.165-9.054-87.223-13.729a769.817,769.817,0,0,0-188.207-6.623c-23.554,2.077-47.328,5.364-67.635,13.006-22.344,8.408-38.993,21.506-54.174,34.742" fill="none" stroke="#ffd297" stroke-miterlimit="10" stroke-width="1.168" opacity="0.28" style="mix-blend-mode: screen;isolation: isolate"/>
            <path id="Trazado_639098" data-name="Trazado 639098" d="M1282.6,526.639c-12.808-17.4-35.734-31.517-62.315-41.1s-56.694-14.833-87.034-17.321c-23.729-1.946-48.033-2.238-71.29,1.056-25.877,3.665-49.563,11.619-72.343,20.036-12.583,4.65-82.752,85.322-85.219,94.343-19.541,71.454-167.328,17-184.858,44.64" fill="none" stroke="#ffd297" stroke-miterlimit="10" stroke-width="1.168" opacity="0.28" style="mix-blend-mode: screen;isolation: isolate"/>
          </g>
          <g id="Grupo_930235" data-name="Grupo 930235" opacity="0.57">
            <path id="Trazado_639099" data-name="Trazado 639099" d="M53.044,241.614c46,22.139,90.9,34.258,149.086,36.088s117.858-8.986,163.73-31.6c49.26-24.29,79.874-59.921,117.072-91.477,31.057-26.345,69.032-51,117.662-63.123,69.574-17.346,147.6-6.4,220.786,2.791s154.507,15.6,218.38-8.9c21.209-8.134,52.959-32.04,62.235-49.717" fill="none" stroke="#fccf00" stroke-miterlimit="10" stroke-width="1" opacity="0.53" style="mix-blend-mode: multiply;isolation: isolate"/>
            <path id="Trazado_639100" data-name="Trazado 639100" d="M54.841,230.448c35.193,17.84,77.236,19.545,122.716,19.995,36.547.362,73.711-.887,108.409-8.209,35.238-7.437,66.455-20.816,96.168-34.825,90.209-42.532,178.259-94.432,289.836-104.842,97.006-9.05,201.811,14.831,291.021-10.836,35.223-10.134,90.447-34.9,108.483-56.334L53.433,44.949Z" fill="#fccf00" opacity="0.53" style="mix-blend-mode: multiply;isolation: isolate"/>
            <path id="Trazado_639101" data-name="Trazado 639101" d="M52.484,43.781l.07,9.269c.4,53.079,32.355,101.365,82.281,123.561l1.031.458c25.067,11.1,52.088,21.092,82.041,25.53s63.4,2.744,88.994-8.083c57.56-24.346,52.5-80.57,101.045-111.649,37.591-24.066,98.515-26.983,151.012-20.2s101.724,21.526,154.488,27.48C807.332,100.741,909,81.006,977.137,38.959c1.193-.736.694-5.706-1.622-1.122" fill="#ffeacf" opacity="0.46" style="mix-blend-mode: screen;isolation: isolate"/>
            <path id="Trazado_639102" data-name="Trazado 639102" d="M626.776,74.76c29.715,2.145,58.33,8,87.473,12.152a769.9,769.9,0,0,0,188.3,3.226c23.509-2.5,47.216-6.217,67.371-14.224C992.1,67.1,1008.494,53.708,1023.416,40.2" fill="none" stroke="#ffd297" stroke-miterlimit="10" stroke-width="1.168" opacity="0.28" style="mix-blend-mode: screen;isolation: isolate"/>
            <path id="Trazado_639103" data-name="Trazado 639103" d="M52.372,178.277c13.141,17.161,36.337,30.867,63.1,39.966s56.971,13.807,87.354,15.748c23.763,1.517,48.068,1.371,71.257-2.342,25.8-4.131,49.33-12.512,71.942-21.339,12.492-4.876,81.088-86.8,83.38-95.864,18.155-71.794,166.969-20.012,183.961-47.968" fill="none" stroke="#ffd297" stroke-miterlimit="10" stroke-width="1.168" opacity="0.28" style="mix-blend-mode: screen;isolation: isolate"/>
          </g>
        </g>
      </g>
      <g id="Grupo_930360" data-name="Grupo 930360">
        <g id="Grupo_930359" data-name="Grupo 930359" clip-path="url(#clip-path-2)">
          <g id="Grupo_930358" data-name="Grupo 930358">
            <ellipse id="Elipse_4937" data-name="Elipse 4937" cx="87.151" cy="13.222" rx="87.151" ry="13.222" transform="translate(303.165 735.895)" fill="#32324c" opacity="0.1"/>
            <g id="Grupo_930238" data-name="Grupo 930238">
              <path id="Trazado_639104" data-name="Trazado 639104" d="M510.7,594.18c-7.37,108.64-144.443,152.669-212.111,67.357-13.819-17.423-17.125-59.437-13.545-81.6,14.432-89.321,60.238-98.447,26.039-154.947s-37.376-159.07,57.039-158.27,33.551,151.707,98.589,193.915C496.46,479.942,514.54,537.6,510.7,594.18Z" fill="#32324c" opacity="0.1"/>
              <path id="Trazado_639105" data-name="Trazado 639105" d="M474.916,436.215a14.4,14.4,0,0,1-15.879-4.567c-6.144-7.444-15.947-22.474-13.029-39.967,4.169-24.988,35.836-5.039,38.326,23.048C485.579,428.772,480.4,434.249,474.916,436.215Z" fill="#32324c" opacity="0.1"/>
              <path id="Trazado_639106" data-name="Trazado 639106" d="M441.193,370.5a7.514,7.514,0,0,1-5.09-6.955c-.157-5.032.6-14.362,7.391-20.644,9.7-8.975,16.389,9.366,8.446,21.746C447.968,370.836,444.084,371.441,441.193,370.5Z" fill="#32324c" opacity="0.1"/>
              <path id="Trazado_639107" data-name="Trazado 639107" d="M285.648,492.608a7.514,7.514,0,0,1-6.267-5.917c-1.066-4.921-2.011-14.234,3.529-21.642,7.913-10.583,17.815,6.242,12.246,19.856C292.371,491.712,288.661,493.011,285.648,492.608Z" fill="#32324c" opacity="0.1"/>
            </g>
            <g id="Grupo_930357" data-name="Grupo 930357">
              <g id="Grupo_930356" data-name="Grupo 930356">
                <g id="Grupo_930240" data-name="Grupo 930240">
                  <g id="Grupo_930239" data-name="Grupo 930239">
                    <path id="Trazado_639108" data-name="Trazado 639108" d="M461.45,473.723a50.185,50.185,0,0,1,9.14,2.91c4.093,1.867,9,4.266,11.505,5.465,3.01,1.441.394,4.11-3.878,2.343s-5.258-2.151-5.258-2.151,14.33,10.736,16.758,14.89c2.217,3.793-5.98-1.732-13.015-5.925,0,0,12.039,12.771,11.3,15.662-.974,3.794-15.513-11.721-15.513-11.721s9.02,13.036,7.312,13.9c-1.9.961-12.769-11.255-12.769-11.255s5.4,9.5,4.068,9.669c-2.642.329-18.007-17.145-18.524-27.77C452.574,479.736,458.858,473.719,461.45,473.723Z" fill="#ffaf82"/>
                    <path id="Trazado_639109" data-name="Trazado 639109" d="M475.4,487.691s-4.829,6.885-12.554,8.046C462.842,495.737,470.388,498.134,475.4,487.691Z" fill="#f88968"/>
                    <path id="Trazado_639110" data-name="Trazado 639110" d="M466.863,487.761s-9.1-3.7-5.611-11.642C461.252,476.119,454.449,483.789,466.863,487.761Z" fill="#f88968"/>
                  </g>
                  <path id="Trazado_639111" data-name="Trazado 639111" d="M429.723,414.713c-6.934-59.659-20.429-83.542-20.429-83.542-12.211,49.951-2.68,77.113,1.425,90.14s41.855,59.982,41.855,59.982a20.012,20.012,0,0,1,10.554-7.176s-11.961-21.09-16.2-28.987S429.723,414.713,429.723,414.713Z" fill="#00784e"/>
                </g>
                <g id="Grupo_930316" data-name="Grupo 930316">
                  <g id="Grupo_930274" data-name="Grupo 930274">
                    <g id="Grupo_930241" data-name="Grupo 930241">
                      <path id="Trazado_639112" data-name="Trazado 639112" d="M426.882,611.291,417.3,727h-16.88c-3.906-45.094-10.208-84.6-3.1-115.708-7.157-35.066-12.477-114.659-12.477-114.659,12.882-5.9,33.537-11.275,33.537-11.275C425.229,524.275,426.882,611.291,426.882,611.291Z" fill="#050705"/>
                    </g>
                    <g id="Grupo_930273" data-name="Grupo 930273">
                      <g id="Grupo_930243" data-name="Grupo 930243">
                        <g id="Grupo_930242" data-name="Grupo 930242">
                          <path id="Trazado_639113" data-name="Trazado 639113" d="M456.5,754.273H401.3a5.112,5.112,0,0,1-5.067-4.429,5.059,5.059,0,0,1-.031-1.075l2.242-28.994a32.286,32.286,0,0,1,5.514-1.821,5.59,5.59,0,0,0,4.093-3.713c.041-.137.077-.279.112-.421,1.268-5.58,9.313-7.355,10.8-1.9.193.7.361,1.39.5,2.049.035.162.071.33.1.487.239,1.172.411,2.252.533,3.2.005.02.005.04.01.06a31.259,31.259,0,0,1,.274,3.942q1.1,1.392,2.12,2.739c.35.446.685.893,1.02,1.329.725.943,1.43,1.861,2.125,2.744.32.416.639.817.958,1.212.767.959,1.522,1.867,2.278,2.714.34.386.68.761,1.03,1.121,2.846,2.993,5.717,5.037,9.11,5.509,5.985.822,15.765,1.481,20.487,10.267a3.1,3.1,0,0,1,.239.557A3.406,3.406,0,0,1,456.5,754.273Z" fill="#de9d01"/>
                        </g>
                      </g>
                      <g id="Grupo_930245" data-name="Grupo 930245">
                        <g id="Grupo_930244" data-name="Grupo 930244">
                          <path id="Trazado_639114" data-name="Trazado 639114" d="M456.5,754.271H401.3a5.111,5.111,0,0,1-5.067-4.428h63.517A3.405,3.405,0,0,1,456.5,754.271Z" fill="#bf8005"/>
                        </g>
                      </g>
                      <g id="Grupo_930253" data-name="Grupo 930253">
                        <g id="Grupo_930248" data-name="Grupo 930248">
                          <g id="Grupo_930247" data-name="Grupo 930247">
                            <g id="Grupo_930246" data-name="Grupo 930246">
                              <path id="Trazado_639115" data-name="Trazado 639115" d="M423.518,725.72c-.64.938-1.943,2.075-4.571,3.125q-.669.273-1.461.532l-.477-1.441c.523-.172.995-.345,1.421-.517,3.018-1.217,3.845-2.414,4.068-3.028C422.848,724.837,423.183,725.284,423.518,725.72Z" fill="#fff"/>
                            </g>
                          </g>
                        </g>
                        <g id="Grupo_930252" data-name="Grupo 930252">
                          <g id="Grupo_930251" data-name="Grupo 930251">
                            <g id="Grupo_930250" data-name="Grupo 930250">
                              <g id="Grupo_930249" data-name="Grupo 930249">
                                <circle id="Elipse_4938" data-name="Elipse 4938" cx="1.712" cy="1.712" r="1.712" transform="translate(415.534 726.945)" fill="#fff"/>
                              </g>
                            </g>
                          </g>
                        </g>
                      </g>
                      <g id="Grupo_930261" data-name="Grupo 930261">
                        <g id="Grupo_930256" data-name="Grupo 930256">
                          <g id="Grupo_930255" data-name="Grupo 930255">
                            <g id="Grupo_930254" data-name="Grupo 930254">
                              <path id="Trazado_639116" data-name="Trazado 639116" d="M426.6,729.676a10.793,10.793,0,0,1-3.778,2.379c-.528.229-1.106.442-1.751.655l-.476-1.446q.9-.3,1.613-.593a8.674,8.674,0,0,0,3.434-2.207C425.963,728.88,426.282,729.281,426.6,729.676Z" fill="#fff"/>
                            </g>
                          </g>
                        </g>
                        <g id="Grupo_930260" data-name="Grupo 930260">
                          <g id="Grupo_930259" data-name="Grupo 930259">
                            <g id="Grupo_930258" data-name="Grupo 930258">
                              <g id="Grupo_930257" data-name="Grupo 930257">
                                <path id="Trazado_639117" data-name="Trazado 639117" d="M422.826,731.989a1.712,1.712,0,1,1-1.712-1.712A1.713,1.713,0,0,1,422.826,731.989Z" fill="#fff"/>
                              </g>
                            </g>
                          </g>
                        </g>
                      </g>
                      <g id="Grupo_930269" data-name="Grupo 930269">
                        <g id="Grupo_930264" data-name="Grupo 930264">
                          <g id="Grupo_930263" data-name="Grupo 930263">
                            <g id="Grupo_930262" data-name="Grupo 930262">
                              <path id="Trazado_639118" data-name="Trazado 639118" d="M429.909,733.511a10.992,10.992,0,0,1-3.662,2.278c-.533.228-1.122.451-1.776.664L424,735.008c.6-.2,1.142-.4,1.624-.6a9.444,9.444,0,0,0,3.256-2.014C429.219,732.776,429.559,733.151,429.909,733.511Z" fill="#fff"/>
                            </g>
                          </g>
                        </g>
                        <g id="Grupo_930268" data-name="Grupo 930268">
                          <g id="Grupo_930267" data-name="Grupo 930267">
                            <g id="Grupo_930266" data-name="Grupo 930266">
                              <g id="Grupo_930265" data-name="Grupo 930265">
                                <path id="Trazado_639119" data-name="Trazado 639119" d="M426.25,735.729a1.712,1.712,0,1,1-1.712-1.712A1.712,1.712,0,0,1,426.25,735.729Z" fill="#fff"/>
                              </g>
                            </g>
                          </g>
                        </g>
                      </g>
                      <g id="Grupo_930272" data-name="Grupo 930272">
                        <g id="Grupo_930271" data-name="Grupo 930271">
                          <g id="Grupo_930270" data-name="Grupo 930270">
                            <path id="Trazado_639120" data-name="Trazado 639120" d="M420.094,717.65a38.631,38.631,0,0,0-4.921.279l.031-2.765a12.467,12.467,0,0,1,4.357-.71C419.8,715.626,419.972,716.706,420.094,717.65Z" fill="#fff"/>
                          </g>
                        </g>
                      </g>
                    </g>
                  </g>
                  <g id="Grupo_930315" data-name="Grupo 930315">
                    <g id="Grupo_930313" data-name="Grupo 930313">
                      <g id="Grupo_930275" data-name="Grupo 930275">
                        <path id="Trazado_639121" data-name="Trazado 639121" d="M375.752,496.632s-.435,45.933-6.953,114.659c-4.249,37.447-8.98,84.428-14.23,115.708h-16.9l-2.385-115.708s-3.867-71.207,4.538-120.272Z" fill="#2c2c2c"/>
                      </g>
                      <g id="Grupo_930312" data-name="Grupo 930312">
                        <g id="Grupo_930278" data-name="Grupo 930278">
                          <g id="Grupo_930277" data-name="Grupo 930277">
                            <g id="Grupo_930276" data-name="Grupo 930276">
                              <path id="Trazado_639122" data-name="Trazado 639122" d="M369.375,750.415c-.486,9.727-30.9,6.376-35.761,3.458-1.878-1.128-2.665-3.3-2.811-5.934-.239-4.2,1.143-9.566,2.339-13.773,1.946-6.853,1.678-6.726,3.03-11.41,0,0-.35-7.616,9.615-10.524s13.618,16.054,15.32,19.7c1.557,3.341,7.612,7.913,8.239,16.137A18.749,18.749,0,0,1,369.375,750.415Z" fill="#de9d01"/>
                            </g>
                          </g>
                        </g>
                        <g id="Grupo_930281" data-name="Grupo 930281">
                          <g id="Grupo_930280" data-name="Grupo 930280">
                            <g id="Grupo_930279" data-name="Grupo 930279">
                              <path id="Trazado_639123" data-name="Trazado 639123" d="M340.376,728.912l-.8-1.223c.371-.241,9.165-5.88,16.817-2.524l-.586,1.337C348.873,723.459,340.46,728.856,340.376,728.912Z" fill="#fff"/>
                            </g>
                          </g>
                        </g>
                        <g id="Grupo_930284" data-name="Grupo 930284">
                          <g id="Grupo_930283" data-name="Grupo 930283">
                            <g id="Grupo_930282" data-name="Grupo 930282">
                              <path id="Trazado_639124" data-name="Trazado 639124" d="M341.243,737.376l-.8-1.222c.371-.242,9.165-5.88,16.817-2.524l-.586,1.336C349.738,731.922,341.327,737.321,341.243,737.376Z" fill="#fff"/>
                            </g>
                          </g>
                        </g>
                        <g id="Grupo_930287" data-name="Grupo 930287">
                          <g id="Grupo_930286" data-name="Grupo 930286">
                            <g id="Grupo_930285" data-name="Grupo 930285">
                              <path id="Trazado_639125" data-name="Trazado 639125" d="M340.809,733.144l-.8-1.223c.37-.241,9.164-5.88,16.816-2.524l-.586,1.337C349.3,727.69,340.893,733.088,340.809,733.144Z" fill="#fff"/>
                            </g>
                          </g>
                        </g>
                        <g id="Grupo_930290" data-name="Grupo 930290">
                          <g id="Grupo_930289" data-name="Grupo 930289">
                            <g id="Grupo_930288" data-name="Grupo 930288">
                              <path id="Trazado_639126" data-name="Trazado 639126" d="M341.532,728.529a1.642,1.642,0,1,1-1.642-1.641A1.642,1.642,0,0,1,341.532,728.529Z" fill="#fff"/>
                            </g>
                          </g>
                        </g>
                        <g id="Grupo_930293" data-name="Grupo 930293">
                          <g id="Grupo_930292" data-name="Grupo 930292">
                            <g id="Grupo_930291" data-name="Grupo 930291">
                              <path id="Trazado_639127" data-name="Trazado 639127" d="M341.619,732.54a1.641,1.641,0,1,1-1.642-1.642A1.642,1.642,0,0,1,341.619,732.54Z" fill="#fff"/>
                            </g>
                          </g>
                        </g>
                        <g id="Grupo_930296" data-name="Grupo 930296">
                          <g id="Grupo_930295" data-name="Grupo 930295">
                            <g id="Grupo_930294" data-name="Grupo 930294">
                              <path id="Trazado_639128" data-name="Trazado 639128" d="M342.486,736.551a1.641,1.641,0,1,1-1.641-1.642A1.641,1.641,0,0,1,342.486,736.551Z" fill="#fff"/>
                            </g>
                          </g>
                        </g>
                        <g id="Grupo_930299" data-name="Grupo 930299">
                          <g id="Grupo_930298" data-name="Grupo 930298">
                            <g id="Grupo_930297" data-name="Grupo 930297">
                              <path id="Trazado_639129" data-name="Trazado 639129" d="M358.611,734.181a1.641,1.641,0,1,1-1.641-1.641A1.641,1.641,0,0,1,358.611,734.181Z" fill="#fff"/>
                            </g>
                          </g>
                        </g>
                        <g id="Grupo_930302" data-name="Grupo 930302">
                          <g id="Grupo_930301" data-name="Grupo 930301">
                            <g id="Grupo_930300" data-name="Grupo 930300">
                              <path id="Trazado_639130" data-name="Trazado 639130" d="M358.178,729.8a1.642,1.642,0,1,1-1.642-1.641A1.642,1.642,0,0,1,358.178,729.8Z" fill="#fff"/>
                            </g>
                          </g>
                        </g>
                        <g id="Grupo_930305" data-name="Grupo 930305">
                          <g id="Grupo_930304" data-name="Grupo 930304">
                            <g id="Grupo_930303" data-name="Grupo 930303">
                              <path id="Trazado_639131" data-name="Trazado 639131" d="M357.744,725.427a1.641,1.641,0,1,1-1.641-1.641A1.641,1.641,0,0,1,357.744,725.427Z" fill="#fff"/>
                            </g>
                          </g>
                        </g>
                        <g id="Grupo_930308" data-name="Grupo 930308">
                          <g id="Grupo_930307" data-name="Grupo 930307">
                            <g id="Grupo_930306" data-name="Grupo 930306">
                              <path id="Trazado_639132" data-name="Trazado 639132" d="M369.375,750.415c-.486,9.727-30.9,6.376-35.761,3.458-1.878-1.128-2.665-3.3-2.811-5.934,3.195,1.824,8.827,4.095,17.236,4.246,10.316.185,17.756-1.9,21.307-4.114A18.749,18.749,0,0,1,369.375,750.415Z" fill="#bf8005"/>
                            </g>
                          </g>
                        </g>
                        <g id="Grupo_930311" data-name="Grupo 930311">
                          <g id="Grupo_930310" data-name="Grupo 930310">
                            <g id="Grupo_930309" data-name="Grupo 930309">
                              <path id="Trazado_639133" data-name="Trazado 639133" d="M350.087,715.236a16.226,16.226,0,0,0-8.555,1.7l.445,3.08s5.512-1.621,9.16-1.378A7.228,7.228,0,0,0,350.087,715.236Z" fill="#fff"/>
                            </g>
                          </g>
                        </g>
                      </g>
                    </g>
                    <g id="Grupo_930314" data-name="Grupo 930314">
                      <path id="Trazado_639134" data-name="Trazado 639134" d="M342.2,478.984s-5.724,20.244-5.668,38.29c0,0,28.021,12.26,63.667-1.287a28.716,28.716,0,0,0,16.755-36.48c-.061-.173-.123-.348-.187-.523C416.772,478.984,371.19,477.114,342.2,478.984Z" fill="#2c2c2c"/>
                    </g>
                  </g>
                </g>
                <g id="Grupo_930335" data-name="Grupo 930335">
                  <g id="Grupo_930320" data-name="Grupo 930320">
                    <g id="Grupo_930319" data-name="Grupo 930319">
                      <g id="Grupo_930318" data-name="Grupo 930318">
                        <g id="Grupo_930317" data-name="Grupo 930317">
                          <path id="Trazado_639135" data-name="Trazado 639135" d="M426.882,490.665a146.593,146.593,0,0,1-18.236,7.115q-2.524.792-5.092,1.483a112.55,112.55,0,0,1-27.7,4.033A83.7,83.7,0,0,1,330,491.019l9.888-58.764-16.364-95.572,24.481-8.386,1.313-.451,2.412-.825,1.021-.35,2.064-.7,4.361-1.495,25.894,3.463,1.56.208,2.655.355,1.483.2,18.525,2.473Z" fill="#009762"/>
                        </g>
                      </g>
                    </g>
                  </g>
                  <path id="Trazado_639136" data-name="Trazado 639136" d="M403.554,499.263a112.55,112.55,0,0,1-27.7,4.033q.624-3.952,1.024-8.178.208-2.1.351-4.264.3-4.242.4-8.691.053-2.1.058-4.249.016-4.252-.108-8.648-.064-2.109-.154-4.237-.186-4.264-.49-8.625-.144-2.1-.319-4.222-.342-4.277-.786-8.606c-.143-1.4-.293-2.812-.451-4.218q-.474-4.287-1.036-8.59c-.181-1.406-.37-2.816-.562-4.222q-.59-4.3-1.245-8.583-.322-2.115-.662-4.222-.688-4.322-1.433-8.59-.365-2.121-.744-4.226-.78-4.345-1.6-8.594-.4-2.121-.821-4.226c-.578-2.916-1.163-5.793-1.753-8.613q-.444-2.144-.9-4.241-.948-4.421-1.895-8.626-.48-2.154-.967-4.248-1.029-4.485-2.034-8.652c-.347-1.453-.694-2.878-1.037-4.265-.751-3.066-1.483-5.967-2.18-8.679q-.572-2.225-1.109-4.279c-.99-3.768-1.888-7.073-2.654-9.831l2.064-.7,4.361-1.495,25.894,3.463,1.56.208q.7,3.664,1.368,7.343.381,2.085.747,4.175.733,4.184,1.429,8.379.353,2.091.686,4.183.677,4.2,1.31,8.379.318,2.1.624,4.187.618,4.2,1.2,8.379.294,2.1.574,4.2.566,4.212,1.094,8.386.266,2.115.524,4.211.513,4.229.994,8.394.242,2.12.473,4.222.474,4.246.9,8.409c.146,1.417.292,2.827.427,4.229q.434,4.264.809,8.421.2,2.144.386,4.245.381,4.295.712,8.433c.12,1.437.231,2.854.339,4.26q.33,4.327.613,8.452c.1,1.444.2,2.866.289,4.268q.282,4.38.508,8.482c.085,1.453.158,2.882.231,4.28.15,2.97.278,5.813.381,8.51.062,1.475.112,2.912.158,4.3.1,3.077.17,5.932.212,8.548.023,1.525.039,2.97.039,4.326C403.666,494.671,403.631,497.194,403.554,499.263Z" fill="#fff"/>
                  <g id="Grupo_930334" data-name="Grupo 930334">
                    <g id="Grupo_930321" data-name="Grupo 930321">
                      <path id="Trazado_639137" data-name="Trazado 639137" d="M388.746,339.66a176.971,176.971,0,0,1-22.539,1.31q-4.68,0-9.692-.189-.572-2.225-1.109-4.279A196.413,196.413,0,0,0,388,335.485Q388.38,337.57,388.746,339.66Z" fill="#e2e2e2"/>
                    </g>
                    <g id="Grupo_930322" data-name="Grupo 930322">
                      <path id="Trazado_639138" data-name="Trazado 639138" d="M390.861,352.222a177.793,177.793,0,0,1-24.927,1.58q-3.034,0-6.2-.077c-.347-1.453-.694-2.878-1.037-4.265a188.576,188.576,0,0,0,31.48-1.421Q390.528,350.13,390.861,352.222Z" fill="#e2e2e2"/>
                    </g>
                    <g id="Grupo_930323" data-name="Grupo 930323">
                      <path id="Trazado_639139" data-name="Trazado 639139" d="M392.8,364.788a178.579,178.579,0,0,1-27.181,1.853q-1.428,0-2.881-.016-.48-2.154-.967-4.248a182.45,182.45,0,0,0,30.4-1.776Q392.489,362.7,392.8,364.788Z" fill="#e2e2e2"/>
                    </g>
                    <g id="Grupo_930324" data-name="Grupo 930324">
                      <path id="Trazado_639140" data-name="Trazado 639140" d="M394.567,377.369a179.759,179.759,0,0,1-29.042,2.123q-.444-2.144-.9-4.241a176.141,176.141,0,0,0,29.365-2.084Q394.287,375.27,394.567,377.369Z" fill="#e2e2e2"/>
                    </g>
                    <g id="Grupo_930325" data-name="Grupo 930325">
                      <path id="Trazado_639141" data-name="Trazado 639141" d="M396.185,389.966a175.26,175.26,0,0,1-28.086,2.365q-.4-2.121-.821-4.226a172.428,172.428,0,0,0,28.383-2.35Q395.927,387.87,396.185,389.966Z" fill="#e2e2e2"/>
                    </g>
                    <g id="Grupo_930326" data-name="Grupo 930326">
                      <path id="Trazado_639142" data-name="Trazado 639142" d="M397.652,402.582a172.261,172.261,0,0,1-27.211,2.569q-.365-2.121-.744-4.226a167.952,167.952,0,0,0,27.482-2.565Q397.421,400.48,397.652,402.582Z" fill="#e2e2e2"/>
                    </g>
                    <g id="Grupo_930327" data-name="Grupo 930327">
                      <path id="Trazado_639143" data-name="Trazado 639143" d="M398.981,415.22a169.879,169.879,0,0,1-26.445,2.743q-.322-2.115-.662-4.222a165.979,165.979,0,0,0,26.68-2.75C398.7,412.408,398.846,413.818,398.981,415.22Z" fill="#e2e2e2"/>
                    </g>
                    <g id="Grupo_930328" data-name="Grupo 930328">
                      <path id="Trazado_639144" data-name="Trazado 639144" d="M400.176,427.886a169.211,169.211,0,0,1-25.833,2.882c-.181-1.406-.37-2.816-.562-4.222a164.422,164.422,0,0,0,26.009-2.9Q399.986,425.785,400.176,427.886Z" fill="#e2e2e2"/>
                    </g>
                    <g id="Grupo_930329" data-name="Grupo 930329">
                      <path id="Trazado_639145" data-name="Trazado 639145" d="M401.227,440.579a168.4,168.4,0,0,1-25.4,3c-.143-1.4-.293-2.812-.451-4.218a163.018,163.018,0,0,0,25.509-3.039C401.008,437.756,401.119,439.173,401.227,440.579Z" fill="#e2e2e2"/>
                    </g>
                    <g id="Grupo_930330" data-name="Grupo 930330">
                      <path id="Trazado_639146" data-name="Trazado 639146" d="M402.129,453.3a168.673,168.673,0,0,1-25.194,3.1q-.144-2.1-.319-4.222a163.571,163.571,0,0,0,25.224-3.151C401.944,450.475,402.036,451.9,402.129,453.3Z" fill="#e2e2e2"/>
                    </g>
                    <g id="Grupo_930331" data-name="Grupo 930331">
                      <path id="Trazado_639147" data-name="Trazado 639147" d="M402.868,466.061a171.046,171.046,0,0,1-25.289,3.2q-.064-2.109-.154-4.237a165.5,165.5,0,0,0,25.212-3.248C402.722,463.234,402.8,464.663,402.868,466.061Z" fill="#e2e2e2"/>
                    </g>
                    <g id="Grupo_930332" data-name="Grupo 930332">
                      <path id="Trazado_639148" data-name="Trazado 639148" d="M403.407,478.87a174.857,174.857,0,0,1-25.778,3.293q.053-2.1.058-4.249a167.621,167.621,0,0,0,25.562-3.343C403.311,476.046,403.361,477.483,403.407,478.87Z" fill="#e2e2e2"/>
                    </g>
                    <g id="Grupo_930333" data-name="Grupo 930333">
                      <path id="Trazado_639149" data-name="Trazado 639149" d="M403.658,491.744a181.237,181.237,0,0,1-26.777,3.374q.208-2.1.351-4.264a172.717,172.717,0,0,0,26.387-3.436C403.642,488.943,403.658,490.388,403.658,491.744Z" fill="#e2e2e2"/>
                    </g>
                  </g>
                </g>
                <g id="Grupo_930354" data-name="Grupo 930354">
                  <g id="Grupo_930336" data-name="Grupo 930336">
                    <path id="Trazado_639150" data-name="Trazado 639150" d="M412.7,254.821s6.56,4.325,4.209,16.076-6.894,13.005-6.894,13.005S403.13,257.882,412.7,254.821Z" fill="#32324c"/>
                  </g>
                  <g id="Grupo_930337" data-name="Grupo 930337">
                    <path id="Trazado_639151" data-name="Trazado 639151" d="M382.526,309.731l-.832,14.86-.381,6.81c-8.559,6.331-22.476-2.384-22.476-2.384l-1.488-22.025c3.96-2.67,14.165-.448,20.3,1.253C380.538,309.048,382.526,309.731,382.526,309.731Z" fill="#ffaf82"/>
                  </g>
                  <g id="Grupo_930338" data-name="Grupo 930338">
                    <path id="Trazado_639152" data-name="Trazado 639152" d="M382.526,309.731l-.832,14.86c-10.052-2.323-18.47-16.251-18.47-16.251l14.424-.1C380.538,309.048,382.526,309.731,382.526,309.731Z" fill="#f88968"/>
                  </g>
                  <g id="Grupo_930339" data-name="Grupo 930339">
                    <path id="Trazado_639153" data-name="Trazado 639153" d="M411.375,260.807s16.03-7.458,11.33-20.62-23.878-7.109-41.123-6.453c-27.77,1.055-36.469,15.5-35.764,30.543s.545,35.206,7.361,42.727,11.473-3.11,15-12.518S393.465,256.279,411.375,260.807Z" fill="#32324c"/>
                  </g>
                  <g id="Grupo_930340" data-name="Grupo 930340">
                    <path id="Trazado_639154" data-name="Trazado 639154" d="M412.824,273.6c-.009.508-.019,1.025-.033,1.547a232.545,232.545,0,0,1-3.478,29.919,17.643,17.643,0,0,1-20.871,14.309c-11.732-2.369-26.2-5.965-32.8-10.3-2.008-1.316-3.282-2.7-3.535-4.146a97.16,97.16,0,0,1-1.067-12.954c-.466-15.146.639-34.042.639-34.042,14.1-17.515,53.4-10.68,59.387,2.134C412.434,263,412.909,267.859,412.824,273.6Z" fill="#ffaf82"/>
                  </g>
                  <g id="Grupo_930341" data-name="Grupo 930341">
                    <path id="Trazado_639155" data-name="Trazado 639155" d="M389.527,282.061c0,1.969-.877,3.565-1.959,3.565s-1.959-1.6-1.959-3.565.877-3.564,1.959-3.564S389.527,280.093,389.527,282.061Z" fill="#32324c"/>
                  </g>
                  <g id="Grupo_930342" data-name="Grupo 930342">
                    <path id="Trazado_639156" data-name="Trazado 639156" d="M409.576,282.061c0,1.969-.877,3.565-1.959,3.565s-1.958-1.6-1.958-3.565.877-3.564,1.958-3.564S409.576,280.093,409.576,282.061Z" fill="#32324c"/>
                  </g>
                  <g id="Grupo_930343" data-name="Grupo 930343">
                    <path id="Trazado_639157" data-name="Trazado 639157" d="M350.971,278.1s6.278-4.089,11.566,3.209h4.113s-.235-8.449,1.763-13.032,9.871-4.465,11.046-9.871c0,0,18.589,7.395,31.916,2.4s-26.627-27.2-45.9-16.389S347.983,263.711,350.971,278.1Z" fill="#32324c"/>
                  </g>
                  <g id="Grupo_930344" data-name="Grupo 930344">
                    <path id="Trazado_639158" data-name="Trazado 639158" d="M379.077,277.124s1.885-3.873,5.5-4.842a9.244,9.244,0,0,1,6.943.621,1.2,1.2,0,0,1,.542,1.476h0a1.206,1.206,0,0,1-1.641.673C388.4,274.108,383.932,272.893,379.077,277.124Z" fill="#32324c"/>
                  </g>
                  <g id="Grupo_930345" data-name="Grupo 930345">
                    <path id="Trazado_639159" data-name="Trazado 639159" d="M412.824,273.6c-.009.508-.019,1.025-.033,1.547a9.628,9.628,0,0,0-8.4-.1,1.222,1.222,0,0,1-.513.113,1.208,1.208,0,0,1-.587-2.261,9.247,9.247,0,0,1,6.942-.62A7.325,7.325,0,0,1,412.824,273.6Z" fill="#32324c"/>
                  </g>
                  <g id="Grupo_930346" data-name="Grupo 930346">
                    <path id="Trazado_639160" data-name="Trazado 639160" d="M355.642,309.074c-2.008-1.316-3.282-2.7-3.535-4.146a97.16,97.16,0,0,1-1.067-12.954l10.374,7.13S361.55,306.489,355.642,309.074Z" fill="#32324c"/>
                  </g>
                  <g id="Grupo_930350" data-name="Grupo 930350">
                    <g id="Grupo_930347" data-name="Grupo 930347">
                      <path id="Trazado_639161" data-name="Trazado 639161" d="M362.537,281.3s-6.3-7.629-11.566-3.209c-5.807,4.87-1.359,21.384,10.442,21.01Z" fill="#ffaf82"/>
                    </g>
                    <g id="Grupo_930348" data-name="Grupo 930348">
                      <path id="Trazado_639162" data-name="Trazado 639162" d="M361.7,295.524a1.038,1.038,0,0,1-1.03-.92c-.961-8.354-5.916-9.64-6.126-9.69a1.038,1.038,0,0,1,.46-2.025c.269.06,6.591,1.581,7.729,11.478a1.037,1.037,0,0,1-.913,1.15A.965.965,0,0,1,361.7,295.524Z" fill="#f88968"/>
                    </g>
                    <g id="Grupo_930349" data-name="Grupo 930349">
                      <path id="Trazado_639163" data-name="Trazado 639163" d="M355.076,290.227a1.036,1.036,0,0,1-.778-1.722,5.89,5.89,0,0,1,5.548-1.6,1.038,1.038,0,0,1-.446,2.028,3.8,3.8,0,0,0-3.554.961A1.045,1.045,0,0,1,355.076,290.227Z" fill="#f88968"/>
                    </g>
                  </g>
                  <g id="Grupo_930351" data-name="Grupo 930351">
                    <path id="Trazado_639164" data-name="Trazado 639164" d="M399.254,303.023a18.607,18.607,0,0,1-14.428-6.256,1.038,1.038,0,0,1,1.567-1.363c6.8,7.809,17.443,5.036,17.55,5.007a1.038,1.038,0,0,1,.548,2A21.41,21.41,0,0,1,399.254,303.023Z" fill="#f88968"/>
                  </g>
                  <g id="Grupo_930352" data-name="Grupo 930352">
                    <path id="Trazado_639165" data-name="Trazado 639165" d="M394.823,308.045a10.246,10.246,0,0,1-8.09-3.625,1.039,1.039,0,0,1,1.667-1.24c.12.159,2.776,3.544,8.281,2.629a1.039,1.039,0,0,1,.341,2.049A13.444,13.444,0,0,1,394.823,308.045Z" fill="#f88968"/>
                  </g>
                  <g id="Grupo_930353" data-name="Grupo 930353">
                    <path id="Trazado_639166" data-name="Trazado 639166" d="M398.968,293.52a1.039,1.039,0,0,1-.631-1.864l2.769-2.114-2.4-.622a1.04,1.04,0,0,1-.765-.841l-1.058-6.61a1.039,1.039,0,0,1,2.052-.328l.95,5.939,3.809.987a1.039,1.039,0,0,1,.369,1.832l-4.466,3.408A1.036,1.036,0,0,1,398.968,293.52Z" fill="#f88968"/>
                  </g>
                </g>
                <g id="Grupo_930355" data-name="Grupo 930355">
                  <path id="Trazado_639167" data-name="Trazado 639167" d="M341.219,496.422s4.612,1.475,6,4.168c0,0,0,17.073-8.6,24.521,0,0-4.227-10.272-8.6-20.112Z" fill="#ffaf82"/>
                </g>
                <path id="Trazado_639168" data-name="Trazado 639168" d="M323.525,336.683s-17.17,53.676-18.69,81.28c0,0,0,51.635,25.184,87.036l11.2-8.577s-14.116-51.366-14.116-71.4c0,0,14.293-37.2,16.638-51.857C343.741,373.167,334.131,336.683,323.525,336.683Z" fill="#009762"/>
              </g>
            </g>
          </g>
        </g>
      </g>
      <g id="Grupo_930479" data-name="Grupo 930479">
        <g id="Grupo_930478" data-name="Grupo 930478" clip-path="url(#clip-path-3)">
          <g id="Grupo_930477" data-name="Grupo 930477">
            <g id="Grupo_930361" data-name="Grupo 930361">
              <path id="Trazado_639169" data-name="Trazado 639169" d="M868.513,686.029c8.731,128.709,171.126,180.87,251.293,79.8,16.372-20.641,20.289-70.416,16.047-96.671-17.1-105.821-71.365-116.633-30.849-183.57s44.281-188.455-67.575-187.507-39.749,179.732-116.8,229.736C885.386,550.687,863.966,619,868.513,686.029Z" fill="#32324c" opacity="0.1"/>
              <path id="Trazado_639170" data-name="Trazado 639170" d="M910.909,498.882a17.066,17.066,0,0,0,18.813-5.409c7.279-8.819,18.892-26.627,15.436-47.35-4.939-29.6-42.456-5.971-45.407,27.305C898.276,490.066,904.408,496.554,910.909,498.882Z" fill="#32324c" opacity="0.1"/>
              <path id="Trazado_639171" data-name="Trazado 639171" d="M950.862,421.028a8.9,8.9,0,0,0,6.031-8.24c.185-5.962-.712-17.015-8.757-24.458-11.492-10.632-19.417,11.1-10.006,25.763C942.835,421.426,947.437,422.143,950.862,421.028Z" fill="#32324c" opacity="0.1"/>
              <path id="Trazado_639172" data-name="Trazado 639172" d="M1135.141,565.694a8.9,8.9,0,0,0,7.424-7.011c1.263-5.83,2.383-16.863-4.181-25.64-9.375-12.538-21.1,7.4-14.507,23.524C1127.176,564.632,1131.571,566.171,1135.141,565.694Z" fill="#32324c" opacity="0.1"/>
            </g>
            <g id="Grupo_930476" data-name="Grupo 930476">
              <g id="Grupo_930363" data-name="Grupo 930363">
                <path id="Trazado_639173" data-name="Trazado 639173" d="M925.117,501.449l-11.927-2.635s-5.8-5.8-7.028-6.676-19.325,3.338-24.42,4.392,1.054,11.135,5.974,14.463,22.449,1.735,22.838,0l8.343-.153Z" fill="#fcb373"/>
                <path id="Trazado_639174" data-name="Trazado 639174" d="M902.654,504.443l-.224,5.507-2.521-4.9L893.963,478.1l2.745-.606Z" fill="#263238"/>
                <g id="Grupo_930362" data-name="Grupo 930362">
                  <path id="Trazado_639175" data-name="Trazado 639175" d="M861.184,512.233l23.542-4.568,37.6,2.284L929,512.233l23.02-2.284,21.884,4.371H891.051Z" fill="#f8cdb5"/>
                  <path id="Trazado_639176" data-name="Trazado 639176" d="M861.184,512.233l23.542-4.568,37.6,2.284L929,512.233l23.02-2.284,21.884,4.371H891.051Z" fill="#f8cdb5" opacity="0.7" style="isolation: isolate"/>
                  <path id="Trazado_639177" data-name="Trazado 639177" d="M922.322,509.949l-17.568,4.568,28.285-.176Z" fill="#f8cdb5" opacity="0.2" style="isolation: isolate"/>
                  <path id="Trazado_639178" data-name="Trazado 639178" d="M952.018,509.949l-13.708,4.371H973.9Z" fill="#f8cdb5" opacity="0.2" style="isolation: isolate"/>
                </g>
              </g>
              <g id="Grupo_930364" data-name="Grupo 930364">
                <path id="Trazado_639179" data-name="Trazado 639179" d="M943.6,481.869c-15.136,8.541-30.023,17.085-30.023,17.085,3.108,3.551,4.5,7.03,4.113,11.4a223.631,223.631,0,0,0,64.281-31.288c15.486-13.412,40.654-61.894,40.654-61.894-7.607-10.735-23.568-1.276-23.568-1.276-16.109,26.628-30.229,51.487-30.451,51.874C966.064,469.2,956.5,474.589,943.6,481.869Z" fill="#c11c57"/>
              </g>
              <g id="Grupo_930369" data-name="Grupo 930369">
                <path id="Trazado_639180" data-name="Trazado 639180" d="M1024.359,624.806l.64,27.658,2.913,126.886h9.61l2.9-126.886.639-27.658Z" fill="#263238"/>
                <path id="Trazado_639181" data-name="Trazado 639181" d="M1024.359,624.806l.64,27.658,2.913,126.886h9.61l2.9-126.886.639-27.658Z" fill="#fff" opacity="0.4" style="isolation: isolate"/>
                <path id="Trazado_639182" data-name="Trazado 639182" d="M1024.359,624.806l.64,28.422h15.419l.639-28.422Z" opacity="0.2" style="isolation: isolate"/>
                <g id="Grupo_930367" data-name="Grupo 930367">
                  <g id="Grupo_930365" data-name="Grupo 930365">
                    <path id="Trazado_639183" data-name="Trazado 639183" d="M972.173,778.905l8.878-152.145h14.512L983.134,778.905Z" fill="#263238"/>
                    <path id="Trazado_639184" data-name="Trazado 639184" d="M983.16,778.905H972.189l8.057-138.645.8-13.678h14.514l-1.12,13.678Z" fill="#fff" opacity="0.5" style="isolation: isolate"/>
                    <path id="Trazado_639185" data-name="Trazado 639185" d="M995.558,626.582l-1.119,14.211H980.245l.8-14.211Z" opacity="0.2" style="isolation: isolate"/>
                  </g>
                  <g id="Grupo_930366" data-name="Grupo 930366">
                    <path id="Trazado_639186" data-name="Trazado 639186" d="M1082.292,778.905,1069.862,626.76h14.513l8.878,152.145Z" fill="#263238"/>
                    <path id="Trazado_639187" data-name="Trazado 639187" d="M1082.266,778.905,1070.987,640.26l-1.119-13.678h14.513l.8,13.678,8.057,138.645Z" fill="#fff" opacity="0.5" style="isolation: isolate"/>
                    <path id="Trazado_639188" data-name="Trazado 639188" d="M1069.868,626.582l1.119,14.211h14.193l-.8-14.211Z" opacity="0.2" style="isolation: isolate"/>
                  </g>
                </g>
                <path id="Rectángulo_335411" data-name="Rectángulo 335411" d="M0,0H118.876a0,0,0,0,1,0,0V15.764a5,5,0,0,1-5,5H5a5,5,0,0,1-5-5V0A0,0,0,0,1,0,0Z" transform="translate(1092.151 631.951) rotate(180)" fill="#263238"/>
                <g id="Grupo_930368" data-name="Grupo 930368">
                  <rect id="Rectángulo_335412" data-name="Rectángulo 335412" width="130.267" height="10.382" rx="2.011" transform="translate(1097.846 631.951) rotate(180)" fill="#263238"/>
                  <rect id="Rectángulo_335413" data-name="Rectángulo 335413" width="130.267" height="10.382" rx="2.011" transform="translate(1097.846 631.951) rotate(180)" fill="#fff" opacity="0.6" style="isolation: isolate"/>
                </g>
              </g>
              <g id="Grupo_930438" data-name="Grupo 930438">
                <g id="Grupo_930403" data-name="Grupo 930403">
                  <g id="Grupo_930402" data-name="Grupo 930402">
                    <path id="Trazado_639189" data-name="Trazado 639189" d="M1042.829,569.751s-60.908,10.321-86.259,21.043-57.525,90.612-57.525,90.612l16.608,10.445s39.594-45.881,54.323-72.556c0,0,54.343,14.686,83.5-2.667S1058.877,566.223,1042.829,569.751Z" fill="#211931"/>
                    <g id="Grupo_930401" data-name="Grupo 930401">
                      <g id="Grupo_930371" data-name="Grupo 930371">
                        <g id="Grupo_930370" data-name="Grupo 930370">
                          <path id="Trazado_639190" data-name="Trazado 639190" d="M847.907,694.1l50.744,25.184a5.245,5.245,0,0,0,6.678-1.758,5.187,5.187,0,0,0,.519-.975l11.166-27.674a33.147,33.147,0,0,0-4.238-4.19,5.734,5.734,0,0,1-2.068-5.28c.025-.145.057-.291.089-.438,1.38-5.707-5.205-11.01-9.059-6.675q-.748.84-1.4,1.654c-.107.133-.216.271-.316.4-.754.968-1.405,1.882-1.947,2.7-.014.016-.023.034-.038.051a32.068,32.068,0,0,0-2.049,3.5q-1.643.78-3.2,1.551c-.525.251-1.036.508-1.543.756-1.1.537-2.164,1.059-3.206,1.553-.484.237-.96.46-1.434.677-1.142.532-2.25,1.022-3.331,1.456-.489.2-.973.389-1.459.561-3.981,1.452-7.552,2.022-10.887.907-5.877-1.975-15.167-5.83-23.516.091a3.163,3.163,0,0,0-.473.4A3.494,3.494,0,0,0,847.907,694.1Z" fill="#3555af"/>
                        </g>
                      </g>
                      <g id="Grupo_930373" data-name="Grupo 930373">
                        <g id="Grupo_930372" data-name="Grupo 930372">
                          <path id="Trazado_639191" data-name="Trazado 639191" d="M847.908,694.1l50.743,25.184a5.246,5.246,0,0,0,6.679-1.759l-58.386-28.976A3.494,3.494,0,0,0,847.908,694.1Z" fill="#3986d7"/>
                        </g>
                      </g>
                      <g id="Grupo_930381" data-name="Grupo 930381">
                        <g id="Grupo_930376" data-name="Grupo 930376">
                          <g id="Grupo_930375" data-name="Grupo 930375">
                            <g id="Grupo_930374" data-name="Grupo 930374">
                              <path id="Trazado_639192" data-name="Trazado 639192" d="M891.25,682.9c.159,1.155.839,2.794,2.775,4.958q.49.557,1.1,1.156l1.1-1.107c-.4-.4-.757-.771-1.07-1.124-2.219-2.5-2.433-3.973-2.358-4.639C892.268,682.394,891.757,682.651,891.25,682.9Z" fill="#fff"/>
                            </g>
                          </g>
                        </g>
                        <g id="Grupo_930380" data-name="Grupo 930380">
                          <g id="Grupo_930379" data-name="Grupo 930379">
                            <g id="Grupo_930378" data-name="Grupo 930378">
                              <g id="Grupo_930377" data-name="Grupo 930377">
                                <path id="Trazado_639193" data-name="Trazado 639193" d="M894.1,687.679a1.757,1.757,0,1,0,2.354-.793A1.757,1.757,0,0,0,894.1,687.679Z" fill="#fff"/>
                              </g>
                            </g>
                          </g>
                        </g>
                      </g>
                      <g id="Grupo_930389" data-name="Grupo 930389">
                        <g id="Grupo_930384" data-name="Grupo 930384">
                          <g id="Grupo_930383" data-name="Grupo 930383">
                            <g id="Grupo_930382" data-name="Grupo 930382">
                              <path id="Trazado_639194" data-name="Trazado 639194" d="M886.61,685.129A11.078,11.078,0,0,0,889,689.04c.381.451.815.91,1.31,1.4l1.1-1.111q-.69-.682-1.212-1.282a8.907,8.907,0,0,1-2.15-3.595C887.56,684.689,887.084,684.912,886.61,685.129Z" fill="#fff"/>
                            </g>
                          </g>
                        </g>
                        <g id="Grupo_930388" data-name="Grupo 930388">
                          <g id="Grupo_930387" data-name="Grupo 930387">
                            <g id="Grupo_930386" data-name="Grupo 930386">
                              <g id="Grupo_930385" data-name="Grupo 930385">
                                <path id="Trazado_639195" data-name="Trazado 639195" d="M889.025,688.977a1.757,1.757,0,1,0,2.355-.792A1.757,1.757,0,0,0,889.025,688.977Z" fill="#fff"/>
                              </g>
                            </g>
                          </g>
                        </g>
                      </g>
                      <g id="Grupo_930397" data-name="Grupo 930397">
                        <g id="Grupo_930392" data-name="Grupo 930392">
                          <g id="Grupo_930391" data-name="Grupo 930391">
                            <g id="Grupo_930390" data-name="Grupo 930390">
                              <path id="Trazado_639196" data-name="Trazado 639196" d="M881.82,687.146a11.294,11.294,0,0,0,2.328,3.764c.385.452.824.926,1.329,1.421l1.093-1.114c-.465-.457-.867-.889-1.217-1.3a9.66,9.66,0,0,1-2.074-3.336C882.79,686.784,882.306,686.974,881.82,687.146Z" fill="#fff"/>
                            </g>
                          </g>
                        </g>
                        <g id="Grupo_930396" data-name="Grupo 930396">
                          <g id="Grupo_930395" data-name="Grupo 930395">
                            <g id="Grupo_930394" data-name="Grupo 930394">
                              <g id="Grupo_930393" data-name="Grupo 930393">
                                <path id="Trazado_639197" data-name="Trazado 639197" d="M884.172,690.854a1.757,1.757,0,1,0,2.354-.793A1.756,1.756,0,0,0,884.172,690.854Z" fill="#fff"/>
                              </g>
                            </g>
                          </g>
                        </g>
                      </g>
                      <g id="Grupo_930400" data-name="Grupo 930400">
                        <g id="Grupo_930399" data-name="Grupo 930399">
                          <g id="Grupo_930398" data-name="Grupo 930398">
                            <path id="Trazado_639198" data-name="Trazado 639198" d="M898.079,677.044a39.7,39.7,0,0,1,4.4,2.5l1.233-2.555a12.788,12.788,0,0,0-3.681-2.64C899.272,675.317,898.621,676.231,898.079,677.044Z" fill="#fff"/>
                          </g>
                        </g>
                      </g>
                    </g>
                  </g>
                </g>
                <g id="Grupo_930437" data-name="Grupo 930437">
                  <g id="Grupo_930436" data-name="Grupo 930436">
                    <path id="Trazado_639199" data-name="Trazado 639199" d="M1067.555,558.532s-68.423,31.921-89.864,49.18S947.2,710.622,947.2,710.622l18.836,5.493s25.5-54.977,32.355-84.668c0,0,60.474-.671,74.928-31.364C1084.245,576.891,1070.794,563.871,1067.555,558.532Z" fill="#32324c"/>
                    <g id="Grupo_930435" data-name="Grupo 930435">
                      <g id="Grupo_930405" data-name="Grupo 930405">
                        <g id="Grupo_930404" data-name="Grupo 930404">
                          <path id="Trazado_639200" data-name="Trazado 639200" d="M901.505,736.845l55.7,10.311a5.246,5.246,0,0,0,6.173-4.6l3.153-29.675a33.146,33.146,0,0,0-5.224-2.868,5.732,5.732,0,0,1-3.436-4.511c-.016-.145-.025-.295-.035-.445-.237-5.867-8.023-9.162-10.541-3.937q-.489,1.014-.89,1.974c-.066.157-.133.32-.193.473-.46,1.137-.835,2.2-1.135,3.125-.008.019-.012.04-.021.059a32.062,32.062,0,0,0-1.013,3.926q-1.365,1.2-2.651,2.368c-.436.385-.857.773-1.277,1.15-.908.817-1.791,1.612-2.657,2.373-.4.359-.8.7-1.194,1.044-.952.824-1.884,1.6-2.8,2.313-.415.325-.828.641-1.248.939-3.431,2.488-6.71,4.014-10.222,3.856-6.193-.288-16.184-1.45-22.59,6.533a3.2,3.2,0,0,0-.345.519A3.494,3.494,0,0,0,901.505,736.845Z" fill="#3555af"/>
                        </g>
                      </g>
                      <g id="Grupo_930407" data-name="Grupo 930407">
                        <g id="Grupo_930406" data-name="Grupo 930406">
                          <path id="Trazado_639201" data-name="Trazado 639201" d="M901.505,736.844l55.7,10.311a5.245,5.245,0,0,0,5.94-3.522l-64.092-11.864A3.5,3.5,0,0,0,901.505,736.844Z" fill="#3986d7"/>
                        </g>
                      </g>
                      <g id="Grupo_930415" data-name="Grupo 930415">
                        <g id="Grupo_930410" data-name="Grupo 930410">
                          <g id="Grupo_930409" data-name="Grupo 930409">
                            <g id="Grupo_930408" data-name="Grupo 930408">
                              <path id="Trazado_639202" data-name="Trazado 639202" d="M940.117,714.194c.47,1.067,1.573,2.457,4.028,4.007q.625.4,1.375.81l.75-1.364c-.495-.272-.939-.534-1.336-.787-2.818-1.793-3.429-3.155-3.54-3.816C940.958,713.429,940.537,713.817,940.117,714.194Z" fill="#fff"/>
                            </g>
                          </g>
                        </g>
                        <g id="Grupo_930414" data-name="Grupo 930414">
                          <g id="Grupo_930413" data-name="Grupo 930413">
                            <g id="Grupo_930412" data-name="Grupo 930412">
                              <g id="Grupo_930411" data-name="Grupo 930411">
                                <path id="Trazado_639203" data-name="Trazado 639203" d="M944.169,718.01a1.757,1.757,0,1,0,2.047-1.408A1.758,1.758,0,0,0,944.169,718.01Z" fill="#fff"/>
                              </g>
                            </g>
                          </g>
                        </g>
                      </g>
                      <g id="Grupo_930423" data-name="Grupo 930423">
                        <g id="Grupo_930418" data-name="Grupo 930418">
                          <g id="Grupo_930417" data-name="Grupo 930417">
                            <g id="Grupo_930416" data-name="Grupo 930416">
                              <path id="Trazado_639204" data-name="Trazado 639204" d="M936.266,717.611a11.107,11.107,0,0,0,3.369,3.106c.49.329,1.033.652,1.644.987l.751-1.369q-.851-.468-1.517-.9a8.919,8.919,0,0,1-3.053-2.868C937.06,716.926,936.663,717.271,936.266,717.611Z" fill="#fff"/>
                            </g>
                          </g>
                        </g>
                        <g id="Grupo_930422" data-name="Grupo 930422">
                          <g id="Grupo_930421" data-name="Grupo 930421">
                            <g id="Grupo_930420" data-name="Grupo 930420">
                              <g id="Grupo_930419" data-name="Grupo 930419">
                                <path id="Trazado_639205" data-name="Trazado 639205" d="M939.644,720.649a1.757,1.757,0,1,0,2.047-1.408A1.757,1.757,0,0,0,939.644,720.649Z" fill="#fff"/>
                              </g>
                            </g>
                          </g>
                        </g>
                      </g>
                      <g id="Grupo_930431" data-name="Grupo 930431">
                        <g id="Grupo_930426" data-name="Grupo 930426">
                          <g id="Grupo_930425" data-name="Grupo 930425">
                            <g id="Grupo_930424" data-name="Grupo 930424">
                              <path id="Trazado_639206" data-name="Trazado 639206" d="M932.213,720.863a11.287,11.287,0,0,0,3.27,2.982c.5.329,1.047.665,1.667,1l.746-1.371c-.572-.312-1.077-.617-1.525-.912a9.686,9.686,0,0,1-2.91-2.64C933.046,720.249,932.633,720.565,932.213,720.863Z" fill="#fff"/>
                            </g>
                          </g>
                        </g>
                        <g id="Grupo_930430" data-name="Grupo 930430">
                          <g id="Grupo_930429" data-name="Grupo 930429">
                            <g id="Grupo_930428" data-name="Grupo 930428">
                              <g id="Grupo_930427" data-name="Grupo 930427">
                                <path id="Trazado_639207" data-name="Trazado 639207" d="M935.491,723.784a1.756,1.756,0,1,0,2.047-1.408A1.757,1.757,0,0,0,935.491,723.784Z" fill="#fff"/>
                              </g>
                            </g>
                          </g>
                        </g>
                      </g>
                      <g id="Grupo_930434" data-name="Grupo 930434">
                        <g id="Grupo_930433" data-name="Grupo 930433">
                          <g id="Grupo_930432" data-name="Grupo 930432">
                            <path id="Trazado_639208" data-name="Trazado 639208" d="M945.079,706.691a39.8,39.8,0,0,1,4.913,1.2l.486-2.795a12.8,12.8,0,0,0-4.264-1.53C945.754,704.7,945.379,705.761,945.079,706.691Z" fill="#fff"/>
                          </g>
                        </g>
                      </g>
                    </g>
                  </g>
                </g>
              </g>
              <path id="Trazado_639209" data-name="Trazado 639209" d="M1072.941,601.094s-53.427,5.422-75.233-24.1c1.276-6.726,6.515-19.321,9.741-21.636,0,0,36.113-1.115,61.431,10.449Z" fill="#32324c"/>
              <g id="Grupo_930439" data-name="Grupo 930439">
                <path id="Trazado_639210" data-name="Trazado 639210" d="M1008.974,481.277a118.166,118.166,0,0,1,3.844,15.1c-1.613,14.07-8.785,58.057-13.255,73.834,20.177,10.622,57.726,14.124,76.956,4.806.106-13.076.962-63.3-1.317-84.744-4.7-44.219-11.956-72.273-11.956-72.273l-12.535-3.75h0a62.968,62.968,0,0,0-26.142-2.123l-7.769,1.007-4.436.575-7.536.979s.72,21.661-4.526,40.715c-4.436,16.091,2.737,18.208,6.327,21.74a6.8,6.8,0,0,1,1.295,1.683A21.107,21.107,0,0,1,1008.974,481.277Z" fill="#e63067"/>
                <path id="Trazado_639211" data-name="Trazado 639211" d="M1006.629,477.143a6.8,6.8,0,0,1,1.295,1.683,21.107,21.107,0,0,1,1.05,2.451,63.037,63.037,0,0,0,13.279,2.325c10.989.662,23.239-3.781,23.6-3.911A75.122,75.122,0,0,1,1006.629,477.143Z" fill="#c11c57"/>
                <path id="Trazado_639212" data-name="Trazado 639212" d="M1016.8,413.134c1.441,7.916,2.365,21.3,12.438,20.777,12.109-.631,19.179-14.341,21.473-19.661h0a62.944,62.944,0,0,0-26.141-2.122Z" fill="#ffaf82"/>
              </g>
              <g id="Grupo_930464" data-name="Grupo 930464">
                <g id="Grupo_930440" data-name="Grupo 930440">
                  <path id="Trazado_639213" data-name="Trazado 639213" d="M998.2,381.292c-.978,2.876-1.988,5.849-2.951,9-3.066,10.046,6.6,11.312,6.6,11.312s-3.1,6.843,1.778,12.319a9.6,9.6,0,0,0,11.061,2.539s2.239,2.979,8.123,3.351c8.534.538,11.642-2.888,11.642-2.888l8.92-1.6c1.174.657,2.087,5.018,11.519,6.12,8.574,1,12.987-4.142,12.987-4.142,2.269,4.443,12.942,3.662,14.152-3.374,1.137-6.61-1.938-9.315-2.313-9.621,5.539,3.923,14.782-6.688,4.989-16.75-3.983-4.094-6.185-6-7.674-8.046,4.436,1.053,9.072-4.113,7.091-8.622-2.559-5.818-7.24-3.5-11.813-11.849-6.077-11.089-10.727-14.874-11-15.089l-.008-.007c-7.844-7.442-19.435-10.846-32.123-10.061-10.788.668-17.076,5.079-20.716,9.614a22.784,22.784,0,0,0-4.832,13.827q-.034,1.577-.175,3.109c-1.51,3.668-4.6,10.171-8.255,12.145C990.242,375.272,993.02,382.4,998.2,381.292Z" fill="#32324c"/>
                </g>
                <g id="Grupo_930463" data-name="Grupo 930463">
                  <g id="Grupo_930462" data-name="Grupo 930462">
                    <g id="Grupo_930442" data-name="Grupo 930442">
                      <g id="Grupo_930441" data-name="Grupo 930441">
                        <path id="Trazado_639214" data-name="Trazado 639214" d="M1013.45,374.109s-5.593-6.385-10.155-.838c-4.013,4.879-1.514,17.791,8.263,17.432Z" fill="#f88968"/>
                      </g>
                    </g>
                    <path id="Trazado_639215" data-name="Trazado 639215" d="M1004.707,389.9a2.347,2.347,0,1,0,2.347-2.347A2.347,2.347,0,0,0,1004.707,389.9Z" fill="#fff"/>
                    <g id="Grupo_930445" data-name="Grupo 930445">
                      <g id="Grupo_930443" data-name="Grupo 930443">
                        <path id="Trazado_639216" data-name="Trazado 639216" d="M1023.519,422.889c.494,5.849,12.593,9.293,19.469-.639l.723-12.835.532-9.428-22.092,4.287,1.093,14.864Z" fill="#ffaf82"/>
                      </g>
                      <g id="Grupo_930444" data-name="Grupo 930444">
                        <path id="Trazado_639217" data-name="Trazado 639217" d="M1023.375,420.93c7.543.1,15.965-5.1,20.177-8.682l.691-12.261-22.092,4.287Z" fill="#f88968"/>
                      </g>
                    </g>
                    <g id="Grupo_930446" data-name="Grupo 930446">
                      <path id="Trazado_639218" data-name="Trazado 639218" d="M1031.929,411.166c23.318-5.335,27.554-35.9,27.554-35.9a33.889,33.889,0,0,0-.313-5.026,38.8,38.8,0,0,0-1.138-5.575c-1.673-5.874-5.261-12.568-12.926-15.49-.24-.092-.484-.182-.727-.267-12.715-4.508-31.306-2.4-36.96,14.435a28.075,28.075,0,0,0-.862,3.258c-.135.662-.255,1.353-.356,2.06C1003.666,386.044,1010.971,415.962,1031.929,411.166Z" fill="#ffaf82"/>
                    </g>
                    <g id="Grupo_930449" data-name="Grupo 930449">
                      <g id="Grupo_930448" data-name="Grupo 930448">
                        <g id="Grupo_930447" data-name="Grupo 930447">
                          <path id="Trazado_639219" data-name="Trazado 639219" d="M1036.571,379.945a2.994,2.994,0,0,0,3.385-2.542,2.949,2.949,0,0,0-.233-1.639c2.451-.288,2.4-1.775,2.4-1.775-.382.636-3.244.265-4.429.084h-.007c-.145-.026-.265-.044-.353-.058l-.014,0a.857.857,0,0,0-.142-.011,2.99,2.99,0,0,0-.607,5.945Z" fill="#32324c"/>
                        </g>
                      </g>
                    </g>
                    <g id="Grupo_930450" data-name="Grupo 930450">
                      <path id="Trazado_639220" data-name="Trazado 639220" d="M1055.468,375.891s8.367-4.587,11.047,3.03c2.357,6.7-5.259,19.372-15.447,15.223Z" fill="#ffaf82"/>
                    </g>
                    <g id="Grupo_930453" data-name="Grupo 930453">
                      <g id="Grupo_930451" data-name="Grupo 930451">
                        <path id="Trazado_639221" data-name="Trazado 639221" d="M1017.909,398.187a7.992,7.992,0,0,0,1.476,2.242,8.232,8.232,0,0,0,6.32,2.378,8.08,8.08,0,0,0,6.019-3.107,17.292,17.292,0,0,0,2.307-3.473,17.889,17.889,0,0,0,.965-2.214s-12.2-.381-18.048-1.241v0a12.329,12.329,0,0,0,.12,2.4A11.215,11.215,0,0,0,1017.909,398.187Z" fill="#920e08"/>
                      </g>
                      <g id="Grupo_930452" data-name="Grupo 930452">
                        <path id="Trazado_639222" data-name="Trazado 639222" d="M1017.067,395.172c5.567,1.082,14.577,1,16.964,1.055a17.889,17.889,0,0,0,.965-2.214s-12.2-.381-18.048-1.241v0A12.329,12.329,0,0,0,1017.067,395.172Z" fill="#fff"/>
                      </g>
                    </g>
                    <g id="Grupo_930454" data-name="Grupo 930454">
                      <path id="Trazado_639223" data-name="Trazado 639223" d="M1054.947,388.609a13.977,13.977,0,0,1,7.91-8.762s-5.467,5.155-5.883,9.143a.993.993,0,0,1-1.009.911l-.12,0A.98.98,0,0,1,1054.947,388.609Z" fill="#f88968"/>
                    </g>
                    <g id="Grupo_930456" data-name="Grupo 930456">
                      <g id="Grupo_930455" data-name="Grupo 930455">
                        <path id="Trazado_639224" data-name="Trazado 639224" d="M1019.385,400.429a8.232,8.232,0,0,0,6.32,2.378,8.08,8.08,0,0,0,6.019-3.107,7.656,7.656,0,0,0-6.26-.363,5.229,5.229,0,0,0-3.127-.455A3.952,3.952,0,0,0,1019.385,400.429Z" fill="#f85c66"/>
                      </g>
                    </g>
                    <g id="Grupo_930457" data-name="Grupo 930457">
                      <path id="Trazado_639225" data-name="Trazado 639225" d="M1026.945,406.358a11.173,11.173,0,0,0,3.9-1.552.681.681,0,0,0-.771-1.122c-.183.124-4.376,2.915-8.808.558a.681.681,0,1,0-.64,1.2A9.393,9.393,0,0,0,1026.945,406.358Z" fill="#f88968"/>
                    </g>
                    <g id="Grupo_930458" data-name="Grupo 930458">
                      <path id="Trazado_639226" data-name="Trazado 639226" d="M1023.914,389.995h3.539a.727.727,0,1,0,0-1.454h-3.539a.159.159,0,0,1-.131-.065.156.156,0,0,1-.026-.144l2.939-10.061a.727.727,0,1,0-1.4-.408l-2.939,10.061a1.617,1.617,0,0,0,1.553,2.071Z" fill="#f88968"/>
                    </g>
                    <path id="Trazado_639227" data-name="Trazado 639227" d="M1032.843,367.662h0a1.39,1.39,0,0,0,1.226,1.648c2.721.268,8.375,1.189,10.927,4.3,0,0-.556-5.109-10.512-7.052A1.4,1.4,0,0,0,1032.843,367.662Z" fill="#32324c"/>
                    <path id="Trazado_639228" data-name="Trazado 639228" d="M1021.617,367.577h0a1.391,1.391,0,0,1-1.495,1.409c-2.726-.212-8.454-.292-11.509,2.324,0,0,1.439-4.933,11.581-5.109A1.4,1.4,0,0,1,1021.617,367.577Z" fill="#32324c"/>
                    <g id="Grupo_930461" data-name="Grupo 930461">
                      <g id="Grupo_930460" data-name="Grupo 930460">
                        <g id="Grupo_930459" data-name="Grupo 930459">
                          <path id="Trazado_639229" data-name="Trazado 639229" d="M1016.813,379.564a2.993,2.993,0,0,1-3.385-2.542,2.947,2.947,0,0,1,.233-1.639c-2.451-.288-2.4-1.775-2.4-1.775.382.637,3.243.266,4.429.084h.007c.146-.025.266-.044.353-.058l.014,0a.978.978,0,0,1,.142-.011,2.99,2.99,0,0,1,.607,5.945Z" fill="#32324c"/>
                        </g>
                      </g>
                    </g>
                    <path id="Trazado_639230" data-name="Trazado 639230" d="M1043.071,350.542s1.172,20.463,10.712,28.725c0,0,.822-5.427,8.25-4.613,0,0,.7-1.27,1.792-7.425S1061,335.662,1032.818,337.3c0,0-8.961-1.818-21.506,8.908s-5.111,22.457-5.111,22.457S1027.125,365.773,1043.071,350.542Z" fill="#32324c"/>
                    <circle id="Elipse_4939" data-name="Elipse 4939" cx="2.347" cy="2.347" r="2.347" transform="translate(1054.795 392.772)" fill="#fff"/>
                  </g>
                </g>
              </g>
              <g id="Grupo_930474" data-name="Grupo 930474">
                <g id="Grupo_930473" data-name="Grupo 930473">
                  <g id="Grupo_930465" data-name="Grupo 930465">
                    <path id="Trazado_639231" data-name="Trazado 639231" d="M903.858,781.851l18.3-254.808H907.723L892.749,781.851Z" fill="#263238"/>
                    <path id="Trazado_639232" data-name="Trazado 639232" d="M903.859,781.851l17.347-241.287.959-13.083H907.724l-.782,13.083-14.2,241.287Z" fill="#fff" opacity="0.4" style="isolation: isolate"/>
                    <path id="Trazado_639233" data-name="Trazado 639233" d="M906.942,539.915h14.264l.959-12.435H907.723Z" opacity="0.2" style="isolation: isolate"/>
                  </g>
                  <g id="Grupo_930466" data-name="Grupo 930466">
                    <path id="Trazado_639234" data-name="Trazado 639234" d="M822.858,781.851l1.664-254.808H810.084l1.664,254.808Z" fill="#263238"/>
                    <path id="Trazado_639235" data-name="Trazado 639235" d="M811.739,781.851h11.117L824.235,571.4l.284-43.921H810.077l.285,43.921Z" fill="#fff" opacity="0.5" style="isolation: isolate"/>
                    <path id="Trazado_639236" data-name="Trazado 639236" d="M810.077,527.481l.285,44.409h13.873l.284-44.409Z" opacity="0.2" style="isolation: isolate"/>
                  </g>
                  <g id="Grupo_930467" data-name="Grupo 930467">
                    <path id="Trazado_639237" data-name="Trazado 639237" d="M708.458,781.851l18.3-254.808H712.323L697.349,781.851Z" fill="#263238"/>
                    <path id="Trazado_639238" data-name="Trazado 639238" d="M708.46,781.851l17.347-241.287.959-13.083H712.324l-.782,13.083-14.2,241.287Z" fill="#fff" opacity="0.5" style="isolation: isolate"/>
                    <path id="Trazado_639239" data-name="Trazado 639239" d="M711.542,539.915h14.264l.959-12.435H712.324Z" opacity="0.2" style="isolation: isolate"/>
                  </g>
                  <g id="Grupo_930468" data-name="Grupo 930468">
                    <path id="Trazado_639240" data-name="Trazado 639240" d="M1026.075,781.851,1011.1,527.042H996.664l18.3,254.808Z" fill="#263238"/>
                    <path id="Trazado_639241" data-name="Trazado 639241" d="M1014.972,781.851h11.1L1011.89,540.564l-.781-13.083H996.666l.959,13.083Z" fill="#fff" opacity="0.5" style="isolation: isolate"/>
                    <path id="Trazado_639242" data-name="Trazado 639242" d="M1011.108,527.481H996.666l.959,12.435h14.264Z" opacity="0.2" style="isolation: isolate"/>
                  </g>
                  <g id="Grupo_930469" data-name="Grupo 930469">
                    <path id="Rectángulo_335414" data-name="Rectángulo 335414" d="M2.162,0H319.5a2.162,2.162,0,0,1,2.162,2.162V13.635a0,0,0,0,1,0,0H0a0,0,0,0,1,0,0V2.162A2.162,2.162,0,0,1,2.162,0Z" transform="translate(1022.545 533.86) rotate(180)" fill="#263238"/>
                  </g>
                  <g id="Grupo_930470" data-name="Grupo 930470" opacity="0.6" style="isolation: isolate">
                    <path id="Rectángulo_335415" data-name="Rectángulo 335415" d="M2.162,0H319.5a2.162,2.162,0,0,1,2.162,2.162V13.635a0,0,0,0,1,0,0H0a0,0,0,0,1,0,0V2.162A2.162,2.162,0,0,1,2.162,0Z" transform="translate(1022.545 533.86) rotate(180)" fill="#fff"/>
                  </g>
                  <rect id="Rectángulo_335416" data-name="Rectángulo 335416" width="321.666" height="6.817" transform="translate(1022.545 527.042) rotate(180)" opacity="0.2" style="isolation: isolate"/>
                  <g id="Grupo_930471" data-name="Grupo 930471">
                    <path id="Trazado_639243" data-name="Trazado 639243" d="M694.134,522H1029.29a3.841,3.841,0,0,0,3.841-3.84h0a3.841,3.841,0,0,0-3.841-3.841H694.134a3.841,3.841,0,0,0-3.841,3.841h0A3.841,3.841,0,0,0,694.134,522Z" fill="#263238"/>
                  </g>
                  <g id="Grupo_930472" data-name="Grupo 930472" opacity="0.6" style="isolation: isolate">
                    <path id="Trazado_639244" data-name="Trazado 639244" d="M694.134,522H1029.29a3.841,3.841,0,0,0,3.841-3.84h0a3.841,3.841,0,0,0-3.841-3.841H694.134a3.841,3.841,0,0,0-3.841,3.841h0A3.841,3.841,0,0,0,694.134,522Z" fill="#fff"/>
                  </g>
                </g>
              </g>
              <g id="Grupo_930475" data-name="Grupo 930475">
                <path id="Trazado_639245" data-name="Trazado 639245" d="M971.491,506.11a30.2,30.2,0,0,0-8.244-3.245c-4-.744-8.207-1.356-10.679-1.769-2.975-.5-2.291,2.286.127,3.6,3.667,2,5.839,1.772,5.839,1.772s-16.168.5-20.119,2.313c-3.608,1.654,5.32,1.822,12.7,2.373,0,0-15.531,3.2-16.483,5.718-1.249,3.311,17.554-.616,17.554-.616s-13.435,4.958-12.619,6.48c.911,1.7,15.284-1.7,15.284-1.7s-8.928,4.223-8.027,5.038c1.783,1.615,22.214-3.332,28.11-10.92C974.933,515.163,973.409,507.452,971.491,506.11Z" fill="#ffaf82"/>
              </g>
              <path id="Trazado_639246" data-name="Trazado 639246" d="M1073.457,437.052s-7.61,30.227-31.486,54.177c0,0-32.077,24.281-67.211,24.94,0,0-4.636-2.655-3.269-10.059,0,0,22.415-10.2,32.091-16.009,13.929-8.365,24.749-13.361,24.749-13.361s15.788-26.414,17.287-47.947c0,0,3.263-18.334,21.328-10.208C1070.129,420.017,1075.791,427.766,1073.457,437.052Z" fill="#e63067"/>
            </g>
          </g>
        </g>
      </g>
      <g id="Grupo_930480" data-name="Grupo 930480">
        <rect id="Rectángulo_335418" data-name="Rectángulo 335418" width="208.085" height="90.06" rx="13.129" transform="translate(447.355 186.387)" fill="#fff"/>
        <path id="Trazado_639247" data-name="Trazado 639247" d="M449.107,258.388s-6.132,16.158-14.791,22.819c0,0,19.9-.245,26.078-6.9A102.365,102.365,0,0,1,449.107,258.388Z" fill="#fff"/>
      </g>
      <g id="Grupo_930481" data-name="Grupo 930481">
        <rect id="Rectángulo_335419" data-name="Rectángulo 335419" width="208.085" height="90.06" rx="13.129" transform="translate(977.749 386.424) rotate(180)" fill="#fff"/>
        <path id="Trazado_639248" data-name="Trazado 639248" d="M976,368.364s6.132,16.159,14.791,22.819c0,0-19.9-.245-26.078-6.9A102.234,102.234,0,0,0,976,368.364Z" fill="#fff"/>
      </g>
    </g>
    <path id="Trazado_640184" data-name="Trazado 640184" d="M22.363,17H20.855V11.742H15.121V17h-1.5V5.625h1.5v4.891h5.734V5.625h1.508Zm2.055-4.3a4.993,4.993,0,0,1,.488-2.234A3.643,3.643,0,0,1,26.266,8.93a3.7,3.7,0,0,1,1.988-.539,3.565,3.565,0,0,1,2.793,1.2,4.6,4.6,0,0,1,1.066,3.18v.1a5.036,5.036,0,0,1-.473,2.215,3.589,3.589,0,0,1-1.352,1.527,3.743,3.743,0,0,1-2.02.547,3.556,3.556,0,0,1-2.785-1.2A4.575,4.575,0,0,1,24.418,12.8Zm1.453.172a3.616,3.616,0,0,0,.652,2.258,2.211,2.211,0,0,0,3.5-.012,3.955,3.955,0,0,0,.648-2.418,3.61,3.61,0,0,0-.66-2.254,2.1,2.1,0,0,0-1.754-.863,2.075,2.075,0,0,0-1.727.852A3.925,3.925,0,0,0,25.871,12.867ZM35.5,17H34.051V5H35.5Zm7.531,0a3.036,3.036,0,0,1-.2-.891,3.225,3.225,0,0,1-2.406,1.047,2.984,2.984,0,0,1-2.051-.707,2.287,2.287,0,0,1-.8-1.793,2.39,2.39,0,0,1,1-2.051,4.733,4.733,0,0,1,2.824-.73H42.8v-.664A1.623,1.623,0,0,0,42.348,10a1.821,1.821,0,0,0-1.336-.449,2.107,2.107,0,0,0-1.3.391,1.151,1.151,0,0,0-.523.945H37.738a2,2,0,0,1,.449-1.223,3.066,3.066,0,0,1,1.219-.934A4.1,4.1,0,0,1,41.1,8.391a3.342,3.342,0,0,1,2.289.73,2.635,2.635,0,0,1,.859,2.012v3.891a4.757,4.757,0,0,0,.3,1.852V17Zm-2.4-1.1a2.54,2.54,0,0,0,1.289-.352,2.127,2.127,0,0,0,.883-.914V12.9H41.668q-2.656,0-2.656,1.555a1.316,1.316,0,0,0,.453,1.063A1.742,1.742,0,0,0,40.629,15.9Zm5.836,3.367-.82-.562a3.77,3.77,0,0,0,.766-2.109v-1.3h1.414v1.133A3.559,3.559,0,0,1,47.438,18,3.7,3.7,0,0,1,46.465,19.266Zm13.656-5.242H55.355L54.285,17H52.738L57.082,5.625h1.313L62.746,17H61.207ZM55.809,12.8h3.867l-1.937-5.32Zm9.609-4.25.047,1.063A3.08,3.08,0,0,1,68,8.391q2.68,0,2.7,3.023V17H69.254V11.406a1.946,1.946,0,0,0-.418-1.352,1.675,1.675,0,0,0-1.277-.437,2.086,2.086,0,0,0-1.234.375,2.546,2.546,0,0,0-.828.984V17H64.051V8.547ZM78.1,17a3.036,3.036,0,0,1-.2-.891,3.225,3.225,0,0,1-2.406,1.047,2.984,2.984,0,0,1-2.051-.707,2.288,2.288,0,0,1-.8-1.793,2.39,2.39,0,0,1,1-2.051,4.733,4.733,0,0,1,2.824-.73h1.406v-.664A1.623,1.623,0,0,0,77.418,10a1.821,1.821,0,0,0-1.336-.449,2.108,2.108,0,0,0-1.3.391,1.151,1.151,0,0,0-.523.945H72.809a2,2,0,0,1,.449-1.223,3.066,3.066,0,0,1,1.219-.934,4.1,4.1,0,0,1,1.691-.344,3.342,3.342,0,0,1,2.289.73,2.635,2.635,0,0,1,.859,2.012v3.891a4.757,4.757,0,0,0,.3,1.852V17Zm-2.4-1.1a2.54,2.54,0,0,0,1.289-.352,2.127,2.127,0,0,0,.883-.914V12.9H76.738q-2.656,0-2.656,1.555a1.316,1.316,0,0,0,.453,1.063A1.742,1.742,0,0,0,75.7,15.9Zm5.914.344a.905.905,0,0,1,.223-.625.848.848,0,0,1,.668-.25.874.874,0,0,1,.676.25.887.887,0,0,1,.23.625.839.839,0,0,1-.23.6.89.89,0,0,1-.676.242.8.8,0,0,1-.891-.844Z" transform="translate(635 1776.428)" fill="#12263f"/>
    <path id="Trazado_640185" data-name="Trazado 640185" d="M17.465,17H15.957V11.742H10.223V17h-1.5V5.625h1.5v4.891h5.734V5.625h1.508Zm2.055-4.3a4.993,4.993,0,0,1,.488-2.234A3.643,3.643,0,0,1,21.367,8.93a3.7,3.7,0,0,1,1.988-.539,3.565,3.565,0,0,1,2.793,1.2,4.6,4.6,0,0,1,1.066,3.18v.1a5.036,5.036,0,0,1-.473,2.215,3.589,3.589,0,0,1-1.352,1.527,3.743,3.743,0,0,1-2.02.547,3.556,3.556,0,0,1-2.785-1.2A4.575,4.575,0,0,1,19.52,12.8Zm1.453.172a3.616,3.616,0,0,0,.652,2.258,2.211,2.211,0,0,0,3.5-.012A3.955,3.955,0,0,0,25.77,12.7a3.61,3.61,0,0,0-.66-2.254,2.1,2.1,0,0,0-1.754-.863,2.075,2.075,0,0,0-1.727.852A3.925,3.925,0,0,0,20.973,12.867ZM30.6,17H29.152V5H30.6Zm7.531,0a3.036,3.036,0,0,1-.2-.891,3.225,3.225,0,0,1-2.406,1.047,2.984,2.984,0,0,1-2.051-.707,2.287,2.287,0,0,1-.8-1.793,2.39,2.39,0,0,1,1-2.051,4.733,4.733,0,0,1,2.824-.73H37.9v-.664A1.623,1.623,0,0,0,37.449,10a1.821,1.821,0,0,0-1.336-.449,2.107,2.107,0,0,0-1.3.391,1.151,1.151,0,0,0-.523.945H32.84a2,2,0,0,1,.449-1.223,3.066,3.066,0,0,1,1.219-.934A4.1,4.1,0,0,1,36.2,8.391a3.342,3.342,0,0,1,2.289.73,2.635,2.635,0,0,1,.859,2.012v3.891a4.757,4.757,0,0,0,.3,1.852V17Zm-2.4-1.1a2.54,2.54,0,0,0,1.289-.352,2.127,2.127,0,0,0,.883-.914V12.9H36.77q-2.656,0-2.656,1.555a1.316,1.316,0,0,0,.453,1.063A1.742,1.742,0,0,0,35.73,15.9Zm5.836,3.367-.82-.562a3.77,3.77,0,0,0,.766-2.109v-1.3h1.414v1.133A3.559,3.559,0,0,1,42.539,18,3.7,3.7,0,0,1,41.566,19.266Zm8.875-6.719V17h-1.5V5.625h4.2a4.215,4.215,0,0,1,2.926.953A3.231,3.231,0,0,1,57.121,9.1a3.189,3.189,0,0,1-1.035,2.551,4.4,4.4,0,0,1-2.965.895Zm0-1.227h2.7a2.7,2.7,0,0,0,1.844-.567,2.075,2.075,0,0,0,.641-1.64,2.143,2.143,0,0,0-.641-1.628,2.525,2.525,0,0,0-1.758-.634H50.441Zm11.875,5.836a3.693,3.693,0,0,1-2.8-1.129,4.19,4.19,0,0,1-1.078-3.02v-.266a5.073,5.073,0,0,1,.48-2.246,3.748,3.748,0,0,1,1.344-1.547,3.378,3.378,0,0,1,1.871-.559A3.166,3.166,0,0,1,64.7,9.477a4.7,4.7,0,0,1,.914,3.109v.6H59.887a3,3,0,0,0,.73,2.02,2.3,2.3,0,0,0,1.777.77,2.517,2.517,0,0,0,1.3-.312,3.259,3.259,0,0,0,.93-.828l.883.688A3.55,3.55,0,0,1,62.316,17.156Zm-.18-7.578a1.928,1.928,0,0,0-1.469.637A3.1,3.1,0,0,0,59.934,12h4.234v-.109a2.753,2.753,0,0,0-.594-1.707A1.815,1.815,0,0,0,62.137,9.578Zm4.8,3.125a4.952,4.952,0,0,1,.922-3.129,3.137,3.137,0,0,1,4.766-.168V5h1.445V17H72.738l-.07-.906a2.943,2.943,0,0,1-2.414,1.063,2.887,2.887,0,0,1-2.395-1.2,5.008,5.008,0,0,1-.926-3.141Zm1.445.164a3.749,3.749,0,0,0,.594,2.25,1.92,1.92,0,0,0,1.641.813A2.108,2.108,0,0,0,72.621,14.7V10.813a2.125,2.125,0,0,0-1.992-1.2,1.929,1.929,0,0,0-1.656.82A4.128,4.128,0,0,0,68.379,12.867ZM80.395,9.844a4.331,4.331,0,0,0-.711-.055A1.9,1.9,0,0,0,77.754,11v6H76.309V8.547h1.406l.023.977a2.251,2.251,0,0,1,2.016-1.133,1.477,1.477,0,0,1,.641.109Zm.789,2.852a4.993,4.993,0,0,1,.488-2.234A3.643,3.643,0,0,1,83.031,8.93a3.7,3.7,0,0,1,1.988-.539,3.565,3.565,0,0,1,2.793,1.2,4.6,4.6,0,0,1,1.066,3.18v.1a5.036,5.036,0,0,1-.473,2.215,3.589,3.589,0,0,1-1.352,1.527,3.743,3.743,0,0,1-2.02.547,3.556,3.556,0,0,1-2.785-1.2A4.575,4.575,0,0,1,81.184,12.8Zm1.453.172a3.616,3.616,0,0,0,.652,2.258,2.211,2.211,0,0,0,3.5-.012,3.955,3.955,0,0,0,.648-2.418,3.61,3.61,0,0,0-.66-2.254,2.1,2.1,0,0,0-1.754-.863,2.075,2.075,0,0,0-1.727.852A3.925,3.925,0,0,0,82.637,12.867Z" transform="translate(959 1891.441)" fill="#12263f"/>
  </g>
</svg>
