<svg xmlns="http://www.w3.org/2000/svg" width="462.183" height="305.776" viewBox="0 0 462.183 305.776">
  <g id="Grupo_928237" data-name="Grupo 928237" transform="translate(-739.15 -4240.141)">
    <g id="Grupo_928222" data-name="Grupo 928222">
      <g id="Grupo_928221" data-name="Grupo 928221">
        <g id="Grupo_928216" data-name="Grupo 928216">
          <path id="Trazado_621222" data-name="Trazado 621222" d="M881.62,4523.208s36.488,7.353,66.333-7.206l9.939-125.243L922.4,4354.646l-35.118-7.461-19.34,70.413Z" fill="#f9fafc"/>
          <g id="Grupo_928205" data-name="Grupo 928205">
            <path id="Trazado_621223" data-name="Trazado 621223" d="M887.283,4347.185s5.079,125.033,3.747,186.932l-27.025-3.208a27.894,27.894,0,0,1-24.593-28.508l2.8-96.274,3.066-41.619a9.458,9.458,0,0,1,5.9-8.092A141.711,141.711,0,0,1,887.283,4347.185Z" fill="#ffa405"/>
            <g id="Grupo_928204" data-name="Grupo 928204">
              <path id="Trazado_621224" data-name="Trazado 621224" d="M794.717,4484.561l-9.667,16.96s-19,1.19-36.494,9.45a2.372,2.372,0,0,0-1.314,2.51h0a2.355,2.355,0,0,0,3.007,1.889l13.042-3.94a206.527,206.527,0,0,0-22.654,10.956,2.967,2.967,0,0,0-1.214,3.807h0a2.955,2.955,0,0,0,3.75,1.512l21.082-8.187-19.687,10.872a3.265,3.265,0,0,0-1.33,4.342h0a3.263,3.263,0,0,0,4.327,1.457l19.063-9.2-14.858,10.441a3.778,3.778,0,0,0-.466,5.795h0a3.782,3.782,0,0,0,4.727.442c5.847-3.858,20.577-12.878,30.141-12.622a45.807,45.807,0,0,1-6.307,7.508,4.276,4.276,0,0,0,.418,6.555h0a4.264,4.264,0,0,0,4.925.053l11.229-7.76a11.049,11.049,0,0,0,4.372-6.159l3.731-13.564,16.281-15.4Z" fill="#ff974d"/>
              <g id="Grupo_928203" data-name="Grupo 928203">
                <path id="Trazado_621225" data-name="Trazado 621225" d="M852.609,4355.849s-5.214-.3-22.289,21.594c-17.576,22.534-48.121,123.123-48.121,123.123l30.682,23.3,52.089-113.381Z" fill="#ffa405"/>
                <line id="Línea_285" data-name="Línea 285" y1="39.49" x2="18.142" transform="translate(841.115 4422.916)" fill="none" stroke="#ec7600" stroke-linecap="round" stroke-linejoin="round" stroke-width="1.748"/>
              </g>
            </g>
          </g>
          <g id="Grupo_928215" data-name="Grupo 928215">
            <g id="Grupo_928213" data-name="Grupo 928213">
              <path id="Trazado_621226" data-name="Trazado 621226" d="M948.925,4357.641s26.9,8.385,37.025,107.628L964.1,4480.752Z" fill="#ffa405"/>
              <g id="Grupo_928212" data-name="Grupo 928212">
                <g id="Grupo_928208" data-name="Grupo 928208">
                  <g id="Grupo_928207" data-name="Grupo 928207">
                    <g id="Grupo_928206" data-name="Grupo 928206">
                      <path id="Trazado_621227" data-name="Trazado 621227" d="M1040.236,4430.1s-9.818-7.562-.685-20.214l13.7-19.751a3.553,3.553,0,0,1,5.294-.52h0a3.553,3.553,0,0,1,.9,3.868l-4.225,11.69,25.978-17.588a3.85,3.85,0,0,1,5.709,1.326h0a3.851,3.851,0,0,1-1.015,4.775l-16.731,12.983.326,1.024,19.2-10.94a3.707,3.707,0,0,1,5.152,2.508h0a3.708,3.708,0,0,1-2.049,4.228l-18.544,11.88.27,1.3,18.094-7.748c4.479-2.148,5.875-.047,6.317,1.611h0c.412,1.548-2.958,3.656-4.478,4.16l-18.718,9.462.2,1.209,17.357-6.662a2.672,2.672,0,0,1,3.032,2.848h0a2.671,2.671,0,0,1-2.193,2.43l-19.8,8.436s-18.085,12.344-26.285,5.379Z" fill="#ff974d"/>
                      <path id="Trazado_621228" data-name="Trazado 621228" d="M1055.22,4405.168s5.717,10.206-1.262,19.289" fill="none" stroke="#fb7928" stroke-linecap="round" stroke-linejoin="round" stroke-width="1.6"/>
                    </g>
                  </g>
                  <path id="Trazado_621229" data-name="Trazado 621229" d="M1012.457,4431.795l29.805-12.569,12.884,18.07-33.412,17.982Z" fill="#ff974d"/>
                </g>
                <g id="Grupo_928211" data-name="Grupo 928211">
                  <g id="Grupo_928210" data-name="Grupo 928210">
                    <g id="Grupo_928209" data-name="Grupo 928209">
                      <path id="Trazado_621230" data-name="Trazado 621230" d="M953.132,4450.006l75.345-30.467,15.078,32.652-65.761,43.438a22.9,22.9,0,0,1-30.547-6.465h0C939.338,4477.9,940.973,4456.463,953.132,4450.006Z" fill="#ffa405"/>
                    </g>
                  </g>
                  <line id="Línea_286" data-name="Línea 286" x1="9.149" y2="3.699" transform="translate(972.79 4438.357)" fill="none" stroke="#ec7600" stroke-linecap="round" stroke-linejoin="round" stroke-width="1.748"/>
                </g>
              </g>
            </g>
            <g id="Grupo_928214" data-name="Grupo 928214">
              <path id="Trazado_621231" data-name="Trazado 621231" d="M922.4,4354.646s8.711,10.215,12.274,54.313,4.756,119.494,4.756,119.494h0a32.241,32.241,0,0,0,25.773-32.568c-.993-32.653-3.344-85.864-8.481-108.368l-4.787-24.429c-.264-1.155-1.388-4.63-1.388-4.63s-3.857-3.515-27.819-9.011Z" fill="#ffa405"/>
              <path id="Trazado_621232" data-name="Trazado 621232" d="M965.153,4498.91s.232-62.617-7.261-108.151" fill="none" stroke="#ec7600" stroke-linecap="round" stroke-linejoin="round" stroke-width="1.748"/>
            </g>
          </g>
        </g>
        <g id="Grupo_928220" data-name="Grupo 928220">
          <path id="Trazado_621233" data-name="Trazado 621233" d="M884.683,4303.982s-8.585,13.876,4.021,13.46a13.887,13.887,0,0,0,4.075-12.472Z" fill="#8a331f"/>
          <path id="Trazado_621234" data-name="Trazado 621234" d="M959.618,4265.3a22.1,22.1,0,0,0-2.62-8.265c-18.15-33.549-57.621-6.774-57.621-6.774l6.912,23.509C922.744,4263.817,942.322,4259.753,959.618,4265.3Z" fill="#8a331f"/>
          <path id="Trazado_621235" data-name="Trazado 621235" d="M906.289,4273.771l7.713,30.5s48.265-13.86,45.616-38.969C942.322,4259.753,925.2,4257.393,906.289,4273.771Z" fill="#7b2616"/>
          <path id="Trazado_621236" data-name="Trazado 621236" d="M929.272,4300.686a9.9,9.9,0,1,0,7.079-12.073A9.9,9.9,0,0,0,929.272,4300.686Z" fill="#ff8031"/>
          <path id="Trazado_621237" data-name="Trazado 621237" d="M920.8,4321.773l1.824,29.4a13.638,13.638,0,0,1-23.522,8.51l-11.815-12.5,3.515-51.3Z" fill="#ff974d"/>
          <path id="Trazado_621238" data-name="Trazado 621238" d="M921.7,4336.278s-19.237-.824-20.67-20.221l19.77,5.716Z" fill="#311326"/>
          <path id="Trazado_621239" data-name="Trazado 621239" d="M941.015,4258.132s6.306,40.13,1.375,52.769-15.887,20.373-32.849,16.622c0,0-19.786-1.536-23.371-30.262C880.772,4254.015,921.485,4234.617,941.015,4258.132Z" fill="#ff974d"/>
          <g id="Grupo_928217" data-name="Grupo 928217">
            <path id="Trazado_621240" data-name="Trazado 621240" d="M937.721,4291.232a2.265,2.265,0,1,0,1.722-2.7A2.264,2.264,0,0,0,937.721,4291.232Z" fill="#101010"/>
            <path id="Trazado_621241" data-name="Trazado 621241" d="M918.585,4290.866a2.264,2.264,0,1,0,1.721-2.7A2.264,2.264,0,0,0,918.585,4290.866Z" fill="#101010"/>
            <path id="Trazado_621242" data-name="Trazado 621242" d="M933.577,4292.886l2.176,7.737-3.663,1.826" fill="none" stroke="#311326" stroke-linecap="round" stroke-linejoin="round" stroke-width="0.983"/>
            <path id="Trazado_621243" data-name="Trazado 621243" d="M917.088,4274.71s7.035-1.7,7.537,2.1c0,0,.286,2.583-5.87,3.911s-8.637,1.224-9.479-1.128S913.75,4275.172,917.088,4274.71Z" fill="#20120c"/>
            <path id="Trazado_621244" data-name="Trazado 621244" d="M943.405,4274.193s-6.551-1.622-7.257,2.1c0,0-.432,2.55,5.314,3.791,4.184.9,5.677.092,6-1.617C947.836,4276.447,945.868,4274.572,943.405,4274.193Z" fill="#20120c"/>
            <path id="Trazado_621245" data-name="Trazado 621245" d="M921.209,4305.765l13.127.966s-.13,5.129-6.822,4.677S921.209,4305.765,921.209,4305.765Z" fill="#fff"/>
          </g>
          <path id="Trazado_621246" data-name="Trazado 621246" d="M896.1,4294.694l1.931-14.608s11.572-3.681,14.335-25.543c0,0-4.856-10.058-19.688-5.457s-27.708,15.328-11.445,42.256Z" fill="#8a331f"/>
          <g id="Grupo_928218" data-name="Grupo 928218">
            <path id="Trazado_621247" data-name="Trazado 621247" d="M872.857,4300.754a12.008,12.008,0,1,0,8.59-14.65A12.007,12.007,0,0,0,872.857,4300.754Z" fill="#ff974d"/>
            <path id="Trazado_621248" data-name="Trazado 621248" d="M879.2,4294.006s8.895-2.181,10.856,7.591" fill="none" stroke="#311326" stroke-linecap="round" stroke-linejoin="round" stroke-width="0.983"/>
          </g>
          <g id="Grupo_928219" data-name="Grupo 928219">
            <path id="Trazado_621249" data-name="Trazado 621249" d="M912.362,4254.543a45.64,45.64,0,0,1,29.213,6.905l-3.069-12.982-19.212-2.659-18.331,6.9,4.523.428Z" fill="#8a331f"/>
            <path id="Trazado_621250" data-name="Trazado 621250" d="M941.575,4261.448s22.125.055,22.214,16.175a.279.279,0,0,0,.553.05c1.037-5.989-.076-22.378-24.5-20.465Z" fill="#8a331f"/>
          </g>
        </g>
      </g>
    </g>
    <g id="Grupo_928236" data-name="Grupo 928236">
      <g id="Grupo_928235" data-name="Grupo 928235">
        <g id="Grupo_928225" data-name="Grupo 928225">
          <path id="Trazado_621251" data-name="Trazado 621251" d="M1151.455,4291.855s4.221,26.249,13.677,40.99a6.111,6.111,0,0,1-1.908,8.307c-10.677,6.9-40.718,19.984-79.085,5a6.124,6.124,0,0,1-3.784-6.412c.785-7.1,6.944-21.028,16-33.525Z" fill="#ff6b21"/>
          <path id="Trazado_621252" data-name="Trazado 621252" d="M1098.251,4316.2a8.87,8.87,0,1,1-5.916-11.061A8.871,8.871,0,0,1,1098.251,4316.2Z" fill="#ffac78"/>
          <path id="Trazado_621253" data-name="Trazado 621253" d="M1108.6,4334.226l.855,35.913,27.978-3.266-5.3-52.794Z" fill="#ffb988"/>
          <path id="Trazado_621254" data-name="Trazado 621254" d="M1108.93,4347.552s12.724-.643,13.272-15.109l-13.484,7.135Z" fill="#311326"/>
          <path id="Trazado_621255" data-name="Trazado 621255" d="M1091.975,4281.978a12.95,12.95,0,0,0-4.234,7.408c-1.7,8.486-5.03,26.135-2.026,35.142,3.906,11.714,13.418,19.121,28.79,16.2,0,0,17.814-.811,22.209-26.99C1142.949,4276.6,1111.135,4265.786,1091.975,4281.978Z" fill="#ffb988"/>
          <g id="Grupo_928223" data-name="Grupo 928223">
            <circle id="Elipse_4924" data-name="Elipse 4924" cx="2.029" cy="2.029" r="2.029" transform="translate(1086.99 4306.606)" fill="#311326"/>
            <path id="Trazado_621256" data-name="Trazado 621256" d="M1108.134,4309.5a2.029,2.029,0,1,1-1.447-2.479A2.029,2.029,0,0,1,1108.134,4309.5Z" fill="#311326"/>
            <path id="Trazado_621257" data-name="Trazado 621257" d="M1094.422,4313.672l-2.007,4.833,3.251.875" fill="none" stroke="#311326" stroke-linecap="round" stroke-linejoin="round" stroke-width="0.873"/>
            <path id="Trazado_621258" data-name="Trazado 621258" d="M1108.193,4297.15s-6.293-1.114-6.627,1.779c0,0-.178,1.963,5.323,2.815s7.7.711,8.38-1.091S1111.169,4297.416,1108.193,4297.15Z" fill="#ff6b21"/>
            <path id="Trazado_621259" data-name="Trazado 621259" d="M1086.72,4297.25s5.481-1.195,6.268,1.574c0,0,.495,1.894-4.323,2.807-3.509.665-4.817.061-5.173-1.209C1083.069,4298.918,1084.646,4297.528,1086.72,4297.25Z" fill="#ff6b21"/>
            <path id="Trazado_621260" data-name="Trazado 621260" d="M1094.2,4323.1l11.3.187s.026,4.552-5.734,4.494S1094.2,4323.1,1094.2,4323.1Z" fill="#fff"/>
          </g>
          <path id="Trazado_621261" data-name="Trazado 621261" d="M1129.975,4310.976s-9.3-8.231-7.451-24.244a155.1,155.1,0,0,1-34.552,1.411s4.184-24.754,39.847-18.817c37.056,6.168,23.388,49.023,9.618,61.572Z" fill="#ff6b21"/>
          <g id="Grupo_928224" data-name="Grupo 928224">
            <circle id="Elipse_4925" data-name="Elipse 4925" cx="10.763" cy="10.763" r="10.763" transform="translate(1122.973 4310.837) rotate(-28.895)" fill="#ffb988"/>
            <path id="Trazado_621262" data-name="Trazado 621262" d="M1142.452,4311.915s-7.891-2.266-9.99,6.418" fill="none" stroke="#311326" stroke-linecap="round" stroke-linejoin="round" stroke-width="0.873"/>
          </g>
          <path id="Trazado_621263" data-name="Trazado 621263" d="M1114.312,4268.5c.049-.046-30.995.528-34.878,25.192l49.123,1.1,2.942-16.42Z" fill="#ff6b21"/>
        </g>
        <g id="Grupo_928234" data-name="Grupo 928234">
          <g id="Grupo_928226" data-name="Grupo 928226">
            <path id="Trazado_621264" data-name="Trazado 621264" d="M1074.452,4430.489l3.418,46.469-19.178,58.469h21.279l33.178-32.051-3.564-69.905Z" fill="#ffb988"/>
            <path id="Trazado_621265" data-name="Trazado 621265" d="M1082.891,4374.644s-24.254,17.52-17.112,73.724h39.688Z" fill="#fff"/>
          </g>
          <path id="Trazado_621266" data-name="Trazado 621266" d="M1092.785,4476.357l-13.351,58.731c49.826,14.077,96.147,0,96.147,0s-2.6-22.556-19.913-59.132Z" fill="#311326"/>
          <g id="Grupo_928227" data-name="Grupo 928227">
            <path id="Trazado_621267" data-name="Trazado 621267" d="M1149.851,4364.047l-48.747.815s-10.678,3.582-18.213,9.782l1.527,41.107,8.367,60.606,62.883-.4,12.365-94.175Z" fill="#fff"/>
            <path id="Trazado_621268" data-name="Trazado 621268" d="M1123.27,4356.953a101.638,101.638,0,0,1,26.581,7.094s-4.068,15.818-27.456,15.889a30.32,30.32,0,0,1-11.464-2.049c-4.861-1.967-10.544-5.826-9.827-13.025Z" fill="#ffb988"/>
            <line id="Línea_287" data-name="Línea 287" x1="4.534" y1="33.172" transform="translate(1083.438 4414.196)" fill="none" stroke="#dbdbdb" stroke-linecap="round" stroke-linejoin="round" stroke-width="1.748"/>
          </g>
          <g id="Grupo_928233" data-name="Grupo 928233">
            <g id="Grupo_928230" data-name="Grupo 928230">
              <path id="Trazado_621269" data-name="Trazado 621269" d="M1184.119,4478.549c.11-1.244-2.223-58.347-2.223-58.347h-26.971l-.421,42.552Z" fill="#ffb988"/>
              <g id="Grupo_928229" data-name="Grupo 928229">
                <g id="Grupo_928228" data-name="Grupo 928228">
                  <path id="Trazado_621270" data-name="Trazado 621270" d="M1149.851,4364.047s33.477,9.288,37.553,30.087,13.929,55.506,13.929,55.506l-51.482.149,3.871-69.853Z" fill="#fff"/>
                </g>
                <line id="Línea_288" data-name="Línea 288" x1="4.354" y1="30.889" transform="translate(1147.364 4422.521)" fill="none" stroke="#dbdbdb" stroke-linecap="round" stroke-linejoin="round" stroke-width="1.748"/>
              </g>
            </g>
            <g id="Grupo_928232" data-name="Grupo 928232">
              <path id="Trazado_621271" data-name="Trazado 621271" d="M1112.623,4420.244l-6.417,12.449L1160.9,4487.6a14.241,14.241,0,0,0,21.821-4.54h0a14.24,14.24,0,0,0-5.736-18.822l-7.671-5.244-13.471-9.209Z" fill="#ffb988"/>
              <g id="Grupo_928231" data-name="Grupo 928231">
                <path id="Trazado_621272" data-name="Trazado 621272" d="M1116.741,4423.343l-.028-8.26a27.521,27.521,0,0,0-3-12.4l-3.446-6.761a2.916,2.916,0,0,0-4.334-1.017h0a3.731,3.731,0,0,0-1.387,3.94l2.037,7.793-19.715-21.387a2.984,2.984,0,0,0-3.985.228h0a2.71,2.71,0,0,0-.262,3.152L1093.2,4401.5l-14.469-12.758a2.7,2.7,0,0,0-3.735.424h0a2.9,2.9,0,0,0,.277,3.434L1092,4407.324l-15.722-9.415a2.258,2.258,0,0,0-3.328,1.143l-.1.273a2.26,2.26,0,0,0,.761,2.567l15.335,11.6-10.166-5.809a2.258,2.258,0,0,0-3.372,1.8h0a2.26,2.26,0,0,0,.956,2.006l33.023,23.668Z" fill="#ffb988"/>
              </g>
              <line id="Línea_289" data-name="Línea 289" x2="15.582" y2="10.652" transform="translate(1156.854 4450.481)" fill="none" stroke="#ffa46a" stroke-linecap="round" stroke-linejoin="round" stroke-width="1.6"/>
            </g>
          </g>
        </g>
      </g>
    </g>
  </g>
</svg>
