<svg xmlns="http://www.w3.org/2000/svg" width="74" height="74" viewBox="0 0 74 74">
  <g id="Grupo_928750" data-name="Grupo 928750" transform="translate(-427.919 -6146.257)">
    <g id="Grupo_926807" data-name="Grupo 926807" transform="translate(-0.001 -4663.244)">
      <circle id="Elipse_4803" data-name="Elipse 4803" cx="37" cy="37" r="37" transform="translate(427.92 10809.501)" fill="#406834"/>
    </g>
    <path id="camara-de-video-con-boton-de-reproduccion" d="M44.393,86.953a3.127,3.127,0,0,0-3.408.678l-5.957,5.957V89.957a4.683,4.683,0,0,0-4.683-4.683H4.683A4.683,4.683,0,0,0,0,89.957v17.234a4.683,4.683,0,0,0,4.683,4.683H30.346a4.683,4.683,0,0,0,4.683-4.683v-3.631l5.957,5.957a3.127,3.127,0,0,0,5.338-2.211V89.841A3.127,3.127,0,0,0,44.393,86.953ZM22.009,99.787l-6.383,4.9a1.53,1.53,0,0,1-2.462-1.213V93.67a1.53,1.53,0,0,1,2.462-1.213l6.383,4.9a1.53,1.53,0,0,1,0,2.426Z" transform="translate(441.758 6084.683)" fill="#fff"/>
  </g>
</svg>
