<svg xmlns="http://www.w3.org/2000/svg" width="353.065" height="313.894" viewBox="0 0 353.065 313.894">
  <g id="Grupo_929768" data-name="Grupo 929768" transform="translate(-108.164 -3854.778)">
    <g id="Grupo_929677" data-name="Grupo 929677" transform="translate(108.164 3942.471)">
      <path id="Trazado_638855" data-name="Trazado 638855" d="M114.179,4029.449l54.572-5.354-5.955-49.066-54.632,4.867.743,3.808,1.632-.537c1.078-.048,1.562.593,1.713,1.583,0,.021.007.043.009.064.122,1-.13,1.937-1.193,2.148l-2.059-.116.419,3.453s3.624-.77,3.791,1.366c0,0-.158,1.977-3.412,1.758l.35,2.878s3.619-.915,3.821,1.3c.171,1.878-1.935,2.016-3.413,2.072l.369,3.037s3.6-.685,3.553,1.579-3.138,1.842-3.138,1.842l.469,3.867s3.331-1.353,3.611.954-2.4,2.135-3.258,1.951l.357,2.94s3.4-1.345,3.557,1.615c.119,2.223-3.2,1.316-3.2,1.316l.5,4.091s3.336-1.317,3.6.889c.19,1.569-1.854,2.318-3.306,1.565Z" transform="translate(-108.164 -3971.37)" fill="#f5f5f5"/>
      <path id="Trazado_638958" data-name="Trazado 638958" d="M0,0,32.735.088l.024,8.3L.024,8.3Z" transform="translate(14.26 1.19) rotate(-2.083)" fill="#e0e0e0"/>
      <g id="Grupo_929672" data-name="Grupo 929672" transform="translate(13.623 16.54)">
        <path id="Trazado_638856" data-name="Trazado 638856" d="M159.078,3992.006a8.881,8.881,0,0,1-1.344.154l-3.673.273c-3.1.214-7.39.482-12.127.753s-9.03.5-12.137.638l-3.681.148a.677.677,0,1,1-.011-.155l3.673-.273c3.1-.214,7.391-.482,12.13-.753s9.027-.5,12.135-.637l3.681-.148A8.821,8.821,0,0,1,159.078,3992.006Z" transform="translate(-124.763 -3991.986)" fill="#e0e0e0"/>
      </g>
      <g id="Grupo_929673" data-name="Grupo 929673" transform="translate(14.929 22.692)">
        <path id="Trazado_638857" data-name="Trazado 638857" d="M160.668,4000.1a8.752,8.752,0,0,1-1.343.154l-3.673.273c-3.1.214-7.391.482-12.127.753s-9.031.5-12.137.638l-3.681.147a.677.677,0,1,1-.011-.153l3.673-.273c3.1-.214,7.391-.482,12.129-.754s9.028-.5,12.136-.638l3.681-.148A8.831,8.831,0,0,1,160.668,4000.1Z" transform="translate(-126.354 -4000.083)" fill="#e0e0e0"/>
      </g>
      <g id="Grupo_929674" data-name="Grupo 929674" transform="translate(15.404 29.008)">
        <path id="Trazado_638858" data-name="Trazado 638858" d="M161.247,4008.418a8.8,8.8,0,0,1-1.344.154l-3.673.274c-3.1.214-7.39.482-12.127.754s-9.03.495-12.137.637l-3.681.148a8.712,8.712,0,0,1-1.353,0,9.042,9.042,0,0,1,1.343-.154l3.673-.273c3.1-.214,7.391-.482,12.13-.753s9.027-.5,12.135-.637l3.681-.148A8.782,8.782,0,0,1,161.247,4008.418Z" transform="translate(-126.932 -4008.398)" fill="#e0e0e0"/>
      </g>
      <g id="Grupo_929675" data-name="Grupo 929675" transform="translate(16.234 35.325)">
        <path id="Trazado_638859" data-name="Trazado 638859" d="M162.259,4016.733a8.974,8.974,0,0,1-1.344.154l-3.673.274c-3.1.213-7.39.481-12.127.753s-9.03.5-12.137.637l-3.681.148a8.748,8.748,0,0,1-1.353,0,8.911,8.911,0,0,1,1.344-.155l3.672-.273c3.1-.213,7.391-.481,12.13-.753s9.028-.5,12.135-.637l3.682-.148A8.757,8.757,0,0,1,162.259,4016.733Z" transform="translate(-127.944 -4016.713)" fill="#e0e0e0"/>
      </g>
      <g id="Grupo_929676" data-name="Grupo 929676" transform="translate(18.133 42.13)">
        <path id="Trazado_638860" data-name="Trazado 638860" d="M164.572,4025.691a8.837,8.837,0,0,1-1.343.154l-3.673.273c-3.1.214-7.39.482-12.127.754s-9.03.5-12.137.637l-3.681.148a.677.677,0,1,1-.011-.154l3.673-.274c3.1-.214,7.391-.482,12.13-.753s9.027-.5,12.135-.637l3.681-.148A8.843,8.843,0,0,1,164.572,4025.691Z" transform="translate(-130.258 -4025.671)" fill="#e0e0e0"/>
      </g>
    </g>
    <g id="Grupo_929681" data-name="Grupo 929681" transform="translate(141.098 3860.293)">
      <path id="Trazado_638861" data-name="Trazado 638861" d="M159.582,3872.77l-.344,50.793h53.342l.874-50.793-4.17.257.393,1.56c-.069,1-.812,1.371-1.891,1.4h-.071c-1.087,0-2.065-.335-2.173-1.337l.354-1.881h-3.752s.421,3.419-1.892,3.334c0,0-2.1-.366-1.5-3.334h-3.13s.579,3.431-1.819,3.37c-2.036-.053-1.948-2.006-1.843-3.37h-3.3s.334,3.391-2.092,3.091-1.628-3.091-1.628-3.091h-4.2s1.079,3.215-1.427,3.215-2.024-2.447-1.731-3.215h-3.2s1.065,3.276-2.131,3.091c-2.4-.138-1.055-3.091-1.055-3.091h-4.448s1.042,3.215-1.356,3.215a1.915,1.915,0,0,1-1.312-3.215Z" transform="translate(-150.254 -3864.616)" fill="#fafafa"/>
      <path id="Trazado_638951" data-name="Trazado 638951" d="M0,0,25.411.918,25.662,7.7.251,6.784Z" transform="matrix(0.813, -0.582, 0.582, 0.813, 0, 14.926)" fill="#ebebeb"/>
      <path id="Trazado_638952" data-name="Trazado 638952" d="M0,0,25.411.918,25.662,7.7.251,6.784Z" transform="matrix(0.813, -0.582, 0.582, 0.813, 47.543, 61.423)" fill="#ebebeb"/>
      <g id="Grupo_929678" data-name="Grupo 929678" transform="translate(16.539 21.371)">
        <path id="Trazado_638862" data-name="Trazado 638862" d="M209.447,3890.365a1.633,1.633,0,0,1-.416.041l-1.195.037-4.394.063c-3.71.036-8.835.058-14.5.058s-10.789-.022-14.5-.058l-4.393-.063-1.2-.037a1.625,1.625,0,0,1-.416-.041,1.756,1.756,0,0,1,.416-.04l1.2-.037,4.393-.063c3.71-.036,8.836-.058,14.5-.058s10.786.022,14.5.058l4.394.063,1.195.037A1.764,1.764,0,0,1,209.447,3890.365Z" transform="translate(-168.443 -3890.168)" fill="#e0e0e0"/>
      </g>
      <g id="Grupo_929679" data-name="Grupo 929679" transform="translate(17.466 30.509)">
        <path id="Trazado_638863" data-name="Trazado 638863" d="M208.7,3902.4a1.528,1.528,0,0,1-.4.04l-1.14.038-4.193.063c-3.541.035-8.431.057-13.834.057s-10.3-.022-13.836-.057l-4.193-.063-1.14-.038a.2.2,0,1,1,0-.08l1.14-.037,4.193-.063c3.541-.035,8.432-.058,13.836-.058s10.293.023,13.834.058l4.193.063,1.14.037A1.525,1.525,0,0,1,208.7,3902.4Z" transform="translate(-169.572 -3902.197)" fill="#e0e0e0"/>
      </g>
      <g id="Grupo_929680" data-name="Grupo 929680" transform="translate(18.392 39.33)">
        <path id="Trazado_638864" data-name="Trazado 638864" d="M190.277,3914.007a20.5,20.5,0,0,1-2.867.139c-1.771.036-4.218.058-6.921.058s-5.15-.022-6.921-.058a20.485,20.485,0,0,1-2.867-.139,20.616,20.616,0,0,1,2.867-.14c1.771-.035,4.218-.058,6.921-.058s5.149.023,6.921.058A20.63,20.63,0,0,1,190.277,3914.007Z" transform="translate(-170.701 -3913.809)" fill="#e0e0e0"/>
      </g>
    </g>
    <g id="Grupo_929682" data-name="Grupo 929682" transform="translate(121.393 4167.955)">
      <path id="Trazado_638865" data-name="Trazado 638865" d="M464.118,4267.226c0,.109-76.081.2-169.91.2-93.862,0-169.926-.088-169.926-.2s76.064-.2,169.926-.2C388.037,4267.028,464.118,4267.117,464.118,4267.226Z" transform="translate(-124.282 -4267.028)" fill="#263238"/>
    </g>
    <path id="Trazado_638866" data-name="Trazado 638866" d="M450.385,4222.192c-1.454,1.922-4.279,1.286-5.589.113a9.5,9.5,0,0,1-2.368-4.5c-1.152-3.7-2.312-7.589-1.456-11.362a6.126,6.126,0,0,1,1.568-3.089,3.737,3.737,0,0,1,3.377-1.04,5.007,5.007,0,0,1,2.95,2.869,25.418,25.418,0,0,1,2.892,11.624,8.837,8.837,0,0,1-1.372,5.381" transform="translate(-59.605 -83.501)" fill="#eb6f2d"/>
    <path id="Trazado_638867" data-name="Trazado 638867" d="M450.385,4222.192c-1.454,1.922-4.279,1.286-5.589.113a9.5,9.5,0,0,1-2.368-4.5c-1.152-3.7-2.312-7.589-1.456-11.362a6.126,6.126,0,0,1,1.568-3.089,3.737,3.737,0,0,1,3.377-1.04,5.007,5.007,0,0,1,2.95,2.869,25.418,25.418,0,0,1,2.892,11.624,8.837,8.837,0,0,1-1.372,5.381" transform="translate(-59.605 -83.501)" opacity="0.2"/>
    <path id="Trazado_638868" data-name="Trazado 638868" d="M443.144,4240.974a13.525,13.525,0,0,0-7.816-.878,6.75,6.75,0,0,0-3.862,1.6,2.437,2.437,0,0,0-.039,3.568,3.938,3.938,0,0,0,2.434.572c2.067-.023,4.359-.359,6.009.791.941.657,1.568,1.748,2.694,2.07a2.744,2.744,0,0,0,2.928-1.206,3.926,3.926,0,0,0,.332-3.107A4.735,4.735,0,0,0,443.144,4240.974Z" transform="translate(-57.811 -92.552)" fill="#eb6f2d"/>
    <path id="Trazado_638869" data-name="Trazado 638869" d="M457.034,4226.907a6.577,6.577,0,0,1-1.175-6.435,12.425,12.425,0,0,1,4.118-5.529,22.648,22.648,0,0,1,7.374-4.027,8.437,8.437,0,0,1,3.316-.521,3.53,3.53,0,0,1,2.783,1.558c.776,1.37.032,3.032-.773,4.387a51.876,51.876,0,0,1-4.842,6.827,12.9,12.9,0,0,1-5.327,4.224c-2.213.782-4.511.691-5.684-.729" transform="translate(-62.263 -85.458)" fill="#eb6f2d"/>
    <g id="Grupo_929683" data-name="Grupo 929683" transform="translate(380.028 4150.009)">
      <path id="Trazado_638870" data-name="Trazado 638870" d="M450.255,4261.076a3.892,3.892,0,0,1-.131-.873c-.067-.635-.151-1.434-.25-2.384a32.161,32.161,0,0,0-.579-3.495,25.552,25.552,0,0,0-1.373-4.125,14.926,14.926,0,0,0-2.276-3.733,8.4,8.4,0,0,0-2.878-2.215,8.518,8.518,0,0,0-2.424-.7,4.9,4.9,0,0,1-.939-.126,4.785,4.785,0,0,1,.956-.014,7.809,7.809,0,0,1,2.526.608,8.423,8.423,0,0,1,3.036,2.233,14.632,14.632,0,0,1,2.359,3.808,23.8,23.8,0,0,1,1.363,4.193,27.63,27.63,0,0,1,.5,3.54c.081,1.012.112,1.832.127,2.4A3.8,3.8,0,0,1,450.255,4261.076Z" transform="translate(-439.405 -4243.405)" fill="#263238"/>
    </g>
    <g id="Grupo_929684" data-name="Grupo 929684" transform="translate(385.877 4126.454)">
      <path id="Trazado_638871" data-name="Trazado 638871" d="M451.356,4251.792a1.6,1.6,0,0,1-.025-.406c0-.3,0-.687,0-1.159,0-1,0-2.46-.056-4.258-.1-3.593-.43-8.554-1.076-14.008s-1.513-10.361-2.3-13.881c-.186-.882-.374-1.677-.549-2.372s-.311-1.3-.45-1.784c-.119-.458-.216-.831-.292-1.126a1.644,1.644,0,0,1-.077-.4,1.67,1.67,0,0,1,.153.38c.1.292.215.66.363,1.11.162.482.327,1.079.515,1.772s.4,1.486.607,2.366a122.7,122.7,0,0,1,2.416,13.9,133.1,133.1,0,0,1,.964,14.042c.023,1.8-.019,3.26-.068,4.267-.031.47-.057.854-.076,1.158A1.636,1.636,0,0,1,451.356,4251.792Z" transform="translate(-446.532 -4212.398)" fill="#263238"/>
    </g>
    <g id="Grupo_929685" data-name="Grupo 929685" transform="translate(390.657 4129.388)">
      <path id="Trazado_638872" data-name="Trazado 638872" d="M452.373,4243.124a7.161,7.161,0,0,1,.009-1.211,31.34,31.34,0,0,1,.4-3.279,42.834,42.834,0,0,1,3.311-10.432,30,30,0,0,1,6.339-9.136,15.633,15.633,0,0,1,1.491-1.283c.229-.18.431-.358.637-.5l.579-.369a8.738,8.738,0,0,1,1.1-.653,38.476,38.476,0,0,0-3.609,2.981,31.527,31.527,0,0,0-6.18,9.1,42.932,42.932,0,0,0-2.171,5.6,45.54,45.54,0,0,0-1.226,4.73c-.27,1.364-.427,2.477-.521,3.248A7.168,7.168,0,0,1,452.373,4243.124Z" transform="translate(-452.355 -4216.261)" fill="#263238"/>
    </g>
    <g id="Grupo_929699" data-name="Grupo 929699" transform="translate(209.737 3854.778)">
      <g id="Grupo_929696" data-name="Grupo 929696" transform="translate(0)">
        <path id="Trazado_638873" data-name="Trazado 638873" d="M415.258,4100.793l-177.566-20.9,30.93-225.114L450.6,3876.2a3.425,3.425,0,0,1,3.145,3.76l-29.452,214.364C423.725,4098.417,419.683,4101.314,415.258,4100.793Z" transform="translate(-232.955 -3854.778)" fill="#455a64"/>
        <path id="Trazado_638953" data-name="Trazado 638953" d="M0,0,11.052.111l.207,22.163L.207,22.163Z" transform="matrix(0.126, -0.992, 0.992, 0.126, 204.388, 70.096)" fill="#eb6f2d"/>
        <path id="Trazado_638954" data-name="Trazado 638954" d="M0,0,11.052.111l.207,22.163L.207,22.163Z" transform="matrix(0.126, -0.992, 0.992, 0.126, 204.388, 70.096)" opacity="0.3"/>
        <path id="Trazado_638955" data-name="Trazado 638955" d="M2.171,1.612,175.064,0l-2.171,216.066L0,217.678Z" transform="matrix(0.992, 0.126, -0.126, 0.992, 40.537, 5.106)" fill="#e0e0e0"/>
        <path id="Trazado_638956" data-name="Trazado 638956" d="M2.171,1.612,175.064,0l-2.171,216.066L0,217.678Z" transform="matrix(0.992, 0.126, -0.126, 0.992, 33.24, 1.593)" fill="#fafafa"/>
        <g id="Grupo_929686" data-name="Grupo 929686" transform="translate(14.017 24.652)">
          <line id="Línea_295" data-name="Línea 295" x2="171.113" y2="20.142" transform="translate(23.781)" fill="none" stroke="#e0e0e0" stroke-miterlimit="10" stroke-width="1"/>
          <line id="Línea_296" data-name="Línea 296" x2="171.113" y2="20.142" transform="translate(23.399 10.772)" fill="none" stroke="#e0e0e0" stroke-miterlimit="10" stroke-width="1"/>
          <line id="Línea_297" data-name="Línea 297" x2="171.113" y2="20.142" transform="translate(21.937 21.416)" fill="none" stroke="#e0e0e0" stroke-miterlimit="10" stroke-width="1"/>
          <line id="Línea_298" data-name="Línea 298" x2="171.113" y2="20.142" transform="translate(20.474 32.06)" fill="none" stroke="#e0e0e0" stroke-miterlimit="10" stroke-width="1"/>
          <line id="Línea_299" data-name="Línea 299" x2="171.113" y2="20.142" transform="translate(19.012 42.705)" fill="none" stroke="#e0e0e0" stroke-miterlimit="10" stroke-width="1"/>
          <line id="Línea_300" data-name="Línea 300" x2="171.113" y2="20.142" transform="translate(17.55 53.349)" fill="none" stroke="#e0e0e0" stroke-miterlimit="10" stroke-width="1"/>
          <line id="Línea_301" data-name="Línea 301" x2="171.113" y2="20.142" transform="translate(16.087 63.993)" fill="none" stroke="#e0e0e0" stroke-miterlimit="10" stroke-width="1"/>
          <line id="Línea_302" data-name="Línea 302" x2="171.113" y2="20.142" transform="translate(14.625 74.638)" fill="none" stroke="#e0e0e0" stroke-miterlimit="10" stroke-width="1"/>
          <line id="Línea_303" data-name="Línea 303" x2="171.113" y2="20.142" transform="translate(13.162 85.282)" fill="none" stroke="#e0e0e0" stroke-miterlimit="10" stroke-width="1"/>
          <line id="Línea_304" data-name="Línea 304" x2="171.113" y2="20.142" transform="translate(11.7 95.926)" fill="none" stroke="#e0e0e0" stroke-miterlimit="10" stroke-width="1"/>
          <line id="Línea_305" data-name="Línea 305" x2="171.113" y2="20.142" transform="translate(10.237 106.571)" fill="none" stroke="#e0e0e0" stroke-miterlimit="10" stroke-width="1"/>
          <line id="Línea_306" data-name="Línea 306" x2="171.113" y2="20.142" transform="translate(8.775 117.215)" fill="none" stroke="#e0e0e0" stroke-miterlimit="10" stroke-width="1"/>
          <line id="Línea_307" data-name="Línea 307" x2="171.113" y2="20.142" transform="translate(7.312 127.859)" fill="none" stroke="#e0e0e0" stroke-miterlimit="10" stroke-width="1"/>
          <line id="Línea_308" data-name="Línea 308" x2="171.113" y2="20.142" transform="translate(5.85 138.504)" fill="#455a64"/>
          <line id="Línea_309" data-name="Línea 309" x2="171.113" y2="20.142" transform="translate(4.387 149.148)" fill="none" stroke="#e0e0e0" stroke-miterlimit="10" stroke-width="1"/>
          <line id="Línea_310" data-name="Línea 310" x2="171.113" y2="20.142" transform="translate(2.925 159.792)" fill="none" stroke="#e0e0e0" stroke-miterlimit="10" stroke-width="1"/>
          <line id="Línea_311" data-name="Línea 311" x2="171.113" y2="20.142" transform="translate(1.462 170.437)" fill="none" stroke="#e0e0e0" stroke-miterlimit="10" stroke-width="1"/>
          <line id="Línea_312" data-name="Línea 312" x2="171.113" y2="20.142" transform="translate(0 181.081)" fill="none" stroke="#e0e0e0" stroke-miterlimit="10" stroke-width="1"/>
        </g>
        <line id="Línea_313" data-name="Línea 313" x1="29.31" y2="213.328" transform="translate(33.118 7.813)" fill="none" stroke="#eb6f2d" stroke-miterlimit="10" stroke-width="1"/>
        <g id="Grupo_929689" data-name="Grupo 929689" transform="translate(0 10.734)">
          <path id="Trazado_638874" data-name="Trazado 638874" d="M291.481,3875.564a3.475,3.475,0,0,1-3.935,2.82,3.316,3.316,0,0,1-3.047-3.642,3.475,3.475,0,0,1,3.935-2.82A3.316,3.316,0,0,1,291.481,3875.564Z" transform="translate(-241.341 -3869.626)" fill="#455a64"/>
          <path id="Trazado_638875" data-name="Trazado 638875" d="M287.5,3906.829a3.475,3.475,0,0,1-3.935,2.821,3.317,3.317,0,0,1-3.047-3.643,3.476,3.476,0,0,1,3.935-2.821A3.317,3.317,0,0,1,287.5,3906.829Z" transform="translate(-240.628 -3877.139)" fill="#455a64"/>
          <path id="Trazado_638876" data-name="Trazado 638876" d="M283.529,3938.1a3.476,3.476,0,0,1-3.935,2.821,3.318,3.318,0,0,1-3.047-3.643,3.476,3.476,0,0,1,3.935-2.821A3.317,3.317,0,0,1,283.529,3938.1Z" transform="translate(-239.915 -3884.654)" fill="#455a64"/>
          <path id="Trazado_638877" data-name="Trazado 638877" d="M279.553,3969.361a3.477,3.477,0,0,1-3.935,2.821,3.318,3.318,0,0,1-3.047-3.642,3.476,3.476,0,0,1,3.935-2.821A3.317,3.317,0,0,1,279.553,3969.361Z" transform="translate(-239.203 -3892.168)" fill="#455a64"/>
          <path id="Trazado_638878" data-name="Trazado 638878" d="M275.577,4000.626a3.476,3.476,0,0,1-3.935,2.821,3.317,3.317,0,0,1-3.047-3.643,3.476,3.476,0,0,1,3.935-2.82A3.317,3.317,0,0,1,275.577,4000.626Z" transform="translate(-238.49 -3899.681)" fill="#455a64"/>
          <path id="Trazado_638879" data-name="Trazado 638879" d="M271.6,4031.893a3.476,3.476,0,0,1-3.935,2.82,3.317,3.317,0,0,1-3.047-3.643,3.477,3.477,0,0,1,3.935-2.821A3.318,3.318,0,0,1,271.6,4031.893Z" transform="translate(-237.777 -3907.195)" fill="#455a64"/>
          <path id="Trazado_638880" data-name="Trazado 638880" d="M267.625,4063.159a3.477,3.477,0,0,1-3.935,2.821,3.318,3.318,0,0,1-3.047-3.643,3.476,3.476,0,0,1,3.935-2.821A3.317,3.317,0,0,1,267.625,4063.159Z" transform="translate(-237.064 -3914.71)" fill="#455a64"/>
          <path id="Trazado_638881" data-name="Trazado 638881" d="M263.649,4094.425a3.477,3.477,0,0,1-3.935,2.821,3.317,3.317,0,0,1-3.047-3.643,3.475,3.475,0,0,1,3.935-2.82A3.318,3.318,0,0,1,263.649,4094.425Z" transform="translate(-236.352 -3922.223)" fill="#455a64"/>
          <path id="Trazado_638882" data-name="Trazado 638882" d="M259.673,4125.689a3.476,3.476,0,0,1-3.935,2.821,3.316,3.316,0,0,1-3.047-3.643,3.476,3.476,0,0,1,3.935-2.82A3.317,3.317,0,0,1,259.673,4125.689Z" transform="translate(-235.639 -3929.736)" fill="#455a64"/>
          <g id="Grupo_929687" data-name="Grupo 929687">
            <path id="Trazado_638883" data-name="Trazado 638883" d="M270.337,3884.276c-.012.039-.145.037-.391,0a6.718,6.718,0,0,1-1.058-.263,7.818,7.818,0,0,1-1.555-.745,7.346,7.346,0,0,1-1.725-1.475,7.674,7.674,0,0,1-1.346-2.335,9.077,9.077,0,0,1-.533-2.988,6.764,6.764,0,0,1,.735-3.35,7.69,7.69,0,0,1,2.658-2.722,9.727,9.727,0,0,1,3.65-1.349,12.04,12.04,0,0,1,3.619,0,15.407,15.407,0,0,1,5.57,2.045,19.923,19.923,0,0,1,3.118,2.294c.669.607.99.986.933,1.046s-.495-.2-1.252-.691a35.785,35.785,0,0,0-3.262-1.928,15.989,15.989,0,0,0-5.277-1.684,11.258,11.258,0,0,0-3.229.06,8.671,8.671,0,0,0-3.149,1.187,6.685,6.685,0,0,0-2.264,2.278,5.967,5.967,0,0,0-.666,2.818,8.573,8.573,0,0,0,.365,2.686,6.957,6.957,0,0,0,2.486,3.573,9.56,9.56,0,0,0,1.336.858c.387.216.721.333.929.454S270.349,3884.236,270.337,3884.276Z" transform="translate(-237.623 -3868.908)" fill="#ff4f5b"/>
            <path id="Trazado_638884" data-name="Trazado 638884" d="M266.361,3915.541c-.012.04-.145.037-.391,0a6.727,6.727,0,0,1-1.057-.263,7.824,7.824,0,0,1-1.554-.746,7.344,7.344,0,0,1-1.726-1.475,7.691,7.691,0,0,1-1.345-2.335,9.075,9.075,0,0,1-.533-2.988,6.756,6.756,0,0,1,.735-3.35,7.682,7.682,0,0,1,2.658-2.722,9.72,9.72,0,0,1,3.649-1.349,12.054,12.054,0,0,1,3.619,0,15.42,15.42,0,0,1,5.57,2.045,20.031,20.031,0,0,1,3.118,2.293c.669.608.99.987.932,1.047s-.494-.2-1.251-.691a35.7,35.7,0,0,0-3.263-1.928,15.989,15.989,0,0,0-5.277-1.684,11.292,11.292,0,0,0-3.229.06,8.7,8.7,0,0,0-3.149,1.186,6.7,6.7,0,0,0-2.264,2.279,5.956,5.956,0,0,0-.666,2.818,8.574,8.574,0,0,0,.366,2.686,6.962,6.962,0,0,0,2.486,3.574,9.577,9.577,0,0,0,1.336.858c.387.216.721.332.929.454S266.373,3915.5,266.361,3915.541Z" transform="translate(-236.91 -3876.422)" fill="#ff4f5b"/>
            <path id="Trazado_638885" data-name="Trazado 638885" d="M262.385,3946.807c-.013.04-.145.037-.392,0a6.637,6.637,0,0,1-1.057-.263,7.729,7.729,0,0,1-1.554-.745,7.342,7.342,0,0,1-1.726-1.475,7.689,7.689,0,0,1-1.345-2.335,9.056,9.056,0,0,1-.533-2.988,6.753,6.753,0,0,1,.735-3.35,7.681,7.681,0,0,1,2.658-2.722,9.7,9.7,0,0,1,3.649-1.349,12.038,12.038,0,0,1,3.619,0,15.389,15.389,0,0,1,5.57,2.045,19.949,19.949,0,0,1,3.118,2.294c.669.607.99.987.932,1.046s-.494-.2-1.251-.69a35.476,35.476,0,0,0-3.262-1.928,15.993,15.993,0,0,0-5.278-1.685,11.323,11.323,0,0,0-3.228.06,8.672,8.672,0,0,0-3.15,1.187,6.683,6.683,0,0,0-2.264,2.278,5.959,5.959,0,0,0-.666,2.818,8.576,8.576,0,0,0,.366,2.686,6.965,6.965,0,0,0,2.486,3.573,9.482,9.482,0,0,0,1.336.858c.387.216.721.333.929.455S262.4,3946.767,262.385,3946.807Z" transform="translate(-236.198 -3883.936)" fill="#ff4f5b"/>
            <path id="Trazado_638886" data-name="Trazado 638886" d="M258.409,3978.073c-.013.039-.145.037-.391,0a6.572,6.572,0,0,1-1.057-.263,7.8,7.8,0,0,1-1.555-.746,7.377,7.377,0,0,1-1.725-1.475,7.688,7.688,0,0,1-1.345-2.335,9.051,9.051,0,0,1-.533-2.987,6.761,6.761,0,0,1,.735-3.351,7.681,7.681,0,0,1,2.658-2.721,9.7,9.7,0,0,1,3.649-1.349,12.03,12.03,0,0,1,3.619,0,15.4,15.4,0,0,1,5.57,2.044,19.978,19.978,0,0,1,3.118,2.294c.668.606.99.986.932,1.046s-.494-.2-1.251-.691a35.894,35.894,0,0,0-3.262-1.928,15.994,15.994,0,0,0-5.278-1.684,11.235,11.235,0,0,0-3.228.06,8.679,8.679,0,0,0-3.15,1.186,6.694,6.694,0,0,0-2.264,2.278,5.96,5.96,0,0,0-.666,2.819,8.57,8.57,0,0,0,.366,2.686,6.966,6.966,0,0,0,2.486,3.574,9.547,9.547,0,0,0,1.336.858c.387.215.721.332.929.455S258.421,3978.033,258.409,3978.073Z" transform="translate(-235.485 -3891.45)" fill="#ff4f5b"/>
            <path id="Trazado_638887" data-name="Trazado 638887" d="M254.432,4009.339c-.012.039-.144.037-.391,0a6.584,6.584,0,0,1-1.057-.263,7.86,7.86,0,0,1-1.555-.745,7.374,7.374,0,0,1-1.725-1.475,7.7,7.7,0,0,1-1.345-2.335,9.039,9.039,0,0,1-.533-2.989,6.746,6.746,0,0,1,.735-3.35,7.687,7.687,0,0,1,2.658-2.722,9.719,9.719,0,0,1,3.649-1.349,12.062,12.062,0,0,1,3.62,0,15.422,15.422,0,0,1,5.57,2.045,19.963,19.963,0,0,1,3.118,2.294c.668.607.99.986.932,1.046s-.494-.2-1.251-.69a35.946,35.946,0,0,0-3.262-1.928,16,16,0,0,0-5.278-1.684,11.284,11.284,0,0,0-3.229.059,8.692,8.692,0,0,0-3.149,1.188,6.685,6.685,0,0,0-2.264,2.279,5.955,5.955,0,0,0-.666,2.817,8.571,8.571,0,0,0,.366,2.686,6.959,6.959,0,0,0,2.486,3.574,9.491,9.491,0,0,0,1.336.858c.387.216.721.333.929.454S254.445,4009.3,254.432,4009.339Z" transform="translate(-234.772 -3898.964)" fill="#ff4f5b"/>
            <path id="Trazado_638888" data-name="Trazado 638888" d="M250.456,4040.6c-.012.04-.145.037-.391,0a6.735,6.735,0,0,1-1.057-.263,7.831,7.831,0,0,1-1.555-.746,7.328,7.328,0,0,1-1.725-1.474,7.7,7.7,0,0,1-1.345-2.335,9.061,9.061,0,0,1-.533-2.988,6.757,6.757,0,0,1,.735-3.35,7.673,7.673,0,0,1,2.658-2.722,9.712,9.712,0,0,1,3.649-1.349,12.078,12.078,0,0,1,3.619,0,15.432,15.432,0,0,1,5.57,2.045,20.017,20.017,0,0,1,3.118,2.293c.668.607.99.987.932,1.046s-.494-.2-1.251-.689a35.453,35.453,0,0,0-3.263-1.928,15.994,15.994,0,0,0-5.277-1.685,11.312,11.312,0,0,0-3.229.06,8.708,8.708,0,0,0-3.149,1.186,6.692,6.692,0,0,0-2.264,2.28,5.953,5.953,0,0,0-.666,2.817,8.578,8.578,0,0,0,.366,2.687,6.964,6.964,0,0,0,2.486,3.574,9.449,9.449,0,0,0,1.336.857c.387.216.721.333.928.455S250.469,4040.565,250.456,4040.6Z" transform="translate(-234.059 -3906.477)" fill="#ff4f5b"/>
            <path id="Trazado_638889" data-name="Trazado 638889" d="M246.48,4071.87c-.012.039-.145.037-.391,0a6.609,6.609,0,0,1-1.058-.263,7.764,7.764,0,0,1-1.554-.745,7.36,7.36,0,0,1-1.725-1.475,7.686,7.686,0,0,1-1.345-2.335,9.06,9.06,0,0,1-.533-2.988,6.755,6.755,0,0,1,.735-3.35,7.669,7.669,0,0,1,2.658-2.722,9.683,9.683,0,0,1,3.649-1.35,12.022,12.022,0,0,1,3.619,0,15.39,15.39,0,0,1,5.569,2.045,19.836,19.836,0,0,1,3.118,2.293c.669.607.991.987.933,1.046s-.494-.2-1.251-.69a35.52,35.52,0,0,0-3.263-1.928,15.977,15.977,0,0,0-5.277-1.685,11.294,11.294,0,0,0-3.229.06,8.664,8.664,0,0,0-3.149,1.187,6.687,6.687,0,0,0-2.264,2.278,5.956,5.956,0,0,0-.666,2.819,8.593,8.593,0,0,0,.365,2.685,6.978,6.978,0,0,0,2.486,3.574,9.5,9.5,0,0,0,1.337.857c.387.216.721.333.928.456S246.492,4071.83,246.48,4071.87Z" transform="translate(-233.346 -3913.991)" fill="#ff4f5b"/>
            <path id="Trazado_638890" data-name="Trazado 638890" d="M242.5,4103.136c-.012.039-.145.037-.391,0a6.545,6.545,0,0,1-1.058-.263,7.789,7.789,0,0,1-1.554-.745,7.374,7.374,0,0,1-1.725-1.475,7.676,7.676,0,0,1-1.346-2.336,9.067,9.067,0,0,1-.533-2.987,6.756,6.756,0,0,1,.735-3.35,7.682,7.682,0,0,1,2.658-2.722,9.7,9.7,0,0,1,3.649-1.348,12.025,12.025,0,0,1,3.619,0,15.407,15.407,0,0,1,5.57,2.044,19.935,19.935,0,0,1,3.118,2.295c.669.606.99.986.933,1.046s-.494-.2-1.251-.691a35.811,35.811,0,0,0-3.263-1.928,15.977,15.977,0,0,0-5.277-1.685,11.259,11.259,0,0,0-3.229.06,8.664,8.664,0,0,0-3.149,1.187,6.683,6.683,0,0,0-2.264,2.278,5.959,5.959,0,0,0-.666,2.819,8.586,8.586,0,0,0,.365,2.685,6.973,6.973,0,0,0,2.486,3.574,9.528,9.528,0,0,0,1.337.859c.387.215.72.332.928.455S242.516,4103.1,242.5,4103.136Z" transform="translate(-232.634 -3921.505)" fill="#ff4f5b"/>
            <path id="Trazado_638891" data-name="Trazado 638891" d="M238.528,4134.4c-.012.039-.145.037-.391,0a6.576,6.576,0,0,1-1.058-.263,7.839,7.839,0,0,1-1.554-.745,7.364,7.364,0,0,1-1.725-1.476,7.687,7.687,0,0,1-1.346-2.335,9.08,9.08,0,0,1-.533-2.989,6.763,6.763,0,0,1,.735-3.35,7.69,7.69,0,0,1,2.658-2.722,9.707,9.707,0,0,1,3.65-1.349,12.057,12.057,0,0,1,3.619,0,15.407,15.407,0,0,1,5.57,2.045,19.842,19.842,0,0,1,3.118,2.294c.669.607.99.986.933,1.046s-.494-.2-1.251-.69a35.873,35.873,0,0,0-3.263-1.929,15.989,15.989,0,0,0-5.277-1.684,11.294,11.294,0,0,0-3.229.06,8.677,8.677,0,0,0-3.149,1.187,6.7,6.7,0,0,0-2.264,2.278,5.964,5.964,0,0,0-.666,2.818,8.6,8.6,0,0,0,.365,2.686,6.967,6.967,0,0,0,2.486,3.574,9.545,9.545,0,0,0,1.336.857c.388.216.721.333.929.455S238.54,4134.362,238.528,4134.4Z" transform="translate(-231.921 -3929.019)" fill="#ff4f5b"/>
          </g>
          <g id="Grupo_929688" data-name="Grupo 929688" opacity="0.2">
            <path id="Trazado_638892" data-name="Trazado 638892" d="M270.337,3884.276c-.012.039-.145.037-.391,0a6.718,6.718,0,0,1-1.058-.263,7.818,7.818,0,0,1-1.555-.745,7.346,7.346,0,0,1-1.725-1.475,7.674,7.674,0,0,1-1.346-2.335,9.077,9.077,0,0,1-.533-2.988,6.764,6.764,0,0,1,.735-3.35,7.69,7.69,0,0,1,2.658-2.722,9.727,9.727,0,0,1,3.65-1.349,12.04,12.04,0,0,1,3.619,0,15.407,15.407,0,0,1,5.57,2.045,19.923,19.923,0,0,1,3.118,2.294c.669.607.99.986.933,1.046s-.495-.2-1.252-.691a35.785,35.785,0,0,0-3.262-1.928,15.989,15.989,0,0,0-5.277-1.684,11.258,11.258,0,0,0-3.229.06,8.671,8.671,0,0,0-3.149,1.187,6.685,6.685,0,0,0-2.264,2.278,5.967,5.967,0,0,0-.666,2.818,8.573,8.573,0,0,0,.365,2.686,6.957,6.957,0,0,0,2.486,3.573,9.56,9.56,0,0,0,1.336.858c.387.216.721.333.929.454S270.349,3884.236,270.337,3884.276Z" transform="translate(-237.623 -3868.908)"/>
            <path id="Trazado_638893" data-name="Trazado 638893" d="M266.361,3915.541c-.012.04-.145.037-.391,0a6.727,6.727,0,0,1-1.057-.263,7.824,7.824,0,0,1-1.554-.746,7.344,7.344,0,0,1-1.726-1.475,7.691,7.691,0,0,1-1.345-2.335,9.075,9.075,0,0,1-.533-2.988,6.756,6.756,0,0,1,.735-3.35,7.682,7.682,0,0,1,2.658-2.722,9.72,9.72,0,0,1,3.649-1.349,12.054,12.054,0,0,1,3.619,0,15.42,15.42,0,0,1,5.57,2.045,20.031,20.031,0,0,1,3.118,2.293c.669.608.99.987.932,1.047s-.494-.2-1.251-.691a35.7,35.7,0,0,0-3.263-1.928,15.989,15.989,0,0,0-5.277-1.684,11.292,11.292,0,0,0-3.229.06,8.7,8.7,0,0,0-3.149,1.186,6.7,6.7,0,0,0-2.264,2.279,5.956,5.956,0,0,0-.666,2.818,8.574,8.574,0,0,0,.366,2.686,6.962,6.962,0,0,0,2.486,3.574,9.577,9.577,0,0,0,1.336.858c.387.216.721.332.929.454S266.373,3915.5,266.361,3915.541Z" transform="translate(-236.91 -3876.422)"/>
            <path id="Trazado_638894" data-name="Trazado 638894" d="M262.385,3946.807c-.013.04-.145.037-.392,0a6.637,6.637,0,0,1-1.057-.263,7.729,7.729,0,0,1-1.554-.745,7.342,7.342,0,0,1-1.726-1.475,7.689,7.689,0,0,1-1.345-2.335,9.056,9.056,0,0,1-.533-2.988,6.753,6.753,0,0,1,.735-3.35,7.681,7.681,0,0,1,2.658-2.722,9.7,9.7,0,0,1,3.649-1.349,12.038,12.038,0,0,1,3.619,0,15.389,15.389,0,0,1,5.57,2.045,19.949,19.949,0,0,1,3.118,2.294c.669.607.99.987.932,1.046s-.494-.2-1.251-.69a35.476,35.476,0,0,0-3.262-1.928,15.993,15.993,0,0,0-5.278-1.685,11.323,11.323,0,0,0-3.228.06,8.672,8.672,0,0,0-3.15,1.187,6.683,6.683,0,0,0-2.264,2.278,5.959,5.959,0,0,0-.666,2.818,8.576,8.576,0,0,0,.366,2.686,6.965,6.965,0,0,0,2.486,3.573,9.482,9.482,0,0,0,1.336.858c.387.216.721.333.929.455S262.4,3946.767,262.385,3946.807Z" transform="translate(-236.198 -3883.936)"/>
            <path id="Trazado_638895" data-name="Trazado 638895" d="M258.409,3978.073c-.013.039-.145.037-.391,0a6.572,6.572,0,0,1-1.057-.263,7.8,7.8,0,0,1-1.555-.746,7.377,7.377,0,0,1-1.725-1.475,7.688,7.688,0,0,1-1.345-2.335,9.051,9.051,0,0,1-.533-2.987,6.761,6.761,0,0,1,.735-3.351,7.681,7.681,0,0,1,2.658-2.721,9.7,9.7,0,0,1,3.649-1.349,12.03,12.03,0,0,1,3.619,0,15.4,15.4,0,0,1,5.57,2.044,19.978,19.978,0,0,1,3.118,2.294c.668.606.99.986.932,1.046s-.494-.2-1.251-.691a35.894,35.894,0,0,0-3.262-1.928,15.994,15.994,0,0,0-5.278-1.684,11.235,11.235,0,0,0-3.228.06,8.679,8.679,0,0,0-3.15,1.186,6.694,6.694,0,0,0-2.264,2.278,5.96,5.96,0,0,0-.666,2.819,8.57,8.57,0,0,0,.366,2.686,6.966,6.966,0,0,0,2.486,3.574,9.547,9.547,0,0,0,1.336.858c.387.215.721.332.929.455S258.421,3978.033,258.409,3978.073Z" transform="translate(-235.485 -3891.45)"/>
            <path id="Trazado_638896" data-name="Trazado 638896" d="M254.432,4009.339c-.012.039-.144.037-.391,0a6.584,6.584,0,0,1-1.057-.263,7.86,7.86,0,0,1-1.555-.745,7.374,7.374,0,0,1-1.725-1.475,7.7,7.7,0,0,1-1.345-2.335,9.039,9.039,0,0,1-.533-2.989,6.746,6.746,0,0,1,.735-3.35,7.687,7.687,0,0,1,2.658-2.722,9.719,9.719,0,0,1,3.649-1.349,12.062,12.062,0,0,1,3.62,0,15.422,15.422,0,0,1,5.57,2.045,19.963,19.963,0,0,1,3.118,2.294c.668.607.99.986.932,1.046s-.494-.2-1.251-.69a35.946,35.946,0,0,0-3.262-1.928,16,16,0,0,0-5.278-1.684,11.284,11.284,0,0,0-3.229.059,8.692,8.692,0,0,0-3.149,1.188,6.685,6.685,0,0,0-2.264,2.279,5.955,5.955,0,0,0-.666,2.817,8.571,8.571,0,0,0,.366,2.686,6.959,6.959,0,0,0,2.486,3.574,9.491,9.491,0,0,0,1.336.858c.387.216.721.333.929.454S254.445,4009.3,254.432,4009.339Z" transform="translate(-234.772 -3898.964)"/>
            <path id="Trazado_638897" data-name="Trazado 638897" d="M250.456,4040.6c-.012.04-.145.037-.391,0a6.735,6.735,0,0,1-1.057-.263,7.831,7.831,0,0,1-1.555-.746,7.328,7.328,0,0,1-1.725-1.474,7.7,7.7,0,0,1-1.345-2.335,9.061,9.061,0,0,1-.533-2.988,6.757,6.757,0,0,1,.735-3.35,7.673,7.673,0,0,1,2.658-2.722,9.712,9.712,0,0,1,3.649-1.349,12.078,12.078,0,0,1,3.619,0,15.432,15.432,0,0,1,5.57,2.045,20.017,20.017,0,0,1,3.118,2.293c.668.607.99.987.932,1.046s-.494-.2-1.251-.689a35.453,35.453,0,0,0-3.263-1.928,15.994,15.994,0,0,0-5.277-1.685,11.312,11.312,0,0,0-3.229.06,8.708,8.708,0,0,0-3.149,1.186,6.692,6.692,0,0,0-2.264,2.28,5.953,5.953,0,0,0-.666,2.817,8.578,8.578,0,0,0,.366,2.687,6.964,6.964,0,0,0,2.486,3.574,9.449,9.449,0,0,0,1.336.857c.387.216.721.333.928.455S250.469,4040.565,250.456,4040.6Z" transform="translate(-234.059 -3906.477)"/>
            <path id="Trazado_638898" data-name="Trazado 638898" d="M246.48,4071.87c-.012.039-.145.037-.391,0a6.609,6.609,0,0,1-1.058-.263,7.764,7.764,0,0,1-1.554-.745,7.36,7.36,0,0,1-1.725-1.475,7.686,7.686,0,0,1-1.345-2.335,9.06,9.06,0,0,1-.533-2.988,6.755,6.755,0,0,1,.735-3.35,7.669,7.669,0,0,1,2.658-2.722,9.683,9.683,0,0,1,3.649-1.35,12.022,12.022,0,0,1,3.619,0,15.39,15.39,0,0,1,5.569,2.045,19.836,19.836,0,0,1,3.118,2.293c.669.607.991.987.933,1.046s-.494-.2-1.251-.69a35.52,35.52,0,0,0-3.263-1.928,15.977,15.977,0,0,0-5.277-1.685,11.294,11.294,0,0,0-3.229.06,8.664,8.664,0,0,0-3.149,1.187,6.687,6.687,0,0,0-2.264,2.278,5.956,5.956,0,0,0-.666,2.819,8.593,8.593,0,0,0,.365,2.685,6.978,6.978,0,0,0,2.486,3.574,9.5,9.5,0,0,0,1.337.857c.387.216.721.333.928.456S246.492,4071.83,246.48,4071.87Z" transform="translate(-233.346 -3913.991)"/>
            <path id="Trazado_638899" data-name="Trazado 638899" d="M242.5,4103.136c-.012.039-.145.037-.391,0a6.545,6.545,0,0,1-1.058-.263,7.789,7.789,0,0,1-1.554-.745,7.374,7.374,0,0,1-1.725-1.475,7.676,7.676,0,0,1-1.346-2.336,9.067,9.067,0,0,1-.533-2.987,6.756,6.756,0,0,1,.735-3.35,7.682,7.682,0,0,1,2.658-2.722,9.7,9.7,0,0,1,3.649-1.348,12.025,12.025,0,0,1,3.619,0,15.407,15.407,0,0,1,5.57,2.044,19.935,19.935,0,0,1,3.118,2.295c.669.606.99.986.933,1.046s-.494-.2-1.251-.691a35.811,35.811,0,0,0-3.263-1.928,15.977,15.977,0,0,0-5.277-1.685,11.259,11.259,0,0,0-3.229.06,8.664,8.664,0,0,0-3.149,1.187,6.683,6.683,0,0,0-2.264,2.278,5.959,5.959,0,0,0-.666,2.819,8.586,8.586,0,0,0,.365,2.685,6.973,6.973,0,0,0,2.486,3.574,9.528,9.528,0,0,0,1.337.859c.387.215.72.332.928.455S242.516,4103.1,242.5,4103.136Z" transform="translate(-232.634 -3921.505)"/>
            <path id="Trazado_638900" data-name="Trazado 638900" d="M238.528,4134.4c-.012.039-.145.037-.391,0a6.576,6.576,0,0,1-1.058-.263,7.839,7.839,0,0,1-1.554-.745,7.364,7.364,0,0,1-1.725-1.476,7.687,7.687,0,0,1-1.346-2.335,9.08,9.08,0,0,1-.533-2.989,6.763,6.763,0,0,1,.735-3.35,7.69,7.69,0,0,1,2.658-2.722,9.707,9.707,0,0,1,3.65-1.349,12.057,12.057,0,0,1,3.619,0,15.407,15.407,0,0,1,5.57,2.045,19.842,19.842,0,0,1,3.118,2.294c.669.607.99.986.933,1.046s-.494-.2-1.251-.69a35.873,35.873,0,0,0-3.263-1.929,15.989,15.989,0,0,0-5.277-1.684,11.294,11.294,0,0,0-3.229.06,8.677,8.677,0,0,0-3.149,1.187,6.7,6.7,0,0,0-2.264,2.278,5.964,5.964,0,0,0-.666,2.818,8.6,8.6,0,0,0,.365,2.686,6.967,6.967,0,0,0,2.486,3.574,9.545,9.545,0,0,0,1.336.857c.388.216.721.333.929.455S238.54,4134.362,238.528,4134.4Z" transform="translate(-231.921 -3929.019)"/>
          </g>
        </g>
        <path id="Trazado_638957" data-name="Trazado 638957" d="M0,0,11.052.111l.186,19.944L.186,19.944Z" transform="translate(205.532 61.769) rotate(-82.753)" fill="#eb6f2d"/>
        <g id="Grupo_929690" data-name="Grupo 929690" transform="translate(67.002 44.321)">
          <path id="Trazado_638901" data-name="Trazado 638901" d="M438.039,3927.871a2.042,2.042,0,0,1-.328-.02l-.959-.1-3.681-.415-13.527-1.6-44.608-5.417-12.714-1.564c-4.106-.5-8.068-1.019-11.84-1.441a44.773,44.773,0,0,0-10.731-.105c-3.328.433-6.472,1.091-9.39.769a11.775,11.775,0,0,1-3.949-1.133c-1.16-.562-2.169-1.209-3.138-1.766a16.674,16.674,0,0,0-2.8-1.363,8.321,8.321,0,0,0-2.589-.448,4.518,4.518,0,0,0-4.232,1.923,1.637,1.637,0,0,1,.154-.269,1.675,1.675,0,0,1,.232-.31,2.393,2.393,0,0,1,.382-.385,5.256,5.256,0,0,1,3.464-1.114,8.473,8.473,0,0,1,2.658.425,16.769,16.769,0,0,1,2.851,1.353c.978.551,1.992,1.187,3.136,1.73a11.53,11.53,0,0,0,3.858,1.078c2.85.3,5.958-.365,9.308-.815a44.893,44.893,0,0,1,10.824.068c3.788.414,7.74.927,11.851,1.419l12.715,1.556,44.592,5.531,13.509,1.721,3.671.489.953.137A1.92,1.92,0,0,1,438.039,3927.871Z" transform="translate(-313.556 -3913.12)" fill="#263238"/>
        </g>
        <g id="Grupo_929691" data-name="Grupo 929691" transform="translate(70.034 56.233)">
          <path id="Trazado_638902" data-name="Trazado 638902" d="M435.233,3942.69a1.716,1.716,0,0,1-.308-.016l-.9-.086-3.442-.367-12.651-1.426-41.718-4.852-41.708-4.967-12.634-1.551-3.432-.441-.891-.125a.154.154,0,1,1,.006-.04l.9.086,3.442.368,12.65,1.425,41.724,4.854,41.7,4.967,12.634,1.551,3.432.441.891.125A1.742,1.742,0,0,1,435.233,3942.69Z" transform="translate(-317.251 -3928.8)" fill="#263238"/>
        </g>
        <g id="Grupo_929692" data-name="Grupo 929692" transform="translate(61.854 120.701)">
          <path id="Trazado_638903" data-name="Trazado 638903" d="M419.428,4026.866a1.623,1.623,0,0,1-.292-.015l-.853-.08-3.272-.348-12.026-1.351-39.653-4.61-39.644-4.724-12.008-1.477-3.262-.421-.847-.12a1.63,1.63,0,0,1-.286-.054,1.707,1.707,0,0,1,.292.014l.852.081,3.272.348,12.025,1.351,39.661,4.611,39.638,4.723,12.008,1.477,3.262.422.847.119A1.611,1.611,0,0,1,419.428,4026.866Z" transform="translate(-307.284 -4013.663)" fill="#263238"/>
        </g>
        <g id="Grupo_929693" data-name="Grupo 929693" transform="translate(58.889 142.281)">
          <path id="Trazado_638904" data-name="Trazado 638904" d="M415.815,4055.272a1.465,1.465,0,0,1-.292-.013l-.852-.081-3.272-.348-12.026-1.352-39.654-4.609-39.644-4.725-12.007-1.477-3.262-.421-.847-.12a1.552,1.552,0,0,1-.286-.054,1.585,1.585,0,0,1,.292.014l.852.08,3.272.348,12.025,1.352,39.66,4.61,39.638,4.725,12.008,1.477,3.262.422.847.119A1.608,1.608,0,0,1,415.815,4055.272Z" transform="translate(-303.672 -4042.069)" fill="#263238"/>
        </g>
        <g id="Grupo_929694" data-name="Grupo 929694" transform="translate(60.401 131.273)">
          <path id="Trazado_638905" data-name="Trazado 638905" d="M415.321,4040.508a1.562,1.562,0,0,1-.286-.013l-.835-.078-3.2-.34-11.774-1.323-38.828-4.512-38.819-4.628-11.757-1.447-3.194-.413-.829-.117a.144.144,0,1,1,.006-.04l.835.078,3.2.339,11.774,1.323,38.834,4.512,38.812,4.628,11.758,1.447,3.194.414.829.117A1.614,1.614,0,0,1,415.321,4040.508Z" transform="translate(-305.514 -4027.579)" fill="#263238"/>
        </g>
        <g id="Grupo_929695" data-name="Grupo 929695" transform="translate(57.567 151.898)">
          <path id="Trazado_638906" data-name="Trazado 638906" d="M352.422,4060.663a2.523,2.523,0,0,1-.517-.021l-1.472-.136-5.4-.573-17.812-2.038-17.8-2.154-5.387-.7-1.462-.21a2.485,2.485,0,0,1-.506-.1,2.538,2.538,0,0,1,.517.02l1.472.136,5.4.573,17.814,2.039,17.8,2.153,5.388.7,1.462.209A2.523,2.523,0,0,1,352.422,4060.663Z" transform="translate(-302.061 -4054.729)" fill="#263238"/>
        </g>
      </g>
      <g id="Grupo_929697" data-name="Grupo 929697" transform="translate(66.31 65.436)">
        <path id="Trazado_638907" data-name="Trazado 638907" d="M331.524,3943.147c-.015.108-4.238-.3-9.431-.912s-9.393-1.195-9.379-1.3,4.237.3,9.432.912S331.539,3943.039,331.524,3943.147Z" transform="translate(-312.714 -3940.915)" fill="#263238"/>
      </g>
      <g id="Grupo_929698" data-name="Grupo 929698" transform="translate(67.335 110.299)">
        <path id="Trazado_638908" data-name="Trazado 638908" d="M422.246,4011.777a1.519,1.519,0,0,1-.282-.012l-.823-.075c-.722-.077-1.788-.18-3.163-.286s-3.057-.232-5.015-.337-4.187-.21-6.652-.31c-4.931-.2-10.808-.345-17.331-.7-3.259-.183-6.682-.413-10.213-.835-3.527-.443-7.154-.982-10.881-1.491l-38.145-5.4-11.551-1.687-3.137-.479-.815-.135a1.466,1.466,0,0,1-.275-.059,1.434,1.434,0,0,1,.282.02l.821.094,3.149.406,11.572,1.563,38.163,5.287c3.725.51,7.36,1.051,10.872,1.5,3.514.426,6.93.664,10.184.856,6.511.371,12.388.542,17.32.781,2.466.118,4.7.233,6.654.369s3.642.269,5.016.4,2.438.258,3.157.361l.818.114A1.459,1.459,0,0,1,422.246,4011.777Z" transform="translate(-313.962 -3999.969)" fill="#263238"/>
      </g>
    </g>
    <g id="Grupo_929767" data-name="Grupo 929767" transform="translate(142.47 3923.779)">
      <g id="Grupo_929700" data-name="Grupo 929700" transform="translate(0)">
        <path id="Trazado_638909" data-name="Trazado 638909" d="M188.669,4065.333S289.1,3973.414,300.527,3958.85L293.652,3953,180.393,4057.252Z" transform="translate(-155.418 -3947.384)" fill="#e0e0e0"/>
        <path id="Trazado_638910" data-name="Trazado 638910" d="M152.594,4106.789c4.52.081,16.73-1.534,33.929-17.956l15.177-12.674-11.613-10.342s23.145-19.846,22.038-20.931-13.4,9.479-23.125,17.267c-8.843,7.083-38.348,32.063-39.032,41.981A2.576,2.576,0,0,0,152.594,4106.789Z" transform="translate(-149.963 -3969.448)" fill="#eb6f2d"/>
        <path id="Trazado_638911" data-name="Trazado 638911" d="M212.179,4044.886c-1.106-1.085-13.4,9.479-23.125,17.267-.766.613-1.7,1.369-2.74,2.229l11.531,10.227L182.7,4087.315c-15.575,14.933-27.068,17.661-32.439,17.985a2.682,2.682,0,0,0,2.39,1.489c4.52.081,16.73-1.534,33.93-17.956l15.177-12.674-11.613-10.342S213.286,4045.971,212.179,4044.886Z" transform="translate(-150.016 -3969.448)" opacity="0.2"/>
        <path id="Trazado_638912" data-name="Trazado 638912" d="M214.259,4044.868l79.158-73.642-3.352-2.854-79.025,73.353Z" transform="translate(-160.912 -3951.079)" fill="#263238"/>
        <path id="Trazado_638913" data-name="Trazado 638913" d="M323.112,3957.17s7.508-10.95,5.411-11.524-12.213,5.574-12.213,5.574l1.934,1.849-11.452,10.239,3.789,2.447,10.456-10.222Z" transform="translate(-178.076 -3945.608)" fill="#455a64"/>
      </g>
      <g id="Grupo_929706" data-name="Grupo 929706" transform="translate(43.461 14.335)">
        <g id="Grupo_929704" data-name="Grupo 929704" transform="translate(3.989 1.052)">
          <g id="Grupo_929703" data-name="Grupo 929703" transform="translate(13.277 5.32)">
            <g id="Grupo_929702" data-name="Grupo 929702">
              <g id="Grupo_929701" data-name="Grupo 929701">
                <path id="Trazado_638914" data-name="Trazado 638914" d="M231.111,4013.543h0c4.176.3,7.781-2.679,7.942-6.553.154-3.72.289-7.48.289-7.48s6.09-.528,6.532-6.107.24-18.458.24-18.458h0a22.45,22.45,0,0,0-21.225,1.263l-.936.587.341,30.007A7.08,7.08,0,0,0,231.111,4013.543Z" transform="translate(-223.953 -3972.866)" fill="#ffbf9d"/>
              </g>
            </g>
          </g>
          <path id="Trazado_638915" data-name="Trazado 638915" d="M229.925,3966.019a10.27,10.27,0,0,0-8.7,4.845c-1.7,2.73-2.072,5.9-2.23,8.975a157.735,157.735,0,0,0,.463,18.122,1.861,1.861,0,0,0,.419,1.277,2.75,2.75,0,0,0,1.589.553,133.808,133.808,0,0,0,33.575.047c.734-1.228-.3-2.688-1.484-3.632s-2.658-1.8-3.088-3.129c-.675-2.086,1.566-4.323.692-6.356-.657-1.528-2.828-2.28-3.591-3.772-1.282-2.507,2.025-5.538.558-7.971-.765-1.27-2.554-1.831-3.686-2.89-1-.935-1.429-2.205-2.295-3.231a9.186,9.186,0,0,0-6.018-2.719,23.841,23.841,0,0,0-6.209-.119" transform="translate(-209.768 -3965.863)" fill="#eb6f2d"/>
          <path id="Trazado_638916" data-name="Trazado 638916" d="M219.343,3974.465c-1.557.7-2.23,2.423-2.456,4.012s-.165,3.256-.879,4.717c-.762,1.559-2.351,2.749-2.77,4.417-.545,2.167,1,4.723-.395,6.536-.9,1.168-2.662,1.461-3.767,2.465-1.529,1.389-1.394,3.664-1.15,5.633l20.125-.166" transform="translate(-207.776 -3967.93)" fill="#eb6f2d"/>
        </g>
        <path id="Trazado_638917" data-name="Trazado 638917" d="M222.908,3969.107a5.872,5.872,0,0,0-3.541-4.154,6.681,6.681,0,0,0-5.7.358c-3.216,1.838-4.352,6.226-7.968,7.243-.941.265-2.1.343-2.6,1.13-.516.82.126,1.929,1.05,2.339a6.07,6.07,0,0,0,3.025.226,1.846,1.846,0,0,0-2.1,2.063,2.464,2.464,0,0,0,2.768,1.634,3.33,3.33,0,0,0,2.547-2.158q-.654,1.757-1.308,3.513c2.5.407,4.636-1.68,5.9-3.717s2.419-4.419,4.762-5.327a13.938,13.938,0,0,0,3.147-1.114c.9-.637,1.072-2.232-.007-2.541" transform="translate(-202.916 -3964.478)" fill="#eb6f2d"/>
        <g id="Grupo_929705" data-name="Grupo 929705" transform="translate(18.792 4.691)">
          <path id="Trazado_638918" data-name="Trazado 638918" d="M228.056,3970.657c.021-.036.469.168.881.779a2.915,2.915,0,0,1,.282,2.708,3.3,3.3,0,0,1-2.188,1.816,1.838,1.838,0,0,1-1.218.02c0-.067.465-.045,1.122-.285a3.269,3.269,0,0,0,1.886-1.7,2.9,2.9,0,0,0-.149-2.428C228.365,3970.982,228.008,3970.707,228.056,3970.657Z" transform="translate(-225.813 -3970.653)" fill="#263238"/>
        </g>
      </g>
      <path id="Trazado_638919" data-name="Trazado 638919" d="M255.136,4202.455l10.316,44.041,13.61-.294-6.029-47.642Z" transform="translate(-168.816 -4006.398)" fill="#ffbf9d"/>
      <path id="Trazado_638920" data-name="Trazado 638920" d="M194.745,4042.152s-.231.307-.607.859c-2.187,3.214-8.34,14.74-3.156,22.451L204,4054.873l2.2-4.758" transform="translate(-156.953 -3968.81)" fill="#ffbf9d"/>
      <path id="Trazado_638921" data-name="Trazado 638921" d="M204.193,4156.871l-4.383,75.194,13.395,3,10.042-76.6Z" transform="translate(-158.899 -3996.38)" fill="#ffbf9d"/>
      <g id="Grupo_929713" data-name="Grupo 929713" transform="translate(34.904 49.703)">
        <g id="Grupo_929708" data-name="Grupo 929708">
          <g id="Grupo_929707" data-name="Grupo 929707">
            <path id="Trazado_638922" data-name="Trazado 638922" d="M262.05,4027.263l-18.882,4.217-1.091,13.482,2.63,7.687c-.033.279,4.246,13.208,4.246,13.208l1.325,4.275-43.155.416c-.144-4.668,3.212-9.271,3.212-9.271,2.455-3.854,1.82-9.673.677-14.091-.361-1.4-.841-3.7-1.032-5.128l-.033-.246-2.47,4.021-14.984-10.01c4.865-8.687,12-17.471,12.864-18.124a18.608,18.608,0,0,1,11.119-3.773l18.631.146s14.667-1.7,23.217-3.037Z" transform="translate(-192.491 -4011.035)" fill="#455a64"/>
          </g>
        </g>
        <g id="Grupo_929709" data-name="Grupo 929709" transform="translate(9.766 1.936)">
          <path id="Trazado_638923" data-name="Trazado 638923" d="M260.823,4013.586a12.259,12.259,0,0,0-1.949,1.285c-.581.47-1.229,1.108-1.978,1.855a18.735,18.735,0,0,1-2.76,2.369,18.578,18.578,0,0,1-14.878,2.634c-1.95-.49-3.841-1.293-5.858-1.821a13.522,13.522,0,0,0-3.033-.468,12.63,12.63,0,0,0-2.959.321,29.282,29.282,0,0,0-5.3,1.956,43.7,43.7,0,0,1-4.788,1.945,15.143,15.143,0,0,1-4.5.746,14.865,14.865,0,0,1-6.4-1.357,12.451,12.451,0,0,1-1.543-.848,3.366,3.366,0,0,1-.491-.358c.028-.039.705.465,2.106,1.067a15.194,15.194,0,0,0,6.323,1.216,14.943,14.943,0,0,0,4.388-.776,44.074,44.074,0,0,0,4.731-1.961,29.3,29.3,0,0,1,5.368-2,13.03,13.03,0,0,1,3.071-.338,13.879,13.879,0,0,1,3.138.48c2.06.542,3.947,1.346,5.853,1.829a18.126,18.126,0,0,0,5.631.513,18.36,18.36,0,0,0,8.958-3,19.229,19.229,0,0,0,2.766-2.295,24.809,24.809,0,0,1,2.043-1.821,8.361,8.361,0,0,1,1.484-.937,3.992,3.992,0,0,1,.423-.184C260.768,4013.594,260.82,4013.579,260.823,4013.586Z" transform="translate(-204.39 -4013.584)" fill="#263238"/>
        </g>
        <g id="Grupo_929710" data-name="Grupo 929710" transform="translate(5.153 16.669)">
          <path id="Trazado_638924" data-name="Trazado 638924" d="M243.344,4040.926a1.675,1.675,0,0,1-.376.335,3.437,3.437,0,0,1-1.376.551,5.767,5.767,0,0,1-2.371-.113,9.925,9.925,0,0,1-2.823-1.271,24.926,24.926,0,0,0-3.192-1.8,9.876,9.876,0,0,0-4.137-.7c-3.025.087-6.17,1.266-9.387,2.552a35.089,35.089,0,0,1-4.877,1.57,13.846,13.846,0,0,1-4.818.318,10.67,10.67,0,0,1-4.1-1.411,14.379,14.379,0,0,1-2.911-2.264,25.629,25.629,0,0,1-3.223-4.1c-.335-.511-.584-.913-.751-1.187a2.088,2.088,0,0,1-.233-.429,2.287,2.287,0,0,1,.307.387l.817,1.147a28.59,28.59,0,0,0,3.3,3.987,14.4,14.4,0,0,0,2.878,2.178,10.389,10.389,0,0,0,3.964,1.328,13.56,13.56,0,0,0,4.666-.333,35.474,35.474,0,0,0,4.812-1.56c3.209-1.282,6.417-2.481,9.54-2.552a10.2,10.2,0,0,1,4.295.764,24.084,24.084,0,0,1,3.212,1.869,9.849,9.849,0,0,0,2.719,1.291,5.741,5.741,0,0,0,2.279.174A4.055,4.055,0,0,0,243.344,4040.926Z" transform="translate(-198.769 -4032.978)" fill="#263238"/>
        </g>
        <g id="Grupo_929711" data-name="Grupo 929711" transform="translate(19.593 34.958)">
          <path id="Trazado_638925" data-name="Trazado 638925" d="M247.13,4059.618c.011.009-.062.093-.213.245a4.662,4.662,0,0,1-.735.6,7.429,7.429,0,0,1-3.374,1.1,13.2,13.2,0,0,1-5.261-.659c-1.9-.6-3.842-1.555-5.949-2.348a15.249,15.249,0,0,0-6.2-1.113,14.887,14.887,0,0,0-5.033,1.124,17.275,17.275,0,0,0-4,2.471c-.011-.01.062-.094.21-.247a7.092,7.092,0,0,1,.687-.636,12.72,12.72,0,0,1,2.974-1.841,14.626,14.626,0,0,1,5.14-1.234,15.335,15.335,0,0,1,6.383,1.11c2.138.806,4.063,1.765,5.92,2.371a13.244,13.244,0,0,0,5.1.725,7.708,7.708,0,0,0,3.308-.95C246.785,4059.915,247.1,4059.587,247.13,4059.618Z" transform="translate(-216.363 -4057.052)" fill="#263238"/>
        </g>
        <g id="Grupo_929712" data-name="Grupo 929712" transform="translate(18.779 47.962)">
          <path id="Trazado_638926" data-name="Trazado 638926" d="M251.57,4076.14c-.026.033-.438-.28-1.282-.68a11.158,11.158,0,0,0-3.842-.945,18.622,18.622,0,0,0-5.878.594c-2.172.531-4.475,1.391-6.975,2.119a23.838,23.838,0,0,1-7.292,1.063,22.361,22.361,0,0,1-5.953-.9,20.177,20.177,0,0,1-3.729-1.494c-.421-.213-.73-.406-.94-.536a1.286,1.286,0,0,1-.307-.216c.021-.032.472.225,1.325.617a23.286,23.286,0,0,0,3.739,1.362,22.99,22.99,0,0,0,5.87.805,24.028,24.028,0,0,0,7.16-1.076c2.475-.72,4.794-1.575,7-2.094a18.387,18.387,0,0,1,6.005-.52,10.564,10.564,0,0,1,3.894,1.089,6.662,6.662,0,0,1,.918.575C251.481,4076.046,251.58,4076.129,251.57,4076.14Z" transform="translate(-215.371 -4074.17)" fill="#263238"/>
        </g>
      </g>
      <g id="Grupo_929716" data-name="Grupo 929716" transform="translate(41.33 107.713)">
        <path id="Trazado_638927" data-name="Trazado 638927" d="M208.593,4087.4l-8.272,87.809,20.439.112,10.1-70.373,13.185,71.011,20.451-3.494-12.533-84.327Z" transform="translate(-200.32 -4087.396)" fill="#263238"/>
        <g id="Grupo_929715" data-name="Grupo 929715" transform="translate(13.827 15.24)">
          <g id="Grupo_929714" data-name="Grupo 929714">
            <path id="Trazado_638928" data-name="Trazado 638928" d="M248.52,4107.469c.014.108-6.994.966-15.651,1.917s-15.688,1.631-15.7,1.524,6.992-.967,15.652-1.917S248.506,4107.36,248.52,4107.469Z" transform="translate(-217.168 -4107.458)" fill="#455a64"/>
          </g>
        </g>
      </g>
      <g id="Grupo_929718" data-name="Grupo 929718" transform="translate(96.636 239.686)">
        <g id="Grupo_929717" data-name="Grupo 929717">
          <path id="Trazado_638929" data-name="Trazado 638929" d="M283.173,4262.526l-.058-1.409-15.409.414.133,4.643.953.029c4.24.1,21.567.236,24.372-.572C296.292,4264.728,283.173,4262.526,283.173,4262.526Z" transform="translate(-267.705 -4261.118)" fill="#eb6f2d"/>
        </g>
      </g>
      <g id="Grupo_929720" data-name="Grupo 929720" transform="translate(96.658 240.838)" opacity="0.6">
        <g id="Grupo_929719" data-name="Grupo 929719">
          <path id="Trazado_638930" data-name="Trazado 638930" d="M273.4,4266.3a4.566,4.566,0,0,0-2.052-2.766,5.793,5.793,0,0,0-3.618-.871l.121,3.689Z" transform="translate(-267.732 -4262.635)" fill="#fff"/>
        </g>
      </g>
      <g id="Grupo_929722" data-name="Grupo 929722" transform="translate(96.769 242.365)" opacity="0.6">
        <g id="Grupo_929721" data-name="Grupo 929721">
          <path id="Trazado_638931" data-name="Trazado 638931" d="M289.618,4264.645s4.606,1.021,4.059,1.683-18.065,1.087-25.81.694l.015-.3,20.436-.347S288.726,4264.7,289.618,4264.645Z" transform="translate(-267.867 -4264.645)" fill="#fff"/>
        </g>
      </g>
      <g id="Grupo_929725" data-name="Grupo 929725" transform="translate(96.542 243.822)">
        <g id="Grupo_929724" data-name="Grupo 929724">
          <g id="Grupo_929723" data-name="Grupo 929723">
            <path id="Trazado_638932" data-name="Trazado 638932" d="M267.591,4267.185a1.58,1.58,0,0,0,.265.018l.758.021,2.792.035c2.357.016,5.615,0,9.21-.084s6.851-.226,9.2-.352l2.785-.168.757-.056a1.53,1.53,0,0,0,.263-.031,1.749,1.749,0,0,0-.265,0l-.758.027-2.788.116c-2.354.1-5.607.218-9.2.3s-6.849.119-9.205.131l-2.791.015-.759.009A1.954,1.954,0,0,0,267.591,4267.185Z" transform="translate(-267.591 -4266.563)" fill="#263238"/>
          </g>
        </g>
      </g>
      <g id="Grupo_929728" data-name="Grupo 929728" transform="translate(117.19 242.2)">
        <g id="Grupo_929727" data-name="Grupo 929727">
          <g id="Grupo_929726" data-name="Grupo 929726">
            <path id="Trazado_638933" data-name="Trazado 638933" d="M292.781,4266.531a4.907,4.907,0,0,1,.483-1.157,5.748,5.748,0,0,1,.921-.942,2.023,2.023,0,0,0-1.082.862A1.566,1.566,0,0,0,292.781,4266.531Z" transform="translate(-292.749 -4264.428)" fill="#263238"/>
          </g>
        </g>
      </g>
      <g id="Grupo_929731" data-name="Grupo 929731" transform="translate(112.622 241.317)">
        <g id="Grupo_929730" data-name="Grupo 929730">
          <g id="Grupo_929729" data-name="Grupo 929729">
            <path id="Trazado_638934" data-name="Trazado 638934" d="M287.191,4264.386c.044.022.254-.209.468-.519s.351-.578.307-.6-.254.209-.467.519S287.148,4264.363,287.191,4264.386Z" transform="translate(-287.183 -4263.266)" fill="#263238"/>
          </g>
        </g>
      </g>
      <g id="Grupo_929734" data-name="Grupo 929734" transform="translate(111.365 241.135)">
        <g id="Grupo_929733" data-name="Grupo 929733">
          <g id="Grupo_929732" data-name="Grupo 929732">
            <path id="Trazado_638935" data-name="Trazado 638935" d="M285.656,4263.794c.036.032.273-.113.531-.324s.438-.407.4-.438-.273.112-.53.323S285.621,4263.762,285.656,4263.794Z" transform="translate(-285.652 -4263.026)" fill="#263238"/>
          </g>
        </g>
      </g>
      <g id="Grupo_929737" data-name="Grupo 929737" transform="translate(110.544 240.583)">
        <g id="Grupo_929736" data-name="Grupo 929736">
          <g id="Grupo_929735" data-name="Grupo 929735">
            <path id="Trazado_638936" data-name="Trazado 638936" d="M284.651,4262.392a4.039,4.039,0,0,0,1.6-.024,2.107,2.107,0,0,0-.8-.067A2.069,2.069,0,0,0,284.651,4262.392Z" transform="translate(-284.651 -4262.3)" fill="#263238"/>
          </g>
        </g>
      </g>
      <g id="Grupo_929740" data-name="Grupo 929740" transform="translate(110.245 239.788)">
        <g id="Grupo_929739" data-name="Grupo 929739">
          <g id="Grupo_929738" data-name="Grupo 929738">
            <path id="Trazado_638937" data-name="Trazado 638937" d="M284.287,4261.269a1.737,1.737,0,0,0,.9.2,1.8,1.8,0,0,0,.919-.128,94.05,94.05,0,0,1-1.82-.074Z" transform="translate(-284.286 -4261.254)" fill="#263238"/>
          </g>
        </g>
      </g>
      <g id="Grupo_929743" data-name="Grupo 929743" transform="translate(113.113 240.038)">
        <g id="Grupo_929742" data-name="Grupo 929742">
          <g id="Grupo_929741" data-name="Grupo 929741">
            <path id="Trazado_638938" data-name="Trazado 638938" d="M287.781,4262.817a3.3,3.3,0,0,0,.986-.029,6.524,6.524,0,0,0,1.043-.225,3.117,3.117,0,0,0,.594-.228.474.474,0,0,0,.235-.27.315.315,0,0,0-.16-.335,1.982,1.982,0,0,0-2.221.509,1.419,1.419,0,0,0-.3.575c-.035.146-.03.228-.018.229a2.278,2.278,0,0,1,.425-.735,1.815,1.815,0,0,1,.826-.491,1.77,1.77,0,0,1,1.178.04c.159.1.1.257-.067.351a3.163,3.163,0,0,1-.547.216,7.7,7.7,0,0,1-1.008.253C288.156,4262.781,287.78,4262.791,287.781,4262.817Z" transform="translate(-287.781 -4261.583)" fill="#263238"/>
          </g>
        </g>
      </g>
      <g id="Grupo_929746" data-name="Grupo 929746" transform="translate(112.04 239.69)">
        <g id="Grupo_929745" data-name="Grupo 929745">
          <g id="Grupo_929744" data-name="Grupo 929744">
            <path id="Trazado_638939" data-name="Trazado 638939" d="M287.8,4262.742a.737.737,0,0,0,.094-.591,1.291,1.291,0,0,0-.29-.613,1.02,1.02,0,0,0-.835-.412.337.337,0,0,0-.291.4.849.849,0,0,0,.18.375,2.722,2.722,0,0,0,.483.5,1.472,1.472,0,0,0,.575.33c.016-.022-.2-.148-.483-.41a3.089,3.089,0,0,1-.429-.5c-.141-.176-.245-.5,0-.54a.913.913,0,0,1,.662.344,1.313,1.313,0,0,1,.3.544A2.632,2.632,0,0,1,287.8,4262.742Z" transform="translate(-286.474 -4261.124)" fill="#263238"/>
          </g>
        </g>
      </g>
      <g id="Grupo_929749" data-name="Grupo 929749" transform="translate(96.737 240.714)">
        <g id="Grupo_929748" data-name="Grupo 929748">
          <g id="Grupo_929747" data-name="Grupo 929747">
            <path id="Trazado_638940" data-name="Trazado 638940" d="M267.828,4262.581c0,.029.438-.047,1.134.007a5.477,5.477,0,0,1,2.5.816,4.384,4.384,0,0,1,1.607,1.841c.253.561.288.94.323.936a.651.651,0,0,0-.008-.267,3.106,3.106,0,0,0-.19-.708,4.158,4.158,0,0,0-1.619-1.93,5.261,5.261,0,0,0-2.6-.8,4.653,4.653,0,0,0-.843.04A1.015,1.015,0,0,0,267.828,4262.581Z" transform="translate(-267.828 -4262.472)" fill="#263238"/>
          </g>
        </g>
      </g>
      <g id="Grupo_929752" data-name="Grupo 929752" transform="translate(104.216 243.078)">
        <g id="Grupo_929751" data-name="Grupo 929751">
          <g id="Grupo_929750" data-name="Grupo 929750">
            <path id="Trazado_638941" data-name="Trazado 638941" d="M276.941,4265.671a14.631,14.631,0,0,0,4.485-.072c-.007-.047-1.007.031-2.242.048S276.945,4265.625,276.941,4265.671Z" transform="translate(-276.941 -4265.584)" fill="#263238"/>
          </g>
        </g>
      </g>
      <g id="Grupo_929755" data-name="Grupo 929755" transform="translate(101.203 243.229)">
        <g id="Grupo_929754" data-name="Grupo 929754">
          <g id="Grupo_929753" data-name="Grupo 929753">
            <path id="Trazado_638942" data-name="Trazado 638942" d="M273.276,4265.789c-.036.032.089.181.2.375s.171.369.223.365.072-.21-.056-.435S273.308,4265.756,273.276,4265.789Z" transform="translate(-273.269 -4265.783)" fill="#263238"/>
          </g>
        </g>
      </g>
      <g id="Grupo_929758" data-name="Grupo 929758" transform="translate(100.029 242.042)">
        <g id="Grupo_929757" data-name="Grupo 929757">
          <g id="Grupo_929756" data-name="Grupo 929756">
            <path id="Trazado_638943" data-name="Trazado 638943" d="M271.846,4264.227c-.035.032.068.167.231.3s.324.217.359.185-.067-.167-.231-.3S271.882,4264.195,271.846,4264.227Z" transform="translate(-271.84 -4264.22)" fill="#263238"/>
          </g>
        </g>
      </g>
      <g id="Grupo_929761" data-name="Grupo 929761" transform="translate(98.395 241.452)">
        <g id="Grupo_929760" data-name="Grupo 929760">
          <g id="Grupo_929759" data-name="Grupo 929759">
            <path id="Trazado_638944" data-name="Trazado 638944" d="M269.85,4263.525c.012.043.217.038.444.1s.393.162.433.13-.1-.209-.378-.284S269.833,4263.485,269.85,4263.525Z" transform="translate(-269.849 -4263.443)" fill="#263238"/>
          </g>
        </g>
      </g>
      <g id="Grupo_929764" data-name="Grupo 929764" transform="translate(97.232 241.268)">
        <g id="Grupo_929763" data-name="Grupo 929763">
          <g id="Grupo_929762" data-name="Grupo 929762">
            <path id="Trazado_638945" data-name="Trazado 638945" d="M268.434,4263.233c-.017.041.073.108.2.147s.247.037.264,0-.073-.106-.2-.146S268.451,4263.192,268.434,4263.233Z" transform="translate(-268.431 -4263.201)" fill="#263238"/>
          </g>
        </g>
      </g>
      <path id="Trazado_638946" data-name="Trazado 638946" d="M198.827,4255l-2.281,9.289H211.96l.66-6.047Z" transform="translate(-158.313 -4019.963)" fill="#eb6f2d"/>
      <g id="Grupo_929765" data-name="Grupo 929765" transform="translate(38.65 242.513)">
        <path id="Trazado_638947" data-name="Trazado 638947" d="M212.367,4265.308a11.713,11.713,0,0,1-2.246.119c-1.388.015-3.3-.021-5.417-.091-2.038-.082-3.88-.153-5.409-.213a13.675,13.675,0,0,1-2.24-.167,11.784,11.784,0,0,1,2.246-.113c1.388-.011,3.3.026,5.418.1l5.408.208A13.767,13.767,0,0,1,212.367,4265.308Z" transform="translate(-197.055 -4264.84)" fill="#263238"/>
      </g>
      <g id="Grupo_929766" data-name="Grupo 929766" transform="translate(46.908 236.852)">
        <path id="Trazado_638948" data-name="Trazado 638948" d="M207.639,4257.388a21.146,21.146,0,0,1-.436,5.988,21.22,21.22,0,0,1,.436-5.988Z" transform="translate(-207.117 -4257.388)" fill="#263238"/>
      </g>
      <path id="Trazado_638949" data-name="Trazado 638949" d="M196.546,4266.693H211.96l.147-1.349-15.284-.353-.278,1.541" transform="translate(-158.313 -4022.363)" fill="#fff" opacity="0.6"/>
      <path id="Trazado_638950" data-name="Trazado 638950" d="M308.934,3971.9l-5.621,1.877c-.08-2.083-1.611-4.255-1.611-3.21s-.532,6.421-.532,6.421l-11.726,18.881a9.961,9.961,0,0,1-6.678,5.071l-9.617,1.907,2.7,11.767,13.4-3.064a11.094,11.094,0,0,0,7.721-6.128l11.149-24.738a37.636,37.636,0,0,0,1.878-4.9A4.6,4.6,0,0,0,308.934,3971.9Z" transform="translate(-172.045 -3951.541)" fill="#ffbf9d"/>
    </g>
  </g>
</svg>
