<svg xmlns="http://www.w3.org/2000/svg" width="158" height="159" viewBox="0 0 158 159">
  <g id="Grupo_736188" data-name="Grupo 736188" transform="translate(-0.304 0.087)">
    <rect id="Rectángulo_335070" data-name="Rectángulo 335070" width="158" height="159" transform="translate(0.304 -0.087)" fill="none"/>
    <g id="excursionismo_2_" data-name="excursionismo(2)" transform="translate(22.559 21.649)">
      <g id="Grupo_929587" data-name="Grupo 929587" transform="translate(0.551 2.904)">
        <path id="Trazado_638754" data-name="Trazado 638754" d="M2.5,422.75H115.439V442.6H2.5Z" transform="translate(-2.5 -331.428)" fill="#c7efbc"/>
        <path id="Trazado_638755" data-name="Trazado 638755" d="M2.5,482.75H115.439v6.618H2.5Z" transform="translate(-2.5 -378.193)" fill="#aae79a"/>
        <path id="Trazado_638756" data-name="Trazado 638756" d="M56.029,164.191H11.912A4.412,4.412,0,0,1,7.5,159.779v-6.618a4.412,4.412,0,0,1,4.412-4.412H56.029a4.412,4.412,0,0,1,4.412,4.412v6.618A4.412,4.412,0,0,1,56.029,164.191Z" transform="translate(-6.397 -117.868)" fill="#faef93" stroke="#fee95d" stroke-miterlimit="10" stroke-width="1"/>
        <path id="Trazado_638757" data-name="Trazado 638757" d="M72.5,347.75H96.764v36.4H72.5Z" transform="translate(-57.059 -272.972)" fill="#8ca3b7"/>
        <path id="Trazado_638758" data-name="Trazado 638758" d="M72.5,482.75H96.764v6.618H72.5Z" transform="translate(-57.059 -378.193)" fill="#6987a0"/>
        <path id="Trazado_638759" data-name="Trazado 638759" d="M219.5,176.455l44.117-69.7,20.956,33.308v36.4Z" transform="translate(-171.633 -85.133)" fill="#decba0"/>
        <path id="Trazado_638760" data-name="Trazado 638760" d="M219.5,399.368h65.072V392.75H223.688Z" transform="translate(-171.633 -308.046)" fill="#d4b981"/>
        <g id="Grupo_929585" data-name="Grupo 929585" transform="translate(67.058 62.646)">
          <path id="Trazado_638761" data-name="Trazado 638761" d="M430.912,314.808a4.412,4.412,0,0,0,4.412-4.412V297.162a4.412,4.412,0,0,0-8.823,0V310.4A4.412,4.412,0,0,0,430.912,314.808Z" transform="translate(-400.03 -292.75)" fill="#c7efbc"/>
          <path id="Trazado_638762" data-name="Trazado 638762" d="M470.912,330.4a4.412,4.412,0,0,0,4.412-4.412v-8.823a4.412,4.412,0,1,0-8.823,0v8.823A4.412,4.412,0,0,0,470.912,330.4Z" transform="translate(-431.206 -308.338)" fill="#c7efbc"/>
          <path id="Trazado_638763" data-name="Trazado 638763" d="M390.912,345.985a4.412,4.412,0,0,0,4.412-4.412v-4.412a4.412,4.412,0,0,0-8.823,0v4.412A4.412,4.412,0,0,0,390.912,345.985Z" transform="translate(-368.853 -323.927)" fill="#c7efbc"/>
          <path id="Trazado_638764" data-name="Trazado 638764" d="M350.912,330.4a4.412,4.412,0,0,0,4.412-4.412v-8.823a4.412,4.412,0,1,0-8.823,0v8.823A4.412,4.412,0,0,0,350.912,330.4Z" transform="translate(-337.677 -308.338)" fill="#c7efbc"/>
          <path id="Trazado_638765" data-name="Trazado 638765" d="M310.912,353.779a4.412,4.412,0,0,0,4.412-4.412v-2.206a4.412,4.412,0,0,0-8.823,0v2.206A4.412,4.412,0,0,0,310.912,353.779Z" transform="translate(-306.5 -331.721)" fill="#c7efbc"/>
        </g>
        <g id="Grupo_929586" data-name="Grupo 929586" transform="translate(75.881 73.675)">
          <path id="Trazado_638766" data-name="Trazado 638766" d="M470.912,347.162a4.412,4.412,0,0,0,4.412-4.412v6.618a4.412,4.412,0,0,1-8.823,0V342.75A4.412,4.412,0,0,0,470.912,347.162Z" transform="translate(-440.03 -342.75)" fill="#aae79a"/>
          <path id="Trazado_638767" data-name="Trazado 638767" d="M430.912,347.162a4.412,4.412,0,0,0,4.412-4.412v6.618a4.412,4.412,0,0,1-8.823,0V342.75A4.412,4.412,0,0,0,430.912,347.162Z" transform="translate(-408.853 -342.75)" fill="#aae79a"/>
          <path id="Trazado_638768" data-name="Trazado 638768" d="M350.912,347.162a4.412,4.412,0,0,0,4.412-4.412v6.618a4.412,4.412,0,1,1-8.823,0V342.75A4.412,4.412,0,0,0,350.912,347.162Z" transform="translate(-346.5 -342.75)" fill="#aae79a"/>
        </g>
        <path id="Trazado_638769" data-name="Trazado 638769" d="M221.866,15.888a6.342,6.342,0,0,1,3.211.869,7.59,7.59,0,0,1,6.282-3.322,7.692,7.692,0,0,1,1.009.069,9.936,9.936,0,1,1,8.484,15.1H221.866a6.357,6.357,0,1,1,0-12.714Z" transform="translate(-168.516 -8.75)" fill="#dcf0fb"/>
        <path id="Trazado_638770" data-name="Trazado 638770" d="M240.853,45.368H221.866a6.364,6.364,0,0,1-5.437-3.048,6.356,6.356,0,0,0,5.437,9.666h18.987a9.926,9.926,0,0,0,9.372-13.235A9.942,9.942,0,0,1,240.853,45.368Z" transform="translate(-168.516 -32.132)" fill="#b9e0f7"/>
        <path id="Trazado_638771" data-name="Trazado 638771" d="M286.279,442.6c0-3.529,5.021-4.275,12.353-7.941a29,29,0,0,0,12.132-11.912H297.088s-.726,3.551-11.912,7.279c-9.926,3.309-13.676,9.485-13.676,12.573Z" transform="translate(-212.163 -331.428)" fill="#faef93" stroke="#fee95d" stroke-miterlimit="10" stroke-width="1"/>
        <path id="Trazado_638772" data-name="Trazado 638772" d="M295.83,482.75H275.015c-2.462,2.482-3.514,4.983-3.514,6.618H286.28C286.28,486.309,290.052,485.34,295.83,482.75Z" transform="translate(-212.164 -378.193)" fill="#ffc277"/>
        <path id="Trazado_638773" data-name="Trazado 638773" d="M30.5,336.75v2.206a6.617,6.617,0,0,0,6.618,6.618h2.647V336.75Z" transform="translate(-24.324 -264.398)" fill="#ffe4c2"/>
        <path id="Trazado_638774" data-name="Trazado 638774" d="M68.917,171.13,56.75,166.75H47.044l-12.168,4.38a6.618,6.618,0,0,0-4.376,6.226v26.893h9.265v2.426H64.029v-2.426h9.265V177.357a6.618,6.618,0,0,0-4.376-6.226Z" transform="translate(-24.324 -131.898)" fill="#dcf0fb"/>
        <path id="Trazado_638775" data-name="Trazado 638775" d="M64.029,309.176H39.765V306.75H30.5v6.617h9.265v2.426H64.029v-2.426h9.265V306.75H64.029Z" transform="translate(-24.324 -241.016)" fill="#b9e0f7"/>
        <path id="Trazado_638776" data-name="Trazado 638776" d="M87.5,110.044v1.324a8.823,8.823,0,0,0,17.647,0V104.75H93.9Z" transform="translate(-68.75 -83.574)" fill="#ffe4c2"/>
        <path id="Trazado_638777" data-name="Trazado 638777" d="M96.323,64.75A8.823,8.823,0,0,0,87.5,73.573v5.294l6.4-5.294h11.25A8.823,8.823,0,0,0,96.323,64.75Z" transform="translate(-68.75 -52.397)" fill="#57758d"/>
        <path id="Trazado_638778" data-name="Trazado 638778" d="M182.5,345.573h2.647a6.617,6.617,0,0,0,6.618-6.618V336.75H182.5Z" transform="translate(-142.795 -264.398)" fill="#ffe4c2"/>
      </g>
      <g id="Grupo_929588" data-name="Grupo 929588" transform="translate(26.47 14.485)">
        <path id="Trazado_638779" data-name="Trazado 638779" d="M120,249.75h3.309v3.309H120Z" transform="translate(-120 -208.17)" fill="#fff"/>
        <path id="Trazado_638780" data-name="Trazado 638780" d="M302.426,64.559h-3.309V61.25h3.309Zm-6.618,0H292.5V61.25h3.309Z" transform="translate(-254.449 -61.25)" fill="#fff"/>
        <path id="Trazado_638781" data-name="Trazado 638781" d="M398.5,219.25h3.309v3.309H398.5Z" transform="translate(-337.067 -184.398)" fill="#fff"/>
      </g>
      <g id="Grupo_929589" data-name="Grupo 929589" transform="translate(0 1.25)">
        <path id="Trazado_638782" data-name="Trazado 638782" d="M65,485.75h3.309v5.956H65Z" transform="translate(-50.662 -378.877)"/>
        <path id="Trazado_638783" data-name="Trazado 638783" d="M120,400.75h3.309v24.705H120Z" transform="translate(-93.53 -312.626)"/>
        <path id="Trazado_638784" data-name="Trazado 638784" d="M120,219.75h3.309v3.309H120Z" transform="translate(-93.53 -171.552)"/>
        <path id="Trazado_638785" data-name="Trazado 638785" d="M5.073,94.446v9.61H8.382V92.011a4.976,4.976,0,0,1,3.282-4.67l11.1-4a10.405,10.405,0,0,0,3.7,1.347v5.1h3.309v-5.1a10.405,10.405,0,0,0,3.7-1.347l11.1,4a4.976,4.976,0,0,1,3.282,4.67v12.046h3.309v-9.61a6.075,6.075,0,0,0,5.073-5.984V81.845a6.073,6.073,0,0,0-6.066-6.066H38.5a10.529,10.529,0,0,0,.1-1.434V67.728a10.478,10.478,0,1,0-20.956,0v6.618a10.53,10.53,0,0,0,.1,1.434H6.066A6.073,6.073,0,0,0,0,81.845v6.618A6.075,6.075,0,0,0,5.073,94.446ZM37.463,79.088h12.72a2.76,2.76,0,0,1,2.757,2.757v6.618a2.76,2.76,0,0,1-1.821,2.59,8.3,8.3,0,0,0-5.414-6.825l-9.377-3.376A10.514,10.514,0,0,0,37.463,79.088ZM20.956,67.728A7.168,7.168,0,0,1,35.1,66.073h-10l-4.147,3.432Zm0,6.072,5.338-4.418h9v4.963a7.169,7.169,0,1,1-14.338,0ZM3.309,81.845a2.76,2.76,0,0,1,2.757-2.757h12.72a10.477,10.477,0,0,0,1.135,1.764l-9.377,3.376A8.3,8.3,0,0,0,5.13,91.053a2.759,2.759,0,0,1-1.821-2.59Z" transform="translate(0 -44.897)"/>
        <path id="Trazado_638786" data-name="Trazado 638786" d="M110.917,163.847v-3.54a6.076,6.076,0,0,0,4.412-5.835v-8.823a6.063,6.063,0,0,0-8.9-5.362,6.066,6.066,0,0,0-12.057.95v3.423a6.046,6.046,0,0,0-5.59.038,6.066,6.066,0,0,0-12.057.95v1.217a6.062,6.062,0,0,0-8.823,5.4v2.206a6.076,6.076,0,0,0,4.412,5.835v3.54H53.372l21.081-33.308h8.119V127.23H76.547l2.094-3.309h7.9v-3.309H80.736L94.48,98.9l6.359,10.109,2.8-1.762L94.488,92.7l-45.032,71.15h-5.6v-6.838h.993a8.281,8.281,0,0,0,8.272-8.272V134.993H49.815v9.884H43.86V123.149H40.551V147.3H19.6V123.149H16.287v21.728H10.331v-9.884H7.022v13.744a8.281,8.281,0,0,0,8.272,8.272h.993v6.838H2.5v3.309H16.287v8.934H19.6V150.612H40.551v34.742H43.86v-18.2H83.722a33.27,33.27,0,0,1-8.732,4.055c-10.864,3.621-14.807,10.442-14.807,14.143h3.309c0-2.226,3.066-7.844,12.545-11,8.258-2.753,11.284-5.554,12.391-7.194h9.723a27.276,27.276,0,0,1-9.922,8.777c-2.026,1.013-3.876,1.8-5.508,2.494-4.5,1.916-7.76,3.3-7.76,6.927h3.309c0-1.377,1.865-2.231,5.746-3.882,1.676-.713,3.575-1.521,5.692-2.579a30.693,30.693,0,0,0,12.375-11.737h13.355v-3.309ZM43.86,148.186h5.956v.551a4.969,4.969,0,0,1-4.963,4.963H43.86ZM16.287,153.7h-.993a4.969,4.969,0,0,1-4.963-4.963v-.551h5.956Zm54.926.772v-2.206a2.757,2.757,0,1,1,5.515,0v2.206a2.757,2.757,0,0,1-5.515,0Zm9.926,9.375H75.624v-3.54a6.073,6.073,0,0,0,2.757-1.678,6.073,6.073,0,0,0,2.757,1.678Zm1.654-6.618a2.76,2.76,0,0,1-2.757-2.757v-8.823a2.757,2.757,0,1,1,5.515,0v8.823A2.76,2.76,0,0,1,82.793,157.23Zm7.169,6.618H84.447v-3.54a6.073,6.073,0,0,0,2.757-1.678,6.073,6.073,0,0,0,2.757,1.678Zm-1.1-9.375v-4.412a2.757,2.757,0,1,1,5.515,0v4.412a2.757,2.757,0,0,1-5.515,0Zm9.926,9.375H93.27v-3.54a6.073,6.073,0,0,0,2.757-1.678,6.073,6.073,0,0,0,2.757,1.678Zm1.654-6.618a2.76,2.76,0,0,1-2.757-2.757V141.237a2.757,2.757,0,1,1,5.515,0v13.235A2.76,2.76,0,0,1,100.439,157.23Zm7.169,6.618h-5.515v-3.54a6.073,6.073,0,0,0,2.757-1.678,6.073,6.073,0,0,0,2.757,1.678Zm-1.1-9.375v-8.823a2.757,2.757,0,0,1,5.515,0v8.823a2.757,2.757,0,0,1-5.515,0Z" transform="translate(-1.949 -72.525)"/>
        <path id="Trazado_638787" data-name="Trazado 638787" d="M0,0H3.309V18.612H0Z" transform="translate(100.626 39.211) rotate(-32.212)"/>
        <path id="Trazado_638788" data-name="Trazado 638788" d="M216.019,24.411h13.83V21.1h-13.83a4.7,4.7,0,1,1,2.376-8.763l1.333.779.869-1.276A5.927,5.927,0,0,1,226.3,9.3l1.066.141.562-.917A8.281,8.281,0,1,1,235.006,21.1h-1.848v3.309h1.848a11.581,11.581,0,1,0-9.317-18.475l-.176,0a9.249,9.249,0,0,0-6.76,2.934,8.013,8.013,0,1,0-2.733,15.543Z" transform="translate(-162.117 -1.25)"/>
      </g>
    </g>
  </g>
</svg>
