<svg xmlns="http://www.w3.org/2000/svg" width="158" height="159" viewBox="0 0 158 159">
  <g id="Grupo_929584" data-name="Grupo 929584" transform="translate(-0.304 0.087)">
    <rect id="Rectángulo_335070" data-name="Rectángulo 335070" width="158" height="159" transform="translate(0.304 -0.087)" fill="none"/>
    <g id="fotografo_1_" data-name="fotografo(1)" transform="translate(25.786 23.543)">
      <g id="Grupo_929614" data-name="Grupo 929614" transform="translate(11.796 2.796)">
        <g id="Grupo_929590" data-name="Grupo 929590" transform="translate(64.667 50.296)">
          <path id="Trazado_638818" data-name="Trazado 638818" d="M57.778,51.556v7.185H47V30a27.433,27.433,0,0,1,2.874,2.515c.234.234.485.485.7.736A26.737,26.737,0,0,1,57.778,51.556Z" transform="translate(-47 -30)" fill="#b4dd7f"/>
        </g>
        <g id="Grupo_929591" data-name="Grupo 929591" transform="translate(32.333 46.704)">
          <path id="Trazado_638819" data-name="Trazado 638819" d="M54.148,28V89.074H29a3.6,3.6,0,0,0,3.593-3.593V71.111a3.6,3.6,0,0,0-1.527-2.928A63.034,63.034,0,0,0,39.6,58.357c1.76-2.425,3.431-4.994,4.994-7.58C50.142,41.544,54.148,32.042,54.148,28Z" transform="translate(-29 -28)" fill="#b4dd7f"/>
        </g>
        <g id="Grupo_929592" data-name="Grupo 929592" transform="translate(25.148 44.907)">
          <path id="Trazado_638820" data-name="Trazado 638820" d="M48.262,27.269l.09-.269c.4,0,.79,0,1.186.036-1.257,4.563-4.329,11.3-8.281,18.035-1.527,2.587-3.179,5.191-4.922,7.652C32.724,57.878,28.772,62.459,25,65.3V28.545A26.655,26.655,0,0,1,33.981,27l.09.269a7.494,7.494,0,0,0,7.1,5.119,7.415,7.415,0,0,0,4.365-1.419A7.586,7.586,0,0,0,48.262,27.269Z" transform="translate(-25 -27)" fill="#b4dd7f"/>
        </g>
        <g id="Grupo_929593" data-name="Grupo 929593" transform="translate(7.185 50.296)">
          <path id="Trazado_638821" data-name="Trazado 638821" d="M25.778,30V58.741H15V51.556a26.737,26.737,0,0,1,7.2-18.3c.216-.251.467-.5.7-.736A27.433,27.433,0,0,1,25.778,30Z" transform="translate(-15 -30)" fill="#b4dd7f"/>
        </g>
        <g id="Grupo_929594" data-name="Grupo 929594" transform="translate(53.152 16.167)">
          <path id="Trazado_638822" data-name="Trazado 638822" d="M46.931,23.79a5.379,5.379,0,0,0-.072-7.688l.539-1.078A10.246,10.246,0,0,0,48.476,11H59.289a3.6,3.6,0,0,1,3.593,3.593V25.37a3.6,3.6,0,0,1-3.593,3.593H40.59a9.172,9.172,0,0,0,.736-3.593h1.8A5.376,5.376,0,0,0,46.931,23.79Z" transform="translate(-40.59 -11)" fill="#ffc729"/>
        </g>
        <g id="Grupo_929595" data-name="Grupo 929595" transform="translate(7.185 16.167)">
          <path id="Trazado_638823" data-name="Trazado 638823" d="M34.759,25.37h1.8a9.172,9.172,0,0,0,.736,3.593h-18.7A3.6,3.6,0,0,1,15,25.37V14.593A3.6,3.6,0,0,1,18.593,11H29.37v.287a9.206,9.206,0,0,0,.485,2.946l.754,2.3a5.4,5.4,0,0,0,4.149,8.838Z" transform="translate(-15 -11)" fill="#ffc729"/>
        </g>
        <g id="Grupo_929596" data-name="Grupo 929596" transform="translate(21.556)">
          <path id="Trazado_638824" data-name="Trazado 638824" d="M55.315,7.389l1.383.683a10.5,10.5,0,0,1,5.82,9.413,4.348,4.348,0,0,1-.036.683A10.247,10.247,0,0,1,61.4,22.19l-.539,1.078a5.36,5.36,0,0,0-3.736-1.509h-1.8V18.167H48.992a33.9,33.9,0,0,1-15.215-3.593,6.491,6.491,0,0,0-3.593,5.82v1.365h-1.8a5.385,5.385,0,0,0-4.149,1.94l-.754-2.3A9.207,9.207,0,0,1,23,18.454v-.287a9.018,9.018,0,0,1,2.623-6.215l.97-.97A8.954,8.954,0,0,1,35.574,2H50.106a5.221,5.221,0,0,1,5.227,5.227.5.5,0,0,1-.018.162Z" transform="translate(-23 -2)" fill="#656d78"/>
        </g>
        <g id="Grupo_929597" data-name="Grupo 929597" transform="translate(47.081 34.13)">
          <path id="Trazado_638825" data-name="Trazado 638825" d="M54.8,37.167l-7.185-3.844a26.111,26.111,0,0,0-7.8-1.509c-.4-.036-.79-.036-1.186-.036L37.21,26.119A8.907,8.907,0,0,0,43.264,21H58.388V40.4l-.018.018c-.216-.251-.467-.5-.7-.736A27.433,27.433,0,0,0,54.8,37.167Z" transform="translate(-37.21 -21)" fill="#fcd770"/>
        </g>
        <g id="Grupo_929598" data-name="Grupo 929598" transform="translate(14.37 34.13)">
          <path id="Trazado_638826" data-name="Trazado 638826" d="M29.778,33.323a27.111,27.111,0,0,0-7.185,3.844,27.432,27.432,0,0,0-2.874,2.515c-.234.234-.485.485-.7.736L19,40.4V21H34.125a8.907,8.907,0,0,0,6.054,5.119l-1.419,5.658A26.655,26.655,0,0,0,29.778,33.323Z" transform="translate(-19 -21)" fill="#fcd770"/>
        </g>
        <g id="Grupo_929599" data-name="Grupo 929599" transform="translate(57.481 46.452)">
          <path id="Trazado_638827" data-name="Trazado 638827" d="M43,27.86,50.185,31.7V89.185H43V27.86Z" transform="translate(-43 -27.86)" fill="#969faa"/>
        </g>
        <g id="Grupo_929600" data-name="Grupo 929600" transform="translate(17.963 46.452)">
          <path id="Trazado_638828" data-name="Trazado 638828" d="M28.185,64.612c-2.533,1.9-4.958,3.018-7.185,3.018V31.7a27.111,27.111,0,0,1,7.185-3.844Z" transform="translate(-21 -27.86)" fill="#969faa"/>
        </g>
        <g id="Grupo_929601" data-name="Grupo 929601" transform="translate(64.667 79.037)">
          <path id="Trazado_638829" data-name="Trazado 638829" d="M47,46H57.778V74.741H47Z" transform="translate(-47 -46)" fill="#f0d0b4"/>
        </g>
        <g id="Grupo_929602" data-name="Grupo 929602" transform="translate(7.185 79.037)">
          <path id="Trazado_638830" data-name="Trazado 638830" d="M25.778,46v7.185H15V46Z" transform="translate(-15 -46)" fill="#f0d0b4"/>
        </g>
        <g id="Grupo_929603" data-name="Grupo 929603" transform="translate(41.405 44.943)">
          <path id="Trazado_638831" data-name="Trazado 638831" d="M50.127,28.529v.251c0,4.042-4.006,13.544-9.556,22.777l-6.485-6.485-.036-.018C38,38.319,41.074,31.583,42.331,27.02A26.111,26.111,0,0,1,50.127,28.529Z" transform="translate(-34.05 -27.02)" fill="#cf9e76"/>
        </g>
        <g id="Grupo_929604" data-name="Grupo 929604" transform="translate(17.963 70.63)">
          <path id="Trazado_638832" data-name="Trazado 638832" d="M21,56.912c2.227,0,4.652-1.114,7.185-3.018,3.772-2.838,7.724-7.419,11.335-12.574h.018l6.431,6.431a63.034,63.034,0,0,1-8.532,9.826,3.459,3.459,0,0,0-2.066-.665H21Z" transform="translate(-21 -41.32)" fill="#cf9e76"/>
        </g>
        <g id="Grupo_929605" data-name="Grupo 929605" transform="translate(36.483 62.978)">
          <path id="Trazado_638833" data-name="Trazado 638833" d="M36.268,37.078l6.485,6.485c-1.563,2.587-3.233,5.155-4.994,7.58l-6.431-6.431H31.31c1.742-2.461,3.395-5.066,4.922-7.652Z" transform="translate(-31.31 -37.06)" fill="#ffeaa7"/>
        </g>
        <g id="Grupo_929606" data-name="Grupo 929606" transform="translate(25.148 86.222)">
          <path id="Trazado_638834" data-name="Trazado 638834" d="M25,50h7.185a3.459,3.459,0,0,1,2.066.665,3.6,3.6,0,0,1,1.527,2.928v14.37a3.6,3.6,0,0,1-3.593,3.593H25a3.6,3.6,0,0,0,3.593-3.593V53.593A3.6,3.6,0,0,0,25,50Z" transform="translate(-25 -50)" fill="#aab2bd"/>
        </g>
        <g id="Grupo_929607" data-name="Grupo 929607" transform="translate(7.185 86.222)">
          <path id="Trazado_638835" data-name="Trazado 638835" d="M25.778,50h7.185a3.6,3.6,0,0,1,3.593,3.593v14.37a3.6,3.6,0,0,1-3.593,3.593H18.593A3.6,3.6,0,0,1,15,67.963V64.37h7.185a7.185,7.185,0,1,0,0-14.37Z" transform="translate(-15 -50)" fill="#ccd1d9"/>
        </g>
        <g id="Grupo_929608" data-name="Grupo 929608" transform="translate(7.185 86.222)">
          <path id="Trazado_638836" data-name="Trazado 638836" d="M15,64.37A7.185,7.185,0,1,0,15,50h7.185a7.185,7.185,0,1,1,0,14.37Z" transform="translate(-15 -50)" fill="#4fc1e9"/>
        </g>
        <g id="Grupo_929609" data-name="Grupo 929609" transform="translate(0 86.222)">
          <circle id="Elipse_4927" data-name="Elipse 4927" cx="7" cy="7" r="7" transform="translate(0.241 0.352)" fill="#69d6f4"/>
        </g>
        <g id="Grupo_929610" data-name="Grupo 929610" transform="translate(53.889 19.759)">
          <path id="Trazado_638837" data-name="Trazado 638837" d="M46.533,14.509A5.39,5.39,0,0,1,42.8,23.778H41V13h1.8a5.36,5.36,0,0,1,3.736,1.509Z" transform="translate(-41 -13)" fill="#f0d0b4"/>
        </g>
        <g id="Grupo_929611" data-name="Grupo 929611" transform="translate(34.13 39.249)">
          <path id="Trazado_638838" data-name="Trazado 638838" d="M42.951,23.85l1.419,5.658-.09.269a7.586,7.586,0,0,1-2.73,3.7A7.415,7.415,0,0,1,37.185,34.9a7.494,7.494,0,0,1-7.1-5.119L30,29.508l1.419-5.658a8.681,8.681,0,0,0,2.174.269h7.185A8.681,8.681,0,0,0,42.951,23.85Z" transform="translate(-30 -23.85)" fill="#f0d0b4"/>
        </g>
        <g id="Grupo_929612" data-name="Grupo 929612" transform="translate(28.741 12.574)">
          <path id="Trazado_638839" data-name="Trazado 638839" d="M45.34,35.675a8.681,8.681,0,0,1-2.174.269H35.981a8.681,8.681,0,0,1-2.174-.269,8.907,8.907,0,0,1-6.054-5.119h-.018A9.172,9.172,0,0,1,27,26.963V14.82A6.491,6.491,0,0,1,30.593,9a33.9,33.9,0,0,0,15.215,3.593h6.341v14.37a9.172,9.172,0,0,1-.736,3.593h-.018a8.907,8.907,0,0,1-6.054,5.119Z" transform="translate(-27 -9)" fill="#f0d0b4"/>
        </g>
        <g id="Grupo_929613" data-name="Grupo 929613" transform="translate(21.556 19.759)">
          <path id="Trazado_638840" data-name="Trazado 638840" d="M30.185,13V23.778h-1.8a5.389,5.389,0,1,1,0-10.778Z" transform="translate(-23 -13)" fill="#f0d0b4"/>
        </g>
      </g>
      <g id="Grupo_929615" data-name="Grupo 929615" transform="translate(10 1)">
        <ellipse id="Elipse_4928" data-name="Elipse 4928" cx="1.5" cy="2" rx="1.5" ry="2" transform="translate(36.037 21.37)"/>
        <ellipse id="Elipse_4929" data-name="Elipse 4929" cx="1.5" cy="2" rx="1.5" ry="2" transform="translate(47.037 21.37)"/>
        <path id="Trazado_638841" data-name="Trazado 638841" d="M38.185,19.8H31v3.593h7.185A5.4,5.4,0,0,0,43.574,18H39.981A1.8,1.8,0,0,1,38.185,19.8Z" transform="translate(6.722 12.537)"/>
        <circle id="Elipse_4930" data-name="Elipse 4930" cx="2" cy="2" r="2" transform="translate(7.037 93.37)"/>
        <path id="Trazado_638842" data-name="Trazado 638842" d="M83.648,38.722a5.4,5.4,0,0,0,5.389-5.389V22.556a5.4,5.4,0,0,0-5.389-5.389H74.589a12.225,12.225,0,0,0-6.729-9.9l-.48-.239A7,7,0,0,0,60.467,1H45.926A10.79,10.79,0,0,0,35.177,11.005l-.463.463a10.638,10.638,0,0,0-2.969,5.7h-9.17a5.4,5.4,0,0,0-5.389,5.389V33.333a5.4,5.4,0,0,0,5.389,5.389h1.8V55.7a28.589,28.589,0,0,0-7.185,18.945V87.4a8.982,8.982,0,0,0,0,17.6v1.978a5.4,5.4,0,0,0,5.389,5.389H89.037V74.648A28.592,28.592,0,0,0,81.852,55.7V38.722Zm1.8-16.167V33.333a1.8,1.8,0,0,1-1.8,1.8H67.481A7.167,7.167,0,0,0,73.348,23.82l.018-.038A12.3,12.3,0,0,0,74.4,20.757h9.253a1.8,1.8,0,0,1,1.8,1.8Zm-17.963,1.8a3.593,3.593,0,0,1,0,7.185ZM37.253,14.009l1.487-1.487v-.744a7.192,7.192,0,0,1,7.185-7.185H60.467a3.423,3.423,0,0,1,1.08,6.671l-1.82.607,1.137,3.406,1.82-.607a6.99,6.99,0,0,0,4.185-3.83,8.653,8.653,0,0,1,4.205,7.437,8.746,8.746,0,0,1-.6,3.154,7.13,7.13,0,0,0-2.991-.672V17.167H59.348a32.373,32.373,0,0,1-14.413-3.4l-.8-.4-.8.4a8.238,8.238,0,0,0-4.557,6.995h-.029a7.094,7.094,0,0,0-3.224.8,7.848,7.848,0,0,1-.368-2.468,7.14,7.14,0,0,1,2.105-5.082Zm37.413,94.769H71.074V51.961a25.252,25.252,0,0,1,3.593,2.078ZM44.744,49.559a9.249,9.249,0,0,0,12.561,4.329C53.23,63.2,45.734,75.356,38.741,82.117V50.56A24.991,24.991,0,0,1,44.744,49.559Zm9.734,27.508-3.862-3.862c1.017-1.491,2-3.012,2.944-4.55l3.869,3.869q-1.417,2.309-2.951,4.543Zm-19.33,8.049a12.837,12.837,0,0,1-3.593,1.821v-32.9a25.08,25.08,0,0,1,3.593-2.078Zm-7.185,2.105H20.778V83.629h7.185Zm-1.8,3.593a5.389,5.389,0,1,1,0,10.778H26.12a8.8,8.8,0,0,0,0-10.778Zm12.051-3.593A56.158,56.158,0,0,0,48.509,76.178l3.849,3.849a60.252,60.252,0,0,1-6.513,7.5,5.322,5.322,0,0,0-1.715-.305ZM48.69,89.773c7.029-6.9,14.5-18.834,18.791-28.4v47.408H49.188a5.328,5.328,0,0,0,.331-1.8V92.611a5.329,5.329,0,0,0-.828-2.838ZM59.319,69.335l-3.867-3.867a89.791,89.791,0,0,0,7.331-15.841,24.891,24.891,0,0,1,4.595.907C66.836,54.224,63.7,61.666,59.319,69.335Zm-.9-21.732a5.661,5.661,0,0,1-10.616,0l.882-3.532c.277.02.553.041.833.041H56.7c.28,0,.557-.022.833-.041ZM56.7,40.518H49.518a7.192,7.192,0,0,1-7.185-7.185V21.183a4.681,4.681,0,0,1,1.893-3.774,36.017,36.017,0,0,0,15.121,3.35h4.541V33.333A7.192,7.192,0,0,1,56.7,40.518ZM38.741,24.352v7.185a3.593,3.593,0,1,1,0-7.185ZM20.778,33.333V22.556a1.8,1.8,0,0,1,1.8-1.8h9.1a11.134,11.134,0,0,0,.449,2.006l.49,1.469A7.147,7.147,0,0,0,38.741,35.13H22.574a1.8,1.8,0,0,1-1.8-1.8ZM40.2,38.722a10.838,10.838,0,0,0,5,4.48l-.684,2.739a28.57,28.57,0,0,0-16.553,6.325V38.722ZM27.963,57.082V80.037H20.778V74.648A25.053,25.053,0,0,1,27.963,57.082ZM13.593,96.2a5.389,5.389,0,1,1,5.389,5.389A5.4,5.4,0,0,1,13.593,96.2Zm21.556,12.574H22.574a1.8,1.8,0,0,1-1.8-1.8v-1.8h5.389A8.992,8.992,0,0,0,35.148,96.2a8.889,8.889,0,0,0-1.843-5.389h3.639a1.8,1.8,0,0,1,1.8,1.8v14.37a1.8,1.8,0,0,1-1.8,1.8Zm7.185,0H42a5.328,5.328,0,0,0,.331-1.8V92.611a5.328,5.328,0,0,0-.331-1.8H44.13a1.8,1.8,0,0,1,1.8,1.8v14.37a1.8,1.8,0,0,1-1.8,1.8Zm35.926,0V83.629h7.185v25.148Zm7.185-28.741H78.259V57.082a25.059,25.059,0,0,1,7.185,17.566ZM78.259,52.266a28.57,28.57,0,0,0-16.553-6.325L61.022,43.2a10.828,10.828,0,0,0,5-4.48H78.259Z" transform="translate(-10 -1)"/>
      </g>
    </g>
  </g>
</svg>
