<svg xmlns="http://www.w3.org/2000/svg" xmlns:xlink="http://www.w3.org/1999/xlink" width="610.69" height="309.894" viewBox="0 0 610.69 309.894">
  <defs>
    <clipPath id="clip-path">
      <path id="Trazado_633056" data-name="Trazado 633056" d="M843.749,5667.822c.124-.184.249-.365.367-.573.072-.127.138-.274.207-.409.1-.206.209-.409.307-.634.07-.16.136-.336.2-.506.089-.227.181-.453.266-.7.067-.19.129-.393.193-.592.08-.25.159-.5.234-.764.061-.214.118-.438.177-.661.071-.272.141-.547.208-.833.055-.236.108-.479.161-.725.063-.294.125-.592.184-.9.049-.254.1-.513.142-.774q.085-.477.164-.971c.042-.269.084-.54.124-.815.049-.336.1-.679.141-1.025.038-.285.074-.571.109-.861.043-.356.083-.718.121-1.083.031-.292.063-.583.091-.88.037-.379.07-.764.1-1.149.025-.3.052-.595.075-.9.03-.4.057-.8.084-1.207.021-.3.041-.6.059-.9.025-.421.046-.849.068-1.276.014-.3.031-.588.044-.885.02-.472.036-.95.053-1.427.008-.254.019-.506.026-.762.018-.586.029-1.177.04-1.769,0-.156.008-.311.01-.467.011-.738.018-1.479.02-2.22,0-.274,0-.548,0-.822,0-.477,0-.954-.006-1.43,0-.3-.008-.6-.012-.907-.007-.446-.012-.891-.021-1.334-.008-.323-.016-.641-.024-.962-.01-.418-.021-.837-.034-1.253-.011-.337-.024-.669-.037-1-.014-.394-.028-.787-.045-1.176-.015-.343-.031-.681-.048-1.02-.018-.377-.037-.753-.056-1.125-.018-.334-.038-.664-.057-.994q-.032-.556-.069-1.1c-.022-.327-.044-.649-.067-.97-.025-.354-.051-.7-.078-1.05-.024-.315-.05-.626-.075-.936-.029-.347-.059-.687-.09-1.026-.026-.3-.054-.591-.082-.88-.033-.335-.066-.661-.1-.986-.029-.279-.058-.558-.089-.83-.035-.313-.071-.615-.107-.917-.032-.269-.064-.539-.1-.8-.039-.3-.077-.577-.117-.86-.033-.241-.066-.486-.1-.72-.042-.285-.086-.553-.129-.824-.035-.214-.068-.435-.1-.64-.046-.267-.093-.512-.14-.763-.035-.184-.069-.38-.1-.557-.057-.283-.116-.54-.174-.8-.026-.119-.052-.25-.079-.364l0-.007v0a15.524,15.524,0,0,0-.544-1.848c-3.016-7.915-12.438-10.177-16.208-12.061a5.609,5.609,0,0,0-3.137.147c-.106-.241-.213-.477-.321-.711l-.118-.254c-.3-.65-.6-1.277-.909-1.872-.025-.05-.051-.1-.076-.145-.316-.611-.634-1.2-.953-1.74l-.008-.014c-.128-.217-.255-.42-.382-.626,1.561-.466,3.017-.956,4.344-1.475,6.611-2.582,10.421-5.744,12.665-8.906a17.068,17.068,0,0,0,1.278-2.1q.268-.521.49-1.038a18.044,18.044,0,0,0,.734-2.03c.2-.663.35-1.31.473-1.934.246-1.249.373-2.408.489-3.427,0-.015,0-.034,0-.048q.038-.349.064-.77c.006-.1.008-.225.013-.335.009-.206.019-.412.024-.638,0-.146,0-.305,0-.458,0-.214,0-.428,0-.66,0-.177,0-.365-.007-.551,0-.23-.008-.46-.014-.7,0-.2-.012-.406-.019-.615-.009-.252-.019-.507-.031-.77q-.014-.327-.032-.666-.021-.4-.046-.824c-.014-.241-.029-.484-.045-.732-.019-.279-.04-.564-.06-.852-.02-.261-.039-.523-.06-.791-.023-.289-.049-.584-.073-.88s-.049-.567-.075-.858-.058-.6-.088-.906-.056-.585-.087-.885c-.034-.326-.071-.658-.107-.989q-.092-.829-.194-1.68c-.041-.343-.081-.683-.124-1.029s-.088-.673-.133-1.011c-.042-.317-.083-.633-.127-.954s-.095-.667-.143-1-.093-.654-.142-.983-.105-.685-.158-1.028c-.052-.327-.1-.655-.155-.981-.055-.344-.113-.687-.171-1.031-.034-.2-.066-.4-.1-.605,0,.025.006.05.009.075-.24-1.4-.5-2.793-.776-4.177l0,0c-.031-.151-.063-.3-.094-.451q-.106-.518-.215-1.031t-.218-1.009c-.075-.341-.151-.678-.229-1.015s-.153-.658-.231-.983-.159-.658-.241-.983-.165-.653-.249-.976l-.026-.1.315.125c5.52-5.958,6.8-12.75,5.368-18.781l-.007-.03a20.879,20.879,0,0,0-.739-2.434c-2.666-7.165-9.158-12.825-16.622-13.942-3.7-.555-8.464-1.095-13.481-1.591a12.515,12.515,0,0,0-12.308-14.905h-33.7a12.467,12.467,0,0,0-12.359,14.571c-6.265.584-12.411,1.244-16.966,1.926-8.29,1.241-15.364,8.084-17.326,16.373l-.007.029c-1.418,6.032-.133,12.826,5.389,18.785l.253-.1-.009.036c-.073.283-.147.568-.218.854-.087.342-.171.683-.255,1.029-.066.276-.131.555-.2.833-.084.36-.167.719-.249,1.084-.011.052-.024.1-.036.158h0c-.485,2.194-.921,4.45-1.308,6.707,0-.025.007-.05.009-.075-.034.2-.066.4-.1.6-.057.344-.116.688-.171,1.033-.053.326-.1.65-.153.976-.055.348-.109.7-.161,1.043-.047.314-.09.625-.135.936-.05.349-.1.7-.149,1.045-.045.329-.087.653-.13.979s-.087.65-.128.969c-.062.5-.119.983-.177,1.47-.051.432-.1.856-.145,1.28-.035.317-.071.638-.1.95s-.06.6-.089.906-.06.6-.087.9-.05.566-.074.849-.051.593-.074.883c-.021.269-.04.531-.059.794-.022.289-.042.576-.061.856-.016.248-.031.49-.045.731q-.025.411-.045.807-.018.353-.034.694c-.011.254-.021.5-.029.743-.008.213-.014.423-.02.628-.007.246-.01.48-.014.712,0,.181-.006.362-.007.534,0,.24,0,.463,0,.686,0,.146,0,.3,0,.434.006.232.015.443.024.652,0,.107.008.225.014.325.018.3.039.574.068.817.629,5.556,1.613,15.278,20.473,20.912-.128.206-.255.409-.382.626l-.008.014c-.317.543-.635,1.126-.95,1.735-.026.052-.054.1-.08.151-.3.6-.608,1.223-.909,1.872l-.115.25c-.108.236-.215.473-.322.714a5.611,5.611,0,0,0-3.138-.147c-3.769,1.884-13.192,4.146-16.207,12.061a15.327,15.327,0,0,0-.544,1.848v0l0,.007c-.026.114-.053.246-.079.364-.058.258-.117.515-.174.8-.035.177-.069.373-.1.557-.047.251-.094.5-.139.763-.036.205-.069.425-.1.64-.044.271-.087.54-.13.825-.034.227-.066.468-.1.7-.04.29-.081.58-.119.882-.033.255-.064.519-.1.783-.037.305-.072.61-.108.926-.03.272-.059.551-.088.83-.035.325-.068.651-.1.986-.028.289-.055.583-.082.88-.031.34-.061.683-.09,1.031-.025.3-.05.607-.074.917q-.041.538-.08,1.086c-.023.309-.044.617-.065.93-.024.379-.048.762-.071,1.146-.019.317-.037.632-.055.953-.021.388-.04.78-.059,1.173-.015.324-.031.646-.045.974q-.025.6-.047,1.215c-.012.325-.024.649-.035.977-.013.417-.024.836-.035,1.255-.008.321-.017.641-.024.963-.009.44-.015.882-.022,1.324,0,.306-.009.61-.012.917,0,.5,0,1.008-.006,1.512,0,.244,0,.486,0,.729q0,1.122.021,2.24c0,.11.006.219.007.329.011.632.024,1.263.043,1.889.008.267.019.529.028.792.015.473.031.945.052,1.413.012.28.027.555.041.833.022.444.044.889.07,1.327.017.3.038.585.057.878.027.409.055.818.086,1.221.023.3.049.593.074.889.033.389.067.776.1,1.156.029.3.06.585.091.876.039.369.079.733.122,1.093.034.286.07.566.107.846q.069.525.142,1.036.061.412.124.811c.053.332.108.657.165.978.046.257.092.512.141.763.059.311.122.613.186.912.052.241.1.48.158.712.068.29.139.568.211.844.057.221.115.44.174.652.077.267.157.52.238.772.062.2.124.4.19.584.086.245.177.472.268.7.067.169.133.344.2.5.1.225.2.428.307.634.07.135.135.282.207.409.119.21.245.394.37.578.064.095.125.2.191.291a5.135,5.135,0,0,0,.607.682c.048.045.111.083.162.126a6.448,6.448,0,0,0,1.056.718,9.563,9.563,0,0,0,.947.456,13.994,13.994,0,0,0,1.838.612q.944.248,2.008.423a47.74,47.74,0,0,0,7.947.511c1.635-.012,3.317-.077,5-.179-.111.229-.23.5-.354.809-.035.087-.068.168-.1.259-.145.37-.293.774-.447,1.229-.032.1-.063.2-.1.3-.128.393-.258.813-.386,1.258-.044.152-.088.3-.133.455q-.22.791-.434,1.671c-.044.184-.086.372-.129.56-.117.508-.229,1.03-.336,1.571-.034.165-.068.321-.1.489,0,.023-.008.042-.013.065h0c-.25,1.337-.455,2.764-.606,4.237,0-.011,0-.021-.006-.033-.011.107-.018.217-.028.324-.024.254-.046.507-.068.764-.056.7-.1,1.412-.127,2.13-.007.2-.007.395-.01.593-.013.673-.011,1.349.009,2.027,0,.153,0,.3.01.458.032.773.1,1.545.182,2.313.022.191.04.38.065.57q.147,1.151.384,2.281c.035.166.074.33.113.494.18.781.385,1.551.638,2.3.025.075.056.147.083.223a20.708,20.708,0,0,0,.882,2.128c.048.1.09.2.14.3a17.87,17.87,0,0,0,1.2,2.021c.033.049.056.1.09.151a3.963,3.963,0,0,0-1.625.376c-1.592,1.13-3.618,6.588-4.435,11.7-1.913-.2-3.425.145-4.308,1.262-1.474,1.866-2.266,4.848-2.589,8.585l0-.024c-.009.1-.008.221-.017.324q-.092,1.161-.125,2.414c-.007.229-.014.456-.018.69-.015.993-.014,2.009.016,3.075a13.15,13.15,0,0,0,.714,3.961,12.351,12.351,0,0,0,2.27,3.948,14.787,14.787,0,0,0,2.638,2.416,18.447,18.447,0,0,0,1.715,1.1,24.6,24.6,0,0,0,4.319,1.891c4.125,1.381,9.621,2.236,16.892,2.236.675,0,1.319-.01,1.945-.026.2,0,.382-.014.574-.02.421-.015.836-.031,1.236-.053.212-.011.417-.024.622-.037.368-.025.727-.052,1.075-.082.191-.016.383-.032.567-.051.363-.036.711-.076,1.052-.118.146-.018.3-.034.438-.054.472-.064.927-.134,1.357-.211l.071-.014c.4-.073.788-.153,1.155-.237.121-.027.234-.058.352-.086.261-.064.517-.13.76-.2.124-.036.245-.073.365-.109q.336-.1.646-.214c.109-.039.218-.077.322-.117.215-.082.417-.167.613-.255.077-.033.16-.066.234-.1.261-.122.509-.249.735-.38.032-.019.058-.039.089-.057.192-.115.372-.231.54-.352.066-.048.126-.1.189-.146.121-.094.239-.188.346-.286.063-.056.122-.113.181-.17.095-.094.183-.189.266-.285.052-.059.1-.118.151-.179.081-.1.151-.207.219-.312.035-.055.074-.107.106-.162.052-.089.093-.179.137-.27a56.969,56.969,0,0,0,17.623,0c.044.091.086.181.137.27.032.055.071.107.105.161.069.106.14.211.221.314.047.06.1.117.149.177.083.1.172.191.267.285.058.058.119.114.181.171.107.1.225.191.346.285.062.049.122.1.188.146.169.12.351.239.544.354.029.018.055.037.085.054.227.131.474.258.735.381.074.036.157.069.234.1.2.088.4.172.612.255.1.04.214.078.323.117.208.073.422.145.646.214.12.037.241.074.366.109.243.069.5.135.759.2.118.029.23.059.352.086.369.085.753.165,1.158.238l.068.013c.43.077.885.147,1.358.211.141.02.292.036.436.054.341.042.69.083,1.053.118.185.019.376.035.567.051.348.03.707.057,1.076.082.205.013.41.026.621.037.4.022.814.038,1.236.053.192.006.378.015.574.02.626.016,1.27.026,1.945.026,23.269,0,28.352-8.746,28.548-15.549.031-1.065.031-2.08.016-3.072,0-.235-.011-.464-.018-.695q-.034-1.25-.124-2.408c-.009-.1-.009-.224-.018-.327l0,.023c-.323-3.736-1.114-6.718-2.589-8.585-.883-1.118-2.4-1.459-4.308-1.262-.817-5.109-2.842-10.567-4.435-11.7a3.962,3.962,0,0,0-1.624-.376c.034-.049.056-.1.089-.151a17.752,17.752,0,0,0,1.2-2.021c.051-.1.093-.2.141-.3a20.381,20.381,0,0,0,.881-2.127c.026-.075.057-.148.083-.223.254-.752.459-1.522.638-2.3.039-.164.078-.328.113-.494q.237-1.128.384-2.279c.024-.191.044-.382.065-.574.085-.768.15-1.538.183-2.311.007-.153.006-.3.01-.458q.031-1.017.008-2.027c0-.2,0-.4-.01-.593-.024-.718-.07-1.427-.127-2.13-.021-.257-.042-.51-.067-.764-.01-.107-.018-.217-.029-.324l0,.033c-.152-1.473-.357-2.9-.607-4.237h0c0-.022-.008-.042-.013-.065-.032-.167-.066-.324-.1-.489q-.161-.812-.336-1.57c-.043-.189-.086-.378-.13-.562q-.213-.878-.434-1.669c-.044-.159-.087-.305-.133-.457-.129-.445-.258-.865-.386-1.257-.033-.1-.065-.2-.1-.3-.153-.455-.3-.858-.446-1.228-.036-.091-.07-.174-.1-.26-.124-.305-.243-.579-.354-.809,1.111.066,2.222.119,3.318.148a53.429,53.429,0,0,0,9.391-.436,22.343,22.343,0,0,0,2.547-.54q.587-.166,1.116-.359a7.786,7.786,0,0,0,2.589-1.48l.01-.012a5.123,5.123,0,0,0,.6-.671C843.621,5668.029,843.684,5667.918,843.749,5667.822Z" transform="translate(-718.209 -5487.634)" fill="none"/>
    </clipPath>
  </defs>
  <g id="Grupo_932066" data-name="Grupo 932066" transform="translate(-674 -5443.926)">
    <g id="Grupo_929378" data-name="Grupo 929378" transform="translate(905.645 5726.963)" opacity="0.27" style="mix-blend-mode: multiply;isolation: isolate">
      <g id="Grupo_929375" data-name="Grupo 929375">
        <path id="Trazado_632973" data-name="Trazado 632973" d="M967.637,5788.918a307.519,307.519,0,0,0-23.894-26.857H891.1a153.289,153.289,0,0,0-9.532,26.857Z" transform="translate(-881.57 -5762.062)" fill="#3f2d0f"/>
      </g>
      <g id="Grupo_929376" data-name="Grupo 929376" transform="translate(201.868)">
        <path id="Trazado_632974" data-name="Trazado 632974" d="M1208.33,5788.918c-20.616-9.722-40.463-18.727-59.433-26.857H1096.26a343.843,343.843,0,0,0,26,26.857Z" transform="translate(-1096.26 -5762.062)" fill="#3f2d0f"/>
      </g>
      <g id="Grupo_929377" data-name="Grupo 929377" transform="translate(105.532)">
        <path id="Trazado_632975" data-name="Trazado 632975" d="M1088.077,5788.918c-14.173-9.722-28.051-18.727-41.634-26.857H993.8a146.091,146.091,0,0,0,8.206,26.857Z" transform="translate(-993.805 -5762.062)" fill="#3f2d0f"/>
      </g>
    </g>
    <g id="Grupo_929379" data-name="Grupo 929379" transform="translate(674 5454.26)">
      <path id="Trazado_632976" data-name="Trazado 632976" d="M1214.41,5604.339c-5.427-20.786-16.808-39.01-32.438-51.9-41.773-34.445-125.987-100.706-157.805-102.553-43.051-2.5-139.795,128.276-139.795,128.276s-69.773-77.188-121.646-96.193-121.485,91.88-121.485,91.88c-19.783,27.8,15.448,28.919,15.448,28.919l557.8,1.891Z" transform="translate(-635.212 -5449.852)" fill="#047831"/>
    </g>
    <g id="Grupo_929380" data-name="Grupo 929380" transform="translate(723.328 5443.926)">
      <path id="Trazado_632977" data-name="Trazado 632977" d="M1249.035,5527.129c-46.726-40.853-103.007-85.244-128.664-86.935-47.89-3.156-155.513,161.859-155.513,161.859s-77.624-97.4-135.33-121.376S694.382,5596.61,694.382,5596.61c-22.009,35.085,17.185,36.492,17.185,36.492l536.819,2.063Z" transform="translate(-687.674 -5440.149)" fill="#25974c"/>
    </g>
    <g id="Grupo_929396" data-name="Grupo 929396" transform="translate(898.743 5479.649)">
      <g id="Grupo_929381" data-name="Grupo 929381" transform="translate(4.578)">
        <path id="Trazado_632978" data-name="Trazado 632978" d="M955.577,5574.591c-.553-16-1.178-35.122-1.178-39.45,0-19.938-16.619-36.1-37.121-36.1s-37.118,16.162-37.118,36.1c0,9.929-.529,25.909-1.061,39.45Z" transform="translate(-879.098 -5499.04)" fill="#835624"/>
      </g>
      <g id="Grupo_929382" data-name="Grupo 929382" transform="translate(4.578 69.548)">
        <path id="Trazado_632979" data-name="Trazado 632979" d="M879.326,5573c-.075,2.033-.15,4.046-.228,6h76.478c-.069-1.965-.136-3.977-.205-6Z" transform="translate(-879.098 -5573.005)" fill="#ce963e"/>
      </g>
      <g id="Grupo_929383" data-name="Grupo 929383" transform="translate(0 75.551)">
        <path id="Trazado_632980" data-name="Trazado 632980" d="M955.308,5579.389H878.661s-15.7,82.187,12,171.763H943.3C971.007,5661.576,955.308,5579.389,955.308,5579.389Z" transform="translate(-874.23 -5579.389)" fill="#835624"/>
      </g>
      <g id="Grupo_929384" data-name="Grupo 929384" transform="translate(25.209 211.703)">
        <path id="Trazado_632981" data-name="Trazado 632981" d="M932.927,5736.808H904.242c-1.767,0-3.2-1.783-3.2-3.979v-4.662c0-2.2,1.435-3.978,3.2-3.978h28.685c1.77,0,3.2,1.783,3.2,3.978v4.662C936.13,5735.025,934.7,5736.808,932.927,5736.808Z" transform="translate(-901.04 -5724.189)" fill="#5e391d"/>
      </g>
      <g id="Grupo_929385" data-name="Grupo 929385" transform="translate(25.209 204.537)">
        <path id="Trazado_632982" data-name="Trazado 632982" d="M932.927,5728.005H904.242a3.423,3.423,0,0,1-3.2-3.608v-4.223a3.423,3.423,0,0,1,3.2-3.606h28.685a3.423,3.423,0,0,1,3.2,3.606v4.223A3.423,3.423,0,0,1,932.927,5728.005Z" transform="translate(-901.04 -5716.568)" fill="#5e391d"/>
      </g>
      <g id="Grupo_929386" data-name="Grupo 929386" transform="translate(25.209 208.528)">
        <path id="Trazado_632983" data-name="Trazado 632983" d="M932.927,5728.8H904.242c-1.767,0-3.2-1.127-3.2-2.518v-2.95c0-1.391,1.435-2.518,3.2-2.518h28.685c1.77,0,3.2,1.127,3.2,2.518v2.95C936.13,5727.672,934.7,5728.8,932.927,5728.8Z" transform="translate(-901.04 -5720.813)" fill="#a38156"/>
      </g>
      <g id="Grupo_929387" data-name="Grupo 929387" transform="translate(25.209 219.212)">
        <path id="Trazado_632984" data-name="Trazado 632984" d="M932.927,5740.162H904.242c-1.767,0-3.2-1.125-3.2-2.517V5734.7c0-1.393,1.435-2.521,3.2-2.521h28.685c1.77,0,3.2,1.128,3.2,2.521v2.948C936.13,5739.037,934.7,5740.162,932.927,5740.162Z" transform="translate(-901.04 -5732.176)" fill="#a38156"/>
      </g>
      <g id="Grupo_929388" data-name="Grupo 929388" transform="translate(25.209 99.979)">
        <path id="Trazado_632985" data-name="Trazado 632985" d="M926.9,5689.448l-7.006-82.876a1.312,1.312,0,0,0-2.615,0l-7,82.876s-9.234-7.85-9.234,10.618h35.09C936.13,5682.521,926.9,5689.448,926.9,5689.448Z" transform="translate(-901.04 -5605.37)" fill="#5e391d"/>
      </g>
      <g id="Grupo_929389" data-name="Grupo 929389" transform="translate(42.409 99.992)" opacity="0.34" style="mix-blend-mode: multiply;isolation: isolate">
        <path id="Trazado_632986" data-name="Trazado 632986" d="M927.99,5689.449l-7.006-82.876a1.282,1.282,0,0,0-1.652-1.145v94.639h17.891C937.223,5682.521,927.99,5689.449,927.99,5689.449Z" transform="translate(-919.332 -5605.383)" fill="#5e391d"/>
      </g>
      <g id="Grupo_929390" data-name="Grupo 929390" transform="translate(30.056 189.309)">
        <path id="Trazado_632987" data-name="Trazado 632987" d="M921.22,5701.643a4.987,4.987,0,0,1-4.654,0c-8.415-4.413-10.371,4.1-10.371,4.1h25.4S929.632,5697.23,921.22,5701.643Z" transform="translate(-906.195 -5700.374)" fill="#332000"/>
      </g>
      <g id="Grupo_929391" data-name="Grupo 929391" transform="translate(48.93 100.137)">
        <path id="Trazado_632988" data-name="Trazado 632988" d="M926.267,5614.31s13.161-19.738,29.434,0C955.7,5614.31,939.254,5630.76,926.267,5614.31Z" transform="translate(-926.267 -5605.538)" fill="#5e391d"/>
      </g>
      <g id="Grupo_929392" data-name="Grupo 929392" transform="translate(57.257 101.788)">
        <path id="Trazado_632989" data-name="Trazado 632989" d="M947.9,5613.683a6.39,6.39,0,1,1-6.389-6.39A6.388,6.388,0,0,1,947.9,5613.683Z" transform="translate(-935.123 -5607.293)" fill="#332612"/>
      </g>
      <g id="Grupo_929393" data-name="Grupo 929393" transform="translate(6.451 100.137)">
        <path id="Trazado_632990" data-name="Trazado 632990" d="M910.524,5614.31s-13.158-19.738-29.434,0C881.09,5614.31,897.54,5630.76,910.524,5614.31Z" transform="translate(-881.09 -5605.538)" fill="#5e391d"/>
      </g>
      <g id="Grupo_929394" data-name="Grupo 929394" transform="translate(14.778 101.788)">
        <path id="Trazado_632991" data-name="Trazado 632991" d="M889.946,5613.683a6.39,6.39,0,1,0,6.391-6.39A6.39,6.39,0,0,0,889.946,5613.683Z" transform="translate(-889.946 -5607.293)" fill="#332612"/>
      </g>
      <g id="Grupo_929395" data-name="Grupo 929395" transform="translate(10.737 92.719)">
        <path id="Trazado_632992" data-name="Trazado 632992" d="M949.683,5601.3H885.649l.32-.072a142.309,142.309,0,0,1,63.394,0Z" transform="translate(-885.649 -5597.648)" fill="#332612"/>
      </g>
    </g>
    <g id="Grupo_929412" data-name="Grupo 929412" transform="translate(1091.078 5479.649)">
      <g id="Grupo_929397" data-name="Grupo 929397" transform="translate(4.578)">
        <path id="Trazado_632993" data-name="Trazado 632993" d="M1160.126,5574.591c-.55-16-1.176-35.122-1.176-39.45,0-19.938-16.62-36.1-37.121-36.1s-37.12,16.162-37.12,36.1c0,9.929-.527,25.909-1.058,39.45Z" transform="translate(-1083.65 -5499.04)" fill="#835624"/>
      </g>
      <g id="Grupo_929398" data-name="Grupo 929398" transform="translate(4.578 69.548)">
        <path id="Trazado_632994" data-name="Trazado 632994" d="M1083.877,5573c-.074,2.033-.149,4.046-.227,6h76.479c-.069-1.965-.139-3.977-.208-6Z" transform="translate(-1083.65 -5573.005)" fill="#ce963e"/>
      </g>
      <g id="Grupo_929399" data-name="Grupo 929399" transform="translate(0 75.551)">
        <path id="Trazado_632995" data-name="Trazado 632995" d="M1159.857,5579.389h-76.646s-15.7,82.187,12,171.763h52.637C1175.556,5661.576,1159.857,5579.389,1159.857,5579.389Z" transform="translate(-1078.781 -5579.389)" fill="#835624"/>
      </g>
      <g id="Grupo_929400" data-name="Grupo 929400" transform="translate(25.208 211.703)">
        <path id="Trazado_632996" data-name="Trazado 632996" d="M1137.479,5736.808h-28.686c-1.769,0-3.2-1.783-3.2-3.979v-4.662c0-2.2,1.434-3.978,3.2-3.978h28.686c1.769,0,3.2,1.783,3.2,3.978v4.662C1140.681,5735.025,1139.247,5736.808,1137.479,5736.808Z" transform="translate(-1105.59 -5724.189)" fill="#5e391d"/>
      </g>
      <g id="Grupo_929401" data-name="Grupo 929401" transform="translate(25.208 204.537)">
        <path id="Trazado_632997" data-name="Trazado 632997" d="M1137.479,5728.005h-28.686a3.423,3.423,0,0,1-3.2-3.608v-4.223a3.423,3.423,0,0,1,3.2-3.606h28.686a3.423,3.423,0,0,1,3.2,3.606v4.223A3.423,3.423,0,0,1,1137.479,5728.005Z" transform="translate(-1105.59 -5716.568)" fill="#5e391d"/>
      </g>
      <g id="Grupo_929402" data-name="Grupo 929402" transform="translate(25.208 208.528)">
        <path id="Trazado_632998" data-name="Trazado 632998" d="M1137.479,5728.8h-28.686c-1.769,0-3.2-1.127-3.2-2.518v-2.95c0-1.391,1.434-2.518,3.2-2.518h28.686c1.769,0,3.2,1.127,3.2,2.518v2.95C1140.681,5727.672,1139.247,5728.8,1137.479,5728.8Z" transform="translate(-1105.59 -5720.813)" fill="#a38156"/>
      </g>
      <g id="Grupo_929403" data-name="Grupo 929403" transform="translate(25.208 219.212)">
        <path id="Trazado_632999" data-name="Trazado 632999" d="M1137.479,5740.162h-28.686c-1.769,0-3.2-1.125-3.2-2.517V5734.7c0-1.393,1.434-2.521,3.2-2.521h28.686c1.769,0,3.2,1.128,3.2,2.521v2.948C1140.681,5739.037,1139.247,5740.162,1137.479,5740.162Z" transform="translate(-1105.59 -5732.176)" fill="#a38156"/>
      </g>
      <g id="Grupo_929404" data-name="Grupo 929404" transform="translate(25.208 99.979)">
        <path id="Trazado_633000" data-name="Trazado 633000" d="M1131.447,5689.448l-7-82.876a1.312,1.312,0,0,0-2.615,0l-7,82.876s-9.235-7.85-9.235,10.618h35.091C1140.681,5682.521,1131.447,5689.448,1131.447,5689.448Z" transform="translate(-1105.59 -5605.37)" fill="#5e391d"/>
      </g>
      <g id="Grupo_929405" data-name="Grupo 929405" transform="translate(42.407 99.992)" opacity="0.34" style="mix-blend-mode: multiply;isolation: isolate">
        <path id="Trazado_633001" data-name="Trazado 633001" d="M1132.539,5689.449l-7-82.876a1.283,1.283,0,0,0-1.654-1.145v94.639h17.893C1141.774,5682.521,1132.539,5689.449,1132.539,5689.449Z" transform="translate(-1123.881 -5605.383)" fill="#5e391d"/>
      </g>
      <g id="Grupo_929406" data-name="Grupo 929406" transform="translate(30.056 189.309)">
        <path id="Trazado_633002" data-name="Trazado 633002" d="M1125.769,5701.643a4.981,4.981,0,0,1-4.651,0c-8.415-4.413-10.372,4.1-10.372,4.1h25.394S1134.184,5697.23,1125.769,5701.643Z" transform="translate(-1110.746 -5700.374)" fill="#332000"/>
      </g>
      <g id="Grupo_929407" data-name="Grupo 929407" transform="translate(48.929 100.137)">
        <path id="Trazado_633003" data-name="Trazado 633003" d="M1130.818,5614.31s13.159-19.738,29.434,0C1160.252,5614.31,1143.8,5630.76,1130.818,5614.31Z" transform="translate(-1130.818 -5605.538)" fill="#5e391d"/>
      </g>
      <g id="Grupo_929408" data-name="Grupo 929408" transform="translate(57.257 101.788)">
        <path id="Trazado_633004" data-name="Trazado 633004" d="M1152.454,5613.683a6.39,6.39,0,1,1-6.391-6.39A6.39,6.39,0,0,1,1152.454,5613.683Z" transform="translate(-1139.675 -5607.293)" fill="#332612"/>
      </g>
      <g id="Grupo_929409" data-name="Grupo 929409" transform="translate(6.45 100.137)">
        <path id="Trazado_633005" data-name="Trazado 633005" d="M1115.077,5614.31s-13.159-19.738-29.436,0C1085.641,5614.31,1102.089,5630.76,1115.077,5614.31Z" transform="translate(-1085.641 -5605.538)" fill="#5e391d"/>
      </g>
      <g id="Grupo_929410" data-name="Grupo 929410" transform="translate(14.776 101.788)">
        <path id="Trazado_633006" data-name="Trazado 633006" d="M1094.5,5613.683a6.391,6.391,0,1,0,6.391-6.39A6.39,6.39,0,0,0,1094.5,5613.683Z" transform="translate(-1094.495 -5607.293)" fill="#332612"/>
      </g>
      <g id="Grupo_929411" data-name="Grupo 929411" transform="translate(10.736 92.719)">
        <path id="Trazado_633007" data-name="Trazado 633007" d="M1154.232,5601.3H1090.2l.322-.072a142.3,142.3,0,0,1,63.392,0Z" transform="translate(-1090.199 -5597.648)" fill="#332612"/>
      </g>
    </g>
    <g id="Grupo_929424" data-name="Grupo 929424" transform="translate(994.742 5479.649)">
      <g id="Grupo_929413" data-name="Grupo 929413" transform="translate(4.578)">
        <path id="Trazado_633008" data-name="Trazado 633008" d="M1057.673,5574.591c-.551-16-1.179-35.122-1.179-39.45,0-19.938-16.619-36.1-37.118-36.1s-37.121,16.162-37.121,36.1c0,9.929-.528,25.909-1.06,39.45Z" transform="translate(-981.195 -5499.04)" fill="#835624"/>
      </g>
      <g id="Grupo_929414" data-name="Grupo 929414" transform="translate(4.578 69.548)">
        <path id="Trazado_633009" data-name="Trazado 633009" d="M981.424,5573c-.075,2.033-.152,4.046-.229,6h76.478c-.069-1.965-.137-3.976-.2-6Z" transform="translate(-981.195 -5573.005)" fill="#ce963e"/>
      </g>
      <g id="Grupo_929415" data-name="Grupo 929415" transform="translate(0 75.551)">
        <path id="Trazado_633010" data-name="Trazado 633010" d="M1057.4,5579.389H980.757s-15.7,82.187,12,171.763H1045.4C1073.1,5661.576,1057.4,5579.389,1057.4,5579.389Z" transform="translate(-976.326 -5579.389)" fill="#835624"/>
      </g>
      <g id="Grupo_929416" data-name="Grupo 929416" transform="translate(25.21 204.537)">
        <path id="Trazado_633011" data-name="Trazado 633011" d="M1035.024,5736.353h-28.683c-1.77,0-3.2-2.793-3.2-6.239v-7.307c0-3.446,1.434-6.239,3.2-6.239h28.683c1.769,0,3.2,2.793,3.2,6.239v7.307C1038.226,5733.56,1036.792,5736.353,1035.024,5736.353Z" transform="translate(-1003.137 -5716.568)" fill="#5e391d"/>
      </g>
      <g id="Grupo_929417" data-name="Grupo 929417" transform="translate(25.21 99.979)">
        <path id="Trazado_633012" data-name="Trazado 633012" d="M1028.994,5689.448l-7-82.876a1.314,1.314,0,0,0-2.618,0l-7,82.876s-9.233-7.85-9.233,10.618h35.089C1038.226,5682.521,1028.994,5689.448,1028.994,5689.448Z" transform="translate(-1003.137 -5605.37)" fill="#5e391d"/>
      </g>
      <g id="Grupo_929418" data-name="Grupo 929418" transform="translate(42.409 99.992)" opacity="0.34" style="mix-blend-mode: multiply;isolation: isolate">
        <path id="Trazado_633013" data-name="Trazado 633013" d="M1030.086,5689.449l-7-82.876a1.286,1.286,0,0,0-1.655-1.145v94.639h17.891C1039.319,5682.521,1030.086,5689.449,1030.086,5689.449Z" transform="translate(-1021.428 -5605.383)" fill="#5e391d"/>
      </g>
      <g id="Grupo_929419" data-name="Grupo 929419" transform="translate(30.056 189.309)">
        <path id="Trazado_633014" data-name="Trazado 633014" d="M1023.314,5701.643a4.977,4.977,0,0,1-4.649,0c-8.417-4.413-10.374,4.1-10.374,4.1h25.4S1031.731,5697.23,1023.314,5701.643Z" transform="translate(-1008.291 -5700.374)" fill="#332000"/>
      </g>
      <g id="Grupo_929420" data-name="Grupo 929420" transform="translate(10.738 92.719)">
        <path id="Trazado_633015" data-name="Trazado 633015" d="M1051.779,5601.3H987.746l.32-.072a142.309,142.309,0,0,1,63.394,0Z" transform="translate(-987.746 -5597.648)" fill="#332612"/>
      </g>
      <g id="Grupo_929421" data-name="Grupo 929421" transform="translate(29.259 207.616)">
        <path id="Trazado_633016" data-name="Trazado 633016" d="M1033.864,5733.143s-1.755-12.817-12.927-13.257l0-.043c-.1,0-.187.018-.287.02s-.184-.02-.286-.02l0,.043c-11.171.44-12.925,13.257-12.925,13.257Z" transform="translate(-1007.443 -5719.843)" fill="#332000"/>
      </g>
      <g id="Grupo_929422" data-name="Grupo 929422" transform="translate(10.802 106.643)">
        <path id="Trazado_633017" data-name="Trazado 633017" d="M987.814,5612.456h25.681S1000.655,5643.955,987.814,5612.456Z" transform="translate(-987.814 -5612.456)" fill="#3f2d0f"/>
      </g>
      <g id="Grupo_929423" data-name="Grupo 929423" transform="translate(49.152 106.643)">
        <path id="Trazado_633018" data-name="Trazado 633018" d="M1054.283,5612.456H1028.6S1041.441,5643.955,1054.283,5612.456Z" transform="translate(-1028.6 -5612.456)" fill="#3f2d0f"/>
      </g>
    </g>
    <g id="Grupo_929439" data-name="Grupo 929439" transform="translate(752.039 5468.924)">
      <g id="Grupo_929436" data-name="Grupo 929436">
        <path id="Trazado_633019" data-name="Trazado 633019" d="M820.3,5597.377c-5.722-3.147-36.381-2-36.381-2s-30.66-1.145-36.381,2S734.093,5623.7,734.093,5636s5.534,49.492,49.826,49.492,49.827-37.19,49.827-49.492S826.022,5600.524,820.3,5597.377Z" transform="translate(-719.157 -5494.056)" fill="#9fa49e"/>
        <path id="Trazado_633020" data-name="Trazado 633020" d="M784.272,5619.425c19.609,0,33.892-3.577,44.274-8.878-2.465-6.514-5.373-11.785-7.893-13.17-5.722-3.147-36.381-2-36.381-2s-30.66-1.145-36.381,2c-2.52,1.385-5.427,6.656-7.893,13.17C750.38,5615.849,764.663,5619.425,784.272,5619.425Z" transform="translate(-719.509 -5494.056)" fill="#636762"/>
        <path id="Trazado_633021" data-name="Trazado 633021" d="M831.8,5626.269c-4.872,1.58-9.037,4.243-14.611,6.044-12.052,3.9-24.067,2.334-36.43,2.469a137.569,137.569,0,0,1-35.51-4.657,45.136,45.136,0,0,1-9.114-3.4c-.211-.056-.424-.1-.634-.164a56.917,56.917,0,0,0-1.409,11.289c0,12.3,5.534,49.492,49.826,49.492s49.827-37.19,49.827-49.492a57.962,57.962,0,0,0-1.505-11.725C832.093,5626.169,831.95,5626.22,831.8,5626.269Z" transform="translate(-719.157 -5495.905)" fill="#4b4c4a" opacity="0.23" style="mix-blend-mode: multiply;isolation: isolate"/>
        <path id="Trazado_633022" data-name="Trazado 633022" d="M821.623,5645.664c-7.915,9.686-14.509,17.9-28.057,21.436-14.383,3.759-28.1-.945-38.494-11.162a62.927,62.927,0,0,1-11.619-16.241c-2.065-4.015-4.274-9.081-6.71-12.88-.2-.1-.408-.185-.607-.288-.211-.056-.424-.1-.634-.164a56.917,56.917,0,0,0-1.409,11.289c0,12.3,5.534,49.492,49.826,49.492s49.827-37.19,49.827-49.492c0-2.08-1-12.18-1.4-14.733C828.889,5627.376,826.021,5640.282,821.623,5645.664Z" transform="translate(-719.157 -5495.713)" fill="#636762"/>
        <path id="Trazado_633023" data-name="Trazado 633023" d="M826.317,5717.494c-1.36-.965-11.914-.321-22.13.563a232.958,232.958,0,0,1-40.181,0c-10.215-.885-20.771-1.529-22.13-.563-2.719,1.932-6.734,16.5-3.755,20.365s22.017,19.309,45.976,19.309,43-15.447,45.977-19.309S829.038,5719.425,826.317,5717.494Z" transform="translate(-719.334 -5501.333)" fill="#9fa49e"/>
        <path id="Trazado_633024" data-name="Trazado 633024" d="M826.317,5717.494c-1.36-.965-11.914-.321-22.13.563a232.958,232.958,0,0,1-40.181,0c-10.215-.885-20.771-1.529-22.13-.563-2.719,1.932-6.734,16.5-3.755,20.365s22.017,19.309,45.976,19.309,43-15.447,45.977-19.309S829.038,5719.425,826.317,5717.494Z" transform="translate(-719.334 -5501.333)" fill="#767a75"/>
        <g id="Grupo_929425" data-name="Grupo 929425" transform="translate(11.03 227.793)">
          <path id="Trazado_633025" data-name="Trazado 633025" d="M770.055,5748.229c-5.671-3.887-32.166-23.566-37.348-17.007-2.251,2.85-2.933,8.26-2.737,15.063s5.28,15.549,28.548,15.549S775.725,5752.116,770.055,5748.229Z" transform="translate(-729.938 -5729.895)" fill="#9fa49e"/>
          <path id="Trazado_633026" data-name="Trazado 633026" d="M838.584,5731.223c-5.182-6.56-31.677,13.12-37.347,17.007s-11.733,13.605,11.536,13.605,28.352-8.746,28.548-15.549S840.835,5734.072,838.584,5731.223Z" transform="translate(-733.887 -5729.895)" fill="#9fa49e"/>
        </g>
        <g id="Grupo_929426" data-name="Grupo 929426" transform="translate(11.03 237.681)" opacity="0.23" style="mix-blend-mode: multiply;isolation: isolate">
          <path id="Trazado_633027" data-name="Trazado 633027" d="M758.518,5753.615c-21.468,0-27.452-7.051-28.4-13.2a57,57,0,0,0-.144,6.5c.2,6.8,5.28,15.549,28.548,15.549,19.329,0,18.415-6.7,14.3-11.2C770.411,5752.667,765.976,5753.615,758.518,5753.615Z" transform="translate(-729.939 -5740.412)" fill="#9fa49e"/>
          <path id="Trazado_633028" data-name="Trazado 633028" d="M812.773,5753.615c-7.458,0-11.893-.948-14.3-2.354-4.113,4.5-5.027,11.2,14.3,11.2,23.269,0,28.352-8.746,28.548-15.549a56.98,56.98,0,0,0-.144-6.5C840.225,5746.563,834.241,5753.615,812.773,5753.615Z" transform="translate(-733.888 -5740.412)" fill="#9fa49e"/>
        </g>
        <path id="Trazado_633029" data-name="Trazado 633029" d="M825.222,5682.88c-2.289-4.577-40.959,0-40.959,0s-38.67-4.577-40.958,0-8.3,27.177,4.291,36.046,36.667,5.436,36.667,5.436,24.08,3.433,36.667-5.436S827.51,5687.458,825.222,5682.88Z" transform="translate(-719.501 -5499.173)" fill="#9fa49e"/>
        <path id="Trazado_633030" data-name="Trazado 633030" d="M820.931,5710.9c-12.588,8.869-36.667,5.436-36.667,5.436s-24.08,3.433-36.667-5.436c-4.714-3.321-6.819-8.568-7.489-14.072-.849,8.178.2,17.916,7.489,23.052,12.587,8.868,36.667,5.436,36.667,5.436s24.08,3.433,36.667-5.436c7.29-5.136,8.339-14.874,7.489-23.052C827.751,5702.333,825.644,5707.581,820.931,5710.9Z" transform="translate(-719.501 -5500.127)" fill="#9fa49e" opacity="0.32" style="mix-blend-mode: multiply;isolation: isolate"/>
        <path id="Trazado_633031" data-name="Trazado 633031" d="M784.318,5695.111s26.42,2.868,43.546-3.441a38.208,38.208,0,0,0-2.588-8.79c-2.289-4.577-40.959,0-40.959,0s-38.67-4.577-40.958,0a38.258,38.258,0,0,0-2.588,8.79C757.9,5697.979,784.318,5695.111,784.318,5695.111Z" transform="translate(-719.556 -5499.173)" fill="#636762"/>
        <g id="Grupo_929433" data-name="Grupo 929433" transform="translate(0 112.401)">
          <path id="Trazado_633032" data-name="Trazado 633032" d="M770.189,5620.142s-29.316-14.685-33.086-12.8-13.192,4.146-16.207,12.061-4.853,50.129,2.1,56.537,39.79,0,39.79,0V5658.6s-23.419-1.342-23.419-5.005-.377-19.87-.377-19.87l31.2-6.031Z" transform="translate(-718.208 -5607.174)" fill="#9fa49e"/>
          <path id="Trazado_633033" data-name="Trazado 633033" d="M800.677,5620.142s29.317-14.685,33.086-12.8,13.192,4.146,16.208,12.061,4.852,50.129-2.1,56.537-39.789,0-39.789,0V5658.6s23.418-1.342,23.418-5.005.377-19.87.377-19.87l-31.2-6.031Z" transform="translate(-723.133 -5607.174)" fill="#9fa49e"/>
          <g id="Grupo_929427" data-name="Grupo 929427" transform="translate(84.95 14.074)">
            <path id="Trazado_633034" data-name="Trazado 633034" d="M850.984,5622.142c1.61,15.368,1.484,41.672-3.882,46.62-6.146,5.667-32.527,1.313-38.548.23v7.841s32.84,6.407,39.789,0C854.863,5670.821,853.649,5633.294,850.984,5622.142Z" transform="translate(-808.554 -5622.142)" fill="#9fa49e" opacity="0.32" style="mix-blend-mode: multiply;isolation: isolate"/>
          </g>
          <g id="Grupo_929428" data-name="Grupo 929428" transform="translate(0 14.074)">
            <path id="Trazado_633035" data-name="Trazado 633035" d="M720.353,5622.142c-1.61,15.368-1.484,41.672,3.883,46.62,6.146,5.667,32.526,1.313,38.548.23v7.841s-32.841,6.407-39.79,0C716.474,5670.821,717.688,5633.294,720.353,5622.142Z" transform="translate(-718.208 -5622.142)" fill="#9fa49e" opacity="0.32" style="mix-blend-mode: multiply;isolation: isolate"/>
          </g>
          <g id="Grupo_929430" data-name="Grupo 929430" transform="translate(42.265 49.919)">
            <path id="Trazado_633036" data-name="Trazado 633036" d="M773.522,5684.637a10.365,10.365,0,0,1-10.365-10.365v-3.644a10.365,10.365,0,1,1,20.729,0v3.644A10.364,10.364,0,0,1,773.522,5684.637Z" transform="translate(-763.157 -5660.264)" fill="#9fa49e"/>
            <path id="Trazado_633037" data-name="Trazado 633037" d="M781.24,5681.7H768.52a4.006,4.006,0,0,1-4-4.006v-16.348a3.979,3.979,0,0,0-1.359,2.985V5680.7a4,4,0,0,0,4,4h12.72a4,4,0,0,0,4-4v-.015A3.972,3.972,0,0,1,781.24,5681.7Z" transform="translate(-763.157 -5660.329)" fill="#9fa49e" opacity="0.32" style="mix-blend-mode: multiply;isolation: isolate"/>
            <g id="Grupo_929429" data-name="Grupo 929429" transform="translate(13.066 4.146)">
              <rect id="Rectángulo_335241" data-name="Rectángulo 335241" width="7.664" height="1.489" fill="#7d847c"/>
              <rect id="Rectángulo_335242" data-name="Rectángulo 335242" width="7.664" height="1.489" transform="translate(0 4.739)" fill="#7d847c"/>
              <rect id="Rectángulo_335243" data-name="Rectángulo 335243" width="7.664" height="1.489" transform="translate(0 9.477)" fill="#7d847c"/>
              <rect id="Rectángulo_335244" data-name="Rectángulo 335244" width="7.664" height="1.489" transform="translate(0 14.215)" fill="#7d847c"/>
            </g>
          </g>
          <g id="Grupo_929432" data-name="Grupo 929432" transform="translate(66.531 49.919)">
            <path id="Trazado_633038" data-name="Trazado 633038" d="M799.33,5684.637a10.365,10.365,0,0,0,10.366-10.365v-3.644a10.365,10.365,0,0,0-20.73,0v3.644A10.364,10.364,0,0,0,799.33,5684.637Z" transform="translate(-788.965 -5660.264)" fill="#9fa49e"/>
            <path id="Trazado_633039" data-name="Trazado 633039" d="M791.611,5681.7h12.72a4.006,4.006,0,0,0,4-4.006v-16.348a3.979,3.979,0,0,1,1.36,2.985V5680.7a4.005,4.005,0,0,1-4.006,4H792.97a4,4,0,0,1-4-4v-.015A3.974,3.974,0,0,0,791.611,5681.7Z" transform="translate(-788.965 -5660.329)" fill="#9fa49e" opacity="0.32" style="mix-blend-mode: multiply;isolation: isolate"/>
            <g id="Grupo_929431" data-name="Grupo 929431" transform="translate(0 4.146)">
              <rect id="Rectángulo_335245" data-name="Rectángulo 335245" width="7.664" height="1.489" fill="#7d847c"/>
              <rect id="Rectángulo_335246" data-name="Rectángulo 335246" width="7.664" height="1.489" transform="translate(0 4.739)" fill="#7d847c"/>
              <rect id="Rectángulo_335247" data-name="Rectángulo 335247" width="7.664" height="1.489" transform="translate(0 9.477)" fill="#7d847c"/>
              <rect id="Rectángulo_335248" data-name="Rectángulo 335248" width="7.664" height="1.489" transform="translate(0 14.215)" fill="#7d847c"/>
            </g>
          </g>
        </g>
        <path id="Trazado_633040" data-name="Trazado 633040" d="M831.063,5525.966c-8.915-2.574-47.825-3.217-47.825-3.217s-38.911.643-47.824,3.217-13.536,42.053-12.612,50.207,2.571,25.289,60.436,25.289,59.513-17.136,60.437-25.289S839.978,5528.541,831.063,5525.966Z" transform="translate(-718.475 -5489.731)" fill="#9fa49e"/>
        <path id="Trazado_633041" data-name="Trazado 633041" d="M841.6,5553.794c1.205,8.548,1.669,16.353,1.316,19.5-.912,8.153-2.539,25.289-59.676,25.289s-58.763-17.135-59.676-25.289c-.352-3.144.111-10.947,1.316-19.5-1.767,10.278-2.5,20.513-2.077,24.232.923,8.153,2.571,25.289,60.436,25.289s59.513-17.136,60.437-25.289C844.1,5574.308,843.364,5564.072,841.6,5553.794Z" transform="translate(-718.475 -5491.585)" fill="#9fa49e" opacity="0.55" style="mix-blend-mode: multiply;isolation: isolate"/>
        <path id="Trazado_633042" data-name="Trazado 633042" d="M781.556,5537.241c34.558,0,51.271,4.841,59.5,10.6-2.162-10.776-5.466-20.632-9.772-21.876-8.915-2.574-47.825-3.217-47.825-3.217s-38.911.643-47.824,3.217c-3.967,1.146-7.082,9.6-9.238,19.344C735.741,5540.731,752.215,5537.241,781.556,5537.241Z" transform="translate(-718.697 -5489.731)" fill="#9fa49e" opacity="0.55" style="mix-blend-mode: multiply;isolation: isolate"/>
        <g id="Grupo_929434" data-name="Grupo 929434" transform="translate(15.51 51.684)">
          <path id="Trazado_633043" data-name="Trazado 633043" d="M759.535,5542.6c-13.347,0-24.832,8.381-24.832,8.381s20.642-4.073,26.461-1.863a10.931,10.931,0,0,1,6.055,6.519S772.882,5542.6,759.535,5542.6Z" transform="translate(-734.703 -5542.6)" fill="#636762"/>
          <path id="Trazado_633044" data-name="Trazado 633044" d="M812.492,5542.6c-13.347,0-7.685,13.037-7.685,13.037a10.931,10.931,0,0,1,6.055-6.519c5.82-2.21,26.461,1.863,26.461,1.863S825.839,5542.6,812.492,5542.6Z" transform="translate(-738.818 -5542.6)" fill="#636762"/>
        </g>
        <g id="Grupo_929435" data-name="Grupo 929435" transform="translate(14.872 67.638)">
          <path id="Trazado_633045" data-name="Trazado 633045" d="M734.025,5562.884c3.743,7.166,13.8,10.909,21.6,8.556s9.733-11.872,9.733-11.872-7.059,5.882-15.08,7.273S734.025,5562.884,734.025,5562.884Z" transform="translate(-734.025 -5559.568)" fill="#636762"/>
          <path id="Trazado_633046" data-name="Trazado 633046" d="M821.9,5566.841c-8.021-1.391-15.081-7.273-15.081-7.273s1.926,9.518,9.733,11.872,17.862-1.391,21.6-8.556C838.153,5562.884,829.918,5568.231,821.9,5566.841Z" transform="translate(-738.372 -5559.568)" fill="#636762"/>
        </g>
        <path id="Trazado_633047" data-name="Trazado 633047" d="M807.338,5569.676c-2-3.145-9.558-3.471-9.558-3.471L800,5552.972c-3.084,2.251-4.751,14.291-4.751,14.291a18.953,18.953,0,0,1,10.753,2.25c1.417.9,1.751,5.206,1.751,5.206a14.218,14.218,0,0,0-12.254-1.057c-4.418,1.546-2.668,3.58-4.335,4.555a12.4,12.4,0,0,1-11.17,0c-1.667-.976.084-3.009-4.334-4.555a14.217,14.217,0,0,0-12.254,1.057s.333-4.311,1.75-5.206a18.952,18.952,0,0,1,10.753-2.25s-1.667-12.04-4.751-14.291l2.223,13.233s-7.557.326-9.558,3.471a13.745,13.745,0,0,0-1.89,6.942s6.057-2.142,9.725-1.329,7.419,4.393,7.419,4.393a12.233,12.233,0,0,0,13,0s3.752-3.58,7.419-4.393,9.725,1.329,9.725,1.329A13.745,13.745,0,0,0,807.338,5569.676Z" transform="translate(-720.819 -5491.536)" fill="#636762"/>
        <path id="Trazado_633048" data-name="Trazado 633048" d="M827.537,5504.919c-14.332-2.146-44.409-4.075-44.409-4.075s-30.078,1.929-44.409,4.075-25.062,21.026-11.943,35.187c0,0,38.425-15.3,56.353-15.3s56.409,15.3,56.409,15.3C852.656,5525.946,841.869,5507.065,827.537,5504.919Z" transform="translate(-718.365 -5488.423)" fill="#9fa49e"/>
        <path id="Trazado_633049" data-name="Trazado 633049" d="M783.135,5512.854s-32.225,4.953-47.58,5.363a80.831,80.831,0,0,0-13.419,1.358,20.4,20.4,0,0,0-1.168,4.986c.547.129,1.131.26,1.789.386,0,0,41.169-7.511,60.377-7.511s60.436,7.511,60.436,7.511c.652-.126,1.229-.254,1.772-.382a20.461,20.461,0,0,0-1.176-4.987,81.122,81.122,0,0,0-13.453-1.361C815.36,5517.807,783.135,5512.854,783.135,5512.854Z" transform="translate(-718.373 -5489.14)" fill="#636762"/>
        <path id="Trazado_633050" data-name="Trazado 633050" d="M819.357,5506.9v-3.231c-15.029-1.589-34.221-2.821-34.221-2.821s-16.35,1.049-30.685,2.46v3.592a9.823,9.823,0,0,0,9.823,9.823h45.261A9.823,9.823,0,0,0,819.357,5506.9Z" transform="translate(-720.372 -5488.423)" fill="#9fa49e" opacity="0.55" style="mix-blend-mode: multiply;isolation: isolate"/>
        <path id="Trazado_633051" data-name="Trazado 633051" d="M803.95,5512.71h-33.7a12.538,12.538,0,0,1,0-25.077h33.7a12.538,12.538,0,1,1,0,25.077Z" transform="translate(-720.567 -5487.634)" fill="#9fa49e"/>
        <path id="Trazado_633052" data-name="Trazado 633052" d="M793.637,5596.46H779.065a2.775,2.775,0,0,1-2.6-1.792l-1.474-3.89a2.775,2.775,0,0,1,2.594-3.759h17.523a2.776,2.776,0,0,1,2.6,3.759l-1.475,3.89A2.775,2.775,0,0,1,793.637,5596.46Z" transform="translate(-721.589 -5493.569)" fill="#bdc0bc"/>
        <path id="Trazado_633053" data-name="Trazado 633053" d="M778.926,5592.5h15.056a2.386,2.386,0,1,0,0-4.771h-15.06a2.386,2.386,0,0,0,0,4.771Z" transform="translate(-721.692 -5493.612)" fill="#636762"/>
        <path id="Trazado_633054" data-name="Trazado 633054" d="M804.683,5500.536c0,2.686-7.515,4.863-16.784,4.863s-16.785-2.178-16.785-4.863,7.515-4.863,16.785-4.863S804.683,5497.849,804.683,5500.536Z" transform="translate(-721.368 -5488.114)" fill="#9fa49e" opacity="0.55" style="mix-blend-mode: multiply;isolation: isolate"/>
      </g>
      <g id="Grupo_929438" data-name="Grupo 929438" transform="translate(0.001)" opacity="0.23">
        <g id="Grupo_929437" data-name="Grupo 929437" clip-path="url(#clip-path)">
          <path id="Trazado_633055" data-name="Trazado 633055" d="M843.749,5667.822c.124-.184.249-.365.367-.573.072-.127.138-.274.207-.409.1-.206.209-.409.307-.634.07-.16.136-.336.2-.506.089-.227.181-.453.266-.7.067-.19.129-.393.193-.592.08-.25.159-.5.234-.764.061-.214.118-.438.177-.661.071-.272.141-.547.208-.833.055-.236.108-.479.161-.725.063-.294.125-.592.184-.9.049-.254.1-.513.142-.774q.085-.477.164-.971c.042-.269.084-.54.124-.815.049-.336.1-.679.141-1.025.038-.285.074-.571.109-.861.043-.356.083-.718.121-1.083.031-.292.063-.583.091-.88.037-.379.07-.764.1-1.149.025-.3.052-.595.075-.9.03-.4.057-.8.084-1.207.021-.3.041-.6.059-.9.025-.421.046-.849.068-1.276.014-.3.031-.588.044-.885.02-.472.036-.95.053-1.427.008-.254.019-.506.026-.762.018-.586.029-1.177.04-1.769,0-.156.008-.311.01-.467.011-.738.018-1.479.02-2.22,0-.274,0-.548,0-.822,0-.477,0-.954-.006-1.43,0-.3-.008-.6-.012-.907-.007-.446-.012-.891-.021-1.334-.008-.323-.016-.641-.024-.962-.01-.418-.021-.837-.034-1.253-.011-.337-.024-.669-.037-1-.014-.394-.028-.787-.045-1.176-.015-.343-.031-.681-.048-1.02-.018-.377-.037-.753-.056-1.125-.018-.334-.038-.664-.057-.994q-.032-.556-.069-1.1c-.022-.327-.044-.649-.067-.97-.025-.354-.051-.7-.078-1.05-.024-.315-.05-.626-.075-.936-.029-.347-.059-.687-.09-1.026-.026-.3-.054-.591-.082-.88-.033-.335-.066-.661-.1-.986-.029-.279-.058-.558-.089-.83-.035-.313-.071-.615-.107-.917-.032-.269-.064-.539-.1-.8-.039-.3-.077-.577-.117-.86-.033-.241-.066-.486-.1-.72-.042-.285-.086-.553-.129-.824-.035-.214-.068-.435-.1-.64-.046-.267-.093-.512-.14-.763-.035-.184-.069-.38-.1-.557-.057-.283-.116-.54-.174-.8-.026-.119-.052-.25-.079-.364l0-.007v0a15.524,15.524,0,0,0-.544-1.848c-3.016-7.915-12.438-10.177-16.208-12.061a5.609,5.609,0,0,0-3.137.147c-.106-.241-.213-.477-.321-.711l-.118-.254c-.3-.65-.6-1.277-.909-1.872-.025-.05-.051-.1-.076-.145-.316-.611-.634-1.2-.953-1.74l-.008-.014c-.128-.217-.255-.42-.382-.626,1.561-.466,3.017-.956,4.344-1.475,6.611-2.582,10.421-5.744,12.665-8.906a17.068,17.068,0,0,0,1.278-2.1q.268-.521.49-1.038a18.044,18.044,0,0,0,.734-2.03c.2-.663.35-1.31.473-1.934.246-1.249.373-2.408.489-3.427,0-.015,0-.034,0-.048q.038-.349.064-.77c.006-.1.008-.225.013-.335.009-.206.019-.412.024-.638,0-.146,0-.305,0-.458,0-.214,0-.428,0-.66,0-.177,0-.365-.007-.551,0-.23-.008-.46-.014-.7,0-.2-.012-.406-.019-.615-.009-.252-.019-.507-.031-.77q-.014-.327-.032-.666-.021-.4-.046-.824c-.014-.241-.029-.484-.045-.732-.019-.279-.04-.564-.06-.852-.02-.261-.039-.523-.06-.791-.023-.289-.049-.584-.073-.88s-.049-.567-.075-.858-.058-.6-.088-.906-.056-.585-.087-.885c-.034-.326-.071-.658-.107-.989q-.092-.829-.194-1.68c-.041-.343-.081-.683-.124-1.029s-.088-.673-.133-1.011c-.042-.317-.083-.633-.127-.954s-.095-.667-.143-1-.093-.654-.142-.983-.105-.685-.158-1.028c-.052-.327-.1-.655-.155-.981-.055-.344-.113-.687-.171-1.031-.034-.2-.066-.4-.1-.605,0,.025.006.05.009.075-.24-1.4-.5-2.793-.776-4.177l0,0c-.031-.151-.063-.3-.094-.451q-.106-.518-.215-1.031t-.218-1.009c-.075-.341-.151-.678-.229-1.015s-.153-.658-.231-.983-.159-.658-.241-.983-.165-.653-.249-.976l-.026-.1.315.125c5.52-5.958,6.8-12.75,5.368-18.781l-.007-.03a20.879,20.879,0,0,0-.739-2.434c-2.666-7.165-9.158-12.825-16.622-13.942-3.7-.555-8.464-1.095-13.481-1.591a12.515,12.515,0,0,0-12.308-14.905h-33.7a12.467,12.467,0,0,0-12.359,14.571c-6.265.584-12.411,1.244-16.966,1.926-8.29,1.241-15.364,8.084-17.326,16.373l-.007.029c-1.418,6.032-.133,12.826,5.389,18.785l.253-.1-.009.036c-.073.283-.147.568-.218.854-.087.342-.171.683-.255,1.029-.066.276-.131.555-.2.833-.084.36-.167.719-.249,1.084-.011.052-.024.1-.036.158h0c-.485,2.194-.921,4.45-1.308,6.707,0-.025.007-.05.009-.075-.034.2-.066.4-.1.6-.057.344-.116.688-.171,1.033-.053.326-.1.65-.153.976-.055.348-.109.7-.161,1.043-.047.314-.09.625-.135.936-.05.349-.1.7-.149,1.045-.045.329-.087.653-.13.979s-.087.65-.128.969c-.062.5-.119.983-.177,1.47-.051.432-.1.856-.145,1.28-.035.317-.071.638-.1.95s-.06.6-.089.906-.06.6-.087.9-.05.566-.074.849-.051.593-.074.883c-.021.269-.04.531-.059.794-.022.289-.042.576-.061.856-.016.248-.031.49-.045.731q-.025.411-.045.807-.018.353-.034.694c-.011.254-.021.5-.029.743-.008.213-.014.423-.02.628-.007.246-.01.48-.014.712,0,.181-.006.362-.007.534,0,.24,0,.463,0,.686,0,.146,0,.3,0,.434.006.232.015.443.024.652,0,.107.008.225.014.325.018.3.039.574.068.817.629,5.556,1.613,15.278,20.473,20.912-.128.206-.255.409-.382.626l-.008.014c-.317.543-.635,1.126-.95,1.735-.026.052-.054.1-.08.151-.3.6-.608,1.223-.909,1.872l-.115.25c-.108.236-.215.473-.322.714a5.611,5.611,0,0,0-3.138-.147c-3.769,1.884-13.192,4.146-16.207,12.061a15.327,15.327,0,0,0-.544,1.848v0l0,.007c-.026.114-.053.246-.079.364-.058.258-.117.515-.174.8-.035.177-.069.373-.1.557-.047.251-.094.5-.139.763-.036.205-.069.425-.1.64-.044.271-.087.54-.13.825-.034.227-.066.468-.1.7-.04.29-.081.58-.119.882-.033.255-.064.519-.1.783-.037.305-.072.61-.108.926-.03.272-.059.551-.088.83-.035.325-.068.651-.1.986-.028.289-.055.583-.082.88-.031.34-.061.683-.09,1.031-.025.3-.05.607-.074.917q-.041.538-.08,1.086c-.023.309-.044.617-.065.93-.024.379-.048.762-.071,1.146-.019.317-.037.632-.055.953-.021.388-.04.78-.059,1.173-.015.324-.031.646-.045.974q-.025.6-.047,1.215c-.012.325-.024.649-.035.977-.013.417-.024.836-.035,1.255-.008.321-.017.641-.024.963-.009.44-.015.882-.022,1.324,0,.306-.009.61-.012.917,0,.5,0,1.008-.006,1.512,0,.244,0,.486,0,.729q0,1.122.021,2.24c0,.11.006.219.007.329.011.632.024,1.263.043,1.889.008.267.019.529.028.792.015.473.031.945.052,1.413.012.28.027.555.041.833.022.444.044.889.07,1.327.017.3.038.585.057.878.027.409.055.818.086,1.221.023.3.049.593.074.889.033.389.067.776.1,1.156.029.3.06.585.091.876.039.369.079.733.122,1.093.034.286.07.566.107.846q.069.525.142,1.036.061.412.124.811c.053.332.108.657.165.978.046.257.092.512.141.763.059.311.122.613.186.912.052.241.1.48.158.712.068.29.139.568.211.844.057.221.115.44.174.652.077.267.157.52.238.772.062.2.124.4.19.584.086.245.177.472.268.7.067.169.133.344.2.5.1.225.2.428.307.634.07.135.135.282.207.409.119.21.245.394.37.578.064.095.125.2.191.291a5.135,5.135,0,0,0,.607.682c.048.045.111.083.162.126a6.448,6.448,0,0,0,1.056.718,9.563,9.563,0,0,0,.947.456,13.994,13.994,0,0,0,1.838.612q.944.248,2.008.423a47.74,47.74,0,0,0,7.947.511c1.635-.012,3.317-.077,5-.179-.111.229-.23.5-.354.809-.035.087-.068.168-.1.259-.145.37-.293.774-.447,1.229-.032.1-.063.2-.1.3-.128.393-.258.813-.386,1.258-.044.152-.088.3-.133.455q-.22.791-.434,1.671c-.044.184-.086.372-.129.56-.117.508-.229,1.03-.336,1.571-.034.165-.068.321-.1.489,0,.023-.008.042-.013.065h0c-.25,1.337-.455,2.764-.606,4.237,0-.011,0-.021-.006-.033-.011.107-.018.217-.028.324-.024.254-.046.507-.068.764-.056.7-.1,1.412-.127,2.13-.007.2-.007.395-.01.593-.013.673-.011,1.349.009,2.027,0,.153,0,.3.01.458.032.773.1,1.545.182,2.313.022.191.04.38.065.57q.147,1.151.384,2.281c.035.166.074.33.113.494.18.781.385,1.551.638,2.3.025.075.056.147.083.223a20.708,20.708,0,0,0,.882,2.128c.048.1.09.2.14.3a17.87,17.87,0,0,0,1.2,2.021c.033.049.056.1.09.151a3.963,3.963,0,0,0-1.625.376c-1.592,1.13-3.618,6.588-4.435,11.7-1.913-.2-3.425.145-4.308,1.262-1.474,1.866-2.266,4.848-2.589,8.585l0-.024c-.009.1-.008.221-.017.324q-.092,1.161-.125,2.414c-.007.229-.014.456-.018.69-.015.993-.014,2.009.016,3.075a13.15,13.15,0,0,0,.714,3.961,12.351,12.351,0,0,0,2.27,3.948,14.787,14.787,0,0,0,2.638,2.416,18.447,18.447,0,0,0,1.715,1.1,24.6,24.6,0,0,0,4.319,1.891c4.125,1.381,9.621,2.236,16.892,2.236.675,0,1.319-.01,1.945-.026.2,0,.382-.014.574-.02.421-.015.836-.031,1.236-.053.212-.011.417-.024.622-.037.368-.025.727-.052,1.075-.082.191-.016.383-.032.567-.051.363-.036.711-.076,1.052-.118.146-.018.3-.034.438-.054.472-.064.927-.134,1.357-.211l.071-.014c.4-.073.788-.153,1.155-.237.121-.027.234-.058.352-.086.261-.064.517-.13.76-.2.124-.036.245-.073.365-.109q.336-.1.646-.214c.109-.039.218-.077.322-.117.215-.082.417-.167.613-.255.077-.033.16-.066.234-.1.261-.122.509-.249.735-.38.032-.019.058-.039.089-.057.192-.115.372-.231.54-.352.066-.048.126-.1.189-.146.121-.094.239-.188.346-.286.063-.056.122-.113.181-.17.095-.094.183-.189.266-.285.052-.059.1-.118.151-.179.081-.1.151-.207.219-.312.035-.055.074-.107.106-.162.052-.089.093-.179.137-.27a56.969,56.969,0,0,0,17.623,0c.044.091.086.181.137.27.032.055.071.107.105.161.069.106.14.211.221.314.047.06.1.117.149.177.083.1.172.191.267.285.058.058.119.114.181.171.107.1.225.191.346.285.062.049.122.1.188.146.169.12.351.239.544.354.029.018.055.037.085.054.227.131.474.258.735.381.074.036.157.069.234.1.2.088.4.172.612.255.1.04.214.078.323.117.208.073.422.145.646.214.12.037.241.074.366.109.243.069.5.135.759.2.118.029.23.059.352.086.369.085.753.165,1.158.238l.068.013c.43.077.885.147,1.358.211.141.02.292.036.436.054.341.042.69.083,1.053.118.185.019.376.035.567.051.348.03.707.057,1.076.082.205.013.41.026.621.037.4.022.814.038,1.236.053.192.006.378.015.574.02.626.016,1.27.026,1.945.026,23.269,0,28.352-8.746,28.548-15.549.031-1.065.031-2.08.016-3.072,0-.235-.011-.464-.018-.695q-.034-1.25-.124-2.408c-.009-.1-.009-.224-.018-.327l0,.023c-.323-3.736-1.114-6.718-2.589-8.585-.883-1.118-2.4-1.459-4.308-1.262-.817-5.109-2.842-10.567-4.435-11.7a3.962,3.962,0,0,0-1.624-.376c.034-.049.056-.1.089-.151a17.752,17.752,0,0,0,1.2-2.021c.051-.1.093-.2.141-.3a20.381,20.381,0,0,0,.881-2.127c.026-.075.057-.148.083-.223.254-.752.459-1.522.638-2.3.039-.164.078-.328.113-.494q.237-1.128.384-2.279c.024-.191.044-.382.065-.574.085-.768.15-1.538.183-2.311.007-.153.006-.3.01-.458q.031-1.017.008-2.027c0-.2,0-.4-.01-.593-.024-.718-.07-1.427-.127-2.13-.021-.257-.042-.51-.067-.764-.01-.107-.018-.217-.029-.324l0,.033c-.152-1.473-.357-2.9-.607-4.237h0c0-.022-.008-.042-.013-.065-.032-.167-.066-.324-.1-.489q-.161-.812-.336-1.57c-.043-.189-.086-.378-.13-.562q-.213-.878-.434-1.669c-.044-.159-.087-.305-.133-.457-.129-.445-.258-.865-.386-1.257-.033-.1-.065-.2-.1-.3-.153-.455-.3-.858-.446-1.228-.036-.091-.07-.174-.1-.26-.124-.305-.243-.579-.354-.809,1.111.066,2.222.119,3.318.148a53.429,53.429,0,0,0,9.391-.436,22.343,22.343,0,0,0,2.547-.54q.587-.166,1.116-.359a7.786,7.786,0,0,0,2.589-1.48l.01-.012a5.123,5.123,0,0,0,.6-.671C843.621,5668.029,843.684,5667.918,843.749,5667.822Z" transform="translate(-718.209 -5487.634)" fill="#9fa49e" opacity="0.55" style="mix-blend-mode: multiply;isolation: isolate"/>
        </g>
      </g>
    </g>
  </g>
</svg>
