<svg xmlns="http://www.w3.org/2000/svg" width="171.563" height="171.563" viewBox="0 0 171.563 171.563">
  <g id="Grupo_932078" data-name="Grupo 932078" transform="translate(-294.719 -6338.461)">
    <g id="Grupo_926807" data-name="Grupo 926807" transform="translate(294.719 6338.461)">
      <g id="Elipse_4803" data-name="Elipse 4803" fill="#406834" stroke="#fff" stroke-width="5">
        <circle cx="85.781" cy="85.781" r="85.781" stroke="none"/>
        <circle cx="85.781" cy="85.781" r="83.281" fill="none"/>
      </g>
    </g>
    <g id="archivos-y-carpetas" transform="translate(340 6384)">
      <path id="Trazado_633058" data-name="Trazado 633058" d="M72.188,0H14.053A7.822,7.822,0,0,0,6.24,7.812V70.625H1.563A1.562,1.562,0,0,0,0,72.188,7.822,7.822,0,0,0,7.813,80H60.271a1.546,1.546,0,0,0,.473-.073A7.823,7.823,0,0,0,67.5,72.188v-22.8a1.563,1.563,0,0,0-3.125,0v22.8a4.688,4.688,0,1,1-9.375,0,1.562,1.562,0,0,0-1.563-1.562H9.365V7.812a4.692,4.692,0,0,1,4.688-4.688H65.942a7.77,7.77,0,0,0-1.567,4.688v29.07a1.563,1.563,0,0,0,3.125,0V9.375H78.438A1.562,1.562,0,0,0,80,7.812,7.822,7.822,0,0,0,72.188,0ZM7.813,76.875A4.7,4.7,0,0,1,3.394,73.75H52.032a7.776,7.776,0,0,0,1.41,3.125ZM67.768,6.25a4.688,4.688,0,0,1,8.839,0Zm0,0" transform="translate(0)" fill="#fff"/>
      <path id="Trazado_633059" data-name="Trazado 633059" d="M292.465,506.938H271.371a1.563,1.563,0,0,0,0,3.125h21.093a1.563,1.563,0,0,0,0-3.125Zm0,0" transform="translate(-236.083 -443.571)" fill="#fff"/>
      <path id="Trazado_633060" data-name="Trazado 633060" d="M292.465,446.938H271.371a1.563,1.563,0,0,0,0,3.125h21.093a1.563,1.563,0,0,0,0-3.125Zm0,0" transform="translate(-236.083 -391.071)" fill="#fff"/>
      <path id="Trazado_633061" data-name="Trazado 633061" d="M130.781,328.5a1.562,1.562,0,0,0-1.562-1.562H112.813a1.563,1.563,0,0,0,0,3.125h16.406A1.562,1.562,0,0,0,130.781,328.5Zm0,0" transform="translate(-97.344 -286.071)" fill="#fff"/>
      <path id="Trazado_633062" data-name="Trazado 633062" d="M129.219,266.938H112.813a1.563,1.563,0,0,0,0,3.125h16.406a1.563,1.563,0,0,0,0-3.125Zm0,0" transform="translate(-97.344 -233.571)" fill="#fff"/>
      <path id="Trazado_633063" data-name="Trazado 633063" d="M325.584,147.5H309.222a1.563,1.563,0,0,0,0,3.125h16.362a1.563,1.563,0,0,0,0-3.125Zm0,0" transform="translate(-269.202 -129.062)" fill="#fff"/>
      <path id="Trazado_633064" data-name="Trazado 633064" d="M325.584,87.5H309.222a1.563,1.563,0,0,0,0,3.125h16.362a1.563,1.563,0,0,0,0-3.125Zm0,0" transform="translate(-269.202 -76.563)" fill="#fff"/>
      <path id="Trazado_633065" data-name="Trazado 633065" d="M122.938,69.433a1.562,1.562,0,0,0-2.021-1.494l-12.5,3.844a1.563,1.563,0,0,0-1.1,1.494v8a4.687,4.687,0,1,0,3.125,4.419V74.431l9.375-2.883v5.888a4.687,4.687,0,1,0,3.125,4.419ZM105.75,87.262a1.563,1.563,0,1,1,1.563-1.563A1.565,1.565,0,0,1,105.75,87.262Zm12.5-3.844a1.563,1.563,0,1,1,1.563-1.563A1.565,1.565,0,0,1,118.251,83.418Zm0,0" transform="translate(-88.43 -59.387)" fill="#fff"/>
      <path id="Trazado_633066" data-name="Trazado 633066" d="M310.43,229a1.563,1.563,0,0,0-2.021-1.494l-12.5,3.844a1.562,1.562,0,0,0-1.1,1.493v8a4.642,4.642,0,0,0-1.562-.27,4.688,4.688,0,1,0,4.688,4.688V234l9.375-2.883V237a4.687,4.687,0,1,0,3.125,4.419Zm-17.188,17.828a1.563,1.563,0,1,1,1.563-1.562A1.564,1.564,0,0,1,293.242,246.826Zm12.5-3.844a1.563,1.563,0,1,1,1.563-1.562A1.564,1.564,0,0,1,305.743,242.983Zm0,0" transform="translate(-252.485 -199.006)" fill="#fff"/>
      <path id="Trazado_633067" data-name="Trazado 633067" d="M136.839,385.964l-2.471-.82a1.562,1.562,0,0,0-2.055,1.482v7.69a4.687,4.687,0,1,0,3.125,4.419v-9.944l.417.138a3.789,3.789,0,0,1,2.5,2.715,1.563,1.563,0,1,0,3.037-.738A6.893,6.893,0,0,0,136.839,385.964ZM130.751,400.3a1.563,1.563,0,1,1,1.563-1.563A1.565,1.565,0,0,1,130.751,400.3Zm0,0" transform="translate(-110.305 -336.931)" fill="#fff"/>
      <path id="Trazado_633068" data-name="Trazado 633068" d="M516.563,332.563a1.564,1.564,0,1,0,1.1.458A1.574,1.574,0,0,0,516.563,332.563Zm0,0" transform="translate(-450.625 -290.992)" fill="#fff"/>
    </g>
  </g>
</svg>
