<svg xmlns="http://www.w3.org/2000/svg" width="171.563" height="171.563" viewBox="0 0 171.563 171.563">
  <g id="Grupo_932080" data-name="Grupo 932080" transform="translate(-1135 -6338.461)">
    <g id="Grupo_929459" data-name="Grupo 929459" transform="translate(1135 6338.461)">
      <g id="Elipse_4803" data-name="Elipse 4803" fill="#406834" stroke="#fff" stroke-width="5">
        <circle cx="85.781" cy="85.781" r="85.781" stroke="none"/>
        <circle cx="85.781" cy="85.781" r="83.281" fill="none"/>
      </g>
    </g>
    <g id="XMLID_1114_" transform="translate(1180 6383.865)">
      <g id="XMLID_1231_" transform="translate(0 0.015)">
        <path id="XMLID_1233_" d="M185.784,108.446a8.82,8.82,0,0,0,6.278-2.6,1.575,1.575,0,0,0-2.227-2.227,5.729,5.729,0,0,1-8.1,0,1.575,1.575,0,1,0-2.227,2.227A8.821,8.821,0,0,0,185.784,108.446Z" transform="translate(-150.849 -86.915)" fill="#fff"/>
        <path id="XMLID_1235_" d="M54.89,105.3a5.691,5.691,0,0,1-4.051-1.678,1.575,1.575,0,1,0-2.227,2.227,8.878,8.878,0,0,0,12.556,0,1.575,1.575,0,0,0-2.227-2.227A5.691,5.691,0,0,1,54.89,105.3Z" transform="translate(-40.568 -86.917)" fill="#fff"/>
        <path id="XMLID_1411_" d="M79.762,31.92a51.99,51.99,0,0,0-23.328-5.553h-.006A51.66,51.66,0,0,0,48.4,27V9.6A1.575,1.575,0,0,0,47.537,8.2,51.593,51.593,0,0,0,31.486,3.16a1.575,1.575,0,1,0-.442,3.118,48.442,48.442,0,0,1,14.208,4.306v17.01a51.91,51.91,0,0,0-12.162,4.325,1.575,1.575,0,0,0-.865,1.406V35.62c-.1-.111-.21-.222-.32-.329a11.009,11.009,0,0,0-18.72,7.638,1.575,1.575,0,0,0,2.46,1.333,15.218,15.218,0,0,1,16.579-.334v9.363A26.241,26.241,0,0,1,24.2,56.373,26.423,26.423,0,0,1,3.15,30.539V10.585a48.556,48.556,0,0,1,14.2-4.3,1.575,1.575,0,1,0-.443-3.118A51.715,51.715,0,0,0,.866,8.2,1.575,1.575,0,0,0,0,9.6V30.539A29.575,29.575,0,0,0,23.9,59.525a1.576,1.576,0,0,0,.6,0,29.433,29.433,0,0,0,7.836-2.7A29.584,29.584,0,0,0,56.126,83.245a1.576,1.576,0,0,0,.6,0,29.576,29.576,0,0,0,23.9-28.986V33.325a1.575,1.575,0,0,0-.865-1.406Zm-55.57,6.566a18.3,18.3,0,0,0-7.167,1.451,7.847,7.847,0,0,1,14.334,0A18.3,18.3,0,0,0,24.193,38.486ZM77.478,54.259A26.422,26.422,0,0,1,56.426,80.093,26.422,26.422,0,0,1,35.375,54.259V34.306a48.845,48.845,0,0,1,42.1,0V54.259Z" transform="translate(0 -2.651)" fill="#fff"/>
        <path id="XMLID_1535_" d="M263.579,258.637a1.575,1.575,0,0,0,2.227-2.227,8.889,8.889,0,0,0-12.556,0,1.575,1.575,0,0,0,2.227,2.227A5.736,5.736,0,0,1,263.579,258.637Z" transform="translate(-212.981 -213.847)" fill="#fff"/>
        <path id="XMLID_1536_" d="M385.259,259.1a1.569,1.569,0,0,0,1.114-.461,5.735,5.735,0,0,1,8.1,0,1.575,1.575,0,0,0,2.227-2.227,8.889,8.889,0,0,0-12.556,0,1.575,1.575,0,0,0,1.113,2.688Z" transform="translate(-323.264 -213.847)" fill="#fff"/>
        <path id="XMLID_1541_" d="M309.557,343.153a1.575,1.575,0,0,0-1.636.083,15.218,15.218,0,0,1-17.094,0,1.575,1.575,0,0,0-2.46,1.333,11.009,11.009,0,0,0,22.015,0,1.576,1.576,0,0,0-.825-1.416Zm-10.183,9.058a7.907,7.907,0,0,1-7.167-4.651,18.421,18.421,0,0,0,14.334,0A7.908,7.908,0,0,1,299.374,352.211Z" transform="translate(-242.956 -288.957)" fill="#fff"/>
        <path id="XMLID_1542_" d="M145.225,3.164A1.576,1.576,0,0,0,146.339.476,1.575,1.575,0,1,0,144.111,2.7,1.587,1.587,0,0,0,145.225,3.164Z" transform="translate(-121.028 -0.015)" fill="#fff"/>
      </g>
    </g>
  </g>
</svg>
