<svg xmlns="http://www.w3.org/2000/svg" xmlns:xlink="http://www.w3.org/1999/xlink" width="110" height="110" viewBox="0 0 110 110">
  <defs>
    <filter id="Elipse_4810" x="0" y="0" width="110" height="110" filterUnits="userSpaceOnUse">
      <feOffset dy="3" input="SourceAlpha"/>
      <feGaussianBlur stdDeviation="3" result="blur"/>
      <feFlood flood-opacity="0.161"/>
      <feComposite operator="in" in2="blur"/>
      <feComposite in="SourceGraphic"/>
    </filter>
  </defs>
  <g id="Grupo_926345" data-name="Grupo 926345" transform="translate(-384 -5217.686)">
    <g transform="matrix(1, 0, 0, 1, 384, 5217.69)" filter="url(#Elipse_4810)">
      <circle id="Elipse_4810-2" data-name="Elipse 4810" cx="46" cy="46" r="46" transform="translate(9 6)" fill="#e8e8e8"/>
    </g>
    <g id="XMLID_2632_" transform="translate(379.46 5240.468)">
      <g id="XMLID_2352_" transform="translate(34.229 0)">
        <g id="XMLID_700_" transform="translate(0 0)">
          <path id="XMLID_701_" d="M168.778,35.3l-3.7-12.062A23.441,23.441,0,0,0,129.64,3.3a1.141,1.141,0,1,0,1.17,1.96,21.158,21.158,0,0,1,31.981,18.148,1.142,1.142,0,0,0,.05.335l3.752,12.215h-5.119a1.141,1.141,0,0,0-1.141,1.141v6.3a5.452,5.452,0,0,1-5.446,5.446h-8.717a10.092,10.092,0,0,1-7.183-2.975,1.141,1.141,0,0,0-1.614,1.614,12.354,12.354,0,0,0,8.463,3.639l-1.677,5.853a1.141,1.141,0,1,0,2.194.629l1.856-6.477h6.678a7.738,7.738,0,0,0,7.729-7.729V38.241H166.6a2.276,2.276,0,0,0,2.175-2.944Z" transform="translate(-118.258 0)"/>
          <path id="XMLID_702_" d="M36.514,102.486a21.125,21.125,0,0,1,3.318-11.048,1.141,1.141,0,0,0-1.922-1.231,23.406,23.406,0,0,0-3.679,12.24A30.364,30.364,0,0,0,37.389,116,18.974,18.974,0,0,1,38.9,128.869l-1.833,7.6a1.141,1.141,0,1,0,2.219.535l1.833-7.6a21.262,21.262,0,0,0-1.681-14.418A28,28,0,0,1,36.514,102.486Z" transform="translate(-34.229 -79.446)"/>
          <path id="XMLID_703_" d="M93.72,55.181a1.141,1.141,0,0,0-.039,1.614h0a1.141,1.141,0,1,0,.038-1.615Z" transform="translate(-86.617 -48.604)"/>
          <path id="XMLID_706_" d="M144.047,140.882a1.141,1.141,0,0,0,1.141-1.141v-20.6A1.141,1.141,0,0,0,144.047,118H133.532a3.4,3.4,0,0,0-2.268.866A3.394,3.394,0,0,0,129,118H118.481a1.141,1.141,0,0,0-1.141,1.141v20.6a1.141,1.141,0,0,0,1.141,1.141ZM132.405,138.6v-1.593a1.128,1.128,0,0,1,1.126-1.126h9.374V138.6h-10.5Zm1.126-18.317h9.374V133.6h-9.374a3.394,3.394,0,0,0-1.126.191v-12.38A1.128,1.128,0,0,1,133.532,120.283Zm-13.909,0H129a1.128,1.128,0,0,1,1.126,1.126v12.38A3.394,3.394,0,0,0,129,133.6h-9.374Zm0,15.6H129a1.128,1.128,0,0,1,1.126,1.126V138.6h-10.5Z" transform="translate(-107.854 -104.533)"/>
          <path id="XMLID_710_" d="M270.482,165.78h3.652a1.141,1.141,0,0,0,0-2.283h-3.652a1.141,1.141,0,0,0,0,2.283Z" transform="translate(-242.507 -144.837)"/>
          <path id="XMLID_711_" d="M270.482,211.276h3.652a1.141,1.141,0,0,0,0-2.283h-3.652a1.141,1.141,0,0,0,0,2.283Z" transform="translate(-242.507 -185.141)"/>
          <path id="XMLID_712_" d="M162.133,163.5h-3.652a1.141,1.141,0,0,0,0,2.283h3.652a1.141,1.141,0,1,0,0-2.283Z" transform="translate(-143.289 -144.837)"/>
          <path id="XMLID_713_" d="M162.133,208.993h-3.652a1.141,1.141,0,1,0,0,2.283h3.652a1.141,1.141,0,1,0,0-2.283Z" transform="translate(-143.289 -185.141)"/>
        </g>
      </g>
    </g>
  </g>
</svg>
