<svg xmlns="http://www.w3.org/2000/svg" width="1030" height="664.715" viewBox="0 0 1030 664.715">
  <g id="Grupo_932065" data-name="Grupo 932065" transform="translate(-285 -2377)">
    <g id="Grupo_927916" data-name="Grupo 927916" transform="translate(-219.769 -780.946)">
      <g id="Grupo_927603" data-name="Grupo 927603" transform="translate(525.054 3230.196)">
        <g id="Grupo_927587" data-name="Grupo 927587" transform="translate(12.714 8.619)">
          <rect id="Rectángulo_335145" data-name="Rectángulo 335145" width="175.838" height="315.881" fill="#ebebeb"/>
        </g>
        <g id="Grupo_927588" data-name="Grupo 927588" transform="translate(19.74 17.779)">
          <rect id="Rectángulo_335146" data-name="Rectángulo 335146" width="159.974" height="297.311" fill="#fafafa"/>
        </g>
        <g id="Grupo_927589" data-name="Grupo 927589" transform="translate(19.74 17.779)">
          <path id="Trazado_620702" data-name="Trazado 620702" d="M691.962,3231.036,531.988,3434.53v-207H691.962Z" transform="translate(-531.988 -3227.533)" fill="#f5f5f5"/>
        </g>
        <g id="Grupo_927590" data-name="Grupo 927590" transform="translate(19.74 103.307)">
          <rect id="Rectángulo_335147" data-name="Rectángulo 335147" width="163.448" height="3.166" fill="#ebebeb"/>
        </g>
        <g id="Grupo_927591" data-name="Grupo 927591" transform="translate(19.74 174.108)">
          <rect id="Rectángulo_335148" data-name="Rectángulo 335148" width="163.448" height="3.166" fill="#ebebeb"/>
        </g>
        <g id="Grupo_927592" data-name="Grupo 927592" transform="translate(19.74 244.91)">
          <rect id="Rectángulo_335149" data-name="Rectángulo 335149" width="163.448" height="3.165" fill="#ebebeb"/>
        </g>
        <g id="Grupo_927593" data-name="Grupo 927593" transform="translate(95.686 104.89)">
          <rect id="Rectángulo_335150" data-name="Rectángulo 335150" width="218.631" height="8.083" transform="translate(0 218.631) rotate(-90)" fill="#ebebeb"/>
        </g>
        <g id="Grupo_927594" data-name="Grupo 927594" transform="translate(50.544 17.779)">
          <rect id="Rectángulo_335151" data-name="Rectángulo 335151" width="3.661" height="87.111" fill="#ebebeb"/>
        </g>
        <g id="Grupo_927595" data-name="Grupo 927595" transform="translate(82.124 17.779)">
          <rect id="Rectángulo_335152" data-name="Rectángulo 335152" width="3.661" height="87.111" fill="#ebebeb"/>
        </g>
        <g id="Grupo_927596" data-name="Grupo 927596" transform="translate(113.704 17.779)">
          <rect id="Rectángulo_335153" data-name="Rectángulo 335153" width="3.662" height="87.111" fill="#ebebeb"/>
        </g>
        <g id="Grupo_927597" data-name="Grupo 927597" transform="translate(145.285 17.779)">
          <rect id="Rectángulo_335154" data-name="Rectángulo 335154" width="3.661" height="87.111" fill="#ebebeb"/>
        </g>
        <g id="Grupo_927598" data-name="Grupo 927598" transform="translate(5.276 3.262)">
          <rect id="Rectángulo_335155" data-name="Rectángulo 335155" width="7.437" height="323.194" fill="#f5f5f5"/>
        </g>
        <g id="Grupo_927599" data-name="Grupo 927599" transform="translate(188.552 3.262)">
          <path id="Trazado_620703" data-name="Trazado 620703" d="M654.227,3541.747l-7.437-2.848V3217.661h7.437Z" transform="translate(-646.79 -3217.661)" fill="#e0e0e0"/>
        </g>
        <g id="Grupo_927600" data-name="Grupo 927600" transform="translate(5.276)">
          <rect id="Rectángulo_335156" data-name="Rectángulo 335156" width="190.713" height="8.619" fill="#e0e0e0"/>
        </g>
        <g id="Grupo_927601" data-name="Grupo 927601" transform="translate(0 328.411)">
          <rect id="Rectángulo_335157" data-name="Rectángulo 335157" width="201.024" height="8.03" fill="#e0e0e0"/>
        </g>
        <g id="Grupo_927602" data-name="Grupo 927602" transform="translate(0 324.5)">
          <path id="Trazado_620704" data-name="Trazado 620704" d="M707.116,3436.122l12.472,3.911H518.564l12.714-3.911Z" transform="translate(-518.564 -3436.122)" fill="#ebebeb"/>
        </g>
      </g>
      <g id="Grupo_927641" data-name="Grupo 927641" transform="translate(1421.953 3435.684)">
        <g id="Grupo_927619" data-name="Grupo 927619" transform="translate(0)">
          <g id="Grupo_927604" data-name="Grupo 927604">
            <path id="Trazado_620705" data-name="Trazado 620705" d="M1176.542,3355.232s-12.428-.9-11.284,26.986,3.988,42.73,3.988,42.73-.365,6.182-5.153,4.969-13.795-7.231-18.243-2.733c-4.613,4.664-2.973,11.818,3.147,20.244s18.849,27.38,19.992,29.1c1.123,1.688,1.575,4.849-1.819,4.546s-26.3-8.068-29.336,3.022,17.871,31.765,20.113,34.068,2.363,3.759,1.453,5.153-8.364-1.942-14.969-3.884-14.606-3.033-15.821,3.512,7.994,25.7,42.476,45.832l16.588,8.282,15.7-10.015c32.3-23.479,39.541-43.459,37.678-49.85s-9.714-4.5-16.091-1.911-13.462,6.657-14.506,5.362-1.071-2.756.931-5.272,20.732-25.178,16.6-35.909-26.145-.715-29.492-.074-3.214-2.55-2.264-4.341c.966-1.823,11.736-21.955,16.982-30.952s6.163-16.278,1.1-20.457c-4.874-4.03-13.234,2.857-17.878,4.544s-5.623-4.429-5.623-4.429,1.344-15.061-.306-42.916-14.225-25.606-14.225-25.606" transform="translate(-1128.508 -3355.187)" fill="#ebebeb"/>
          </g>
          <g id="Grupo_927606" data-name="Grupo 927606" transform="translate(49.012 25.015)">
            <g id="Grupo_927605" data-name="Grupo 927605">
              <path id="Trazado_620706" data-name="Trazado 620706" d="M1161.843,3372.2s.032.2.066.583l.132,1.71.447,6.585c.379,5.718.869,14,1.434,24.227,1.138,20.461,2.466,48.74,3.83,79.976s2.623,59.528,3.645,79.994c.519,10.211.939,18.484,1.232,24.236l.328,6.589c.029.732.053,1.3.069,1.715.012.387,0,.585,0,.585s-.032-.2-.066-.58c-.032-.413-.075-.98-.132-1.712-.1-1.535-.255-3.747-.445-6.583-.381-5.717-.871-13.994-1.435-24.226-1.137-20.461-2.466-48.743-3.831-79.99s-2.623-59.514-3.645-79.98c-.519-10.211-.94-18.485-1.232-24.236l-.328-6.591c-.029-.732-.053-1.3-.069-1.716C1161.833,3372.4,1161.843,3372.2,1161.843,3372.2Z" transform="translate(-1161.839 -3372.198)" fill="#e0e0e0"/>
            </g>
          </g>
          <g id="Grupo_927608" data-name="Grupo 927608" transform="translate(29.601 80.918)">
            <g id="Grupo_927607" data-name="Grupo 927607">
              <path id="Trazado_620707" data-name="Trazado 620707" d="M1148.641,3410.218a5.461,5.461,0,0,1,1.033.858c.638.58,1.533,1.447,2.63,2.529,2.19,2.169,5.133,5.244,8.319,8.7l8.113,8.877q1.453,1.576,2.47,2.678a5.412,5.412,0,0,1,.863,1.027,5.552,5.552,0,0,1-1.038-.851c-.637-.582-1.534-1.448-2.62-2.542-2.167-2.191-5.07-5.3-8.254-8.757l-8.174-8.814-2.484-2.667A5.435,5.435,0,0,1,1148.641,3410.218Z" transform="translate(-1148.638 -3410.216)" fill="#e0e0e0"/>
            </g>
          </g>
          <g id="Grupo_927610" data-name="Grupo 927610" transform="translate(54.676 77.106)">
            <g id="Grupo_927609" data-name="Grupo 927609">
              <path id="Trazado_620708" data-name="Trazado 620708" d="M1165.693,3435.556c-.125-.123,5.941-6.477,13.547-14.188s13.877-13.866,14-13.743-5.939,6.474-13.549,14.188S1165.816,3435.678,1165.693,3435.556Z" transform="translate(-1165.691 -3407.623)" fill="#e0e0e0"/>
            </g>
          </g>
          <g id="Grupo_927612" data-name="Grupo 927612" transform="translate(54.608 134.968)">
            <g id="Grupo_927611" data-name="Grupo 927611">
              <path id="Trazado_620709" data-name="Trazado 620709" d="M1165.645,3465.113a5.787,5.787,0,0,1,1.156-.736q1.33-.745,3.245-1.82c2.738-1.539,6.511-3.676,10.59-6.185s7.708-4.886,10.317-6.633l3.1-2.065a5.778,5.778,0,0,1,1.179-.7,5.591,5.591,0,0,1-1.035.9c-.691.544-1.705,1.313-2.982,2.233-2.55,1.844-6.142,4.3-10.242,6.806s-7.913,4.6-10.711,6.038c-1.4.714-2.542,1.277-3.344,1.644A5.558,5.558,0,0,1,1165.645,3465.113Z" transform="translate(-1165.645 -3446.973)" fill="#e0e0e0"/>
            </g>
          </g>
          <g id="Grupo_927614" data-name="Grupo 927614" transform="translate(27.127 136.281)">
            <g id="Grupo_927613" data-name="Grupo 927613">
              <path id="Trazado_620710" data-name="Trazado 620710" d="M1146.956,3447.87a4.84,4.84,0,0,1,1.149.538c.716.383,1.744.954,3.007,1.672,2.525,1.434,5.99,3.454,9.8,5.719s7.24,4.347,9.706,5.88c1.234.768,2.226,1.4,2.9,1.845a4.885,4.885,0,0,1,1.02.75,4.8,4.8,0,0,1-1.147-.538c-.718-.383-1.744-.953-3.007-1.671-2.525-1.435-5.992-3.455-9.8-5.72s-7.239-4.347-9.7-5.881c-1.234-.766-2.226-1.4-2.9-1.844A4.935,4.935,0,0,1,1146.956,3447.87Z" transform="translate(-1146.955 -3447.866)" fill="#e0e0e0"/>
            </g>
          </g>
          <g id="Grupo_927616" data-name="Grupo 927616" transform="translate(21.676 178.712)">
            <g id="Grupo_927615" data-name="Grupo 927615">
              <path id="Trazado_620711" data-name="Trazado 620711" d="M1143.249,3476.725a7.789,7.789,0,0,1,1.459.706l3.862,2.129c3.245,1.822,7.708,4.377,12.617,7.233s9.337,5.473,12.525,7.4l3.759,2.3a7.84,7.84,0,0,1,1.335.921,7.979,7.979,0,0,1-1.458-.708l-3.862-2.129c-3.245-1.822-7.708-4.377-12.618-7.235s-9.336-5.471-12.524-7.393l-3.759-2.3A8.084,8.084,0,0,1,1143.249,3476.725Z" transform="translate(-1143.248 -3476.721)" fill="#e0e0e0"/>
            </g>
          </g>
          <g id="Grupo_927618" data-name="Grupo 927618" transform="translate(56.52 174.637)">
            <g id="Grupo_927617" data-name="Grupo 927617">
              <path id="Trazado_620712" data-name="Trazado 620712" d="M1166.945,3497.982a9.318,9.318,0,0,1,1.443-.966l4.032-2.454c3.4-2.075,8.095-4.954,13.184-8.275s9.633-6.433,12.9-8.711l3.877-2.694a9.253,9.253,0,0,1,1.466-.929,9.018,9.018,0,0,1-1.319,1.128c-.875.695-2.157,1.675-3.762,2.86-3.207,2.374-7.711,5.558-12.818,8.879s-9.838,6.151-13.3,8.129c-1.735.984-3.148,1.766-4.136,2.282A9.04,9.04,0,0,1,1166.945,3497.982Z" transform="translate(-1166.945 -3473.95)" fill="#e0e0e0"/>
            </g>
          </g>
        </g>
        <g id="Grupo_927640" data-name="Grupo 927640" transform="translate(35.56 227.297)">
          <g id="Grupo_927621" data-name="Grupo 927621">
            <g id="Grupo_927620" data-name="Grupo 927620">
              <path id="Trazado_620713" data-name="Trazado 620713" d="M1198.583,3509.762h-45.892l14.978,113.383H1183.6Z" transform="translate(-1152.691 -3509.762)" fill="#e0e0e0"/>
            </g>
          </g>
          <g id="Grupo_927624" data-name="Grupo 927624" transform="translate(2.378 9.263)">
            <g id="Grupo_927623" data-name="Grupo 927623">
              <g id="Grupo_927622" data-name="Grupo 927622">
                <path id="Trazado_620714" data-name="Trazado 620714" d="M1154.311,3520.735c-.018.012.051.16.245.4a2.9,2.9,0,0,0,1.107.793,5.557,5.557,0,0,0,4.847-.6c1.853-1.021,3.468-3.031,5.951-3.917a13.012,13.012,0,0,1,8.439.167,36.176,36.176,0,0,1,7.858,3.806,54.47,54.47,0,0,0,6.391,3.429,17.588,17.588,0,0,0,4.713,1.362,8.784,8.784,0,0,0,1.332.091c.3,0,.463-.014.465-.04a23.991,23.991,0,0,1-6.3-1.9,62.915,62.915,0,0,1-6.25-3.537,34.832,34.832,0,0,0-7.992-3.932,13.466,13.466,0,0,0-8.907-.1,11.722,11.722,0,0,0-3.353,2.071,26.3,26.3,0,0,1-2.626,2.037,5.4,5.4,0,0,1-4.47.774A4.6,4.6,0,0,1,1154.311,3520.735Z" transform="translate(-1154.308 -3516.062)" fill="#f5f5f5"/>
              </g>
            </g>
          </g>
          <g id="Grupo_927627" data-name="Grupo 927627" transform="translate(4.051 26.498)">
            <g id="Grupo_927626" data-name="Grupo 927626">
              <g id="Grupo_927625" data-name="Grupo 927625">
                <path id="Trazado_620715" data-name="Trazado 620715" d="M1155.45,3536.1c.062.038.363-.468,1.081-1.217a10.232,10.232,0,0,1,3.666-2.323,16.335,16.335,0,0,1,6.382-.962,67.276,67.276,0,0,1,7.986,1.089,27.472,27.472,0,0,0,8.176.338,22.5,22.5,0,0,0,6.435-1.837,20.551,20.551,0,0,0,3.869-2.3,5.557,5.557,0,0,0,1.225-1.1,40.807,40.807,0,0,1-5.306,2.917,23.467,23.467,0,0,1-6.305,1.636,28.1,28.1,0,0,1-7.976-.393,60.1,60.1,0,0,0-8.083-1.038,16.172,16.172,0,0,0-6.6,1.16,9.63,9.63,0,0,0-3.682,2.619,6.635,6.635,0,0,0-.7,1.018C1155.487,3535.956,1155.428,3536.092,1155.45,3536.1Z" transform="translate(-1155.446 -3527.782)" fill="#f5f5f5"/>
              </g>
            </g>
          </g>
          <g id="Grupo_927630" data-name="Grupo 927630" transform="translate(6.653 42.835)">
            <g id="Grupo_927629" data-name="Grupo 927629">
              <g id="Grupo_927628" data-name="Grupo 927628">
                <path id="Trazado_620716" data-name="Trazado 620716" d="M1191.256,3542.058a3.849,3.849,0,0,0-1.265-.658,13.565,13.565,0,0,0-3.8-.815,24.3,24.3,0,0,0-5.749.329c-2.141.347-4.435.938-6.843,1.45a28.846,28.846,0,0,1-6.835.771,14.887,14.887,0,0,1-5.426-1.174,12.518,12.518,0,0,1-4.115-3.063,3.553,3.553,0,0,0,.777,1.2,9.71,9.71,0,0,0,3.116,2.345,14.619,14.619,0,0,0,5.617,1.382,27.532,27.532,0,0,0,7.019-.728c2.436-.518,4.714-1.126,6.808-1.5a26.238,26.238,0,0,1,5.6-.479A20.985,20.985,0,0,1,1191.256,3542.058Z" transform="translate(-1157.215 -3538.892)" fill="#f5f5f5"/>
              </g>
            </g>
          </g>
          <g id="Grupo_927633" data-name="Grupo 927633" transform="translate(8.11 59.058)">
            <g id="Grupo_927632" data-name="Grupo 927632">
              <g id="Grupo_927631" data-name="Grupo 927631">
                <path id="Trazado_620717" data-name="Trazado 620717" d="M1158.207,3552.593a7.419,7.419,0,0,1,4.456-.45,21.419,21.419,0,0,1,4.661,1.738,17.729,17.729,0,0,0,6.051,1.668,18.161,18.161,0,0,0,10.979-2.543,15.588,15.588,0,0,0,2.732-2.1c.559-.594.846-.937.809-.972a40.285,40.285,0,0,1-3.807,2.615,18.808,18.808,0,0,1-10.646,2.258c-4.344-.249-7.679-2.84-10.692-3.182a6.818,6.818,0,0,0-3.461.3C1158.512,3552.224,1158.184,3552.565,1158.207,3552.593Z" transform="translate(-1158.206 -3549.925)" fill="#f5f5f5"/>
              </g>
            </g>
          </g>
          <g id="Grupo_927636" data-name="Grupo 927636" transform="translate(10.667 77.147)">
            <g id="Grupo_927635" data-name="Grupo 927635">
              <g id="Grupo_927634" data-name="Grupo 927634">
                <path id="Trazado_620718" data-name="Trazado 620718" d="M1159.945,3568.567a8.783,8.783,0,0,0,3.826-.761c2.307-.771,5.163-2.54,8.5-3.864a13.831,13.831,0,0,1,4.876-1.021,8.983,8.983,0,0,1,3.92.894,8.652,8.652,0,0,1,2.835,2.447,2.071,2.071,0,0,0-.435-.967,6.289,6.289,0,0,0-2.15-1.947,9.019,9.019,0,0,0-4.16-1.118,13.7,13.7,0,0,0-5.154,1.013c-3.456,1.376-6.22,3.2-8.423,4.071C1161.4,3568.253,1159.927,3568.447,1159.945,3568.567Z" transform="translate(-1159.945 -3562.226)" fill="#f5f5f5"/>
              </g>
            </g>
          </g>
          <g id="Grupo_927639" data-name="Grupo 927639" transform="translate(12.916 93.584)">
            <g id="Grupo_927638" data-name="Grupo 927638">
              <g id="Grupo_927637" data-name="Grupo 927637">
                <path id="Trazado_620719" data-name="Trazado 620719" d="M1161.475,3573.433a10.726,10.726,0,0,0,2.906.944,53.471,53.471,0,0,0,14.628,1.437,10.772,10.772,0,0,0,3.033-.359c-.012-.227-4.651-.028-10.324-.6C1166.044,3574.311,1161.531,3573.214,1161.475,3573.433Z" transform="translate(-1161.475 -3573.405)" fill="#f5f5f5"/>
              </g>
            </g>
          </g>
        </g>
      </g>
      <g id="Grupo_927645" data-name="Grupo 927645" transform="translate(1335.661 3251.808)">
        <g id="Grupo_927642" data-name="Grupo 927642">
          <rect id="Rectángulo_335158" data-name="Rectángulo 335158" width="141.698" height="93.162" fill="#e0e0e0"/>
        </g>
        <g id="Grupo_927643" data-name="Grupo 927643" transform="translate(4.929 3.809)">
          <rect id="Rectángulo_335159" data-name="Rectángulo 335159" width="131.767" height="85.187" fill="#fafafa"/>
        </g>
        <g id="Grupo_927644" data-name="Grupo 927644" transform="translate(49.319 34.861)">
          <rect id="Rectángulo_335160" data-name="Rectángulo 335160" width="42.986" height="23.441" fill="#e0e0e0"/>
        </g>
      </g>
      <g id="Grupo_927647" data-name="Grupo 927647" transform="translate(504.769 3777.482)">
        <g id="Grupo_927646" data-name="Grupo 927646">
          <path id="Trazado_620720" data-name="Trazado 620720" d="M1517.176,3588.012c0,.212-226.652.384-506.18.384-279.623,0-506.227-.172-506.227-.384s226.6-.382,506.227-.382C1290.524,3587.63,1517.176,3587.8,1517.176,3588.012Z" transform="translate(-504.769 -3587.63)" fill="#263238"/>
        </g>
      </g>
      <g id="Grupo_927666" data-name="Grupo 927666" transform="translate(886.124 3184.085)">
        <g id="Grupo_927648" data-name="Grupo 927648">
          <path id="Rectángulo_335161" data-name="Rectángulo 335161" d="M0,0H303.441a0,0,0,0,1,0,0V296.63a16.22,16.22,0,0,1-16.22,16.22H0a0,0,0,0,1,0,0V0A0,0,0,0,1,0,0Z" fill="#ebebeb"/>
        </g>
        <g id="Grupo_927663" data-name="Grupo 927663" transform="translate(33.405 91.963)">
          <g id="Grupo_927650" data-name="Grupo 927650">
            <g id="Grupo_927649" data-name="Grupo 927649">
              <path id="Trazado_620721" data-name="Trazado 620721" d="M1031.809,3247.774c0,.634-54.845,1.148-122.484,1.148-67.662,0-122.5-.515-122.5-1.148s54.833-1.148,122.5-1.148C976.964,3246.625,1031.809,3247.138,1031.809,3247.774Z" transform="translate(-786.83 -3246.625)" fill="#455a64"/>
            </g>
          </g>
          <g id="Grupo_927652" data-name="Grupo 927652" transform="translate(2.911 21.192)">
            <g id="Grupo_927651" data-name="Grupo 927651">
              <path id="Trazado_620722" data-name="Trazado 620722" d="M909.844,3262.186c0,.635-27.1,1.149-60.514,1.149s-60.52-.514-60.52-1.149,27.09-1.148,60.52-1.148S909.844,3261.552,909.844,3262.186Z" transform="translate(-788.81 -3261.037)" fill="#455a64"/>
            </g>
          </g>
          <g id="Grupo_927654" data-name="Grupo 927654" transform="translate(140.301 19.229)">
            <g id="Grupo_927653" data-name="Grupo 927653">
              <path id="Trazado_620723" data-name="Trazado 620723" d="M914.3,3260.85c0,.636-7.177,1.148-16.028,1.148s-16.029-.513-16.029-1.148,7.174-1.148,16.029-1.148S914.3,3260.216,914.3,3260.85Z" transform="translate(-882.243 -3259.702)" fill="#455a64"/>
            </g>
          </g>
          <g id="Grupo_927656" data-name="Grupo 927656" transform="translate(188.06 17.921)">
            <g id="Grupo_927655" data-name="Grupo 927655">
              <path id="Trazado_620724" data-name="Trazado 620724" d="M978.183,3259.96c0,.635-14.208,1.15-31.73,1.15s-31.731-.515-31.731-1.15,14.2-1.148,31.731-1.148S978.183,3259.327,978.183,3259.96Z" transform="translate(-914.722 -3258.812)" fill="#455a64"/>
            </g>
          </g>
          <g id="Grupo_927658" data-name="Grupo 927658" transform="translate(0 41.473)">
            <g id="Grupo_927657" data-name="Grupo 927657">
              <path id="Trazado_620725" data-name="Trazado 620725" d="M900.667,3275.978c0,.635-25.486,1.15-56.916,1.15s-56.922-.515-56.922-1.15,25.48-1.148,56.922-1.148S900.667,3275.344,900.667,3275.978Z" transform="translate(-786.83 -3274.829)" fill="#455a64"/>
            </g>
          </g>
          <g id="Grupo_927660" data-name="Grupo 927660" transform="translate(127.215 40.889)">
            <g id="Grupo_927659" data-name="Grupo 927659">
              <path id="Trazado_620726" data-name="Trazado 620726" d="M997.649,3275.58c0,.634-27.828,1.149-62.149,1.149s-62.156-.515-62.156-1.149,27.823-1.148,62.156-1.148S997.649,3274.947,997.649,3275.58Z" transform="translate(-873.344 -3274.432)" fill="#455a64"/>
            </g>
          </g>
          <g id="Grupo_927662" data-name="Grupo 927662" transform="translate(196.174 61.298)">
            <g id="Grupo_927661" data-name="Grupo 927661">
              <path id="Trazado_620727" data-name="Trazado 620727" d="M975.587,3289.46c0,.635-12.391,1.148-27.671,1.148s-27.676-.513-27.676-1.148,12.389-1.149,27.676-1.149S975.587,3288.826,975.587,3289.46Z" transform="translate(-920.24 -3288.311)" fill="#455a64"/>
            </g>
          </g>
        </g>
        <g id="Grupo_927665" data-name="Grupo 927665" transform="translate(36.316 69.246)">
          <g id="Grupo_927664" data-name="Grupo 927664">
            <path id="Trazado_620728" data-name="Trazado 620728" d="M922.925,3232.324c0,.634-30.025,1.148-67.055,1.148s-67.06-.515-67.06-1.148,30.018-1.149,67.06-1.149S922.925,3231.689,922.925,3232.324Z" transform="translate(-788.81 -3231.176)" fill="#ff4f5b"/>
          </g>
        </g>
      </g>
      <g id="Grupo_927687" data-name="Grupo 927687" transform="translate(608.712 3359.318)">
        <g id="Grupo_927682" data-name="Grupo 927682">
          <g id="Grupo_927681" data-name="Grupo 927681">
            <g id="Grupo_927680" data-name="Grupo 927680">
              <g id="Grupo_927669" data-name="Grupo 927669" transform="translate(25.478)">
                <g id="Grupo_927668" data-name="Grupo 927668">
                  <g id="Grupo_927667" data-name="Grupo 927667">
                    <rect id="Rectángulo_335162" data-name="Rectángulo 335162" width="630.336" height="416.835" rx="14.567" fill="#263238"/>
                  </g>
                </g>
              </g>
              <g id="Grupo_927672" data-name="Grupo 927672" transform="translate(0 386.006)">
                <g id="Grupo_927671" data-name="Grupo 927671">
                  <g id="Grupo_927670" data-name="Grupo 927670">
                    <path id="Rectángulo_335163" data-name="Rectángulo 335163" d="M0,0H682.921a0,0,0,0,1,0,0V18.675a17.8,17.8,0,0,1-17.8,17.8H17.8A17.8,17.8,0,0,1,0,18.675V0A0,0,0,0,1,0,0Z" fill="#263238"/>
                  </g>
                </g>
              </g>
              <g id="Grupo_927675" data-name="Grupo 927675" transform="translate(43.28 16.561)">
                <g id="Grupo_927674" data-name="Grupo 927674">
                  <g id="Grupo_927673" data-name="Grupo 927673">
                    <rect id="Rectángulo_335164" data-name="Rectángulo 335164" width="594.734" height="352.011" fill="#455a64"/>
                  </g>
                </g>
              </g>
              <g id="Grupo_927679" data-name="Grupo 927679" transform="translate(279.389 385.597)">
                <g id="Grupo_927678" data-name="Grupo 927678">
                  <g id="Grupo_927677" data-name="Grupo 927677">
                    <g id="Grupo_927676" data-name="Grupo 927676">
                      <path id="Trazado_620729" data-name="Trazado 620729" d="M765.457,3565.891c-.012-.007.21-.014.657-.021l2-.02,7.767-.044,28.817-.117c24.527-.054,58.479-.125,96.351-.206h.712l-.36.615-3.823,6.552c-1.373,2.351-2.738,4.689-4.045,6.927l-.118.2h-.234l-119.247-.223h-.1l-.053-.086-6.245-10.156c-.678-1.108-1.2-1.963-1.569-2.572-.349-.572-.5-.85-.5-.85s.213.309.593.892c.394.609.947,1.466,1.668,2.578,1.463,2.277,3.6,5.6,6.37,9.911l-.156-.087,119.247-.222-.353.2c1.307-2.238,2.67-4.575,4.044-6.927l3.826-6.552.352.613c-37.717-.081-71.531-.155-95.957-.206l-28.953-.118-7.886-.044-2.066-.021C765.715,3565.9,765.457,3565.891,765.457,3565.891Z" transform="translate(-765.457 -3565.482)" fill="#455a64"/>
                    </g>
                  </g>
                </g>
              </g>
            </g>
          </g>
        </g>
        <g id="Grupo_927686" data-name="Grupo 927686" transform="translate(25.478 385.622)">
          <g id="Grupo_927683" data-name="Grupo 927683" transform="translate(0 0.384)">
            <line id="Línea_267" data-name="Línea 267" x2="630.336" fill="#263238"/>
          </g>
          <g id="Grupo_927685" data-name="Grupo 927685" transform="translate(0)">
            <g id="Grupo_927684" data-name="Grupo 927684">
              <path id="Trazado_620730" data-name="Trazado 620730" d="M1223.119,3565.883c0,.212-141.117.382-315.152.382-174.1,0-315.183-.17-315.183-.382s141.086-.384,315.183-.384C1082,3565.5,1223.119,3565.671,1223.119,3565.883Z" transform="translate(-592.783 -3565.499)" fill="#455a64"/>
            </g>
          </g>
        </g>
      </g>
      <g id="Grupo_927748" data-name="Grupo 927748" transform="translate(735.169 3305.086)">
        <g id="Grupo_927688" data-name="Grupo 927688" transform="translate(333.444 0.493)">
          <path id="Trazado_620731" data-name="Trazado 620731" d="M923.26,3266.708h0a17.608,17.608,0,0,1,17.607,17.607v36.132H888.216v-33.334a20.406,20.406,0,0,1,20.407-20.406Z" transform="translate(-888.216 -3266.708)" fill="#263238"/>
        </g>
        <g id="Grupo_927690" data-name="Grupo 927690" transform="translate(146.59)">
          <g id="Grupo_927689" data-name="Grupo 927689">
            <path id="Trazado_620732" data-name="Trazado 620732" d="M983.043,3266.866c0,.211-49.678.34-110.945.285-61.287-.055-110.954-.269-110.954-.481s49.666-.338,110.955-.285C933.364,3266.439,983.043,3266.654,983.043,3266.866Z" transform="translate(-761.144 -3266.373)" fill="#263238"/>
          </g>
        </g>
        <g id="Grupo_927691" data-name="Grupo 927691" transform="translate(43.844 0.297)">
          <path id="Trazado_620733" data-name="Trazado 620733" d="M1015.452,3266.726l-21.957-.151-31.894.2H727.3a36.025,36.025,0,0,0-36.025,36.025v387.13h303.44V3286.52C995.6,3266.771,1015.452,3266.726,1015.452,3266.726Z" transform="translate(-691.271 -3266.575)" fill="#fafafa"/>
        </g>
        <g id="Grupo_927692" data-name="Grupo 927692" transform="translate(43.112 0.052)">
          <path id="Trazado_620734" data-name="Trazado 620734" d="M1015.686,3266.8l-182.964.4-91.482.069-11.436.007c-1.916-.037-3.794.075-5.673.175a37.279,37.279,0,0,0-5.548,1.012,35.349,35.349,0,0,0-24.258,21.758c-.3.892-.7,1.75-.91,2.668l-.7,2.734a38.747,38.747,0,0,0-.656,5.6c-.162,7.576-.035,15.234-.068,22.847l.244,365.93-.731-.731,303.44.2-.534.533.147-217.634.175-108.814.106-54.406.026-13.6.013-6.8a22.227,22.227,0,0,1,.143-3.4,18.241,18.241,0,0,1,.534-3.36,18,18,0,0,1,7.348-11.078,21.286,21.286,0,0,1,6.1-2.947A25.718,25.718,0,0,1,1015.686,3266.8Zm0,0a25.688,25.688,0,0,0-6.673,1.187,21.253,21.253,0,0,0-6.079,2.966,17.922,17.922,0,0,0-7.276,11.06,18.291,18.291,0,0,0-.517,3.344,22.277,22.277,0,0,0-.128,3.391l.013,6.8.026,13.6.106,54.41.175,108.816L995.481,3690v.536h-.535l-303.44.2h-.732V3690l.244-365.93c.044-7.632-.074-15.228.1-22.891a39.77,39.77,0,0,1,.682-5.744l.722-2.8a28.685,28.685,0,0,1,.937-2.738,36.268,36.268,0,0,1,24.9-22.281,38.023,38.023,0,0,1,5.686-1.028c1.928-.1,3.857-.212,5.755-.172l11.434.007,91.483.069Z" transform="translate(-690.773 -3266.408)" fill="#263238"/>
        </g>
        <g id="Grupo_927693" data-name="Grupo 927693" transform="translate(89.467 70.146)">
          <path id="Trazado_620735" data-name="Trazado 620735" d="M722.382,3314.076h52.951l.085,17.737h-2.533q-1.246-9.52-7.127-12.879-3.309-1.852-9.879-2.024v46.332q0,4.856,1.7,6.446t7.064,1.592v2.232H733.29v-2.232q5.152,0,6.851-1.612t1.7-6.426v-46.332q-6.441.174-9.877,2.024-6.313,3.449-7.127,12.879H722.3Z" transform="translate(-722.297 -3314.076)" fill="#eb6f2d"/>
        </g>
        <g id="Grupo_927695" data-name="Grupo 927695" transform="translate(175.176 72.997)">
          <g id="Grupo_927694" data-name="Grupo 927694">
            <path id="Trazado_620736" data-name="Trazado 620736" d="M911.055,3317.163c0,.636-29.209,1.149-65.233,1.149s-65.239-.513-65.239-1.149,29.2-1.148,65.239-1.148S911.055,3316.53,911.055,3317.163Z" transform="translate(-780.584 -3316.015)" fill="#eb6f2d"/>
          </g>
        </g>
        <g id="Grupo_927697" data-name="Grupo 927697" transform="translate(177.793 93.842)">
          <g id="Grupo_927696" data-name="Grupo 927696">
            <path id="Trazado_620737" data-name="Trazado 620737" d="M832.81,3331.339c0,.634-11.293,1.148-25.221,1.148s-25.224-.515-25.224-1.148,11.29-1.148,25.224-1.148S832.81,3330.7,832.81,3331.339Z" transform="translate(-782.364 -3330.191)" fill="#455a64"/>
          </g>
        </g>
        <g id="Grupo_927699" data-name="Grupo 927699" transform="translate(68.852 157.43)">
          <g id="Grupo_927698" data-name="Grupo 927698">
            <path id="Trazado_620738" data-name="Trazado 620738" d="M804.082,3374.583c0,.635-21.448,1.15-47.9,1.15s-47.9-.515-47.9-1.15,21.444-1.149,47.9-1.149S804.082,3373.949,804.082,3374.583Z" transform="translate(-708.278 -3373.434)" fill="#455a64"/>
          </g>
        </g>
        <g id="Grupo_927701" data-name="Grupo 927701" transform="translate(177.339 157.43)">
          <g id="Grupo_927700" data-name="Grupo 927700">
            <path id="Trazado_620739" data-name="Trazado 620739" d="M877.859,3374.583c0,.635-21.447,1.15-47.9,1.15s-47.9-.515-47.9-1.15,21.444-1.149,47.9-1.149S877.859,3373.949,877.859,3374.583Z" transform="translate(-782.055 -3373.434)" fill="#eb6f2d"/>
          </g>
        </g>
        <g id="Grupo_927703" data-name="Grupo 927703" transform="translate(68.852 174.412)">
          <g id="Grupo_927702" data-name="Grupo 927702">
            <path id="Trazado_620740" data-name="Trazado 620740" d="M804.082,3386.131c0,.634-21.448,1.149-47.9,1.149s-47.9-.515-47.9-1.149,21.444-1.148,47.9-1.148S804.082,3385.5,804.082,3386.131Z" transform="translate(-708.278 -3384.983)" fill="#455a64"/>
          </g>
        </g>
        <g id="Grupo_927705" data-name="Grupo 927705" transform="translate(68.852 191.393)">
          <g id="Grupo_927704" data-name="Grupo 927704">
            <path id="Trazado_620741" data-name="Trazado 620741" d="M804.082,3397.68c0,.635-21.448,1.15-47.9,1.15s-47.9-.515-47.9-1.15,21.444-1.149,47.9-1.149S804.082,3397.046,804.082,3397.68Z" transform="translate(-708.278 -3396.531)" fill="#eb6f2d"/>
          </g>
        </g>
        <g id="Grupo_927707" data-name="Grupo 927707" transform="translate(177.793 128.432)">
          <g id="Grupo_927706" data-name="Grupo 927706">
            <path id="Trazado_620742" data-name="Trazado 620742" d="M832.81,3354.863c0,.635-11.293,1.148-25.221,1.148s-25.224-.513-25.224-1.148,11.29-1.149,25.224-1.149S832.81,3354.229,832.81,3354.863Z" transform="translate(-782.364 -3353.714)" fill="#455a64"/>
          </g>
        </g>
        <g id="Grupo_927709" data-name="Grupo 927709" transform="translate(282.097 157.43)">
          <g id="Grupo_927708" data-name="Grupo 927708">
            <path id="Trazado_620743" data-name="Trazado 620743" d="M886.928,3374.583c0,.635-7.529,1.15-16.815,1.15s-16.816-.515-16.816-1.15,7.527-1.149,16.816-1.149S886.928,3373.949,886.928,3374.583Z" transform="translate(-853.297 -3373.434)" fill="#455a64"/>
          </g>
        </g>
        <g id="Grupo_927711" data-name="Grupo 927711" transform="translate(238.169 93.842)">
          <g id="Grupo_927710" data-name="Grupo 927710">
            <path id="Trazado_620744" data-name="Trazado 620744" d="M909.98,3331.339c0,.634-19.379,1.148-43.277,1.148s-43.28-.515-43.28-1.148,19.373-1.148,43.28-1.148S909.98,3330.7,909.98,3331.339Z" transform="translate(-823.423 -3330.191)" fill="#455a64"/>
          </g>
        </g>
        <g id="Grupo_927713" data-name="Grupo 927713" transform="translate(177.793 110.401)">
          <g id="Grupo_927712" data-name="Grupo 927712">
            <path id="Trazado_620745" data-name="Trazado 620745" d="M925.39,3342.6c0,.635-32.021,1.148-71.51,1.148s-71.516-.513-71.516-1.148,32.012-1.149,71.516-1.149S925.39,3341.967,925.39,3342.6Z" transform="translate(-782.364 -3341.452)" fill="#455a64"/>
          </g>
        </g>
        <g id="Grupo_927715" data-name="Grupo 927715" transform="translate(177.339 174.412)">
          <g id="Grupo_927714" data-name="Grupo 927714">
            <path id="Trazado_620746" data-name="Trazado 620746" d="M920.445,3386.131c0,.634-30.983,1.149-69.191,1.149s-69.2-.515-69.2-1.149,30.975-1.148,69.2-1.148S920.445,3385.5,920.445,3386.131Z" transform="translate(-782.055 -3384.983)" fill="#455a64"/>
          </g>
        </g>
        <g id="Grupo_927717" data-name="Grupo 927717" transform="translate(185.87 223.574)">
          <g id="Grupo_927716" data-name="Grupo 927716">
            <path id="Trazado_620747" data-name="Trazado 620747" d="M917.715,3419.564c0,.635-29.073,1.15-64.927,1.15s-64.931-.515-64.931-1.15,29.065-1.148,64.931-1.148S917.715,3418.931,917.715,3419.564Z" transform="translate(-787.857 -3418.416)" fill="#eb6f2d"/>
          </g>
        </g>
        <g id="Grupo_927719" data-name="Grupo 927719" transform="translate(185.87 240.102)">
          <g id="Grupo_927718" data-name="Grupo 927718">
            <path id="Trazado_620748" data-name="Trazado 620748" d="M917.715,3430.8c0,.634-29.073,1.148-64.927,1.148s-64.931-.515-64.931-1.148,29.065-1.148,64.931-1.148S917.715,3430.171,917.715,3430.8Z" transform="translate(-787.857 -3429.656)" fill="#455a64"/>
          </g>
        </g>
        <g id="Grupo_927721" data-name="Grupo 927721" transform="translate(185.87 256.63)">
          <g id="Grupo_927720" data-name="Grupo 927720">
            <path id="Trazado_620749" data-name="Trazado 620749" d="M917.715,3442.045c0,.634-29.073,1.148-64.927,1.148s-64.931-.515-64.931-1.148,29.065-1.149,64.931-1.149S917.715,3441.409,917.715,3442.045Z" transform="translate(-787.857 -3440.896)" fill="#455a64"/>
          </g>
        </g>
        <g id="Grupo_927723" data-name="Grupo 927723" transform="translate(185.87 273.156)">
          <g id="Grupo_927722" data-name="Grupo 927722">
            <path id="Trazado_620750" data-name="Trazado 620750" d="M917.715,3453.284c0,.635-29.073,1.15-64.927,1.15s-64.931-.515-64.931-1.15,29.065-1.149,64.931-1.149S917.715,3452.65,917.715,3453.284Z" transform="translate(-787.857 -3452.135)" fill="#455a64"/>
          </g>
        </g>
        <g id="Grupo_927725" data-name="Grupo 927725" transform="translate(185.87 289.684)">
          <g id="Grupo_927724" data-name="Grupo 927724">
            <path id="Trazado_620751" data-name="Trazado 620751" d="M862.614,3464.523c0,.318-4.183.6-10.948.812s-16.109.336-26.428.336-19.669-.127-26.433-.336-10.948-.494-10.948-.812,4.183-.6,10.948-.812,16.109-.337,26.433-.337,19.664.128,26.428.337S862.614,3464.206,862.614,3464.523Z" transform="translate(-787.857 -3463.375)" fill="#455a64"/>
          </g>
        </g>
        <g id="Grupo_927727" data-name="Grupo 927727" transform="translate(180.349 192.282)">
          <g id="Grupo_927726" data-name="Grupo 927726">
            <path id="Trazado_620752" data-name="Trazado 620752" d="M895.953,3398.284c0,.636-25.04,1.148-55.923,1.148s-55.927-.513-55.927-1.148,25.035-1.148,55.927-1.148S895.953,3397.651,895.953,3398.284Z" transform="translate(-784.102 -3397.136)" fill="#455a64"/>
          </g>
        </g>
        <g id="Grupo_927739" data-name="Grupo 927739" transform="translate(0 217.742)">
          <g id="Grupo_927730" data-name="Grupo 927730" transform="translate(44.443 7.765)">
            <g id="Grupo_927729" data-name="Grupo 927729">
              <g id="Grupo_927728" data-name="Grupo 927728">
                <path id="Trazado_620753" data-name="Trazado 620753" d="M809.624,3420.813l6.89,127.574-124.74,15.624-.1-144.28Z" transform="translate(-691.678 -3419.73)" fill="#e0e0e0"/>
              </g>
            </g>
          </g>
          <g id="Grupo_927733" data-name="Grupo 927733" transform="translate(0 0)">
            <g id="Grupo_927732" data-name="Grupo 927732">
              <g id="Grupo_927731" data-name="Grupo 927731">
                <rect id="Rectángulo_335165" data-name="Rectángulo 335165" width="135.337" height="169.283" transform="translate(0 135.334) rotate(-89.632)" fill="#f5f5f5"/>
              </g>
            </g>
          </g>
          <g id="Grupo_927734" data-name="Grupo 927734" transform="translate(5.891 8.557)">
            <rect id="Rectángulo_335166" data-name="Rectángulo 335166" width="118.297" height="157.39" transform="translate(0 118.295) rotate(-89.632)" fill="#eb6f2d"/>
          </g>
          <g id="Grupo_927735" data-name="Grupo 927735" transform="translate(5.891 53.674)" opacity="0.2">
            <path id="Trazado_620754" data-name="Trazado 620754" d="M665.461,3524.129l55.443-73.178,33.756,46.223,23.254-24.445,44.933,52.411Z" transform="translate(-665.461 -3450.951)"/>
          </g>
          <g id="Grupo_927738" data-name="Grupo 927738" transform="translate(85.114 32.506)" opacity="0.2">
            <g id="Grupo_927737" data-name="Grupo 927737">
              <g id="Grupo_927736" data-name="Grupo 927736">
                <path id="Trazado_620755" data-name="Trazado 620755" d="M744.122,3449.029a12.393,12.393,0,1,1-12.312-12.472A12.392,12.392,0,0,1,744.122,3449.029Z" transform="translate(-719.337 -3436.556)"/>
              </g>
            </g>
          </g>
        </g>
        <g id="Grupo_927743" data-name="Grupo 927743" transform="translate(180.349 383.479)">
          <g id="Grupo_927740" data-name="Grupo 927740">
            <path id="Trazado_620756" data-name="Trazado 620756" d="M789.335,3529.777a2.617,2.617,0,1,1-2.616-2.616A2.616,2.616,0,0,1,789.335,3529.777Z" transform="translate(-784.102 -3527.161)" fill="#263238"/>
          </g>
          <g id="Grupo_927741" data-name="Grupo 927741" transform="translate(15.532)">
            <path id="Trazado_620757" data-name="Trazado 620757" d="M799.9,3529.777a2.617,2.617,0,1,1-2.617-2.616A2.617,2.617,0,0,1,799.9,3529.777Z" transform="translate(-794.665 -3527.161)" fill="#263238"/>
          </g>
          <g id="Grupo_927742" data-name="Grupo 927742" transform="translate(31.066)">
            <path id="Trazado_620758" data-name="Trazado 620758" d="M810.462,3529.777a2.617,2.617,0,1,1-2.616-2.616A2.617,2.617,0,0,1,810.462,3529.777Z" transform="translate(-805.229 -3527.161)" fill="#263238"/>
          </g>
        </g>
        <g id="Grupo_927745" data-name="Grupo 927745" transform="translate(178.068 324.124)">
          <g id="Grupo_927744" data-name="Grupo 927744">
            <path id="Trazado_620759" data-name="Trazado 620759" d="M878.355,3487.945c0,.633-21.448,1.148-47.9,1.148s-47.9-.515-47.9-1.148,21.444-1.149,47.9-1.149S878.355,3487.311,878.355,3487.945Z" transform="translate(-782.551 -3486.796)" fill="#eb6f2d"/>
          </g>
        </g>
        <g id="Grupo_927747" data-name="Grupo 927747" transform="translate(178.068 341.105)">
          <g id="Grupo_927746" data-name="Grupo 927746">
            <path id="Trazado_620760" data-name="Trazado 620760" d="M920.939,3499.493c0,.635-30.981,1.15-69.191,1.15s-69.2-.515-69.2-1.15,30.975-1.149,69.2-1.149S920.939,3498.859,920.939,3499.493Z" transform="translate(-782.551 -3498.344)" fill="#455a64"/>
          </g>
        </g>
      </g>
      <g id="Grupo_927774" data-name="Grupo 927774" transform="translate(1302.081 3660.086)">
        <g id="Grupo_927754" data-name="Grupo 927754" transform="translate(53.479 15.547)">
          <g id="Grupo_927751" data-name="Grupo 927751" transform="translate(0 0)">
            <g id="Grupo_927750" data-name="Grupo 927750" transform="translate(0)">
              <g id="Grupo_927749" data-name="Grupo 927749">
                <rect id="Rectángulo_335167" data-name="Rectángulo 335167" width="81.521" height="101.969" transform="translate(0 81.52) rotate(-89.632)" fill="#f5f5f5"/>
              </g>
            </g>
          </g>
          <rect id="Rectángulo_335168" data-name="Rectángulo 335168" width="71.257" height="94.805" transform="translate(3.548 76.41) rotate(-89.632)" fill="#eb6f2d"/>
          <path id="Trazado_620761" data-name="Trazado 620761" d="M1085.77,3584.433l33.4-44.079L1139.5,3568.2l14.007-14.724,27.066,31.57Z" transform="translate(-1082.222 -3508.022)" opacity="0.2"/>
          <g id="Grupo_927753" data-name="Grupo 927753" transform="translate(51.269 19.58)" opacity="0.2">
            <g id="Grupo_927752" data-name="Grupo 927752">
              <path id="Trazado_620762" data-name="Trazado 620762" d="M1133.151,3539.195a7.464,7.464,0,1,1-7.416-7.513A7.464,7.464,0,0,1,1133.151,3539.195Z" transform="translate(-1118.223 -3531.682)"/>
            </g>
          </g>
        </g>
        <g id="Grupo_927760" data-name="Grupo 927760" transform="translate(38.526 7.035)">
          <g id="Grupo_927757" data-name="Grupo 927757" transform="translate(0 0)">
            <g id="Grupo_927756" data-name="Grupo 927756" transform="translate(0)">
              <g id="Grupo_927755" data-name="Grupo 927755">
                <rect id="Rectángulo_335169" data-name="Rectángulo 335169" width="81.521" height="101.969" transform="translate(0 81.519) rotate(-89.632)" fill="#f5f5f5"/>
              </g>
            </g>
          </g>
          <rect id="Rectángulo_335170" data-name="Rectángulo 335170" width="71.257" height="94.805" transform="translate(3.548 76.411) rotate(-89.632)" fill="#eb6f2d"/>
          <path id="Trazado_620763" data-name="Trazado 620763" d="M1075.6,3578.643l33.4-44.079,20.333,27.843,14.007-14.725,27.066,31.57Z" transform="translate(-1072.053 -3502.233)" opacity="0.2"/>
          <g id="Grupo_927759" data-name="Grupo 927759" transform="translate(51.269 19.581)" opacity="0.2">
            <g id="Grupo_927758" data-name="Grupo 927758">
              <path id="Trazado_620764" data-name="Trazado 620764" d="M1122.982,3533.406a7.464,7.464,0,1,1-7.416-7.512A7.464,7.464,0,0,1,1122.982,3533.406Z" transform="translate(-1108.054 -3525.893)"/>
            </g>
          </g>
        </g>
        <g id="Grupo_927766" data-name="Grupo 927766" transform="translate(25.209 0)">
          <g id="Grupo_927763" data-name="Grupo 927763" transform="translate(0)">
            <g id="Grupo_927762" data-name="Grupo 927762" transform="translate(0)">
              <g id="Grupo_927761" data-name="Grupo 927761">
                <rect id="Rectángulo_335171" data-name="Rectángulo 335171" width="81.521" height="101.969" transform="translate(0 81.52) rotate(-89.632)" fill="#f5f5f5"/>
              </g>
            </g>
          </g>
          <rect id="Rectángulo_335172" data-name="Rectángulo 335172" width="71.257" height="94.805" transform="translate(3.549 76.41) rotate(-89.632)" fill="#eb6f2d"/>
          <path id="Trazado_620765" data-name="Trazado 620765" d="M1066.545,3573.859l33.4-44.079,20.333,27.843,14.007-14.725,27.066,31.57Z" transform="translate(-1062.996 -3497.449)" opacity="0.2"/>
          <g id="Grupo_927765" data-name="Grupo 927765" transform="translate(51.268 19.58)" opacity="0.2">
            <g id="Grupo_927764" data-name="Grupo 927764">
              <path id="Trazado_620766" data-name="Trazado 620766" d="M1113.927,3528.622a7.465,7.465,0,1,1-7.417-7.513A7.464,7.464,0,0,1,1113.927,3528.622Z" transform="translate(-1098.997 -3521.109)"/>
            </g>
          </g>
        </g>
        <g id="Grupo_927772" data-name="Grupo 927772" transform="translate(10.256 8.756)">
          <g id="Grupo_927769" data-name="Grupo 927769" transform="translate(0 0)">
            <g id="Grupo_927768" data-name="Grupo 927768">
              <g id="Grupo_927767" data-name="Grupo 927767">
                <rect id="Rectángulo_335173" data-name="Rectángulo 335173" width="81.521" height="101.969" transform="translate(0 81.519) rotate(-89.632)" fill="#f5f5f5"/>
              </g>
            </g>
          </g>
          <rect id="Rectángulo_335174" data-name="Rectángulo 335174" width="71.257" height="94.805" transform="translate(3.548 76.41) rotate(-89.632)" fill="#455a64"/>
          <path id="Trazado_620767" data-name="Trazado 620767" d="M1056.375,3579.815l33.4-44.08,20.333,27.843,14.007-14.725,27.066,31.57Z" transform="translate(-1052.827 -3503.404)" opacity="0.2"/>
          <g id="Grupo_927771" data-name="Grupo 927771" transform="translate(51.268 19.581)" opacity="0.2">
            <g id="Grupo_927770" data-name="Grupo 927770">
              <path id="Trazado_620768" data-name="Trazado 620768" d="M1103.758,3534.577a7.465,7.465,0,1,1-7.417-7.513A7.463,7.463,0,0,1,1103.758,3534.577Z" transform="translate(-1088.828 -3527.064)"/>
            </g>
          </g>
        </g>
        <g id="Grupo_927773" data-name="Grupo 927773" transform="translate(0 39.069)">
          <rect id="Rectángulo_335175" data-name="Rectángulo 335175" width="58.87" height="78.711" transform="translate(112.746 0)" fill="#263238"/>
          <path id="Trazado_620769" data-name="Trazado 620769" d="M1046.988,3534.362v78.71h117.74v-78.71Zm71.386,18.627h-25.033a5.417,5.417,0,1,1,0-10.834h25.033a5.417,5.417,0,1,1,0,10.834Z" transform="translate(-1046.988 -3534.362)" fill="#eb6f2d"/>
        </g>
      </g>
      <g id="Grupo_927899" data-name="Grupo 927899" transform="translate(935.037 3512.841)">
        <g id="Grupo_927811" data-name="Grupo 927811" transform="translate(0 106.242)">
          <g id="Grupo_927784" data-name="Grupo 927784" transform="translate(0 141.372)">
            <g id="Grupo_927775" data-name="Grupo 927775">
              <path id="Trazado_620770" data-name="Trazado 620770" d="M1088.079,3585.233l-109.486-6.7c-.69-1.566-1.15-2.479-1.15-2.479l-29.674.591-9.655-.591s-.147.3-.382.791l-99.611,1.985c-19.859,0-40.738,12.116-40.738,27.6-.251,14.736,6.885,30.729,24.679,30.367l135.716-.456,135.716.456c17.794.362,22.5-10.368,22.526-23.1C1118.1,3589.985,1103.25,3585.431,1088.079,3585.233Z" transform="translate(-797.377 -3576.05)" fill="#455a64"/>
            </g>
            <g id="Grupo_927777" data-name="Grupo 927777" transform="translate(37.141 19.27)">
              <g id="Grupo_927776" data-name="Grupo 927776">
                <path id="Trazado_620771" data-name="Trazado 620771" d="M822.635,3630.634s.221-.025.653-.037l1.919-.037,7.393-.069,27.308-.12,91.128-.12-.381.406c-.185-2.976-.385-6.158-.585-9.368-.409-6.566-.81-13.024-1.193-19.166l.337.353-83.949-9.342-24.876-2.845-6.7-.8-1.734-.225a3.391,3.391,0,0,1-.587-.1,3.892,3.892,0,0,1,.594.029l1.743.156c1.566.158,3.82.383,6.716.671,5.879.619,14.356,1.509,24.9,2.618l83.975,9.089.318.036.019.319c.385,6.142.79,12.6,1.2,19.166.2,3.208.4,6.392.584,9.368l.025.406h-.407l-91.128-.121c-11.537-.05-20.845-.09-27.308-.119l-7.393-.069-1.919-.036C822.856,3630.659,822.635,3630.634,822.635,3630.634Z" transform="translate(-822.635 -3589.155)" fill="#263238"/>
              </g>
            </g>
            <g id="Grupo_927779" data-name="Grupo 927779" transform="translate(35.993 12.835)">
              <g id="Grupo_927778" data-name="Grupo 927778">
                <path id="Trazado_620772" data-name="Trazado 620772" d="M850.985,3593.759c-.084.1-1.445-.994-3.838-2.452a40.723,40.723,0,0,0-20.741-5.964c-2.8-.035-4.536.171-4.553.039a3.8,3.8,0,0,1,1.2-.279,25.063,25.063,0,0,1,3.345-.3,36.068,36.068,0,0,1,21.038,6.051,24.987,24.987,0,0,1,2.673,2.034C850.707,3593.409,851.019,3593.718,850.985,3593.759Z" transform="translate(-821.854 -3584.779)" fill="#263238"/>
              </g>
            </g>
            <g id="Grupo_927781" data-name="Grupo 927781" transform="translate(185.57 15.985)">
              <g id="Grupo_927780" data-name="Grupo 927780">
                <path id="Trazado_620773" data-name="Trazado 620773" d="M1020.208,3586.927c.048.206-21.547,5.427-48.227,11.662s-48.357,11.122-48.406,10.917,21.542-5.426,48.231-11.662S1020.159,3586.721,1020.208,3586.927Z" transform="translate(-923.575 -3586.921)" fill="#263238"/>
              </g>
            </g>
            <g id="Grupo_927783" data-name="Grupo 927783" transform="translate(248.598 13.851)">
              <g id="Grupo_927782" data-name="Grupo 927782">
                <path id="Trazado_620774" data-name="Trazado 620774" d="M981.782,3585.5c.072.238-4.172,1.094-8.461,4.053-4.326,2.9-6.681,6.536-6.876,6.383a7.522,7.522,0,0,1,1.474-2.394,22.484,22.484,0,0,1,11.1-7.551A7.515,7.515,0,0,1,981.782,3585.5Z" transform="translate(-966.438 -3585.469)" fill="#263238"/>
              </g>
            </g>
          </g>
          <g id="Grupo_927785" data-name="Grupo 927785" transform="translate(180.25 30.952)">
            <path id="Trazado_620775" data-name="Trazado 620775" d="M962.9,3500.958l34.681,60.368a25.648,25.648,0,0,1,.7,24.248h0a25.649,25.649,0,0,1-23.666,14.169l-53.251-1.5-1.4-19.365,46.9-8.98-31.621-54.728Z" transform="translate(-919.957 -3500.958)" fill="#ffbf9d"/>
          </g>
          <g id="Grupo_927786" data-name="Grupo 927786" transform="translate(66.07 30.952)">
            <path id="Trazado_620776" data-name="Trazado 620776" d="M870.177,3604.264l48.966,12.971,1.065-14.683-45.125-26.21,32.958-61.174-27.661-14.209L845.7,3561.327h0a28.271,28.271,0,0,0,16.324,40.344Z" transform="translate(-842.308 -3500.958)" fill="#ffbf9d"/>
          </g>
          <g id="Grupo_927787" data-name="Grupo 927787" transform="translate(86.622)">
            <path id="Trazado_620777" data-name="Trazado 620777" d="M978.126,3549.621l33.469-17.626a169.437,169.437,0,0,0-14.339-23.911c-10.37-14.336-26.442-24.36-44.695-28.173h0l-38.5.455a50.965,50.965,0,0,0-13.728,3.16l.026-.149c-20.891,4.607-44.076,50.174-44.076,50.174l30.456,16.036.674,4.79a32.528,32.528,0,0,0,7.938,17.071l-8.87,58.333,98.846,2.044-12.586-41.774Z" transform="translate(-856.285 -3479.909)" fill="#eb6f2d"/>
          </g>
          <g id="Grupo_927789" data-name="Grupo 927789" transform="translate(117.537 48.973)">
            <g id="Grupo_927788" data-name="Grupo 927788">
              <path id="Trazado_620778" data-name="Trazado 620778" d="M886.358,3556.093a7.066,7.066,0,0,1-1.472-1.114,21.288,21.288,0,0,1-3.361-3.758,24.453,24.453,0,0,1-4.125-15.9,51.786,51.786,0,0,1,2.26-8.867c.887-2.66,1.785-5.016,2.569-6.982s1.46-3.538,1.95-4.616a8.029,8.029,0,0,1,.843-1.638,8.962,8.962,0,0,1-.566,1.751c-.46,1.256-1.037,2.828-1.72,4.7-.716,1.985-1.559,4.353-2.4,7.007a55.6,55.6,0,0,0-2.17,8.743,25.182,25.182,0,0,0,.832,8.851,23.535,23.535,0,0,0,2.981,6.655A41.109,41.109,0,0,0,886.358,3556.093Z" transform="translate(-877.309 -3513.214)" fill="#263238"/>
            </g>
          </g>
          <g id="Grupo_927792" data-name="Grupo 927792" transform="translate(106.189 98.89)">
            <g id="Grupo_927790" data-name="Grupo 927790">
              <path id="Trazado_620779" data-name="Trazado 620779" d="M875.173,3612.223l-5.581-65.063H990l-7.979,65.874Z" transform="translate(-869.592 -3547.16)" fill="#263238"/>
            </g>
            <g id="Grupo_927791" data-name="Grupo 927791" transform="translate(52.536 27.032)">
              <path id="Trazado_620780" data-name="Trazado 620780" d="M920.653,3573.21a7.667,7.667,0,1,1-7.667-7.667A7.668,7.668,0,0,1,920.653,3573.21Z" transform="translate(-905.319 -3565.543)" fill="#fafafa"/>
            </g>
          </g>
          <g id="Grupo_927806" data-name="Grupo 927806" transform="translate(164.284 176.664)">
            <g id="Grupo_927793" data-name="Grupo 927793">
              <path id="Trazado_620781" data-name="Trazado 620781" d="M909.1,3600.051l20.443,2.853v22.22l-18.8-.484Z" transform="translate(-909.1 -3600.051)" fill="#ffbf9d"/>
            </g>
            <g id="Grupo_927803" data-name="Grupo 927803" transform="translate(20.443 2.853)">
              <g id="Grupo_927794" data-name="Grupo 927794">
                <path id="Trazado_620782" data-name="Trazado 620782" d="M923,3601.991h9.19a10.18,10.18,0,0,1,5.1,1.366l4.847,2.8a75.392,75.392,0,0,0,8.47,4.04c5.588,1.8,14.99,4.213,16.971,5.739,5.654,4.361,3.935,9.516.829,10.054-2.728.474-45.4-1.776-45.4-1.776Z" transform="translate(-923.002 -3601.991)" fill="#eb6f2d"/>
              </g>
              <g id="Grupo_927796" data-name="Grupo 927796" transform="translate(14.095 8.784)">
                <g id="Grupo_927795" data-name="Grupo 927795">
                  <path id="Trazado_620783" data-name="Trazado 620783" d="M933.591,3619.565c-.2.044-.9-2.517-.991-5.776s.446-5.857.643-5.824c.22.029.021,2.618.123,5.8S933.809,3619.523,933.591,3619.565Z" transform="translate(-932.587 -3607.965)" fill="#263238"/>
                </g>
              </g>
              <g id="Grupo_927798" data-name="Grupo 927798" transform="translate(19.115 9.658)">
                <g id="Grupo_927797" data-name="Grupo 927797">
                  <path id="Trazado_620784" data-name="Trazado 620784" d="M936.345,3619.164c-.212,0-.365-2.377-.341-5.305s.215-5.3.425-5.3.365,2.376.341,5.305S936.557,3619.166,936.345,3619.164Z" transform="translate(-936.001 -3608.559)" fill="#263238"/>
                </g>
              </g>
              <g id="Grupo_927800" data-name="Grupo 927800" transform="translate(23.612 10.208)">
                <g id="Grupo_927799" data-name="Grupo 927799">
                  <path id="Trazado_620785" data-name="Trazado 620785" d="M940.057,3619.869c-.21.016-.572-2.418-.807-5.438s-.256-5.482-.046-5.5.573,2.417.809,5.438S940.269,3619.851,940.057,3619.869Z" transform="translate(-939.059 -3608.933)" fill="#263238"/>
                </g>
              </g>
              <g id="Grupo_927802" data-name="Grupo 927802" transform="translate(1.974 5.219)">
                <g id="Grupo_927801" data-name="Grupo 927801">
                  <path id="Trazado_620786" data-name="Trazado 620786" d="M933.49,3614.791a6.417,6.417,0,0,1-1.884-.594,17.71,17.71,0,0,1-4.592-2.837c-.435-.374-.876-.782-1.313-1.233a5.255,5.255,0,0,1-1.17-1.658,2.314,2.314,0,0,1,.256-2.281,1.736,1.736,0,0,1,1.143-.629,2.918,2.918,0,0,1,1.238.141,9.153,9.153,0,0,1,1.924,16.281,5.812,5.812,0,0,1-2.106.946,2.479,2.479,0,0,1-1.2-.058,1.61,1.61,0,0,1-.926-.817,2.314,2.314,0,0,1,.269-2.116,6.556,6.556,0,0,1,1.181-1.421,14.106,14.106,0,0,1,4.519-2.958,5.8,5.8,0,0,1,1.9-.539c.019.061-.653.264-1.781.81a15.168,15.168,0,0,0-4.257,3.07,6.078,6.078,0,0,0-1.048,1.325,1.756,1.756,0,0,0-.216,1.549,1.215,1.215,0,0,0,1.435.491,5.2,5.2,0,0,0,1.834-.868,8.5,8.5,0,0,0-1.743-15.024,1.45,1.45,0,0,0-1.646.241,1.676,1.676,0,0,0-.185,1.629,8.974,8.974,0,0,0,2.248,2.71A24.751,24.751,0,0,0,933.49,3614.791Z" transform="translate(-924.345 -3605.541)" fill="#263238"/>
                </g>
              </g>
            </g>
            <g id="Grupo_927805" data-name="Grupo 927805" transform="translate(31.141 3.11)">
              <g id="Grupo_927804" data-name="Grupo 927804">
                <path id="Trazado_620787" data-name="Trazado 620787" d="M964.981,3625.906a5.414,5.414,0,0,0,1.119-1.4,5.26,5.26,0,0,0-.6-4.635,10.325,10.325,0,0,0-5.679-4.282c-2.6-.934-5.7-1.386-8.825-2.361a61.472,61.472,0,0,1-15.184-6.919c-1.806-1.15-3.2-2.179-4.139-2.915a8.291,8.291,0,0,1-1.392-1.229,9.124,9.124,0,0,1,1.569.988c.991.657,2.421,1.613,4.245,2.694a68.549,68.549,0,0,0,15.121,6.648c3.079.963,6.149,1.423,8.852,2.432a10.7,10.7,0,0,1,5.908,4.684c1.028,1.945,1.053,3.94.393,5.03a3.135,3.135,0,0,1-.947,1.046C965.148,3625.863,964.993,3625.926,964.981,3625.906Z" transform="translate(-930.277 -3602.166)" fill="#263238"/>
              </g>
            </g>
          </g>
          <g id="Grupo_927808" data-name="Grupo 927808" transform="translate(107.163 15.665)">
            <g id="Grupo_927807" data-name="Grupo 927807">
              <path id="Trazado_620788" data-name="Trazado 620788" d="M979.3,3490.869a1.194,1.194,0,0,1,0,.313l-.068.917q-.117,1.286-.323,3.554c-.318,3.157-.771,7.674-1.341,13.349l-.034.343-.309-.162-17.75-9.344.421-.118-9.641,16.268-.207.348-.322-.247-16.237-12.452h.466l-7.071,5.544q-4.912,3.844-9.642,7.549l-.354.277-.213-.394c-3.2-5.922-6.279-11.616-9.185-16.991l.46.154-19.478,8.679-.357.161-.065-.384c-1.134-6.676-2.119-12.486-2.94-17.323l.3.169-11.152,4.253-2.966,1.1-.769.269a1.007,1.007,0,0,1-.267.072.92.92,0,0,1,.245-.129l.745-.325,2.925-1.206,11.077-4.446.252-.1.048.269c.866,4.831,1.9,10.63,3.1,17.3l-.422-.224,19.432-8.777.3-.136.159.293c2.917,5.369,6.01,11.054,9.224,16.969l-.568-.118,9.636-7.555c2.423-1.9,4.817-3.772,7.076-5.541l.232-.182.234.18,16.212,12.484-.528.1c3.485-5.822,6.767-11.3,9.715-16.224l.156-.26.265.142,17.674,9.491-.343.181c.662-5.665,1.188-10.173,1.556-13.324q.285-2.261.446-3.542c.053-.37.1-.668.131-.911A1.149,1.149,0,0,1,979.3,3490.869Z" transform="translate(-870.254 -3490.562)" fill="#f5f5f5"/>
            </g>
          </g>
          <g id="Grupo_927810" data-name="Grupo 927810" transform="translate(100.021 31.434)">
            <g id="Grupo_927809" data-name="Grupo 927809">
              <path id="Trazado_620789" data-name="Trazado 620789" d="M995.874,3502.2a2.008,2.008,0,0,1-.082.431c-.078.316-.179.727-.307,1.248-.3,1.14-.721,2.748-1.259,4.81-1.14,4.231-2.775,10.308-4.817,17.893l-.078.29-.274-.13c-5.9-2.833-12.928-6.205-20.742-9.957l.407-.106-17.472,24.919-.256.365-.315-.317c-5.333-5.407-10.981-11.132-16.791-17.02l-3.525-3.575.477.055-22.629,14.19-.323.2-.187-.331c-4.37-7.718-8.465-14.95-12.2-21.545l.384.143-23.269,8.01-.221.076-.075-.219c-2.2-6.39-3.951-11.458-5.163-14.973l-1.338-3.981c-.137-.425-.245-.765-.329-1.029a1.556,1.556,0,0,1-.091-.356,1.657,1.657,0,0,1,.153.335l.388,1.007q.518,1.4,1.453,3.94l5.367,14.9-.3-.143c6.441-2.268,14.286-5.029,23.211-8.173l.25-.088.132.232,12.277,21.5-.509-.128,22.608-14.221.26-.163.216.219,3.525,3.575c5.8,5.892,11.448,11.621,16.776,17.032l-.569.047,17.55-24.863.159-.225.249.12,20.678,10.089-.351.159c2.137-7.56,3.847-13.616,5.038-17.831l1.386-4.776c.156-.512.279-.917.375-1.229A2.059,2.059,0,0,1,995.874,3502.2Z" transform="translate(-865.397 -3501.286)" fill="#f5f5f5"/>
            </g>
          </g>
        </g>
        <g id="Grupo_927898" data-name="Grupo 927898" transform="translate(131.015)">
          <g id="Grupo_927812" data-name="Grupo 927812" transform="translate(10.069)">
            <path id="Trazado_620790" data-name="Trazado 620790" d="M967.9,3443.662a21.577,21.577,0,0,1-16.435-5.187c5.357,2.7,12.493-1.006,14.378-6.7s.338-16.3-4.339-20.055a18.552,18.552,0,0,0-16.134-3.47c-5.516,1.477-11.359,9.859-13.162,15.277l.1.165q-1.273-.508-2.564-.943a44.187,44.187,0,0,0-19.032-2.3,30.866,30.866,0,0,0-17.4,7.659l37.391,60.1c6.79-.6,12.808-5.179,16.366-10.993s4.925-12.734,5.26-19.544c.084-1.708.079-3.435.009-5.161l12.025,1.933a26.81,26.81,0,0,0-7.995-7.146A10.039,10.039,0,0,0,967.9,3443.662Z" transform="translate(-893.322 -3407.658)" fill="#263238"/>
          </g>
          <g id="Grupo_927886" data-name="Grupo 927886" transform="translate(1.604 21.84)">
            <g id="Grupo_927885" data-name="Grupo 927885">
              <g id="Grupo_927884" data-name="Grupo 927884">
                <g id="Grupo_927878" data-name="Grupo 927878">
                  <g id="Grupo_927877" data-name="Grupo 927877">
                    <g id="Grupo_927866" data-name="Grupo 927866">
                      <g id="Grupo_927865" data-name="Grupo 927865">
                        <g id="Grupo_927864" data-name="Grupo 927864">
                          <g id="Grupo_927817" data-name="Grupo 927817">
                            <g id="Grupo_927816" data-name="Grupo 927816">
                              <g id="Grupo_927815" data-name="Grupo 927815">
                                <g id="Grupo_927814" data-name="Grupo 927814">
                                  <g id="Grupo_927813" data-name="Grupo 927813">
                                    <path id="Trazado_620791" data-name="Trazado 620791" d="M923.35,3529.947a18.805,18.805,0,0,0,18.4-18.582l.868-74.77h0a5.95,5.95,0,0,0-5.325-6.036l-31.581-7.983c-10.114-1.069-16.838,11.385-17.478,21.535-.712,11.277-1.134,25.073.2,33.489,2.686,16.918,15.654,19.072,15.654,19.072,0-.044.009,6.548.047,14.566a18.809,18.809,0,0,0,19.212,18.711Z" transform="translate(-887.565 -3422.511)" fill="#ffbf9d"/>
                                  </g>
                                </g>
                              </g>
                            </g>
                          </g>
                          <g id="Grupo_927829" data-name="Grupo 927829" transform="translate(3.627 26.496)">
                            <g id="Grupo_927822" data-name="Grupo 927822" transform="translate(3.602 4.095)">
                              <g id="Grupo_927821" data-name="Grupo 927821">
                                <g id="Grupo_927820" data-name="Grupo 927820">
                                  <g id="Grupo_927819" data-name="Grupo 927819">
                                    <g id="Grupo_927818" data-name="Grupo 927818">
                                      <path id="Trazado_620792" data-name="Trazado 620792" d="M892.482,3445.275a2.17,2.17,0,0,0,2.092,2.19,2.077,2.077,0,0,0,2.237-1.956,2.172,2.172,0,0,0-2.091-2.191A2.075,2.075,0,0,0,892.482,3445.275Z" transform="translate(-892.481 -3443.315)" fill="#263238"/>
                                    </g>
                                  </g>
                                </g>
                              </g>
                            </g>
                            <g id="Grupo_927828" data-name="Grupo 927828">
                              <g id="Grupo_927827" data-name="Grupo 927827">
                                <g id="Grupo_927826" data-name="Grupo 927826">
                                  <g id="Grupo_927825" data-name="Grupo 927825">
                                    <g id="Grupo_927824" data-name="Grupo 927824">
                                      <g id="Grupo_927823" data-name="Grupo 927823">
                                        <path id="Trazado_620793" data-name="Trazado 620793" d="M890.066,3442.811c.269.282,1.913-.934,4.248-.928,2.332-.026,4.045,1.174,4.3.888.124-.126-.15-.637-.9-1.181a5.939,5.939,0,0,0-3.441-1.06,5.721,5.721,0,0,0-3.382,1.091C890.176,3442.171,889.934,3442.684,890.066,3442.811Z" transform="translate(-890.032 -3440.53)" fill="#263238"/>
                                      </g>
                                    </g>
                                  </g>
                                </g>
                              </g>
                            </g>
                          </g>
                          <g id="Grupo_927841" data-name="Grupo 927841" transform="translate(26.578 26.931)">
                            <g id="Grupo_927834" data-name="Grupo 927834" transform="translate(2.863 3.66)">
                              <g id="Grupo_927833" data-name="Grupo 927833">
                                <g id="Grupo_927832" data-name="Grupo 927832">
                                  <g id="Grupo_927831" data-name="Grupo 927831">
                                    <g id="Grupo_927830" data-name="Grupo 927830">
                                      <path id="Trazado_620794" data-name="Trazado 620794" d="M907.588,3445.275a2.17,2.17,0,0,0,2.092,2.19,2.077,2.077,0,0,0,2.237-1.956,2.171,2.171,0,0,0-2.091-2.191A2.075,2.075,0,0,0,907.588,3445.275Z" transform="translate(-907.587 -3443.315)" fill="#263238"/>
                                    </g>
                                  </g>
                                </g>
                              </g>
                            </g>
                            <g id="Grupo_927840" data-name="Grupo 927840">
                              <g id="Grupo_927839" data-name="Grupo 927839">
                                <g id="Grupo_927838" data-name="Grupo 927838">
                                  <g id="Grupo_927837" data-name="Grupo 927837">
                                    <g id="Grupo_927836" data-name="Grupo 927836">
                                      <g id="Grupo_927835" data-name="Grupo 927835">
                                        <path id="Trazado_620795" data-name="Trazado 620795" d="M905.674,3443.107c.271.283,1.916-.934,4.25-.926,2.332-.028,4.047,1.173,4.3.887.124-.127-.147-.637-.9-1.18a5.943,5.943,0,0,0-3.441-1.062,5.72,5.72,0,0,0-3.382,1.091C905.787,3442.469,905.543,3442.98,905.674,3443.107Z" transform="translate(-905.64 -3440.826)" fill="#263238"/>
                                      </g>
                                    </g>
                                  </g>
                                </g>
                              </g>
                            </g>
                          </g>
                          <g id="Grupo_927847" data-name="Grupo 927847" transform="translate(12.19 27.073)">
                            <g id="Grupo_927846" data-name="Grupo 927846">
                              <g id="Grupo_927845" data-name="Grupo 927845">
                                <g id="Grupo_927844" data-name="Grupo 927844">
                                  <g id="Grupo_927843" data-name="Grupo 927843">
                                    <g id="Grupo_927842" data-name="Grupo 927842">
                                      <path id="Trazado_620796" data-name="Trazado 620796" d="M901.8,3460.378a15.485,15.485,0,0,0-3.792-.684c-.6-.062-1.162-.18-1.262-.587a3.028,3.028,0,0,1,.4-1.768q.841-2.163,1.763-4.541c2.448-6.464,4.222-11.779,3.96-11.875s-2.459,5.066-4.907,11.53q-.885,2.391-1.69,4.568a3.45,3.45,0,0,0-.309,2.339,1.5,1.5,0,0,0,.981.872,4.1,4.1,0,0,0,1.012.141A15.219,15.219,0,0,0,901.8,3460.378Z" transform="translate(-895.855 -3440.922)" fill="#263238"/>
                                    </g>
                                  </g>
                                </g>
                              </g>
                            </g>
                          </g>
                          <g id="Grupo_927852" data-name="Grupo 927852" transform="translate(16.526 68.116)">
                            <g id="Grupo_927851" data-name="Grupo 927851">
                              <g id="Grupo_927850" data-name="Grupo 927850">
                                <g id="Grupo_927849" data-name="Grupo 927849">
                                  <g id="Grupo_927848" data-name="Grupo 927848">
                                    <path id="Trazado_620797" data-name="Trazado 620797" d="M898.8,3474.878a43.051,43.051,0,0,0,22.66-6.044s-5.5,11.623-22.432,10.039Z" transform="translate(-898.804 -3468.834)" fill="#ff9a6c"/>
                                  </g>
                                </g>
                              </g>
                            </g>
                          </g>
                          <g id="Grupo_927857" data-name="Grupo 927857" transform="translate(18.893 50.569)">
                            <g id="Grupo_927856" data-name="Grupo 927856">
                              <g id="Grupo_927855" data-name="Grupo 927855">
                                <g id="Grupo_927854" data-name="Grupo 927854">
                                  <g id="Grupo_927853" data-name="Grupo 927853">
                                    <path id="Trazado_620798" data-name="Trazado 620798" d="M900.647,3458.487a4.208,4.208,0,0,1,3.772-1.562,3.838,3.838,0,0,1,2.653,1.422,2.433,2.433,0,0,1,.185,2.784,2.82,2.82,0,0,1-3.062.773,8.812,8.812,0,0,1-2.984-1.781,2.589,2.589,0,0,1-.668-.691.778.778,0,0,1,0-.869" transform="translate(-900.413 -3456.901)" fill="#ff9a6c"/>
                                  </g>
                                </g>
                              </g>
                            </g>
                          </g>
                          <g id="Grupo_927863" data-name="Grupo 927863" transform="translate(17.569 48.144)">
                            <g id="Grupo_927862" data-name="Grupo 927862">
                              <g id="Grupo_927861" data-name="Grupo 927861">
                                <g id="Grupo_927860" data-name="Grupo 927860">
                                  <g id="Grupo_927859" data-name="Grupo 927859">
                                    <g id="Grupo_927858" data-name="Grupo 927858">
                                      <path id="Trazado_620799" data-name="Trazado 620799" d="M906.955,3455.252c-.379-.022-.385,2.512-2.554,4.312s-4.867,1.52-4.886,1.875c-.037.159.6.491,1.741.522a6.316,6.316,0,0,0,4.081-1.421,5.487,5.487,0,0,0,1.978-3.616C907.411,3455.866,907.129,3455.238,906.955,3455.252Z" transform="translate(-899.513 -3455.252)" fill="#263238"/>
                                    </g>
                                  </g>
                                </g>
                              </g>
                            </g>
                          </g>
                        </g>
                      </g>
                    </g>
                    <g id="Grupo_927871" data-name="Grupo 927871" transform="translate(25.55 23.374)">
                      <g id="Grupo_927870" data-name="Grupo 927870">
                        <g id="Grupo_927869" data-name="Grupo 927869">
                          <g id="Grupo_927868" data-name="Grupo 927868">
                            <g id="Grupo_927867" data-name="Grupo 927867">
                              <path id="Trazado_620800" data-name="Trazado 620800" d="M904.953,3440.157c.231.634,2.562.333,5.3.664,2.747.276,4.956,1.078,5.319.508.163-.273-.222-.871-1.116-1.485a9.291,9.291,0,0,0-8.091-.893C905.36,3439.357,904.854,3439.855,904.953,3440.157Z" transform="translate(-904.941 -3438.407)" fill="#263238"/>
                            </g>
                          </g>
                        </g>
                      </g>
                    </g>
                    <g id="Grupo_927876" data-name="Grupo 927876" transform="translate(3.926 22.049)">
                      <g id="Grupo_927875" data-name="Grupo 927875">
                        <g id="Grupo_927874" data-name="Grupo 927874">
                          <g id="Grupo_927873" data-name="Grupo 927873">
                            <g id="Grupo_927872" data-name="Grupo 927872">
                              <path id="Trazado_620801" data-name="Trazado 620801" d="M890.3,3439.925c.412.529,2.019-.021,3.954-.045,1.934-.094,3.572.356,3.95-.2.165-.27-.093-.8-.809-1.3a5.726,5.726,0,0,0-6.369.2C890.339,3439.119,890.114,3439.667,890.3,3439.925Z" transform="translate(-890.235 -3437.506)" fill="#263238"/>
                            </g>
                          </g>
                        </g>
                      </g>
                    </g>
                  </g>
                </g>
                <g id="Grupo_927880" data-name="Grupo 927880" transform="translate(52.66 34.578)">
                  <g id="Grupo_927879" data-name="Grupo 927879">
                    <path id="Trazado_620802" data-name="Trazado 620802" d="M923.9,3446.558a4.242,4.242,0,0,1,4.425.222,7.843,7.843,0,0,1-4.944,14.566" transform="translate(-923.377 -3446.027)" fill="#ffbf9d"/>
                  </g>
                </g>
                <g id="Grupo_927883" data-name="Grupo 927883" transform="translate(53.974 38.351)">
                  <g id="Grupo_927882" data-name="Grupo 927882">
                    <g id="Grupo_927881" data-name="Grupo 927881">
                      <path id="Trazado_620803" data-name="Trazado 620803" d="M924.658,3455.093c.048-.119.657.144,1.475-.231a2.943,2.943,0,0,0,1.451-2.89,2.988,2.988,0,0,0-1.806-2.714c-.845-.347-1.469-.177-1.5-.307-.06-.084.575-.534,1.691-.284a3.111,3.111,0,0,1,1.654,1.032,3.77,3.77,0,0,1,.84,2.227,3.361,3.361,0,0,1-2.117,3.519C925.192,3455.749,924.568,3455.162,924.658,3455.093Z" transform="translate(-924.27 -3448.592)" fill="#ff9a6c"/>
                    </g>
                  </g>
                </g>
              </g>
            </g>
          </g>
          <g id="Grupo_927888" data-name="Grupo 927888" transform="translate(57.859 68.797)">
            <g id="Grupo_927887" data-name="Grupo 927887">
              <path id="Trazado_620804" data-name="Trazado 620804" d="M928.553,3455.766a3.427,3.427,0,0,1,.775.547l2.073,1.692,7.3,6.2.245.209-.207.25c-2.719,3.264-5.748,7.352-9.152,11.623-.771.965-1.541,1.907-2.29,2.788l-.625.737-.044-.965c-.307-6.889-.544-12.989-.679-17.366-.05-2.082-.091-3.81-.124-5.159a9.589,9.589,0,0,1,.051-1.879,9.579,9.579,0,0,1,.224,1.866c.093,1.346.212,3.071.356,5.148.271,4.372.6,10.467.931,17.354l-.669-.228c.728-.888,1.494-1.825,2.27-2.775,3.394-4.255,6.46-8.324,9.255-11.565l.038.459-7.126-6.41-1.956-1.831C928.757,3456.034,928.531,3455.793,928.553,3455.766Z" transform="translate(-925.822 -3454.444)" fill="#455a64"/>
            </g>
          </g>
          <g id="Grupo_927889" data-name="Grupo 927889" transform="translate(0 14.51)">
            <path id="Trazado_620805" data-name="Trazado 620805" d="M912.849,3417.526a61.7,61.7,0,0,0-12.337,1.347,20.669,20.669,0,0,0-10.667,6.007c-2.737,3.113-4.131,7.567-2.947,11.539s5.26,7.082,9.367,6.532c3.119-.417,6.11-2.726,9.12-1.809,2.844.866,4.41,4.336,7.333,4.878,2.886.534,5.455-2.057,8.38-2.312,3.226-.279,6.026,2.368,7.461,5.27s1.981,6.182,3.423,9.082c.922,1.853,2.354,3.631,4.358,4.146a5.985,5.985,0,0,0,5.275-1.483,12.248,12.248,0,0,0,3.089-4.728,26.278,26.278,0,0,0-21.35-36.021" transform="translate(-886.475 -3417.526)" fill="#263238"/>
          </g>
          <g id="Grupo_927891" data-name="Grupo 927891" transform="translate(49.371 15.981)">
            <g id="Grupo_927890" data-name="Grupo 927890">
              <path id="Trazado_620806" data-name="Trazado 620806" d="M938.278,3435.026c-.131.037-.525-1.366-1.565-3.437a24.506,24.506,0,0,0-13.089-11.826c-2.165-.825-3.6-1.074-3.575-1.208.007-.053.372-.031,1.028.056a15.164,15.164,0,0,1,2.728.643,22.322,22.322,0,0,1,13.4,12.1,15.514,15.514,0,0,1,.915,2.648C938.271,3434.652,938.329,3435.011,938.278,3435.026Z" transform="translate(-920.05 -3418.527)" fill="#ff4f5b"/>
            </g>
          </g>
          <g id="Grupo_927893" data-name="Grupo 927893" transform="translate(56.448 5.543)">
            <g id="Grupo_927892" data-name="Grupo 927892">
              <path id="Trazado_620807" data-name="Trazado 620807" d="M948.957,3413.581a27.8,27.8,0,0,0-4.075-1.263,16.254,16.254,0,0,0-9.924,1.492,22.05,22.05,0,0,0-7.67,6.674c-1.569,2.129-2.3,3.621-2.417,3.561a3.271,3.271,0,0,1,.4-1.1,20.922,20.922,0,0,1,1.572-2.772,20.615,20.615,0,0,1,7.771-7.048,15.75,15.75,0,0,1,10.373-1.338,11.628,11.628,0,0,1,3.005,1.121C948.655,3413.278,948.98,3413.542,948.957,3413.581Z" transform="translate(-924.862 -3411.428)" fill="#455a64"/>
            </g>
          </g>
          <g id="Grupo_927895" data-name="Grupo 927895" transform="translate(55.166 27.573)">
            <g id="Grupo_927894" data-name="Grupo 927894">
              <path id="Trazado_620808" data-name="Trazado 620808" d="M933.1,3426.41a10.606,10.606,0,0,1,.026,3.481,27.621,27.621,0,0,1-6.58,15.263,10.635,10.635,0,0,1-2.547,2.369c-.2-.163,3.776-3.817,6.31-9.8C932.917,3431.779,932.843,3426.378,933.1,3426.41Z" transform="translate(-923.991 -3426.41)" fill="#455a64"/>
            </g>
          </g>
          <g id="Grupo_927897" data-name="Grupo 927897" transform="translate(58.567 27.933)">
            <g id="Grupo_927896" data-name="Grupo 927896">
              <path id="Trazado_620809" data-name="Trazado 620809" d="M932.5,3426.655c.051-.016.2.328.415.969a16.6,16.6,0,0,1,.662,2.789,23.878,23.878,0,0,1-4.535,17.947,16.5,16.5,0,0,1-1.907,2.139c-.5.46-.787.694-.824.656-.1-.1.952-1.155,2.293-3.113a26.369,26.369,0,0,0,4.436-17.56C932.789,3428.123,932.368,3426.693,932.5,3426.655Z" transform="translate(-926.304 -3426.655)" fill="#455a64"/>
            </g>
          </g>
        </g>
      </g>
      <g id="Grupo_927914" data-name="Grupo 927914" transform="translate(1170.653 3372.972)">
        <g id="Grupo_927900" data-name="Grupo 927900" transform="translate(0 171.423)">
          <path id="Trazado_620810" data-name="Trazado 620810" d="M962.267,3429.353c-4.275,1.348-6.126,7.44-3.325,10.939s9.149,3.026,11.4-.849-.482-9.625-4.908-10.325" transform="translate(-957.609 -3429.117)" fill="#ebebeb"/>
        </g>
        <g id="Grupo_927901" data-name="Grupo 927901" transform="translate(19.194 142.499)">
          <path id="Trazado_620811" data-name="Trazado 620811" d="M976.006,3409.718c-4.9,1.547-7.027,8.534-3.814,12.548s10.5,3.472,13.078-.973-.553-11.042-5.632-11.846" transform="translate(-970.662 -3409.447)" fill="#ebebeb"/>
        </g>
        <g id="Grupo_927905" data-name="Grupo 927905" transform="translate(1.214)">
          <g id="Grupo_927902" data-name="Grupo 927902" transform="translate(0.286 0.17)">
            <path id="Trazado_620812" data-name="Trazado 620812" d="M1024.123,3327.907c-13.3-1.124-26.758,1.845-35.88,11.593a45.056,45.056,0,0,0-11.466,36.966c-14.149,5.879-21.863,23.87-16.366,38.173s23.275,22.5,37.719,17.386a51.159,51.159,0,0,0,86.992,13.849c13.877,3.137,29.452,2.931,41.11-5.222s16.934-26.095,8.051-37.207c15.986-3.892,24.108-23.857,19.368-39.611s-18.931-27.059-34.087-33.462c-10.017-4.23-22.505-6.441-31.052.284a39.565,39.565,0,0,0-64.388-2.75" transform="translate(-958.629 -3312.655)" fill="#f5f5f5"/>
          </g>
          <g id="Grupo_927904" data-name="Grupo 927904">
            <g id="Grupo_927903" data-name="Grupo 927903">
              <path id="Trazado_620813" data-name="Trazado 620813" d="M1024.215,3327.961s.262-.355.806-1.029a33.6,33.6,0,0,1,2.581-2.846,39.922,39.922,0,0,1,12.286-8.244,40.7,40.7,0,0,1,10.382-2.937,38.076,38.076,0,0,1,12.866.394,40.658,40.658,0,0,1,13.765,5.569,40.241,40.241,0,0,1,11.919,11.7l-.376-.063a21.5,21.5,0,0,1,12.586-4.319,40.784,40.784,0,0,1,14.178,2.261,74.128,74.128,0,0,1,13.887,6.369,65.186,65.186,0,0,1,12.876,9.714,48.146,48.146,0,0,1,9.946,13.679,40.365,40.365,0,0,1,2.831,8.315,35.519,35.519,0,0,1-5.151,26.28,27.841,27.841,0,0,1-6.463,6.9,25.6,25.6,0,0,1-8.671,4.148l.2-.587a20.943,20.943,0,0,1,3.95,8.4,25.312,25.312,0,0,1,.231,9.436,31.056,31.056,0,0,1-8.787,16.952c-4.71,4.636-10.984,7.505-17.5,8.942a59.171,59.171,0,0,1-20.153.594c-2.46-.3-4.885-.78-7.268-1.288l.38-.13c-12.212,14.642-32.187,21.216-49.687,17.653a52.671,52.671,0,0,1-37.928-31.616l.443.2c-8.368,2.889-17.509,1.41-24.683-2.581a28.938,28.938,0,0,1-14.443-18.3,31.078,31.078,0,0,1,2.988-21.576,30.055,30.055,0,0,1,14.568-13.675l-.16.285a45.333,45.333,0,0,1,.916-17.463,46.121,46.121,0,0,1,6.344-14.224,44.871,44.871,0,0,1,4.392-5.516,35.292,35.292,0,0,1,4.922-4.281,36.545,36.545,0,0,1,10.14-5.095,49.286,49.286,0,0,1,15.456-2.313,48.186,48.186,0,0,1,5.438.293s-.469-.005-1.382-.052-2.272-.094-4.056-.091a50,50,0,0,0-15.365,2.438,36.332,36.332,0,0,0-10.023,5.109,35.013,35.013,0,0,0-4.848,4.258,44.573,44.573,0,0,0-4.328,5.482,45.769,45.769,0,0,0-6.229,14.107,44.869,44.869,0,0,0-.854,17.268l.031.2-.191.081a29.519,29.519,0,0,0-14.256,13.456,30.493,30.493,0,0,0-2.892,21.157,28.3,28.3,0,0,0,14.157,17.869c7.038,3.9,15.988,5.325,24.124,2.5l.319-.11.125.313a51.982,51.982,0,0,0,37.42,31.142c17.224,3.5,36.941-3,48.952-17.409l.148-.179.231.05c2.362.5,4.763.979,7.2,1.276a58.468,58.468,0,0,0,19.888-.581c6.4-1.406,12.568-4.238,17.137-8.737a30.319,30.319,0,0,0,8.579-16.53c1.013-6.11-.269-12.556-4.016-17.253l-.353-.442.554-.145a24.907,24.907,0,0,0,8.41-4.017,27.167,27.167,0,0,0,6.3-6.722,34.828,34.828,0,0,0,5.073-25.741,39.728,39.728,0,0,0-2.769-8.166,47.457,47.457,0,0,0-9.789-13.5,64.554,64.554,0,0,0-12.734-9.642,73.523,73.523,0,0,0-13.756-6.345,40.247,40.247,0,0,0-13.973-2.268,20.973,20.973,0,0,0-12.287,4.172l-.224.172-.153-.235a39.8,39.8,0,0,0-11.737-11.592,40.315,40.315,0,0,0-13.6-5.562,37.782,37.782,0,0,0-12.737-.448,40.906,40.906,0,0,0-22.614,10.942,37.865,37.865,0,0,0-2.626,2.791C1024.516,3327.637,1024.215,3327.961,1024.215,3327.961Z" transform="translate(-958.435 -3312.54)" fill="#263238"/>
            </g>
          </g>
        </g>
        <g id="Grupo_927907" data-name="Grupo 927907" transform="translate(41.445 60.111)">
          <g id="Grupo_927906" data-name="Grupo 927906">
            <path id="Trazado_620814" data-name="Trazado 620814" d="M1102.269,3354.566c0,.634-26.076,1.148-58.235,1.148s-58.241-.515-58.241-1.148,26.07-1.148,58.241-1.148S1102.269,3353.933,1102.269,3354.566Z" transform="translate(-985.794 -3353.418)" fill="#455a64"/>
          </g>
        </g>
        <g id="Grupo_927909" data-name="Grupo 927909" transform="translate(41.445 72.746)">
          <g id="Grupo_927908" data-name="Grupo 927908">
            <path id="Trazado_620815" data-name="Trazado 620815" d="M1102.269,3363.159c0,.636-26.076,1.151-58.235,1.151s-58.241-.515-58.241-1.151,26.07-1.148,58.241-1.148S1102.269,3362.526,1102.269,3363.159Z" transform="translate(-985.794 -3362.011)" fill="#455a64"/>
          </g>
        </g>
        <g id="Grupo_927911" data-name="Grupo 927911" transform="translate(41.445 85.383)">
          <g id="Grupo_927910" data-name="Grupo 927910">
            <path id="Trazado_620816" data-name="Trazado 620816" d="M1102.269,3371.754c0,.635-26.076,1.148-58.235,1.148s-58.241-.513-58.241-1.148,26.07-1.148,58.241-1.148S1102.269,3371.119,1102.269,3371.754Z" transform="translate(-985.794 -3370.605)" fill="#455a64"/>
          </g>
        </g>
        <g id="Grupo_927913" data-name="Grupo 927913" transform="translate(41.445 98.021)">
          <g id="Grupo_927912" data-name="Grupo 927912">
            <path id="Trazado_620817" data-name="Trazado 620817" d="M1102.269,3380.347c0,.634-26.076,1.148-58.235,1.148s-58.241-.514-58.241-1.148,26.07-1.148,58.241-1.148S1102.269,3379.712,1102.269,3380.347Z" transform="translate(-985.794 -3379.199)" fill="#455a64"/>
          </g>
        </g>
      </g>
    </g>
    <rect id="Rectángulo_335180" data-name="Rectángulo 335180" width="119" height="33" rx="16.5" transform="translate(1169 2568)" fill="#eb6f2d"/>
    <rect id="Rectángulo_335181" data-name="Rectángulo 335181" width="119" height="33" rx="16.5" transform="translate(986 2377)" fill="#eb6f2d"/>
    <rect id="Rectángulo_335186" data-name="Rectángulo 335186" width="119" height="33" rx="16.5" transform="translate(432 2478)" fill="#eb6f2d"/>
    <rect id="Rectángulo_335187" data-name="Rectángulo 335187" width="119" height="33" rx="16.5" transform="translate(434 2645)" fill="#eb6f2d"/>
    <rect id="Rectángulo_335188" data-name="Rectángulo 335188" width="73" height="33" rx="16.5" transform="translate(668 2862)" fill="#eb6f2d"/>
    <path id="Trazado_640222" data-name="Trazado 640222" d="M10.266,17H7.922L3.359,9.516V17H1.016V5.625H3.359l4.57,7.5v-7.5h2.336Zm1.547-4.3a5.013,5.013,0,0,1,.484-2.242A3.546,3.546,0,0,1,13.691,8.93,4.069,4.069,0,0,1,15.8,8.391,3.849,3.849,0,0,1,18.6,9.438,4.2,4.2,0,0,1,19.8,12.281l.016.578a4.418,4.418,0,0,1-1.086,3.121,3.775,3.775,0,0,1-2.914,1.176A3.793,3.793,0,0,1,12.9,15.984a4.5,4.5,0,0,1-1.09-3.187Zm2.258.16a3.16,3.16,0,0,0,.453,1.843,1.628,1.628,0,0,0,2.578.008,3.457,3.457,0,0,0,.461-2.015A3.128,3.128,0,0,0,17.1,10.86a1.5,1.5,0,0,0-1.3-.649,1.474,1.474,0,0,0-1.281.646A3.516,3.516,0,0,0,14.07,12.856Zm11.891-2.192a6.134,6.134,0,0,0-.812-.062,1.654,1.654,0,0,0-1.68.867V17H21.211V8.547h2.133l.063,1.008a2.092,2.092,0,0,1,1.883-1.164,2.366,2.366,0,0,1,.7.1Zm3.2-2.117.07.945a2.971,2.971,0,0,1,2.43-1.1A2.255,2.255,0,0,1,33.906,9.68a2.9,2.9,0,0,1,2.539-1.289,2.521,2.521,0,0,1,2.047.8,3.681,3.681,0,0,1,.672,2.41V17H36.9V11.609a1.61,1.61,0,0,0-.281-1.051,1.246,1.246,0,0,0-.992-.332,1.409,1.409,0,0,0-1.406.969l.008,5.8H31.969V11.617a1.59,1.59,0,0,0-.289-1.062,1.259,1.259,0,0,0-.984-.328,1.463,1.463,0,0,0-1.391.8V17H27.047V8.547ZM45.8,17a2.507,2.507,0,0,1-.227-.758,2.732,2.732,0,0,1-2.133.914,3,3,0,0,1-2.059-.719,2.312,2.312,0,0,1-.816-1.812,2.389,2.389,0,0,1,1-2.062,4.915,4.915,0,0,1,2.879-.727h1.039v-.484a1.393,1.393,0,0,0-.3-.937,1.183,1.183,0,0,0-.949-.352,1.345,1.345,0,0,0-.895.273.929.929,0,0,0-.324.75H40.75A2.268,2.268,0,0,1,41.2,9.727a3,3,0,0,1,1.281-.98,4.669,4.669,0,0,1,1.859-.355,3.689,3.689,0,0,1,2.48.785,2.747,2.747,0,0,1,.918,2.207v3.664a4.041,4.041,0,0,0,.336,1.82V17ZM43.93,15.43a1.945,1.945,0,0,0,.922-.223,1.462,1.462,0,0,0,.625-.6V13.156h-.844q-1.7,0-1.8,1.172l-.008.133a.9.9,0,0,0,.3.7A1.153,1.153,0,0,0,43.93,15.43Zm8.25-8.961V8.547h1.445V10.2H52.18v4.219a1.007,1.007,0,0,0,.18.672.9.9,0,0,0,.688.2,3.6,3.6,0,0,0,.664-.055v1.711a4.648,4.648,0,0,1-1.367.2,2.156,2.156,0,0,1-2.422-2.4V10.2H48.688V8.547h1.234V6.469ZM57.266,17H55V8.547h2.266Zm-2.4-10.641a1.112,1.112,0,0,1,.34-.836,1.465,1.465,0,0,1,1.848,0,1.105,1.105,0,0,1,.344.836,1.108,1.108,0,0,1-.348.844,1.448,1.448,0,0,1-1.836,0A1.108,1.108,0,0,1,54.867,6.359Zm7.422,7.883,1.57-5.7h2.359L63.367,17H61.211L58.359,8.547h2.359ZM71.992,17a2.507,2.507,0,0,1-.227-.758,2.732,2.732,0,0,1-2.133.914,3,3,0,0,1-2.059-.719,2.312,2.312,0,0,1-.816-1.812,2.389,2.389,0,0,1,1-2.062,4.915,4.915,0,0,1,2.879-.727h1.039v-.484a1.393,1.393,0,0,0-.3-.937,1.183,1.183,0,0,0-.949-.352,1.345,1.345,0,0,0-.895.273.929.929,0,0,0-.324.75H66.945A2.268,2.268,0,0,1,67.4,9.727a3,3,0,0,1,1.281-.98,4.669,4.669,0,0,1,1.859-.355,3.689,3.689,0,0,1,2.48.785,2.747,2.747,0,0,1,.918,2.207v3.664a4.041,4.041,0,0,0,.336,1.82V17Zm-1.867-1.57a1.945,1.945,0,0,0,.922-.223,1.462,1.462,0,0,0,.625-.6V13.156h-.844q-1.7,0-1.8,1.172l-.008.133a.9.9,0,0,0,.3.7A1.153,1.153,0,0,0,70.125,15.43Z" transform="translate(1189.5 2574)" fill="#12263f"/>
    <path id="Trazado_640223" data-name="Trazado 640223" d="M9.945,13.211A4.025,4.025,0,0,1,8.59,16.1a4.76,4.76,0,0,1-3.223,1.055,4.28,4.28,0,0,1-3.441-1.473A6.038,6.038,0,0,1,.672,11.641v-.7A6.819,6.819,0,0,1,1.25,8.055,4.332,4.332,0,0,1,2.9,6.137a4.629,4.629,0,0,1,2.5-.668A4.637,4.637,0,0,1,8.57,6.523,4.326,4.326,0,0,1,9.961,9.484H7.617A2.376,2.376,0,0,0,7,7.887a2.271,2.271,0,0,0-1.605-.5,1.991,1.991,0,0,0-1.754.84,4.707,4.707,0,0,0-.6,2.605V11.7a5.038,5.038,0,0,0,.559,2.7,1.954,1.954,0,0,0,1.762.852,2.314,2.314,0,0,0,1.621-.5A2.241,2.241,0,0,0,7.6,13.211Zm1.039-.516a5.013,5.013,0,0,1,.484-2.242A3.546,3.546,0,0,1,12.863,8.93a4.069,4.069,0,0,1,2.113-.539A3.849,3.849,0,0,1,17.77,9.438a4.2,4.2,0,0,1,1.207,2.844l.016.578a4.418,4.418,0,0,1-1.086,3.121,3.775,3.775,0,0,1-2.914,1.176,3.793,3.793,0,0,1-2.918-1.172,4.5,4.5,0,0,1-1.09-3.187Zm2.258.16A3.16,3.16,0,0,0,13.7,14.7a1.628,1.628,0,0,0,2.578.008,3.457,3.457,0,0,0,.461-2.015,3.128,3.128,0,0,0-.461-1.831,1.5,1.5,0,0,0-1.3-.649,1.474,1.474,0,0,0-1.281.646A3.516,3.516,0,0,0,13.242,12.856Zm9.344-3.387a2.818,2.818,0,0,1,2.258-1.078q2.75,0,2.789,3.2V17H25.375V11.648a1.57,1.57,0,0,0-.312-1.074,1.34,1.34,0,0,0-1.039-.348,1.537,1.537,0,0,0-1.437.766V17H20.328V5h2.258Zm10.641,7.688A4.15,4.15,0,0,1,30.2,16.016a4.054,4.054,0,0,1-1.168-3.039v-.219a5.106,5.106,0,0,1,.492-2.277,3.612,3.612,0,0,1,1.395-1.547,3.914,3.914,0,0,1,2.059-.543,3.508,3.508,0,0,1,2.73,1.094,4.444,4.444,0,0,1,1,3.1v.922H31.32a2.1,2.1,0,0,0,.66,1.328,2,2,0,0,0,1.395.5,2.437,2.437,0,0,0,2.039-.945l1.109,1.242a3.389,3.389,0,0,1-1.375,1.121A4.511,4.511,0,0,1,33.227,17.156Zm-.258-6.945a1.411,1.411,0,0,0-1.09.455,2.357,2.357,0,0,0-.535,1.3h3.141v-.181a1.681,1.681,0,0,0-.406-1.165A1.456,1.456,0,0,0,32.969,10.211Zm9.594,4.453a.727.727,0,0,0-.41-.652,4.659,4.659,0,0,0-1.316-.426q-3.016-.633-3.016-2.562a2.323,2.323,0,0,1,.934-1.879A3.766,3.766,0,0,1,41.2,8.391a4.053,4.053,0,0,1,2.574.758,2.388,2.388,0,0,1,.965,1.969H42.477a1.092,1.092,0,0,0-.312-.8A1.322,1.322,0,0,0,41.188,10a1.351,1.351,0,0,0-.883.258.814.814,0,0,0-.312.656.7.7,0,0,0,.355.605,3.657,3.657,0,0,0,1.2.4,9.8,9.8,0,0,1,1.422.379,2.336,2.336,0,0,1,1.789,2.273,2.2,2.2,0,0,1-.992,1.871,4.28,4.28,0,0,1-2.562.715,4.47,4.47,0,0,1-1.887-.379,3.166,3.166,0,0,1-1.293-1.039,2.414,2.414,0,0,1-.469-1.426H39.7a1.179,1.179,0,0,0,.445.922,1.766,1.766,0,0,0,1.109.32,1.635,1.635,0,0,0,.98-.246A.766.766,0,0,0,42.563,14.664ZM48.594,17H46.328V8.547h2.266ZM46.2,6.359a1.112,1.112,0,0,1,.34-.836,1.465,1.465,0,0,1,1.848,0,1.105,1.105,0,0,1,.344.836,1.108,1.108,0,0,1-.348.844,1.448,1.448,0,0,1-1.836,0A1.108,1.108,0,0,1,46.2,6.359ZM50.1,12.7a5.013,5.013,0,0,1,.484-2.242A3.546,3.546,0,0,1,51.98,8.93a4.069,4.069,0,0,1,2.113-.539,3.849,3.849,0,0,1,2.793,1.047,4.2,4.2,0,0,1,1.207,2.844l.016.578a4.418,4.418,0,0,1-1.086,3.121,4.209,4.209,0,0,1-5.832,0A4.5,4.5,0,0,1,50.1,12.8Zm2.258.16a3.16,3.16,0,0,0,.453,1.843,1.628,1.628,0,0,0,2.578.008,3.457,3.457,0,0,0,.461-2.015,3.128,3.128,0,0,0-.461-1.831,1.5,1.5,0,0,0-1.3-.649,1.474,1.474,0,0,0-1.281.646A3.516,3.516,0,0,0,52.359,12.856ZM54.539,5H57L54.836,7.422H53Zm7.039,3.547.07.977a2.951,2.951,0,0,1,2.43-1.133,2.453,2.453,0,0,1,2,.789,3.682,3.682,0,0,1,.672,2.359V17H64.492V11.594a1.465,1.465,0,0,0-.312-1.043,1.4,1.4,0,0,0-1.039-.324,1.553,1.553,0,0,0-1.43.813V17H59.453V8.547Z" transform="translate(1006.5 2383)" fill="#12263f"/>
    <path id="Trazado_640219" data-name="Trazado 640219" d="M9.945,13.211A4.025,4.025,0,0,1,8.59,16.1a4.76,4.76,0,0,1-3.223,1.055,4.28,4.28,0,0,1-3.441-1.473A6.038,6.038,0,0,1,.672,11.641v-.7A6.819,6.819,0,0,1,1.25,8.055,4.332,4.332,0,0,1,2.9,6.137a4.629,4.629,0,0,1,2.5-.668A4.637,4.637,0,0,1,8.57,6.523,4.326,4.326,0,0,1,9.961,9.484H7.617A2.376,2.376,0,0,0,7,7.887a2.271,2.271,0,0,0-1.605-.5,1.991,1.991,0,0,0-1.754.84,4.707,4.707,0,0,0-.6,2.605V11.7a5.038,5.038,0,0,0,.559,2.7,1.954,1.954,0,0,0,1.762.852,2.314,2.314,0,0,0,1.621-.5A2.241,2.241,0,0,0,7.6,13.211Zm1.039-.516a5.013,5.013,0,0,1,.484-2.242A3.546,3.546,0,0,1,12.863,8.93a4.069,4.069,0,0,1,2.113-.539A3.849,3.849,0,0,1,17.77,9.438a4.2,4.2,0,0,1,1.207,2.844l.016.578a4.418,4.418,0,0,1-1.086,3.121,3.775,3.775,0,0,1-2.914,1.176,3.793,3.793,0,0,1-2.918-1.172,4.5,4.5,0,0,1-1.09-3.187Zm2.258.16A3.16,3.16,0,0,0,13.7,14.7a1.628,1.628,0,0,0,2.578.008,3.457,3.457,0,0,0,.461-2.015,3.128,3.128,0,0,0-.461-1.831,1.5,1.5,0,0,0-1.3-.649,1.474,1.474,0,0,0-1.281.646A3.516,3.516,0,0,0,13.242,12.856Zm9.344-3.387a2.818,2.818,0,0,1,2.258-1.078q2.75,0,2.789,3.2V17H25.375V11.648a1.57,1.57,0,0,0-.312-1.074,1.34,1.34,0,0,0-1.039-.348,1.537,1.537,0,0,0-1.437.766V17H20.328V5h2.258Zm10.641,7.688A4.15,4.15,0,0,1,30.2,16.016a4.054,4.054,0,0,1-1.168-3.039v-.219a5.106,5.106,0,0,1,.492-2.277,3.612,3.612,0,0,1,1.395-1.547,3.914,3.914,0,0,1,2.059-.543,3.508,3.508,0,0,1,2.73,1.094,4.444,4.444,0,0,1,1,3.1v.922H31.32a2.1,2.1,0,0,0,.66,1.328,2,2,0,0,0,1.395.5,2.437,2.437,0,0,0,2.039-.945l1.109,1.242a3.389,3.389,0,0,1-1.375,1.121A4.511,4.511,0,0,1,33.227,17.156Zm-.258-6.945a1.411,1.411,0,0,0-1.09.455,2.357,2.357,0,0,0-.535,1.3h3.141v-.181a1.681,1.681,0,0,0-.406-1.165A1.456,1.456,0,0,0,32.969,10.211Zm9.766.453a6.134,6.134,0,0,0-.812-.062,1.654,1.654,0,0,0-1.68.867V17H37.984V8.547h2.133l.063,1.008a2.092,2.092,0,0,1,1.883-1.164,2.366,2.366,0,0,1,.7.1Zm4.977,6.492a4.15,4.15,0,0,1-3.027-1.141,4.054,4.054,0,0,1-1.168-3.039v-.219a5.106,5.106,0,0,1,.492-2.277A3.612,3.612,0,0,1,45.4,8.934a3.914,3.914,0,0,1,2.059-.543,3.508,3.508,0,0,1,2.73,1.094,4.444,4.444,0,0,1,1,3.1v.922H45.8a2.1,2.1,0,0,0,.66,1.328,2,2,0,0,0,1.395.5,2.437,2.437,0,0,0,2.039-.945l1.109,1.242a3.389,3.389,0,0,1-1.375,1.121A4.511,4.511,0,0,1,47.711,17.156Zm-.258-6.945a1.411,1.411,0,0,0-1.09.455,2.357,2.357,0,0,0-.535,1.3h3.141v-.181a1.681,1.681,0,0,0-.406-1.165A1.456,1.456,0,0,0,47.453,10.211Zm7.094-1.664.07.977a2.951,2.951,0,0,1,2.43-1.133,2.453,2.453,0,0,1,2,.789,3.682,3.682,0,0,1,.672,2.359V17H57.461V11.594a1.465,1.465,0,0,0-.312-1.043,1.4,1.4,0,0,0-1.039-.324,1.553,1.553,0,0,0-1.43.813V17H52.422V8.547Zm10.4,6.789a1.481,1.481,0,0,0,1.016-.344,1.2,1.2,0,0,0,.406-.914h2.117a2.9,2.9,0,0,1-.469,1.574,3.093,3.093,0,0,1-1.262,1.109,3.949,3.949,0,0,1-1.77.395A3.67,3.67,0,0,1,62.125,16a4.56,4.56,0,0,1-1.047-3.184v-.148a4.508,4.508,0,0,1,1.039-3.117,3.627,3.627,0,0,1,2.852-1.164,3.555,3.555,0,0,1,2.543.9,3.2,3.2,0,0,1,.973,2.4H66.367a1.551,1.551,0,0,0-.406-1.072,1.51,1.51,0,0,0-2.223.163,3.333,3.333,0,0,0-.4,1.866v.235a3.375,3.375,0,0,0,.4,1.878A1.377,1.377,0,0,0,64.945,15.336ZM72.156,17H69.891V8.547h2.266Zm-2.4-10.641a1.112,1.112,0,0,1,.34-.836,1.465,1.465,0,0,1,1.848,0,1.105,1.105,0,0,1,.344.836,1.108,1.108,0,0,1-.348.844,1.448,1.448,0,0,1-1.836,0A1.108,1.108,0,0,1,69.758,6.359ZM78.914,17a2.507,2.507,0,0,1-.227-.758,2.732,2.732,0,0,1-2.133.914,3,3,0,0,1-2.059-.719,2.312,2.312,0,0,1-.816-1.812,2.389,2.389,0,0,1,1-2.062,4.915,4.915,0,0,1,2.879-.727h1.039v-.484a1.393,1.393,0,0,0-.3-.937,1.183,1.183,0,0,0-.949-.352,1.345,1.345,0,0,0-.895.273.929.929,0,0,0-.324.75H73.867a2.268,2.268,0,0,1,.453-1.359,3,3,0,0,1,1.281-.98,4.669,4.669,0,0,1,1.859-.355,3.689,3.689,0,0,1,2.48.785,2.747,2.747,0,0,1,.918,2.207v3.664a4.041,4.041,0,0,0,.336,1.82V17Zm-1.867-1.57a1.945,1.945,0,0,0,.922-.223,1.462,1.462,0,0,0,.625-.6V13.156H77.75q-1.7,0-1.8,1.172l-.008.133a.9.9,0,0,0,.3.7A1.153,1.153,0,0,0,77.047,15.43Z" transform="translate(449.5 2484)" fill="#12263f"/>
    <path id="Trazado_640220" data-name="Trazado 640220" d="M7.438,14.656H3.328L2.547,17H.055L4.289,5.625H6.461L10.719,17H8.227Zm-3.477-1.9H6.8L5.375,8.5Zm7.32-.047a5.094,5.094,0,0,1,.887-3.148,2.877,2.877,0,0,1,2.426-1.172,2.589,2.589,0,0,1,2.039.922V5H18.9V17H16.859l-.109-.9a2.657,2.657,0,0,1-2.172,1.055,2.869,2.869,0,0,1-2.395-1.176A5.258,5.258,0,0,1,11.281,12.711Zm2.258.168a3.337,3.337,0,0,0,.414,1.823,1.349,1.349,0,0,0,1.2.634,1.511,1.511,0,0,0,1.477-.884V11.111a1.489,1.489,0,0,0-1.461-.884Q13.539,10.227,13.539,12.879Zm11,4.277a4.15,4.15,0,0,1-3.027-1.141,4.054,4.054,0,0,1-1.168-3.039v-.219a5.106,5.106,0,0,1,.492-2.277A3.612,3.612,0,0,1,22.23,8.934a3.914,3.914,0,0,1,2.059-.543,3.508,3.508,0,0,1,2.73,1.094,4.444,4.444,0,0,1,1,3.1v.922H22.633a2.1,2.1,0,0,0,.66,1.328,2,2,0,0,0,1.395.5,2.437,2.437,0,0,0,2.039-.945l1.109,1.242a3.389,3.389,0,0,1-1.375,1.121A4.511,4.511,0,0,1,24.539,17.156Zm-.258-6.945a1.411,1.411,0,0,0-1.09.455,2.357,2.357,0,0,0-.535,1.3H25.8v-.181a1.681,1.681,0,0,0-.406-1.165A1.456,1.456,0,0,0,24.281,10.211Zm8.531,5.125a1.481,1.481,0,0,0,1.016-.344,1.2,1.2,0,0,0,.406-.914h2.117a2.9,2.9,0,0,1-.469,1.574,3.093,3.093,0,0,1-1.262,1.109,3.949,3.949,0,0,1-1.77.395A3.67,3.67,0,0,1,29.992,16a4.56,4.56,0,0,1-1.047-3.184v-.148a4.508,4.508,0,0,1,1.039-3.117,3.627,3.627,0,0,1,2.852-1.164,3.555,3.555,0,0,1,2.543.9,3.2,3.2,0,0,1,.973,2.4H34.234a1.551,1.551,0,0,0-.406-1.072,1.51,1.51,0,0,0-2.223.163,3.333,3.333,0,0,0-.4,1.866v.235a3.375,3.375,0,0,0,.4,1.878A1.377,1.377,0,0,0,32.813,15.336Zm9.891.8a2.831,2.831,0,0,1-2.312,1.016,2.67,2.67,0,0,1-2.074-.781,3.335,3.335,0,0,1-.73-2.289V8.547h2.258v5.467q0,1.322,1.2,1.322a1.63,1.63,0,0,0,1.578-.8V8.547h2.266V17H42.766ZM51.492,17a2.507,2.507,0,0,1-.227-.758,2.732,2.732,0,0,1-2.133.914,3,3,0,0,1-2.059-.719,2.312,2.312,0,0,1-.816-1.812,2.389,2.389,0,0,1,1-2.062,4.915,4.915,0,0,1,2.879-.727h1.039v-.484a1.393,1.393,0,0,0-.3-.937,1.183,1.183,0,0,0-.949-.352,1.345,1.345,0,0,0-.895.273.929.929,0,0,0-.324.75H46.445A2.268,2.268,0,0,1,46.9,9.727a3,3,0,0,1,1.281-.98,4.669,4.669,0,0,1,1.859-.355,3.689,3.689,0,0,1,2.48.785,2.747,2.747,0,0,1,.918,2.207v3.664a4.041,4.041,0,0,0,.336,1.82V17Zm-1.867-1.57a1.945,1.945,0,0,0,.922-.223,1.462,1.462,0,0,0,.625-.6V13.156h-.844q-1.7,0-1.8,1.172l-.008.133a.9.9,0,0,0,.3.7A1.153,1.153,0,0,0,49.625,15.43Zm9.063-.094a1.481,1.481,0,0,0,1.016-.344,1.2,1.2,0,0,0,.406-.914h2.117a2.9,2.9,0,0,1-.469,1.574A3.093,3.093,0,0,1,60.5,16.762a3.949,3.949,0,0,1-1.77.395A3.67,3.67,0,0,1,55.867,16,4.56,4.56,0,0,1,54.82,12.82v-.148a4.508,4.508,0,0,1,1.039-3.117,3.627,3.627,0,0,1,2.852-1.164,3.555,3.555,0,0,1,2.543.9,3.2,3.2,0,0,1,.973,2.4H60.109a1.551,1.551,0,0,0-.406-1.072,1.51,1.51,0,0,0-2.223.163,3.333,3.333,0,0,0-.4,1.866v.235a3.375,3.375,0,0,0,.4,1.878A1.377,1.377,0,0,0,58.688,15.336ZM65.9,17H63.633V8.547H65.9ZM63.5,6.359a1.112,1.112,0,0,1,.34-.836,1.465,1.465,0,0,1,1.848,0,1.105,1.105,0,0,1,.344.836,1.108,1.108,0,0,1-.348.844,1.448,1.448,0,0,1-1.836,0A1.108,1.108,0,0,1,63.5,6.359ZM67.406,12.7a5.013,5.013,0,0,1,.484-2.242A3.546,3.546,0,0,1,69.285,8.93,4.069,4.069,0,0,1,71.4,8.391a3.849,3.849,0,0,1,2.793,1.047A4.2,4.2,0,0,1,75.4,12.281l.016.578a4.418,4.418,0,0,1-1.086,3.121,4.209,4.209,0,0,1-5.832,0,4.5,4.5,0,0,1-1.09-3.187Zm2.258.16a3.16,3.16,0,0,0,.453,1.843,1.628,1.628,0,0,0,2.578.008,3.457,3.457,0,0,0,.461-2.015A3.128,3.128,0,0,0,72.7,10.86a1.5,1.5,0,0,0-1.3-.649,1.474,1.474,0,0,0-1.281.646A3.516,3.516,0,0,0,69.664,12.856ZM71.844,5H74.3L72.141,7.422H70.3Zm7.039,3.547.07.977a2.951,2.951,0,0,1,2.43-1.133,2.453,2.453,0,0,1,2,.789,3.682,3.682,0,0,1,.672,2.359V17H81.8V11.594a1.465,1.465,0,0,0-.312-1.043,1.4,1.4,0,0,0-1.039-.324,1.553,1.553,0,0,0-1.43.813V17H76.758V8.547Z" transform="translate(451.5 2651)" fill="#12263f"/>
    <path id="Trazado_640221" data-name="Trazado 640221" d="M10.359,11.57a6.867,6.867,0,0,1-.594,2.945,4.472,4.472,0,0,1-1.7,1.953,4.7,4.7,0,0,1-2.535.688,4.732,4.732,0,0,1-2.523-.68,4.515,4.515,0,0,1-1.719-1.941,6.67,6.67,0,0,1-.617-2.9V11.07a6.831,6.831,0,0,1,.605-2.957A4.508,4.508,0,0,1,2.988,6.152a4.706,4.706,0,0,1,2.527-.684,4.706,4.706,0,0,1,2.527.684A4.508,4.508,0,0,1,9.754,8.113a6.811,6.811,0,0,1,.605,2.949Zm-2.375-.516a4.787,4.787,0,0,0-.641-2.719,2.088,2.088,0,0,0-1.828-.93,2.088,2.088,0,0,0-1.82.918,4.732,4.732,0,0,0-.648,2.691v.555a4.847,4.847,0,0,0,.641,2.7,2.082,2.082,0,0,0,1.844.961,2.064,2.064,0,0,0,1.813-.926,4.819,4.819,0,0,0,.641-2.7Zm6.633-4.586V8.547h1.445V10.2H14.617v4.219a1.007,1.007,0,0,0,.18.672.9.9,0,0,0,.688.2,3.6,3.6,0,0,0,.664-.055v1.711a4.648,4.648,0,0,1-1.367.2,2.156,2.156,0,0,1-2.422-2.4V10.2H11.125V8.547h1.234V6.469Zm7.453,4.2a6.134,6.134,0,0,0-.812-.062,1.654,1.654,0,0,0-1.68.867V17H17.32V8.547h2.133l.063,1.008A2.092,2.092,0,0,1,21.4,8.391a2.366,2.366,0,0,1,.7.1Zm.453,2.031a5.013,5.013,0,0,1,.484-2.242A3.546,3.546,0,0,1,24.4,8.93a4.069,4.069,0,0,1,2.113-.539,3.849,3.849,0,0,1,2.793,1.047,4.2,4.2,0,0,1,1.207,2.844l.016.578a4.418,4.418,0,0,1-1.086,3.121,3.775,3.775,0,0,1-2.914,1.176,3.793,3.793,0,0,1-2.918-1.172,4.5,4.5,0,0,1-1.09-3.187Zm2.258.16a3.16,3.16,0,0,0,.453,1.843,1.628,1.628,0,0,0,2.578.008,3.457,3.457,0,0,0,.461-2.015,3.128,3.128,0,0,0-.461-1.831,1.5,1.5,0,0,0-1.3-.649,1.474,1.474,0,0,0-1.281.646A3.516,3.516,0,0,0,24.781,12.856ZM36.5,14.664a.727.727,0,0,0-.41-.652,4.659,4.659,0,0,0-1.316-.426q-3.016-.633-3.016-2.562a2.323,2.323,0,0,1,.934-1.879,3.766,3.766,0,0,1,2.441-.754,4.053,4.053,0,0,1,2.574.758,2.388,2.388,0,0,1,.965,1.969H36.414a1.092,1.092,0,0,0-.312-.8A1.322,1.322,0,0,0,35.125,10a1.351,1.351,0,0,0-.883.258.814.814,0,0,0-.312.656.7.7,0,0,0,.355.605,3.657,3.657,0,0,0,1.2.4,9.8,9.8,0,0,1,1.422.379A2.336,2.336,0,0,1,38.7,14.57a2.2,2.2,0,0,1-.992,1.871,4.28,4.28,0,0,1-2.562.715,4.47,4.47,0,0,1-1.887-.379,3.166,3.166,0,0,1-1.293-1.039,2.414,2.414,0,0,1-.469-1.426h2.141a1.179,1.179,0,0,0,.445.922,1.766,1.766,0,0,0,1.109.32,1.635,1.635,0,0,0,.98-.246A.766.766,0,0,0,36.5,14.664Z" transform="translate(685 2868)" fill="#12263f"/>
  </g>
</svg>
