<svg xmlns="http://www.w3.org/2000/svg" width="359.479" height="343.115" viewBox="0 0 359.479 343.115">
  <g id="Grupo_928000" data-name="Grupo 928000" transform="translate(-18.978 -36.727)">
    <g id="Plants" transform="translate(22.906 173.028)">
      <g id="Plants-2" data-name="Plants" transform="translate(310.583)">
        <g id="Grupo_927934" data-name="Grupo 927934">
          <path id="Trazado_620822" data-name="Trazado 620822" d="M452.324,226.471c-4.262,11.2-13.224,18.783-16.4,41.785-.607,4.392-.058,11.276,0,14.82h-9.51c-1.8-10.774-3.05-27-.592-41.63,2.891-17.168,12.066-26.547,18.4-28.439C451.335,210.888,456.809,214.681,452.324,226.471Z" transform="translate(-424.451 -212.449)" fill="#e0e0e0"/>
          <g id="Grupo_927933" data-name="Grupo 927933" transform="translate(5.756 6.203)">
            <path id="Trazado_620823" data-name="Trazado 620823" d="M448.079,220.571a.461.461,0,0,0-.652.019c-9.56,10.152-19.249,35.726-14.147,64.279h1c-5.3-28.476,4.324-53.568,13.816-63.646A.463.463,0,0,0,448.079,220.571Z" transform="translate(-431.871 -220.445)" fill="#fff"/>
          </g>
        </g>
        <g id="Grupo_927936" data-name="Grupo 927936" transform="translate(8.384 26.566)">
          <path id="Trazado_620824" data-name="Trazado 620824" d="M451.662,271.674c-4.016,6.1-7.25,9.812-10.4,19.085H435.26c0-20.912,8.055-32.988,11.947-37.368,4.247-4.779,10.427-9.2,15.159-5.024,2.974,2.626,1.469,6.965-.533,10.42C459.572,262.689,455.319,266.124,451.662,271.674Z" transform="translate(-435.26 -246.699)" fill="#f0f0f0"/>
          <g id="Grupo_927935" data-name="Grupo 927935" transform="translate(2.194 6.034)">
            <path id="Trazado_620825" data-name="Trazado 620825" d="M458.039,254.7a.467.467,0,0,0-.652-.14c-6.7,4.339-17.258,22.6-19.3,37.949h.949c2.017-14.992,12.457-33.008,18.862-37.157A.471.471,0,0,0,458.039,254.7Z" transform="translate(-438.088 -254.478)" fill="#fff"/>
          </g>
        </g>
      </g>
      <g id="Plants-3" data-name="Plants" transform="translate(0 0.193)">
        <g id="Grupo_927939" data-name="Grupo 927939" transform="translate(13.734)">
          <g id="Grupo_927937" data-name="Grupo 927937">
            <path id="Trazado_620826" data-name="Trazado 620826" d="M60.2,282.98l7.518-4.345s4.474-18.59,2.691-35.318C67.9,219.8,52.421,210.95,46.535,212.979s-7.591,8.871,2.149,22.878C54.43,244.122,61.49,261.335,60.2,282.98Z" transform="translate(-41.748 -212.698)" fill="#f0f0f0"/>
          </g>
          <g id="Grupo_927938" data-name="Grupo 927938" transform="translate(8.101 3.445)">
            <path id="Trazado_620827" data-name="Trazado 620827" d="M65.658,274.842a.469.469,0,0,1-.072-.009.521.521,0,0,1-.414-.609c4.12-21.692-3.458-46.068-12.841-56.211a.521.521,0,1,1,.766-.707c9.555,10.328,17.281,35.1,13.1,57.112A.522.522,0,0,1,65.658,274.842Z" transform="translate(-52.192 -217.14)" fill="#fff"/>
          </g>
        </g>
        <g id="Grupo_927943" data-name="Grupo 927943" transform="translate(0 21.953)">
          <g id="Grupo_927940" data-name="Grupo 927940">
            <path id="Trazado_620828" data-name="Trazado 620828" d="M37.31,300.251c-1.122.572-4.109-1.984-4.942-2.606a10.428,10.428,0,0,1-3.263-4.151,9.768,9.768,0,0,1-.572-5.906,23.1,23.1,0,0,1,.9-3.079l1.023-2.982a7.688,7.688,0,0,0,.6-3.029c-.161-2.083-1.924-3.625-3.531-4.96-1.777-1.476-3.608-3.4-3.472-5.889a8.779,8.779,0,0,1,2.458-5.105c1.267-1.448,2.748-2.71,3.9-4.248a6.121,6.121,0,0,0,1.449-3.808,6.39,6.39,0,0,0-.721-2.46,34.255,34.255,0,0,1-2.4-4.984c-.52-1.773-.323-3.936,1.1-5.114a5.715,5.715,0,0,1,4.341-.851,9.847,9.847,0,0,1,3.916,1.6c3.843,2.4,5.865,7.2,9.977,9.1a41.932,41.932,0,0,0,5.017,1.5,6.278,6.278,0,0,1,4.044,3.08c1.385,3.155-1.665,6.8-.746,10.123.812,2.939,3.565,4.187,5.012,6.872a6.192,6.192,0,0,1,.547,3.821,18.191,18.191,0,0,1-1.918,6.314,57.085,57.085,0,0,1-3.8,5.838S37.482,300.163,37.31,300.251Z" transform="translate(-24.042 -241)" fill="#e0e0e0"/>
          </g>
          <g id="Grupo_927941" data-name="Grupo 927941" transform="translate(10.838 4.038)">
            <path id="Trazado_620829" data-name="Trazado 620829" d="M51.325,295.748h-.013a.5.5,0,0,1-.453-.537c1.8-19.51-6.324-41.56-12.707-48.169a.493.493,0,1,1,.71-.686c6.511,6.741,14.8,29.16,12.98,48.944A.494.494,0,0,1,51.325,295.748Z" transform="translate(-38.014 -246.206)" fill="#fff"/>
          </g>
          <g id="Grupo_927942" data-name="Grupo 927942" transform="translate(7.545 25.505)">
            <path id="Trazado_620830" data-name="Trazado 620830" d="M48.434,277.9a.5.5,0,0,1-.144-.029,66.231,66.231,0,0,0-14.073-3,.494.494,0,0,1-.447-.536.48.48,0,0,1,.537-.447,67.347,67.347,0,0,1,14.321,3.06.493.493,0,0,1-.194.955Z" transform="translate(-33.768 -273.882)" fill="#fff"/>
          </g>
        </g>
      </g>
    </g>
    <g id="Floor" transform="translate(27.901 183.23)">
      <path id="Floor-2" data-name="Floor" d="M80.352,254.395c-66.495,38.391-66.493,100.635,0,139.026s174.307,38.391,240.8,0,66.493-100.635,0-139.026S146.847,216,80.352,254.395Z" transform="translate(-30.482 -225.601)" fill="#fafafa"/>
    </g>
    <g id="Shadows" transform="translate(55.061 289.469)">
      <ellipse id="Shadow" cx="53.503" cy="30.89" rx="53.503" ry="30.89" transform="translate(0 0.432)" fill="#e0e0e0"/>
      <ellipse id="Shadow-2" data-name="Shadow" cx="53.503" cy="30.89" rx="53.503" ry="30.89" transform="translate(179.219)" fill="#e0e0e0"/>
    </g>
    <g id="Speech_Bubbles_3" data-name="Speech Bubbles 3" transform="translate(18.978 48.272)">
      <path id="Speech_Bubble" data-name="Speech Bubble" d="M48.771,99.93c-16.428,0-29.793-10.838-29.793-24.16s13.365-24.16,29.793-24.16,29.793,10.838,29.793,24.16c0,6.53-3.3,12.824-9.075,17.36,1.634,1.52,4.4,2.055,7.407,1.4l1.419-.309-.812,1.2c-1.468,2.174-4.445,3.778-7.966,4.29a13.859,13.859,0,0,1-9.285-1.646A35.662,35.662,0,0,1,48.771,99.93Zm0-47.156c-15.786,0-28.629,10.316-28.629,23s12.843,23,28.629,23a34.479,34.479,0,0,0,11.367-1.889l.276-.1.241.163a12.7,12.7,0,0,0,8.712,1.62,11.745,11.745,0,0,0,6.17-2.647c-3.071.283-5.8-.617-7.362-2.483l-.394-.471.492-.368c5.8-4.34,9.126-10.473,9.126-16.825C77.4,63.091,64.557,52.774,48.771,52.774Z" transform="translate(-18.978 -51.611)" fill="#ebebeb"/>
      <path id="Speech_Bubble-2" data-name="Speech Bubble" d="M435.4,99.93c-16.429,0-29.793-10.838-29.793-24.16,0-6.53,3.3-12.823,9.076-17.359-1.633-1.52-4.4-2.055-7.407-1.4l-1.418.309.811-1.2c1.468-2.174,4.446-3.777,7.966-4.289a13.851,13.851,0,0,1,9.285,1.646,35.663,35.663,0,0,1,11.48-1.862c16.428,0,29.793,10.838,29.793,24.16S451.825,99.93,435.4,99.93ZM409.723,55.575a8,8,0,0,1,6.269,2.533l.394.472-.491.368c-5.8,4.34-9.127,10.472-9.127,16.824,0,12.681,12.843,23,28.63,23s28.629-10.316,28.629-23-12.843-23-28.629-23a34.473,34.473,0,0,0-11.367,1.89l-.276.1-.241-.163a12.7,12.7,0,0,0-8.712-1.62,11.742,11.742,0,0,0-6.17,2.647C409,55.591,409.364,55.575,409.723,55.575Z" transform="translate(-105.712 -51.611)" fill="#ebebeb"/>
    </g>
    <g id="Speech_Bubble_2" data-name="Speech Bubble 2" transform="translate(190.112 36.727)">
      <g id="Speech_Bubble-3" data-name="Speech Bubble">
        <g id="Grupo_927944" data-name="Grupo 927944">
          <path id="Trazado_620831" data-name="Trazado 620831" d="M243.789,36.727H295.84a4.181,4.181,0,0,1,4.182,4.182V66.146a4.181,4.181,0,0,1-4.182,4.182h-7.05v7.529a.965.965,0,0,1-1.685.642l-7.293-8.172H243.789a4.181,4.181,0,0,1-4.182-4.182V40.909A4.181,4.181,0,0,1,243.789,36.727Z" transform="translate(-239.607 -36.727)" fill="#ba68c8"/>
        </g>
      </g>
    </g>
    <g id="Speech_Bubble_1" data-name="Speech Bubble 1" transform="translate(155.443 53.991)">
      <g id="Speech_Bubble-4" data-name="Speech Bubble">
        <path id="Trazado_620832" data-name="Trazado 620832" d="M244.842,58.984h-45.75a4.181,4.181,0,0,0-4.182,4.182V88.4a4.181,4.181,0,0,0,4.182,4.182h7.049v7.529a.966.966,0,0,0,1.686.643l7.293-8.172h29.722a4.181,4.181,0,0,0,4.182-4.182V63.166A4.181,4.181,0,0,0,244.842,58.984Z" transform="translate(-194.911 -58.984)" fill="#ba68c8"/>
      </g>
      <g id="Speech_Bubble-5" data-name="Speech Bubble" opacity="0.5">
        <path id="Trazado_620833" data-name="Trazado 620833" d="M244.842,58.984h-45.75a4.181,4.181,0,0,0-4.182,4.182V88.4a4.181,4.181,0,0,0,4.182,4.182h7.049v7.529a.966.966,0,0,0,1.686.643l7.293-8.172h29.722a4.181,4.181,0,0,0,4.182-4.182V63.166A4.181,4.181,0,0,0,244.842,58.984Z" transform="translate(-194.911 -58.984)" fill="#fff"/>
      </g>
    </g>
    <g id="Chartacter_2" data-name="Chartacter 2" transform="translate(233.56 53.204)">
      <g id="Chartacter">
        <g id="Arm" transform="translate(0 50.488)">
          <path id="Trazado_620834" data-name="Trazado 620834" d="M316.616,215.376a1.437,1.437,0,0,1,1.59.687c.216-.168.339-.461.6-.545.316-.1.626.166.832.427a6.136,6.136,0,0,1,.123,7.207,1.044,1.044,0,0,1-.341.331,1.094,1.094,0,0,1-.538.081,12.361,12.361,0,0,1-2.868-.414,3.155,3.155,0,0,1-2.289-1.606,3.569,3.569,0,0,1,.058-2.074,5.416,5.416,0,0,1,1.128-2.49C315.331,216.5,316,215.541,316.616,215.376Z" transform="translate(-299.651 -143.759)" fill="#af6152"/>
          <path id="Trazado_620835" data-name="Trazado 620835" d="M328.287,124.087c-5.9,1.574-9.576,2.47-14.62,11.093-5.9,10.093-13.83,22.01-15.018,24.846-2.177,5.2-2.161,7.093,5.323,15.983,4.666,5.543,9.722,12.238,11.371,14.218.772.926.005,2.832-.409,3.964-.651,1.775.167,3.693-.309,7.088a15.449,15.449,0,0,0-3.816-1.212s2.522-2.708,1.427-4.517a.568.568,0,0,0-.829-.171c-.606.466-1.54,1.529-2.643,2.6-1.943,1.883-1.427,2.282-.5,5.486.371,1.28,1.374,1.642,5.24,2.4s5.028.241,9.765-3.771,3.705-14.2,1.34-18.074c-2.344-3.841-9.6-18.1-9.6-18.1l13.227-18.925Z" transform="translate(-296.019 -123.29)" fill="#c8856a"/>
          <path id="Trazado_620836" data-name="Trazado 620836" d="M328.979,123.059c-6.326,1.43-9.587,2.938-12.932,7.646s-17.39,27.8-17.6,29.854c2.1,3.211,11.83,6.181,16.8,5.129l.209.387,13.524-18.756Z" transform="translate(-296.254 -123.059)" fill="#ba68c8"/>
          <path id="Trazado_620837" data-name="Trazado 620837" d="M328.979,123.059c-6.326,1.43-9.587,2.938-12.932,7.646s-17.39,27.8-17.6,29.854c2.1,3.211,11.83,6.181,16.8,5.129l.209.387,13.524-18.756Z" transform="translate(-296.254 -123.059)" opacity="0.3"/>
          <path id="Trazado_620838" data-name="Trazado 620838" d="M315.9,173.787l-.608.918a27.125,27.125,0,0,1-10.453-1.875,9.167,9.167,0,0,1-5.216-6.962l.54-1.036a2.276,2.276,0,0,0-.311-.1,1.35,1.35,0,0,0-.75.045,2.791,2.791,0,0,0-1.4,1.471A6.491,6.491,0,0,0,297.23,168a7.565,7.565,0,0,1-.41,1.6c-.119.293-.325.568-.472.85a6.291,6.291,0,0,0-.717,2.692,3.419,3.419,0,0,0,1,2.871c2.076,2.305,5.347,3.17,8.449,3.223,3.361.057,7.609-.029,10.4-1.9a1.259,1.259,0,0,0,.654-.808c.04-.353-.21-.685-.194-1.039a2.519,2.519,0,0,1,.236-.7A1.323,1.323,0,0,0,315.9,173.787Z" transform="translate(-295.621 -132.399)" fill="#ba68c8"/>
          <path id="Trazado_620839" data-name="Trazado 620839" d="M315.9,173.787l-.608.918a27.125,27.125,0,0,1-10.453-1.875,9.167,9.167,0,0,1-5.216-6.962l.54-1.036a2.276,2.276,0,0,0-.311-.1,1.35,1.35,0,0,0-.75.045,2.791,2.791,0,0,0-1.4,1.471A6.491,6.491,0,0,0,297.23,168a7.565,7.565,0,0,1-.41,1.6c-.119.293-.325.568-.472.85a6.291,6.291,0,0,0-.717,2.692,3.419,3.419,0,0,0,1,2.871c2.076,2.305,5.347,3.17,8.449,3.223,3.361.057,7.609-.029,10.4-1.9a1.259,1.259,0,0,0,.654-.808c.04-.353-.21-.685-.194-1.039a2.519,2.519,0,0,1,.236-.7A1.323,1.323,0,0,0,315.9,173.787Z" transform="translate(-295.621 -132.399)" opacity="0.6"/>
        </g>
        <g id="Bottom" transform="translate(11.195 118.338)">
          <g id="Grupo_927951" data-name="Grupo 927951" transform="translate(58.948 127.577)">
            <g id="Grupo_927945" data-name="Grupo 927945">
              <path id="Trazado_620840" data-name="Trazado 620840" d="M386.489,413.823c.3,4.252,1,7.065,2.532,9.54s4.329,3.062,7.214,2.446a10.9,10.9,0,0,0,7.926-6.665c1.015-2.817.567-6.2-.137-10.136Z" transform="translate(-386.148 -382.635)" fill="#263238"/>
              <path id="Trazado_620841" data-name="Trazado 620841" d="M398.009,375.007c1.179.076,1.607,5.786,2.367,11.5.814,6.123,2.722,9.527,3.385,13.653.92,5.72.561,8.306-1.385,11.809s-9.635,7.214-13.184,2.29c-2.894-4.016-3.074-8.512-2.9-14.253.185-5.935.361-10.109.057-14.607-.29-4.3-.642-8.464.374-8.957.088.631.176,1.432.268,2.051.071.475.221,2.8.881,2.816a8.916,8.916,0,0,0-.01-1.621,1.936,1.936,0,0,1,.3-1.392,2.207,2.207,0,0,1,1.3-.608,33.332,33.332,0,0,1,3.5-.6,17.608,17.608,0,0,1,1.763-.1,9.714,9.714,0,0,1,2.17-.011,1.053,1.053,0,0,1,.646.575,1.893,1.893,0,0,1,.071.655,4.746,4.746,0,0,0,.164,1.177c.045.169.164.375.332.331.137-.035.189-.208.187-.35,0-.693-.1-1.2-.142-2-.02-.372-.088-.88-.1-1.253S398.039,375.374,398.009,375.007Z" transform="translate(-386.049 -375.007)" fill="#37474f"/>
              <path id="Trazado_620842" data-name="Trazado 620842" d="M403.1,409.238a.412.412,0,1,1-.456-.365A.415.415,0,0,1,403.1,409.238Z" transform="translate(-389.691 -382.603)" opacity="0.15"/>
              <path id="Trazado_620843" data-name="Trazado 620843" d="M402.522,404.133a.412.412,0,1,1-.457-.366A.415.415,0,0,1,402.522,404.133Z" transform="translate(-389.561 -381.458)" opacity="0.15"/>
              <path id="Trazado_620844" data-name="Trazado 620844" d="M401.973,399.316a.412.412,0,1,1-.457-.366A.415.415,0,0,1,401.973,399.316Z" transform="translate(-389.437 -380.378)" opacity="0.15"/>
              <path id="Trazado_620845" data-name="Trazado 620845" d="M401.432,394.567a.412.412,0,1,1-.456-.365A.415.415,0,0,1,401.432,394.567Z" transform="translate(-389.316 -379.312)" opacity="0.15"/>
              <path id="Trazado_620846" data-name="Trazado 620846" d="M390.609,395.618a.412.412,0,1,1-.456-.366A.415.415,0,0,1,390.609,395.618Z" transform="translate(-386.888 -379.548)" opacity="0.15"/>
              <path id="Trazado_620847" data-name="Trazado 620847" d="M391.154,400.4a.412.412,0,1,1-.457-.365A.416.416,0,0,1,391.154,400.4Z" transform="translate(-387.01 -380.621)" opacity="0.15"/>
              <path id="Trazado_620848" data-name="Trazado 620848" d="M391.7,405.219a.412.412,0,1,1-.456-.366A.415.415,0,0,1,391.7,405.219Z" transform="translate(-387.133 -381.702)" opacity="0.15"/>
              <path id="Trazado_620849" data-name="Trazado 620849" d="M392.284,410.326a.412.412,0,1,1-.457-.366A.415.415,0,0,1,392.284,410.326Z" transform="translate(-387.264 -382.848)" opacity="0.15"/>
              <path id="Trazado_620850" data-name="Trazado 620850" d="M396,404.775l-3.554-27.624,1.52-.053Z" transform="translate(-387.484 -375.476)" opacity="0.15"/>
            </g>
            <g id="Grupo_927950" data-name="Grupo 927950" transform="translate(3.103 14.627)">
              <g id="Grupo_927946" data-name="Grupo 927946" transform="translate(1.295 11.58)">
                <path id="Trazado_620851" data-name="Trazado 620851" d="M400.345,409.478a.2.2,0,0,1-.064,0,14.8,14.8,0,0,0-8.259.8.205.205,0,0,1-.281-.092.212.212,0,0,1,.092-.284,14.991,14.991,0,0,1,8.532-.834.211.211,0,0,1-.021.416Z" transform="translate(-391.72 -408.793)" fill="#263238"/>
              </g>
              <g id="Grupo_927947" data-name="Grupo 927947" transform="translate(0.845 7.42)">
                <path id="Trazado_620852" data-name="Trazado 620852" d="M399.764,404.315a.2.2,0,0,1-.108-.018c-2.091-.962-6.149-.241-8.214.813a.207.207,0,0,1-.281-.093.211.211,0,0,1,.092-.283c2.153-1.1,6.371-1.837,8.577-.821a.211.211,0,0,1,.1.279A.207.207,0,0,1,399.764,404.315Z" transform="translate(-391.139 -403.43)" fill="#263238"/>
              </g>
              <g id="Grupo_927948" data-name="Grupo 927948" transform="translate(0.42 3.684)">
                <path id="Trazado_620853" data-name="Trazado 620853" d="M399.215,399.5a.211.211,0,0,1-.108-.019c-2.091-.961-6.149-.241-8.214.813a.206.206,0,0,1-.281-.092.211.211,0,0,1,.092-.284c2.151-1.1,6.369-1.836,8.576-.82a.212.212,0,0,1-.066.4Z" transform="translate(-390.59 -398.613)" fill="#263238"/>
              </g>
              <g id="Grupo_927949" data-name="Grupo 927949">
                <path id="Trazado_620854" data-name="Trazado 620854" d="M398.675,394.749a.2.2,0,0,1-.108-.019c-2.091-.962-6.149-.24-8.214.814a.206.206,0,0,1-.281-.093.211.211,0,0,1,.092-.283c2.152-1.1,6.37-1.837,8.576-.821a.211.211,0,0,1-.065.4Z" transform="translate(-390.05 -393.864)" fill="#263238"/>
              </g>
            </g>
          </g>
          <g id="Grupo_927959" data-name="Grupo 927959" transform="translate(0 119.984)">
            <path id="Trazado_620855" data-name="Trazado 620855" d="M351.473,391.77l-5.019-1.729,1.519-3.44,3.142,2.772Z" transform="translate(-318.219 -370.015)"/>
            <path id="Trazado_620856" data-name="Trazado 620856" d="M348.31,381.414s.3,3.253.373,4.279-4.165,4.353-5.226,4.913l-.359-2.4a18.677,18.677,0,0,0-2.367,3.968c-.79,1.491-1.77,4.294-4.008,6.253-3.324,2.909-8.592,4.5-14,4.864s-8.556-.88-10.133-2.017-2.108-2.51-1.765-3.912S348.31,381.414,348.31,381.414Z" transform="translate(-310.203 -368.851)" fill="#263238"/>
            <g id="Grupo_927952" data-name="Grupo 927952">
              <path id="Trazado_620857" data-name="Trazado 620857" d="M333.325,367.108l-.123-1.89c-1,0-1.036,2.744-2.42,5.192a48.885,48.885,0,0,1-7.326,10.078c-5.34,5.224-10.146,8.549-12.529,10.9-3.188,3.145,2.724,7.8,11.553,7.029,4.383-.385,12.112-2.855,14.223-5.541s3.333-6.808,5.029-8.764,5.4-3.99,6.427-6.333c.562-1.287.155-4.237-.281-6.742-.4-2.3-.576-5.835-1.857-5.507l-.055,1.19c-.5,1.026-1.666,2.731-5.188,3.444C339.02,370.521,333.754,370.845,333.325,367.108Z" transform="translate(-310.053 -365.218)" fill="#37474f"/>
              <path id="Trazado_620858" data-name="Trazado 620858" d="M341.246,371.2c-1.694-.095-3.529-.6-4.285-2.118-.009-.018-.023-.03-.032-.048a4.358,4.358,0,0,1-1.03,3.671c-1.524,1.917-11.113,15.4-11.113,15.4s8.967-11.152,10.688-13.253c2.545-3.106,3.37-3.485,5.78-3.644Z" transform="translate(-313.358 -366.075)" opacity="0.15"/>
            </g>
            <g id="Grupo_927953" data-name="Grupo 927953" transform="translate(15.696 8.065)">
              <path id="Trazado_620859" data-name="Trazado 620859" d="M343.3,376.239a.541.541,0,1,0,.459-.617A.542.542,0,0,0,343.3,376.239Z" transform="translate(-333.205 -375.616)" opacity="0.15"/>
              <path id="Trazado_620860" data-name="Trazado 620860" d="M340.044,380.1a.541.541,0,1,0,.46-.617A.542.542,0,0,0,340.044,380.1Z" transform="translate(-332.476 -376.481)" opacity="0.15"/>
              <path id="Trazado_620861" data-name="Trazado 620861" d="M336.794,383.956a.541.541,0,1,0,.459-.618A.541.541,0,0,0,336.794,383.956Z" transform="translate(-331.746 -377.347)" opacity="0.15"/>
              <path id="Trazado_620862" data-name="Trazado 620862" d="M333.543,387.814a.541.541,0,1,0,.46-.617A.542.542,0,0,0,333.543,387.814Z" transform="translate(-331.017 -378.213)" opacity="0.15"/>
              <path id="Trazado_620863" data-name="Trazado 620863" d="M330.293,391.672a.541.541,0,1,0,.46-.617A.542.542,0,0,0,330.293,391.672Z" transform="translate(-330.288 -379.078)" opacity="0.15"/>
            </g>
            <g id="Grupo_927954" data-name="Grupo 927954" transform="translate(20.082 6.172)">
              <path id="Trazado_620864" data-name="Trazado 620864" d="M342.206,375.832a.211.211,0,0,0,.136-.069.22.22,0,0,0-.012-.311,8.861,8.861,0,0,0-6.189-2.251h0a.22.22,0,0,0,.043.438,8.565,8.565,0,0,1,5.855,2.137A.216.216,0,0,0,342.206,375.832Z" transform="translate(-335.943 -373.175)" fill="#263238"/>
            </g>
            <g id="Grupo_927955" data-name="Grupo 927955" transform="translate(17.559 9.155)">
              <path id="Trazado_620865" data-name="Trazado 620865" d="M338.954,379.678a.214.214,0,0,0,.136-.07.22.22,0,0,0-.012-.31,8.859,8.859,0,0,0-6.189-2.251h0a.22.22,0,0,0,.043.437,8.584,8.584,0,0,1,5.856,2.136A.218.218,0,0,0,338.954,379.678Z" transform="translate(-332.691 -377.021)" fill="#263238"/>
            </g>
            <g id="Grupo_927956" data-name="Grupo 927956" transform="translate(15.039 12.157)">
              <path id="Trazado_620866" data-name="Trazado 620866" d="M335.705,383.549a.22.22,0,0,0,.124-.38,8.86,8.86,0,0,0-6.19-2.252h0a.22.22,0,0,0,.043.437,8.575,8.575,0,0,1,5.855,2.136A.219.219,0,0,0,335.705,383.549Z" transform="translate(-329.442 -380.891)" fill="#263238"/>
            </g>
            <g id="Grupo_927957" data-name="Grupo 927957" transform="translate(12.518 15.15)">
              <path id="Trazado_620867" data-name="Trazado 620867" d="M332.455,387.407a.214.214,0,0,0,.137-.069.221.221,0,0,0-.012-.31,8.856,8.856,0,0,0-6.19-2.253h0a.22.22,0,0,0,.043.438,8.576,8.576,0,0,1,5.855,2.138A.216.216,0,0,0,332.455,387.407Z" transform="translate(-326.192 -384.749)" fill="#263238"/>
            </g>
            <g id="Grupo_927958" data-name="Grupo 927958" transform="translate(9.997 18.142)">
              <path id="Trazado_620868" data-name="Trazado 620868" d="M329.2,391.265a.213.213,0,0,0,.137-.07.221.221,0,0,0-.012-.31,8.864,8.864,0,0,0-6.19-2.252h0a.22.22,0,0,0,.043.437,8.58,8.58,0,0,1,5.855,2.137A.218.218,0,0,0,329.2,391.265Z" transform="translate(-322.941 -388.607)" fill="#263238"/>
            </g>
          </g>
          <g id="Grupo_927960" data-name="Grupo 927960" transform="translate(14.728)">
            <path id="Trazado_620869" data-name="Trazado 620869" d="M385.164,210.533c2.389,34.328,2.524,71.492,2.524,71.492a216.537,216.537,0,0,1,1.818,24.686c.113,12.492-1.379,39.2-1.379,39.2s-7.861,5.632-16.349,1.385c0,0-6.3-33.8-9.126-51.92-2.263-14.486-4.737-29.6-4.737-29.6l-1.888,15.392a102.293,102.293,0,0,1,.906,19.4c-.483,7.29-3.81,37.237-3.81,37.237s-12.064,6.212-20.052-1.881c0,0-2.5-47.1-3.016-55.868-1-17.2-1.229-47.394-.822-69.219Z" transform="translate(-329.041 -210.533)" fill="#455a64"/>
            <path id="Trazado_620870" data-name="Trazado 620870" d="M361.158,270.771l-5.008-33.259s-8.286-.935-12.65-4.707c0,0,2.91,5.092,10.756,6.837l4.149,26.988.866,19.532Z" transform="translate(-332.284 -215.529)" fill="#263238"/>
          </g>
        </g>
        <g id="Top" transform="translate(25.835)">
          <path id="Chest" d="M365.59,118.472c3.31.628,7.309,1.434,7.309,1.434s5.67,1.99,7.44,2.721c0,0,9.475,12.778,7.019,29.031a190.465,190.465,0,0,0-1.808,22.164c.058,9.577.3,19.942.3,19.942s-10.828,6.713-34.168,5.329c-18.326-1.087-22.752-5.979-22.752-5.979s.214-24.71.474-38.215c.342-17.738,2.514-29.909,6.416-33.068l12.953-4.247Z" transform="translate(-328.927 -71.343)" fill="#ba68c8"/>
          <path id="Chest-2" data-name="Chest" d="M365.59,118.472c3.31.628,7.309,1.434,7.309,1.434s5.67,1.99,7.44,2.721c0,0,9.475,12.778,7.019,29.031a190.465,190.465,0,0,0-1.808,22.164c.058,9.577.3,19.942.3,19.942s-10.828,6.713-34.168,5.329c-18.326-1.087-22.752-5.979-22.752-5.979s.214-24.71.474-38.215c.342-17.738,2.514-29.909,6.416-33.068l12.953-4.247Z" transform="translate(-328.927 -71.343)" opacity="0.6"/>
          <g id="Head" transform="translate(5.985)">
            <g id="Grupo_927964" data-name="Grupo 927964">
              <g id="Grupo_927963" data-name="Grupo 927963">
                <g id="Grupo_927961" data-name="Grupo 927961">
                  <path id="Trazado_620871" data-name="Trazado 620871" d="M375.288,70.816a6.964,6.964,0,0,0-3.759-3.4c-.892-4.43-6.706-7.559-10.3-8.712-4.885-1.566-9.887-.429-14.5,1.463a10.563,10.563,0,0,1-5.137,1.049c-.768-.089-1.644-.466-1.772-1.229a2.525,2.525,0,0,0-1.091,1.654,6.656,6.656,0,0,0,.478,4.643,2.445,2.445,0,0,0-1.6,1.233,6.627,6.627,0,0,0-.389,6.178c1.867,4.152,6.372,4.175,10.157,5.358l11.26,3.516,9.449,2.951-.131,4.954.007,7.106a4.574,4.574,0,0,0,2.6-2.189,39.237,39.237,0,0,0,3.65-10C376.487,76.094,376.257,72.562,375.288,70.816Z" transform="translate(-336.643 -57.969)" fill="#263238"/>
                  <path id="Trazado_620872" data-name="Trazado 620872" d="M375.322,93.978c-3.632,1.888-5.389-.977-5.389-.977l-.157,14.657c-3.878,5.09-11.672,4.912-16.958,10.484-2.073-3.4-2.474-8.2-1.252-11.037l-.075-3.341a22.112,22.112,0,0,1-3.195-.226c-3.27-.427-6.066-2.613-7.131-6.974-1.285-5.259-1.124-15.377.194-22.344.508-2.688,1.347-3.443,2.9-4.264,3.858-2.038,15.312-2.7,18.5,1.986-.366,2.892.548,6.052,3.218,6.941.2,4.554.908,6.744,2.719,7.449,1.472.573,2.123-1.7,3.1-2.771a4.1,4.1,0,0,1,6.423,1.3A6.685,6.685,0,0,1,375.322,93.978Z" transform="translate(-337.459 -60.31)" fill="#c8856a"/>
                  <path id="Trazado_620873" data-name="Trazado 620873" d="M354.733,111.124c4.273-.14,8.052-.77,10.545-1.9s4.638-4.6,5.28-8.007c.074,2.724-.991,7.586-4.761,9.7s-8.218,2.336-11.014,2.472Z" transform="translate(-340.702 -67.671)" fill="#af6152"/>
                </g>
                <g id="Grupo_927962" data-name="Grupo 927962" transform="translate(4.647 15.424)">
                  <path id="Trazado_620874" data-name="Trazado 620874" d="M360,79.991l3.305,2.11a2.057,2.057,0,0,0-.624-2.778A1.914,1.914,0,0,0,360,79.991Z" transform="translate(-346.531 -78.117)" fill="#263238"/>
                  <path id="Trazado_620875" data-name="Trazado 620875" d="M342.771,80.65l3.632-1.557a1.9,1.9,0,0,0-2.532-1.081A2.075,2.075,0,0,0,342.771,80.65Z" transform="translate(-342.635 -77.855)" fill="#263238"/>
                  <path id="Trazado_620876" data-name="Trazado 620876" d="M361.775,86.295a1.6,1.6,0,1,1-1.583-1.612A1.6,1.6,0,0,1,361.775,86.295Z" transform="translate(-346.212 -79.387)" fill="#263238"/>
                  <path id="Trazado_620877" data-name="Trazado 620877" d="M347.386,85.658a1.6,1.6,0,1,1-1.584-1.612A1.6,1.6,0,0,1,347.386,85.658Z" transform="translate(-342.984 -79.244)" fill="#263238"/>
                  <path id="Trazado_620878" data-name="Trazado 620878" d="M352.317,83.269l-1.044,10.2-5.424-1.839A23.83,23.83,0,0,1,352.317,83.269Z" transform="translate(-343.356 -79.069)" fill="#af6152"/>
                </g>
              </g>
            </g>
            <path id="Trazado_620879" data-name="Trazado 620879" d="M358.258,98.216l-5.385,1.942a2.812,2.812,0,0,0,3.617,1.822A3,3,0,0,0,358.258,98.216Z" transform="translate(-340.284 -66.998)" fill="#af6152"/>
            <path id="Trazado_620880" data-name="Trazado 620880" d="M358.482,99.474a3.2,3.2,0,0,1,.689-.084,2.96,2.96,0,0,1-1.909,2.854,2.729,2.729,0,0,1-.9.15A2.622,2.622,0,0,1,358.482,99.474Z" transform="translate(-341.056 -67.262)" fill="#f28f8f"/>
          </g>
          <g id="Tie" transform="translate(14.676 43.279)">
            <g id="Grupo_927966" data-name="Grupo 927966">
              <g id="Grupo_927965" data-name="Grupo 927965">
                <path id="Trazado_620881" data-name="Trazado 620881" d="M356.444,128.317s2.715-2.5,4.459-2.5c2.018,0,3.9,3.7,4.431,5s.433,1.277,2.208.149a65.949,65.949,0,0,0,8.841-6.575c3.456-3.211,3.683-5.337,3.683-5.337s-5.451-5.433-6.612-5.281l-.019,1.912c-.236,1.77-11.159,5.842-12.124,6.737A45.534,45.534,0,0,0,356.444,128.317Z" transform="translate(-349.776 -113.766)" fill="#ba68c8"/>
                <path id="Trazado_620882" data-name="Trazado 620882" d="M348.067,129.767c.265.727,2.106-5.5,3.233-5.361.545.055,1.739,2.187,3.215,4.421-.437-1.74-1.482-3.786-1.544-6.077a36.892,36.892,0,0,1,.292-4.96l-.049-1.756a5.888,5.888,0,0,0-2.794,2.091,9.262,9.262,0,0,0-2.208,4.433A22.312,22.312,0,0,0,348.067,129.767Z" transform="translate(-347.847 -114.275)" fill="#ba68c8"/>
              </g>
            </g>
          </g>
          <g id="Tie-2" data-name="Tie" transform="translate(14.676 43.279)" opacity="0.3">
            <g id="Grupo_927968" data-name="Grupo 927968">
              <g id="Grupo_927967" data-name="Grupo 927967">
                <path id="Trazado_620883" data-name="Trazado 620883" d="M356.444,128.317s2.715-2.5,4.459-2.5c2.018,0,3.9,3.7,4.431,5s.433,1.277,2.208.149a65.949,65.949,0,0,0,8.841-6.575c3.456-3.211,3.683-5.337,3.683-5.337s-5.451-5.433-6.612-5.281l-.019,1.912c-.236,1.77-11.159,5.842-12.124,6.737A45.534,45.534,0,0,0,356.444,128.317Z" transform="translate(-349.776 -113.766)"/>
                <path id="Trazado_620884" data-name="Trazado 620884" d="M348.067,129.767c.265.727,2.106-5.5,3.233-5.361.545.055,1.739,2.187,3.215,4.421-.437-1.74-1.482-3.786-1.544-6.077a36.892,36.892,0,0,1,.292-4.96l-.049-1.756a5.888,5.888,0,0,0-2.794,2.091,9.262,9.262,0,0,0-2.208,4.433A22.312,22.312,0,0,0,348.067,129.767Z" transform="translate(-347.847 -114.275)"/>
              </g>
            </g>
          </g>
          <g id="Grupo_927972" data-name="Grupo 927972" transform="translate(15.628 51.284)">
            <g id="Grupo_927970" data-name="Grupo 927970" transform="translate(32.524)">
              <g id="Grupo_927969" data-name="Grupo 927969">
                <path id="Trazado_620885" data-name="Trazado 620885" d="M394.265,124.086c10.766,2.815,12.238,5.535,16.692,14.79,2.287,4.753,8,15.867,9.68,19.611,5.211,11.639,5.551,18.133,2.116,20.842-3.937,3.107-26.018-24.437-26.018-24.437S385.694,132.186,394.265,124.086Z" transform="translate(-391.005 -124.086)" fill="#ba68c8"/>
                <path id="Trazado_620886" data-name="Trazado 620886" d="M394.265,124.086c10.766,2.815,12.238,5.535,16.692,14.79,2.287,4.753,8,15.867,9.68,19.611,5.211,11.639,5.551,18.133,2.116,20.842-3.937,3.107-26.018-24.437-26.018-24.437S385.694,132.186,394.265,124.086Z" transform="translate(-391.005 -124.086)" opacity="0.3"/>
                <path id="Trazado_620887" data-name="Trazado 620887" d="M416.048,181.367c-.931-.956-1.987-2.093-3.1-3.319-5.463-6.534-15.337-16.121-15.337-16.121a67.952,67.952,0,0,1-2.689-6.484c3.622,1.934,18.056,9.08,22.258,12.393,4.563,3.6,5.068,6.848,6.3,10.578Z" transform="translate(-391.884 -131.12)" opacity="0.3"/>
                <path id="Trazado_620888" data-name="Trazado 620888" d="M412.315,166.532c4.877-.6,14.78,4.089,16.909,7.283s1.064,5.856,1.7,7.879.9,5.75-1.145,7.773-8.141,4.216-13.986-.5Z" transform="translate(-395.786 -133.596)" fill="#ba68c8"/>
                <path id="Trazado_620889" data-name="Trazado 620889" d="M412.315,166.532c4.877-.6,14.78,4.089,16.909,7.283s1.064,5.856,1.7,7.879.9,5.75-1.145,7.773-8.141,4.216-13.986-.5Z" transform="translate(-395.786 -133.596)" opacity="0.6"/>
              </g>
            </g>
            <g id="Grupo_927971" data-name="Grupo 927971" transform="translate(0 10.174)">
              <path id="Trazado_620890" data-name="Trazado 620890" d="M387.972,155.107c-4.383-2.222-5.907-2.852-9.089-6.025a48.784,48.784,0,0,0-8.244-6.346c-2.253-1.554-3.716-4.2-4.943-5.316-.852-.775-1.933.628-1.621,2.671a9.839,9.839,0,0,0,2.782,4.636c1.506,1.615.705,1.424-1.142,1.174a64.791,64.791,0,0,0-10.133-.006c-1.858.278-3.655.949-3.364,2.128,0,0-2.979-.276-3.135,1.291s2.107,2.7,2.107,2.7-.112,1.31,2.193,2.093c1.3.441,5.23,1.018,6.633,1.379,1.6.412,3.308,1.032,3.308,1.032s-5.2-.224-6.863,0c-1.882.249-1.627,1.568.555,2.453s8.475.87,10.346,1.63a24.719,24.719,0,0,0,7.156,1.5,7.519,7.519,0,0,1,5.033,2.569c2.2,2.291,12.016,10.365,14.528,13.006a19.66,19.66,0,0,0,9.562,5.361c4.846,1.31,8.937.037,9.834-.863.984-.99,1.389-3.939-.635-8.62-2.668-6.167-4-7.337-8.4-10.118C399.593,160.356,390.323,156.3,387.972,155.107Z" transform="translate(-349.075 -137.202)" fill="#c8856a"/>
              <path id="Trazado_620891" data-name="Trazado 620891" d="M371.194,145.56c.911.977.973,1.291.475,1.333h0c.717.039,2.15.3,2.308-.271s-1.248-1.383-2.65-2.356a9.737,9.737,0,0,1-2.916-3.342A9.839,9.839,0,0,0,371.194,145.56Z" transform="translate(-353.413 -138.037)" fill="#af6152"/>
              <path id="Trazado_620892" data-name="Trazado 620892" d="M353.127,151.092a58.445,58.445,0,0,1,8.674-.071,25.83,25.83,0,0,1,3.553.486,34.167,34.167,0,0,1,3.481.85q-1.779-.044-3.539-.215c-1.171-.092-2.349-.259-3.484-.3-1.182-.062-3.984-.226-5.159-.344S354.309,151.232,353.127,151.092Z" transform="translate(-349.984 -140.273)" fill="#af6152"/>
              <path id="Trazado_620893" data-name="Trazado 620893" d="M351.8,155.963a.856.856,0,0,1,.088-.473.932.932,0,0,1,.372-.336,3.012,3.012,0,0,1,.956-.277,11.376,11.376,0,0,1,1.962-.039c1.286.057,4.2.231,5.495.371.645.082,1.292.161,1.942.285s1.293.316,1.91.482c1.254.329,2.509.69,3.757,1.1-1.3-.1-2.583-.25-3.864-.475-.652-.1-1.278-.265-1.893-.341-.626-.092-1.263-.168-1.9-.233-1.274-.149-4.188-.358-5.47-.539a17.923,17.923,0,0,0-1.889-.2C352.676,155.262,351.926,155.28,351.8,155.963Z" transform="translate(-349.686 -141.153)" fill="#af6152"/>
              <path id="Trazado_620894" data-name="Trazado 620894" d="M369.895,161.939s-2.114-.457-3.318-.762-5.15-.711-5.15-.711h0c.327.057,1.091.168,1.36.237,1.6.412,3.308,1.032,3.308,1.032A35.659,35.659,0,0,1,369.895,161.939Z" transform="translate(-351.846 -142.421)" fill="#af6152"/>
            </g>
          </g>
        </g>
      </g>
    </g>
    <g id="Chartacter_1" data-name="Chartacter 1" transform="translate(58.399 57.885)">
      <g id="Chartacter-2" data-name="Chartacter">
        <g id="Bottom-2" data-name="Bottom" transform="translate(7.659 109.164)">
          <g id="Grupo_927979" data-name="Grupo 927979" transform="translate(50.373 111.092)">
            <path id="Trazado_620895" data-name="Trazado 620895" d="M147.886,363.536,146.5,349.62l17.255-1.658s-.786,10.973-.734,16.011c.025,2.374,1.662,6.855,1.662,6.855s-6.824,3.463-10.337,1.989-5.795-7.052-5.7-8.068Z" transform="translate(-145.038 -347.962)" fill="#ffbda7"/>
            <path id="Trazado_620896" data-name="Trazado 620896" d="M183.842,395.683c.24.013.331,2.232-1.036,3.266a17.2,17.2,0,0,1-12.32,2.332c-5.79-1.068-8.844-3.02-11.066-5.074s-5.333-4.948-7.939-5.668a18.935,18.935,0,0,1-6.367-3.6c-.741-.79-.437-4.1-.437-4.1Z" transform="translate(-144.615 -355.787)" fill="#263238"/>
            <path id="Trazado_620897" data-name="Trazado 620897" d="M147.355,366.327s-.32.146-.516.905c-.233.9-.583,3.549-1.057,5.029a26.452,26.452,0,0,0-1.046,8.024c.221,1.717,4.758,4.019,7.255,5.118a32.509,32.509,0,0,1,7.971,5.6c2.61,2.377,8.241,5.014,12.045,5.2,4.5.218,9.648-.933,10.93-2.922,1.585-2.461,2.8-5.354-3.687-8.768-1.229-.646-5.512-3.477-6.969-4.5-3.94-2.762-6.682-5.248-8.3-9.837a2.5,2.5,0,0,0-.878-1.425,2.162,2.162,0,0,0-1.291-.187,44.439,44.439,0,0,0-6.628.865c-.92.37-2.218.788-2.266,1.917a3.714,3.714,0,0,0,.185,1.161c.067.235.111.545-.1.669s-.449-.043-.614-.206a17.1,17.1,0,0,1-1.673-2.225,19.2,19.2,0,0,0-1.6-2.016,11.508,11.508,0,0,1-1.1-.793A2.567,2.567,0,0,1,147.355,366.327Z" transform="translate(-144.632 -352.082)" fill="#455a64"/>
            <path id="Trazado_620898" data-name="Trazado 620898" d="M163.372,396.051c-1.108-1.009-2.29-1.991-3.482-2.876v-.005s7.569,5.131,10.863,3.177c2.122-1.259,1.249-2.982,1.231-3.517s7.411-3.9,9.409-4.019h0c.534.331.977.615,1.267.749,5.088,2.339,5.626,5.022,4.565,8.3-1.281,1.989-5.923,3.857-11.737,3.534C171.686,401.178,165.982,398.428,163.372,396.051Z" transform="translate(-148.042 -357.126)" fill="#37474f"/>
            <path id="Trazado_620899" data-name="Trazado 620899" d="M168.622,386.2c4.051,1.864,2.238,2.528,1.067,2.626s-7.916-4.3-11.979-7.858c-4.239-3.706-7.427-8.542-9-9.9-.586-.507-1.215-1.126-1.772-1.7.162-.893.3-1.706.408-2.132.2-.759.516-.9.516-.9a4.95,4.95,0,0,0,.656,1.616,11.508,11.508,0,0,0,1.1.793,19.2,19.2,0,0,1,1.6,2.016,17.157,17.157,0,0,0,1.673,2.225C156.248,377.7,164.57,384.337,168.622,386.2Z" transform="translate(-145.135 -352.082)" fill="#37474f"/>
            <g id="Grupo_927978" data-name="Grupo 927978" transform="translate(10.56 21.722)">
              <g id="Grupo_927973" data-name="Grupo 927973" transform="translate(13.345 9.789)">
                <path id="Trazado_620900" data-name="Trazado 620900" d="M175.822,393.2a.414.414,0,0,1-.254-.106.4.4,0,0,1-.024-.572c1.253-1.346,7-4.385,10.029-3.885a.4.4,0,1,1-.135.8c-2.831-.46-8.3,2.567-9.289,3.634A.412.412,0,0,1,175.822,393.2Z" transform="translate(-175.434 -388.586)" fill="#263238"/>
              </g>
              <g id="Grupo_927974" data-name="Grupo 927974" transform="translate(9.857 7.397)">
                <path id="Trazado_620901" data-name="Trazado 620901" d="M171.324,390.119a.409.409,0,0,1-.254-.106.4.4,0,0,1-.024-.572c1.252-1.345,6.994-4.382,10.029-3.885a.4.4,0,1,1-.135.8c-2.833-.456-8.3,2.567-9.289,3.633A.411.411,0,0,1,171.324,390.119Z" transform="translate(-170.937 -385.503)" fill="#263238"/>
              </g>
              <g id="Grupo_927975" data-name="Grupo 927975" transform="translate(6.359 5.118)">
                <path id="Trazado_620902" data-name="Trazado 620902" d="M166.815,387.183a.409.409,0,0,1-.254-.105.4.4,0,0,1-.024-.572c1.254-1.346,7-4.388,10.029-3.885a.405.405,0,1,1-.134.8c-2.833-.461-8.3,2.566-9.29,3.632A.411.411,0,0,1,166.815,387.183Z" transform="translate(-166.428 -382.565)" fill="#263238"/>
              </g>
              <g id="Grupo_927976" data-name="Grupo 927976" transform="translate(3.146 2.562)">
                <path id="Trazado_620903" data-name="Trazado 620903" d="M162.672,383.885a.409.409,0,0,1-.254-.105.4.4,0,0,1-.024-.572c1.252-1.346,7.009-4.383,10.029-3.884a.4.4,0,0,1,.338.465.408.408,0,0,1-.473.334c-2.83-.458-8.3,2.566-9.289,3.632A.411.411,0,0,1,162.672,383.885Z" transform="translate(-162.285 -379.269)" fill="#263238"/>
              </g>
              <g id="Grupo_927977" data-name="Grupo 927977">
                <path id="Trazado_620904" data-name="Trazado 620904" d="M158.616,380.591a.407.407,0,0,1-.249-.1.4.4,0,0,1-.034-.571c1.727-1.91,7.7-4.384,10.731-3.886a.4.4,0,0,1,.338.465.411.411,0,0,1-.473.333c-2.729-.448-8.45,1.931-9.983,3.625A.411.411,0,0,1,158.616,380.591Z" transform="translate(-158.229 -375.966)" fill="#263238"/>
              </g>
            </g>
          </g>
          <g id="Grupo_927986" data-name="Grupo 927986" transform="translate(0 113.587)">
            <path id="Trazado_620905" data-name="Trazado 620905" d="M103.343,371.667l4.936-16.841L91.6,351.178l-1.34,16.839s-1.574,4.455-.724,6.072,10.869,3.869,11.862,2.887S103.343,371.667,103.343,371.667Z" transform="translate(-81.829 -351.178)" fill="#ffbda7"/>
            <path id="Trazado_620906" data-name="Trazado 620906" d="M97.8,410.083c-.686,3.8-1.646,6.232-3.435,8.206s-4.766,2.149-7.624.948-6.414-3.662-6.88-7.137a18.851,18.851,0,0,1,1.03-9.168Z" transform="translate(-79.673 -362.788)" fill="#263238"/>
            <path id="Trazado_620907" data-name="Trazado 620907" d="M88.258,372.887c-1.218-.138-1.078,2.9-1.982,8.026-.977,5.548-3.774,9.775-4.955,14.2-1.349,5.056-1.3,7.434.388,10.953S90.3,414,94.373,410.16c3.324-3.131,3.9-7.177,4.223-12.415a117.427,117.427,0,0,1,1.222-13.256c.674-3.847,2.526-7.327,1.526-7.953-.145.556-1.432,4.417-2.111,4.312a7.187,7.187,0,0,1,.152-1.468,1.67,1.67,0,0,0-.189-1.316,5.651,5.651,0,0,0-1.9-1.117c-1.166-.429-3.26-1-4.458-1.321-.6-.159-1.2-.3-1.8-.4a5.384,5.384,0,0,0-1.553-.088.953.953,0,0,0-.714.407,1.494,1.494,0,0,0-.13.582,3.73,3.73,0,0,1-.271,1.039c-.061.145-.2.31-.37.241a.327.327,0,0,1-.161-.351C87.9,376.427,88.2,373.214,88.258,372.887Z" transform="translate(-79.829 -356.047)" fill="#455a64"/>
            <path id="Trazado_620908" data-name="Trazado 620908" d="M81.762,399.7c-.2.728-1.475,5.559-.057,6.734,1.534,1.271,2.877-2.464,2.877-2.464s3.974-.34,9.34,2.88c-.379.752.187,3.566,1.79,3.29s2.838-5.856,2.854-5.928c-.328,5.018-.967,8.922-4.194,11.963-4.077,3.841-10.973-.576-12.664-4.095s-1.737-5.9-.388-10.953C81.457,400.622,81.606,400.152,81.762,399.7Z" transform="translate(-79.829 -362.063)" fill="#37474f"/>
            <path id="Trazado_620909" data-name="Trazado 620909" d="M85.725,398.368c-.236,1.874-2.249.856-2.04-1.814s2.022-9.071,2.83-13.407c.753-6.263,1.267-10.4,2.484-10.261-.012.063-.017.126-.028.19,0,0-.353,3.573-.4,3.978-.463,3.826-.986,11.281-1.752,14.716A54.211,54.211,0,0,0,85.725,398.368Z" transform="translate(-80.57 -356.047)" fill="#37474f"/>
            <path id="Trazado_620910" data-name="Trazado 620910" d="M96.98,401.719a53.078,53.078,0,0,0,1.894-6.378c.81-3.4,3.3-10.141,4.552-13.774.368-.586,1.621-3.975,1.621-3.975.83.29-.223,3.531-.717,5.047s-1.081,3.138-1.717,5.318c-1.54,4.279-2.076,10.808-3.049,13.265S96.375,403.492,96.98,401.719Z" transform="translate(-83.533 -357.104)" fill="#37474f"/>
            <g id="Grupo_927985" data-name="Grupo 927985" transform="translate(4.303 25.77)">
              <g id="Grupo_927980" data-name="Grupo 927980" transform="translate(0 15.713)">
                <path id="Trazado_620911" data-name="Trazado 620911" d="M95.111,408.137a.559.559,0,0,1-.158-.072,16.7,16.7,0,0,0-9.211-2.575.5.5,0,0,1-.516-.385.37.37,0,0,1,.373-.428,17.5,17.5,0,0,1,9.849,2.758.4.4,0,0,1,.128.572A.439.439,0,0,1,95.111,408.137Z" transform="translate(-85.22 -404.658)" fill="#263238"/>
              </g>
              <g id="Grupo_927981" data-name="Grupo 927981" transform="translate(0.394 11.54)">
                <path id="Trazado_620912" data-name="Trazado 620912" d="M96.694,403.039a.553.553,0,0,1-.144-.064A20.694,20.694,0,0,0,86.236,400.1a.5.5,0,0,1-.5-.4.374.374,0,0,1,.391-.416,21.426,21.426,0,0,1,10.895,3.044.4.4,0,0,1,.151.572A.437.437,0,0,1,96.694,403.039Z" transform="translate(-85.728 -399.278)" fill="#263238"/>
              </g>
              <g id="Grupo_927982" data-name="Grupo 927982" transform="translate(1.271 7.669)">
                <path id="Trazado_620913" data-name="Trazado 620913" d="M87.22,395.158a.492.492,0,0,1-.35-.338.367.367,0,0,1,.337-.455c5.6-.634,10.677,2.8,10.892,2.951a.4.4,0,0,1,.128.572.473.473,0,0,1-.624.056c-.048-.032-4.98-3.366-10.192-2.771A.5.5,0,0,1,87.22,395.158Z" transform="translate(-86.859 -394.288)" fill="#263238"/>
              </g>
              <g id="Grupo_927983" data-name="Grupo 927983" transform="translate(1.994 4.038)">
                <path id="Trazado_620914" data-name="Trazado 620914" d="M88.152,390.514a.493.493,0,0,1-.347-.331.364.364,0,0,1,.327-.46,16.2,16.2,0,0,1,11.116,2.961.39.39,0,0,1,.088.576.476.476,0,0,1-.631.02,15.426,15.426,0,0,0-10.354-2.751A.5.5,0,0,1,88.152,390.514Z" transform="translate(-87.791 -389.607)" fill="#263238"/>
              </g>
              <g id="Grupo_927984" data-name="Grupo 927984" transform="translate(2.824)">
                <path id="Trazado_620915" data-name="Trazado 620915" d="M89.223,385.311a.494.494,0,0,1-.346-.325.365.365,0,0,1,.32-.465c5.793-.831,10.966,2.925,11.183,3.088a.392.392,0,0,1,.1.574.466.466,0,0,1-.628.034c-.05-.037-5.048-3.664-10.427-2.892A.505.505,0,0,1,89.223,385.311Z" transform="translate(-88.861 -384.401)" fill="#263238"/>
              </g>
            </g>
          </g>
          <g id="Grupo_927987" data-name="Grupo 927987" transform="translate(7.505)">
            <path id="Trazado_620916" data-name="Trazado 620916" d="M100.291,204.74c-.371,0-1.71,16.027-1.837,17.61-.6,7.481-1.437,14.869-1.565,22.367-.066,3.909-.81,11.022-.939,14.929a227.914,227.914,0,0,1-2.866,28.846A94.756,94.756,0,0,0,91.7,299.549c-.206,3.844-.035,7.747-.963,11.489-.414,1.672-1.045,3.3-1.291,5a5.9,5.9,0,0,0,1.449,5.088c.132,2.416-.185,3.19.48,3.769,3.348,2.913,10.033,3.425,14.526,3.418.706,0,1.363-1.609,1.708-2.239.361-.657.206-.957.843-1.362s1.8-.811,2.436-1.235a6.659,6.659,0,0,0,2.471-3.782c.424-1.468.564-3,.91-4.485a53.269,53.269,0,0,1,2.13-6.139,89.694,89.694,0,0,0,3.376-13.306c.666-3.329,1.307-6.665,2.01-9.987,2.177-10.291,3.224-16.8,4.46-24.133s4.255,14.638,4.256,14.641a23.578,23.578,0,0,1-.206,4c-.113,2.606-.057,5.167-.406,7.739a53.965,53.965,0,0,0,.424,17.193,30.062,30.062,0,0,1,.873,8.06c-.1,1.779-.422,3.351.276,5,.5,1.184,1.234,1.48,1.865,2.579.261.452.258,4.022.542,4.194,0,0,10.386,5.384,16.992.065.094-1.039.005-3.1.445-4.013a5.62,5.62,0,0,0,1.95-3.9c.127-1.676-.389-2.9-.392-4.583a53.354,53.354,0,0,1,.593-6.154,68.7,68.7,0,0,0,.37-8.806c-.036-2.555-.459-5.266-.051-7.768a102.2,102.2,0,0,0,.925-12.8c.569-16.615.853-50.431-.918-71.887Z" transform="translate(-89.349 -204.74)" fill="#ba68c8"/>
            <path id="Trazado_620917" data-name="Trazado 620917" d="M100.291,204.74c-.371,0-1.71,16.027-1.837,17.61-.6,7.481-1.437,14.869-1.565,22.367-.066,3.909-.81,11.022-.939,14.929a227.914,227.914,0,0,1-2.866,28.846A94.756,94.756,0,0,0,91.7,299.549c-.206,3.844-.035,7.747-.963,11.489-.414,1.672-1.045,3.3-1.291,5a5.9,5.9,0,0,0,1.449,5.088c.132,2.416-.185,3.19.48,3.769,3.348,2.913,10.033,3.425,14.526,3.418.706,0,1.363-1.609,1.708-2.239.361-.657.206-.957.843-1.362s1.8-.811,2.436-1.235a6.659,6.659,0,0,0,2.471-3.782c.424-1.468.564-3,.91-4.485a53.269,53.269,0,0,1,2.13-6.139,89.694,89.694,0,0,0,3.376-13.306c.666-3.329,1.307-6.665,2.01-9.987,2.177-10.291,3.224-16.8,4.46-24.133s4.255,14.638,4.256,14.641a23.578,23.578,0,0,1-.206,4c-.113,2.606-.057,5.167-.406,7.739a53.965,53.965,0,0,0,.424,17.193,30.062,30.062,0,0,1,.873,8.06c-.1,1.779-.422,3.351.276,5,.5,1.184,1.234,1.48,1.865,2.579.261.452.258,4.022.542,4.194,0,0,10.386,5.384,16.992.065.094-1.039.005-3.1.445-4.013a5.62,5.62,0,0,0,1.95-3.9c.127-1.676-.389-2.9-.392-4.583a53.354,53.354,0,0,1,.593-6.154,68.7,68.7,0,0,0,.37-8.806c-.036-2.555-.459-5.266-.051-7.768a102.2,102.2,0,0,0,.925-12.8c.569-16.615.853-50.431-.918-71.887Z" transform="translate(-89.349 -204.74)" opacity="0.3"/>
            <path id="Trazado_620918" data-name="Trazado 620918" d="M111.988,229.893c1.17,13.2-6.094,18.068-10.684,18.068C101.3,247.961,110.6,243.256,111.988,229.893Z" transform="translate(-92.031 -210.383)" opacity="0.3"/>
            <path id="Trazado_620919" data-name="Trazado 620919" d="M141.437,238.4l-5.185,32.68c.169-1.007.338-2.017.511-3.042,1.236-7.332,4.256,14.641,4.256,14.641l-.74-14.349a58.453,58.453,0,0,1,.972-13.393l3.033-14.032a16.689,16.689,0,0,0,10.208-7.677C150.534,236.967,141.437,238.4,141.437,238.4Z" transform="translate(-99.871 -211.131)" opacity="0.3"/>
          </g>
          <path id="Trazado_620920" data-name="Trazado 620920" d="M90.749,359.852c2.669,2.407,10.765,4.853,16.542,3.2l1.472-4.677c-4.354,1.143-13.049-.358-17.557-3.587Z" transform="translate(-82.158 -238.401)" fill="#ba68c8"/>
          <path id="Trazado_620921" data-name="Trazado 620921" d="M90.749,359.852c2.669,2.407,10.765,4.853,16.542,3.2l1.472-4.677c-4.354,1.143-13.049-.358-17.557-3.587Z" transform="translate(-82.158 -238.401)" opacity="0.6"/>
          <path id="Trazado_620922" data-name="Trazado 620922" d="M146.58,359.181c1.893,1.955,11.752,3.3,17.013.278l.43-4.78c-3.987,2.173-14.112,2.058-17.98-.246Z" transform="translate(-94.562 -238.321)" fill="#ba68c8"/>
          <path id="Trazado_620923" data-name="Trazado 620923" d="M146.58,359.181c1.893,1.955,11.752,3.3,17.013.278l.43-4.78c-3.987,2.173-14.112,2.058-17.98-.246Z" transform="translate(-94.562 -238.321)" opacity="0.6"/>
          <g id="Grupo_927988" data-name="Grupo 927988" transform="translate(12.717 49.787)">
            <path id="Trazado_620924" data-name="Trazado 620924" d="M97.726,268.926s-1.568,21.754-1.657,23.307,11.179,5.679,11.574,4.722c.658-1.593.886-5.261,3.584-22.788C101.758,272.048,97.726,268.926,97.726,268.926Z" transform="translate(-96.068 -268.926)" opacity="0.3"/>
            <path id="Trazado_620925" data-name="Trazado 620925" d="M109.62,282.307a3.693,3.693,0,0,0-1.083-.191c-.423-.05-.845-.107-1.264-.182a19.6,19.6,0,0,1-2.624-.653,21.086,21.086,0,0,1-2.835-1.155c-.746-.368-1.441-.836-2.188-1.2-.071-.034-.1.105-.053.144a11.164,11.164,0,0,0,2.323,1.466,18.267,18.267,0,0,0,2.339,1,19.782,19.782,0,0,0,2.611.715q.664.134,1.336.221a2.948,2.948,0,0,0,1.425.029C109.669,282.477,109.689,282.338,109.62,282.307Z" transform="translate(-96.85 -271.169)" opacity="0.3"/>
            <path id="Trazado_620926" data-name="Trazado 620926" d="M106.022,278.735c-.09-.23-.162-.373-.409-.425a.841.841,0,0,0-.6.095.713.713,0,0,0-.334.455.8.8,0,0,0,.337.839.8.8,0,0,0,.828.062.583.583,0,0,0,.248-.467A1.2,1.2,0,0,0,106.022,278.735Zm-.282.628a.473.473,0,0,1-.593.056c-.278-.2-.163-.764.2-.769a.454.454,0,0,1,.315.114A.474.474,0,0,1,105.74,279.363Z" transform="translate(-97.997 -271.027)" opacity="0.3"/>
          </g>
        </g>
        <g id="Top-2" data-name="Top">
          <g id="Arm-2" data-name="Arm" transform="translate(66.016 46.813)">
            <g id="Grupo_927989" data-name="Grupo 927989">
              <path id="Trazado_620927" data-name="Trazado 620927" d="M160.064,125.115c6.578,1.865,8.764,3.4,13.634,10.471,3.653,5.3,12.947,20.613,12.947,20.613s1.623,18.958-2.468,18.836a9.034,9.034,0,0,1-6.187-2.674c-5.65-5.945-15.1-19.4-15.1-19.4Z" transform="translate(-156.065 -124.527)" fill="#ffbda7"/>
              <path id="Trazado_620928" data-name="Trazado 620928" d="M158.677,124.357c3.756.485,8.432,2.212,11.388,6.118s11.159,17.475,11.159,17.475-.223,4.073-5.079,8.929-9.207,4.864-9.207,4.864l-12.031-18.057Z" transform="translate(-154.908 -124.357)" fill="#455a64"/>
              <path id="Trazado_620929" data-name="Trazado 620929" d="M191.557,163.2c-2.559,2.134-6.616,12.805-6.616,12.805a14.9,14.9,0,0,1,.441-8.7,22.267,22.267,0,0,1,4.515-6.823Z" transform="translate(-161.542 -132.462)" fill="#f0997a"/>
            </g>
            <g id="Grupo_927990" data-name="Grupo 927990" transform="translate(21.51 12.533)">
              <path id="Trazado_620930" data-name="Trazado 620930" d="M239.675,146.992c.868-1.464,3.12-.709,4.3-1.656a1.2,1.2,0,0,0-.277-2.081,7.567,7.567,0,0,0-2.966-.323,8.174,8.174,0,0,1-3.243-1.05c-2.118-1.14-4.811-2.056-7.064-.665a8.334,8.334,0,0,1,1.446.9C234.469,143.743,237.081,145.354,239.675,146.992Z" transform="translate(-193.358 -140.514)" fill="#f0997a"/>
              <path id="Trazado_620931" data-name="Trazado 620931" d="M237.859,147.137c-.3.1-.592.2-.874.309-.37.14-.746.264-1.115.41-.178.071-.355.145-.528.229-.079.038-.44.3-.507.28a8.5,8.5,0,0,0-3.347-.788c-1.457.092-1.786.346-3.621-1.27-1.237-1.087-2.687-2.985-4.365-3.981s-3.43-1.641-5.461-.119-3.081,2.6-5.226,4.045c-1.62,1.09-2.773,1.913-11.047,6.544-6.079,3.4-11.084,5.355-15.162,10.856-1.646,2.221-5.171,10.595-3.553,12.342,2.286,2.468,8.044,4.659,14.541-.183a83.873,83.873,0,0,0,8.469-7.169c2.688-2.532,3.862-3.858,7.689-7.525,3.805-3.646,6.028-5.531,8.177-6.512,1.834-.839,4.135-.427,5.683-.2a15.411,15.411,0,0,0,6.115-.095c2.046-.319,3.386-.777,4.8-1.039a17.065,17.065,0,0,0,4.033-1.815c.88-.426,1.4-.672,2.384-1.138a1.893,1.893,0,0,0,.714-.459c.095-.144-.039-.492-.087-.658a1.227,1.227,0,0,0-.261-.444,3.335,3.335,0,0,0,.87-.123,6.889,6.889,0,0,1,.754-.142c.191-.019.406-.121.43-.311a.472.472,0,0,0-.112-.317A2.33,2.33,0,0,0,246.13,147a6.888,6.888,0,0,0-1.907-.217.785.785,0,0,1-.278-.055,1.357,1.357,0,0,1-.289-.233,1.517,1.517,0,0,0-1.107-.3,17.936,17.936,0,0,0-2.071.438c-.419.081-.849.1-1.27.164A9.309,9.309,0,0,0,237.859,147.137Z" transform="translate(-182.639 -140.69)" fill="#ffbda7"/>
              <path id="Trazado_620932" data-name="Trazado 620932" d="M241.359,148.214c-.289-.126-.571-.271-.859-.409l-.236-.116a12.391,12.391,0,0,0,1.8-.024,8.133,8.133,0,0,1,2.883.775.649.649,0,0,0,.374-.073,14.258,14.258,0,0,1,5.155-1.666c1.136-.144,2.335-.917,3.415-.231-1-.8-2.361-.012-3.464.051a14.25,14.25,0,0,0-5.2,1.478c-.055.034-.111.067-.158.092a8.784,8.784,0,0,0-3.129-.806,9.637,9.637,0,0,1-1.723.029c-2.2-.773-3.473-3.092-5.33-4.446-1.863-1.509-4.632-2.517-6.616-.688,2.629-1.761,4.893-.372,6.912,1.479a4.468,4.468,0,0,0-3.186-.861,4.572,4.572,0,0,0-1.736.7,4.771,4.771,0,0,0-1.312,1.3,15.935,15.935,0,0,1,1.56-1.087,6.051,6.051,0,0,1,1.613-.491,5.7,5.7,0,0,1,3.23.59c1.078,1.008,2.086,2.128,3.041,2.943a4.853,4.853,0,0,0,1.443.827,6.038,6.038,0,0,0,1.4.9,4.165,4.165,0,0,0,1.9.4A14.311,14.311,0,0,1,241.359,148.214Zm4.12,1.78c.225-.014.443-.031.662-.024a5.419,5.419,0,0,1,.647.057,5.693,5.693,0,0,1,.628.125,4.121,4.121,0,0,1,.591.195l.1.044.143-.082a4.88,4.88,0,0,1,1.5-.559,5.476,5.476,0,0,1,.8-.105,5.613,5.613,0,0,1,.8.013l.1.01.065-.036a8.289,8.289,0,0,1,1.395-.714,5.118,5.118,0,0,1,1.65-.261.936.936,0,0,0-.276-.06,2.414,2.414,0,0,0-.489.03,5.638,5.638,0,0,0-1.893.476,1.985,1.985,0,0,1-.489.219,1.794,1.794,0,0,1-.527-.005,4.052,4.052,0,0,0-2.184.433,2.032,2.032,0,0,1-.482.212,1.613,1.613,0,0,1-.692-.047A3.282,3.282,0,0,0,245.48,149.995Zm7.815-3.048c-.245.078-.479.193-.726.261-.509.138-1.045.092-1.559.195a2.759,2.759,0,0,0-1.431.777.325.325,0,0,1-.074.064c-.164.09-.457-.033-.623-.067-.246-.052-.493-.1-.742-.136a5.349,5.349,0,0,0-2.353.266c.313-.033.617-.081.925-.089s.609-.012.91,0a7.192,7.192,0,0,1,.889.111,4.616,4.616,0,0,1,.828.24l.148.06.121-.107a4.213,4.213,0,0,1,1.326-.793,6.2,6.2,0,0,1,1.421-.282,2.07,2.07,0,0,0,.285-.053,2,2,0,0,0,.253-.1,6.314,6.314,0,0,1,1.2-.479c-.123.025-.266,0-.395.024A3.143,3.143,0,0,0,253.294,146.947Z" transform="translate(-192.878 -140.667)" fill="#f0997a"/>
            </g>
          </g>
          <g id="Chest-3" data-name="Chest" transform="translate(23.68 46.332)">
            <path id="Chest-4" data-name="Chest" d="M120.657,124.675c-6.561,1.046-11.11,2.08-14.275,2.785,0,0-7.9,5.648-5.65,29.286.318,3.338,1.091,12.9,1.019,20.938-.051,5.718.081,13.447-.178,17.428,0,0,13.228,7.688,35.322,5.306,17.347-1.869,19.976-8.191,19.976-8.191s.348-28.152-.475-41.372c-1.081-17.363-5.109-21.2-9.964-26.638a84.891,84.891,0,0,0-10.637-.481C129.75,123.745,127.217,123.63,120.657,124.675Z" transform="translate(-100.328 -123.737)" fill="#f0f0f0"/>
            <path id="Trazado_620933" data-name="Trazado 620933" d="M156.263,146.067a62.321,62.321,0,0,1,1.156,11.389c-8.587,3.054-19.073,5.375-29.192,4.963-.061-4.274-.38-7.828-.794-11.869A92.2,92.2,0,0,0,156.263,146.067Z" transform="translate(-106.408 -128.746)" fill="#e0e0e0"/>
          </g>
          <g id="Head-2" data-name="Head" transform="translate(33.548)">
            <g id="Grupo_927998" data-name="Grupo 927998" transform="translate(0.643 0.822)">
              <g id="Grupo_927991" data-name="Grupo 927991">
                <path id="Trazado_620934" data-name="Trazado 620934" d="M118.9,78.894a6.494,6.494,0,0,0-4.434,3.993c-.81,1.786-1.267,6.116,1.938,14.822a34.8,34.8,0,0,0,5.219,9.467A4.589,4.589,0,0,0,124.465,109l-.684-6.837-.6-5.909s3.983-1.4,4.632-6.9c.521-4.424-1.391-6.078-1.391-6.078Z" transform="translate(-113.879 -68.167)" fill="#263238"/>
                <path id="Trazado_620935" data-name="Trazado 620935" d="M114.845,79.2c-1.3-6.757,11.609-16.65,19.748-11.922,2.655-3.809,9.246-2.3,9.967,1.544,2.319-1.172,6.934,4.156,5.922,7.055,2.338,6.312-.825,8.929-3.954,8.926-7.661-.005-15.866-.289-23.585.243Z" transform="translate(-114.075 -65.064)" fill="#263238"/>
              </g>
              <path id="Trazado_620936" data-name="Trazado 620936" d="M146.641,78.338c1.631,1.423,3.988,4.66,4.726,16.833.5,8.272-1.493,11.974-4.484,13.49a18.081,18.081,0,0,1-8.084,1.864l.115,4.963c7.35,6.672-12.373,8.691-17.387-.109l-.1-13.586c-.514,1.019-3.166,1.726-5.175-.177-3.182-3.013-2.667-7.467-.4-9.18,2.347-1.775,5.709-1.429,7.034,1.843,2.67.856,4.54-2.82,3.531-12.783C137.2,83.929,139.767,75.379,146.641,78.338Z" transform="translate(-113.909 -67.9)" fill="#ffbda7"/>
              <g id="Grupo_927992" data-name="Grupo 927992" transform="translate(11.015 35.182)">
                <path id="Trazado_620937" data-name="Trazado 620937" d="M141.955,117.864c-8.679-.268-12.783-4.282-13.874-7.443,0,0-.264,5.468,5.815,8.057a17.035,17.035,0,0,0,8.037,1.485Z" transform="translate(-128.08 -110.421)" fill="#f0997a"/>
              </g>
              <g id="Grupo_927997" data-name="Grupo 927997" transform="translate(17.952 15.132)">
                <g id="Grupo_927993" data-name="Grupo 927993" transform="translate(4.524 15.552)">
                  <path id="Trazado_620938" data-name="Trazado 620938" d="M148.741,106.207,143,104.623a2.833,2.833,0,0,0,1.955,3.635A3.141,3.141,0,0,0,148.741,106.207Z" transform="translate(-142.856 -104.623)" fill="#b16668"/>
                </g>
                <path id="Trazado_620939" data-name="Trazado 620939" d="M146.256,108.726a3.035,3.035,0,0,1-1.285-.063,2.817,2.817,0,0,1-2.04-2.231A3.432,3.432,0,0,1,146.256,108.726Z" transform="translate(-138.349 -89.477)" fill="#f28f8f"/>
                <path id="Trazado_620940" data-name="Trazado 620940" d="M139.414,93.551a1.621,1.621,0,1,0,1.43-1.781A1.616,1.616,0,0,0,139.414,93.551Z" transform="translate(-137.558 -86.185)" fill="#263238"/>
                <path id="Trazado_620941" data-name="Trazado 620941" d="M154.121,91.685a1.621,1.621,0,1,0,1.43-1.781A1.615,1.615,0,0,0,154.121,91.685Z" transform="translate(-140.857 -85.767)" fill="#263238"/>
                <g id="Grupo_927994" data-name="Grupo 927994" transform="translate(8.348 3.932)">
                  <path id="Trazado_620942" data-name="Trazado 620942" d="M147.786,89.642l1.835,9.976,4.883-2.763Z" transform="translate(-147.786 -89.642)" fill="#f0997a"/>
                </g>
                <g id="Grupo_927995" data-name="Grupo 927995" transform="translate(12.623)">
                  <path id="Trazado_620943" data-name="Trazado 620943" d="M157.136,86.985l-3.838-.856a1.891,1.891,0,0,1,2.285-1.508A2.049,2.049,0,0,1,157.136,86.985Z" transform="translate(-153.298 -84.573)" fill="#263238"/>
                </g>
                <g id="Grupo_927996" data-name="Grupo 927996" transform="translate(0 1.554)">
                  <path id="Trazado_620944" data-name="Trazado 620944" d="M137.261,89.586l3.456-1.975a1.918,1.918,0,0,0-2.663-.776A2.072,2.072,0,0,0,137.261,89.586Z" transform="translate(-137.024 -86.576)" fill="#263238"/>
                </g>
              </g>
            </g>
            <g id="Cap">
              <path id="Trazado_620945" data-name="Trazado 620945" d="M147.953,74.913c-15.848.368-22.445,7.75-22.445,7.75-1.8,1.281-4.676,3.659-5.62,5.818a5.027,5.027,0,0,0-5.11,1.773A12.144,12.144,0,0,1,113.628,87c-1.24-5.3-1.6-16.308,10.9-20.759,11.474-4.087,19.685-2.4,22.335,3.727A26.192,26.192,0,0,1,147.953,74.913Z" transform="translate(-113.05 -64.005)" fill="#455a64"/>
              <path id="Trazado_620946" data-name="Trazado 620946" d="M128.627,82.108a21.7,21.7,0,0,1,7.079-8.957c3.481-2.735,11.269-4.142,14.779-4.668,6.144-.919,7.818.183,8.04,1.1.052.218.3,1.228.362,1.456a.943.943,0,0,1-.035.621c-.695,1.59-5.259,4.9-5.259,4.9-8-.915-17.368,1.952-24.592,7.028Z" transform="translate(-116.544 -64.932)" fill="#ba68c8"/>
              <path id="Trazado_620947" data-name="Trazado 620947" d="M129.11,84.02A39.837,39.837,0,0,1,153.7,76.992s4.564-3.311,5.259-4.9c.368-.877-.392-2.833-7.993-1.695-3.509.525-11.3,1.933-14.778,4.667A21.694,21.694,0,0,0,129.11,84.02Z" transform="translate(-116.653 -65.361)" fill="#37474f"/>
            </g>
          </g>
          <g id="Arm-3" data-name="Arm" transform="translate(0 50.056)">
            <path id="Trazado_620948" data-name="Trazado 620948" d="M99.195,130.819c-3.068.53-10.856,1.809-13.862,7.852-3.912,7.865-9.887,21.16-13.734,30.992-2.309,5.9-2.463,7.785-.069,12.985,2.3,5,13.755,21.75,18.027,26.7,3.176,3.677,9.187,9.787,11.357,11.105,0,0,3.632-2.063,4.88-14.453,0,0,.195-1.349,3.418-.23,2.239.776,5.078.946,6.428-.35s-1.8-1.992-3.4-2.979a19.081,19.081,0,0,0-7.736-3.194c-3.976-.674-7.031-1.287-9.287-6.3-4.3-9.552-6.7-15-6.7-15l11.236-23.959C103.464,146.28,102.459,137.849,99.195,130.819Z" transform="translate(-69.8 -129.049)" fill="#ffbda7"/>
            <g id="Grupo_927999" data-name="Grupo 927999" transform="translate(4.741)">
              <path id="Trazado_620949" data-name="Trazado 620949" d="M100.9,128.537c-9.584,2.405-13.038,4.9-17.256,14.689-2.837,6.582-7.736,18.008-7.736,18.008s2.115,3.9,7.885,6.041c8.149,3.03,10.866,1.651,10.866,1.651s4.153-9.081,7.586-16.339C106.593,143.406,104.462,132.533,100.9,128.537Z" transform="translate(-75.912 -128.537)" fill="#455a64"/>
            </g>
            <path id="Trazado_620950" data-name="Trazado 620950" d="M91.669,190.5c-2.5-3.28-7.859-3.5-7.859-3.5a10.178,10.178,0,0,1,8.563,2.063Z" transform="translate(-72.943 -141.602)" fill="#f0997a"/>
          </g>
        </g>
      </g>
    </g>
  </g>
</svg>
