<svg xmlns="http://www.w3.org/2000/svg" width="339.324" height="323.359" viewBox="0 0 339.324 323.359">
  <g id="Grupo_930185" data-name="Grupo 930185" transform="translate(-139.238 -72.33)">
    <g id="Grupo_929878" data-name="Grupo 929878" transform="translate(157.442 81.454)">
      <g id="Grupo_929870" data-name="Grupo 929870" transform="translate(99.926)">
        <rect id="Rectángulo_335365" data-name="Rectángulo 335365" width="6.81" height="146.43" fill="#e0e0e0"/>
      </g>
      <g id="Grupo_929871" data-name="Grupo 929871" transform="translate(1.133 1.133)">
        <path id="Rectángulo_335366" data-name="Rectángulo 335366" d="M.138,0H97.62a.138.138,0,0,1,.138.138V145.364a.137.137,0,0,1-.137.137H.138A.138.138,0,0,1,0,145.363V.138A.138.138,0,0,1,.138,0Z" fill="#f5f5f5"/>
      </g>
      <g id="Grupo_929873" data-name="Grupo 929873" transform="translate(0 0)">
        <g id="Grupo_929872" data-name="Grupo 929872">
          <path id="Trazado_638972" data-name="Trazado 638972" d="M264.635,232.863H164.809a.1.1,0,0,1-.1-.1V85.195a.1.1,0,0,1,.1-.1h99.827a.1.1,0,0,1,.1.1v147.57A.1.1,0,0,1,264.635,232.863ZM167.073,230.6h95.3a.1.1,0,0,0,.1-.1V87.46a.1.1,0,0,0-.1-.1h-95.3a.1.1,0,0,0-.1.1V230.5A.1.1,0,0,0,167.073,230.6Z" transform="translate(-164.71 -85.097)" fill="#ebebeb"/>
        </g>
      </g>
      <g id="Grupo_929874" data-name="Grupo 929874" transform="translate(10.976 10.109)">
        <path id="Rectángulo_335367" data-name="Rectángulo 335367" d="M.137,0H78.107a.137.137,0,0,1,.137.137V127.315a.138.138,0,0,1-.138.138H.137A.137.137,0,0,1,0,127.315V.137A.137.137,0,0,1,.137,0Z" fill="#fff"/>
      </g>
      <g id="Grupo_929875" data-name="Grupo 929875" transform="translate(28.045 46.241)">
        <rect id="Rectángulo_335368" data-name="Rectángulo 335368" width="43.934" height="51.494" rx="0.064" fill="#ebebeb"/>
      </g>
      <g id="Grupo_929877" data-name="Grupo 929877" transform="translate(28.786 50.845)">
        <g id="Grupo_929876" data-name="Grupo 929876">
          <path id="Trazado_638973" data-name="Trazado 638973" d="M244.7,196.831c.056.165-2.111,1.115-6.237.632a15.245,15.245,0,0,1-7.011-2.8,14.225,14.225,0,0,1-5.448-8.569,12.316,12.316,0,0,1,4.166-11.714,10.946,10.946,0,0,1,3.159-1.851,8.408,8.408,0,0,1,3.952-.455,6.955,6.955,0,0,1,3.952,1.726,5.157,5.157,0,0,1,1.558,4.6,7.516,7.516,0,0,1-2.17,3.951,14.308,14.308,0,0,1-3.31,2.438,18.134,18.134,0,0,1-7.9,2.255,15.7,15.7,0,0,1-8.414-1.915,15.3,15.3,0,0,1-6.192-6.418,13.079,13.079,0,0,1-1.111-8.989,13.356,13.356,0,0,1,4.738-7.407,11.66,11.66,0,0,1,3.972-2.005,9.877,9.877,0,0,1,4.472-.14,7.3,7.3,0,0,1,4.059,2.29,6.739,6.739,0,0,1,1.591,4.338,8.265,8.265,0,0,1-1.059,4.131,11.056,11.056,0,0,1-2.5,3.012,16.863,16.863,0,0,1-6.224,3.307,15.965,15.965,0,0,1-6.548.505,13.4,13.4,0,0,1-5.7-2.183,12.336,12.336,0,0,1-5.442-8.621,10.411,10.411,0,0,1,2.016-7.391,8.834,8.834,0,0,1,3.73-2.979c1.027-.389,1.612-.375,1.637-.278.043.14-.465.367-1.3.922a9.725,9.725,0,0,0-2.9,3.117,9.213,9.213,0,0,0-1.187,6.313,10.338,10.338,0,0,0,4.839,6.777,11.92,11.92,0,0,0,9.982.95,14.042,14.042,0,0,0,5-2.826,6.141,6.141,0,0,0,2.333-4.681,3.366,3.366,0,0,0-3.007-3.322,6.485,6.485,0,0,0-2.872.135,8.265,8.265,0,0,0-2.71,1.42,9.886,9.886,0,0,0-3.417,5.446,9.51,9.51,0,0,0,.838,6.528A11.813,11.813,0,0,0,222.766,182a12.257,12.257,0,0,0,6.5,1.513,14.811,14.811,0,0,0,6.4-1.749,11.034,11.034,0,0,0,2.552-1.8,4.3,4.3,0,0,0,1.295-2.11,1.84,1.84,0,0,0-.524-1.7,3.823,3.823,0,0,0-2.115-.932,5.346,5.346,0,0,0-2.491.212,8,8,0,0,0-2.32,1.271,9.664,9.664,0,0,0-3.537,8.958,12.344,12.344,0,0,0,4.186,7.416,14.751,14.751,0,0,0,6.018,3C242.445,196.945,244.676,196.517,244.7,196.831Z" transform="translate(-204.99 -156.243)" fill="#e0e0e0"/>
        </g>
      </g>
    </g>
    <g id="Grupo_929879" data-name="Grupo 929879" transform="translate(357.67 219.642)">
      <path id="Trazado_638974" data-name="Trazado 638974" d="M477.58,278.462c.093.043-7.151,15.952-16.177,35.529s-16.423,35.42-16.516,35.377,7.149-15.949,16.178-35.533S477.486,278.418,477.58,278.462Z" transform="translate(-444.886 -278.462)" fill="#e0e0e0"/>
    </g>
    <g id="Grupo_929881" data-name="Grupo 929881" transform="translate(331.589 88.531)">
      <circle id="Elipse_4932" data-name="Elipse 4932" cx="71.922" cy="71.922" r="71.922" transform="translate(0.186 0.152)" fill="#f5f5f5"/>
      <g id="Grupo_929880" data-name="Grupo 929880" transform="translate(0 0)">
        <path id="Trazado_638975" data-name="Trazado 638975" d="M552.422,167.074s-.023-.4-.049-1.166c-.012-.387-.028-.866-.046-1.436s-.031-1.233-.1-1.983a72.282,72.282,0,0,0-2.045-12.977,71.216,71.216,0,0,0-2.949-9.027,69.4,69.4,0,0,0-5-10.121,72.688,72.688,0,0,0-18.25-20.408,71.629,71.629,0,0,0-30.226-13.409,72.947,72.947,0,0,0-28.124.325,76.644,76.644,0,0,0-9.594,2.736,71.946,71.946,0,0,0-33.358,25.019,70.622,70.622,0,0,0-5.849,9.416c-.412.836-.879,1.649-1.25,2.508l-1.159,2.565c-.692,1.747-1.408,3.494-1.979,5.3a69.875,69.875,0,0,0-2.733,11.1,71.632,71.632,0,0,0,0,23.1,69.944,69.944,0,0,0,2.731,11.1c.571,1.808,1.286,3.555,1.978,5.3.773,1.714,1.525,3.43,2.409,5.075a70.618,70.618,0,0,0,5.849,9.419,71.948,71.948,0,0,0,33.364,25.026,76.663,76.663,0,0,0,9.6,2.736,72.949,72.949,0,0,0,28.127.324,71.633,71.633,0,0,0,30.226-13.411,72.693,72.693,0,0,0,18.248-20.409,69.339,69.339,0,0,0,5-10.12,71.238,71.238,0,0,0,2.949-9.026,72.313,72.313,0,0,0,2.045-12.976c.074-.749.09-1.411.1-1.982s.034-1.048.046-1.436c.026-.77.049-1.166.049-1.166s0,.4-.011,1.166q-.011.581-.027,1.437c-.008.572-.018,1.235-.086,1.985a70.334,70.334,0,0,1-4.9,22.063,69.312,69.312,0,0,1-4.989,10.161A72.756,72.756,0,0,1,524.139,224.4,71.831,71.831,0,0,1,493.81,237.9a73.227,73.227,0,0,1-28.252-.3,76.845,76.845,0,0,1-9.644-2.742,72.262,72.262,0,0,1-33.54-25.132,70.989,70.989,0,0,1-5.882-9.466c-.889-1.652-1.646-3.377-2.423-5.1-.7-1.757-1.415-3.513-1.99-5.33a70.417,70.417,0,0,1-2.747-11.161,71.96,71.96,0,0,1,0-23.214,70.219,70.219,0,0,1,2.748-11.156c.575-1.816,1.294-3.572,1.991-5.328l1.166-2.577c.373-.865.841-1.681,1.256-2.521a71.068,71.068,0,0,1,5.882-9.463,72.258,72.258,0,0,1,33.535-25.126,76.793,76.793,0,0,1,9.642-2.742,73.23,73.23,0,0,1,28.25-.3,71.841,71.841,0,0,1,30.328,13.5,72.777,72.777,0,0,1,18.269,20.51,69.336,69.336,0,0,1,4.99,10.162,70.349,70.349,0,0,1,4.9,22.066c.068.75.078,1.414.086,1.985s.02,1.05.027,1.438C552.425,166.679,552.422,167.074,552.422,167.074Z" transform="translate(-408.392 -95)" fill="#e0e0e0"/>
      </g>
    </g>
    <path id="Trazado_638976" data-name="Trazado 638976" d="M447.251,374.554a3.952,3.952,0,1,1-4.227-3.658A3.953,3.953,0,0,1,447.251,374.554Z" transform="translate(-85.638 -85.192)" fill="#e0e0e0"/>
    <g id="Grupo_929911" data-name="Grupo 929911" transform="translate(359.243 310.518)">
      <g id="Grupo_929910" data-name="Grupo 929910">
        <g id="Grupo_929885" data-name="Grupo 929885">
          <g id="Grupo_929884" data-name="Grupo 929884">
            <g id="Grupo_929883" data-name="Grupo 929883">
              <g id="Grupo_929882" data-name="Grupo 929882">
                <path id="Trazado_638977" data-name="Trazado 638977" d="M452.91,405.622v26.062h-5.823v3.539h5.823v17.871H561.749V436.832h-8.062V433.29h8.062v-5.313h3.583v-2.415h-4.255v-19.94Z" transform="translate(-447.087 -405.622)" fill="#f5f5f5"/>
              </g>
            </g>
          </g>
        </g>
        <g id="Grupo_929889" data-name="Grupo 929889" transform="translate(85.759 0)">
          <g id="Grupo_929888" data-name="Grupo 929888">
            <g id="Grupo_929887" data-name="Grupo 929887">
              <g id="Grupo_929886" data-name="Grupo 929886">
                <path id="Trazado_638978" data-name="Trazado 638978" d="M567.089,405.7v47.1h28.9V436.535H587.93V433.29l8.062.11v-5.313l3.653,0-.07-2.746-4.255-.08V405.622Z" transform="translate(-567.089 -405.622)" fill="#ebebeb"/>
              </g>
            </g>
          </g>
        </g>
        <g id="Grupo_929894" data-name="Grupo 929894" transform="translate(0.179 29.391)">
          <g id="Grupo_929893" data-name="Grupo 929893">
            <g id="Grupo_929892" data-name="Grupo 929892">
              <g id="Grupo_929891" data-name="Grupo 929891">
                <g id="Grupo_929890" data-name="Grupo 929890">
                  <path id="Trazado_638979" data-name="Trazado 638979" d="M535.31,447.157c0,.225-19.7.407-43.984.407s-43.988-.182-43.988-.407,19.691-.408,43.988-.408S535.31,446.932,535.31,447.157Z" transform="translate(-447.338 -446.749)" fill="#e0e0e0"/>
                </g>
              </g>
            </g>
          </g>
        </g>
        <g id="Grupo_929899" data-name="Grupo 929899" transform="translate(0.179 25.654)">
          <g id="Grupo_929898" data-name="Grupo 929898">
            <g id="Grupo_929897" data-name="Grupo 929897">
              <g id="Grupo_929896" data-name="Grupo 929896">
                <g id="Grupo_929895" data-name="Grupo 929895">
                  <path id="Trazado_638980" data-name="Trazado 638980" d="M535.31,441.926c0,.226-19.7.408-43.984.408s-43.988-.182-43.988-.408,19.691-.407,43.988-.407S535.31,441.7,535.31,441.926Z" transform="translate(-447.338 -441.519)" fill="#e0e0e0"/>
                </g>
              </g>
            </g>
          </g>
        </g>
        <g id="Grupo_929904" data-name="Grupo 929904" transform="translate(5.496 8.11)">
          <g id="Grupo_929903" data-name="Grupo 929903">
            <g id="Grupo_929902" data-name="Grupo 929902">
              <g id="Grupo_929901" data-name="Grupo 929901">
                <g id="Grupo_929900" data-name="Grupo 929900">
                  <path id="Trazado_638981" data-name="Trazado 638981" d="M542.75,417.378c0,.225-19.694.407-43.984.407s-43.988-.182-43.988-.407,19.691-.408,43.988-.408S542.75,417.153,542.75,417.378Z" transform="translate(-454.778 -416.97)" fill="#e0e0e0"/>
                </g>
              </g>
            </g>
          </g>
        </g>
        <g id="Grupo_929909" data-name="Grupo 929909" transform="translate(6.04 35.523)">
          <g id="Grupo_929908" data-name="Grupo 929908">
            <g id="Grupo_929907" data-name="Grupo 929907">
              <g id="Grupo_929906" data-name="Grupo 929906">
                <g id="Grupo_929905" data-name="Grupo 929905">
                  <path id="Trazado_638982" data-name="Trazado 638982" d="M543.51,455.736c0,.226-19.694.408-43.984.408s-43.988-.182-43.988-.408,19.691-.407,43.988-.407S543.51,455.511,543.51,455.736Z" transform="translate(-455.538 -455.329)" fill="#e0e0e0"/>
                </g>
              </g>
            </g>
          </g>
        </g>
      </g>
    </g>
    <g id="Grupo_929913" data-name="Grupo 929913" transform="translate(139.238 357.798)">
      <path id="Trazado_638983" data-name="Trazado 638983" d="M139.238,472.042H478.563" transform="translate(-139.238 -471.855)" fill="#fff"/>
      <g id="Grupo_929912" data-name="Grupo 929912">
        <path id="Trazado_638984" data-name="Trazado 638984" d="M478.563,471.967c0,.1-75.967.186-169.654.186-93.72,0-169.67-.083-169.67-.186s75.95-.186,169.67-.186C402.6,471.781,478.563,471.865,478.563,471.967Z" transform="translate(-139.238 -471.781)" fill="#263238"/>
      </g>
    </g>
    <path id="Trazado_638985" data-name="Trazado 638985" d="M495.509,441.636s15.579-5.508,30.011,0h0l-2.792,4.955-25.811.993-1.408-5.949" transform="translate(-101.661 -104.682)" fill="#eb6f2d"/>
    <g id="Grupo_929921" data-name="Grupo 929921" transform="translate(394.816 308.919)">
      <g id="Grupo_929916" data-name="Grupo 929916">
        <g id="Grupo_929915" data-name="Grupo 929915">
          <path id="Trazado_638986" data-name="Trazado 638986" d="M498.508,403.44l.273-.02a1.7,1.7,0,0,1,1.817,1.573l3.7,51.254-3.663.264-3.7-51.254A1.7,1.7,0,0,1,498.508,403.44Z" transform="translate(-496.883 -403.393)" fill="#e0e0e0"/>
          <g id="Grupo_929914" data-name="Grupo 929914">
            <path id="Trazado_638987" data-name="Trazado 638987" d="M498.489,403.431a1.919,1.919,0,0,0-.966.439,1.652,1.652,0,0,0-.55,1.127c0,.506.08,1.118.125,1.793.211,2.732.514,6.655.888,11.5.717,9.748,1.708,23.218,2.81,38.193l-.2-.172,1.965-.142,1.7-.122-.172.2c-1.062-15.046-2.019-28.586-2.711-38.388-.327-4.879-.592-8.826-.776-11.575q-.032-.511-.061-.966a2.593,2.593,0,0,0-.125-.818,1.689,1.689,0,0,0-.865-.92,1.723,1.723,0,0,0-.782-.154,1.651,1.651,0,0,1-.279,0,1.463,1.463,0,0,1,.277-.039,1.68,1.68,0,0,1,.814.124,1.752,1.752,0,0,1,.936.947,2.682,2.682,0,0,1,.15.85q.037.453.078.964c.212,2.748.516,6.692.893,11.567.721,9.8,1.717,23.338,2.824,38.38l.014.186-.186.013-1.7.123-1.966.142-.186.014-.013-.186c-1.058-14.98-2.009-28.452-2.7-38.2-.325-4.853-.588-8.779-.772-11.513-.034-.683-.1-1.273-.092-1.812a1.723,1.723,0,0,1,.611-1.174,1.65,1.65,0,0,1,.735-.358A.973.973,0,0,1,498.489,403.431Z" transform="translate(-496.864 -403.384)" fill="#263238"/>
          </g>
        </g>
      </g>
      <g id="Grupo_929917" data-name="Grupo 929917" transform="translate(1.878 36.643)">
        <path id="Trazado_638988" data-name="Trazado 638988" d="M499.491,455.035l5.222-.377,1.233,17.1a2.618,2.618,0,0,1-2.423,2.8h0a2.618,2.618,0,0,1-2.8-2.423Z" transform="translate(-499.491 -454.658)" fill="#455a64"/>
      </g>
      <g id="Grupo_929918" data-name="Grupo 929918" transform="translate(0.294 29.136)">
        <rect id="Rectángulo_335369" data-name="Rectángulo 335369" width="1.016" height="22.244" transform="translate(2.615 22.186) rotate(175.87)" fill="#455a64"/>
      </g>
      <g id="Grupo_929920" data-name="Grupo 929920" transform="translate(1.542 36.598)">
        <g id="Grupo_929919" data-name="Grupo 929919">
          <path id="Trazado_638989" data-name="Trazado 638989" d="M504.579,454.64a34.389,34.389,0,0,1-5.261.757l.232-.274c.094,1.194.2,2.488.3,3.852.182,2.527.315,4.817.384,6.476a12.743,12.743,0,0,1-.007,2.694,12.773,12.773,0,0,1-.393-2.666c-.17-1.652-.367-3.937-.549-6.464-.089-1.365-.174-2.661-.252-3.856l-.016-.254.249-.02A34.567,34.567,0,0,1,504.579,454.64Z" transform="translate(-499.022 -454.595)" fill="#263238"/>
        </g>
      </g>
    </g>
    <g id="Grupo_929929" data-name="Grupo 929929" transform="translate(401.453 306.745)">
      <g id="Grupo_929924" data-name="Grupo 929924" transform="translate(0.652 3.382)">
        <g id="Grupo_929923" data-name="Grupo 929923">
          <rect id="Rectángulo_335370" data-name="Rectángulo 335370" width="3.672" height="41.444" transform="translate(0.204 0.186)" fill="#e0e0e0"/>
          <g id="Grupo_929922" data-name="Grupo 929922">
            <path id="Trazado_638990" data-name="Trazado 638990" d="M510.939,446.707a1.637,1.637,0,0,1-.013-.223c0-.161-.007-.369-.013-.63-.006-.572-.014-1.376-.026-2.4-.013-2.1-.032-5.1-.055-8.823-.02-7.462-.048-17.79-.079-29.366l.185.186h-3.67c.368-.372.1-.1.184-.175V407q0,.863,0,1.719,0,1.71,0,3.383c0,2.23,0,4.406-.006,6.516-.009,4.218-.016,8.171-.023,11.762-.036,7.148-.064,12.845-.081,16.332l-.074-.074,2.7.042.715.017a1.871,1.871,0,0,1,.253.014,1.341,1.341,0,0,1-.227.014l-.7.017-2.747.041h-.073v-.074c-.018-3.487-.046-9.184-.081-16.332-.007-3.591-.015-7.544-.023-11.762,0-2.11,0-4.286-.006-6.516q0-1.672,0-3.383,0-.855,0-1.719v-1.722c.084-.086-.188.175.188-.2h3.856v.185c-.031,11.63-.059,22.006-.079,29.5-.023,3.7-.041,6.69-.055,8.78-.011,1.008-.019,1.8-.026,2.36l-.013.605A1.052,1.052,0,0,1,510.939,446.707Z" transform="translate(-507.063 -405.076)" fill="#263238"/>
          </g>
        </g>
      </g>
      <g id="Grupo_929925" data-name="Grupo 929925">
        <path id="Trazado_638991" data-name="Trazado 638991" d="M511.387,420.1h-5.236V402.961a2.618,2.618,0,0,1,2.618-2.618h0a2.618,2.618,0,0,1,2.618,2.618Z" transform="translate(-506.151 -400.343)" fill="#455a64"/>
      </g>
      <g id="Grupo_929926" data-name="Grupo 929926" transform="translate(5.236 5.42)">
        <rect id="Rectángulo_335371" data-name="Rectángulo 335371" width="1.016" height="22.244" fill="#455a64"/>
      </g>
      <g id="Grupo_929928" data-name="Grupo 929928" transform="translate(0 6.603)">
        <g id="Grupo_929927" data-name="Grupo 929927">
          <path id="Trazado_638992" data-name="Trazado 638992" d="M506.151,422.739a34.459,34.459,0,0,1,5.3-.376l-.251.257c-.009-1.2-.017-2.5-.026-3.864,0-2.533.031-4.827.083-6.486a12.784,12.784,0,0,1,.2-2.687,12.674,12.674,0,0,1,.2,2.687c.051,1.659.083,3.953.083,6.486-.009,1.369-.018,2.666-.026,3.864v.255h-.249A34.425,34.425,0,0,1,506.151,422.739Z" transform="translate(-506.151 -409.582)" fill="#263238"/>
        </g>
      </g>
    </g>
    <g id="Grupo_929937" data-name="Grupo 929937" transform="translate(408.853 316.471)">
      <g id="Grupo_929932" data-name="Grupo 929932" transform="translate(0.652 3.382)">
        <g id="Grupo_929931" data-name="Grupo 929931">
          <rect id="Rectángulo_335372" data-name="Rectángulo 335372" width="3.672" height="41.444" transform="translate(0.204 0.186)" fill="#e0e0e0"/>
          <g id="Grupo_929930" data-name="Grupo 929930">
            <path id="Trazado_638993" data-name="Trazado 638993" d="M521.294,460.316a1.64,1.64,0,0,1-.013-.223c0-.162-.007-.369-.013-.63-.006-.573-.015-1.377-.026-2.4-.013-2.1-.032-5.1-.055-8.824-.02-7.462-.048-17.789-.079-29.366l.185.185h-3.67c.368-.372.1-.1.184-.174V420.6q0,.864,0,1.719,0,1.711,0,3.384c0,2.229,0,4.405-.006,6.516-.009,4.217-.016,8.171-.023,11.762-.036,7.148-.064,12.845-.081,16.331l-.074-.074,2.7.042.715.017a2.032,2.032,0,0,1,.253.014,1.251,1.251,0,0,1-.227.014l-.7.017-2.747.042h-.073v-.075c-.018-3.486-.046-9.183-.081-16.331-.007-3.591-.015-7.545-.023-11.762,0-2.11,0-4.286-.006-6.516q0-1.672,0-3.384,0-.854,0-1.719v-1.722c.084-.087-.188.174.188-.2h3.856v.186c-.031,11.63-.059,22.006-.079,29.5-.023,3.7-.042,6.69-.055,8.78-.011,1.008-.02,1.8-.026,2.36l-.013.606A1.02,1.02,0,0,1,521.294,460.316Z" transform="translate(-517.418 -418.685)" fill="#263238"/>
          </g>
        </g>
      </g>
      <g id="Grupo_929933" data-name="Grupo 929933">
        <path id="Trazado_638994" data-name="Trazado 638994" d="M521.742,433.712h-5.236V416.57a2.618,2.618,0,0,1,2.618-2.618h0a2.618,2.618,0,0,1,2.618,2.618Z" transform="translate(-516.506 -413.952)" fill="#455a64"/>
      </g>
      <g id="Grupo_929934" data-name="Grupo 929934" transform="translate(5.236 5.42)">
        <rect id="Rectángulo_335373" data-name="Rectángulo 335373" width="1.016" height="22.244" fill="#455a64"/>
      </g>
      <g id="Grupo_929936" data-name="Grupo 929936" transform="translate(0 6.603)">
        <g id="Grupo_929935" data-name="Grupo 929935">
          <path id="Trazado_638995" data-name="Trazado 638995" d="M516.506,436.349a34.4,34.4,0,0,1,5.3-.377l-.251.257c-.009-1.2-.017-2.495-.026-3.863,0-2.533.031-4.827.083-6.487a12.775,12.775,0,0,1,.2-2.686,12.658,12.658,0,0,1,.2,2.686c.051,1.66.084,3.953.084,6.487-.01,1.368-.019,2.666-.027,3.863l0,.255-.249,0A34.53,34.53,0,0,1,516.506,436.349Z" transform="translate(-516.506 -423.192)" fill="#263238"/>
        </g>
      </g>
    </g>
    <g id="Grupo_929945" data-name="Grupo 929945" transform="translate(415.83 305.226)">
      <g id="Grupo_929940" data-name="Grupo 929940" transform="translate(0.652 3.382)">
        <g id="Grupo_929939" data-name="Grupo 929939">
          <rect id="Rectángulo_335374" data-name="Rectángulo 335374" width="3.672" height="41.444" transform="translate(0.204 0.186)" fill="#e0e0e0"/>
          <g id="Grupo_929938" data-name="Grupo 929938">
            <path id="Trazado_638996" data-name="Trazado 638996" d="M531.058,444.582a1.6,1.6,0,0,1-.013-.223c0-.162-.007-.369-.012-.63-.006-.573-.015-1.377-.026-2.4-.013-2.1-.031-5.1-.055-8.824-.02-7.462-.048-17.789-.079-29.366l.185.185h-3.67c.367-.372.1-.1.184-.174v1.722q0,.864,0,1.719,0,1.711,0,3.383c0,2.23,0,4.406-.006,6.515-.009,4.218-.016,8.171-.024,11.762-.036,7.148-.064,12.845-.081,16.331l-.073-.074,2.7.042.715.017a2.026,2.026,0,0,1,.253.014,1.252,1.252,0,0,1-.227.014l-.7.017-2.746.042h-.074v-.074c-.017-3.486-.046-9.183-.082-16.331-.007-3.591-.014-7.545-.023-11.762,0-2.11,0-4.286-.007-6.515q0-1.672,0-3.383v-3.44c.084-.087-.188.174.189-.2h3.856v.186c-.031,11.63-.059,22-.079,29.5-.024,3.7-.042,6.691-.056,8.78-.011,1.008-.019,1.8-.026,2.36l-.013.606A1.043,1.043,0,0,1,531.058,444.582Z" transform="translate(-527.182 -402.951)" fill="#263238"/>
          </g>
        </g>
      </g>
      <g id="Grupo_929941" data-name="Grupo 929941">
        <path id="Trazado_638997" data-name="Trazado 638997" d="M531.505,417.977h-5.236V400.836a2.618,2.618,0,0,1,2.618-2.618h0a2.618,2.618,0,0,1,2.619,2.618Z" transform="translate(-526.269 -398.218)" fill="#455a64"/>
      </g>
      <g id="Grupo_929942" data-name="Grupo 929942" transform="translate(5.236 5.42)">
        <rect id="Rectángulo_335375" data-name="Rectángulo 335375" width="1.016" height="22.244" fill="#455a64"/>
      </g>
      <g id="Grupo_929944" data-name="Grupo 929944" transform="translate(0 6.603)">
        <g id="Grupo_929943" data-name="Grupo 929943">
          <path id="Trazado_638998" data-name="Trazado 638998" d="M526.269,420.615a34.3,34.3,0,0,1,5.3-.377l-.251.257c-.009-1.2-.017-2.5-.026-3.863,0-2.533.031-4.827.083-6.487a12.778,12.778,0,0,1,.2-2.686,12.69,12.69,0,0,1,.2,2.686c.051,1.66.083,3.953.083,6.487-.009,1.368-.019,2.666-.026,3.863l0,.255-.249,0A34.429,34.429,0,0,1,526.269,420.615Z" transform="translate(-526.269 -407.458)" fill="#263238"/>
        </g>
      </g>
    </g>
    <g id="Grupo_929946" data-name="Grupo 929946" transform="translate(393.848 336.953)">
      <path id="Trazado_638999" data-name="Trazado 638999" d="M522.148,477a26.724,26.724,0,0,1-23.543,0l-3.1-34.388c9.476,2.777,19.531,2.511,30.011,0Z" transform="translate(-495.509 -442.613)" fill="#eb6f2d"/>
    </g>
    <g id="Grupo_929947" data-name="Grupo 929947" transform="translate(394.059 336.717)">
      <path id="Trazado_639000" data-name="Trazado 639000" d="M525.609,442.286a7.2,7.2,0,0,1-1.121.4c-.726.244-1.8.542-3.131.855a47.983,47.983,0,0,1-4.741.856,49.433,49.433,0,0,1-11.782.109,48.144,48.144,0,0,1-4.756-.768c-1.341-.289-2.416-.567-3.147-.8a7.342,7.342,0,0,1-1.127-.383,7.185,7.185,0,0,1,1.165.243c.74.188,1.82.425,3.16.68s2.947.5,4.74.685c1.794.169,3.776.279,5.856.267s4.058-.173,5.849-.375c1.789-.221,3.393-.487,4.727-.773s2.411-.537,3.147-.738A7.369,7.369,0,0,1,525.609,442.286Z" transform="translate(-495.805 -442.283)" fill="#263238"/>
    </g>
    <g id="Grupo_929957" data-name="Grupo 929957" transform="translate(218.772 359.477)">
      <path id="Trazado_639001" data-name="Trazado 639001" d="M334.149,488.578l-59.782,1.59,59.782,24.3,64.3-3.8Z" transform="translate(-257.331 -478.252)" fill="#e0e0e0"/>
      <path id="Trazado_639002" data-name="Trazado 639002" d="M310.31,485.2l-59.782,1.59,59.782,24.3,64.3-3.8Z" transform="translate(-250.528 -477.288)" fill="#f5f5f5"/>
      <path id="Trazado_639003" data-name="Trazado 639003" d="M255.982,476.357l59.782,24.3v4.415l-59.782-25.145Z" transform="translate(-252.084 -474.765)" fill="#e0e0e0"/>
      <path id="Trazado_639004" data-name="Trazado 639004" d="M339.633,513.253l64.3-4.107V505.04l-64.3,3.8Z" transform="translate(-275.954 -482.95)" fill="#ebebeb"/>
      <g id="Grupo_929949" data-name="Grupo 929949" transform="translate(3.74)">
        <path id="Trazado_639005" data-name="Trazado 639005" d="M315.764,474.132l-59.782,1.59,59.782,24.3,64.3-3.8Z" transform="translate(-255.825 -474.13)" fill="#fff"/>
        <g id="Grupo_929948" data-name="Grupo 929948">
          <path id="Trazado_639006" data-name="Trazado 639006" d="M315.7,474.131s.1.026.3.09l.89.292,3.463,1.163,13.115,4.457,46.582,15.93a.164.164,0,0,1,.1.209.166.166,0,0,1-.146.111l-60.267,3.583-4.031.238a.194.194,0,0,1-.081-.014L255.86,475.866a.157.157,0,0,1,.055-.3l43.406-1.088,12.109-.279,3.182-.061c.72-.011,1.089,0,1.089,0s-.374.026-1.1.053l-3.189.109-12.115.365-43.378,1.22.055-.3,59.792,24.27-.081-.014,4.032-.238,60.269-3.539-.044.319-46.515-16.05-13.092-4.546-3.455-1.213-.885-.317C315.8,474.175,315.7,474.131,315.7,474.131Z" transform="translate(-255.762 -474.129)" fill="#263238"/>
        </g>
      </g>
      <g id="Grupo_929950" data-name="Grupo 929950" transform="translate(63.448 25.955)">
        <path id="Trazado_639007" data-name="Trazado 639007" d="M339.5,514.962a13.749,13.749,0,0,1,0-4.514,13.8,13.8,0,0,1,0,4.514Z" transform="translate(-339.31 -510.448)" fill="#263238"/>
      </g>
      <g id="Grupo_929951" data-name="Grupo 929951" transform="translate(61.149 17.488)">
        <path id="Trazado_639008" data-name="Trazado 639008" d="M379.674,498.614c.006.1-9.746.77-21.778,1.49s-21.8,1.222-21.8,1.119,9.744-.77,21.78-1.49S379.667,498.511,379.674,498.614Z" transform="translate(-336.093 -498.6)" fill="#263238"/>
      </g>
      <g id="Grupo_929952" data-name="Grupo 929952" transform="translate(54.809 15.042)">
        <path id="Trazado_639009" data-name="Trazado 639009" d="M370.8,495.191c.006.1-9.746.77-21.778,1.49s-21.8,1.222-21.8,1.119,9.744-.77,21.78-1.491S370.8,495.088,370.8,495.191Z" transform="translate(-327.221 -495.177)" fill="#263238"/>
      </g>
      <g id="Grupo_929953" data-name="Grupo 929953" transform="translate(48.468 12.595)">
        <path id="Trazado_639010" data-name="Trazado 639010" d="M361.929,491.767c.006.1-9.746.77-21.778,1.491s-21.8,1.222-21.8,1.119,9.744-.77,21.78-1.491S361.923,491.664,361.929,491.767Z" transform="translate(-318.348 -491.753)" fill="#263238"/>
      </g>
      <g id="Grupo_929954" data-name="Grupo 929954" transform="translate(41.092 10.149)">
        <path id="Trazado_639011" data-name="Trazado 639011" d="M351.609,488.344c.006.1-9.746.77-21.778,1.491s-21.8,1.221-21.8,1.119,9.744-.77,21.78-1.491S351.6,488.242,351.609,488.344Z" transform="translate(-308.028 -488.331)" fill="#263238"/>
      </g>
      <g id="Grupo_929955" data-name="Grupo 929955" transform="translate(34.769 7.703)">
        <path id="Trazado_639012" data-name="Trazado 639012" d="M342.76,484.921c.006.1-9.745.77-21.778,1.491s-21.8,1.221-21.8,1.119,9.743-.77,21.78-1.491S342.754,484.819,342.76,484.921Z" transform="translate(-299.18 -484.907)" fill="#263238"/>
      </g>
      <g id="Grupo_929956" data-name="Grupo 929956" transform="translate(27.04 5.213)">
        <path id="Trazado_639013" data-name="Trazado 639013" d="M331.946,481.437c.006.1-9.746.77-21.778,1.491s-21.8,1.221-21.8,1.119,9.744-.77,21.78-1.491S331.939,481.335,331.946,481.437Z" transform="translate(-288.365 -481.423)" fill="#263238"/>
      </g>
    </g>
    <path id="Trazado_639014" data-name="Trazado 639014" d="M411.3,207.269s-5.554-.411-5.966-9.874-3.5-33.326-2.88-38.057,5.143-5.554,6.788-7.2,44.023-19.749,47.932-19.131,57.189,18.926,57.189,18.926l23.621,66.826s-12.307,4.762-21.976,4.968-39.292-9.258-39.292-9.258l-5.028,2.188s2.3,7.58-1.825,9.421a12.813,12.813,0,0,1-8.589.3s-.237,8.946-7.025,8.74-14.562-6.039-14.562-6.039-3.7,2.468-5.966.617S418.7,214.469,418.7,214.469Z" transform="translate(-75.085 -17.309)" fill="#c27460"/>
    <g id="Grupo_929958" data-name="Grupo 929958" transform="translate(376.468 125.784)">
      <path id="Trazado_639015" data-name="Trazado 639015" d="M476.1,170.77a4.832,4.832,0,0,1-.541-.8,23.809,23.809,0,0,1-1.251-2.322,31.466,31.466,0,0,1-1.466-3.631,32.369,32.369,0,0,1-1.647-9.427,31.221,31.221,0,0,1,.148-3.913,23.9,23.9,0,0,1,.389-2.608,4.836,4.836,0,0,1,.237-.938,4.76,4.76,0,0,1-.094.962c-.092.612-.189,1.505-.27,2.607a35.771,35.771,0,0,0-.067,3.88,34.868,34.868,0,0,0,1.63,9.333,35.873,35.873,0,0,0,1.379,3.627c.45,1.01.843,1.817,1.138,2.361A4.819,4.819,0,0,1,476.1,170.77Z" transform="translate(-471.19 -147.127)" fill="#7c4235"/>
    </g>
    <g id="Grupo_929959" data-name="Grupo 929959" transform="translate(386.796 140.733)">
      <path id="Trazado_639016" data-name="Trazado 639016" d="M493,168.047a5.987,5.987,0,0,1-.853,1.343,33.852,33.852,0,0,1-5.222,5.6,5.976,5.976,0,0,1-1.279.945c-.071-.085,1.753-1.672,3.777-3.851S492.909,167.982,493,168.047Z" transform="translate(-485.642 -168.046)" fill="#7c4235"/>
    </g>
    <g id="Grupo_929960" data-name="Grupo 929960" transform="translate(357.056 185.617)">
      <path id="Trazado_639017" data-name="Trazado 639017" d="M444.029,230.852a7.09,7.09,0,0,1,.86.821c.536.546,1.3,1.345,2.223,2.358s2,2.243,3.091,3.69a25.512,25.512,0,0,1,3.076,5.045,15.148,15.148,0,0,1,1.241,5.782,12.757,12.757,0,0,1-.808,4.763,9.228,9.228,0,0,1-1.675,2.792,5.734,5.734,0,0,1-.621.631c-.15.136-.232.2-.241.194-.027-.028.282-.321.75-.917a9.875,9.875,0,0,0,1.54-2.793,12.91,12.91,0,0,0,.711-4.664,15.193,15.193,0,0,0-1.24-5.64,26.347,26.347,0,0,0-3.009-4.988c-1.072-1.446-2.124-2.686-3.014-3.721l-2.132-2.434A7.453,7.453,0,0,1,444.029,230.852Z" transform="translate(-444.028 -230.851)" fill="#7c4235"/>
    </g>
    <g id="Grupo_929961" data-name="Grupo 929961" transform="translate(371.701 178.107)">
      <path id="Trazado_639018" data-name="Trazado 639018" d="M472.438,220.342a.678.678,0,0,1-.037.213c-.038.137-.077.346-.169.605a12.508,12.508,0,0,1-.954,2.176,13.214,13.214,0,0,1-2.189,2.957,8.737,8.737,0,0,1-1.791,1.4,5.3,5.3,0,0,1-2.411.76l.113-.28a8.6,8.6,0,0,1,1.92,4.13,10.016,10.016,0,0,1-.164,5.013,5.151,5.151,0,0,1-.9,1.632l-.061-.29a47.3,47.3,0,0,1,6.674,3.618,22.275,22.275,0,0,1,2.585,2.047,15.761,15.761,0,0,1,1.89,2.149,13.021,13.021,0,0,1,1.866,3.654c.154.458.216.83.28,1.074a1.561,1.561,0,0,1,.067.38c-.031.008-.169-.505-.478-1.409a13.813,13.813,0,0,0-1.938-3.549,15.978,15.978,0,0,0-1.89-2.081,22.762,22.762,0,0,0-2.568-1.99,49.359,49.359,0,0,0-6.643-3.558l-.215-.1.154-.192a4.792,4.792,0,0,0,.825-1.507,9.76,9.76,0,0,0,.162-4.823,8.344,8.344,0,0,0-1.805-3.971l-.241-.268.354-.013a5.018,5.018,0,0,0,2.274-.695A8.565,8.565,0,0,0,468.9,226.1a13.568,13.568,0,0,0,2.21-2.858,14.6,14.6,0,0,0,1.027-2.114A6.806,6.806,0,0,1,472.438,220.342Z" transform="translate(-464.519 -220.342)" fill="#7c4235"/>
    </g>
    <g id="Grupo_929962" data-name="Grupo 929962" transform="translate(382.096 182.689)">
      <path id="Trazado_639019" data-name="Trazado 639019" d="M486.788,239.23a1.893,1.893,0,0,1-.158-.583c-.068-.38-.181-.925-.34-1.594a17.684,17.684,0,0,0-1.937-4.956,15.237,15.237,0,0,0-3.529-3.966c-1.071-.858-1.791-1.324-1.758-1.376a1.92,1.92,0,0,1,.544.265,14.681,14.681,0,0,1,1.375.9,13.784,13.784,0,0,1,3.687,3.982A15.653,15.653,0,0,1,486.547,237a14.291,14.291,0,0,1,.227,1.629A1.94,1.94,0,0,1,486.788,239.23Z" transform="translate(-479.065 -226.753)" fill="#7c4235"/>
    </g>
    <g id="Grupo_929963" data-name="Grupo 929963" transform="translate(379.619 191.801)">
      <path id="Trazado_639020" data-name="Trazado 639020" d="M493.132,249.152a5.3,5.3,0,0,1-.284-.772,6.925,6.925,0,0,0-1.051-1.93c-1.1-1.561-3.653-2.46-6.317-3.5-1.352-.507-2.657-.888-3.871-1.228-1.206-.364-2.266-.755-3.155-1.086l-2.1-.8a3.751,3.751,0,0,1-.757-.329,3.3,3.3,0,0,1,.8.192c.51.149,1.239.387,2.138.687s1.965.662,3.163,1a40.285,40.285,0,0,1,3.9,1.207c1.361.5,2.631,1.051,3.766,1.593a6.881,6.881,0,0,1,2.631,2.1,6.28,6.28,0,0,1,.98,2.045A2.677,2.677,0,0,1,493.132,249.152Z" transform="translate(-475.6 -239.504)" fill="#7c4235"/>
    </g>
    <g id="Grupo_929964" data-name="Grupo 929964" transform="translate(398.214 183.699)">
      <path id="Trazado_639021" data-name="Trazado 639021" d="M501.644,228.167a13.819,13.819,0,0,1,.354,1.99c.2,1.23.5,2.921.953,4.765s.963,3.485,1.359,4.665a13.844,13.844,0,0,1,.606,1.929,9.011,9.011,0,0,1-.854-1.839,37.453,37.453,0,0,1-2.325-9.485A9.047,9.047,0,0,1,501.644,228.167Z" transform="translate(-501.618 -228.167)" fill="#7c4235"/>
    </g>
    <g id="Grupo_929965" data-name="Grupo 929965" transform="translate(398.239 181.328)">
      <path id="Trazado_639022" data-name="Trazado 639022" d="M550.325,231.8a2.73,2.73,0,0,1-.49.167l-1.427.408-1.035.284-1.246.277c-.894.2-1.912.432-3.053.6l-1.786.3-1.95.227c-1.345.189-2.8.232-4.317.345a67.809,67.809,0,0,1-9.914-.368,57.434,57.434,0,0,1-9.707-2.057c-1.446-.49-2.83-.93-4.07-1.49-.623-.27-1.241-.494-1.8-.777l-1.618-.815a30.226,30.226,0,0,1-2.7-1.542c-.389-.242-.761-.452-1.086-.672l-.869-.63-1.194-.883a2.718,2.718,0,0,1-.4-.327,2.754,2.754,0,0,1,.445.267l1.231.823.883.6c.329.211.7.412,1.1.643.8.445,1.667,1.014,2.716,1.485l1.619.789c.563.274,1.18.49,1.8.753,1.236.544,2.615.97,4.054,1.447a59.015,59.015,0,0,0,9.65,2.015,70.312,70.312,0,0,0,9.856.4c1.514-.1,2.959-.135,4.3-.309l1.943-.205,1.782-.272c1.139-.153,2.157-.366,3.052-.546l1.249-.246,1.039-.252,1.443-.339A2.762,2.762,0,0,1,550.325,231.8Z" transform="translate(-501.654 -224.849)" fill="#7c4235"/>
    </g>
    <g id="Grupo_929966" data-name="Grupo 929966" transform="translate(335.199 139.467)">
      <path id="Trazado_639023" data-name="Trazado 639023" d="M428.525,179.516c-.054.034-.672-.92-1.843-2.324a48.021,48.021,0,0,0-10.7-9.389c-1.544-.98-2.57-1.468-2.543-1.526a3.3,3.3,0,0,1,.747.288,19.5,19.5,0,0,1,1.932,1.013,40.2,40.2,0,0,1,10.765,9.45,19.545,19.545,0,0,1,1.254,1.784A3.315,3.315,0,0,1,428.525,179.516Z" transform="translate(-413.443 -166.273)" fill="#7c4235"/>
    </g>
    <g id="Grupo_929967" data-name="Grupo 929967" transform="translate(339.193 156.601)">
      <path id="Trazado_639024" data-name="Trazado 639024" d="M423.115,193.389a8.943,8.943,0,0,0-4.084-3.114,4.779,4.779,0,0,1,4.084,3.114Z" transform="translate(-419.031 -190.249)" fill="#7c4235"/>
    </g>
    <path id="Trazado_639025" data-name="Trazado 639025" d="M407.108,271.59l-.013.059a20.617,20.617,0,0,0-.562,3.466c.108.673.776.222.776.222l1.752-3Z" transform="translate(-76.269 -56.859)" fill="#263238"/>
    <path id="Trazado_639026" data-name="Trazado 639026" d="M407.048,263.164l4.942-21.537,8.424,3.564-11.093,18.868Z" transform="translate(-76.419 -48.309)" fill="#e0e0e0"/>
    <path id="Trazado_639027" data-name="Trazado 639027" d="M451.354,97.916s-37.09,101.39-37.391,102.7l8.424,3.564s24.528-59.335,24.945-60.378,15.09-41.926,15.09-41.926Z" transform="translate(-78.392 -7.301)" fill="#eb6f2d"/>
    <path id="Trazado_639028" data-name="Trazado 639028" d="M466.284,94.772l2.95-7.193,2.3-.68,7.1,2.286,1.146,2.22-2.419,7.33Z" transform="translate(-93.322 -4.157)" fill="#e0e0e0"/>
    <path id="Trazado_639029" data-name="Trazado 639029" d="M473.623,82.742l4.011-10.412a12.475,12.475,0,0,1,6.877,2.268l-3.792,10.43Z" transform="translate(-95.416)" fill="#e0e0e0"/>
    <g id="Grupo_929968" data-name="Grupo 929968" transform="translate(375.696 83.517)">
      <path id="Trazado_639030" data-name="Trazado 639030" d="M481.161,91.889a7.344,7.344,0,0,1-1.688-.349c-1.028-.27-2.437-.692-3.967-1.231s-2.893-1.1-3.863-1.531a7.35,7.35,0,0,1-1.533-.788,8.64,8.64,0,0,1,1.632.545c.993.372,2.363.885,3.887,1.423s2.912,1,3.918,1.331A8.572,8.572,0,0,1,481.161,91.889Z" transform="translate(-470.11 -87.984)" fill="#263238"/>
    </g>
    <path id="Trazado_639031" data-name="Trazado 639031" d="M476.417,103.461h0a4.007,4.007,0,0,1,2.447,5.086l-11.522,33.317a2.227,2.227,0,0,1-3.012,1.306h0a2.227,2.227,0,0,1-1.189-2.788Z" transform="translate(-92.388 -8.883)" fill="#e0e0e0"/>
    <g id="Grupo_929969" data-name="Grupo 929969" transform="translate(349.153 200.321)" opacity="0.2">
      <path id="Trazado_639032" data-name="Trazado 639032" d="M437.759,252.384a2.72,2.72,0,0,0-4.791,1.635c3.589,3.783,7.049,7.373,9.558,9.543a.873.873,0,0,0,.494.209l.441.041A22.177,22.177,0,0,0,437.759,252.384Z" transform="translate(-432.968 -251.425)" fill="#fff"/>
    </g>
    <g id="Grupo_929970" data-name="Grupo 929970" transform="translate(368.936 208.938)" opacity="0.2">
      <path id="Trazado_639033" data-name="Trazado 639033" d="M470.339,272.35a12.807,12.807,0,0,0-.387-4.885,5.8,5.8,0,0,0-3.09-3.645,4.564,4.564,0,0,0-4.247.427c-1.226.833-1.991,3.307-1.963,4.79a38.207,38.207,0,0,0,5.9,2.659A17.992,17.992,0,0,0,470.339,272.35Z" transform="translate(-460.651 -263.483)" fill="#fff"/>
    </g>
    <g id="Grupo_929971" data-name="Grupo 929971" transform="translate(382.961 201.003)" opacity="0.2">
      <path id="Trazado_639034" data-name="Trazado 639034" d="M489.628,260.886c1.582-.537,1.875-4.154.967-5.56a5.386,5.386,0,0,0-2.855-2.248,8.19,8.19,0,0,0-4.274-.605,4.2,4.2,0,0,0-3.19,1.923,13.475,13.475,0,0,1,3.229,6.046A13.751,13.751,0,0,0,489.628,260.886Z" transform="translate(-480.275 -252.38)" fill="#fff"/>
    </g>
    <path id="Trazado_639035" data-name="Trazado 639035" d="M582.7,222.792l-23.621-66.827,26.877-8.838s13.88,25.619,7.9,49.78C588.145,220,582.7,222.792,582.7,222.792Z" transform="translate(-119.801 -21.343)" fill="#c27460"/>
    <g id="Grupo_929978" data-name="Grupo 929978" transform="translate(335.761 142.258)">
      <path id="Trazado_639036" data-name="Trazado 639036" d="M484.424,170.179c-8.7,3.415-17.943,5.158-27.045,7.278s-19.868,4.8-26.229,9.55c-6.141,4.591-13.723,11.188-16.249,18.079a10.168,10.168,0,0,0,.736,8.833,6.4,6.4,0,0,0,4.547,3.109c5.382.857,10.927-1.208,15.035-3.332,3.98-2.058,18.191-9.074,18.191-9.074l11.843-.19,9.086,2.545" transform="translate(-414.229 -170.179)" fill="#c27460"/>
      <g id="Grupo_929972" data-name="Grupo 929972" transform="translate(60.602 29.651)">
        <path id="Trazado_639037" data-name="Trazado 639037" d="M512.415,211.671c.019.017-.114.191-.371.49a15.419,15.419,0,0,1-1.166,1.2,22.224,22.224,0,0,1-9.6,5.24,15.058,15.058,0,0,1-1.637.332,1.923,1.923,0,0,1-.612.047c-.011-.061.842-.23,2.179-.633a26.044,26.044,0,0,0,9.5-5.183C511.765,212.254,512.37,211.629,512.415,211.671Z" transform="translate(-499.029 -211.669)" fill="#7c4235"/>
      </g>
      <g id="Grupo_929973" data-name="Grupo 929973" transform="translate(51.02 27.746)">
        <path id="Trazado_639038" data-name="Trazado 639038" d="M489.564,209a13.7,13.7,0,0,1-3.938,6.508c-.083-.074,1.032-1.372,2.112-3.168S489.459,208.964,489.564,209Z" transform="translate(-485.621 -209.003)" fill="#7c4235"/>
      </g>
      <g id="Grupo_929974" data-name="Grupo 929974" transform="translate(35.217 29.838)">
        <path id="Trazado_639039" data-name="Trazado 639039" d="M463.512,211.934a24.809,24.809,0,0,1,3.96,4.6,24.868,24.868,0,0,1-3.96-4.6Z" transform="translate(-463.507 -211.93)" fill="#7c4235"/>
      </g>
      <g id="Grupo_929975" data-name="Grupo 929975" transform="translate(20.906 17.813)">
        <path id="Trazado_639040" data-name="Trazado 639040" d="M450.19,209.944a2.284,2.284,0,0,1-.542-.384,12.675,12.675,0,0,1-1.325-1.235,17.87,17.87,0,0,1-4.789-10.75,12.663,12.663,0,0,1-.032-1.811,2.283,2.283,0,0,1,.078-.66c.067,0,.036.945.216,2.445a19.682,19.682,0,0,0,4.722,10.6C449.512,209.285,450.234,209.892,450.19,209.944Z" transform="translate(-443.482 -195.104)" fill="#7c4235"/>
      </g>
      <g id="Grupo_929976" data-name="Grupo 929976" transform="translate(23.278 18.159)">
        <path id="Trazado_639041" data-name="Trazado 639041" d="M450.77,206.2c-.117.019-.462-2.523-1.569-5.458-1.088-2.943-2.5-5.088-2.395-5.151a6.049,6.049,0,0,1,.98,1.365,22.129,22.129,0,0,1,2.829,7.57A6.023,6.023,0,0,1,450.77,206.2Z" transform="translate(-446.801 -195.589)" fill="#7c4235"/>
      </g>
      <g id="Grupo_929977" data-name="Grupo 929977" transform="translate(1.222 29.062)" opacity="0.2">
        <path id="Trazado_639042" data-name="Trazado 639042" d="M420.691,226.011a17.887,17.887,0,0,0,5.069.47,5.044,5.044,0,0,0,4.276-2.855c.751-1.93-.205-4.065-1.142-5.913l-2.328-4.592c-.617-1.216-1.4-2.582-3.164-2.215a3.548,3.548,0,0,0-1.22.522,15.482,15.482,0,0,0-5.871,7.268,5.2,5.2,0,0,0,.688,5.1A6.241,6.241,0,0,0,420.691,226.011Z" transform="translate(-415.939 -210.845)" fill="#fff"/>
      </g>
    </g>
    <g id="Grupo_929979" data-name="Grupo 929979" transform="translate(335.579 142.258)">
      <path id="Trazado_639043" data-name="Trazado 639043" d="M474.267,206.978s-.209-.041-.608-.146l-1.766-.47-6.736-1.843.026,0-11.842.229.054-.014-10.177,5.1-5.723,2.865c-1.975.97-3.98,2.078-6.181,2.908a25.865,25.865,0,0,1-7.005,1.716,17.707,17.707,0,0,1-3.749-.064,6.584,6.584,0,0,1-3.567-1.421,7.989,7.989,0,0,1-2.273-3.19,9.915,9.915,0,0,1-.745-3.908,10.868,10.868,0,0,1,.776-3.961,22.6,22.6,0,0,1,1.836-3.641,50.135,50.135,0,0,1,10.518-11.252q1.442-1.191,2.9-2.3c.49-.367.966-.743,1.473-1.084l.748-.521.772-.473a41.547,41.547,0,0,1,6.34-3.069,103.1,103.1,0,0,1,12.423-3.812c3.949-.982,7.647-1.807,11.023-2.556,6.756-1.473,12.186-2.826,15.874-3.983,1.848-.564,3.265-1.059,4.225-1.4l1.088-.394c.247-.086.376-.122.376-.122a59.678,59.678,0,0,1-5.646,2.052c-3.68,1.2-9.11,2.6-15.86,4.1-3.372.765-7.064,1.605-11,2.6a103.9,103.9,0,0,0-12.373,3.832,41.279,41.279,0,0,0-6.281,3.054,56,56,0,0,0-5.849,4.358A49.92,49.92,0,0,0,416.9,201.343c-1.378,2.293-2.583,4.78-2.558,7.407a9.56,9.56,0,0,0,.714,3.766,7.64,7.64,0,0,0,2.163,3.048,6.216,6.216,0,0,0,3.382,1.346,17.322,17.322,0,0,0,3.673.068,25.58,25.58,0,0,0,6.913-1.682c2.18-.815,4.171-1.91,6.155-2.878l5.734-2.849,10.2-5.062.026-.013h.029l11.844-.151h.014l.012,0,6.713,1.925,1.754.515C474.067,206.9,474.267,206.978,474.267,206.978Z" transform="translate(-413.975 -170.179)" fill="#7c4235"/>
    </g>
    <g id="Grupo_929980" data-name="Grupo 929980" transform="translate(392.28 178.107)" opacity="0.4">
      <path id="Trazado_639044" data-name="Trazado 639044" d="M543.311,230.995a5.429,5.429,0,0,0-2.292.289,49.2,49.2,0,0,1-39.539-6.554c-2.876-1.926-4.171-3.309-6.4-3.908l-1.761-.48c6.581,6.634,13.664,11.769,22.49,14.839s18.885,3.26,27.312-.78c.811-.389,1.717-.991,1.711-1.891A1.73,1.73,0,0,0,543.311,230.995Z" transform="translate(-493.316 -220.342)" fill="#7c4235"/>
    </g>
    <g id="Grupo_929981" data-name="Grupo 929981" transform="translate(278.677 360.959)">
      <path id="Trazado_639045" data-name="Trazado 639045" d="M337.342,479.089l-2.99-1.563,1.467-1.322Z" transform="translate(-334.352 -476.203)" fill="#263238"/>
    </g>
    <g id="Grupo_929982" data-name="Grupo 929982" transform="translate(274.621 357.296)">
      <path id="Trazado_639046" data-name="Trazado 639046" d="M328.677,474.191l3.5-3.113,2.051,3.788-1.5,1.2Z" transform="translate(-328.677 -471.078)" fill="#fff"/>
    </g>
    <g id="Grupo_929983" data-name="Grupo 929983" transform="translate(198.679 238.437)">
      <path id="Trazado_639047" data-name="Trazado 639047" d="M239.467,320.809l19.959-6.654,11.116-9.395,2.406,3.808,9.326-2.137,26.393,6.859,4.257,7.527,22.53,6.164.1,31.595-4.09,57.809.6,9.189H224.273l-1.778-38.4-.082-23.887Z" transform="translate(-222.413 -304.76)" fill="#eb6f2d"/>
    </g>
    <g id="Grupo_929984" data-name="Grupo 929984" transform="translate(256.099 341.642)">
      <path id="Trazado_639048" data-name="Trazado 639048" d="M319.4,450.3l23.27-1.127s4.514,2.575,5.686,9.954,0,7.379,0,7.379l-11.719,3.956-24.861-.572-9.017-11.326,6.793-4.01Z" transform="translate(-302.759 -449.174)" fill="#c27460"/>
    </g>
    <g id="Grupo_929985" data-name="Grupo 929985" transform="translate(143.022 250.435)">
      <path id="Trazado_639049" data-name="Trazado 639049" d="M193.759,405.368s22.316-35.189,18.56-30.1c-.461.625,2.269-2.019,5.784-10.648,3.376-8.286,12.181-43.073,12.181-43.073l-20.11,5.335c-5.29,1.4-9.594,1.859-14.152,4.887-3.967,2.636-8.11,7.813-10.8,11.742-10.037,14.641-28.413,43.159-30.735,46.805-3.315,5.2-10.024,18.632-9.95,26.647.064,6.983,1.422,13.2,12.082,18.767,9.834,5.133,72.7,1.557,72.7,1.557l-.346-26.134Z" transform="translate(-144.533 -321.549)" fill="#eb6f2d"/>
    </g>
    <g id="Grupo_929986" data-name="Grupo 929986" transform="translate(295.867 260.657)">
      <path id="Trazado_639050" data-name="Trazado 639050" d="M436.553,402.744c-.923-2.3-36.071-41.162-53.718-59.148a74.041,74.041,0,0,0-8.576-7.743l-5.813,37.882s2,8.733,3.214,15.2c.262,1.4,18.516,13.814,18.516,13.814l3.911,2.506-35.682,9.431,1.49,22.669,63.881-1.681C432.071,432.5,445.279,424.491,436.553,402.744Z" transform="translate(-358.406 -335.853)" fill="#eb6f2d"/>
    </g>
    <g id="Grupo_929988" data-name="Grupo 929988" transform="translate(295.684 327.542)">
      <g id="Grupo_929987" data-name="Grupo 929987">
        <path id="Trazado_639051" data-name="Trazado 639051" d="M423.7,462.374s-.109.014-.323.026l-.949.042-3.661.128-13.547.411-45.4,1.251-.171,0-.011-.171c-.14-2.12-.288-4.374-.438-6.653-.362-5.532-.715-10.915-1.048-16.015l-.01-.151.149-.031c3.822-.79,7.477-1.777,10.978-2.725l10.014-2.776c6.339-1.758,11.99-3.248,16.745-4.275a86.953,86.953,0,0,1,11.267-1.832,30.334,30.334,0,0,1,3.059-.156l.791-.009c.178,0,.269.008.269.008s-.091.013-.269.024l-.79.04c-.7.031-1.725.05-3.049.214a91.713,91.713,0,0,0-11.229,1.93c-4.742,1.055-10.38,2.569-16.712,4.347l-10.008,2.8c-3.5.956-7.159,1.95-11,2.747l.139-.181c.337,5.1.692,10.483,1.057,16.015.149,2.28.3,4.533.437,6.654l-.181-.166,45.4-1.137,13.549-.3,3.663-.064.95-.009C423.594,462.366,423.7,462.374,423.7,462.374Z" transform="translate(-358.15 -429.444)" fill="#263238"/>
      </g>
    </g>
    <g id="Grupo_929989" data-name="Grupo 929989" transform="translate(270.76 348.055)">
      <path id="Trazado_639052" data-name="Trazado 639052" d="M329.873,462.282a2.061,2.061,0,0,0-.622-.766l-3.784-3.368-2.191,6.528a4.414,4.414,0,0,0,6.2-.84A1.7,1.7,0,0,0,329.873,462.282Z" transform="translate(-323.275 -458.148)" fill="#7c4235"/>
    </g>
    <g id="Grupo_930009" data-name="Grupo 930009" transform="translate(225.89 312.058)">
      <g id="Grupo_929990" data-name="Grupo 929990">
        <path id="Trazado_639053" data-name="Trazado 639053" d="M261.172,411.486l48.047,44.642,4.537,2.15,2.509,1.286-1.171-2.163-2.375-4.385-48.642-44.674a2.141,2.141,0,0,0-2.912.014h0A2.141,2.141,0,0,0,261.172,411.486Z" transform="translate(-260.488 -407.777)" fill="#455a64"/>
      </g>
      <g id="Grupo_929994" data-name="Grupo 929994" transform="translate(1.571 21.755)">
        <g id="Grupo_929991" data-name="Grupo 929991" transform="translate(0.006 0.132)">
          <path id="Trazado_639054" data-name="Trazado 639054" d="M262.7,445.322l3.767.67s19.517-7.2,22.306-7.567c2.155-.281,12.42,2.132,16.972,3.243a3.989,3.989,0,0,1,3.092,3.987c0,.029,0,.057,0,.086a4,4,0,0,1-2.514,3.4h0s3.835,1.19,2.1,5.242c-1.284,3-5.331,2.536-5.331,2.536l-6.752.129s1.722.518,4.318,1.126a12.589,12.589,0,0,1,3.53,1.155s4.075,3.918.139,5.553a8.337,8.337,0,0,1-4.119.727s1.176,4.209-1.975,4.936-23.974-.858-23.974-.858-1.1-.618-5.346-.982l-5.873-.408Z" transform="translate(-262.696 -438.402)" fill="#c27460"/>
        </g>
        <g id="Grupo_929993" data-name="Grupo 929993">
          <g id="Grupo_929992" data-name="Grupo 929992">
            <path id="Trazado_639055" data-name="Trazado 639055" d="M262.693,445.27s.01.145.018.415.016.678.029,1.192c.023,1.056.055,2.591.1,4.566.074,3.962.182,9.689.316,16.806l-.117-.124,5.391.364c.946.062,1.918.163,2.9.3a12.6,12.6,0,0,1,2.989.719l-.06-.019c4.352.314,9.08.622,14.1.848,2.509.1,5.1.208,7.733.161a15.184,15.184,0,0,0,1.96-.154,2.532,2.532,0,0,0,1.591-.935,3.256,3.256,0,0,0,.582-1.819,6.717,6.717,0,0,0-.2-1.985l-.062-.248.258.028a7.614,7.614,0,0,0,2.6-.244,6.123,6.123,0,0,0,2.414-1.088,2.008,2.008,0,0,0,.376-2.385,7.211,7.211,0,0,0-1.566-2.263l.024.019a15.221,15.221,0,0,0-3.244-1.074l-4.555-1.183-1.247-.324,1.294-.025,6.752-.127h.024a6.957,6.957,0,0,0,2.721-.309,3.968,3.968,0,0,0,2.121-1.555c.122-.184.211-.387.314-.582l.229-.633c.063-.213.1-.432.151-.647.027-.217.04-.437.049-.655a3.071,3.071,0,0,0-1.067-2.264,4.348,4.348,0,0,0-1.089-.69l-.147-.061-.074-.028-.035-.012c.011.283-.036-.392-.021-.326l.019-.008c.1-.046.2-.083.29-.136a3.928,3.928,0,0,0,1.971-2.365,3.662,3.662,0,0,0-.164-2.428,3.9,3.9,0,0,0-1.6-1.79,8.53,8.53,0,0,0-2.324-.743l-2.381-.566q-2.357-.552-4.617-1.043c-1.506-.326-2.979-.625-4.417-.883-.72-.129-1.431-.244-2.133-.339a10.725,10.725,0,0,0-2.062-.129,32.17,32.17,0,0,0-3.841,1.053c-1.232.389-2.415.784-3.551,1.168l-6.238,2.156-8.722,3.107-.014.005-.014,0-2.826-.534-.7-.136c-.154-.031-.235-.051-.235-.051a1.915,1.915,0,0,1,.219.03l.687.11,2.87.477-.027,0c1.992-.75,4.937-1.842,8.692-3.193,1.877-.676,3.959-1.414,6.229-2.194,1.135-.39,2.316-.791,3.549-1.186a31.783,31.783,0,0,1,3.887-1.08,10.821,10.821,0,0,1,2.129.122c.709.093,1.424.207,2.146.334,1.444.253,2.921.549,4.43.87s3.052.667,4.625,1.032l2.384.561,1.208.292a4.479,4.479,0,0,1,1.2.481,4.219,4.219,0,0,1,1.742,1.938,3.994,3.994,0,0,1,.183,2.649,4.255,4.255,0,0,1-2.137,2.576c-.1.057-.209.1-.314.148l-.02.009c-.01.073-.019-.6,0-.311l.044.015.083.031.161.067a4.7,4.7,0,0,1,1.178.744,3.661,3.661,0,0,1,.86,1.123,3.45,3.45,0,0,1,.326,1.391c-.009.237-.023.478-.052.714-.054.231-.094.467-.161.694l-.241.669a6.841,6.841,0,0,1-.343.637,4.319,4.319,0,0,1-2.3,1.7,7.267,7.267,0,0,1-2.873.327h.023l-6.751.131.048-.348,4.537,1.178a15.055,15.055,0,0,1,3.359,1.125l.011.006.014.014a7.553,7.553,0,0,1,1.649,2.388,2.888,2.888,0,0,1,.229,1.462,2.092,2.092,0,0,1-.694,1.313,6.409,6.409,0,0,1-2.568,1.17,7.9,7.9,0,0,1-2.746.249l.2-.22a7.033,7.033,0,0,1,.207,2.1,3.6,3.6,0,0,1-.653,2.006,2.877,2.877,0,0,1-1.8,1.064,15.294,15.294,0,0,1-2.02.158c-2.659.044-5.244-.064-7.757-.174-5.025-.235-9.754-.555-14.107-.883l-.021,0-.04-.016a12.705,12.705,0,0,0-2.887-.695q-1.464-.214-2.882-.312l-5.387-.386-.116-.009v-.114c-.074-7.153-.134-12.909-.176-16.892-.016-1.962-.028-3.488-.036-4.535,0-.5,0-.892,0-1.168S262.693,445.27,262.693,445.27Z" transform="translate(-262.687 -438.218)" fill="#7c4235"/>
          </g>
        </g>
      </g>
      <g id="Grupo_929996" data-name="Grupo 929996" transform="translate(34.193 31.618)">
        <g id="Grupo_929995" data-name="Grupo 929995">
          <path id="Trazado_639056" data-name="Trazado 639056" d="M319.012,453.032a80.691,80.691,0,0,1-10.678-.981,80.977,80.977,0,0,1,10.678.981Z" transform="translate(-308.334 -452.019)" fill="#7c4235"/>
        </g>
      </g>
      <g id="Grupo_929998" data-name="Grupo 929998" transform="translate(22.45 47.454)">
        <g id="Grupo_929997" data-name="Grupo 929997">
          <path id="Trazado_639057" data-name="Trazado 639057" d="M293.253,478.511c-.021.036-.305-.069-.638-.415a2.619,2.619,0,0,1-.125-3.451c.307-.369.582-.5.606-.46s-.174.235-.4.607a2.754,2.754,0,0,0,.114,3.144C293.063,478.29,293.286,478.466,293.253,478.511Z" transform="translate(-291.902 -474.179)" fill="#7c4235"/>
        </g>
      </g>
      <g id="Grupo_930000" data-name="Grupo 930000" transform="translate(21.542 40.089)">
        <g id="Grupo_929999" data-name="Grupo 929999">
          <path id="Trazado_639058" data-name="Trazado 639058" d="M292.579,468.505c-.007.039-.364.014-.83-.3a2.54,2.54,0,0,1-.42-3.853c.387-.407.731-.509.746-.472.031.049-.252.226-.552.634A2.512,2.512,0,0,0,291.9,468C292.284,468.339,292.6,468.451,292.579,468.505Z" transform="translate(-290.632 -463.872)" fill="#7c4235"/>
        </g>
      </g>
      <g id="Grupo_930002" data-name="Grupo 930002" transform="translate(22.141 31.082)">
        <g id="Grupo_930001" data-name="Grupo 930001">
          <path id="Trazado_639059" data-name="Trazado 639059" d="M292.7,456.683c-.024.032-.36-.165-.7-.679a3.206,3.206,0,0,1,.755-4.324c.495-.368.878-.44.89-.4.024.053-.312.206-.728.595a3.281,3.281,0,0,0-.7,4C292.472,456.384,292.737,456.642,292.7,456.683Z" transform="translate(-291.47 -451.269)" fill="#7c4235"/>
        </g>
      </g>
      <g id="Grupo_930004" data-name="Grupo 930004" transform="translate(25.393 23.329)">
        <g id="Grupo_930003" data-name="Grupo 930003">
          <path id="Trazado_639060" data-name="Trazado 639060" d="M296.474,443.032c-.033.027-.189-.084-.318-.358a1.759,1.759,0,0,1,.592-2.1c.253-.166.444-.179.458-.139.042.088-.574.411-.775,1.181A3.384,3.384,0,0,0,296.474,443.032Z" transform="translate(-296.021 -440.421)" fill="#7c4235"/>
        </g>
      </g>
      <g id="Grupo_930006" data-name="Grupo 930006" transform="translate(29.926 40.169)">
        <g id="Grupo_930005" data-name="Grupo 930005">
          <path id="Trazado_639061" data-name="Trazado 639061" d="M308.182,464.224a23.829,23.829,0,0,1-5.819-.107,23.831,23.831,0,0,1,5.819.107Z" transform="translate(-302.363 -463.985)" fill="#7c4235"/>
        </g>
      </g>
      <g id="Grupo_930008" data-name="Grupo 930008" transform="translate(28.443 46.855)">
        <g id="Grupo_930007" data-name="Grupo 930007">
          <path id="Trazado_639062" data-name="Trazado 639062" d="M310.748,475.583a80.278,80.278,0,0,1-10.46-2.23,80.275,80.275,0,0,1,10.46,2.23Z" transform="translate(-300.288 -473.34)" fill="#7c4235"/>
        </g>
      </g>
    </g>
    <g id="Grupo_930011" data-name="Grupo 930011" transform="translate(197.645 260.655)">
      <g id="Grupo_930010" data-name="Grupo 930010" transform="translate(0)">
        <path id="Trazado_639063" data-name="Trazado 639063" d="M236.19,372.957a2.255,2.255,0,0,1,.119-.445c.08-.29.247-.7.385-1.256a32.631,32.631,0,0,0,.967-4.724,40.661,40.661,0,0,0,.307-7.137,33.516,33.516,0,0,0-1.477-8.594,23.9,23.9,0,0,0-4.174-7.611,21.666,21.666,0,0,0-5.336-4.682,22.806,22.806,0,0,0-4.34-2.075c-.53-.213-.962-.314-1.244-.419a2.266,2.266,0,0,1-.432-.162,2.165,2.165,0,0,1,.451.093c.289.083.73.163,1.27.357a20.956,20.956,0,0,1,4.426,1.99,21.38,21.38,0,0,1,5.459,4.688,23.8,23.8,0,0,1,4.259,7.71,32.988,32.988,0,0,1,1.466,8.69,38.954,38.954,0,0,1-.385,7.187,28.9,28.9,0,0,1-1.083,4.73c-.159.55-.349.956-.45,1.24A2.208,2.208,0,0,1,236.19,372.957Z" transform="translate(-220.966 -335.85)" fill="#263238"/>
      </g>
    </g>
    <g id="Grupo_930013" data-name="Grupo 930013" transform="translate(308.672 291.219)">
      <g id="Grupo_930012" data-name="Grupo 930012">
        <path id="Trazado_639064" data-name="Trazado 639064" d="M379.372,378.618a2.09,2.09,0,0,1,.005.457c-.014.337-.032.77-.055,1.309-.066,1.18-.157,2.813-.269,4.812-.264,4.1-.624,9.692-1.022,15.87-.438,6.177-.835,11.767-1.126,15.866-.159,2-.289,3.627-.382,4.8-.05.537-.091.97-.121,1.3a2.158,2.158,0,0,1-.067.453,2.233,2.233,0,0,1,0-.459c.014-.336.033-.77.056-1.31.066-1.179.157-2.812.269-4.812.264-4.1.624-9.691,1.022-15.87.438-6.175.835-11.763,1.126-15.861.159-2,.289-3.628.382-4.805.05-.538.09-.971.122-1.306A2.285,2.285,0,0,1,379.372,378.618Z" transform="translate(-376.324 -378.618)" fill="#263238"/>
      </g>
    </g>
    <g id="Grupo_930015" data-name="Grupo 930015" transform="translate(236.035 248.374)">
      <g id="Grupo_930014" data-name="Grupo 930014" transform="translate(0)">
        <path id="Trazado_639065" data-name="Trazado 639065" d="M308.691,354.369a1.5,1.5,0,0,1-.234-.194l-.65-.6-2.431-2.308-3.737-3.633c-1.428-1.421-3.058-3-4.737-4.84l.262-.066c-.791,3.434-1.684,7.3-2.637,11.437l-.1.432-.223-.384c-.995-1.714-2.023-3.5-3.052-5.345-4.638-8.3-8.632-15.915-11.624-21.373l-3.555-6.457L275,319.289l-.246-.46a.73.73,0,0,1-.073-.163.637.637,0,0,1,.105.144l.275.443,1.031,1.72c.88,1.5,2.138,3.685,3.655,6.4,3.049,5.429,7.079,13.03,11.714,21.321,1.028,1.838,2.053,3.628,3.044,5.342l-.322.049,2.683-11.427.066-.284.2.217c1.652,1.834,3.274,3.432,4.684,4.865l3.685,3.683,2.372,2.368.618.63A1.469,1.469,0,0,1,308.691,354.369Z" transform="translate(-274.684 -318.666)" fill="#263238"/>
      </g>
    </g>
    <g id="Grupo_930017" data-name="Grupo 930017" transform="translate(271.398 256.484)">
      <g id="Grupo_930016" data-name="Grupo 930016">
        <path id="Trazado_639066" data-name="Trazado 639066" d="M324.169,356.715a6.828,6.828,0,0,1,.543-.758l1.544-2.106c1.311-1.82,3.147-4.422,5.279-7.528l.117-.171.137.156a18.227,18.227,0,0,0,3.193,2.841c1.222.871,2.574,1.684,3.906,2.611l-.275.105.06-.249c1.43-5.913,2.7-11.268,3.279-15.208.305-1.966.487-3.567.6-4.675.051-.525.092-.948.124-1.276a2.14,2.14,0,0,1,.065-.445,2.121,2.121,0,0,1,.006.449c-.011.294-.019.727-.057,1.284-.066,1.113-.211,2.724-.485,4.7-.516,3.963-1.752,9.345-3.182,15.254-.021.086-.041.171-.06.249l-.06.254-.214-.149c-1.321-.92-2.668-1.734-3.9-2.621a18.318,18.318,0,0,1-3.234-2.911l.254-.014c-2.158,3.092-4.031,5.671-5.389,7.46-.68.893-1.231,1.589-1.619,2.055-.192.234-.349.407-.454.525S324.176,356.721,324.169,356.715Z" transform="translate(-324.168 -330.013)" fill="#263238"/>
      </g>
    </g>
    <g id="Grupo_930019" data-name="Grupo 930019" transform="translate(269.28 284.078)">
      <g id="Grupo_930018" data-name="Grupo 930018">
        <path id="Trazado_639067" data-name="Trazado 639067" d="M321.223,420.307a2.987,2.987,0,0,1-.019-.526c0-.379.01-.88.017-1.507.027-1.346.066-3.228.114-5.538.088-4.709.208-11.151.341-18.269.072-7.121.137-13.564.184-18.274.019-2.31.034-4.193.046-5.539.011-.627.02-1.128.026-1.506a3.006,3.006,0,0,1,.034-.525,2.785,2.785,0,0,1,.039.525c.01.378.024.879.04,1.506.016,1.346.039,3.229.068,5.539.032,4.677.021,11.14-.08,18.279s-.279,13.6-.446,18.271c-.094,2.309-.172,4.19-.227,5.535-.035.626-.063,1.126-.084,1.5A2.9,2.9,0,0,1,321.223,420.307Z" transform="translate(-321.204 -368.625)" fill="#263238"/>
      </g>
    </g>
    <g id="Grupo_930021" data-name="Grupo 930021" transform="translate(191.015 333.941)">
      <g id="Grupo_930020" data-name="Grupo 930020">
        <path id="Trazado_639068" data-name="Trazado 639068" d="M248.476,470.634a3.041,3.041,0,0,1-.039-.514q-.018-.549-.05-1.48c-.03-1.321-.072-3.187-.125-5.5-.078-4.706-.185-11.228-.307-18.637l.153.171-5.331-.889-22-3.733-6.658-1.171-1.807-.337-.469-.1a.532.532,0,0,1-.157-.045.582.582,0,0,1,.164.009l.474.061,1.818.27,6.676,1.06,22,3.629,5.328.894.152.026v.146c.074,7.411.139,13.933.187,18.639.009,2.315.015,4.181.02,5.5,0,.622-.008,1.115-.011,1.481A3.168,3.168,0,0,1,248.476,470.634Z" transform="translate(-211.689 -438.398)" fill="#263238"/>
      </g>
    </g>
    <g id="Grupo_930023" data-name="Grupo 930023" transform="translate(174.608 334.24)">
      <g id="Grupo_930022" data-name="Grupo 930022" transform="translate(0)">
        <path id="Trazado_639069" data-name="Trazado 639069" d="M206.37,438.83c.006.07-1.2.151-3.075.6a24,24,0,0,0-3.227,1.02,23.944,23.944,0,0,0-7.033,4.309,24.143,24.143,0,0,0-2.374,2.412c-1.251,1.471-1.87,2.506-1.929,2.468a3.81,3.81,0,0,1,.4-.744,8.982,8.982,0,0,1,.543-.83c.227-.314.47-.684.789-1.054a21.522,21.522,0,0,1,2.35-2.5,22.541,22.541,0,0,1,7.132-4.369,21.567,21.567,0,0,1,3.29-.96c.475-.116.915-.164,1.3-.224a8.946,8.946,0,0,1,.988-.107A3.859,3.859,0,0,1,206.37,438.83Z" transform="translate(-188.73 -438.816)" fill="#263238"/>
      </g>
    </g>
    <g id="Grupo_930025" data-name="Grupo 930025" transform="translate(192.247 304.155)">
      <g id="Grupo_930024" data-name="Grupo 930024">
        <path id="Trazado_639070" data-name="Trazado 639070" d="M231.974,396.719a1.346,1.346,0,0,1-.157.324l-.512.894-1.94,3.255c-1.652,2.741-3.956,6.513-6.518,10.669s-4.9,7.909-6.608,10.615l-2.037,3.2-.569.859a1.41,1.41,0,0,1-.219.287,1.383,1.383,0,0,1,.158-.325l.512-.894c.485-.814,1.141-1.915,1.941-3.255,1.652-2.741,3.955-6.513,6.518-10.669s4.9-7.906,6.606-10.613l2.037-3.2.57-.859A1.436,1.436,0,0,1,231.974,396.719Z" transform="translate(-213.412 -396.719)" fill="#263238"/>
      </g>
    </g>
    <g id="Grupo_930027" data-name="Grupo 930027" transform="translate(198.894 303.957)" opacity="0.3">
      <g id="Grupo_930026" data-name="Grupo 930026">
        <path id="Trazado_639071" data-name="Trazado 639071" d="M223.08,424.116a34.4,34.4,0,0,0,11.406-27.674L222.713,416.2Z" transform="translate(-222.713 -396.442)"/>
      </g>
    </g>
    <g id="Grupo_930028" data-name="Grupo 930028" transform="translate(240.624 256.484)" opacity="0.3">
      <path id="Trazado_639072" data-name="Trazado 639072" d="M281.106,330.013l14.311,32.381,5.147-9.655,7.851,2.822-9.566-9.626-2.66,11.432Z" transform="translate(-281.106 -330.013)"/>
    </g>
    <g id="Grupo_930030" data-name="Grupo 930030" transform="translate(331.02 324.908)" opacity="0.3">
      <g id="Grupo_930029" data-name="Grupo 930029">
        <path id="Trazado_639073" data-name="Trazado 639073" d="M407.6,430.948c6.108-3.224,11.855-5.716,18.734-5.094a9.907,9.907,0,0,1,2.768.553,2.708,2.708,0,0,1,1.108,1.992,75.111,75.111,0,0,0-22,2.451" transform="translate(-407.596 -425.758)"/>
      </g>
    </g>
    <g id="Grupo_930032" data-name="Grupo 930032" transform="translate(310.201 287.181)" opacity="0.3">
      <g id="Grupo_930031" data-name="Grupo 930031">
        <path id="Trazado_639074" data-name="Trazado 639074" d="M380.291,372.968c-.032.526-1.794,27.207-1.827,27.733C382.98,391.9,384.444,381.947,380.291,372.968Z" transform="translate(-378.464 -372.968)"/>
      </g>
    </g>
    <g id="Grupo_930184" data-name="Grupo 930184" transform="translate(236.441 152.428)">
      <g id="Grupo_930038" data-name="Grupo 930038" transform="translate(34.536)">
        <g id="Grupo_930037" data-name="Grupo 930037">
          <g id="Grupo_930036" data-name="Grupo 930036">
            <g id="Grupo_930035" data-name="Grupo 930035">
              <g id="Grupo_930034" data-name="Grupo 930034">
                <g id="Grupo_930033" data-name="Grupo 930033">
                  <path id="Trazado_639075" data-name="Trazado 639075" d="M324.939,188.321a7.612,7.612,0,0,1,8.392-2.654,10.4,10.4,0,0,1,12.633,2.143,9.253,9.253,0,0,1,12.684,9.556,7.732,7.732,0,0,1,4.745,13.889,7.433,7.433,0,0,1-5.242,13.83L325.02,197.122A7.61,7.61,0,0,1,324.939,188.321Z" transform="translate(-323.578 -184.41)" fill="#263238"/>
                </g>
              </g>
            </g>
          </g>
        </g>
      </g>
      <g id="Grupo_930166" data-name="Grupo 930166" transform="translate(0 2.908)">
        <g id="Grupo_930158" data-name="Grupo 930158" transform="translate(0 3.205)">
          <path id="Trazado_639076" data-name="Trazado 639076" d="M321,196.185l-1.616-.242c-17.565-1.6-28.735,12.429-29.847,30.032l-5.494,51.854,28.25,37.666,9.1-13.393,2.824-15.624s17.131-.089,19.85-16.794c1.314-8.068,2.666-24.9,3.713-40.153A31.533,31.533,0,0,0,321,196.185Z" transform="translate(-277.763 -193.779)" fill="#c27460"/>
          <g id="Grupo_930048" data-name="Grupo 930048" transform="translate(25.634 82.984)">
            <g id="Grupo_930047" data-name="Grupo 930047">
              <g id="Grupo_930046" data-name="Grupo 930046">
                <g id="Grupo_930045" data-name="Grupo 930045">
                  <g id="Grupo_930044" data-name="Grupo 930044">
                    <g id="Grupo_930043" data-name="Grupo 930043">
                      <g id="Grupo_930042" data-name="Grupo 930042">
                        <g id="Grupo_930041" data-name="Grupo 930041">
                          <g id="Grupo_930040" data-name="Grupo 930040">
                            <g id="Grupo_930039" data-name="Grupo 930039">
                              <path id="Trazado_639077" data-name="Trazado 639077" d="M331.922,318.819a41,41,0,0,1-20.8-9.736s3.314,12.847,20.074,13.87Z" transform="translate(-311.122 -309.083)" fill="#7c4235"/>
                            </g>
                          </g>
                        </g>
                      </g>
                    </g>
                  </g>
                </g>
              </g>
            </g>
          </g>
          <g id="Grupo_930061" data-name="Grupo 930061" transform="translate(56.925 50.094)">
            <g id="Grupo_930060" data-name="Grupo 930060">
              <g id="Grupo_930059" data-name="Grupo 930059">
                <g id="Grupo_930058" data-name="Grupo 930058">
                  <g id="Grupo_930057" data-name="Grupo 930057">
                    <g id="Grupo_930056" data-name="Grupo 930056">
                      <g id="Grupo_930055" data-name="Grupo 930055">
                        <g id="Grupo_930054" data-name="Grupo 930054">
                          <g id="Grupo_930053" data-name="Grupo 930053">
                            <g id="Grupo_930052" data-name="Grupo 930052">
                              <g id="Grupo_930051" data-name="Grupo 930051">
                                <g id="Grupo_930050" data-name="Grupo 930050">
                                  <g id="Grupo_930049" data-name="Grupo 930049">
                                    <path id="Trazado_639078" data-name="Trazado 639078" d="M359.729,265.6a2.417,2.417,0,0,1-2.666,2.065,2.311,2.311,0,0,1-2.14-2.525,2.418,2.418,0,0,1,2.664-2.068A2.314,2.314,0,0,1,359.729,265.6Z" transform="translate(-354.908 -263.06)" fill="#263238"/>
                                  </g>
                                </g>
                              </g>
                            </g>
                          </g>
                        </g>
                      </g>
                    </g>
                  </g>
                </g>
              </g>
            </g>
          </g>
          <g id="Grupo_930075" data-name="Grupo 930075" transform="translate(55.827 40.991)">
            <g id="Grupo_930074" data-name="Grupo 930074">
              <g id="Grupo_930073" data-name="Grupo 930073">
                <g id="Grupo_930072" data-name="Grupo 930072">
                  <g id="Grupo_930071" data-name="Grupo 930071">
                    <g id="Grupo_930070" data-name="Grupo 930070">
                      <g id="Grupo_930069" data-name="Grupo 930069">
                        <g id="Grupo_930068" data-name="Grupo 930068">
                          <g id="Grupo_930067" data-name="Grupo 930067">
                            <g id="Grupo_930066" data-name="Grupo 930066">
                              <g id="Grupo_930065" data-name="Grupo 930065">
                                <g id="Grupo_930064" data-name="Grupo 930064">
                                  <g id="Grupo_930063" data-name="Grupo 930063">
                                    <g id="Grupo_930062" data-name="Grupo 930062">
                                      <path id="Trazado_639079" data-name="Trazado 639079" d="M362.8,253.61c-.343.267-1.952-1.345-4.526-1.724-2.564-.416-4.651.624-4.882.267-.117-.161.27-.678,1.181-1.153a6.626,6.626,0,0,1,3.967-.6,6.371,6.371,0,0,1,3.543,1.761C362.783,252.888,362.966,253.492,362.8,253.61Z" transform="translate(-353.371 -250.322)" fill="#263238"/>
                                    </g>
                                  </g>
                                </g>
                              </g>
                            </g>
                          </g>
                        </g>
                      </g>
                    </g>
                  </g>
                </g>
              </g>
            </g>
          </g>
          <g id="Grupo_930088" data-name="Grupo 930088" transform="translate(35.138 47.222)">
            <g id="Grupo_930087" data-name="Grupo 930087">
              <g id="Grupo_930086" data-name="Grupo 930086">
                <g id="Grupo_930085" data-name="Grupo 930085">
                  <g id="Grupo_930084" data-name="Grupo 930084">
                    <g id="Grupo_930083" data-name="Grupo 930083">
                      <g id="Grupo_930082" data-name="Grupo 930082">
                        <g id="Grupo_930081" data-name="Grupo 930081">
                          <g id="Grupo_930080" data-name="Grupo 930080">
                            <g id="Grupo_930079" data-name="Grupo 930079">
                              <g id="Grupo_930078" data-name="Grupo 930078">
                                <g id="Grupo_930077" data-name="Grupo 930077">
                                  <g id="Grupo_930076" data-name="Grupo 930076">
                                    <path id="Trazado_639080" data-name="Trazado 639080" d="M329.243,261.579a2.416,2.416,0,0,1-2.666,2.065,2.31,2.31,0,0,1-2.14-2.525,2.419,2.419,0,0,1,2.665-2.067A2.313,2.313,0,0,1,329.243,261.579Z" transform="translate(-324.422 -259.041)" fill="#263238"/>
                                  </g>
                                </g>
                              </g>
                            </g>
                          </g>
                        </g>
                      </g>
                    </g>
                  </g>
                </g>
              </g>
            </g>
          </g>
          <g id="Grupo_930102" data-name="Grupo 930102" transform="translate(31.274 36.939)">
            <g id="Grupo_930101" data-name="Grupo 930101">
              <g id="Grupo_930100" data-name="Grupo 930100">
                <g id="Grupo_930099" data-name="Grupo 930099">
                  <g id="Grupo_930098" data-name="Grupo 930098">
                    <g id="Grupo_930097" data-name="Grupo 930097">
                      <g id="Grupo_930096" data-name="Grupo 930096">
                        <g id="Grupo_930095" data-name="Grupo 930095">
                          <g id="Grupo_930094" data-name="Grupo 930094">
                            <g id="Grupo_930093" data-name="Grupo 930093">
                              <g id="Grupo_930092" data-name="Grupo 930092">
                                <g id="Grupo_930091" data-name="Grupo 930091">
                                  <g id="Grupo_930090" data-name="Grupo 930090">
                                    <g id="Grupo_930089" data-name="Grupo 930089">
                                      <path id="Trazado_639081" data-name="Trazado 639081" d="M328.443,247.939c-.344.267-1.955-1.345-4.527-1.724-2.564-.416-4.651.624-4.883.267-.116-.16.267-.677,1.182-1.152a6.63,6.63,0,0,1,3.966-.6,6.376,6.376,0,0,1,3.545,1.762C328.424,247.218,328.609,247.821,328.443,247.939Z" transform="translate(-319.014 -244.652)" fill="#263238"/>
                                    </g>
                                  </g>
                                </g>
                              </g>
                            </g>
                          </g>
                        </g>
                      </g>
                    </g>
                  </g>
                </g>
              </g>
            </g>
          </g>
          <g id="Grupo_930115" data-name="Grupo 930115" transform="translate(46.312 38.953)">
            <g id="Grupo_930114" data-name="Grupo 930114">
              <g id="Grupo_930113" data-name="Grupo 930113">
                <g id="Grupo_930112" data-name="Grupo 930112">
                  <g id="Grupo_930111" data-name="Grupo 930111">
                    <g id="Grupo_930110" data-name="Grupo 930110">
                      <g id="Grupo_930109" data-name="Grupo 930109">
                        <g id="Grupo_930108" data-name="Grupo 930108">
                          <g id="Grupo_930107" data-name="Grupo 930107">
                            <g id="Grupo_930106" data-name="Grupo 930106">
                              <g id="Grupo_930105" data-name="Grupo 930105">
                                <g id="Grupo_930104" data-name="Grupo 930104">
                                  <g id="Grupo_930103" data-name="Grupo 930103">
                                    <path id="Trazado_639082" data-name="Trazado 639082" d="M340.057,269.078c.01-.149,1.65-.185,4.29-.127.667.031,1.308-.006,1.487-.438a3.382,3.382,0,0,0-.147-2.012q-.568-2.522-1.191-5.293c-1.628-7.525-2.7-13.673-2.4-13.736s1.87,5.986,3.5,13.511q.579,2.78,1.106,5.311a3.848,3.848,0,0,1-.046,2.628,1.664,1.664,0,0,1-1.224.8,4.481,4.481,0,0,1-1.138-.012C341.664,269.456,340.045,269.224,340.057,269.078Z" transform="translate(-340.057 -247.47)" fill="#263238"/>
                                  </g>
                                </g>
                              </g>
                            </g>
                          </g>
                        </g>
                      </g>
                    </g>
                  </g>
                </g>
              </g>
            </g>
          </g>
          <g id="Grupo_930124" data-name="Grupo 930124" transform="translate(31.402 29.528)">
            <g id="Grupo_930123" data-name="Grupo 930123">
              <g id="Grupo_930122" data-name="Grupo 930122">
                <g id="Grupo_930121" data-name="Grupo 930121">
                  <g id="Grupo_930120" data-name="Grupo 930120">
                    <g id="Grupo_930119" data-name="Grupo 930119">
                      <g id="Grupo_930118" data-name="Grupo 930118">
                        <g id="Grupo_930117" data-name="Grupo 930117">
                          <g id="Grupo_930116" data-name="Grupo 930116">
                            <path id="Trazado_639083" data-name="Trazado 639083" d="M329.63,237.639c-.406.621-2.531-.31-5.23-.67-2.689-.421-5.023-.136-5.2-.843-.073-.335.469-.876,1.5-1.3a8.12,8.12,0,0,1,4.151-.453,7.811,7.811,0,0,1,3.8,1.606C329.48,236.673,329.813,237.341,329.63,237.639Z" transform="translate(-319.193 -234.282)" fill="#263238"/>
                          </g>
                        </g>
                      </g>
                    </g>
                  </g>
                </g>
              </g>
            </g>
          </g>
          <g id="Grupo_930133" data-name="Grupo 930133" transform="translate(56.925 34.132)">
            <g id="Grupo_930132" data-name="Grupo 930132">
              <g id="Grupo_930131" data-name="Grupo 930131">
                <g id="Grupo_930130" data-name="Grupo 930130">
                  <g id="Grupo_930129" data-name="Grupo 930129">
                    <g id="Grupo_930128" data-name="Grupo 930128">
                      <g id="Grupo_930127" data-name="Grupo 930127">
                        <g id="Grupo_930126" data-name="Grupo 930126">
                          <g id="Grupo_930125" data-name="Grupo 930125">
                            <path id="Trazado_639084" data-name="Trazado 639084" d="M363.713,243.73c-.5.559-2.243-.173-4.391-.346-2.141-.248-4,.13-4.374-.515-.164-.312.162-.883,1-1.388a6.377,6.377,0,0,1,7.062.694C363.725,242.832,363.934,243.456,363.713,243.73Z" transform="translate(-354.908 -240.724)" fill="#263238"/>
                          </g>
                        </g>
                      </g>
                    </g>
                  </g>
                </g>
              </g>
            </g>
          </g>
          <g id="Grupo_930141" data-name="Grupo 930141" transform="translate(7.15)">
            <g id="Grupo_930140" data-name="Grupo 930140">
              <g id="Grupo_930139" data-name="Grupo 930139">
                <g id="Grupo_930138" data-name="Grupo 930138">
                  <g id="Grupo_930137" data-name="Grupo 930137">
                    <g id="Grupo_930136" data-name="Grupo 930136">
                      <g id="Grupo_930135" data-name="Grupo 930135">
                        <g id="Grupo_930134" data-name="Grupo 930134">
                          <path id="Trazado_639085" data-name="Trazado 639085" d="M347.674,220.8s-2.841-11.144-7.527-14.349c-5.674-3.88-9.317,2.441-14.9-.065s-11-6.223-17.637-2.611c-7.263,3.954-4.727,7.874-6.245,15.24-6.155,29.863-12.931,37.551-12.366,23.135.062-1.579-4.064-3.462-3.718-10.123.45-8.637,1.674-19.021,4.48-24.777,2.366-4.851,5.8-7.933,11.585-11.029,9.137-4.888,20.444-3.325,27.994-1.4S350.342,207.78,347.674,220.8Z" transform="translate(-285.258 -192.964)" fill="#263238"/>
                        </g>
                      </g>
                    </g>
                  </g>
                </g>
              </g>
            </g>
          </g>
          <g id="Grupo_930149" data-name="Grupo 930149" transform="translate(0 43.76)">
            <g id="Grupo_930148" data-name="Grupo 930148">
              <g id="Grupo_930147" data-name="Grupo 930147">
                <g id="Grupo_930146" data-name="Grupo 930146">
                  <g id="Grupo_930145" data-name="Grupo 930145">
                    <g id="Grupo_930144" data-name="Grupo 930144">
                      <g id="Grupo_930143" data-name="Grupo 930143">
                        <g id="Grupo_930142" data-name="Grupo 930142">
                          <path id="Trazado_639086" data-name="Trazado 639086" d="M287.276,259.326a4.593,4.593,0,0,0-4.248-5.114c-3.166-.172-6.9,1.079-7.668,7.56-1.353,11.5,10.469,10.483,10.528,10.156C285.929,271.706,286.753,264.143,287.276,259.326Z" transform="translate(-275.253 -254.197)" fill="#c27460"/>
                        </g>
                      </g>
                    </g>
                  </g>
                </g>
              </g>
            </g>
          </g>
          <g id="Grupo_930157" data-name="Grupo 930157" transform="translate(3.968 47.508)">
            <g id="Grupo_930156" data-name="Grupo 930156">
              <g id="Grupo_930155" data-name="Grupo 930155">
                <g id="Grupo_930154" data-name="Grupo 930154">
                  <g id="Grupo_930153" data-name="Grupo 930153">
                    <g id="Grupo_930152" data-name="Grupo 930152">
                      <g id="Grupo_930151" data-name="Grupo 930151">
                        <g id="Grupo_930150" data-name="Grupo 930150">
                          <path id="Trazado_639087" data-name="Trazado 639087" d="M285.48,268.8c-.046-.042-.217.117-.574.232a2.016,2.016,0,0,1-1.5-.145c-1.162-.589-1.957-2.637-1.769-4.717a6.651,6.651,0,0,1,.9-2.8,2.326,2.326,0,0,1,1.687-1.36,1.026,1.026,0,0,1,1.118.687c.117.339.016.56.075.587.029.033.269-.164.233-.65a1.293,1.293,0,0,0-.368-.773,1.522,1.522,0,0,0-1.073-.423,2.836,2.836,0,0,0-2.3,1.536,6.851,6.851,0,0,0-1.071,3.122c-.2,2.326.732,4.633,2.338,5.309a2.161,2.161,0,0,0,1.867-.089C285.428,269.08,285.518,268.83,285.48,268.8Z" transform="translate(-280.806 -259.441)" fill="#7c4235"/>
                        </g>
                      </g>
                    </g>
                  </g>
                </g>
              </g>
            </g>
          </g>
        </g>
        <g id="Grupo_930165" data-name="Grupo 930165" transform="translate(5.77)">
          <g id="Grupo_930164" data-name="Grupo 930164">
            <g id="Grupo_930163" data-name="Grupo 930163">
              <g id="Grupo_930162" data-name="Grupo 930162">
                <g id="Grupo_930161" data-name="Grupo 930161">
                  <g id="Grupo_930160" data-name="Grupo 930160">
                    <g id="Grupo_930159" data-name="Grupo 930159">
                      <path id="Trazado_639088" data-name="Trazado 639088" d="M293.133,218.438a10.979,10.979,0,0,0,4.511,2.965c1.764.447,3.966-.275,4.534-2,.255-.776.2-1.729.815-2.266.735-.641,1.853-.238,2.8.008a7.386,7.386,0,0,0,8.367-4.1c.657,1.4,2.646,1.64,4.054,1.006a16.624,16.624,0,0,0,3.617-2.866c1.177-1,2.742-1.817,4.222-1.375a11.431,11.431,0,0,0,2.406.922c1.524.092,2.521-1.557,2.972-3.014s.89-3.171,2.284-3.791c1.292-.575,2.755.089,4.108.5s3.187.355,3.745-.944a2.746,2.746,0,0,0-.2-2.153,7.494,7.494,0,0,0-8.326-4.119,10.157,10.157,0,0,0-18.163-4.717,10.308,10.308,0,0,0-16.853,1.27,7.471,7.471,0,0,0-9.944,9.5c-2.233.866-4.3,2.646-4.7,5.008s1.555,5.068,3.933,4.788a4.138,4.138,0,0,0,6.465,5.144" transform="translate(-283.327 -188.48)" fill="#263238"/>
                    </g>
                  </g>
                </g>
              </g>
            </g>
          </g>
        </g>
      </g>
      <g id="Grupo_930167" data-name="Grupo 930167" transform="translate(37.19 69.544)">
        <path id="Trazado_639089" data-name="Trazado 639089" d="M329.435,281.991a1,1,0,0,0-.735-.258.919.919,0,0,0-.527.46,5.828,5.828,0,0,0-.3,5.615c.009.017.017.035.026.052a3.869,3.869,0,0,0,6.586.274l1.221-1.763C334.27,285.37,330.871,282.992,329.435,281.991Z" transform="translate(-327.292 -281.721)" fill="#7c4235"/>
      </g>
      <g id="Grupo_930169" data-name="Grupo 930169" transform="translate(36.929 69.156)">
        <g id="Grupo_930168" data-name="Grupo 930168">
          <path id="Trazado_639090" data-name="Trazado 639090" d="M333.6,288.816c.089.046-.955,1.043-3.07.938a3.28,3.28,0,0,1-1.627-.561,3.765,3.765,0,0,1-1.39-1.419,6.946,6.946,0,0,1-.423-4.36,7.922,7.922,0,0,1,.287-1.134,1.66,1.66,0,0,1,.874-1.031,1.381,1.381,0,0,1,1.3.29l.8.6,2.741,2.084a13.293,13.293,0,0,1,2.412,2.078,13.244,13.244,0,0,1-2.727-1.642l-2.837-1.952c-.513-.331-1.165-.933-1.431-.759-.355.129-.558.923-.683,1.611a6.566,6.566,0,0,0,.3,3.9,3.209,3.209,0,0,0,1.116,1.216,2.776,2.776,0,0,0,1.339.552A6.832,6.832,0,0,0,333.6,288.816Z" transform="translate(-326.927 -281.179)" fill="#263238"/>
        </g>
      </g>
      <g id="Grupo_930176" data-name="Grupo 930176" transform="translate(8.821 27.332)">
        <g id="Grupo_930175" data-name="Grupo 930175">
          <g id="Grupo_930174" data-name="Grupo 930174">
            <g id="Grupo_930173" data-name="Grupo 930173">
              <g id="Grupo_930172" data-name="Grupo 930172">
                <g id="Grupo_930171" data-name="Grupo 930171">
                  <g id="Grupo_930170" data-name="Grupo 930170">
                    <path id="Trazado_639091" data-name="Trazado 639091" d="M287.7,222.657a2.77,2.77,0,0,0,.382,2.306,3.716,3.716,0,0,0,2.088,1.712,4,4,0,0,0,3.4-.458l-.473-.145a11.554,11.554,0,0,0,1.856,3.2,6.643,6.643,0,0,0,1.89,1.609,5.136,5.136,0,0,0,5.858-.838,6.707,6.707,0,0,0,1.283-2.242,2.287,2.287,0,0,0,.227-.911c-.048-.019-.192.282-.465.808a7.8,7.8,0,0,1-1.384,2.017c-1.331,1.478-4.99,1.786-6.9-.871a11.637,11.637,0,0,1-1.776-3l-.152-.367-.322.222a3.514,3.514,0,0,1-2.891.465,3.41,3.41,0,0,1-1.907-1.4A5.618,5.618,0,0,1,287.7,222.657Z" transform="translate(-287.596 -222.656)" fill="#455a64"/>
                  </g>
                </g>
              </g>
            </g>
          </g>
        </g>
      </g>
      <g id="Grupo_930183" data-name="Grupo 930183" transform="translate(34.464 1.985)">
        <g id="Grupo_930182" data-name="Grupo 930182">
          <g id="Grupo_930181" data-name="Grupo 930181">
            <g id="Grupo_930180" data-name="Grupo 930180">
              <g id="Grupo_930179" data-name="Grupo 930179">
                <g id="Grupo_930178" data-name="Grupo 930178">
                  <g id="Grupo_930177" data-name="Grupo 930177">
                    <path id="Trazado_639092" data-name="Trazado 639092" d="M323.479,189.648c-.012.039.287.124.765.418a3.973,3.973,0,0,1,1.55,1.778l.1.238.19-.188a14.4,14.4,0,0,1,6.205-3.649,11.238,11.238,0,0,1,4.653-.312,9.4,9.4,0,0,1,4.638,2.112,9.555,9.555,0,0,1,2.475,3.168,7.836,7.836,0,0,1,.74,3.639l-.018.367.361-.043a6.491,6.491,0,0,1,4.669,1.293,6.337,6.337,0,0,1,2.183,3.178,8.671,8.671,0,0,1,.2,3.5,2.357,2.357,0,0,0,.279-.915,6.424,6.424,0,0,0-.124-2.683,6.579,6.579,0,0,0-2.223-3.482,6.953,6.953,0,0,0-5.06-1.5l.343.324a8.36,8.36,0,0,0-.763-3.953,10.054,10.054,0,0,0-2.639-3.4,9.912,9.912,0,0,0-4.971-2.239,11.617,11.617,0,0,0-4.908.389,14.074,14.074,0,0,0-6.305,3.959l.294.05a3.929,3.929,0,0,0-1.786-1.8A1.739,1.739,0,0,0,323.479,189.648Z" transform="translate(-323.479 -187.188)" fill="#455a64"/>
                  </g>
                </g>
              </g>
            </g>
          </g>
        </g>
      </g>
    </g>
  </g>
</svg>
