<svg xmlns="http://www.w3.org/2000/svg" xmlns:xlink="http://www.w3.org/1999/xlink" width="370.039" height="225.574" viewBox="0 0 370.039 225.574">
  <defs>
    <filter id="Elipse_4896" x="24.445" y="59.023" width="58.489" height="60.489" filterUnits="userSpaceOnUse">
      <feOffset dx="2" dy="4" input="SourceAlpha"/>
      <feGaussianBlur result="blur"/>
      <feFlood flood-color="#995f0a" flood-opacity="0.239"/>
      <feComposite operator="in" in2="blur"/>
      <feComposite in="SourceGraphic"/>
    </filter>
    <filter id="Elipse_4897" x="149.097" y="56.829" width="62.878" height="63.878" filterUnits="userSpaceOnUse">
      <feOffset dx="2" dy="3" input="SourceAlpha"/>
      <feGaussianBlur result="blur-2"/>
      <feFlood flood-color="#bc7d00" flood-opacity="0.239"/>
      <feComposite operator="in" in2="blur-2"/>
      <feComposite in="SourceGraphic"/>
    </filter>
    <filter id="Elipse_4898" x="280.354" y="61.24" width="54.056" height="55.056" filterUnits="userSpaceOnUse">
      <feOffset dx="2" dy="3" input="SourceAlpha"/>
      <feGaussianBlur result="blur-3"/>
      <feFlood flood-color="#28a57c" flood-opacity="0.239"/>
      <feComposite operator="in" in2="blur-3"/>
      <feComposite in="SourceGraphic"/>
    </filter>
  </defs>
  <g id="Grupo_932049" data-name="Grupo 932049" transform="translate(10093.955 4826.797)">
    <path id="Trazado_620438" data-name="Trazado 620438" d="M96.753,2969.59v-21.41c0-5.289,6.114-13.576,13.657-13.576H336.942c7.543,0,13.657,8.287,13.657,13.576v21.41" transform="translate(-10138.208 -7741.797)" fill="none" stroke="#01517d" stroke-miterlimit="10" stroke-width="1"/>
    <line id="Línea_255" data-name="Línea 255" y2="43.824" transform="translate(-10042.47 -4723.709)" fill="none" stroke="#0387d0" stroke-miterlimit="10" stroke-width="1"/>
    <path id="Trazado_620440" data-name="Trazado 620440" d="M100.982,3049.39a5.245,5.245,0,1,1-5.244-5.245A5.244,5.244,0,0,1,100.982,3049.39Z" transform="translate(-10138.208 -7741.797)" fill="#0387d0"/>
    <path id="Trazado_620441" data-name="Trazado 620441" d="M98.36,3049.39a2.622,2.622,0,1,1-2.622-2.622A2.622,2.622,0,0,1,98.36,3049.39Z" transform="translate(-10138.208 -7741.797)" fill="#fff"/>
    <line id="Línea_256" data-name="Línea 256" y2="43.824" transform="translate(-9915.055 -4723.709)" fill="none" stroke="#026ca6" stroke-miterlimit="10" stroke-width="1"/>
    <path id="Trazado_620442" data-name="Trazado 620442" d="M228.4,3049.39a5.244,5.244,0,1,1-5.245-5.245A5.245,5.245,0,0,1,228.4,3049.39Z" transform="translate(-10138.208 -7741.797)" fill="#026ca6"/>
    <path id="Trazado_620443" data-name="Trazado 620443" d="M225.776,3049.39a2.622,2.622,0,1,1-2.623-2.622A2.622,2.622,0,0,1,225.776,3049.39Z" transform="translate(-10138.208 -7741.797)" fill="#fff"/>
    <line id="Línea_257" data-name="Línea 257" y2="43.824" transform="translate(-9787.639 -4723.709)" fill="none" stroke="#01517d" stroke-miterlimit="10" stroke-width="1"/>
    <path id="Trazado_620444" data-name="Trazado 620444" d="M355.813,3049.39a5.244,5.244,0,1,1-5.244-5.245A5.244,5.244,0,0,1,355.813,3049.39Z" transform="translate(-10138.208 -7741.797)" fill="#01517d"/>
    <path id="Trazado_620445" data-name="Trazado 620445" d="M353.191,3049.39a2.622,2.622,0,1,1-2.622-2.622A2.622,2.622,0,0,1,353.191,3049.39Z" transform="translate(-10138.208 -7741.797)" fill="#fff"/>
    <path id="Trazado_620448" data-name="Trazado 620448" d="M160.936,2991.178H131.069a35.873,35.873,0,1,0,.647,19.964h29.22Z" transform="translate(-10138.208 -7741.797)" fill="#0387d0"/>
    <path id="Trazado_620449" data-name="Trazado 620449" d="M288.077,2991.178H257.915a35.883,35.883,0,0,0-68.252,0H160.936v19.964h28.08a35.89,35.89,0,0,0,69.546,0h29.515Z" transform="translate(-10138.208 -7741.797)" fill="#026ca6"/>
    <path id="Trazado_620450" data-name="Trazado 620450" d="M414.292,2991.178H384.761a35.883,35.883,0,0,0-68.252,0H288.077v19.964h27.785a35.89,35.89,0,0,0,69.546,0h28.884Z" transform="translate(-10138.208 -7741.797)" fill="#01517d"/>
    <g id="Grupo_926861" data-name="Grupo 926861" transform="translate(-10138.208 -7741.797)">
      <g transform="matrix(1, 0, 0, 1, 44.25, 2915)" filter="url(#Elipse_4896)">
        <circle id="Elipse_4896-2" data-name="Elipse 4896" cx="22.63" cy="22.63" r="22.63" transform="matrix(0.29, -0.96, 0.96, 0.29, 24.45, 102.32)" fill="#fff"/>
      </g>
    </g>
    <g id="Grupo_926862" data-name="Grupo 926862" transform="translate(-10138.208 -7741.797)">
      <g transform="matrix(1, 0, 0, 1, 44.25, 2915)" filter="url(#Elipse_4897)">
        <circle id="Elipse_4897-2" data-name="Elipse 4897" cx="22.63" cy="22.63" r="22.63" transform="translate(149.1 77.38) rotate(-27.01)" fill="#fff"/>
      </g>
    </g>
    <g id="Grupo_926863" data-name="Grupo 926863" transform="translate(-10138.208 -7741.797)">
      <g transform="matrix(1, 0, 0, 1, 44.25, 2915)" filter="url(#Elipse_4898)">
        <circle id="Elipse_4898-2" data-name="Elipse 4898" cx="22.63" cy="22.63" r="22.63" transform="translate(280.35 105.89) rotate(-80.58)" fill="#fff"/>
      </g>
    </g>
    <path id="Trazado_620452" data-name="Trazado 620452" d="M117.151,3002.268a20.437,20.437,0,1,1-20.438-20.437A20.437,20.437,0,0,1,117.151,3002.268Z" transform="translate(-10138.208 -7741.797)" fill="#0387d0"/>
    <circle id="Elipse_4900" data-name="Elipse 4900" cx="16.59" cy="16.59" r="16.59" transform="translate(-10058.085 -4756.119)" fill="#fff"/>
    <path id="Trazado_620453" data-name="Trazado 620453" d="M243.627,3002.268a19.991,19.991,0,1,1-19.99-19.991A19.991,19.991,0,0,1,243.627,3002.268Z" transform="translate(-10138.208 -7741.797)" fill="#026ca6"/>
    <circle id="Elipse_4901" data-name="Elipse 4901" cx="16.59" cy="16.59" r="16.59" transform="translate(-9931.162 -4756.119)" fill="#fff"/>
    <path id="Trazado_620454" data-name="Trazado 620454" d="M370.617,3002.268a20.059,20.059,0,1,1-20.058-20.059A20.058,20.058,0,0,1,370.617,3002.268Z" transform="translate(-10138.208 -7741.797)" fill="#01517d"/>
    <circle id="Elipse_4902" data-name="Elipse 4902" cx="16.59" cy="16.59" r="16.59" transform="translate(-9804.239 -4756.119)" fill="#fff"/>
    <rect id="Rectángulo_335105" data-name="Rectángulo 335105" width="102.969" height="79.198" rx="6.95" transform="translate(-10093.955 -4680.421)" fill="#0387d0"/>
    <rect id="Rectángulo_335106" data-name="Rectángulo 335106" width="112.969" height="79.198" rx="6.95" transform="translate(-9971.539 -4680.421)" fill="#026ca6"/>
    <rect id="Rectángulo_335107" data-name="Rectángulo 335107" width="112.969" height="79.198" rx="6.95" transform="translate(-9844.134 -4680.421)" fill="#01517d"/>
    <rect id="Rectángulo_335108" data-name="Rectángulo 335108" width="178.865" height="32.198" rx="6.95" transform="translate(-10001.865 -4826.797)" fill="#01517d"/>
    <g id="Grupo_926873" data-name="Grupo 926873" transform="translate(-10138.208 -7741.797)">
      <g id="Grupo_926872" data-name="Grupo 926872">
        <g id="Grupo_926871" data-name="Grupo 926871">
          <path id="Trazado_620480" data-name="Trazado 620480" d="M98.475,3005.474a.288.288,0,0,0,.09.562.283.283,0,0,0,.09-.015,10.751,10.751,0,0,1,2.828-.47.288.288,0,1,0-.024-.576,11.32,11.32,0,0,0-2.984.5Z" fill="#0387d0"/>
          <path id="Trazado_620481" data-name="Trazado 620481" d="M103.023,3005.586v-.363a.288.288,0,0,0-.576,0v1.024a.076.076,0,0,1-.074.065h-.239a.946.946,0,0,0-.945.945v.856a.7.7,0,0,0,.7.7h.56v1.5a.045.045,0,0,1-.046.046,11.192,11.192,0,0,0-4.75.806v-6.985a10.173,10.173,0,0,1,4.624-.879.179.179,0,0,1,.032,0h0a.176.176,0,0,1,.136.172v.4a.288.288,0,0,0,.576,0v-.4a.746.746,0,0,0-.377-.653v-.362a.719.719,0,0,0-.706-.723c-.247-.006-.59-.006-.99.016a4.355,4.355,0,0,0-1.656-.693,2.8,2.8,0,0,1-.6-.139h0a.78.78,0,0,1-.464-.713v-.008a3.184,3.184,0,0,0,.485-.352,2.624,2.624,0,0,0,.859-1.673.744.744,0,0,0,.638-.74l0-.974a.719.719,0,0,1,0-.473v-1.716a.893.893,0,0,0-.874-.888.067.067,0,0,1-.066-.066.9.9,0,0,0-.9-.885H95.662a2.263,2.263,0,0,0-2.207,1.79.288.288,0,0,0,.564.119,1.684,1.684,0,0,1,1.643-1.332h2.709a.323.323,0,0,1,.322.317.641.641,0,0,0,.633.634.313.313,0,0,1,.307.311v1.716a.161.161,0,0,1-.108.152.3.3,0,0,1-.36-.147.6.6,0,0,0-.683-.316,2.4,2.4,0,0,1-2.343-.867.923.923,0,0,0-1-.255.888.888,0,0,0-.6.805c0,.048,0-.009,0,.936l-.447-.156a.161.161,0,0,1-.108-.152v-.36a.288.288,0,1,0-.576,0v.36a.81.81,0,0,0,.008.111.936.936,0,0,0-.2.58v.589a.938.938,0,0,0,.836.931,2.626,2.626,0,0,0,.873,1.666q.133.114.273.211v.132a.776.776,0,0,1-.371.664h0a1.863,1.863,0,0,1-.695.189,4.361,4.361,0,0,0-1.656.693c-.4-.022-.742-.022-.99-.016a.719.719,0,0,0-.706.723v.362a.748.748,0,0,0-.377.653v2.11c-.131.117-.919.37-.919,1.216v.775a1.235,1.235,0,0,0,.919,1.193v1.542a.622.622,0,0,0,.642.622,9.184,9.184,0,0,1,4.874.953h0l.007,0a1.575,1.575,0,0,0,1.574,0l.008-.005h0a9.176,9.176,0,0,1,4.874-.953.621.621,0,0,0,.641-.622v-1.542a1.235,1.235,0,0,0,.92-1.193v-.775c0-.845-.792-1.1-.92-1.216Zm-8.416-7.677a.288.288,0,0,0-.288-.281h-.167a.361.361,0,0,1-.361-.361c0-.621,0-.59,0-.631a.71.71,0,0,0,.108.048l.485.169a.548.548,0,0,0,.728-.519c0-1.067,0-.925,0-.946a.321.321,0,0,1,.218-.29.345.345,0,0,1,.378.1,2.955,2.955,0,0,0,2.907,1.044.028.028,0,0,1,.032.012.873.873,0,0,0,.984.458l0,.729a.167.167,0,0,1-.162.169H99.3a.287.287,0,0,0-.287.283,2.071,2.071,0,0,1-.681,1.526,2.246,2.246,0,0,1-3.033.013,2.07,2.07,0,0,1-.694-1.52Zm3.068,2.541a1.358,1.358,0,0,0,.4.744,2.336,2.336,0,0,1-2.651-.082,1.341,1.341,0,0,0,.334-.729A2.767,2.767,0,0,0,97.675,3000.45Zm-3.435,1.177a3.323,3.323,0,0,0,.695-.165,2.922,2.922,0,0,0,3.7.049c.086.026.468.1.554.116a3.822,3.822,0,0,1,.744.223,7.261,7.261,0,0,0-3.03,1.034.33.33,0,0,1-.373,0,7.262,7.262,0,0,0-3.029-1.034A3.813,3.813,0,0,1,94.24,3001.627Zm-2.741.687c.255-.006.617-.006,1.039.02h.007a7.612,7.612,0,0,1,3.658,1.027.9.9,0,0,0,1.019,0,8.832,8.832,0,0,1,4.705-1.047.146.146,0,0,1,.143.147v.26a9.774,9.774,0,0,0-5.031,1.146.6.6,0,0,1-.653,0,9.776,9.776,0,0,0-5.031-1.146v-.26a.146.146,0,0,1,.144-.147Zm-1.439,5.263v-.775a.627.627,0,0,1,.343-.54.652.652,0,0,0,.651.626h.239a.369.369,0,0,1,.368.369v.856a.122.122,0,0,1-.122.122h-.822a.658.658,0,0,1-.657-.658Zm.965,2.781a.045.045,0,0,1-.046-.046v-1.5h.56a.7.7,0,0,0,.7-.7v-.856a.946.946,0,0,0-.945-.945h-.239a.075.075,0,0,1-.075-.074v-2.762a.175.175,0,0,1,.136-.172h0a.168.168,0,0,1,.032,0,10.158,10.158,0,0,1,4.623.879v6.985A11.188,11.188,0,0,0,91.025,3010.358Zm6.05,1.1a.993.993,0,0,1-.724,0v-6.978a1.194,1.194,0,0,0,.724,0Zm6.292-3.882a.659.659,0,0,1-.658.658h-.822a.123.123,0,0,1-.122-.123v-.855a.369.369,0,0,1,.369-.369h.239a.654.654,0,0,0,.651-.626l.062.038a.592.592,0,0,1,.281.5v.775Z" fill="#0387d0"/>
        </g>
      </g>
    </g>
    <g id="Grupo_926876" data-name="Grupo 926876" transform="translate(-10138.208 -7741.797)">
      <g id="Grupo_926875" data-name="Grupo 926875">
        <g id="Grupo_926874" data-name="Grupo 926874">
          <path id="Trazado_620482" data-name="Trazado 620482" d="M225.4,3005.474a.288.288,0,1,0,.181.547,10.738,10.738,0,0,1,2.827-.47.288.288,0,0,0-.023-.576,11.333,11.333,0,0,0-2.985.5Z" fill="#026ca6"/>
          <path id="Trazado_620483" data-name="Trazado 620483" d="M229.946,3005.586v-.363a.288.288,0,0,0-.576,0v1.024a.075.075,0,0,1-.074.065h-.239a.946.946,0,0,0-.945.945v.856a.7.7,0,0,0,.7.7h.559v1.5a.045.045,0,0,1-.046.046,11.192,11.192,0,0,0-4.75.806v-6.985a10.177,10.177,0,0,1,4.624-.879.168.168,0,0,1,.032,0h0a.175.175,0,0,1,.136.172v.4a.288.288,0,0,0,.576,0v-.4a.747.747,0,0,0-.376-.653v-.362a.719.719,0,0,0-.707-.723c-.247-.006-.59-.006-.989.016a4.366,4.366,0,0,0-1.657-.693,2.8,2.8,0,0,1-.6-.139h0a.78.78,0,0,1-.464-.713v-.008a3.088,3.088,0,0,0,.485-.352,2.624,2.624,0,0,0,.859-1.673.744.744,0,0,0,.638-.74l0-.974a.728.728,0,0,1,0-.473v-1.716a.893.893,0,0,0-.874-.888.065.065,0,0,1-.066-.066.9.9,0,0,0-.9-.885h-2.709a2.264,2.264,0,0,0-2.207,1.79.288.288,0,0,0,.564.119,1.685,1.685,0,0,1,1.643-1.332h2.709a.323.323,0,0,1,.322.317.642.642,0,0,0,.633.634.312.312,0,0,1,.307.311v1.716a.162.162,0,0,1-.107.152.3.3,0,0,1-.361-.147.6.6,0,0,0-.683-.316,2.4,2.4,0,0,1-2.342-.867.923.923,0,0,0-1-.255.886.886,0,0,0-.6.805c0,.048,0-.009,0,.936l-.447-.156a.161.161,0,0,1-.108-.152v-.36a.288.288,0,1,0-.576,0v.36a.676.676,0,0,0,.009.111.93.93,0,0,0-.2.58v.589a.939.939,0,0,0,.837.931,2.625,2.625,0,0,0,.872,1.666q.134.114.273.211v.132a.774.774,0,0,1-.371.664h0a1.855,1.855,0,0,1-.694.189,4.366,4.366,0,0,0-1.657.693c-.4-.022-.742-.022-.989-.016a.719.719,0,0,0-.707.723v.362a.747.747,0,0,0-.376.653v2.11c-.132.117-.919.37-.919,1.216v.775a1.234,1.234,0,0,0,.919,1.193v1.542a.622.622,0,0,0,.641.622,9.185,9.185,0,0,1,4.875.953h0l.007,0a1.573,1.573,0,0,0,1.573,0l.008-.005h0a9.176,9.176,0,0,1,4.874-.953.621.621,0,0,0,.641-.622v-1.542a1.235,1.235,0,0,0,.92-1.193v-.775c0-.845-.792-1.1-.92-1.216Zm-8.416-7.677a.288.288,0,0,0-.288-.281h-.167a.362.362,0,0,1-.361-.361c0-.621,0-.59,0-.631a.7.7,0,0,0,.107.048l.485.169a.549.549,0,0,0,.729-.519c0-1.067,0-.925,0-.946a.322.322,0,0,1,.218-.29.345.345,0,0,1,.378.1,2.956,2.956,0,0,0,2.907,1.044.027.027,0,0,1,.032.012.874.874,0,0,0,.985.458v.729a.165.165,0,0,1-.162.169h-.171a.287.287,0,0,0-.287.283,2.071,2.071,0,0,1-.681,1.526,2.246,2.246,0,0,1-3.033.013,2.07,2.07,0,0,1-.694-1.52Zm3.068,2.541a1.358,1.358,0,0,0,.4.744,2.336,2.336,0,0,1-2.651-.082,1.341,1.341,0,0,0,.334-.729A2.768,2.768,0,0,0,224.6,3000.45Zm-3.434,1.177a3.3,3.3,0,0,0,.694-.165,2.922,2.922,0,0,0,3.7.049c.087.026.468.1.555.116a3.834,3.834,0,0,1,.743.223,7.261,7.261,0,0,0-3.03,1.034.329.329,0,0,1-.372,0,7.261,7.261,0,0,0-3.03-1.034A3.823,3.823,0,0,1,221.164,3001.627Zm-2.742.687c.255-.006.618-.006,1.04.02h.006a7.619,7.619,0,0,1,3.659,1.027.9.9,0,0,0,1.018,0,8.832,8.832,0,0,1,4.705-1.047.147.147,0,0,1,.144.147v.26a9.77,9.77,0,0,0-5.031,1.146.6.6,0,0,1-.653,0,9.778,9.778,0,0,0-5.031-1.146v-.26a.146.146,0,0,1,.143-.147Zm-1.439,5.263v-.775a.627.627,0,0,1,.343-.54.653.653,0,0,0,.651.626h.239a.369.369,0,0,1,.369.369v.856a.123.123,0,0,1-.123.122h-.822a.658.658,0,0,1-.657-.658Zm.965,2.781a.046.046,0,0,1-.046-.046v-1.5h.56a.7.7,0,0,0,.7-.7v-.856a.946.946,0,0,0-.945-.945h-.239a.075.075,0,0,1-.075-.074v-2.762a.175.175,0,0,1,.136-.172h0a.179.179,0,0,1,.032,0,10.164,10.164,0,0,1,4.624.879v6.985A11.192,11.192,0,0,0,217.948,3010.358Zm6.05,1.1a.993.993,0,0,1-.724,0v-6.978a1.194,1.194,0,0,0,.724,0Zm6.292-3.882a.658.658,0,0,1-.657.658h-.822a.123.123,0,0,1-.123-.123v-.855a.369.369,0,0,1,.369-.369h.239a.654.654,0,0,0,.651-.626l.062.038a.592.592,0,0,1,.281.5v.775Z" fill="#026ca6"/>
        </g>
      </g>
    </g>
    <g id="Grupo_926879" data-name="Grupo 926879" transform="translate(-10138.208 -7741.797)">
      <g id="Grupo_926878" data-name="Grupo 926878">
        <g id="Grupo_926877" data-name="Grupo 926877">
          <path id="Trazado_620484" data-name="Trazado 620484" d="M352.32,3005.474a.288.288,0,1,0,.181.547,10.738,10.738,0,0,1,2.828-.47.288.288,0,1,0-.024-.576,11.333,11.333,0,0,0-2.985.5Z" fill="#01517d"/>
          <path id="Trazado_620485" data-name="Trazado 620485" d="M356.869,3005.586v-.363a.288.288,0,0,0-.577,0v1.024a.075.075,0,0,1-.074.065h-.239a.946.946,0,0,0-.945.945v.856a.7.7,0,0,0,.7.7h.559v1.5a.045.045,0,0,1-.046.046,11.192,11.192,0,0,0-4.75.806v-6.985a10.177,10.177,0,0,1,4.624-.879.169.169,0,0,1,.032,0h0a.175.175,0,0,1,.136.172v.4a.288.288,0,0,0,.577,0v-.4a.748.748,0,0,0-.377-.653v-.362a.719.719,0,0,0-.707-.723c-.247-.006-.59-.006-.989.016a4.368,4.368,0,0,0-1.656-.693,2.8,2.8,0,0,1-.6-.139h0a.78.78,0,0,1-.464-.713v-.008a3.143,3.143,0,0,0,.486-.352,2.623,2.623,0,0,0,.858-1.673.743.743,0,0,0,.638-.74l0-.974a.752.752,0,0,0-.039-.235.727.727,0,0,0,.04-.238v-1.716a.893.893,0,0,0-.874-.888.065.065,0,0,1-.066-.066.9.9,0,0,0-.9-.885h-2.709a2.265,2.265,0,0,0-2.207,1.79.288.288,0,0,0,.564.119,1.685,1.685,0,0,1,1.643-1.332h2.709a.324.324,0,0,1,.323.317.64.64,0,0,0,.633.634.312.312,0,0,1,.306.311v1.716a.162.162,0,0,1-.107.152.3.3,0,0,1-.361-.147.6.6,0,0,0-.683-.316,2.4,2.4,0,0,1-2.342-.867.923.923,0,0,0-1-.255.886.886,0,0,0-.6.805c0,.048,0-.009,0,.936l-.448-.156a.163.163,0,0,1-.108-.152v-.36a.288.288,0,1,0-.576,0v.36a.68.68,0,0,0,.009.111.93.93,0,0,0-.2.58v.589a.939.939,0,0,0,.837.931,2.625,2.625,0,0,0,.872,1.666q.133.114.273.211v.132a.774.774,0,0,1-.371.664h0a1.855,1.855,0,0,1-.694.189,4.366,4.366,0,0,0-1.657.693c-.4-.022-.742-.022-.989-.016a.719.719,0,0,0-.707.723v.362a.747.747,0,0,0-.376.653v2.11c-.132.117-.919.37-.919,1.216v.775a1.235,1.235,0,0,0,.919,1.193v1.542a.622.622,0,0,0,.641.622,9.185,9.185,0,0,1,4.875.953h0l.007,0a1.575,1.575,0,0,0,1.574,0l.007-.005h0a9.176,9.176,0,0,1,4.874-.953.622.622,0,0,0,.642-.622v-1.542a1.235,1.235,0,0,0,.919-1.193v-.775c0-.845-.791-1.1-.919-1.216Zm-8.417-7.677a.288.288,0,0,0-.288-.281H348a.361.361,0,0,1-.36-.361c0-.621,0-.59,0-.631a.669.669,0,0,0,.108.048l.484.169a.549.549,0,0,0,.729-.519c0-1.067,0-.925,0-.946a.322.322,0,0,1,.218-.29.344.344,0,0,1,.378.1,2.957,2.957,0,0,0,2.908,1.044.026.026,0,0,1,.031.012.874.874,0,0,0,.985.458v.729a.165.165,0,0,1-.162.169h-.171a.288.288,0,0,0-.287.283,2.071,2.071,0,0,1-.681,1.526,2.246,2.246,0,0,1-3.033.013,2.07,2.07,0,0,1-.694-1.52Zm3.068,2.541a1.353,1.353,0,0,0,.4.744,2.337,2.337,0,0,1-2.652-.082,1.343,1.343,0,0,0,.335-.729A2.764,2.764,0,0,0,351.52,3000.45Zm-3.434,1.177a3.3,3.3,0,0,0,.694-.165,2.922,2.922,0,0,0,3.7.049c.087.026.469.1.555.116a3.833,3.833,0,0,1,.743.223,7.252,7.252,0,0,0-3.029,1.034.33.33,0,0,1-.373,0,7.261,7.261,0,0,0-3.03-1.034A3.822,3.822,0,0,1,348.086,3001.627Zm-2.742.687c.256-.006.618-.006,1.04.02h.006a7.616,7.616,0,0,1,3.659,1.027.9.9,0,0,0,1.019,0,8.827,8.827,0,0,1,4.7-1.047.146.146,0,0,1,.144.147v.26a9.77,9.77,0,0,0-5.031,1.146.6.6,0,0,1-.653,0,9.778,9.778,0,0,0-5.031-1.146v-.26a.146.146,0,0,1,.143-.147Zm-1.439,5.263v-.775a.629.629,0,0,1,.343-.54.654.654,0,0,0,.651.626h.239a.369.369,0,0,1,.369.369v.856a.123.123,0,0,1-.122.122h-.822a.659.659,0,0,1-.658-.658Zm.965,2.781a.046.046,0,0,1-.046-.046v-1.5h.561a.7.7,0,0,0,.7-.7v-.856a.946.946,0,0,0-.945-.945H344.9a.075.075,0,0,1-.075-.074v-2.762a.176.176,0,0,1,.136-.172h0a.179.179,0,0,1,.032,0,10.162,10.162,0,0,1,4.624.879v6.985A11.192,11.192,0,0,0,344.87,3010.358Zm6.05,1.1a.993.993,0,0,1-.724,0v-6.978a1.194,1.194,0,0,0,.724,0Zm6.292-3.882a.658.658,0,0,1-.657.658h-.822a.123.123,0,0,1-.123-.123v-.855a.369.369,0,0,1,.369-.369h.239a.654.654,0,0,0,.651-.626l.062.038a.592.592,0,0,1,.281.5v.775Z" fill="#01517d"/>
        </g>
      </g>
    </g>
    <path id="Trazado_640181" data-name="Trazado 640181" d="M12.324,17a2.507,2.507,0,0,1-.227-.758,2.732,2.732,0,0,1-2.133.914,3,3,0,0,1-2.059-.719,2.312,2.312,0,0,1-.816-1.812,2.389,2.389,0,0,1,1-2.062,4.915,4.915,0,0,1,2.879-.727H12v-.484a1.393,1.393,0,0,0-.3-.937,1.183,1.183,0,0,0-.949-.352,1.345,1.345,0,0,0-.895.273.929.929,0,0,0-.324.75H7.277A2.268,2.268,0,0,1,7.73,9.727a3,3,0,0,1,1.281-.98,4.669,4.669,0,0,1,1.859-.355,3.689,3.689,0,0,1,2.48.785,2.747,2.747,0,0,1,.918,2.207v3.664a4.041,4.041,0,0,0,.336,1.82V17Zm-1.867-1.57a1.945,1.945,0,0,0,.922-.223,1.462,1.462,0,0,0,.625-.6V13.156H11.16q-1.7,0-1.8,1.172l-.008.133a.9.9,0,0,0,.3.7A1.153,1.153,0,0,0,10.457,15.43Zm5.664.461a1.137,1.137,0,0,1,.363-.875,1.412,1.412,0,0,1,1.828,0,1.137,1.137,0,0,1,.363.875,1.121,1.121,0,0,1-.359.863,1.435,1.435,0,0,1-1.836,0A1.121,1.121,0,0,1,16.121,15.891Zm11.008-.773h4.977V17h-7.32V5.625h2.344Zm5.82-2.422a5.013,5.013,0,0,1,.484-2.242A3.546,3.546,0,0,1,34.828,8.93a4.069,4.069,0,0,1,2.113-.539,3.849,3.849,0,0,1,2.793,1.047,4.2,4.2,0,0,1,1.207,2.844l.016.578a4.418,4.418,0,0,1-1.086,3.121,4.209,4.209,0,0,1-5.832,0,4.5,4.5,0,0,1-1.09-3.187Zm2.258.16A3.16,3.16,0,0,0,35.66,14.7a1.628,1.628,0,0,0,2.578.008,3.457,3.457,0,0,0,.461-2.015,3.128,3.128,0,0,0-.461-1.831,1.5,1.5,0,0,0-1.3-.649,1.474,1.474,0,0,0-1.281.646A3.516,3.516,0,0,0,35.207,12.856Zm10.656,2.48a1.481,1.481,0,0,0,1.016-.344,1.2,1.2,0,0,0,.406-.914H49.4a2.9,2.9,0,0,1-.469,1.574,3.093,3.093,0,0,1-1.262,1.109,3.949,3.949,0,0,1-1.77.395A3.67,3.67,0,0,1,43.043,16,4.56,4.56,0,0,1,42,12.82v-.148a4.508,4.508,0,0,1,1.039-3.117,3.627,3.627,0,0,1,2.852-1.164,3.555,3.555,0,0,1,2.543.9,3.2,3.2,0,0,1,.973,2.4H47.285a1.551,1.551,0,0,0-.406-1.072,1.51,1.51,0,0,0-2.223.163,3.333,3.333,0,0,0-.4,1.866v.235a3.375,3.375,0,0,0,.4,1.878A1.377,1.377,0,0,0,45.863,15.336ZM55.59,17a2.507,2.507,0,0,1-.227-.758,2.732,2.732,0,0,1-2.133.914,3,3,0,0,1-2.059-.719,2.312,2.312,0,0,1-.816-1.812,2.389,2.389,0,0,1,1-2.062,4.915,4.915,0,0,1,2.879-.727H55.27v-.484a1.393,1.393,0,0,0-.3-.937,1.183,1.183,0,0,0-.949-.352,1.345,1.345,0,0,0-.895.273.929.929,0,0,0-.324.75H50.543A2.268,2.268,0,0,1,51,9.727a3,3,0,0,1,1.281-.98,4.669,4.669,0,0,1,1.859-.355,3.689,3.689,0,0,1,2.48.785,2.747,2.747,0,0,1,.918,2.207v3.664a4.041,4.041,0,0,0,.336,1.82V17Zm-1.867-1.57a1.945,1.945,0,0,0,.922-.223,1.462,1.462,0,0,0,.625-.6V13.156h-.844q-1.7,0-1.8,1.172l-.008.133a.9.9,0,0,0,.3.7A1.153,1.153,0,0,0,53.723,15.43ZM61.652,17H59.387V5h2.266Zm4.242,0H63.629V8.547h2.266ZM63.5,6.359a1.112,1.112,0,0,1,.34-.836,1.465,1.465,0,0,1,1.848,0,1.105,1.105,0,0,1,.344.836,1.108,1.108,0,0,1-.348.844,1.448,1.448,0,0,1-1.836,0A1.108,1.108,0,0,1,63.5,6.359Zm6.852,8.82H74.48V17H67.465V15.625l3.977-5.258H67.582V8.547h6.773v1.33ZM80.793,17a2.507,2.507,0,0,1-.227-.758,2.732,2.732,0,0,1-2.133.914,3,3,0,0,1-2.059-.719,2.312,2.312,0,0,1-.816-1.812,2.389,2.389,0,0,1,1-2.062,4.915,4.915,0,0,1,2.879-.727h1.039v-.484a1.393,1.393,0,0,0-.3-.937,1.183,1.183,0,0,0-.949-.352,1.345,1.345,0,0,0-.895.273.929.929,0,0,0-.324.75H75.746A2.268,2.268,0,0,1,76.2,9.727a3,3,0,0,1,1.281-.98,4.669,4.669,0,0,1,1.859-.355,3.689,3.689,0,0,1,2.48.785,2.747,2.747,0,0,1,.918,2.207v3.664a4.041,4.041,0,0,0,.336,1.82V17Zm-1.867-1.57a1.945,1.945,0,0,0,.922-.223,1.462,1.462,0,0,0,.625-.6V13.156h-.844q-1.7,0-1.8,1.172l-.008.133a.9.9,0,0,0,.3.7A1.153,1.153,0,0,0,78.926,15.43Zm10.3-4.766a6.134,6.134,0,0,0-.812-.062,1.654,1.654,0,0,0-1.68.867V17H84.473V8.547h2.133l.063,1.008a2.092,2.092,0,0,1,1.883-1.164,2.366,2.366,0,0,1,.7.1ZM17.688,36.711a5.094,5.094,0,0,1,.887-3.148A2.877,2.877,0,0,1,21,32.391a2.589,2.589,0,0,1,2.039.922V29H25.3V41H23.266l-.109-.9a2.657,2.657,0,0,1-2.172,1.055A2.869,2.869,0,0,1,18.59,39.98,5.258,5.258,0,0,1,17.688,36.711Zm2.258.168a3.337,3.337,0,0,0,.414,1.823,1.349,1.349,0,0,0,1.2.634,1.511,1.511,0,0,0,1.477-.884V35.111a1.489,1.489,0,0,0-1.461-.884Q19.945,34.227,19.945,36.879Zm11,4.277a4.15,4.15,0,0,1-3.027-1.141,4.054,4.054,0,0,1-1.168-3.039v-.219a5.106,5.106,0,0,1,.492-2.277,3.612,3.612,0,0,1,1.395-1.547,3.914,3.914,0,0,1,2.059-.543,3.508,3.508,0,0,1,2.73,1.094,4.444,4.444,0,0,1,1,3.1v.922H29.039a2.1,2.1,0,0,0,.66,1.328,2,2,0,0,0,1.395.5,2.437,2.437,0,0,0,2.039-.945l1.109,1.242a3.389,3.389,0,0,1-1.375,1.121A4.511,4.511,0,0,1,30.945,41.156Zm-.258-6.945a1.411,1.411,0,0,0-1.09.455,2.357,2.357,0,0,0-.535,1.3H32.2v-.181a1.681,1.681,0,0,0-.406-1.165A1.456,1.456,0,0,0,30.688,34.211Zm7.719-3.742v2.078h1.445V34.2H38.406v4.219a1.007,1.007,0,0,0,.18.672.9.9,0,0,0,.688.2,3.6,3.6,0,0,0,.664-.055v1.711a4.648,4.648,0,0,1-1.367.2,2.156,2.156,0,0,1-2.422-2.4V34.2H34.914V32.547h1.234V30.469ZM46.008,41a2.507,2.507,0,0,1-.227-.758,2.732,2.732,0,0,1-2.133.914,3,3,0,0,1-2.059-.719,2.312,2.312,0,0,1-.816-1.812,2.389,2.389,0,0,1,1-2.062,4.915,4.915,0,0,1,2.879-.727h1.039v-.484a1.393,1.393,0,0,0-.3-.937,1.183,1.183,0,0,0-.949-.352,1.345,1.345,0,0,0-.895.273.929.929,0,0,0-.324.75H40.961a2.268,2.268,0,0,1,.453-1.359,3,3,0,0,1,1.281-.98,4.669,4.669,0,0,1,1.859-.355,3.689,3.689,0,0,1,2.48.785,2.747,2.747,0,0,1,.918,2.207v3.664a4.041,4.041,0,0,0,.336,1.82V41Zm-1.867-1.57a1.945,1.945,0,0,0,.922-.223,1.462,1.462,0,0,0,.625-.6V37.156h-.844q-1.7,0-1.8,1.172l-.008.133a.9.9,0,0,0,.3.7A1.153,1.153,0,0,0,44.141,39.43ZM52.07,41H49.8V29H52.07Zm4.242,0H54.047V29h2.266Zm5.75.156a4.15,4.15,0,0,1-3.027-1.141,4.054,4.054,0,0,1-1.168-3.039v-.219a5.106,5.106,0,0,1,.492-2.277,3.612,3.612,0,0,1,1.395-1.547,3.914,3.914,0,0,1,2.059-.543,3.508,3.508,0,0,1,2.73,1.094,4.444,4.444,0,0,1,1,3.1v.922H60.156a2.1,2.1,0,0,0,.66,1.328,2,2,0,0,0,1.395.5,2.437,2.437,0,0,0,2.039-.945l1.109,1.242a3.389,3.389,0,0,1-1.375,1.121A4.511,4.511,0,0,1,62.063,41.156ZM61.8,34.211a1.411,1.411,0,0,0-1.09.455,2.357,2.357,0,0,0-.535,1.3H63.32v-.181a1.681,1.681,0,0,0-.406-1.165A1.456,1.456,0,0,0,61.8,34.211ZM71.4,38.664a.727.727,0,0,0-.41-.652,4.659,4.659,0,0,0-1.316-.426q-3.016-.633-3.016-2.562a2.323,2.323,0,0,1,.934-1.879,3.766,3.766,0,0,1,2.441-.754,4.053,4.053,0,0,1,2.574.758,2.388,2.388,0,0,1,.965,1.969H71.313a1.092,1.092,0,0,0-.312-.8A1.322,1.322,0,0,0,70.023,34a1.351,1.351,0,0,0-.883.258.814.814,0,0,0-.312.656.7.7,0,0,0,.355.605,3.657,3.657,0,0,0,1.2.4A9.8,9.8,0,0,1,71.8,36.3a2.336,2.336,0,0,1,1.789,2.273,2.2,2.2,0,0,1-.992,1.871,4.28,4.28,0,0,1-2.562.715,4.47,4.47,0,0,1-1.887-.379,3.166,3.166,0,0,1-1.293-1.039,2.414,2.414,0,0,1-.469-1.426h2.141a1.179,1.179,0,0,0,.445.922,1.766,1.766,0,0,0,1.109.32,1.635,1.635,0,0,0,.98-.246A.766.766,0,0,0,71.4,38.664Zm3.766,1.227a1.137,1.137,0,0,1,.363-.875,1.412,1.412,0,0,1,1.828,0,1.137,1.137,0,0,1,.363.875,1.121,1.121,0,0,1-.359.863,1.435,1.435,0,0,1-1.836,0A1.121,1.121,0,0,1,75.164,39.891Z" transform="translate(-10090 -4666)" fill="#fff"/>
    <path id="Trazado_640180" data-name="Trazado 640180" d="M9.82,12.852a5.119,5.119,0,0,1-.867,3.168,2.872,2.872,0,0,1-2.422,1.137,2.639,2.639,0,0,1-2.2-1.055l-.1.9H2.2V5H4.461V9.3a2.571,2.571,0,0,1,2.055-.914A2.9,2.9,0,0,1,8.941,9.527a5.126,5.126,0,0,1,.879,3.2Zm-2.258-.164a3.363,3.363,0,0,0-.406-1.871,1.374,1.374,0,0,0-1.211-.59,1.489,1.489,0,0,0-1.484.883v3.336a1.509,1.509,0,0,0,1.5.891A1.394,1.394,0,0,0,7.4,14.258,5.562,5.562,0,0,0,7.563,12.688Zm3.766,3.2a1.137,1.137,0,0,1,.363-.875,1.412,1.412,0,0,1,1.828,0,1.137,1.137,0,0,1,.363.875,1.121,1.121,0,0,1-.359.863,1.435,1.435,0,0,1-1.836,0A1.121,1.121,0,0,1,11.328,15.891Zm14.563-1.875A1.2,1.2,0,0,0,25.422,13a6.148,6.148,0,0,0-1.687-.75,11.963,11.963,0,0,1-1.93-.777,3.153,3.153,0,0,1-1.937-2.82A2.747,2.747,0,0,1,20.387,7a3.389,3.389,0,0,1,1.492-1.129,5.616,5.616,0,0,1,2.184-.406,5.112,5.112,0,0,1,2.172.441,3.458,3.458,0,0,1,1.48,1.246,3.261,3.261,0,0,1,.527,1.828H25.9a1.534,1.534,0,0,0-.492-1.215,2.023,2.023,0,0,0-1.383-.434,2.162,2.162,0,0,0-1.336.363,1.146,1.146,0,0,0-.477.957,1.1,1.1,0,0,0,.559.93,6.311,6.311,0,0,0,1.645.7,7.106,7.106,0,0,1,2.914,1.492A2.972,2.972,0,0,1,28.242,14a2.737,2.737,0,0,1-1.117,2.316,4.891,4.891,0,0,1-3.008.84,5.808,5.808,0,0,1-2.391-.48,3.783,3.783,0,0,1-1.645-1.316,3.371,3.371,0,0,1-.566-1.937h2.352q0,1.883,2.25,1.883a2.189,2.189,0,0,0,1.3-.34A1.106,1.106,0,0,0,25.891,14.016Zm7.68,3.141a4.15,4.15,0,0,1-3.027-1.141,4.054,4.054,0,0,1-1.168-3.039v-.219a5.106,5.106,0,0,1,.492-2.277,3.612,3.612,0,0,1,1.395-1.547,3.914,3.914,0,0,1,2.059-.543,3.508,3.508,0,0,1,2.73,1.094,4.444,4.444,0,0,1,1,3.1v.922H31.664a2.1,2.1,0,0,0,.66,1.328,2,2,0,0,0,1.395.5,2.437,2.437,0,0,0,2.039-.945l1.109,1.242a3.389,3.389,0,0,1-1.375,1.121A4.511,4.511,0,0,1,33.57,17.156Zm-.258-6.945a1.411,1.411,0,0,0-1.09.455,2.357,2.357,0,0,0-.535,1.3h3.141v-.181a1.681,1.681,0,0,0-.406-1.165A1.456,1.456,0,0,0,33.313,10.211Zm8.531,5.125a1.481,1.481,0,0,0,1.016-.344,1.2,1.2,0,0,0,.406-.914h2.117a2.9,2.9,0,0,1-.469,1.574,3.093,3.093,0,0,1-1.262,1.109,3.949,3.949,0,0,1-1.77.395A3.67,3.67,0,0,1,39.023,16a4.56,4.56,0,0,1-1.047-3.184v-.148a4.508,4.508,0,0,1,1.039-3.117,3.627,3.627,0,0,1,2.852-1.164,3.555,3.555,0,0,1,2.543.9,3.2,3.2,0,0,1,.973,2.4H43.266a1.551,1.551,0,0,0-.406-1.072,1.51,1.51,0,0,0-2.223.163,3.333,3.333,0,0,0-.4,1.866v.235a3.375,3.375,0,0,0,.4,1.878A1.377,1.377,0,0,0,41.844,15.336Zm9.891.8a2.831,2.831,0,0,1-2.312,1.016,2.67,2.67,0,0,1-2.074-.781,3.335,3.335,0,0,1-.73-2.289V8.547h2.258v5.467q0,1.322,1.2,1.322a1.63,1.63,0,0,0,1.578-.8V8.547h2.266V17H51.8Zm7.781,1.016a4.15,4.15,0,0,1-3.027-1.141,4.054,4.054,0,0,1-1.168-3.039v-.219a5.106,5.106,0,0,1,.492-2.277,3.612,3.612,0,0,1,1.395-1.547,3.914,3.914,0,0,1,2.059-.543A3.508,3.508,0,0,1,62,9.484a4.444,4.444,0,0,1,1,3.1v.922H57.609a2.1,2.1,0,0,0,.66,1.328,2,2,0,0,0,1.395.5,2.437,2.437,0,0,0,2.039-.945l1.109,1.242a3.389,3.389,0,0,1-1.375,1.121A4.511,4.511,0,0,1,59.516,17.156Zm-.258-6.945a1.411,1.411,0,0,0-1.09.455,2.357,2.357,0,0,0-.535,1.3h3.141v-.181a1.681,1.681,0,0,0-.406-1.165A1.456,1.456,0,0,0,59.258,10.211Zm7.094-1.664.07.977a2.951,2.951,0,0,1,2.43-1.133,2.453,2.453,0,0,1,2,.789,3.682,3.682,0,0,1,.672,2.359V17H69.266V11.594a1.465,1.465,0,0,0-.312-1.043,1.4,1.4,0,0,0-1.039-.324,1.553,1.553,0,0,0-1.43.813V17H64.227V8.547Zm10.4,6.789a1.481,1.481,0,0,0,1.016-.344,1.2,1.2,0,0,0,.406-.914h2.117a2.9,2.9,0,0,1-.469,1.574,3.093,3.093,0,0,1-1.262,1.109,3.949,3.949,0,0,1-1.77.395A3.67,3.67,0,0,1,73.93,16a4.56,4.56,0,0,1-1.047-3.184v-.148a4.508,4.508,0,0,1,1.039-3.117,3.627,3.627,0,0,1,2.852-1.164,3.555,3.555,0,0,1,2.543.9,3.2,3.2,0,0,1,.973,2.4H78.172a1.551,1.551,0,0,0-.406-1.072,1.51,1.51,0,0,0-2.223.163,3.333,3.333,0,0,0-.4,1.866v.235a3.375,3.375,0,0,0,.4,1.878A1.377,1.377,0,0,0,76.75,15.336ZM83.961,17H81.7V8.547h2.266Zm-2.4-10.641a1.112,1.112,0,0,1,.34-.836,1.465,1.465,0,0,1,1.848,0,1.105,1.105,0,0,1,.344.836,1.108,1.108,0,0,1-.348.844,1.448,1.448,0,0,1-1.836,0A1.108,1.108,0,0,1,81.563,6.359ZM90.719,17a2.507,2.507,0,0,1-.227-.758,2.732,2.732,0,0,1-2.133.914,3,3,0,0,1-2.059-.719,2.312,2.312,0,0,1-.816-1.812,2.389,2.389,0,0,1,1-2.062,4.915,4.915,0,0,1,2.879-.727H90.4v-.484a1.393,1.393,0,0,0-.3-.937,1.183,1.183,0,0,0-.949-.352,1.345,1.345,0,0,0-.895.273.929.929,0,0,0-.324.75H85.672a2.268,2.268,0,0,1,.453-1.359,3,3,0,0,1,1.281-.98,4.669,4.669,0,0,1,1.859-.355,3.689,3.689,0,0,1,2.48.785,2.747,2.747,0,0,1,.918,2.207v3.664A4.041,4.041,0,0,0,93,16.867V17Zm-1.867-1.57a1.945,1.945,0,0,0,.922-.223,1.462,1.462,0,0,0,.625-.6V13.156h-.844q-1.7,0-1.8,1.172l-.008.133a.9.9,0,0,0,.3.7A1.153,1.153,0,0,0,88.852,15.43Zm10.3-4.766a6.134,6.134,0,0,0-.812-.062,1.654,1.654,0,0,0-1.68.867V17H94.4V8.547h2.133l.063,1.008a2.092,2.092,0,0,1,1.883-1.164,2.366,2.366,0,0,1,.7.1ZM99,15.891a1.137,1.137,0,0,1,.363-.875,1.412,1.412,0,0,1,1.828,0,1.137,1.137,0,0,1,.363.875,1.121,1.121,0,0,1-.359.863,1.435,1.435,0,0,1-1.836,0A1.121,1.121,0,0,1,99,15.891Z" transform="translate(-9966 -4655)" fill="#fff"/>
    <path id="Trazado_640182" data-name="Trazado 640182" d="M6.4,15.336a1.481,1.481,0,0,0,1.016-.344,1.2,1.2,0,0,0,.406-.914H9.941a2.9,2.9,0,0,1-.469,1.574,3.093,3.093,0,0,1-1.262,1.109,3.949,3.949,0,0,1-1.77.395A3.67,3.67,0,0,1,3.582,16,4.56,4.56,0,0,1,2.535,12.82v-.148A4.508,4.508,0,0,1,3.574,9.555,3.627,3.627,0,0,1,6.426,8.391a3.555,3.555,0,0,1,2.543.9,3.2,3.2,0,0,1,.973,2.4H7.824a1.551,1.551,0,0,0-.406-1.072,1.354,1.354,0,0,0-1.031-.412,1.36,1.36,0,0,0-1.191.575,3.333,3.333,0,0,0-.4,1.866v.235a3.375,3.375,0,0,0,.4,1.878A1.377,1.377,0,0,0,6.4,15.336Zm4.945.555a1.137,1.137,0,0,1,.363-.875,1.412,1.412,0,0,1,1.828,0,1.137,1.137,0,0,1,.363.875,1.121,1.121,0,0,1-.359.863,1.435,1.435,0,0,1-1.836,0A1.121,1.121,0,0,1,11.348,15.891Zm17.594-2.68A4.025,4.025,0,0,1,27.586,16.1a4.76,4.76,0,0,1-3.223,1.055,4.28,4.28,0,0,1-3.441-1.473,6.038,6.038,0,0,1-1.254-4.043v-.7a6.819,6.819,0,0,1,.578-2.891A4.332,4.332,0,0,1,21.9,6.137a4.629,4.629,0,0,1,2.5-.668,4.637,4.637,0,0,1,3.172,1.055,4.326,4.326,0,0,1,1.391,2.961H26.613A2.376,2.376,0,0,0,26,7.887a2.271,2.271,0,0,0-1.605-.5,1.991,1.991,0,0,0-1.754.84,4.707,4.707,0,0,0-.6,2.605V11.7a5.038,5.038,0,0,0,.559,2.7,1.954,1.954,0,0,0,1.762.852,2.314,2.314,0,0,0,1.621-.5,2.241,2.241,0,0,0,.613-1.535ZM29.98,12.7a5.013,5.013,0,0,1,.484-2.242A3.546,3.546,0,0,1,31.859,8.93a4.069,4.069,0,0,1,2.113-.539,3.849,3.849,0,0,1,2.793,1.047,4.2,4.2,0,0,1,1.207,2.844l.016.578A4.418,4.418,0,0,1,36.9,15.98a3.775,3.775,0,0,1-2.914,1.176,3.793,3.793,0,0,1-2.918-1.172A4.5,4.5,0,0,1,29.98,12.8Zm2.258.16a3.16,3.16,0,0,0,.453,1.843,1.628,1.628,0,0,0,2.578.008,3.457,3.457,0,0,0,.461-2.015,3.128,3.128,0,0,0-.461-1.831,1.5,1.5,0,0,0-1.3-.649,1.474,1.474,0,0,0-1.281.646A3.516,3.516,0,0,0,32.238,12.856ZM41.5,8.547l.07.945A2.971,2.971,0,0,1,44,8.391,2.255,2.255,0,0,1,46.238,9.68a2.9,2.9,0,0,1,2.539-1.289,2.521,2.521,0,0,1,2.047.8A3.681,3.681,0,0,1,51.5,11.6V17H49.23V11.609a1.61,1.61,0,0,0-.281-1.051,1.246,1.246,0,0,0-.992-.332,1.409,1.409,0,0,0-1.406.969l.008,5.8H44.3V11.617a1.59,1.59,0,0,0-.289-1.062,1.259,1.259,0,0,0-.984-.328,1.463,1.463,0,0,0-1.391.8V17H39.379V8.547Zm19.344,4.3a5.07,5.07,0,0,1-.887,3.129,2.843,2.843,0,0,1-2.395,1.176,2.633,2.633,0,0,1-2.07-.891V20.25H53.23V8.547h2.094l.078.828a2.654,2.654,0,0,1,2.141-.984,2.862,2.862,0,0,1,2.43,1.156,5.207,5.207,0,0,1,.867,3.188Zm-2.258-.164a3.327,3.327,0,0,0-.418-1.82,1.361,1.361,0,0,0-1.215-.641,1.479,1.479,0,0,0-1.461.813V14.5a1.5,1.5,0,0,0,1.477.836Q58.582,15.336,58.582,12.688ZM67.137,17a2.507,2.507,0,0,1-.227-.758,2.732,2.732,0,0,1-2.133.914,3,3,0,0,1-2.059-.719,2.312,2.312,0,0,1-.816-1.812,2.389,2.389,0,0,1,1-2.062,4.915,4.915,0,0,1,2.879-.727h1.039v-.484a1.393,1.393,0,0,0-.3-.937,1.183,1.183,0,0,0-.949-.352,1.345,1.345,0,0,0-.895.273.929.929,0,0,0-.324.75H62.09a2.268,2.268,0,0,1,.453-1.359,3,3,0,0,1,1.281-.98,4.669,4.669,0,0,1,1.859-.355,3.689,3.689,0,0,1,2.48.785,2.747,2.747,0,0,1,.918,2.207v3.664a4.041,4.041,0,0,0,.336,1.82V17ZM65.27,15.43a1.945,1.945,0,0,0,.922-.223,1.462,1.462,0,0,0,.625-.6V13.156h-.844q-1.7,0-1.8,1.172l-.008.133a.9.9,0,0,0,.3.7A1.153,1.153,0,0,0,65.27,15.43Zm10.3-4.766a6.134,6.134,0,0,0-.812-.062,1.654,1.654,0,0,0-1.68.867V17H70.816V8.547h2.133l.063,1.008a2.092,2.092,0,0,1,1.883-1.164,2.366,2.366,0,0,1,.7.1ZM81.316,17a2.507,2.507,0,0,1-.227-.758,2.732,2.732,0,0,1-2.133.914,3,3,0,0,1-2.059-.719,2.312,2.312,0,0,1-.816-1.812,2.389,2.389,0,0,1,1-2.062,4.915,4.915,0,0,1,2.879-.727H81v-.484a1.393,1.393,0,0,0-.3-.937,1.183,1.183,0,0,0-.949-.352,1.345,1.345,0,0,0-.895.273.929.929,0,0,0-.324.75H76.27a2.268,2.268,0,0,1,.453-1.359A3,3,0,0,1,78,8.746a4.669,4.669,0,0,1,1.859-.355,3.689,3.689,0,0,1,2.48.785,2.747,2.747,0,0,1,.918,2.207v3.664a4.041,4.041,0,0,0,.336,1.82V17Zm-1.867-1.57a1.945,1.945,0,0,0,.922-.223,1.462,1.462,0,0,0,.625-.6V13.156h-.844q-1.7,0-1.8,1.172l-.008.133a.9.9,0,0,0,.3.7A1.153,1.153,0,0,0,79.449,15.43Zm10.3-4.766a6.134,6.134,0,0,0-.812-.062,1.654,1.654,0,0,0-1.68.867V17H85V8.547h2.133l.063,1.008a2.092,2.092,0,0,1,1.883-1.164,2.366,2.366,0,0,1,.7.1ZM97.973,13.8l1.563-5.258h2.422l-3.4,9.766-.187.445a2.577,2.577,0,0,1-2.5,1.656,3.552,3.552,0,0,1-1-.148V18.555l.344.008a1.857,1.857,0,0,0,.957-.2,1.283,1.283,0,0,0,.5-.648l.266-.7L93.973,8.547H96.4ZM17.742,39.336a1.481,1.481,0,0,0,1.016-.344,1.2,1.2,0,0,0,.406-.914h2.117a2.9,2.9,0,0,1-.469,1.574,3.093,3.093,0,0,1-1.262,1.109,3.949,3.949,0,0,1-1.77.395A3.67,3.67,0,0,1,14.922,40a4.56,4.56,0,0,1-1.047-3.184v-.148a4.508,4.508,0,0,1,1.039-3.117,3.627,3.627,0,0,1,2.852-1.164,3.555,3.555,0,0,1,2.543.9,3.2,3.2,0,0,1,.973,2.4H19.164a1.551,1.551,0,0,0-.406-1.072,1.51,1.51,0,0,0-2.223.163,3.333,3.333,0,0,0-.4,1.866v.235a3.375,3.375,0,0,0,.4,1.878A1.377,1.377,0,0,0,17.742,39.336ZM22.219,36.7a5.013,5.013,0,0,1,.484-2.242A3.546,3.546,0,0,1,24.1,32.93a4.069,4.069,0,0,1,2.113-.539A3.849,3.849,0,0,1,29,33.438a4.2,4.2,0,0,1,1.207,2.844l.016.578a4.418,4.418,0,0,1-1.086,3.121,3.775,3.775,0,0,1-2.914,1.176,3.793,3.793,0,0,1-2.918-1.172,4.5,4.5,0,0,1-1.09-3.187Zm2.258.16A3.16,3.16,0,0,0,24.93,38.7a1.628,1.628,0,0,0,2.578.008,3.457,3.457,0,0,0,.461-2.015,3.128,3.128,0,0,0-.461-1.831,1.5,1.5,0,0,0-1.3-.649,1.474,1.474,0,0,0-1.281.646A3.516,3.516,0,0,0,24.477,36.856ZM33.7,32.547l.07.977a2.951,2.951,0,0,1,2.43-1.133,2.453,2.453,0,0,1,2,.789,3.682,3.682,0,0,1,.672,2.359V41H36.609V35.594a1.465,1.465,0,0,0-.312-1.043,1.4,1.4,0,0,0-1.039-.324,1.553,1.553,0,0,0-1.43.813V41H31.57V32.547Zm9.586-2.078v2.078h1.445V34.2H43.281v4.219a1.007,1.007,0,0,0,.18.672.9.9,0,0,0,.688.2,3.6,3.6,0,0,0,.664-.055v1.711a4.648,4.648,0,0,1-1.367.2,2.156,2.156,0,0,1-2.422-2.4V34.2H39.789V32.547h1.234V30.469Zm7.453,4.2a6.134,6.134,0,0,0-.812-.062,1.654,1.654,0,0,0-1.68.867V41H45.984V32.547h2.133l.063,1.008a2.092,2.092,0,0,1,1.883-1.164,2.366,2.366,0,0,1,.7.1ZM56.484,41a2.507,2.507,0,0,1-.227-.758,2.732,2.732,0,0,1-2.133.914,3,3,0,0,1-2.059-.719,2.312,2.312,0,0,1-.816-1.812,2.389,2.389,0,0,1,1-2.062,4.915,4.915,0,0,1,2.879-.727h1.039v-.484a1.393,1.393,0,0,0-.3-.937,1.183,1.183,0,0,0-.949-.352,1.345,1.345,0,0,0-.895.273.929.929,0,0,0-.324.75H51.438a2.268,2.268,0,0,1,.453-1.359,3,3,0,0,1,1.281-.98,4.669,4.669,0,0,1,1.859-.355,3.689,3.689,0,0,1,2.48.785,2.747,2.747,0,0,1,.918,2.207v3.664a4.041,4.041,0,0,0,.336,1.82V41Zm-1.867-1.57a1.945,1.945,0,0,0,.922-.223,1.462,1.462,0,0,0,.625-.6V37.156H55.32q-1.7,0-1.8,1.172l-.008.133a.9.9,0,0,0,.3.7A1.153,1.153,0,0,0,54.617,39.43Zm10.125-.766a.727.727,0,0,0-.41-.652,4.659,4.659,0,0,0-1.316-.426Q60,36.953,60,35.023a2.323,2.323,0,0,1,.934-1.879,3.766,3.766,0,0,1,2.441-.754,4.053,4.053,0,0,1,2.574.758,2.388,2.388,0,0,1,.965,1.969H64.656a1.092,1.092,0,0,0-.312-.8A1.322,1.322,0,0,0,63.367,34a1.351,1.351,0,0,0-.883.258.814.814,0,0,0-.312.656.7.7,0,0,0,.355.605,3.657,3.657,0,0,0,1.2.4,9.8,9.8,0,0,1,1.422.379,2.336,2.336,0,0,1,1.789,2.273,2.2,2.2,0,0,1-.992,1.871,4.28,4.28,0,0,1-2.562.715,4.47,4.47,0,0,1-1.887-.379A3.166,3.166,0,0,1,60.2,39.738a2.414,2.414,0,0,1-.469-1.426h2.141a1.179,1.179,0,0,0,.445.922,1.766,1.766,0,0,0,1.109.32,1.635,1.635,0,0,0,.98-.246A.766.766,0,0,0,64.742,38.664Zm6.352-8.2v2.078h1.445V34.2H71.094v4.219a1.007,1.007,0,0,0,.18.672.9.9,0,0,0,.688.2,3.6,3.6,0,0,0,.664-.055v1.711a4.648,4.648,0,0,1-1.367.2,2.156,2.156,0,0,1-2.422-2.4V34.2H67.6V32.547h1.234V30.469ZM78.7,41a2.507,2.507,0,0,1-.227-.758,2.732,2.732,0,0,1-2.133.914,3,3,0,0,1-2.059-.719,2.312,2.312,0,0,1-.816-1.812,2.389,2.389,0,0,1,1-2.062,4.915,4.915,0,0,1,2.879-.727h1.039v-.484a1.393,1.393,0,0,0-.3-.937,1.183,1.183,0,0,0-.949-.352,1.345,1.345,0,0,0-.895.273.929.929,0,0,0-.324.75H73.648a2.268,2.268,0,0,1,.453-1.359,3,3,0,0,1,1.281-.98,4.669,4.669,0,0,1,1.859-.355,3.689,3.689,0,0,1,2.48.785,2.747,2.747,0,0,1,.918,2.207v3.664a4.041,4.041,0,0,0,.336,1.82V41Zm-1.867-1.57a1.945,1.945,0,0,0,.922-.223,1.462,1.462,0,0,0,.625-.6V37.156h-.844q-1.7,0-1.8,1.172l-.008.133a.9.9,0,0,0,.3.7A1.153,1.153,0,0,0,76.828,39.43Zm10.3-4.766a6.134,6.134,0,0,0-.812-.062,1.654,1.654,0,0,0-1.68.867V41H82.375V32.547h2.133l.063,1.008a2.092,2.092,0,0,1,1.883-1.164,2.366,2.366,0,0,1,.7.1Zm-.148,5.227a1.137,1.137,0,0,1,.363-.875,1.412,1.412,0,0,1,1.828,0,1.137,1.137,0,0,1,.363.875,1.121,1.121,0,0,1-.359.863,1.435,1.435,0,0,1-1.836,0A1.121,1.121,0,0,1,86.977,39.891Z" transform="translate(-9839 -4666)" fill="#fff"/>
    <path id="Trazado_640183" data-name="Trazado 640183" d="M7.918,17H5.66V8.3l-2.7.836V7.3L7.676,5.609h.242Zm3.906-1.109a1.137,1.137,0,0,1,.363-.875,1.412,1.412,0,0,1,1.828,0,1.137,1.137,0,0,1,.363.875,1.121,1.121,0,0,1-.359.863,1.435,1.435,0,0,1-1.836,0A1.121,1.121,0,0,1,11.824,15.891Zm15.508-3.82h-4.5v3.047h5.281V17H20.488V5.625H28.1v1.9H22.832v2.711h4.5Zm6.586,2.594a.727.727,0,0,0-.41-.652,4.659,4.659,0,0,0-1.316-.426q-3.016-.633-3.016-2.562a2.323,2.323,0,0,1,.934-1.879,3.766,3.766,0,0,1,2.441-.754,4.053,4.053,0,0,1,2.574.758,2.388,2.388,0,0,1,.965,1.969H33.832a1.092,1.092,0,0,0-.312-.8A1.322,1.322,0,0,0,32.543,10a1.351,1.351,0,0,0-.883.258.814.814,0,0,0-.312.656.7.7,0,0,0,.355.605,3.657,3.657,0,0,0,1.2.4,9.8,9.8,0,0,1,1.422.379,2.336,2.336,0,0,1,1.789,2.273,2.2,2.2,0,0,1-.992,1.871,4.28,4.28,0,0,1-2.562.715,4.47,4.47,0,0,1-1.887-.379,3.166,3.166,0,0,1-1.293-1.039,2.414,2.414,0,0,1-.469-1.426h2.141a1.179,1.179,0,0,0,.445.922,1.766,1.766,0,0,0,1.109.32,1.635,1.635,0,0,0,.98-.246A.766.766,0,0,0,33.918,14.664Zm6.352-8.2V8.547h1.445V10.2H40.27v4.219a1.007,1.007,0,0,0,.18.672.9.9,0,0,0,.688.2,3.6,3.6,0,0,0,.664-.055v1.711a4.648,4.648,0,0,1-1.367.2,2.156,2.156,0,0,1-2.422-2.4V10.2H36.777V8.547h1.234V6.469Zm7.453,4.2a6.134,6.134,0,0,0-.812-.062,1.654,1.654,0,0,0-1.68.867V17H42.973V8.547h2.133l.063,1.008a2.092,2.092,0,0,1,1.883-1.164,2.366,2.366,0,0,1,.7.1ZM53.473,17a2.507,2.507,0,0,1-.227-.758,2.732,2.732,0,0,1-2.133.914,3,3,0,0,1-2.059-.719,2.312,2.312,0,0,1-.816-1.812,2.389,2.389,0,0,1,1-2.062,4.915,4.915,0,0,1,2.879-.727h1.039v-.484a1.393,1.393,0,0,0-.3-.937,1.183,1.183,0,0,0-.949-.352,1.345,1.345,0,0,0-.895.273.929.929,0,0,0-.324.75H48.426a2.268,2.268,0,0,1,.453-1.359,3,3,0,0,1,1.281-.98,4.669,4.669,0,0,1,1.859-.355,3.689,3.689,0,0,1,2.48.785,2.747,2.747,0,0,1,.918,2.207v3.664a4.041,4.041,0,0,0,.336,1.82V17Zm-1.867-1.57a1.945,1.945,0,0,0,.922-.223,1.462,1.462,0,0,0,.625-.6V13.156h-.844q-1.7,0-1.8,1.172l-.008.133a.9.9,0,0,0,.3.7A1.153,1.153,0,0,0,51.605,15.43Zm8.25-8.961V8.547H61.3V10.2H59.855v4.219a1.007,1.007,0,0,0,.18.672.9.9,0,0,0,.688.2,3.6,3.6,0,0,0,.664-.055v1.711a4.648,4.648,0,0,1-1.367.2,2.156,2.156,0,0,1-2.422-2.4V10.2H56.363V8.547H57.6V6.469Zm6.594,10.688a4.15,4.15,0,0,1-3.027-1.141,4.054,4.054,0,0,1-1.168-3.039v-.219a5.106,5.106,0,0,1,.492-2.277,3.612,3.612,0,0,1,1.395-1.547A3.914,3.914,0,0,1,66.2,8.391a3.508,3.508,0,0,1,2.73,1.094,4.444,4.444,0,0,1,1,3.1v.922H64.543a2.1,2.1,0,0,0,.66,1.328,2,2,0,0,0,1.395.5,2.437,2.437,0,0,0,2.039-.945l1.109,1.242a3.389,3.389,0,0,1-1.375,1.121A4.511,4.511,0,0,1,66.449,17.156Zm-.258-6.945a1.411,1.411,0,0,0-1.09.455,2.357,2.357,0,0,0-.535,1.3h3.141v-.181a1.681,1.681,0,0,0-.406-1.165A1.456,1.456,0,0,0,66.191,10.211Zm4.688,2.5A4.954,4.954,0,0,1,71.8,9.578a3,3,0,0,1,2.5-1.187,2.631,2.631,0,0,1,2.164.953l.094-.8h2.047v8.172a3.613,3.613,0,0,1-.5,1.93,3.236,3.236,0,0,1-1.418,1.25,4.985,4.985,0,0,1-2.141.43,4.635,4.635,0,0,1-1.812-.371A3.217,3.217,0,0,1,71.395,19l1-1.375a2.645,2.645,0,0,0,2.047.945,1.936,1.936,0,0,0,1.4-.48,1.8,1.8,0,0,0,.5-1.363v-.453a2.612,2.612,0,0,1-2.055.883,2.992,2.992,0,0,1-2.465-1.191,4.953,4.953,0,0,1-.941-3.16Zm2.258.168a3.085,3.085,0,0,0,.461,1.8,1.466,1.466,0,0,0,1.266.653,1.568,1.568,0,0,0,1.477-.775V11a1.564,1.564,0,0,0-1.461-.775,1.476,1.476,0,0,0-1.277.665A3.477,3.477,0,0,0,73.137,12.879ZM82.723,17H80.457V8.547h2.266Zm-2.4-10.641a1.112,1.112,0,0,1,.34-.836,1.465,1.465,0,0,1,1.848,0,1.105,1.105,0,0,1,.344.836,1.108,1.108,0,0,1-.348.844,1.448,1.448,0,0,1-1.836,0A1.108,1.108,0,0,1,80.324,6.359ZM89.48,17a2.507,2.507,0,0,1-.227-.758,2.732,2.732,0,0,1-2.133.914,3,3,0,0,1-2.059-.719,2.312,2.312,0,0,1-.816-1.812,2.389,2.389,0,0,1,1-2.062,4.915,4.915,0,0,1,2.879-.727H89.16v-.484a1.393,1.393,0,0,0-.3-.937,1.183,1.183,0,0,0-.949-.352,1.345,1.345,0,0,0-.895.273.929.929,0,0,0-.324.75H84.434a2.268,2.268,0,0,1,.453-1.359,3,3,0,0,1,1.281-.98,4.669,4.669,0,0,1,1.859-.355,3.689,3.689,0,0,1,2.48.785,2.747,2.747,0,0,1,.918,2.207v3.664a4.041,4.041,0,0,0,.336,1.82V17Zm-1.867-1.57a1.945,1.945,0,0,0,.922-.223,1.462,1.462,0,0,0,.625-.6V13.156h-.844q-1.7,0-1.8,1.172l-.008.133a.9.9,0,0,0,.3.7A1.153,1.153,0,0,0,87.613,15.43Zm10.125-.766a.727.727,0,0,0-.41-.652,4.659,4.659,0,0,0-1.316-.426Q93,12.953,93,11.023a2.323,2.323,0,0,1,.934-1.879,3.766,3.766,0,0,1,2.441-.754,4.053,4.053,0,0,1,2.574.758,2.388,2.388,0,0,1,.965,1.969H97.652a1.092,1.092,0,0,0-.312-.8A1.322,1.322,0,0,0,96.363,10a1.351,1.351,0,0,0-.883.258.814.814,0,0,0-.312.656.7.7,0,0,0,.355.605,3.657,3.657,0,0,0,1.2.4,9.8,9.8,0,0,1,1.422.379,2.336,2.336,0,0,1,1.789,2.273,2.2,2.2,0,0,1-.992,1.871,4.28,4.28,0,0,1-2.562.715,4.47,4.47,0,0,1-1.887-.379A3.166,3.166,0,0,1,93.2,15.738a2.414,2.414,0,0,1-.469-1.426h2.141a1.179,1.179,0,0,0,.445.922,1.766,1.766,0,0,0,1.109.32,1.635,1.635,0,0,0,.98-.246A.766.766,0,0,0,97.738,14.664ZM107.754,17h-2.266V5h2.266ZM112,17H109.73V8.547H112ZM109.6,6.359a1.112,1.112,0,0,1,.34-.836,1.465,1.465,0,0,1,1.848,0,1.105,1.105,0,0,1,.344.836,1.108,1.108,0,0,1-.348.844,1.448,1.448,0,0,1-1.836,0A1.108,1.108,0,0,1,109.6,6.359Zm6.961.109V8.547H118V10.2h-1.445v4.219a1.007,1.007,0,0,0,.18.672.9.9,0,0,0,.688.2,3.6,3.6,0,0,0,.664-.055v1.711a4.648,4.648,0,0,1-1.367.2,2.156,2.156,0,0,1-2.422-2.4V10.2h-1.234V8.547H114.3V6.469Zm6.594,10.688a4.15,4.15,0,0,1-3.027-1.141,4.054,4.054,0,0,1-1.168-3.039v-.219a5.106,5.106,0,0,1,.492-2.277,3.612,3.612,0,0,1,1.395-1.547,3.914,3.914,0,0,1,2.059-.543,3.508,3.508,0,0,1,2.73,1.094,4.444,4.444,0,0,1,1,3.1v.922h-5.383a2.1,2.1,0,0,0,.66,1.328,2,2,0,0,0,1.395.5,2.437,2.437,0,0,0,2.039-.945l1.109,1.242a3.389,3.389,0,0,1-1.375,1.121A4.511,4.511,0,0,1,123.152,17.156Zm-.258-6.945a1.411,1.411,0,0,0-1.09.455,2.357,2.357,0,0,0-.535,1.3h3.141v-.181A1.681,1.681,0,0,0,124,10.623,1.456,1.456,0,0,0,122.895,10.211Zm9.766.453a6.134,6.134,0,0,0-.812-.062,1.654,1.654,0,0,0-1.68.867V17H127.91V8.547h2.133l.063,1.008a2.092,2.092,0,0,1,1.883-1.164,2.366,2.366,0,0,1,.7.1ZM138.41,17a2.507,2.507,0,0,1-.227-.758,2.732,2.732,0,0,1-2.133.914,3,3,0,0,1-2.059-.719,2.312,2.312,0,0,1-.816-1.812,2.389,2.389,0,0,1,1-2.062,4.915,4.915,0,0,1,2.879-.727h1.039v-.484a1.393,1.393,0,0,0-.3-.937,1.183,1.183,0,0,0-.949-.352,1.345,1.345,0,0,0-.895.273.929.929,0,0,0-.324.75h-2.258a2.268,2.268,0,0,1,.453-1.359,3,3,0,0,1,1.281-.98,4.669,4.669,0,0,1,1.859-.355,3.689,3.689,0,0,1,2.48.785,2.747,2.747,0,0,1,.918,2.207v3.664a4.041,4.041,0,0,0,.336,1.82V17Zm-1.867-1.57a1.945,1.945,0,0,0,.922-.223,1.462,1.462,0,0,0,.625-.6V13.156h-.844q-1.7,0-1.8,1.172l-.008.133a.9.9,0,0,0,.3.7A1.153,1.153,0,0,0,136.543,15.43Zm7.93,1.57h-2.266V5h2.266Zm5.75.156a4.15,4.15,0,0,1-3.027-1.141,4.054,4.054,0,0,1-1.168-3.039v-.219a5.106,5.106,0,0,1,.492-2.277,3.612,3.612,0,0,1,1.395-1.547,3.914,3.914,0,0,1,2.059-.543,3.508,3.508,0,0,1,2.73,1.094,4.444,4.444,0,0,1,1,3.1v.922h-5.383a2.1,2.1,0,0,0,.66,1.328,2,2,0,0,0,1.395.5,2.437,2.437,0,0,0,2.039-.945l1.109,1.242a3.389,3.389,0,0,1-1.375,1.121A4.511,4.511,0,0,1,150.223,17.156Zm-.258-6.945a1.411,1.411,0,0,0-1.09.455,2.357,2.357,0,0,0-.535,1.3h3.141v-.181a1.681,1.681,0,0,0-.406-1.165A1.456,1.456,0,0,0,149.965,10.211Zm9.594,4.453a.727.727,0,0,0-.41-.652,4.659,4.659,0,0,0-1.316-.426q-3.016-.633-3.016-2.562a2.323,2.323,0,0,1,.934-1.879,3.766,3.766,0,0,1,2.441-.754,4.053,4.053,0,0,1,2.574.758,2.388,2.388,0,0,1,.965,1.969h-2.258a1.092,1.092,0,0,0-.312-.8,1.322,1.322,0,0,0-.977-.316,1.351,1.351,0,0,0-.883.258.814.814,0,0,0-.312.656.7.7,0,0,0,.355.605,3.657,3.657,0,0,0,1.2.4,9.8,9.8,0,0,1,1.422.379,2.336,2.336,0,0,1,1.789,2.273,2.205,2.205,0,0,1-.992,1.871,4.28,4.28,0,0,1-2.562.715,4.47,4.47,0,0,1-1.887-.379,3.166,3.166,0,0,1-1.293-1.039,2.414,2.414,0,0,1-.469-1.426h2.141a1.179,1.179,0,0,0,.445.922,1.766,1.766,0,0,0,1.109.32,1.635,1.635,0,0,0,.98-.246A.766.766,0,0,0,159.559,14.664Z" transform="translate(-9994 -4821.223)" fill="#fff"/>
  </g>
</svg>
