<svg xmlns="http://www.w3.org/2000/svg" width="256.075" height="338.392" viewBox="0 0 256.075 338.392">
  <g id="Grupo_928202" data-name="Grupo 928202" transform="translate(-46.77 -794.862)">
    <path id="Trazado_621190" data-name="Trazado 621190" d="M130.151,1028.545,96.526,1043.06s5.07,66.85,74.684,73.35,84.564-54.6,84.564-54.6l-33.149-28.762Z" fill="#756563"/>
    <path id="Trazado_621191" data-name="Trazado 621191" d="M255.774,1061.811l-33.149-28.762-92.474-4.5L107,1038.537a73.622,73.622,0,0,0-5.5,25.218c3.772,10.279,10.328,22.649,21.659,32.872.363-.721.679-1.378.942-1.911a111.658,111.658,0,0,0,7.2-19.953c.68-2.49,6.141-18.612,4.584-20.2,9.513,9.712,22.518,15.269,35.659,18.751,13.047,3.457,27.653,4.911,39.447-1.652a57.842,57.842,0,0,0-1.8,40.751C246.6,1099.28,255.774,1061.811,255.774,1061.811Z" opacity="0.2" style="mix-blend-mode: overlay;isolation: isolate"/>
    <ellipse id="Elipse_4921" data-name="Elipse 4921" cx="25.312" cy="49.774" rx="25.312" ry="49.774" transform="translate(127.86 1053.753) rotate(-84.808)" fill="#a39999"/>
    <ellipse id="Elipse_4922" data-name="Elipse 4922" cx="19.337" cy="38.025" rx="19.337" ry="38.025" transform="matrix(0.09, -0.996, 0.996, 0.09, 140.102, 1046.916)" fill="#5b4f4f"/>
    <path id="Trazado_621192" data-name="Trazado 621192" d="M204.6,1030.021a234.867,234.867,0,0,1,3.718-79.939c-14.116,4.007-29.463,8.152-43.976,10.325a352.1,352.1,0,0,1-8.665,64.4,17.738,17.738,0,0,0-.646,4.5c.213,6.84,7.889,10.728,14.566,12.23,8.868,2,18.4,2.4,26.83-1.013S205.733,1039.04,204.6,1030.021Z" fill="#e2927d"/>
    <path id="Trazado_621193" data-name="Trazado 621193" d="M204.6,1030.021a234.892,234.892,0,0,1,3.207-77.506,15.812,15.812,0,0,0-1.4-1.9c-13.588,3.836-28.2,7.712-42.069,9.788a352.1,352.1,0,0,1-8.665,64.4,17.738,17.738,0,0,0-.646,4.5c.122,3.919,2.7,6.865,6.129,8.953,3.673-12.155,5.48-35.116,8.19-35.013a28.605,28.605,0,0,0,25.372-14.1,187.442,187.442,0,0,0,.025,51.995c.564-.192,1.125-.4,1.68-.623C204.851,1037.107,205.733,1039.04,204.6,1030.021Z" opacity="0.1" style="mix-blend-mode: overlay;isolation: isolate"/>
    <ellipse id="Elipse_4923" data-name="Elipse 4923" cx="46.87" cy="51.919" rx="46.87" ry="51.919" transform="matrix(0.362, -0.932, 0.932, 0.362, 146.388, 882.23)" fill="#5b4f4f"/>
    <path id="Trazado_621194" data-name="Trazado 621194" d="M245.5,844.207c-.089.12-.163.25-.254.368a22.423,22.423,0,0,1-16.888,8.952c-7.7.171-15.055-4.347-19.42-10.692-3.6-5.238-4.7-11.356-6.645-17.106-48.239-12.215-90.686,3.536-99.665,29.452-9.725,28.067,25.422,65.73,78.5,84.121s103.994,10.547,113.719-17.521C302.524,899.619,281.016,866.3,245.5,844.207Z" fill="#756563"/>
    <g id="Grupo_928200" data-name="Grupo 928200">
      <path id="Trazado_621195" data-name="Trazado 621195" d="M220.759,904.623c1.39-17.307,2.632-34.8,1.147-52.042a25.183,25.183,0,0,1-12.972-9.746c-3.6-5.238-4.7-11.356-6.645-17.106-.774-.2-1.543-.365-2.314-.547A181.116,181.116,0,0,1,220.759,904.623Z" fill="#fff" opacity="0.2" style="mix-blend-mode: overlay;isolation: isolate"/>
      <path id="Trazado_621196" data-name="Trazado 621196" d="M206.459,884.279q.011,3.5-.17,6.989A35.918,35.918,0,0,0,206.459,884.279Z" fill="#fff" opacity="0.2" style="mix-blend-mode: overlay;isolation: isolate"/>
      <path id="Trazado_621197" data-name="Trazado 621197" d="M198.082,860.464c4.477,7.21,7.795,15.427,8.377,23.815a132.631,132.631,0,0,0-15.3-60.881,129.405,129.405,0,0,0-24.136-1.845c3.6,4.507,7.16,9.058,10.859,13.48C184.837,843.344,192.365,851.257,198.082,860.464Z" fill="#fff" opacity="0.2" style="mix-blend-mode: overlay;isolation: isolate"/>
    </g>
    <path id="Trazado_621198" data-name="Trazado 621198" d="M290.8,929.479q-.025-1.4-.063-2.79c-.116-4.188-.284-8.434-1.535-12.432a38.835,38.835,0,0,0-6.629-11.715c-22.247-29.113-60.343-45.279-96.737-41.051-10.326,1.2-21.926,5.156-25.581,14.888,11.458,21.166,14.92,46.167,28.359,65.35C233.715,955.338,275.884,950,290.8,929.479Z" opacity="0.2" style="mix-blend-mode: overlay;isolation: isolate"/>
    <path id="Trazado_621199" data-name="Trazado 621199" d="M258.339,947.239a73.927,73.927,0,0,0,6.1-28.617c.052-23.928-13.94-43.569-34.9-54.227-16.537-8.407-40.181-15.877-58.459-10.737a43.534,43.534,0,0,0-28.747,57.987c1.641,4.251,4.551,7.806,5.332,12.194l.011.063a183.793,183.793,0,0,0,33.45,15.4C209.46,949.119,237.174,951.458,258.339,947.239Z" opacity="0.2" style="mix-blend-mode: overlay;isolation: isolate"/>
    <path id="Trazado_621200" data-name="Trazado 621200" d="M234.712,922.244c-2.893-1.858-6.281-2.758-9.607-3.632,5.848-9.854,11.623-21.582,10.4-32.744-14.99-16.6-41.969-21.58-63.935-25.471-.667.208-1.335.416-2,.646-4.866,6.564-9.835,13.076-14.982,19.43a13.33,13.33,0,0,0-2.575,11.561c1.057,4.327,2.213,8.8,2.857,12.845a32.946,32.946,0,0,1-5.56,8.633,13.325,13.325,0,0,0-3.2,12.567c4.949,19.286,4.81,40.05-2.892,58.309A30.788,30.788,0,0,0,168.1,996.034c13.2-.436,21.849-12.059,31.754-20.793s18.1-19.689,22.212-32.239c6.689,2.69,13.939-.911,17.015-7.432a10.485,10.485,0,0,0,1.094-5.024C239.974,927.113,237.6,924.1,234.712,922.244Z" fill="#f4ab92"/>
    <path id="Trazado_621201" data-name="Trazado 621201" d="M234.712,922.244c-2.893-1.858-6.281-2.758-9.607-3.632,5.848-9.854,11.623-21.582,10.4-32.744a48.809,48.809,0,0,0-6.562-6.019c1.562,7.669.565,15.9-4.539,21.648a5.887,5.887,0,0,1-2.811,1.985c-3.21.8-5.515-2.851-7.411-5.563-5.449-7.794-15.283-10.98-24.46-13.476-8.777-2.387-17.8-4.611-26.868-3.843a20.816,20.816,0,0,0-10.241,3.27,13.361,13.361,0,0,0-.6,8.164c1.057,4.327,2.213,8.8,2.857,12.845a39.887,39.887,0,0,1-3.7,6.392,91.6,91.6,0,0,1,35.846,3.71c10.623,3.316,21.791,10.1,23.67,21.065a25.09,25.09,0,0,1-.956,11.193c-5.733,19.651-26.51,32.179-46.944,33.4-5.691.34-9.2-.526-11.539-5.673a24.912,24.912,0,0,0-3.435-5.752,77.794,77.794,0,0,1-4.6,15.171A30.788,30.788,0,0,0,168.1,996.034c13.2-.436,21.849-12.059,31.754-20.793s18.1-19.689,22.212-32.239c6.689,2.69,13.939-.911,17.015-7.432a10.485,10.485,0,0,0,1.094-5.024C239.974,927.113,237.6,924.1,234.712,922.244Z" opacity="0.1" style="mix-blend-mode: overlay;isolation: isolate"/>
    <path id="Trazado_621202" data-name="Trazado 621202" d="M155.507,958.839c3,1.97,6.332,3.745,9.918,3.756a5.512,5.512,0,0,0,2.409-.45,4.955,4.955,0,0,0,1.635-1.34,8.532,8.532,0,0,0,.411-9.753,10.721,10.721,0,0,0-8.841-4.7c-2.974-.046-8.044,1.282-9.816,3.968C149.007,953.677,152.713,957,155.507,958.839Z" fill="#ce7867"/>
    <path id="Trazado_621203" data-name="Trazado 621203" d="M129.693,937.056c-5.7-4.168-9.981-9.973-13.908-15.847-3.156,12.775,2.617,27.416,13.965,34.079s23.473,4.311,31.988-5.721c1.451,14.935,14.477,27.913,29.418,29.307s30.144-8.948,34.334-23.357c-4.9,7.757-15.828,8.234-24.992,7.842-3.065-.131-6.206-.278-9.032-1.47-4.557-1.92-7.6-6.228-10.184-10.441-5.074-8.256-12.171-16.729-23.012-14.3C145.792,939.944,141.8,945.9,129.693,937.056Z" fill="#aaa19f"/>
    <path id="Trazado_621204" data-name="Trazado 621204" d="M170.358,976.429a38.935,38.935,0,0,1-41.313,32.7c3.8-3.515,3.614-9.416,3.964-14.578.536-7.931,3.989-20.428,12.593-23.462,4.161-1.467,6.469.8,10.185,2.507A27.958,27.958,0,0,0,170.358,976.429Z" fill="#aaa19f"/>
    <path id="Trazado_621205" data-name="Trazado 621205" d="M171.7,908.958a87.5,87.5,0,0,1-15.533,25.719c-.917,1.054-1.929,2.379-1.492,3.706a3.211,3.211,0,0,0,.973,1.329c2.779,2.493,7.056,2.809,10.541,1.472a19.32,19.32,0,0,0,8.434-7.12,34.845,34.845,0,0,0,4.691-30.619c-.733-2.237-3.525-8.711-6.27-5.443C172.108,899.116,172.559,906.741,171.7,908.958Z" fill="#e2927d"/>
    <path id="Trazado_621206" data-name="Trazado 621206" d="M175.825,880.56c-6.475-5.286-20.811-5.34-26.1,1.873a1.927,1.927,0,0,0,1.147,2.82c4.056.582,8.013-.968,12.057-1.322,4.148-.363,8.141-.094,12.245-.926A1.471,1.471,0,0,0,175.825,880.56Z" fill="#aaa19f"/>
    <path id="Trazado_621207" data-name="Trazado 621207" d="M208.057,888.208c-5.431-3.015-10.74-5.759-16.816-3.3-.457.185-.581.924,0,1.058,2.755.632,5.307,3.077,7.6,4.61,2.085,1.39,4.216,2.713,6.292,4.117,3.7,2.5,6.806,6.368,11.208,7.53a1.851,1.851,0,0,0,2.314-1.763C218.876,894.52,212.66,890.763,208.057,888.208Z" fill="#aaa19f"/>
    <path id="Trazado_621208" data-name="Trazado 621208" d="M158,895.914a7.439,7.439,0,0,0-5.12,8.088c.963,5.7,7.888,7.359,12.094,3.913,3.9-3.193,2.489-8.849-1.445-11.335A6.422,6.422,0,0,0,158,895.914Z" fill="#0a0a0a"/>
    <path id="Trazado_621209" data-name="Trazado 621209" d="M205.6,907.092c-2.565-6.071-11.441-5.989-13.94.2-1.746,4.319,1.605,8.406,5.767,9.4a6.954,6.954,0,0,0,8.315-9.233C205.7,907.331,205.649,907.21,205.6,907.092Z" fill="#0a0a0a"/>
    <path id="Trazado_621210" data-name="Trazado 621210" d="M270.179,859.561a90.717,90.717,0,0,0-11.54-10.194,56.994,56.994,0,0,0-6.276-3.905c-1.646-.93-4.25-3.255-6.079-3.061-3.639.384-6.083,5.479-9.286,6.989-4.928,2.323-11.136,1.072-15.937-1.109a24.438,24.438,0,0,1-13.585-14.668c-.527-1.434-1.4-2.854-1.57-4.395-.24-2.159.563-3.8-1.228-5.449a12.142,12.142,0,0,0-5.027-2.363,49.239,49.239,0,0,0-8.9-1.191,130.826,130.826,0,0,0-23.691.18c-15.469,1.509-29.252,6.515-43.435,12.5-.057.024-.034.117.025.094,13.085-4.908,27.8-6.934,41.66-7.98a170.722,170.722,0,0,1,20.181-.345,63.577,63.577,0,0,1,11.142,1.1c1.81.406,3.433,1.223,5.128,1.777-1.368,11.133,8.734,22.167,18.384,26,5.338,2.122,11.823,2.969,17.291.822,3.2-1.258,7.6-4.291,9.527-7.825,1.888,2.053,4.6,3.587,6.718,5.169,4.416,3.295,8.61,6.853,12.679,10.565,3.637,3.317,7.167,6.754,10.53,10.35,3.677,3.932,6.623,8.514,10.113,12.6a.242.242,0,0,0,.4-.234C283.824,875.714,276.973,866.755,270.179,859.561Z" fill="#a39999"/>
    <path id="Trazado_621211" data-name="Trazado 621211" d="M156.15,844.165c1.978,8.81,9.186,15.782,17.455,19.409s17.515,4.337,26.543,4.234a19.975,19.975,0,0,1-11.137,2.837c4.365,2.888,8.809,5.814,13.818,7.331s10.754,1.452,15.141-1.4c.56,3.306,2.056,5.227,3.618,8.194,5.352,10.164,6.368,22.717,3.517,33.844,0,0,11.779,2.313,14.054,8.61,0,0,8.165-26.614-1.584-50.437-7.233-17.673-67.047-18.747-74.717-29.147S156.15,844.165,156.15,844.165Z" fill="#aaa19f"/>
    <path id="Trazado_621212" data-name="Trazado 621212" d="M219.714,1073.426c-4.964,15.76-2.034,34.573,9.912,45.988,6.97,6.659,16.307,10.346,25.734,12.36,9.283,1.984,19.308,2.415,27.952-1.51,11.261-5.113,18.432-17.24,19.4-29.569s-3.623-24.644-10.847-34.682c-7.4-10.282-27.116-32.55-41.648-29.662C236.363,1039.1,223.531,1061.308,219.714,1073.426Z" fill="#a39999"/>
    <path id="Trazado_621213" data-name="Trazado 621213" d="M106.769,1017.911c-10.389-1.437-20.757,2.7-29.852,7.919-11.6,6.66-22.484,15.758-27.563,28.129s-2.8,28.431,7.955,36.383c6.3,4.657,14.479,5.994,22.311,5.924,6.072-.054,12.25-.9,17.717-3.545,10.316-4.987,16.642-15.5,21.932-25.668C128.15,1049.988,133.519,1021.612,106.769,1017.911Z" fill="#a39999"/>
    <path id="Trazado_621214" data-name="Trazado 621214" d="M109.11,1018.316c3.765,9.906,5.209,20.614,2.961,30.9-3.281,15.008-15.618,28.448-30.885,30.157s-31.461-10.938-31.016-26.294c.011-.376.049-.746.078-1.119-.313.658-.616,1.322-.894,2-5.079,12.371-2.8,28.431,7.955,36.383,6.3,4.657,14.479,5.994,22.311,5.924,6.072-.054,12.25-.9,17.717-3.545,10.316-4.987,16.642-15.5,21.932-25.668C127.881,1050.505,133.188,1023.323,109.11,1018.316Z" opacity="0.2" style="mix-blend-mode: overlay;isolation: isolate"/>
    <path id="Trazado_621215" data-name="Trazado 621215" d="M291.162,1065.046a61.75,61.75,0,0,1,1.713,11.071c.535,8.685-1.013,18-6.8,24.5-7.751,8.71-20.974,10.109-32.47,8.16a42.927,42.927,0,0,1-14.54-4.86c-10.487-6.116-16.45-18.442-16.745-30.579a44.544,44.544,0,0,1,.5-7.729,65.081,65.081,0,0,0-3.109,7.819c-4.964,15.76-2.034,34.572,9.912,45.988,6.97,6.659,16.307,10.346,25.734,12.36,9.283,1.984,19.308,2.415,27.952-1.51,11.261-5.113,18.432-17.24,19.4-29.569s-3.623-24.644-10.847-34.682Q291.532,1065.545,291.162,1065.046Z" opacity="0.2" style="mix-blend-mode: overlay;isolation: isolate"/>
    <g id="Grupo_928201" data-name="Grupo 928201">
      <path id="Trazado_621216" data-name="Trazado 621216" d="M271.551,1044.481c-4.327-3.4-8.862-6.158-13.239-7.5.558,1.235,1.106,2.475,1.629,3.727,12.1,28.925,13.6,60.719,12.66,92.326a36.381,36.381,0,0,0,6.126-1.125A157.033,157.033,0,0,0,281.351,1080,126.24,126.24,0,0,0,271.551,1044.481Z" fill="#fff" opacity="0.2" style="mix-blend-mode: overlay;isolation: isolate"/>
      <path id="Trazado_621217" data-name="Trazado 621217" d="M255.36,1131.774a66.175,66.175,0,0,0,9.756,1.375c6.549-19.03,6.2-40.177,1.92-59.961a223.757,223.757,0,0,0-11.874-36.914,14.761,14.761,0,0,0-4.942.077c-4.526.9-8.94,3.881-12.968,7.9a204.881,204.881,0,0,1,12.916,51.24,200.753,200.753,0,0,1,.985,35.259C252.548,1131.13,253.952,1131.474,255.36,1131.774Z" fill="#fff" opacity="0.2" style="mix-blend-mode: overlay;isolation: isolate"/>
    </g>
    <path id="Trazado_621218" data-name="Trazado 621218" d="M156.46,899.852a1.566,1.566,0,0,0-2.112,1.015,1.6,1.6,0,0,0,1.093,1.925,1.575,1.575,0,0,0,1.981-1.51A1.554,1.554,0,0,0,156.46,899.852Z" fill="#fff"/>
    <path id="Trazado_621219" data-name="Trazado 621219" d="M194.532,906.471a1.436,1.436,0,0,0-1.433,2.139,1.659,1.659,0,0,0,1.137.74,1.416,1.416,0,0,0,.162.067,1.056,1.056,0,0,0,1.287-1.142A1.391,1.391,0,0,0,194.532,906.471Z" fill="#fff"/>
  </g>
</svg>
