<svg xmlns="http://www.w3.org/2000/svg" width="171.563" height="171.563" viewBox="0 0 171.563 171.563">
  <g id="Grupo_932079" data-name="Grupo 932079" transform="translate(-714 -6338.461)">
    <g id="Grupo_929458" data-name="Grupo 929458" transform="translate(714 6338.461)">
      <g id="Elipse_4803" data-name="Elipse 4803" fill="#406834" stroke="#fff" stroke-width="5">
        <circle cx="85.781" cy="85.781" r="85.781" stroke="none"/>
        <circle cx="85.781" cy="85.781" r="83.281" fill="none"/>
      </g>
    </g>
    <g id="epico" transform="translate(702.218 6384)">
      <path id="Trazado_633069" data-name="Trazado 633069" d="M220.178,59.22a11.127,11.127,0,0,0-20.522-5.963,1.173,1.173,0,1,0,1.98,1.259,8.782,8.782,0,1,1-1.365,4.7,1.173,1.173,0,1,0-2.346,0,11.126,11.126,0,1,0,22.253,0Z" transform="translate(-108.965 -40.579)" fill="#fff"/>
      <path id="Trazado_633070" data-name="Trazado 633070" d="M126.115,73.377h-.2a21.017,21.017,0,0,1-1.232-6.193,21.082,21.082,0,0,1,1.233-6.193h.2a1.173,1.173,0,0,0,0-2.346H116.57c.027-.045.054-.091.078-.139L120.024,52a2.007,2.007,0,0,0-1.782-2.931h-7.293a1.173,1.173,0,0,0,0,2.346h6.735l-3.118,6.014a.216.216,0,0,1-.192.117H83.335a1.09,1.09,0,0,1-.776-.322l-8.111-8.111,2.67.815a34.128,34.128,0,0,0,9.969,1.487h18.489a1.173,1.173,0,1,0,0-2.346h-1.625V38.6l3.732-1.734A19.331,19.331,0,1,0,91.4,1.8l-21.27,9.88a2.318,2.318,0,0,0,.468,4.365,17.556,17.556,0,0,1,12.267,9.825l.924,1.99A17.555,17.555,0,0,1,83.38,43.57a2.276,2.276,0,0,0,.37,2.665,2.3,2.3,0,0,0,1.674.73,2.342,2.342,0,0,0,.989-.222l15.192-7.057v9.379H87.087A31.778,31.778,0,0,1,77.8,47.68l-4.6-1.4a1.843,1.843,0,0,0-1.842,3.067l9.3,9.3H76.416A7.562,7.562,0,0,0,68.862,66.2v1.971a7.562,7.562,0,0,0,7.554,7.554h1.01v2.638a1.637,1.637,0,0,0,2.606,1.323l2.6-1.9,2.6,1.9a1.639,1.639,0,0,0,2.606-1.323V75.723h38.277a1.173,1.173,0,0,0,0-2.346ZM85.5,44.58a19.882,19.882,0,0,0,.414-17.71l-.924-1.99a19.884,19.884,0,0,0-13.8-11.108l21.2-9.846a16.985,16.985,0,0,1,23.108,21.237,16.874,16.874,0,0,1-8.8,9.572Zm2.338,22.8H103.52a1.173,1.173,0,0,0,0-2.346H76.853a1.173,1.173,0,0,0,0,2.346h8.639v9.589l-2.167-1.585a1.173,1.173,0,0,0-1.385,0l-2.167,1.585V72.541a1.173,1.173,0,0,0-2.346,0v.835h-1.01a5.214,5.214,0,0,1-5.208-5.208V66.2a5.214,5.214,0,0,1,5.208-5.208h47.026a22.027,22.027,0,0,0-1.107,6.193,22.02,22.02,0,0,0,1.107,6.193H87.837Z" transform="translate(0 0)" fill="#fff"/>
      <path id="Trazado_633071" data-name="Trazado 633071" d="M261.129,442.074H250.382a1.173,1.173,0,1,0,0,2.346h10.747a1.173,1.173,0,1,0,0-2.346Z" transform="translate(-152.235 -372.999)" fill="#fff"/>
    </g>
  </g>
</svg>
