<svg xmlns="http://www.w3.org/2000/svg" width="158" height="159" viewBox="0 0 158 159">
  <g id="Grupo_929583" data-name="Grupo 929583" transform="translate(-0.304 0.087)">
    <rect id="Rectángulo_335070" data-name="Rectángulo 335070" width="158" height="159" transform="translate(0.304 -0.087)" fill="none"/>
    <g id="excursionismo_3_" data-name="excursionismo(3)" transform="translate(16.719 21.926)">
      <path id="Trazado_638789" data-name="Trazado 638789" d="M128.126,232.541l23.278-2.05a3.88,3.88,0,0,1,4.1,4.832l-6.284,25.07a3.791,3.791,0,1,1-7.286-2.09l4.965-18.325-21.5,2.329Zm0,0" transform="translate(-96.433 -176.86)" fill="#336686"/>
      <path id="Trazado_638790" data-name="Trazado 638790" d="M61.259,95.489A17.339,17.339,0,0,1,47.724,75.042l3.794-18.654A11.893,11.893,0,0,1,65.544,47.1l4.248.863a3.66,3.66,0,0,1,2.856,4.315L64.265,93.5a2.55,2.55,0,0,1-3.006,1.99Zm0,0" transform="translate(-36.431 -35.653)" fill="#f55"/>
      <path id="Trazado_638791" data-name="Trazado 638791" d="M107.408,52.859,99.024,94.077a2.549,2.549,0,0,1-3.006,1.99,17.4,17.4,0,0,1-3.448-1.082A2.559,2.559,0,0,0,94.2,93.1l8.384-41.218a3.659,3.659,0,0,0-2.642-4.264c.121.02.243.042.364.067l4.247.864a3.659,3.659,0,0,1,2.858,4.315Zm0,0" transform="translate(-71.189 -36.231)" fill="#f72b2b"/>
      <path id="Trazado_638792" data-name="Trazado 638792" d="M90.982,24.406,80.64,22.3a4.711,4.711,0,0,1,1.878-9.234l10.342,2.1a4.711,4.711,0,1,1-1.878,9.233Zm0,0" transform="translate(-59.113 -9.592)" fill="#2081f6"/>
      <path id="Trazado_638793" data-name="Trazado 638793" d="M158.156,173.449v73.27H54.141V239.9l23.73-23.729H93.31L106,203.473h14.374L150.4,173.449Zm0,0" transform="translate(-41.636 -133.004)" fill="#9ac6c3"/>
      <path id="Trazado_638794" data-name="Trazado 638794" d="M468.487,173.449v73.27H457.672v-70.21l3.06-3.06Zm0,0" transform="translate(-351.967 -133.004)" fill="#8cb4b1"/>
      <path id="Trazado_638795" data-name="Trazado 638795" d="M401.044,347.289H386.7a3.758,3.758,0,1,1,0-7.516h14.345a3.758,3.758,0,1,1,0,7.516Zm0,0" transform="translate(-294.496 -260.914)" fill="#a2d961"/>
      <path id="Trazado_638796" data-name="Trazado 638796" d="M223.934,121.739a3.419,3.419,0,0,0-.991-6.755l-28.93,2.6a3.419,3.419,0,0,0,.612,6.81l28.929-2.6a3.467,3.467,0,0,0,.38-.055Zm0,0" transform="translate(-146.81 -88.032)" fill="#ff9921"/>
      <path id="Trazado_638797" data-name="Trazado 638797" d="M69.106,230.82,58.151,273.577a3.835,3.835,0,0,0,7.414,1.962L77.24,232.806Zm0,0" transform="translate(-44.627 -177.125)" fill="#628fb1"/>
      <path id="Trazado_638798" data-name="Trazado 638798" d="M102.352,125.15l15.672,1.737A3.86,3.86,0,0,0,122.19,124l5.244-20.66a9.222,9.222,0,1,0-17.791-4.864Zm0,0" transform="translate(-78.712 -70.123)" fill="#ffbd47"/>
      <path id="Trazado_638799" data-name="Trazado 638799" d="M109.644,98.476l-7.292,26.675,3.572.976,7.292-26.675a9.234,9.234,0,0,1,9.493-6.773,9.459,9.459,0,0,0-1.739-.667,9.224,9.224,0,0,0-11.326,6.463Zm0,0" transform="translate(-78.712 -70.124)" fill="#ff9921"/>
      <path id="Trazado_638800" data-name="Trazado 638800" d="M163.836,17.8a11.5,11.5,0,0,1,.1,2.075c-.01.231-.028.462-.051.689a11.371,11.371,0,0,1-22.678-1.17c0-.244.006-.486.021-.728a11.2,11.2,0,0,1,.447-2.541,11.37,11.37,0,0,1,22.1,1.308c.022.119.041.241.059.366Zm0,0" transform="translate(-108.593 -5.764)" fill="#fecaa8"/>
      <path id="Trazado_638801" data-name="Trazado 638801" d="M163.836,17.8a11.5,11.5,0,0,1,.1,2.075c-.01.231-.028.462-.051.689a33.058,33.058,0,0,1-6.842,1.75,23.88,23.88,0,0,1-15.836-2.92c0-.244.006-.486.021-.727a11.187,11.187,0,0,1,.447-2.541,11.37,11.37,0,0,1,22.1,1.307c.022.119.041.241.059.366Zm0,0" transform="translate(-108.593 -5.767)" fill="#ffb38c"/>
      <path id="Trazado_638802" data-name="Trazado 638802" d="M165.34,17.437c-13.949,5.6-22.1-1.306-22.1-1.306a11.37,11.37,0,0,1,22.1,1.306Zm0,0" transform="translate(-110.155 -5.767)" fill="#336686"/>
      <path id="Trazado_638803" data-name="Trazado 638803" d="M68.415,116.3a3.417,3.417,0,0,1-2.843,3.91l-13.093,2.069L44.7,131.513a3.382,3.382,0,0,1-4.732.435l-.053-.043a3.384,3.384,0,0,1-.442-4.8L48.073,116.9a3.422,3.422,0,0,1,2.08-1.173l14.352-2.267a3.418,3.418,0,0,1,3.91,2.843Zm0,0" transform="translate(-29.739 -86.838)" fill="#ffbd47"/>
      <path id="Trazado_638804" data-name="Trazado 638804" d="M49.482,415.165l11.376,3.774a2.44,2.44,0,0,0,2.862-3.569,17.1,17.1,0,0,0-9.283-7.442l-2.3-.763a2.225,2.225,0,0,0-2.813,1.411l-1.253,3.777a2.226,2.226,0,0,0,1.412,2.813Zm0,0" transform="translate(-36.88 -312.653)" fill="#2081f6"/>
      <path id="Trazado_638805" data-name="Trazado 638805" d="M341.775,110.072l4.128-.695a2.65,2.65,0,0,0,2.124-1.94l.841-3.2a2.65,2.65,0,0,0-3-3.288l-5.47.92a4.158,4.158,0,0,0,1.379,8.2Zm0,0" transform="translate(-259.109 -77.221)" fill="#fecaa8"/>
      <path id="Trazado_638806" data-name="Trazado 638806" d="M17.916,187.277,15.655,190.8a2.651,2.651,0,0,1-2.618,1.19l-3.273-.484a2.65,2.65,0,0,1-1.842-4.053l3-4.668a4.158,4.158,0,1,1,7,4.491Zm0,0" transform="translate(-5.766 -138.713)" fill="#fecaa8"/>
      <path id="Trazado_638807" data-name="Trazado 638807" d="M347.786,61.289c0-1.624-2.431-2.941-5.43-2.941s-5.43,1.317-5.43,2.941,2.431,2.94,5.43,2.94S347.786,62.913,347.786,61.289Zm0,0" transform="translate(-259.109 -44.487)" fill="#2081f6"/>
      <path id="Trazado_638808" data-name="Trazado 638808" d="M93.115,97.145l2.491.506a1.693,1.693,0,0,0,.347.035,1.732,1.732,0,0,0,.343-3.429L93.8,93.75a1.732,1.732,0,1,0-.69,3.395Zm0,0" transform="translate(-70.541 -71.686)"/>
      <path id="Trazado_638809" data-name="Trazado 638809" d="M448.115,165.953h-7.756a1.728,1.728,0,0,0-1.224.508l-7.446,7.446a1.732,1.732,0,1,0,2.449,2.449l6.939-6.939h5.306v71.537a1.732,1.732,0,1,0,3.464,0V167.685a1.732,1.732,0,0,0-1.732-1.732Zm0,0" transform="translate(-331.595 -127.239)"/>
      <path id="Trazado_638810" data-name="Trazado 638810" d="M97.047,54.613A1.732,1.732,0,0,0,94.6,52.163l-4.769,4.768L86.85,33.9l.232-.04a4.389,4.389,0,0,0,3.511-3.207l.841-3.2a4.382,4.382,0,0,0-4.966-5.435l-1.13.189-.117-.9c3.062-.532,5.189-2.292,5.189-4.506,0-2.664-3.079-4.672-7.162-4.672s-7.162,2.008-7.162,4.672c0,2.324,2.343,4.148,5.651,4.577l.182,1.409-.92.154a5.852,5.852,0,0,0-3.771,2.327,5.206,5.206,0,0,0-1.249-.042L50.286,27.535a11.015,11.015,0,0,0-.856-2.013,13.112,13.112,0,0,0,7.623-12.764c.223-.1.445-.2.67-.3A1.731,1.731,0,0,0,56.351,9.28,13.1,13.1,0,0,0,34.94,4.123a6.418,6.418,0,0,0-.848-.24L23.75,1.78A6.444,6.444,0,0,0,17.956,12.7a13.606,13.606,0,0,0-4.565,7.692L9.946,37.325,8.4,39.152a5.1,5.1,0,0,0-.828,1.377c-.06.011-.121.022-.181.035a5.848,5.848,0,0,0-3.7,2.573L.7,47.8a4.383,4.383,0,0,0,3.047,6.7s3.7.53,3.912.53a4.391,4.391,0,0,0,3.69-2.015l.417-.648a18.916,18.916,0,0,0,9.2,8.081L17.62,73.49a1.732,1.732,0,1,0,3.356.86l4.453-17.382,4.889.542-10.1,36.972A18.83,18.83,0,0,0,18.1,93.63L16.2,93l2.818-11a1.732,1.732,0,1,0-3.356-.86L12.569,93.206A3.922,3.922,0,0,0,10.8,95.376L9.547,99.153a3.963,3.963,0,0,0,2.51,5l.553.183-1.329,1.329a1.732,1.732,0,0,0-.507,1.225v6.822a1.732,1.732,0,0,0,3.464,0V107.61l2.051-2.051,1.216.4a1.729,1.729,0,0,0,1.671,2.185H36.293a1.732,1.732,0,1,0,0-3.464H28.862a4.147,4.147,0,0,0-.536-2.857,18.824,18.824,0,0,0-3.785-4.52L36.953,84.894H51.675a1.731,1.731,0,0,0,1.224-.507L65.086,72.2H77.01V87.975a1.732,1.732,0,0,0,3.464,0V71.186ZM79.555,16.8c.147-.355,1.43-1.209,3.693-1.209s3.546.854,3.693,1.209c-.147.354-1.43,1.208-3.693,1.208S79.7,17.156,79.555,16.8ZM80,27.344a2.415,2.415,0,0,1,1.573-.986l5.47-.919a.933.933,0,0,1,.161-.014.919.919,0,0,1,.879,1.152l-.841,3.2a.92.92,0,0,1-.736.671l-4.128.695A2.425,2.425,0,0,1,80,27.344ZM76.086,28.7a5.951,5.951,0,0,0,.081,1.031,5.856,5.856,0,0,0,.861,2.209,1.7,1.7,0,0,1-.248.073,1.842,1.842,0,0,1-.189.028L50.208,34.407l.19-.75a10.976,10.976,0,0,0,.383-2.689ZM51.671,19.41a9.571,9.571,0,0,1-6.359,3.736,9.635,9.635,0,0,1-10.958-9.934,22.044,22.044,0,0,0,10.233,2.4,28.846,28.846,0,0,0,9.02-1.525,9.566,9.566,0,0,1-1.937,5.324ZM42.654,4.058a9.629,9.629,0,0,1,10.482,6.528c-9.38,3.267-15.674.475-17.963-.89a9.744,9.744,0,0,1,1.121-1.9,9.572,9.572,0,0,1,6.36-3.735ZM19.547,7.5A2.983,2.983,0,0,1,23.06,5.175L32.6,7.116a12.946,12.946,0,0,0-1.7,5.733l-9.028-1.836A2.982,2.982,0,0,1,19.547,7.5ZM16.785,21.079a10.149,10.149,0,0,1,4.627-6.624l9.784,1.99a13.016,13.016,0,0,0,2.5,5.261,10.857,10.857,0,0,0-3.515,3.887l-7.3,1.154-.546-.111a1.728,1.728,0,0,0-1.535.439l-.655.1a5.15,5.15,0,0,0-3.133,1.767L14.6,31.8ZM7.523,51.564,4.251,51.08a.918.918,0,0,1-.638-1.4l3-4.668a2.408,2.408,0,0,1,1.525-1.06,2.442,2.442,0,0,1,.521-.057,2.427,2.427,0,0,1,2.037,3.737L8.43,51.151a.918.918,0,0,1-.907.413Zm6.4-2.621a5.848,5.848,0,0,0,.56-1.792,5.1,5.1,0,0,0,1.8-1.361l.88-1.042a14.491,14.491,0,0,0,4.945,9.32l-.137.5a1.731,1.731,0,0,0,.164,1.306l-.3,1.182a15.509,15.509,0,0,1-7.907-8.114Zm9.233,1.286a11.011,11.011,0,0,1-2.412-9.305l.115-.561,2.79-3.308,3.25-.513Zm2.2,53.377a.707.707,0,0,1-.829,1.035l-11.376-3.774a.494.494,0,0,1-.313-.623l1.253-3.776a.484.484,0,0,1,.246-.286.489.489,0,0,1,.376-.027l2.3.763a15.371,15.371,0,0,1,8.342,6.688ZM36.235,81.43a1.728,1.728,0,0,0-1.224.508l-10.7,10.7,7.021-25.7,16.793-1.82L43.835,80.957q-.072.235-.123.473Zm11.061,0,4.838-17.86A1.732,1.732,0,0,0,50.276,61.4l-17.96,1.947L33.8,57.9s5.726.623,5.929.623a5.628,5.628,0,0,0,4.441-2.2l10.95-.964a2.147,2.147,0,0,1,2.264,2.685l-5.671,22.63-.76.759ZM64.368,68.736a1.732,1.732,0,0,0-1.225.507l-6.662,6.662L60.745,58.9a5.611,5.611,0,0,0-5.926-6.989l-9.261.816.775-3.055a1.732,1.732,0,0,0-3.358-.853L41.8,53.451a2.137,2.137,0,0,1-2.3,1.591L25.845,53.528l4.806-17.58,5.454-.862a1.732,1.732,0,1,0-.541-3.422L22.47,33.733a1.73,1.73,0,0,0-1.054.595L13.767,43.4a5.863,5.863,0,0,0-1.936-2.037q-.249-.16-.511-.293l8.338-9.888a1.69,1.69,0,0,1,1.027-.578l14.352-2.267a1.732,1.732,0,0,0,.111-3.4,7.582,7.582,0,0,1,1.131-.744A13.067,13.067,0,0,0,43.974,26.7a13.2,13.2,0,0,0,1.816-.126c.069-.01.138-.023.208-.034a7.48,7.48,0,0,1,1.053,6.216c0,.011-.005.021-.007.031l-2.124,8.366a1.731,1.731,0,0,0,1.252,2.1,1.71,1.71,0,0,0,.428.054,1.734,1.734,0,0,0,1.678-1.306L49.3,37.966l27.6-2.478a5.26,5.26,0,0,0,.57-.083,5.161,5.161,0,0,0,2.358-1.175,5.826,5.826,0,0,0,3.125.329l.478-.08,3.3,25.546-8.712,8.712Zm0,0" transform="translate(0 0)"/>
      <path id="Trazado_638811" data-name="Trazado 638811" d="M214.008,400.5H205.9a1.733,1.733,0,0,0-1.732,1.732V414.7a1.732,1.732,0,1,0,3.464,0v-10.74h6.379a1.732,1.732,0,1,0,0-3.464Zm0,0" transform="translate(-157.009 -307.616)"/>
      <path id="Trazado_638812" data-name="Trazado 638812" d="M312.609,425.684h-.041a1.732,1.732,0,0,0-.015,3.463h.041a1.732,1.732,0,0,0,.015-3.464Zm0,0" transform="translate(-239.045 -326.983)"/>
      <path id="Trazado_638813" data-name="Trazado 638813" d="M459.886,309.757h.016a1.732,1.732,0,0,0,.014-3.463h-.025a1.732,1.732,0,0,0-.031,3.464Zm0,0" transform="translate(-352.331 -235.166)"/>
      <path id="Trazado_638814" data-name="Trazado 638814" d="M179.562,401.767h-.042a1.732,1.732,0,0,0-.015,3.464h.042a1.732,1.732,0,0,0,.015-3.464Zm0,0" transform="translate(-136.726 -308.589)"/>
      <path id="Trazado_638815" data-name="Trazado 638815" d="M146.368,425.684h-.015a1.732,1.732,0,0,0-.015,3.463h.042a1.732,1.732,0,0,0,.014-3.464Zm0,0" transform="translate(-111.219 -326.983)"/>
      <path id="Trazado_638816" data-name="Trazado 638816" d="M395.277,332.273H380.932a5.49,5.49,0,0,0-1.118,10.866V354.8a1.732,1.732,0,0,0,3.464,0V343.254H392.7v25.608a1.732,1.732,0,1,0,3.464,0V343.181a5.49,5.49,0,0,0-.889-10.907Zm0,7.516H380.932a2.026,2.026,0,0,1,0-4.053h14.345a2.026,2.026,0,0,1,0,4.053Zm0,0" transform="translate(-288.729 -255.146)"/>
      <path id="Trazado_638817" data-name="Trazado 638817" d="M258.352,363.449h-8.674a1.732,1.732,0,1,0,0,3.464h6.942v3.419a1.732,1.732,0,0,0,3.464,0v-5.151A1.733,1.733,0,0,0,258.352,363.449Zm0,0" transform="translate(-190.679 -279.122)"/>
    </g>
  </g>
</svg>
