<svg xmlns="http://www.w3.org/2000/svg" width="50.813" height="40.488" viewBox="0 0 50.813 40.488">
  <g id="libro" transform="translate(0 -52.014)">
    <g id="Grupo_735234" data-name="Grupo 735234" transform="translate(0 52.014)">
      <path id="Trazado_618436" data-name="Trazado 618436" d="M49.82,53.956H45.991v-.95A.992.992,0,0,0,45,52.014H29.813a.992.992,0,0,0-.463.115l-3.944,2.08-3.944-2.08A.993.993,0,0,0,21,52.014H5.814a.992.992,0,0,0-.992.992v.95H.992A.992.992,0,0,0,0,54.949V89.361a.992.992,0,0,0,.992.992H19.867a2.309,2.309,0,0,0,2.3,2.149h6.478a2.309,2.309,0,0,0,2.3-2.149H49.82a.992.992,0,0,0,.992-.992V54.949A.992.992,0,0,0,49.82,53.956ZM37.365,54v8.7l-1.846-.62a.992.992,0,0,0-.632,0l-1.846.62V54ZM6.806,54H20.754l3.66,1.93V59.7a.992.992,0,1,0,1.985,0V55.929L30.059,54h1V64.08a.992.992,0,0,0,1.308.941l2.839-.953,2.839.953a.992.992,0,0,0,1.308-.941V54h4.657V83.253H29.813a.992.992,0,0,0-.463.115L26.4,84.924V68.674a.992.992,0,0,0-1.985,0v16.25l-2.952-1.557A.993.993,0,0,0,21,83.253H6.806Zm15.04,36.2v-.836a.992.992,0,0,0-.992-.992H1.985V55.941H4.821v28.3a.992.992,0,0,0,.992.992h14.94l3.66,1.93v3.35H22.167a.321.321,0,0,1-.321-.321Zm26.981-1.829H29.959a.992.992,0,0,0-.992.992V90.2a.321.321,0,0,1-.321.321H26.4v-3.35l3.66-1.93H45a.992.992,0,0,0,.992-.992v-28.3h2.837Z" transform="translate(0 -52.014)" fill="#eb6f2d"/>
      <path id="Trazado_618437" data-name="Trazado 618437" d="M93.156,166.666H104.1a.992.992,0,1,0,0-1.985H93.156a.992.992,0,0,0,0,1.985Z" transform="translate(-83.017 -153.5)" fill="#eb6f2d"/>
      <path id="Trazado_618438" data-name="Trazado 618438" d="M93.156,215.006H104.1a.992.992,0,1,0,0-1.985H93.156a.992.992,0,1,0,0,1.985Z" transform="translate(-83.017 -197.042)" fill="#eb6f2d"/>
      <path id="Trazado_618439" data-name="Trazado 618439" d="M93.156,263.347H104.1a.992.992,0,1,0,0-1.985H93.156a.992.992,0,1,0,0,1.985Z" transform="translate(-83.017 -240.586)" fill="#eb6f2d"/>
      <path id="Trazado_618440" data-name="Trazado 618440" d="M105.091,310.694a.992.992,0,0,0-.992-.992H93.156a.992.992,0,1,0,0,1.985H104.1A.992.992,0,0,0,105.091,310.694Z" transform="translate(-83.017 -284.128)" fill="#eb6f2d"/>
      <path id="Trazado_618441" data-name="Trazado 618441" d="M290.573,215.006h10.942a.992.992,0,1,0,0-1.985H290.573a.992.992,0,1,0,0,1.985Z" transform="translate(-260.842 -197.042)" fill="#eb6f2d"/>
      <path id="Trazado_618442" data-name="Trazado 618442" d="M290.573,263.347h10.942a.992.992,0,1,0,0-1.985H290.573a.992.992,0,1,0,0,1.985Z" transform="translate(-260.842 -240.586)" fill="#eb6f2d"/>
      <path id="Trazado_618443" data-name="Trazado 618443" d="M290.573,311.687h10.942a.992.992,0,1,0,0-1.985H290.573a.992.992,0,1,0,0,1.985Z" transform="translate(-260.842 -284.128)" fill="#eb6f2d"/>
      <path id="Trazado_618444" data-name="Trazado 618444" d="M247,166.874a.992.992,0,1,0-.968-.775A1,1,0,0,0,247,166.874Z" transform="translate(-221.595 -153.69)" fill="#eb6f2d"/>
      <g id="Grupo_735233" data-name="Grupo 735233" transform="translate(11.628 4.99)">
        <path id="Trazado_618445" data-name="Trazado 618445" d="M124.136,104.283h-5.98a.992.992,0,1,1,0-1.985h5.98a.992.992,0,1,1,0,1.985Z" transform="translate(-117.164 -102.298)" fill="#eb6f2d"/>
      </g>
    </g>
  </g>
</svg>
