<svg xmlns="http://www.w3.org/2000/svg" xmlns:xlink="http://www.w3.org/1999/xlink" width="573.708" height="596.356" viewBox="0 0 573.708 596.356">
  <defs>
    <clipPath id="clip-path">
      <path id="Trazado_508673" data-name="Trazado 508673" d="M663.8,545.439Z" transform="translate(-663.798 -545.439)" fill="none"/>
    </clipPath>
    <clipPath id="clip-path-2">
      <path id="Trazado_508668" data-name="Trazado 508668" d="M386.349,300.1A108.581,108.581,0,1,0,494.931,191.524,108.582,108.582,0,0,0,386.349,300.1" transform="translate(-386.349 -191.524)" fill="#fff4e1"/>
    </clipPath>
  </defs>
  <g id="Grupo_930233" data-name="Grupo 930233" transform="translate(-182.291 -7033.179)">
    <g id="Grupo_929465" data-name="Grupo 929465" transform="translate(-441.818 -1335.399)">
      <g id="Grupo_929461" data-name="Grupo 929461" transform="translate(635.877 8525.279)">
        <path id="Trazado_508651" data-name="Trazado 508651" d="M262.5,214.163a132.33,132.33,0,0,1,63.147-109.512L322.4,99.045a138.811,138.811,0,0,0-66.376,115.118Z" transform="translate(-256.022 -78.656)" fill="none" stroke="#ffe4b9" stroke-miterlimit="10" stroke-width="23"/>
        <path id="Trazado_508652" data-name="Trazado 508652" d="M705.664,325.227a132.331,132.331,0,0,1-63.151,109.514l3.249,5.607a138.812,138.812,0,0,0,66.381-115.121Z" transform="translate(-434.731 -183.24)" fill="#ffe4b9"/>
        <path id="Trazado_508653" data-name="Trazado 508653" d="M705.664,325.227a132.331,132.331,0,0,1-63.151,109.514l3.249,5.607a138.812,138.812,0,0,0,66.381-115.121Z" transform="translate(-434.731 -183.24)" fill="none" stroke="#ffe4b9" stroke-miterlimit="10" stroke-width="23"/>
        <path id="Trazado_508654" data-name="Trazado 508654" d="M262.5,325.227h-6.479a138.809,138.809,0,0,0,66.24,115.033l3.256-5.6A132.328,132.328,0,0,1,262.5,325.227" transform="translate(-256.022 -183.24)" fill="#ffe4b9"/>
        <path id="Trazado_508655" data-name="Trazado 508655" d="M262.5,325.227h-6.479a138.809,138.809,0,0,0,66.24,115.033l3.256-5.6A132.328,132.328,0,0,1,262.5,325.227Z" transform="translate(-256.022 -183.24)" fill="none" stroke="#ffe4b9" stroke-miterlimit="10" stroke-width="23"/>
        <path id="Trazado_508657" data-name="Trazado 508657" d="M646.011,99.2l-3.255,5.6a132.328,132.328,0,0,1,63.021,109.433h6.479A138.809,138.809,0,0,0,646.011,99.2Z" transform="translate(-434.843 -78.727)" fill="none" stroke="#ffe4b9" stroke-miterlimit="10" stroke-width="23"/>
        <path id="Trazado_508659" data-name="Trazado 508659" d="M393.154,83.857a132.047,132.047,0,0,1,127.092.073l3.254-5.6a138.506,138.506,0,0,0-133.593-.076Z" transform="translate(-317.928 -61.119)" fill="none" stroke="#ffe4b9" stroke-miterlimit="10" stroke-width="23"/>
        <path id="Trazado_508660" data-name="Trazado 508660" d="M519.99,534.924a132.048,132.048,0,0,1-127.091-.077l-3.255,5.6a138.508,138.508,0,0,0,133.593.081Z" transform="translate(-317.807 -280.165)" fill="#ffe4b9"/>
        <path id="Trazado_508661" data-name="Trazado 508661" d="M519.99,534.924a132.048,132.048,0,0,1-127.091-.077l-3.255,5.6a138.508,138.508,0,0,0,133.593.081Z" transform="translate(-317.807 -280.165)" fill="none" stroke="#ffe4b9" stroke-miterlimit="10" stroke-width="23"/>
        <path id="Trazado_508674" data-name="Trazado 508674" d="M660.995,541.7" transform="translate(-443.276 -283.335)" fill="#fff"/>
        <g id="Grupo_735233" data-name="Grupo 735233" transform="translate(219.225 260.377)" opacity="0.25" style="mix-blend-mode: multiply;isolation: isolate">
          <g id="Grupo_735232" data-name="Grupo 735232" transform="translate(0 0)">
            <g id="Grupo_735231" data-name="Grupo 735231" clip-path="url(#clip-path)">
              <path id="Trazado_508672" data-name="Trazado 508672" d="M663.8,545.439" transform="translate(-663.798 -545.439)"/>
            </g>
          </g>
        </g>
      </g>
      <g id="Grupo_929464" data-name="Grupo 929464" transform="translate(952.938 8484.965) rotate(90)">
        <path id="Trazado_508658" data-name="Trazado 508658" d="M4.193,29.354a170.465,170.465,0,0,1,164.068.094l4.2-7.231A178.8,178.8,0,0,0,0,22.118Z" transform="translate(92.919 0)" fill="#ffe4b9"/>
        <path id="Trazado_633072" data-name="Trazado 633072" d="M8.364,148.611A170.83,170.83,0,0,1,89.883,7.238L85.688,0A179.2,179.2,0,0,0,0,148.611Z" transform="translate(0 26.321)" fill="#ffe4b9"/>
        <path id="Trazado_633073" data-name="Trazado 633073" d="M4.2,0,0,7.233A170.828,170.828,0,0,1,81.356,148.505H89.72A179.194,179.194,0,0,0,4.2,0" transform="translate(268.404 26.428)" fill="#ffe4b9"/>
      </g>
      <path id="Trazado_633082" data-name="Trazado 633082" d="M0,3.085,5.135,0,8.141,5,3.006,8.088Z" transform="translate(658.27 8662.647) rotate(121)" fill="#ffb338"/>
      <g id="Grupo_929463" data-name="Grupo 929463" transform="translate(649.78 8539.187)">
        <path id="Trazado_633074" data-name="Trazado 633074" d="M373.1,297.556a119.067,119.067,0,0,1,56.817-98.535L427,193.977a124.9,124.9,0,0,0-59.724,103.579Z" transform="translate(-367.275 -175.632)" fill="#ffb338"/>
        <path id="Trazado_633075" data-name="Trazado 633075" d="M643.929,322.628a119.068,119.068,0,0,1-56.821,98.537l2.923,5.045a124.9,124.9,0,0,0,59.728-103.582Z" transform="translate(-400.153 -194.873)" fill="#ffb338"/>
        <path id="Trazado_633076" data-name="Trazado 633076" d="M446.349,192.864a118.817,118.817,0,0,1,114.353.065l2.928-5.04a124.625,124.625,0,0,0-120.2-.068Z" transform="translate(-378.664 -172.405)" fill="#ffb338"/>
        <path id="Trazado_633077" data-name="Trazado 633077" d="M560.559,441.928a118.81,118.81,0,0,1-114.352-.07l-2.928,5.04a124.623,124.623,0,0,0,120.2.073Z" transform="translate(-378.642 -212.705)" fill="#ffb338"/>
        <path id="Trazado_633078" data-name="Trazado 633078" d="M445.463,195.575l-5.039,2.931-2.923-5.045,5.04-2.93Z" transform="translate(-377.778 -175.116)" fill="#ffb338"/>
        <path id="Trazado_633079" data-name="Trazado 633079" d="M581.333,195.654l5.039,2.931,2.923-5.045-5.04-2.93Z" transform="translate(-399.289 -175.128)" fill="#ffb338"/>
        <path id="Trazado_633080" data-name="Trazado 633080" d="M0,4.963,5.085,8.129,8.068,3.1,3.05,0Z" transform="matrix(-0.469, 0.883, -0.883, -0.469, 191.351, 228.626)" fill="#ffb338"/>
        <path id="Trazado_633081" data-name="Trazado 633081" d="M0,3.113,5,0,8.146,4.94l-5.07,3.1Z" transform="matrix(0.469, 0.883, -0.883, 0.469, 65.223, 224.751)" fill="#ffb338"/>
        <g id="Grupo_929462" data-name="Grupo 929462" transform="translate(16.221 16.259)">
          <g id="Grupo_735225" data-name="Grupo 735225" transform="translate(0 0)" clip-path="url(#clip-path-2)">
            <rect id="Rectángulo_334963" data-name="Rectángulo 334963" width="217.163" height="217.163" transform="translate(0 0)" fill="#fff4e1"/>
          </g>
        </g>
        <path id="Trazado_633083" data-name="Trazado 633083" d="M373.1,322.628h-5.83a124.9,124.9,0,0,0,59.6,103.5l2.929-5.041a119.062,119.062,0,0,1-56.7-98.461" transform="translate(-367.275 -194.873)" fill="#ffb338"/>
        <path id="Trazado_633084" data-name="Trazado 633084" d="M590.176,194.064l-2.929,5.041a119.064,119.064,0,0,1,56.7,98.464h5.829a124.9,124.9,0,0,0-59.6-103.505" transform="translate(-400.174 -175.645)" fill="#ffb338"/>
        <path id="Trazado_633085" data-name="Trazado 633085" d="M0,5.041,5.135,8.126,8.164,3.085,3.029,0Z" transform="translate(248.093 119.276) rotate(59)" fill="#ffb338"/>
      </g>
    </g>
    <path id="Trazado_640172" data-name="Trazado 640172" d="M-42.113,0H-45.18V-5.344h-4.544V0h-3.085V-12.8h3.085v5.08h4.544V-12.8h3.067Zm4.939,0h-2.971V-9.51h2.971ZM-40.32-11.962A1.322,1.322,0,0,1-39.863-13a1.724,1.724,0,0,1,1.187-.4,1.724,1.724,0,0,1,1.187.4,1.322,1.322,0,0,1,.457,1.037,1.322,1.322,0,0,1-.457,1.037,1.724,1.724,0,0,1-1.187.4,1.724,1.724,0,0,1-1.187-.4A1.322,1.322,0,0,1-40.32-11.962Zm9.949,9.29a.684.684,0,0,0-.4-.606,6.016,6.016,0,0,0-1.5-.475A6.853,6.853,0,0,1-34.1-4.4a3.062,3.062,0,0,1-1.1-.971,2.319,2.319,0,0,1-.378-1.31,2.628,2.628,0,0,1,1.081-2.158,4.453,4.453,0,0,1,2.83-.848,4.934,4.934,0,0,1,3.023.853A2.666,2.666,0,0,1-27.5-6.592h-2.971q0-1.143-1.2-1.143a1.194,1.194,0,0,0-.782.259.8.8,0,0,0-.316.646.737.737,0,0,0,.387.642,3.654,3.654,0,0,0,1.235.4,10.671,10.671,0,0,1,1.49.378A2.706,2.706,0,0,1-27.514-2.76,2.491,2.491,0,0,1-28.67-.642a5.068,5.068,0,0,1-2.993.817,5.172,5.172,0,0,1-2.18-.439,3.645,3.645,0,0,1-1.494-1.2,2.707,2.707,0,0,1-.536-1.591H-33.1a1.145,1.145,0,0,0,.439.962,1.808,1.808,0,0,0,1.081.3,1.422,1.422,0,0,0,.91-.246A.787.787,0,0,0-30.371-2.672Zm7.69-9.2V-9.51h1.564v2.057H-22.68V-3.1a1.111,1.111,0,0,0,.193.747,1.037,1.037,0,0,0,.765.211,4.345,4.345,0,0,0,.738-.053V-.079a5.466,5.466,0,0,1-1.67.255,3.1,3.1,0,0,1-2.259-.721,2.954,2.954,0,0,1-.729-2.188v-4.72h-1.213V-9.51h1.213v-2.364Zm2.092,7.031a5.613,5.613,0,0,1,.554-2.536,3.96,3.96,0,0,1,1.591-1.709,4.791,4.791,0,0,1,2.435-.6,4.373,4.373,0,0,1,3.366,1.323,5.076,5.076,0,0,1,1.23,3.6v.105a4.925,4.925,0,0,1-1.235,3.529A4.384,4.384,0,0,1-15.992.176a4.434,4.434,0,0,1-3.261-1.217,4.761,4.761,0,0,1-1.327-3.3Zm2.962.185a3.538,3.538,0,0,0,.413,1.934,1.376,1.376,0,0,0,1.222.615q1.582,0,1.617-2.435v-.3q0-2.558-1.635-2.558-1.485,0-1.608,2.206ZM-4.355-6.829l-.976-.07a1.752,1.752,0,0,0-1.793.879V0h-2.962V-9.51h2.777l.1,1.222a2.294,2.294,0,0,1,2.083-1.4A2.888,2.888,0,0,1-4.3-9.58ZM-.163,0H-3.133V-9.51H-.163ZM-3.309-11.962A1.322,1.322,0,0,1-2.852-13a1.724,1.724,0,0,1,1.187-.4A1.724,1.724,0,0,1-.479-13a1.322,1.322,0,0,1,.457,1.037,1.322,1.322,0,0,1-.457,1.037,1.724,1.724,0,0,1-1.187.4,1.724,1.724,0,0,1-1.187-.4A1.322,1.322,0,0,1-3.309-11.962ZM7.018,0a3.344,3.344,0,0,1-.281-.853A2.754,2.754,0,0,1,4.452.176,3.374,3.374,0,0,1,2.167-.637a2.588,2.588,0,0,1-.94-2.043A2.66,2.66,0,0,1,2.369-5.019,5.821,5.821,0,0,1,5.691-5.81H6.6v-.5q0-1.316-1.134-1.316A.927.927,0,0,0,4.417-6.587H1.455A2.655,2.655,0,0,1,2.628-8.825a4.931,4.931,0,0,1,2.993-.86A4.323,4.323,0,0,1,8.495-8.8,3.086,3.086,0,0,1,9.576-6.363v4.21a4.311,4.311,0,0,0,.4,2V0ZM5.164-1.934a1.652,1.652,0,0,0,.918-.237A1.487,1.487,0,0,0,6.6-2.707V-4.228H5.744Q4.2-4.228,4.2-2.839a.848.848,0,0,0,.272.655A.986.986,0,0,0,5.164-1.934Zm10.16-2.892a5.809,5.809,0,0,1,.976-3.56,3.211,3.211,0,0,1,2.725-1.3,2.731,2.731,0,0,1,2.145,1V-13.5h2.971V0H21.476l-.149-1.02a2.8,2.8,0,0,1-2.32,1.2,3.205,3.205,0,0,1-2.689-1.3A5.993,5.993,0,0,1,15.324-4.825Zm2.962.185q0,2.531,1.477,2.531a1.458,1.458,0,0,0,1.406-.826V-6.557A1.419,1.419,0,0,0,19.78-7.4q-1.371,0-1.485,2.215ZM30.423.176a4.889,4.889,0,0,1-3.542-1.305,4.507,4.507,0,0,1-1.354-3.4v-.246a5.84,5.84,0,0,1,.541-2.575,3.955,3.955,0,0,1,1.578-1.727,4.763,4.763,0,0,1,2.461-.611,4.117,4.117,0,0,1,3.164,1.244,4.887,4.887,0,0,1,1.16,3.467v1.151H28.542a2.135,2.135,0,0,0,.694,1.257,2.066,2.066,0,0,0,1.389.457,2.662,2.662,0,0,0,2.2-.984l1.354,1.6A3.784,3.784,0,0,1,32.607-.277,5.3,5.3,0,0,1,30.423.176ZM30.089-7.4q-1.3,0-1.547,1.723h2.988v-.229a1.467,1.467,0,0,0-.36-1.1A1.434,1.434,0,0,0,30.089-7.4ZM43.229,0H40.258V-13.5h2.971ZM50.41,0a3.344,3.344,0,0,1-.281-.853A2.754,2.754,0,0,1,47.843.176a3.374,3.374,0,0,1-2.285-.813,2.588,2.588,0,0,1-.94-2.043A2.66,2.66,0,0,1,45.76-5.019a5.821,5.821,0,0,1,3.322-.791H50v-.5q0-1.316-1.134-1.316a.927.927,0,0,0-1.055,1.042H44.846A2.655,2.655,0,0,1,46.02-8.825a4.931,4.931,0,0,1,2.993-.86,4.323,4.323,0,0,1,2.874.888,3.086,3.086,0,0,1,1.081,2.435v4.21a4.311,4.311,0,0,0,.4,2V0ZM48.555-1.934a1.652,1.652,0,0,0,.918-.237A1.487,1.487,0,0,0,50-2.707V-4.228h-.861q-1.547,0-1.547,1.389a.848.848,0,0,0,.272.655A.986.986,0,0,0,48.555-1.934ZM-33.258,25h-2.971V11.5h2.971Zm4.948,0H-31.28V15.49h2.971Zm-3.146-11.962A1.322,1.322,0,0,1-31,12a1.724,1.724,0,0,1,1.187-.4,1.724,1.724,0,0,1,1.187.4,1.322,1.322,0,0,1,.457,1.037,1.322,1.322,0,0,1-.457,1.037,1.724,1.724,0,0,1-1.187.4,1.724,1.724,0,0,1-1.187-.4A1.322,1.322,0,0,1-31.456,13.038Zm8.42.088V15.49h1.564v2.057h-1.564V21.9a1.111,1.111,0,0,0,.193.747,1.037,1.037,0,0,0,.765.211,4.345,4.345,0,0,0,.738-.053v2.118a5.466,5.466,0,0,1-1.67.255,3.1,3.1,0,0,1-2.259-.721A2.954,2.954,0,0,1-26,22.267v-4.72h-1.213V15.49H-26V13.126Zm7.33,12.05a4.889,4.889,0,0,1-3.542-1.305,4.507,4.507,0,0,1-1.354-3.4v-.246a5.84,5.84,0,0,1,.541-2.575,3.955,3.955,0,0,1,1.578-1.727,4.763,4.763,0,0,1,2.461-.611,4.117,4.117,0,0,1,3.164,1.244,4.887,4.887,0,0,1,1.16,3.467v1.151h-5.889a2.135,2.135,0,0,0,.694,1.257,2.066,2.066,0,0,0,1.389.457,2.662,2.662,0,0,0,2.2-.984l1.354,1.6a3.784,3.784,0,0,1-1.569,1.217A5.3,5.3,0,0,1-15.706,25.176ZM-16.04,17.6q-1.3,0-1.547,1.723H-14.6v-.229a1.467,1.467,0,0,0-.36-1.1A1.434,1.434,0,0,0-16.04,17.6Zm11.285.571-.976-.07a1.752,1.752,0,0,0-1.793.879V25h-2.962V15.49h2.777l.1,1.222a2.294,2.294,0,0,1,2.083-1.4,2.888,2.888,0,0,1,.826.105ZM1.406,25a3.344,3.344,0,0,1-.281-.853A2.754,2.754,0,0,1-1.16,25.176a3.374,3.374,0,0,1-2.285-.813,2.588,2.588,0,0,1-.94-2.043,2.66,2.66,0,0,1,1.143-2.338A5.821,5.821,0,0,1,.079,19.19H.993v-.5q0-1.316-1.134-1.316A.927.927,0,0,0-1.2,18.413H-4.157a2.655,2.655,0,0,1,1.173-2.239,4.931,4.931,0,0,1,2.993-.86,4.323,4.323,0,0,1,2.874.888,3.086,3.086,0,0,1,1.081,2.435v4.21a4.311,4.311,0,0,0,.4,2V25ZM-.448,23.066a1.652,1.652,0,0,0,.918-.237,1.487,1.487,0,0,0,.523-.536V20.772H.132q-1.547,0-1.547,1.389a.848.848,0,0,0,.272.655A.986.986,0,0,0-.448,23.066Zm9.5-9.94V15.49h1.564v2.057H9.053V21.9a1.111,1.111,0,0,0,.193.747,1.037,1.037,0,0,0,.765.211,4.345,4.345,0,0,0,.738-.053v2.118a5.466,5.466,0,0,1-1.67.255,3.1,3.1,0,0,1-2.259-.721,2.954,2.954,0,0,1-.729-2.188v-4.72H4.878V15.49H6.091V13.126Zm8.394,10.846a3.054,3.054,0,0,1-2.54,1.2,3,3,0,0,1-2.369-.91,3.826,3.826,0,0,1-.8-2.615V15.49H14.7v6.179a1.065,1.065,0,0,0,1.187,1.222,1.548,1.548,0,0,0,1.45-.729V15.49h2.979V25H17.534Zm10.239-5.8-.976-.07a1.752,1.752,0,0,0-1.793.879V25H21.955V15.49h2.777l.1,1.222a2.294,2.294,0,0,1,2.083-1.4,2.888,2.888,0,0,1,.826.105ZM33.847,25a3.344,3.344,0,0,1-.281-.853,2.754,2.754,0,0,1-2.285,1.028A3.374,3.374,0,0,1,29,24.363a2.588,2.588,0,0,1-.94-2.043A2.66,2.66,0,0,1,29.2,19.981a5.821,5.821,0,0,1,3.322-.791h.914v-.5q0-1.316-1.134-1.316a.927.927,0,0,0-1.055,1.042H28.283a2.655,2.655,0,0,1,1.173-2.239,4.931,4.931,0,0,1,2.993-.86,4.323,4.323,0,0,1,2.874.888A3.086,3.086,0,0,1,36.4,18.637v4.21a4.311,4.311,0,0,0,.4,2V25Zm-1.854-1.934a1.652,1.652,0,0,0,.918-.237,1.487,1.487,0,0,0,.523-.536V20.772h-.861q-1.547,0-1.547,1.389a.848.848,0,0,0,.272.655A.986.986,0,0,0,31.992,23.066Z" transform="translate(332 7380.096)" fill="#12263f"/>
    <g id="atencion_1_" data-name="atencion(1)" transform="translate(291.061 7269.371)">
      <path id="Trazado_633086" data-name="Trazado 633086" d="M46.972,59.235H23.81A2.739,2.739,0,0,1,21,56.572v-.093A2.593,2.593,0,0,1,23.81,54H46.972a2.593,2.593,0,0,1,2.81,2.476v.093a2.739,2.739,0,0,1-2.81,2.663Z" transform="translate(5.548 15.784)" fill="#5358a1"/>
      <rect id="Rectángulo_335282" data-name="Rectángulo 335282" width="28.781" height="5.233" rx="2" transform="translate(26.548 75.019)" fill="#5358a1"/>
      <path id="Trazado_633087" data-name="Trazado 633087" d="M38.473,4C23.3,4,11,14.956,11,29.293c0,6.736,2.718,15.953,7.171,23.837C20.853,57.875,26.7,63.97,26.7,69.412H50.247c0-5.442,5.846-11.537,8.527-16.283,4.454-7.883,7.171-17.1,7.171-23.837C65.946,14.956,53.646,4,38.473,4Z" transform="translate(2.466 0.374)" fill="#fccc38"/>
      <circle id="Elipse_4926" data-name="Elipse 4926" cx="3.925" cy="3.925" r="3.925" transform="translate(37.014 13.532)" fill="#f4393d"/>
      <path id="Trazado_633088" data-name="Trazado 633088" d="M30.308,22h5.233l1.308,26.165H29Z" transform="translate(8.014 5.922)" fill="#f4393d"/>
      <path id="Trazado_633089" data-name="Trazado 633089" d="M38.781,3C22.642,3,10,14.685,10,29.6c0,7.085,2.813,16.467,7.341,24.481.813,1.44,1.875,2.954,3,4.556,2.267,3.233,4.786,6.85,5.259,10.055a3.754,3.754,0,0,0-2.517,3.6,3.864,3.864,0,0,0,1.052,2.626,3.911,3.911,0,0,0,2.873,6.579H50.556a3.911,3.911,0,0,0,2.866-6.587A4,4,0,0,0,54.48,72.2a3.7,3.7,0,0,0-2.517-3.505c.475-3.2,2.993-6.821,5.26-10.054,1.124-1.6,2.186-3.116,3-4.556,4.528-8.014,7.341-17.4,7.341-24.481C67.563,14.685,54.921,3,38.781,3ZM51.864,72.29a1.436,1.436,0,0,1-1.5,1.356H27.2A1.451,1.451,0,0,1,25.7,72.2c0-.8.778-1.168,1.5-1.168H50.363C51.086,71.029,51.864,71.394,51.864,72.29Zm-1.308,6.589H27.007a1.308,1.308,0,1,1,0-2.616H50.556a1.308,1.308,0,1,1,0,2.616Zm7.388-26.084c-.751,1.33-1.777,2.793-2.863,4.341-2.456,3.5-5.205,7.423-5.741,11.277H28.223c-.535-3.854-3.285-7.775-5.741-11.277-1.086-1.548-2.112-3.011-2.863-4.341-4.254-7.529-7-16.633-7-23.193,0-13.449,11.493-23.984,26.165-23.984S64.946,16.151,64.946,29.6C64.946,36.161,62.2,45.265,57.944,52.794Z" transform="translate(2.158 0.066)"/>
      <path id="Trazado_633090" data-name="Trazado 633090" d="M33.233,21.466a5.233,5.233,0,1,1,5.233-5.233A5.233,5.233,0,0,1,33.233,21.466Zm0-7.849a2.616,2.616,0,1,0,2.616,2.616A2.616,2.616,0,0,0,33.233,13.616Z" transform="translate(7.706 2.532)"/>
      <path id="Trazado_633091" data-name="Trazado 633091" d="M37.158,49.781H29.308A1.307,1.307,0,0,1,28,48.408L29.31,22.243A1.308,1.308,0,0,1,30.616,21h5.233a1.308,1.308,0,0,1,1.306,1.243l1.308,26.165a1.307,1.307,0,0,1-1.306,1.373Zm-6.474-2.616h5.1L34.605,23.616H31.861Z" transform="translate(7.706 5.614)"/>
      <g id="Grupo_929466" data-name="Grupo 929466" transform="translate(3 2.787)">
        <path id="Trazado_633092" data-name="Trazado 633092" d="M57,23h5.233v2.616H57Z" transform="translate(13.645 3.443)" fill="#fccc38"/>
        <path id="Trazado_633093" data-name="Trazado 633093" d="M3,23H8.233v2.616H3Z" transform="translate(-3 3.443)" fill="#fccc38"/>
        <path id="Trazado_633094" data-name="Trazado 633094" d="M0,0H2.616V5.233H0Z" transform="matrix(0.707, -0.707, 0.707, 0.707, 63.404, 53.534)" fill="#fccc38"/>
        <path id="Trazado_633095" data-name="Trazado 633095" d="M0,0H2.616V5.232H0Z" transform="translate(10.188 1.85) rotate(-45)" fill="#fccc38"/>
        <path id="Trazado_633096" data-name="Trazado 633096" d="M0,0H5.233V2.616H0Z" transform="translate(61.225 4.362) rotate(-45)" fill="#fccc38"/>
        <path id="Trazado_633097" data-name="Trazado 633097" d="M0,0H5.233V2.616H0Z" transform="translate(7.149 55.608) rotate(-45)" fill="#fccc38"/>
      </g>
    </g>
    <g id="Grupo_929467" data-name="Grupo 929467" transform="translate(353.051 -109.262)">
      <line id="Línea_291" data-name="Línea 291" y2="48" transform="translate(226.949 7190.5) rotate(-90)" fill="none" stroke="#12263f" stroke-width="1"/>
      <line id="Línea_294" data-name="Línea 294" y1="0.126" x2="68" transform="translate(159.449 7437.762)" fill="none" stroke="#12263f" stroke-width="1"/>
      <line id="Línea_293" data-name="Línea 293" y2="501.262" transform="translate(226.949 7190.5)" fill="none" stroke="#12263f" stroke-width="1"/>
      <line id="Línea_292" data-name="Línea 292" y2="48" transform="translate(226.949 7363.277) rotate(-90)" fill="none" stroke="#12263f" stroke-width="1"/>
      <line id="Línea_386" data-name="Línea 386" y2="48" transform="translate(226.949 7528.277) rotate(-90)" fill="none" stroke="#12263f" stroke-width="1"/>
      <line id="Línea_387" data-name="Línea 387" y2="48" transform="translate(226.949 7691.277) rotate(-90)" fill="none" stroke="#12263f" stroke-width="1"/>
    </g>
    <g id="Grupo_932054" data-name="Grupo 932054">
      <rect id="Rectángulo_335283" data-name="Rectángulo 335283" width="132" height="96" rx="13" transform="translate(624 7033.179)" fill="#bc5824"/>
      <path id="Trazado_640173" data-name="Trazado 640173" d="M-47.838,0h-2.117V-8.159l-2.527.784V-9.1l4.417-1.582h.227Zm3.662-1.04a1.066,1.066,0,0,1,.341-.82,1.208,1.208,0,0,1,.853-.315,1.218,1.218,0,0,1,.861.315,1.066,1.066,0,0,1,.341.82,1.051,1.051,0,0,1-.337.809,1.223,1.223,0,0,1-.864.311,1.213,1.213,0,0,1-.857-.311A1.051,1.051,0,0,1-44.176-1.04ZM-30.033-2.2h-3.853L-34.618,0h-2.336l3.97-10.664h2.036L-26.957,0h-2.336Zm-3.259-1.78h2.666l-1.34-3.992ZM-24.5-7.925l.066.916a2.767,2.767,0,0,1,2.278-1.062,2.3,2.3,0,0,1,1.875.74,3.451,3.451,0,0,1,.63,2.212V0h-2.117V-5.068a1.373,1.373,0,0,0-.293-.978,1.312,1.312,0,0,0-.974-.3,1.456,1.456,0,0,0-1.34.762V0H-26.5V-7.925Zm8.987-1.948v1.948h1.355v1.553h-1.355v3.955a.944.944,0,0,0,.168.63.846.846,0,0,0,.645.19,3.376,3.376,0,0,0,.623-.051v1.6a4.358,4.358,0,0,1-1.282.19A2.021,2.021,0,0,1-17.633-2.1v-4.27H-18.79V-7.925h1.157V-9.873ZM-10.748,0h-2.124V-7.925h2.124ZM-13-9.976a1.042,1.042,0,0,1,.319-.784,1.2,1.2,0,0,1,.868-.308,1.2,1.2,0,0,1,.864.308,1.036,1.036,0,0,1,.322.784,1.039,1.039,0,0,1-.326.791,1.2,1.2,0,0,1-.861.308,1.2,1.2,0,0,1-.861-.308A1.039,1.039,0,0,1-13-9.976Zm3.684,5.955a4.644,4.644,0,0,1,.868-2.937A2.812,2.812,0,0,1-6.1-8.071a2.466,2.466,0,0,1,2.029.894l.088-.747h1.919V-.264a3.387,3.387,0,0,1-.472,1.809A3.034,3.034,0,0,1-3.871,2.717a4.673,4.673,0,0,1-2.007.4,4.346,4.346,0,0,1-1.7-.348,3.016,3.016,0,0,1-1.252-.9L-7.892.586a2.48,2.48,0,0,0,1.919.886,1.815,1.815,0,0,0,1.311-.45A1.69,1.69,0,0,0-4.193-.256V-.681A2.448,2.448,0,0,1-6.119.146,2.8,2.8,0,0,1-8.43-.97a4.643,4.643,0,0,1-.883-2.963Zm2.117.158a2.892,2.892,0,0,0,.432,1.691,1.375,1.375,0,0,0,1.187.612,1.47,1.47,0,0,0,1.384-.726V-5.624a1.466,1.466,0,0,0-1.37-.726,1.383,1.383,0,0,0-1.2.624A3.26,3.26,0,0,0-7.2-3.863ZM4.3-.806A2.654,2.654,0,0,1,2.135.146,2.5,2.5,0,0,1,.19-.586,3.127,3.127,0,0,1-.494-2.732V-7.925H1.622V-2.8q0,1.239,1.128,1.239A1.528,1.528,0,0,0,4.23-2.308V-7.925H6.354V0H4.362ZM12.543,0a2.351,2.351,0,0,1-.212-.71,2.561,2.561,0,0,1-2,.857A2.814,2.814,0,0,1,8.4-.527a2.167,2.167,0,0,1-.765-1.7A2.24,2.24,0,0,1,8.569-4.16a4.608,4.608,0,0,1,2.7-.681h.974V-5.3a1.306,1.306,0,0,0-.282-.879,1.109,1.109,0,0,0-.89-.33,1.261,1.261,0,0,0-.839.256.871.871,0,0,0-.3.7H7.811a2.126,2.126,0,0,1,.425-1.274,2.808,2.808,0,0,1,1.2-.919,4.378,4.378,0,0,1,1.743-.333,3.459,3.459,0,0,1,2.325.736,2.575,2.575,0,0,1,.861,2.069v3.435a3.789,3.789,0,0,0,.315,1.707V0Zm-1.75-1.472a1.823,1.823,0,0,0,.864-.209,1.371,1.371,0,0,0,.586-.56V-3.6h-.791Q9.862-3.6,9.76-2.5l-.007.125a.847.847,0,0,0,.278.652A1.081,1.081,0,0,0,10.792-1.472Zm9.316-2.241H15.985V-5.42h4.124ZM26.1-2.19a.682.682,0,0,0-.385-.612,4.368,4.368,0,0,0-1.234-.4q-2.827-.593-2.827-2.4a2.178,2.178,0,0,1,.875-1.761,3.531,3.531,0,0,1,2.289-.707,3.8,3.8,0,0,1,2.413.71,2.239,2.239,0,0,1,.9,1.846H26.019a1.024,1.024,0,0,0-.293-.751,1.24,1.24,0,0,0-.916-.3,1.267,1.267,0,0,0-.828.242.763.763,0,0,0-.293.615.652.652,0,0,0,.333.568,3.428,3.428,0,0,0,1.124.374,9.183,9.183,0,0,1,1.333.355,2.19,2.19,0,0,1,1.677,2.131,2.067,2.067,0,0,1-.93,1.754,4.013,4.013,0,0,1-2.4.67,4.191,4.191,0,0,1-1.769-.355,2.968,2.968,0,0,1-1.212-.974,2.263,2.263,0,0,1-.439-1.337h2.007a1.105,1.105,0,0,0,.417.864,1.656,1.656,0,0,0,1.04.3,1.533,1.533,0,0,0,.919-.231A.718.718,0,0,0,26.1-2.19ZM31.754,0H29.63V-7.925h2.124ZM29.506-9.976a1.042,1.042,0,0,1,.319-.784,1.2,1.2,0,0,1,.868-.308,1.2,1.2,0,0,1,.864.308,1.036,1.036,0,0,1,.322.784,1.039,1.039,0,0,1-.326.791,1.2,1.2,0,0,1-.861.308,1.2,1.2,0,0,1-.861-.308A1.039,1.039,0,0,1,29.506-9.976ZM33.19-4.021a4.644,4.644,0,0,1,.868-2.937A2.812,2.812,0,0,1,36.4-8.071a2.466,2.466,0,0,1,2.029.894l.088-.747h1.919V-.264a3.387,3.387,0,0,1-.472,1.809,3.034,3.034,0,0,1-1.329,1.172,4.673,4.673,0,0,1-2.007.4,4.346,4.346,0,0,1-1.7-.348,3.016,3.016,0,0,1-1.252-.9L34.611.586a2.48,2.48,0,0,0,1.919.886,1.815,1.815,0,0,0,1.311-.45,1.69,1.69,0,0,0,.469-1.278V-.681a2.448,2.448,0,0,1-1.926.828A2.8,2.8,0,0,1,34.072-.97a4.643,4.643,0,0,1-.883-2.963Zm2.117.158a2.892,2.892,0,0,0,.432,1.691,1.375,1.375,0,0,0,1.187.612,1.47,1.47,0,0,0,1.384-.726V-5.624a1.466,1.466,0,0,0-1.37-.726,1.383,1.383,0,0,0-1.2.624A3.26,3.26,0,0,0,35.306-3.863ZM44.293,0H42.169V-11.25h2.124Zm1.414-4.036a4.7,4.7,0,0,1,.454-2.1,3.324,3.324,0,0,1,1.307-1.428,3.814,3.814,0,0,1,1.981-.505,3.609,3.609,0,0,1,2.618.981A3.939,3.939,0,0,1,53.2-4.424l.015.542A4.142,4.142,0,0,1,52.2-.956a3.539,3.539,0,0,1-2.732,1.1,3.556,3.556,0,0,1-2.736-1.1A4.215,4.215,0,0,1,45.707-3.94Zm2.117.15a2.962,2.962,0,0,0,.425,1.727,1.4,1.4,0,0,0,1.216.6,1.4,1.4,0,0,0,1.2-.591A3.241,3.241,0,0,0,51.1-4.039a2.933,2.933,0,0,0-.432-1.716,1.4,1.4,0,0,0-1.216-.609,1.382,1.382,0,0,0-1.2.605A3.3,3.3,0,0,0,47.823-3.885Zm-52.775,20.9,2-3.677H-.425L-3.53,18.624-.344,24H-2.9l-2.051-3.735L-7,24H-9.558l3.186-5.376-3.105-5.288h2.527ZM4.8,21.356l2.417-8.02H9.668L5.955,24H3.662l-3.7-10.664H2.4Z" transform="translate(690 7097)" fill="#fff"/>
      <g id="bombilla_1_" data-name="bombilla(1)" transform="translate(659.244 7034.179)">
        <path id="Trazado_633098" data-name="Trazado 633098" d="M248.635,6.279a.718.718,0,0,0,.718-.718V.718a.718.718,0,0,0-1.436,0V5.56A.718.718,0,0,0,248.635,6.279Z" transform="translate(-218.172)" fill="#fff"/>
        <path id="Trazado_633099" data-name="Trazado 633099" d="M81.171,75.224a.718.718,0,0,0,1.016-1.016l-3.424-3.424A.718.718,0,0,0,77.747,71.8Z" transform="translate(-63.478 -64.01)" fill="#fff"/>
        <path id="Trazado_633100" data-name="Trazado 633100" d="M12.523,240.953H7.681a.718.718,0,0,0,0,1.436h4.842a.718.718,0,0,0,0-1.436Z" transform="translate(0 -222.685)" fill="#fff"/>
        <path id="Trazado_633101" data-name="Trazado 633101" d="M81.171,375.79l-3.424,3.424a.718.718,0,0,0,1.016,1.016l3.424-3.424a.718.718,0,0,0-1.016-1.016Z" transform="translate(-63.478 -347.678)" fill="#fff"/>
        <path id="Trazado_633102" data-name="Trazado 633102" d="M383.768,375.789a.718.718,0,1,0-1.016,1.016l3.424,3.424a.718.718,0,0,0,1.016-1.016Z" transform="translate(-340.535 -347.677)" fill="#fff"/>
        <path id="Trazado_633103" data-name="Trazado 633103" d="M443.867,240.953h-4.842a.718.718,0,0,0,0,1.436h4.842a.718.718,0,1,0,0-1.436Z" transform="translate(-390.622 -222.685)" fill="#fff"/>
        <path id="Trazado_633104" data-name="Trazado 633104" d="M386.177,70.784l-3.424,3.424a.718.718,0,1,0,1.016,1.016l3.424-3.424a.718.718,0,0,0-1.016-1.016Z" transform="translate(-340.535 -64.01)" fill="#fff"/>
        <path id="Trazado_633105" data-name="Trazado 633105" d="M135.047,97.052A13.99,13.99,0,0,0,121.151,83a13.735,13.735,0,0,0-7.533,2.242,14.034,14.034,0,0,0-5.034,5.806.7.7,0,0,0,1.275.593A12.528,12.528,0,1,1,130.1,105.871a8.469,8.469,0,0,0-2.721,4.508H115.1a8.912,8.912,0,0,0-2.833-4.434,12.656,12.656,0,0,1-3.607-8.893,12.916,12.916,0,0,1,.236-2.46.7.7,0,0,0-1.381-.267,14.31,14.31,0,0,0-.262,2.727,14.049,14.049,0,0,0,4.006,9.871c1.484,1.52,2.534,2.733,2.534,4.511,0,.006,0,.013,0,.019l.04,4.115a3.692,3.692,0,0,0,1.782,3.156v.771A3.515,3.515,0,0,0,119.134,123h4.314a3.515,3.515,0,0,0,3.517-3.506v-.771a3.692,3.692,0,0,0,1.782-3.156s-.005-4.584-.014-4.629c.133-1.625,1.122-2.78,2.387-4.1A14.061,14.061,0,0,0,135.047,97.052Zm-9.488,22.442a2.109,2.109,0,0,1-2.11,2.1h-4.314a2.109,2.109,0,0,1-2.11-2.1v-.27a3.725,3.725,0,0,0,.516.037h7.5a3.739,3.739,0,0,0,.516-.037Zm-.516-1.636h-7.5a2.3,2.3,0,0,1-2.3-2.291v-.047h7.128a.7.7,0,1,0,0-1.4h-7.128v-2.337h12.077l.022,2.337h-1.688a.7.7,0,1,0,0,1.4h1.688v.047A2.3,2.3,0,0,1,125.043,117.858Z" transform="translate(-90.688 -83.485)" fill="#fff"/>
        <path id="Trazado_633106" data-name="Trazado 633106" d="M187.293,190.3a.718.718,0,0,0,1.135.881l1.422-1.831a2.3,2.3,0,0,0-3.631-2.819L181.58,192.5l-2.662-2.946a2.3,2.3,0,0,0-3.41,3.082l4.5,4.98a2.313,2.313,0,0,0,3.52-.132l2.843-3.661a.718.718,0,0,0-1.135-.881l-2.843,3.661a.867.867,0,0,1-1.32.049l-4.5-4.98a.862.862,0,1,1,1.279-1.156l3.237,3.581a.724.724,0,0,0,1.1-.041l5.164-6.651a.862.862,0,1,1,1.361,1.057Z" transform="translate(-152.161 -172.718)" fill="#fff"/>
      </g>
    </g>
    <g id="Grupo_932051" data-name="Grupo 932051" transform="translate(0 -79)">
      <rect id="Rectángulo_335286" data-name="Rectángulo 335286" width="132" height="96" rx="13" transform="translate(624 7280.179)" fill="#bc5824"/>
      <path id="Trazado_640174" data-name="Trazado 640174" d="M-32.965,0h-7.8V-1.547l3.68-3.922a9.078,9.078,0,0,0,1.121-1.445A2.322,2.322,0,0,0-35.6-8.086a1.738,1.738,0,0,0-.383-1.191,1.382,1.382,0,0,0-1.094-.434,1.49,1.49,0,0,0-1.207.527A2.089,2.089,0,0,0-38.723-7.8h-2.266a3.729,3.729,0,0,1,.5-1.9,3.5,3.5,0,0,1,1.4-1.348,4.262,4.262,0,0,1,2.055-.488,4.036,4.036,0,0,1,2.73.844A2.985,2.985,0,0,1-33.332-8.3a3.825,3.825,0,0,1-.437,1.719,9.551,9.551,0,0,1-1.5,2.039L-37.855-1.82h4.891Zm1.594-1.109a1.137,1.137,0,0,1,.363-.875,1.289,1.289,0,0,1,.91-.336,1.3,1.3,0,0,1,.918.336,1.137,1.137,0,0,1,.363.875,1.121,1.121,0,0,1-.359.863A1.305,1.305,0,0,1-30.1.086a1.294,1.294,0,0,1-.914-.332A1.121,1.121,0,0,1-31.371-1.109Zm11.727-10.266,2.922,8.25,2.906-8.25h3.078V0H-13.09V-3.109l.234-5.367L-15.926,0h-1.609L-20.6-8.469l.234,5.359V0h-2.344V-11.375ZM-4.949.156A4.15,4.15,0,0,1-7.977-.984,4.054,4.054,0,0,1-9.145-4.023v-.219A5.106,5.106,0,0,1-8.652-6.52,3.612,3.612,0,0,1-7.258-8.066,3.914,3.914,0,0,1-5.2-8.609a3.508,3.508,0,0,1,2.73,1.094,4.444,4.444,0,0,1,1,3.1v.922H-6.855A2.1,2.1,0,0,0-6.2-2.164a2,2,0,0,0,1.395.5,2.437,2.437,0,0,0,2.039-.945l1.109,1.242A3.389,3.389,0,0,1-3.027-.246,4.511,4.511,0,0,1-4.949.156Zm-.258-6.945a1.411,1.411,0,0,0-1.09.455,2.357,2.357,0,0,0-.535,1.3h3.141v-.181A1.681,1.681,0,0,0-4.1-6.377,1.456,1.456,0,0,0-5.207-6.789Zm4.664,2.5A5.094,5.094,0,0,1,.344-7.437,2.877,2.877,0,0,1,2.77-8.609a2.589,2.589,0,0,1,2.039.922V-12H7.074V0H5.035L4.926-.9A2.657,2.657,0,0,1,2.754.156,2.869,2.869,0,0,1,.359-1.02,5.258,5.258,0,0,1-.543-4.289Zm2.258.168A3.337,3.337,0,0,0,2.129-2.3a1.349,1.349,0,0,0,1.2.634,1.511,1.511,0,0,0,1.477-.884V-5.889a1.489,1.489,0,0,0-1.461-.884Q1.715-6.773,1.715-4.121ZM11.207,0H8.941V-8.453h2.266Zm-2.4-10.641a1.112,1.112,0,0,1,.34-.836,1.277,1.277,0,0,1,.926-.328,1.28,1.28,0,0,1,.922.328,1.105,1.105,0,0,1,.344.836,1.108,1.108,0,0,1-.348.844,1.283,1.283,0,0,1-.918.328A1.283,1.283,0,0,1,9.156-9.8,1.108,1.108,0,0,1,8.809-10.641ZM16.957.156A4.15,4.15,0,0,1,13.93-.984a4.054,4.054,0,0,1-1.168-3.039v-.219a5.106,5.106,0,0,1,.492-2.277,3.612,3.612,0,0,1,1.395-1.547,3.914,3.914,0,0,1,2.059-.543,3.508,3.508,0,0,1,2.73,1.094,4.444,4.444,0,0,1,1,3.1v.922H15.051a2.1,2.1,0,0,0,.66,1.328,2,2,0,0,0,1.395.5,2.437,2.437,0,0,0,2.039-.945l1.109,1.242A3.389,3.389,0,0,1,18.879-.246,4.511,4.511,0,0,1,16.957.156ZM16.7-6.789a1.411,1.411,0,0,0-1.09.455,2.357,2.357,0,0,0-.535,1.3h3.141v-.181a1.681,1.681,0,0,0-.406-1.165A1.456,1.456,0,0,0,16.7-6.789Zm8.078,4.031,1.57-5.7h2.359L25.855,0H23.7L20.848-8.453h2.359ZM34.48,0a2.507,2.507,0,0,1-.227-.758,2.732,2.732,0,0,1-2.133.914,3,3,0,0,1-2.059-.719,2.312,2.312,0,0,1-.816-1.812,2.389,2.389,0,0,1,1-2.062,4.915,4.915,0,0,1,2.879-.727H34.16v-.484a1.393,1.393,0,0,0-.3-.937,1.183,1.183,0,0,0-.949-.352,1.345,1.345,0,0,0-.895.273.929.929,0,0,0-.324.75H29.434a2.268,2.268,0,0,1,.453-1.359,3,3,0,0,1,1.281-.98,4.669,4.669,0,0,1,1.859-.355,3.689,3.689,0,0,1,2.48.785,2.747,2.747,0,0,1,.918,2.207v3.664a4.041,4.041,0,0,0,.336,1.82V0ZM32.613-1.57a1.945,1.945,0,0,0,.922-.223,1.462,1.462,0,0,0,.625-.6V-3.844h-.844q-1.7,0-1.8,1.172l-.008.133a.9.9,0,0,0,.3.7A1.153,1.153,0,0,0,32.613-1.57ZM40.543,0H38.277V-12h2.266Z" transform="translate(690 7358.179)" fill="#fff"/>
      <g id="bombilla_1_2" data-name="bombilla(1)" transform="translate(659.244 7285.179)">
        <path id="Trazado_633098-2" data-name="Trazado 633098" d="M248.635,6.279a.718.718,0,0,0,.718-.718V.718a.718.718,0,0,0-1.436,0V5.56A.718.718,0,0,0,248.635,6.279Z" transform="translate(-219.172)" fill="#fff"/>
        <path id="Trazado_633099-2" data-name="Trazado 633099" d="M81.171,75.224a.718.718,0,0,0,1.016-1.016l-3.424-3.424A.718.718,0,0,0,77.747,71.8Z" transform="translate(-63.815 -64.01)" fill="#fff"/>
        <path id="Trazado_633100-2" data-name="Trazado 633100" d="M12.523,240.953H7.681a.718.718,0,0,0,0,1.436h4.842a.718.718,0,0,0,0-1.436Z" transform="translate(0 -222.685)" fill="#fff"/>
        <path id="Trazado_633101-2" data-name="Trazado 633101" d="M81.171,375.79l-3.424,3.424a.718.718,0,0,0,1.016,1.016l3.424-3.424a.718.718,0,0,0-1.016-1.016Z" transform="translate(-63.815 -347.678)" fill="#fff"/>
        <path id="Trazado_633102-2" data-name="Trazado 633102" d="M383.768,375.789a.718.718,0,1,0-1.016,1.016l3.424,3.424a.718.718,0,0,0,1.016-1.016Z" transform="translate(-342.198 -347.677)" fill="#fff"/>
        <path id="Trazado_633103-2" data-name="Trazado 633103" d="M443.867,240.953h-4.842a.718.718,0,0,0,0,1.436h4.842a.718.718,0,1,0,0-1.436Z" transform="translate(-392.622 -222.685)" fill="#fff"/>
        <path id="Trazado_633104-2" data-name="Trazado 633104" d="M386.177,70.784l-3.424,3.424a.718.718,0,1,0,1.016,1.016l3.424-3.424a.718.718,0,0,0-1.016-1.016Z" transform="translate(-342.198 -64.01)" fill="#fff"/>
        <path id="Trazado_633105-2" data-name="Trazado 633105" d="M133.047,97.052c0-7.748-5.785-14.052-12.9-14.052a12.1,12.1,0,0,0-6.991,2.242,13.784,13.784,0,0,0-4.672,5.806.724.724,0,0,0,.316.932.634.634,0,0,0,.868-.339,11.619,11.619,0,0,1,10.48-7.239c6.391,0,11.59,5.674,11.59,12.649a13.205,13.205,0,0,1-3.282,8.819,8.611,8.611,0,0,0-2.525,4.508h-11.4a9.011,9.011,0,0,0-2.629-4.434,13.186,13.186,0,0,1-3.348-8.893,13.887,13.887,0,0,1,.219-2.46.7.7,0,0,0-.517-.822.657.657,0,0,0-.765.555,15.385,15.385,0,0,0-.243,2.727,14.636,14.636,0,0,0,3.718,9.871c1.377,1.52,2.352,2.733,2.352,4.511,0,.006,0,.013,0,.019l.037,4.115a3.759,3.759,0,0,0,1.654,3.156v.771A3.4,3.4,0,0,0,118.28,123h4a3.4,3.4,0,0,0,3.264-3.506v-.771a3.759,3.759,0,0,0,1.654-3.156s0-4.584-.013-4.629c.124-1.625,1.041-2.78,2.215-4.1A14.659,14.659,0,0,0,133.047,97.052Zm-8.8,22.442a2.037,2.037,0,0,1-1.958,2.1h-4a2.037,2.037,0,0,1-1.958-2.1v-.27a3.214,3.214,0,0,0,.479.037h6.963a3.225,3.225,0,0,0,.479-.037Zm-.479-1.636H116.8a2.218,2.218,0,0,1-2.132-2.291v-.047h6.615a.7.7,0,0,0,0-1.4h-6.615v-2.337h11.208l.02,2.337h-1.567a.7.7,0,0,0,0,1.4H125.9v.047A2.218,2.218,0,0,1,123.763,117.858Z" transform="translate(-90.688 -83.485)" fill="#fff"/>
        <path id="Trazado_633106-2" data-name="Trazado 633106" d="M187.293,190.3a.718.718,0,0,0,1.135.881l1.422-1.831a2.3,2.3,0,0,0-3.631-2.819L181.58,192.5l-2.662-2.946a2.3,2.3,0,0,0-3.41,3.082l4.5,4.98a2.313,2.313,0,0,0,3.52-.132l2.843-3.661a.718.718,0,0,0-1.135-.881l-2.843,3.661a.867.867,0,0,1-1.32.049l-4.5-4.98a.862.862,0,1,1,1.279-1.156l3.237,3.581a.724.724,0,0,0,1.1-.041l5.164-6.651a.862.862,0,1,1,1.361,1.057Z" transform="translate(-153.161 -172.718)" fill="#fff"/>
      </g>
    </g>
    <g id="Grupo_932052" data-name="Grupo 932052" transform="translate(0 -159.822)">
      <rect id="Rectángulo_335287" data-name="Rectángulo 335287" width="132" height="96" rx="13" transform="translate(624 7527.179)" fill="#bc5824"/>
      <path id="Trazado_640175" data-name="Trazado 640175" d="M-42.045-6.27h1.128a1.589,1.589,0,0,0,1.194-.4,1.476,1.476,0,0,0,.388-1.069,1.305,1.305,0,0,0-.385-1A1.49,1.49,0,0,0-40.778-9.1a1.562,1.562,0,0,0-1.018.333,1.066,1.066,0,0,0-.41.868h-2.117a2.6,2.6,0,0,1,.45-1.5,3,3,0,0,1,1.26-1.036,4.2,4.2,0,0,1,1.783-.374A3.987,3.987,0,0,1-38.177-10a2.761,2.761,0,0,1,.959,2.23,2.244,2.244,0,0,1-.447,1.348,2.9,2.9,0,0,1-1.172.945,2.65,2.65,0,0,1,1.344.967,2.623,2.623,0,0,1,.443,1.523A2.807,2.807,0,0,1-38.086-.71a4.167,4.167,0,0,1-2.743.857A3.951,3.951,0,0,1-43.44-.7a2.751,2.751,0,0,1-1.014-2.227h2.117a1.226,1.226,0,0,0,.45.981,1.66,1.66,0,0,0,1.11.381,1.668,1.668,0,0,0,1.183-.4,1.378,1.378,0,0,0,.428-1.058q0-1.6-1.758-1.6h-1.121Zm6.65,5.229a1.066,1.066,0,0,1,.341-.82,1.208,1.208,0,0,1,.853-.315,1.218,1.218,0,0,1,.861.315A1.066,1.066,0,0,1-33-1.04a1.051,1.051,0,0,1-.337.809A1.223,1.223,0,0,1-34.2.081a1.213,1.213,0,0,1-.857-.311A1.051,1.051,0,0,1-35.394-1.04ZM-21.742-2.8a1.128,1.128,0,0,0-.439-.956,5.764,5.764,0,0,0-1.582-.7,11.215,11.215,0,0,1-1.809-.729A2.956,2.956,0,0,1-27.389-7.83,2.575,2.575,0,0,1-26.9-9.371a3.177,3.177,0,0,1,1.4-1.058,5.265,5.265,0,0,1,2.047-.381,4.793,4.793,0,0,1,2.036.414,3.242,3.242,0,0,1,1.388,1.168,3.057,3.057,0,0,1,.494,1.714h-2.2A1.438,1.438,0,0,0-22.2-8.654a1.9,1.9,0,0,0-1.3-.406,2.026,2.026,0,0,0-1.252.341,1.074,1.074,0,0,0-.447.9,1.029,1.029,0,0,0,.524.872,5.916,5.916,0,0,0,1.542.659,6.661,6.661,0,0,1,2.732,1.4,2.786,2.786,0,0,1,.857,2.08A2.566,2.566,0,0,1-20.585-.641,4.585,4.585,0,0,1-23.4.146,5.445,5.445,0,0,1-25.646-.3a3.546,3.546,0,0,1-1.542-1.234,3.161,3.161,0,0,1-.531-1.816h2.2q0,1.765,2.109,1.765a2.052,2.052,0,0,0,1.223-.319A1.037,1.037,0,0,0-21.742-2.8ZM-15.956,0H-18.08V-7.925h2.124ZM-18.2-9.976a1.042,1.042,0,0,1,.319-.784,1.2,1.2,0,0,1,.868-.308,1.2,1.2,0,0,1,.864.308,1.036,1.036,0,0,1,.322.784,1.039,1.039,0,0,1-.326.791,1.2,1.2,0,0,1-.861.308,1.2,1.2,0,0,1-.861-.308A1.039,1.039,0,0,1-18.2-9.976Zm3.684,5.955a4.644,4.644,0,0,1,.868-2.937,2.812,2.812,0,0,1,2.34-1.113,2.466,2.466,0,0,1,2.029.894l.088-.747h1.919V-.264a3.387,3.387,0,0,1-.472,1.809A3.034,3.034,0,0,1-9.078,2.717a4.673,4.673,0,0,1-2.007.4,4.346,4.346,0,0,1-1.7-.348,3.016,3.016,0,0,1-1.252-.9L-13.1.586a2.48,2.48,0,0,0,1.919.886,1.815,1.815,0,0,0,1.311-.45A1.69,1.69,0,0,0-9.4-.256V-.681a2.448,2.448,0,0,1-1.926.828A2.8,2.8,0,0,1-13.638-.97a4.643,4.643,0,0,1-.883-2.963Zm2.117.158a2.892,2.892,0,0,0,.432,1.691,1.375,1.375,0,0,0,1.187.612A1.47,1.47,0,0,0-9.4-2.286V-5.624a1.466,1.466,0,0,0-1.37-.726,1.383,1.383,0,0,0-1.2.624A3.26,3.26,0,0,0-12.4-3.863ZM-3.417,0H-5.541V-11.25h2.124ZM-2-4.036a4.7,4.7,0,0,1,.454-2.1A3.324,3.324,0,0,1-.242-7.566,3.814,3.814,0,0,1,1.74-8.071a3.609,3.609,0,0,1,2.618.981A3.939,3.939,0,0,1,5.49-4.424l.015.542A4.142,4.142,0,0,1,4.486-.956,3.539,3.539,0,0,1,1.754.146,3.556,3.556,0,0,1-.981-.952,4.215,4.215,0,0,1-2-3.94Zm2.117.15A2.962,2.962,0,0,0,.538-2.158a1.4,1.4,0,0,0,1.216.6,1.4,1.4,0,0,0,1.2-.591,3.241,3.241,0,0,0,.432-1.889,2.933,2.933,0,0,0-.432-1.716A1.4,1.4,0,0,0,1.74-6.365a1.382,1.382,0,0,0-1.2.605A3.3,3.3,0,0,0,.114-3.885ZM14.5-6.987l2-3.677h2.527L15.919-5.376,19.105,0H16.549L14.5-3.735,12.448,0H9.891l3.186-5.376L9.972-10.664H12.5Zm9.756,4.343,2.417-8.02h2.446L25.4,0H23.112l-3.7-10.664h2.439ZM38.309,0A2.351,2.351,0,0,1,38.1-.71a2.561,2.561,0,0,1-2,.857,2.814,2.814,0,0,1-1.93-.674,2.167,2.167,0,0,1-.765-1.7,2.24,2.24,0,0,1,.934-1.934,4.608,4.608,0,0,1,2.7-.681h.974V-5.3a1.306,1.306,0,0,0-.282-.879,1.109,1.109,0,0,0-.89-.33A1.261,1.261,0,0,0,36-6.248a.871.871,0,0,0-.3.7H33.578A2.126,2.126,0,0,1,34-6.819a2.808,2.808,0,0,1,1.2-.919,4.378,4.378,0,0,1,1.743-.333,3.459,3.459,0,0,1,2.325.736,2.575,2.575,0,0,1,.861,2.069v3.435a3.789,3.789,0,0,0,.315,1.707V0Zm-1.75-1.472a1.823,1.823,0,0,0,.864-.209,1.371,1.371,0,0,0,.586-.56V-3.6h-.791q-1.589,0-1.692,1.1l-.007.125a.847.847,0,0,0,.278.652A1.081,1.081,0,0,0,36.559-1.472ZM43.993,0H41.869V-11.25h2.124ZM-6.947,17.013l2-3.677h2.527l-3.105,5.288L-2.34,24H-4.9l-2.051-3.735L-9,24h-2.556l3.186-5.376-3.105-5.288h2.527ZM1.1,24h-2.2V13.336H1.1Zm5.852-6.987,2-3.677h2.527L8.375,18.624,11.561,24H9.005L6.954,20.265,4.9,24H2.347l3.186-5.376L2.428,13.336H4.955Z" transform="translate(688 7591.822)" fill="#fff"/>
      <g id="bombilla_1_3" data-name="bombilla(1)" transform="translate(659.244 7531.179)">
        <path id="Trazado_633098-3" data-name="Trazado 633098" d="M248.635,6.279a.718.718,0,0,0,.718-.718V.718a.718.718,0,0,0-1.436,0V5.56A.718.718,0,0,0,248.635,6.279Z" transform="translate(-219.172)" fill="#fff"/>
        <path id="Trazado_633099-3" data-name="Trazado 633099" d="M81.171,75.224a.718.718,0,0,0,1.016-1.016l-3.424-3.424A.718.718,0,0,0,77.747,71.8Z" transform="translate(-63.638 -64.301)" fill="#fff"/>
        <path id="Trazado_633100-3" data-name="Trazado 633100" d="M12.523,240.953H7.681a.718.718,0,0,0,0,1.436h4.842a.718.718,0,0,0,0-1.436Z" transform="translate(0 -222.213)" fill="#fff"/>
        <path id="Trazado_633101-3" data-name="Trazado 633101" d="M81.171,375.79l-3.424,3.424a.718.718,0,0,0,1.016,1.016l3.424-3.424a.718.718,0,0,0-1.016-1.016Z" transform="translate(-63.638 -346.894)" fill="#fff"/>
        <path id="Trazado_633102-3" data-name="Trazado 633102" d="M383.768,375.789a.718.718,0,1,0-1.016,1.016l3.424,3.424a.718.718,0,0,0,1.016-1.016Z" transform="translate(-342.375 -346.893)" fill="#fff"/>
        <path id="Trazado_633103-3" data-name="Trazado 633103" d="M443.867,240.953h-4.842a.718.718,0,0,0,0,1.436h4.842a.718.718,0,1,0,0-1.436Z" transform="translate(-392.622 -222.213)" fill="#fff"/>
        <path id="Trazado_633104-3" data-name="Trazado 633104" d="M386.177,70.784l-3.424,3.424a.718.718,0,1,0,1.016,1.016l3.424-3.424a.718.718,0,0,0-1.016-1.016Z" transform="translate(-342.375 -64.301)" fill="#fff"/>
        <path id="Trazado_633105-3" data-name="Trazado 633105" d="M133.046,95.636A12.782,12.782,0,0,0,120.151,83a13.043,13.043,0,0,0-6.991,2.016,12.746,12.746,0,0,0-4.672,5.221.622.622,0,0,0,.316.838.663.663,0,0,0,.868-.3,11.668,11.668,0,0,1,10.48-6.51,11.5,11.5,0,0,1,11.59,11.375,11.206,11.206,0,0,1-3.281,7.931,7.577,7.577,0,0,0-2.525,4.054h-11.4a7.992,7.992,0,0,0-2.629-3.987,11.236,11.236,0,0,1-3.129-10.209.632.632,0,0,0-.517-.739.652.652,0,0,0-.765.5,12.465,12.465,0,0,0,3.475,11.329c1.377,1.367,2.351,2.458,2.351,4.057,0,.006,0,.011,0,.017l.037,3.7a3.3,3.3,0,0,0,1.654,2.838v.693a3.213,3.213,0,0,0,3.264,3.153h4a3.213,3.213,0,0,0,3.264-3.153v-.693a3.3,3.3,0,0,0,1.654-2.838s0-4.122-.013-4.163c.124-1.461,1.041-2.5,2.215-3.685A12.439,12.439,0,0,0,133.046,95.636Zm-8.8,20.182a1.928,1.928,0,0,1-1.958,1.892h-4a1.928,1.928,0,0,1-1.958-1.892v-.243a3.567,3.567,0,0,0,.479.033h6.963a3.579,3.579,0,0,0,.479-.033Zm-.479-1.471H116.8a2.1,2.1,0,0,1-2.132-2.06v-.042h6.615a.631.631,0,1,0,0-1.261h-6.615v-2.1h11.208l.02,2.1h-1.567a.631.631,0,1,0,0,1.261H125.9v.042A2.1,2.1,0,0,1,123.763,114.346Z" transform="translate(-90.688 -78.971)" fill="#fff"/>
        <path id="Trazado_633106-3" data-name="Trazado 633106" d="M187.293,190.3a.718.718,0,0,0,1.135.881l1.422-1.831a2.3,2.3,0,0,0-3.631-2.819L181.58,192.5l-2.662-2.946a2.3,2.3,0,0,0-3.41,3.082l4.5,4.98a2.313,2.313,0,0,0,3.52-.132l2.843-3.661a.718.718,0,0,0-1.135-.881l-2.843,3.661a.867.867,0,0,1-1.32.049l-4.5-4.98a.862.862,0,1,1,1.279-1.156l3.237,3.581a.724.724,0,0,0,1.1-.041l5.164-6.651a.862.862,0,1,1,1.361,1.057Z" transform="translate(-153.161 -172.241)" fill="#fff"/>
      </g>
    </g>
    <g id="Grupo_932053" data-name="Grupo 932053" transform="translate(0 6.356)">
      <rect id="Rectángulo_335287-2" data-name="Rectángulo 335287" width="132" height="96" rx="13" transform="translate(624 7527.179)" fill="#bc5824"/>
      <path id="Trazado_640176" data-name="Trazado 640176" d="M-41.8-4.014h1.208v1.707H-41.8V0h-2.117V-2.307h-4.373l-.1-1.333,4.446-7.024H-41.8Zm-4.475,0h2.358V-7.778l-.139.242Zm7.017,2.974a1.066,1.066,0,0,1,.341-.82,1.208,1.208,0,0,1,.853-.315,1.218,1.218,0,0,1,.861.315,1.066,1.066,0,0,1,.341.82,1.051,1.051,0,0,1-.337.809,1.223,1.223,0,0,1-.864.311,1.213,1.213,0,0,1-.857-.311A1.051,1.051,0,0,1-39.258-1.04ZM-25.605-2.8a1.128,1.128,0,0,0-.439-.956,5.764,5.764,0,0,0-1.582-.7,11.215,11.215,0,0,1-1.809-.729A2.956,2.956,0,0,1-31.252-7.83a2.575,2.575,0,0,1,.487-1.542,3.177,3.177,0,0,1,1.4-1.058,5.265,5.265,0,0,1,2.047-.381,4.793,4.793,0,0,1,2.036.414A3.242,3.242,0,0,1-23.9-9.229,3.057,3.057,0,0,1-23.4-7.515h-2.2a1.438,1.438,0,0,0-.461-1.139,1.9,1.9,0,0,0-1.3-.406,2.026,2.026,0,0,0-1.252.341,1.074,1.074,0,0,0-.447.9,1.029,1.029,0,0,0,.524.872,5.916,5.916,0,0,0,1.542.659,6.661,6.661,0,0,1,2.732,1.4,2.786,2.786,0,0,1,.857,2.08A2.566,2.566,0,0,1-24.448-.641a4.585,4.585,0,0,1-2.82.787A5.445,5.445,0,0,1-29.509-.3a3.546,3.546,0,0,1-1.542-1.234,3.161,3.161,0,0,1-.531-1.816h2.2q0,1.765,2.109,1.765a2.052,2.052,0,0,0,1.223-.319A1.037,1.037,0,0,0-25.605-2.8ZM-19.819,0h-2.124V-7.925h2.124Zm-2.249-9.976a1.042,1.042,0,0,1,.319-.784,1.2,1.2,0,0,1,.868-.308,1.2,1.2,0,0,1,.864.308,1.036,1.036,0,0,1,.322.784,1.039,1.039,0,0,1-.326.791,1.2,1.2,0,0,1-.861.308,1.2,1.2,0,0,1-.861-.308A1.039,1.039,0,0,1-22.068-9.976Zm3.684,5.955a4.644,4.644,0,0,1,.868-2.937,2.812,2.812,0,0,1,2.34-1.113,2.466,2.466,0,0,1,2.029.894l.088-.747h1.919V-.264a3.387,3.387,0,0,1-.472,1.809,3.034,3.034,0,0,1-1.329,1.172,4.673,4.673,0,0,1-2.007.4,4.346,4.346,0,0,1-1.7-.348,3.016,3.016,0,0,1-1.252-.9l.938-1.289a2.48,2.48,0,0,0,1.919.886,1.815,1.815,0,0,0,1.311-.45,1.69,1.69,0,0,0,.469-1.278V-.681A2.448,2.448,0,0,1-15.19.146,2.8,2.8,0,0,1-17.5-.97a4.643,4.643,0,0,1-.883-2.963Zm2.117.158a2.892,2.892,0,0,0,.432,1.691,1.375,1.375,0,0,0,1.187.612,1.47,1.47,0,0,0,1.384-.726V-5.624a1.466,1.466,0,0,0-1.37-.726,1.383,1.383,0,0,0-1.2.624A3.26,3.26,0,0,0-16.267-3.863ZM-7.28,0H-9.4V-11.25H-7.28Zm1.414-4.036a4.7,4.7,0,0,1,.454-2.1A3.324,3.324,0,0,1-4.105-7.566a3.814,3.814,0,0,1,1.981-.505A3.609,3.609,0,0,1,.494-7.09,3.939,3.939,0,0,1,1.626-4.424l.015.542A4.142,4.142,0,0,1,.623-.956,3.539,3.539,0,0,1-2.109.146a3.556,3.556,0,0,1-2.736-1.1A4.215,4.215,0,0,1-5.867-3.94Zm2.117.15a2.962,2.962,0,0,0,.425,1.727,1.4,1.4,0,0,0,1.216.6,1.4,1.4,0,0,0,1.2-.591A3.241,3.241,0,0,0-.476-4.039,2.933,2.933,0,0,0-.908-5.756a1.4,1.4,0,0,0-1.216-.609,1.382,1.382,0,0,0-1.2.605A3.3,3.3,0,0,0-3.75-3.885Zm18.12-3.1,2-3.677H18.9L15.791-5.376,18.977,0H16.421L14.37-3.735,12.319,0H9.763l3.186-5.376L9.844-10.664h2.527ZM22.419,0h-2.2V-10.664h2.2Zm5.852-6.987,2-3.677H32.8L29.692-5.376,32.878,0H30.322L28.271-3.735,26.221,0H23.665l3.186-5.376-3.105-5.288h2.527ZM42.173,0a2.351,2.351,0,0,1-.212-.71,2.561,2.561,0,0,1-2,.857,2.814,2.814,0,0,1-1.93-.674,2.167,2.167,0,0,1-.765-1.7A2.24,2.24,0,0,1,38.2-4.16a4.608,4.608,0,0,1,2.7-.681h.974V-5.3a1.306,1.306,0,0,0-.282-.879,1.109,1.109,0,0,0-.89-.33,1.261,1.261,0,0,0-.839.256.871.871,0,0,0-.3.7H37.441a2.126,2.126,0,0,1,.425-1.274,2.808,2.808,0,0,1,1.2-.919,4.378,4.378,0,0,1,1.743-.333,3.459,3.459,0,0,1,2.325.736A2.575,2.575,0,0,1,44-5.266v3.435a3.789,3.789,0,0,0,.315,1.707V0Zm-1.75-1.472a1.823,1.823,0,0,0,.864-.209,1.371,1.371,0,0,0,.586-.56V-3.6h-.791q-1.589,0-1.692,1.1l-.007.125a.847.847,0,0,0,.278.652A1.081,1.081,0,0,0,40.422-1.472ZM47.856,0H45.732V-11.25h2.124ZM-4.761,17.013l2-3.677H-.234L-3.34,18.624-.154,24H-2.71l-2.051-3.735L-6.812,24H-9.368l3.186-5.376-3.105-5.288H-6.76Zm9.529,0,2-3.677H9.294L6.189,18.624,9.375,24H6.819L4.768,20.265,2.717,24H.161l3.186-5.376L.242,13.336H2.769Z" transform="translate(690 7591.644)" fill="#fff"/>
      <g id="bombilla_1_4" data-name="bombilla(1)" transform="translate(659.244 7533.179)">
        <path id="Trazado_633098-4" data-name="Trazado 633098" d="M248.635,6.279a.718.718,0,0,0,.718-.718V.718a.718.718,0,0,0-1.436,0V5.56A.718.718,0,0,0,248.635,6.279Z" transform="translate(-218.672)" fill="#fff"/>
        <path id="Trazado_633099-4" data-name="Trazado 633099" d="M81.171,75.224a.718.718,0,0,0,1.016-1.016l-3.424-3.424A.718.718,0,0,0,77.747,71.8Z" transform="translate(-63.647 -64.01)" fill="#fff"/>
        <path id="Trazado_633100-4" data-name="Trazado 633100" d="M12.523,240.953H7.681a.718.718,0,0,0,0,1.436h4.842a.718.718,0,0,0,0-1.436Z" transform="translate(0 -222.685)" fill="#fff"/>
        <path id="Trazado_633101-4" data-name="Trazado 633101" d="M81.171,375.79l-3.424,3.424a.718.718,0,0,0,1.016,1.016l3.424-3.424a.718.718,0,0,0-1.016-1.016Z" transform="translate(-63.647 -347.678)" fill="#fff"/>
        <path id="Trazado_633102-4" data-name="Trazado 633102" d="M383.768,375.789a.718.718,0,1,0-1.016,1.016l3.424,3.424a.718.718,0,0,0,1.016-1.016Z" transform="translate(-341.366 -347.677)" fill="#fff"/>
        <path id="Trazado_633103-4" data-name="Trazado 633103" d="M443.867,240.953h-4.842a.718.718,0,0,0,0,1.436h4.842a.718.718,0,1,0,0-1.436Z" transform="translate(-391.622 -222.685)" fill="#fff"/>
        <path id="Trazado_633104-4" data-name="Trazado 633104" d="M386.177,70.784l-3.424,3.424a.718.718,0,1,0,1.016,1.016l3.424-3.424a.718.718,0,0,0-1.016-1.016Z" transform="translate(-341.366 -64.01)" fill="#fff"/>
        <path id="Trazado_633105-4" data-name="Trazado 633105" d="M134.047,97.052c0-7.748-6.009-14.052-13.4-14.052a12.9,12.9,0,0,0-7.262,2.242,13.9,13.9,0,0,0-4.853,5.806.712.712,0,0,0,.328.932.669.669,0,0,0,.9-.339A12.072,12.072,0,0,1,120.651,84.4c6.639,0,12.04,5.674,12.04,12.649a12.922,12.922,0,0,1-3.409,8.819,8.532,8.532,0,0,0-2.623,4.508H114.82a8.953,8.953,0,0,0-2.731-4.434,12.907,12.907,0,0,1-3.478-8.893,13.383,13.383,0,0,1,.227-2.46.7.7,0,0,0-.537-.822.68.68,0,0,0-.795.555,14.827,14.827,0,0,0-.252,2.727,14.327,14.327,0,0,0,3.862,9.871c1.43,1.52,2.443,2.733,2.443,4.511,0,.006,0,.013,0,.019l.039,4.115a3.722,3.722,0,0,0,1.718,3.156v.771a3.454,3.454,0,0,0,3.39,3.506h4.159a3.454,3.454,0,0,0,3.39-3.506v-.771a3.722,3.722,0,0,0,1.718-3.156s0-4.584-.014-4.629c.129-1.625,1.081-2.78,2.3-4.1A14.344,14.344,0,0,0,134.047,97.052ZM124.9,119.494a2.072,2.072,0,0,1-2.034,2.1h-4.159a2.072,2.072,0,0,1-2.034-2.1v-.27a3.465,3.465,0,0,0,.5.037H124.4a3.477,3.477,0,0,0,.5-.037Zm-.5-1.636H117.17a2.256,2.256,0,0,1-2.215-2.291v-.047h6.871a.7.7,0,0,0,0-1.4h-6.871v-2.337H126.6l.021,2.337h-1.627a.7.7,0,0,0,0,1.4h1.627v.047A2.256,2.256,0,0,1,124.4,117.858Z" transform="translate(-90.688 -83.485)" fill="#fff"/>
        <path id="Trazado_633106-4" data-name="Trazado 633106" d="M187.293,190.3a.718.718,0,0,0,1.135.881l1.422-1.831a2.3,2.3,0,0,0-3.631-2.819L181.58,192.5l-2.662-2.946a2.3,2.3,0,0,0-3.41,3.082l4.5,4.98a2.313,2.313,0,0,0,3.52-.132l2.843-3.661a.718.718,0,0,0-1.135-.881l-2.843,3.661a.867.867,0,0,1-1.32.049l-4.5-4.98a.862.862,0,1,1,1.279-1.156l3.237,3.581a.724.724,0,0,0,1.1-.041l5.164-6.651a.862.862,0,1,1,1.361,1.057Z" transform="translate(-152.661 -172.718)" fill="#fff"/>
      </g>
    </g>
  </g>
</svg>
